<svg width="25" height="24" viewBox="0 0 25 24" fill="none" xmlns="http://www.w3.org/2000/svg">
<path d="M11.0625 6H16.0625V8H11.0625V6ZM8.0625 9V3H19.0625V9C19.8581 9 20.6212 9.31607 21.1838 9.87868C21.7464 10.4413 22.0625 11.2044 22.0625 12V18H19.0625V21H8.0625V18H7.0625V9H8.0625ZM10.0625 5V9H17.0625V5H10.0625ZM10.0625 15V19H17.0625V15H10.0625ZM19.0625 11C18.7973 11 18.5429 11.1054 18.3554 11.2929C18.1679 11.4804 18.0625 11.7348 18.0625 12C18.0625 12.2652 18.1679 12.5196 18.3554 12.7071C18.5429 12.8946 18.7973 13 19.0625 13C19.3277 13 19.5821 12.8946 19.7696 12.7071C19.9571 12.5196 20.0625 12.2652 20.0625 12C20.0625 11.7348 19.9571 11.4804 19.7696 11.2929C19.5821 11.1054 19.3277 11 19.0625 11ZM4.0625 9H5.0625C5.32772 9 5.58207 9.10536 5.76961 9.29289C5.95714 9.48043 6.0625 9.73478 6.0625 10V17C6.0625 17.2652 5.95714 17.5196 5.76961 17.7071C5.58207 17.8946 5.32772 18 5.0625 18H4.0625C3.53207 18 3.02336 17.7893 2.64829 17.4142C2.27321 17.0391 2.0625 16.5304 2.0625 16V11C2.0625 10.4696 2.27321 9.96086 2.64829 9.58579C3.02336 9.21071 3.53207 9 4.0625 9Z" fill="white"/>
</svg>
