<svg width="20" height="20" viewBox="0 0 20 20" fill="none" xmlns="http://www.w3.org/2000/svg">
<path d="M9.16699 5H13.3337V6.66667H9.16699V5ZM6.66699 7.5V2.5H15.8337V7.5C16.4967 7.5 17.1326 7.76339 17.6014 8.23223C18.0703 8.70107 18.3337 9.33696 18.3337 10V15H15.8337V17.5H6.66699V15H5.83366V7.5H6.66699ZM8.33366 4.16667V7.5H14.167V4.16667H8.33366ZM8.33366 12.5V15.8333H14.167V12.5H8.33366ZM15.8337 9.16667C15.6126 9.16667 15.4007 9.25446 15.2444 9.41074C15.0881 9.56702 15.0003 9.77899 15.0003 10C15.0003 10.221 15.0881 10.433 15.2444 10.5893C15.4007 10.7455 15.6126 10.8333 15.8337 10.8333C16.0547 10.8333 16.2666 10.7455 16.4229 10.5893C16.5792 10.433 16.667 10.221 16.667 10C16.667 9.77899 16.5792 9.56702 16.4229 9.41074C16.2666 9.25446 16.0547 9.16667 15.8337 9.16667ZM3.33366 7.5H4.16699C4.38801 7.5 4.59997 7.5878 4.75625 7.74408C4.91253 7.90036 5.00033 8.11232 5.00033 8.33333V14.1667C5.00033 14.3877 4.91253 14.5996 4.75625 14.7559C4.59997 14.9122 4.38801 15 4.16699 15H3.33366C2.89163 15 2.46771 14.8244 2.15515 14.5118C1.84259 14.1993 1.66699 13.7754 1.66699 13.3333V9.16667C1.66699 8.72464 1.84259 8.30072 2.15515 7.98816C2.46771 7.67559 2.89163 7.5 3.33366 7.5V7.5Z" fill="black"/>
</svg>
