<svg width="24" height="24" viewBox="0 0 24 24" fill="none" xmlns="http://www.w3.org/2000/svg">
<path d="M12.2475 7.75342C11.0563 7.75342 9.91379 8.22665 9.07144 9.069C8.22909 9.91135 7.75586 11.0538 7.75586 12.2451C7.75586 13.4364 8.22909 14.5788 9.07144 15.4212C9.91379 16.2635 11.0563 16.7368 12.2475 16.7368C13.4388 16.7368 14.5813 16.2635 15.4236 15.4212C16.266 14.5788 16.7392 13.4364 16.7392 12.2451C16.7392 11.0538 16.266 9.91135 15.4236 9.069C14.5813 8.22665 13.4388 7.75342 12.2475 7.75342ZM12.2475 15.1622C11.4736 15.1622 10.7314 14.8547 10.1842 14.3075C9.63693 13.7602 9.3295 13.018 9.3295 12.2441C9.3295 11.4702 9.63693 10.728 10.1842 10.1808C10.7314 9.63352 11.4736 9.32609 12.2475 9.32609C13.0214 9.32609 13.7637 9.63352 14.3109 10.1808C14.8581 10.728 15.1656 11.4702 15.1656 12.2441C15.1656 13.018 14.8581 13.7602 14.3109 14.3075C13.7637 14.8547 13.0214 15.1622 12.2475 15.1622Z" fill="white"/>
<path d="M16.9173 8.63532C17.4956 8.63532 17.9644 8.16649 17.9644 7.58817C17.9644 7.00984 17.4956 6.54102 16.9173 6.54102C16.3389 6.54102 15.8701 7.00984 15.8701 7.58817C15.8701 8.16649 16.3389 8.63532 16.9173 8.63532Z" fill="white"/>
<path d="M20.5371 6.52346C20.3123 5.94275 19.9686 5.41539 19.5282 4.97514C19.0878 4.53488 18.5603 4.19144 17.9795 3.96678C17.2998 3.71166 16.5818 3.5737 15.856 3.5588C14.9206 3.518 14.6243 3.50635 12.2522 3.50635C9.88009 3.50635 9.57604 3.50635 8.64837 3.5588C7.92313 3.57294 7.20563 3.71092 6.52687 3.96678C5.94592 4.19117 5.41829 4.53453 4.97784 4.97481C4.53738 5.4151 4.19383 5.9426 3.96922 6.52346C3.71404 7.20305 3.57641 7.92112 3.56221 8.64691C3.52044 9.58138 3.50781 9.87765 3.50781 12.2507C3.50781 14.6229 3.50781 14.925 3.56221 15.8546C3.57678 16.5812 3.71375 17.298 3.96922 17.979C4.19446 18.5596 4.53835 19.0869 4.97891 19.5271C5.41947 19.9674 5.94702 20.3109 6.52784 20.5357C7.20532 20.801 7.92311 20.9489 8.65031 20.9728C9.58576 21.0136 9.88203 21.0262 12.2541 21.0262C14.6263 21.0262 14.9303 21.0262 15.858 20.9728C16.5837 20.958 17.3017 20.8204 17.9814 20.5658C18.5621 20.3406 19.0894 19.9969 19.5298 19.5565C19.9701 19.1161 20.3139 18.5888 20.5391 18.0081C20.7945 17.3282 20.9315 16.6113 20.9461 15.8847C20.9879 14.9502 21.0005 14.6539 21.0005 12.2808C21.0005 9.90776 21.0005 9.60663 20.9461 8.67702C20.9348 7.94098 20.7964 7.21241 20.5371 6.52346ZM19.354 15.7827C19.3477 16.3425 19.2455 16.8971 19.0519 17.4224C18.906 17.8001 18.6827 18.1431 18.3963 18.4294C18.1099 18.7156 17.7667 18.9388 17.3889 19.0844C16.8694 19.2772 16.3207 19.3794 15.7667 19.3865C14.8439 19.4293 14.5835 19.4399 12.2172 19.4399C9.849 19.4399 9.60713 19.4399 8.66683 19.3865C8.11307 19.3797 7.56462 19.2775 7.04559 19.0844C6.66645 18.9397 6.32191 18.7169 6.03427 18.4306C5.74663 18.1443 5.5223 17.8008 5.37578 17.4224C5.18485 16.9027 5.08273 16.3547 5.07368 15.8011C5.03191 14.8783 5.0222 14.618 5.0222 12.2517C5.0222 9.88445 5.0222 9.64257 5.07368 8.7013C5.07996 8.14181 5.18214 7.58753 5.37578 7.06258C5.67205 6.29616 6.27917 5.69293 7.04559 5.39957C7.56488 5.20738 8.11316 5.10521 8.66683 5.09747C9.59061 5.0557 9.84997 5.04405 12.2172 5.04405C14.5845 5.04405 14.8273 5.04405 15.7667 5.09747C16.3208 5.10414 16.8695 5.20634 17.3889 5.39957C17.7667 5.54555 18.1098 5.76889 18.3962 6.05529C18.6826 6.34168 18.9059 6.68478 19.0519 7.06258C19.2428 7.58222 19.3449 8.13029 19.354 8.68382C19.3958 9.6076 19.4064 9.86696 19.4064 12.2342C19.4064 14.6005 19.4064 14.855 19.3647 15.7837H19.354V15.7827Z" fill="white"/>
</svg>
