<svg width="20" height="20" viewBox="0 0 20 20" fill="none" xmlns="http://www.w3.org/2000/svg">
<path d="M10.206 6.46123C9.21323 6.46123 8.26117 6.85558 7.55921 7.55755C6.85725 8.25951 6.46289 9.21157 6.46289 10.2043C6.46289 11.197 6.85725 12.1491 7.55921 12.851C8.26117 13.553 9.21323 13.9474 10.206 13.9474C11.1987 13.9474 12.1507 13.553 12.8527 12.851C13.5547 12.1491 13.949 11.197 13.949 10.2043C13.949 9.21157 13.5547 8.25951 12.8527 7.55755C12.1507 6.85558 11.1987 6.46123 10.206 6.46123ZM10.206 12.6352C9.56103 12.6352 8.94252 12.379 8.48648 11.9229C8.03045 11.4669 7.77426 10.8484 7.77426 10.2035C7.77426 9.55855 8.03045 8.94004 8.48648 8.48401C8.94252 8.02798 9.56103 7.77179 10.206 7.77179C10.8509 7.77179 11.4694 8.02798 11.9254 8.48401C12.3815 8.94004 12.6376 9.55855 12.6376 10.2035C12.6376 10.8484 12.3815 11.4669 11.9254 11.9229C11.4694 12.379 10.8509 12.6352 10.206 12.6352Z" fill="black"/>
<path d="M14.0972 7.19623C14.5792 7.19623 14.9699 6.80554 14.9699 6.3236C14.9699 5.84166 14.5792 5.45097 14.0972 5.45097C13.6153 5.45097 13.2246 5.84166 13.2246 6.3236C13.2246 6.80554 13.6153 7.19623 14.0972 7.19623Z" fill="black"/>
<path d="M17.1139 5.4364C16.9266 4.95247 16.6402 4.513 16.2732 4.14612C15.9061 3.77925 15.4666 3.49304 14.9826 3.30583C14.4162 3.09322 13.8179 2.97827 13.213 2.96585C12.4335 2.93185 12.1866 2.92213 10.2098 2.92213C8.23308 2.92213 7.97971 2.92213 7.20665 2.96585C6.60228 2.97763 6.00437 3.09261 5.43873 3.30583C4.95461 3.49282 4.51492 3.77895 4.14787 4.14586C3.78083 4.51276 3.49453 4.95234 3.30736 5.4364C3.09471 6.00272 2.98001 6.60112 2.96818 7.20593C2.93337 7.98466 2.92285 8.23155 2.92285 10.2091C2.92285 12.1859 2.92285 12.4376 2.96818 13.2123C2.98033 13.8178 3.09446 14.4152 3.30736 14.9827C3.49506 15.4665 3.78163 15.9059 4.14877 16.2728C4.5159 16.6397 4.95552 16.9259 5.43954 17.1132C6.00411 17.3344 6.60227 17.4576 7.20827 17.4775C7.9878 17.5115 8.2347 17.522 10.2115 17.522C12.1882 17.522 12.4416 17.522 13.2147 17.4775C13.8194 17.4652 14.4177 17.3505 14.9842 17.1383C15.4681 16.9507 15.9075 16.6642 16.2745 16.2972C16.6415 15.9303 16.9279 15.4908 17.1156 15.0069C17.3285 14.4403 17.4426 13.8429 17.4547 13.2374C17.4896 12.4587 17.5001 12.2118 17.5001 10.2342C17.5001 8.25665 17.5001 8.00571 17.4547 7.23103C17.4453 6.61766 17.33 6.01052 17.1139 5.4364ZM16.128 13.1524C16.1228 13.6189 16.0376 14.0811 15.8762 14.5188C15.7547 14.8336 15.5686 15.1195 15.3299 15.358C15.0912 15.5965 14.8053 15.7825 14.4904 15.9039C14.0575 16.0645 13.6003 16.1497 13.1386 16.1556C12.3696 16.1912 12.1526 16.2001 10.1807 16.2001C8.20718 16.2001 8.00561 16.2001 7.22203 16.1556C6.76057 16.15 6.30353 16.0648 5.871 15.9039C5.55505 15.7832 5.26793 15.5976 5.02824 15.359C4.78854 15.1205 4.60159 14.8342 4.47949 14.5188C4.32039 14.0858 4.23528 13.6291 4.22774 13.1678C4.19293 12.3988 4.18484 12.1818 4.18484 10.2099C4.18484 8.23722 4.18484 8.03566 4.22774 7.25126C4.23298 6.78502 4.31813 6.32312 4.47949 5.88566C4.72639 5.24698 5.23231 4.74429 5.871 4.49982C6.30374 4.33966 6.76064 4.25452 7.22203 4.24807C7.99185 4.21326 8.20799 4.20355 10.1807 4.20355C12.1534 4.20355 12.3558 4.20355 13.1386 4.24807C13.6003 4.25363 14.0576 4.33879 14.4904 4.49982C14.8052 4.62147 15.0912 4.80759 15.3298 5.04625C15.5685 5.28491 15.7546 5.57083 15.8762 5.88566C16.0354 6.3187 16.1205 6.77542 16.128 7.23669C16.1628 8.00652 16.1717 8.22265 16.1717 10.1954C16.1717 12.1673 16.1717 12.3794 16.1369 13.1532H16.128V13.1524Z" fill="black"/>
</svg>
