<svg width="20" height="20" viewBox="0 0 20 20" fill="none" xmlns="http://www.w3.org/2000/svg">
<path d="M15.1133 8.44244C15.1722 8.44031 15.2308 8.45064 15.2858 8.4728C15.3407 8.49497 15.3908 8.52852 15.4332 8.57146C15.4755 8.6144 15.5092 8.66585 15.5322 8.72274C15.5552 8.77963 15.567 8.8408 15.567 8.9026C15.567 8.9644 15.5552 9.02557 15.5322 9.08246C15.5092 9.13935 15.4755 9.19079 15.4332 9.23373C15.3908 9.27667 15.3407 9.31023 15.2858 9.33239C15.2308 9.35456 15.1722 9.36489 15.1133 9.36276H13.8951V10.183H15.1133C15.1725 10.18 15.2317 10.1896 15.2872 10.2113C15.3427 10.233 15.3935 10.2663 15.4364 10.3092C15.4793 10.3521 15.5135 10.4037 15.5368 10.4608C15.5602 10.518 15.5722 10.5796 15.5722 10.6418C15.5722 10.704 15.5602 10.7656 15.5368 10.8227C15.5135 10.8799 15.4793 10.9315 15.4364 10.9744C15.3935 11.0173 15.3427 11.0506 15.2872 11.0723C15.2317 11.094 15.1725 11.1036 15.1133 11.1006H13.4587C13.343 11.1001 13.2322 11.0516 13.1505 10.9657C13.0688 10.8797 13.0229 10.7632 13.0227 10.6418V7.16395C13.0227 6.91077 13.218 6.70297 13.4587 6.70297H15.1165C15.2289 6.70907 15.3349 6.76037 15.4123 6.84622C15.4897 6.93208 15.5327 7.04592 15.5324 7.16416C15.532 7.2824 15.4884 7.39597 15.4105 7.48134C15.3326 7.56671 15.2264 7.61734 15.1139 7.62274H13.8956V8.44299L15.1133 8.44244ZM12.4394 10.6412C12.4384 10.763 12.3917 10.8795 12.3094 10.9653C12.2271 11.0511 12.1158 11.0993 11.9998 11.0995C11.9311 11.1002 11.8632 11.0841 11.8015 11.0525C11.7397 11.0209 11.6859 10.9746 11.6441 10.9174L9.94876 8.49658V10.6407C9.94876 10.7624 9.90273 10.8791 9.82078 10.9651C9.73883 11.0512 9.62768 11.0995 9.51178 11.0995C9.39589 11.0995 9.28474 11.0512 9.20279 10.9651C9.12084 10.8791 9.07481 10.7624 9.07481 10.6407V7.16286C9.07481 6.96655 9.1972 6.79047 9.37324 6.72758C9.41672 6.71146 9.46256 6.7035 9.50866 6.70407C9.64408 6.70407 9.76908 6.78117 9.85293 6.88944L11.5618 9.31573V7.16286C11.5618 6.90967 11.7571 6.70188 11.9988 6.70188C12.2404 6.70188 12.4383 6.90967 12.4383 7.16286L12.4394 10.6412ZM8.45189 10.6412C8.45134 10.7632 8.40476 10.88 8.32237 10.966C8.23998 11.052 8.12848 11.1002 8.0123 11.1C7.897 11.099 7.78673 11.0503 7.70548 10.9643C7.62424 10.8784 7.57858 10.7623 7.57845 10.6412V7.1634C7.57845 6.91022 7.77376 6.70243 8.01543 6.70243C8.25658 6.70243 8.45241 6.91022 8.45241 7.1634L8.45189 10.6412ZM6.73991 11.1H5.0821C4.96605 11.0998 4.85479 11.0514 4.77248 10.9655C4.69018 10.8796 4.64347 10.7631 4.64251 10.6412V7.1634C4.64251 6.91022 4.84043 6.70243 5.0821 6.70243C5.32376 6.70243 5.51908 6.91022 5.51908 7.1634V10.1825H6.73991C6.8558 10.1825 6.96695 10.2308 7.0489 10.3168C7.13085 10.4029 7.17689 10.5196 7.17689 10.6412C7.17689 10.7629 7.13085 10.8796 7.0489 10.9657C6.96695 11.0517 6.8558 11.1 6.73991 11.1ZM18.3337 8.76944C18.3337 4.85359 14.5925 1.66666 10.0003 1.66666C5.40814 1.66666 1.66699 4.85359 1.66699 8.76944C1.66699 12.2785 4.6321 15.2177 8.63574 15.776C8.9071 15.8356 9.27585 15.9641 9.37116 16.2063C9.45501 16.4251 9.42533 16.7641 9.39824 16.9954L9.28418 17.7386C9.25137 17.9578 9.11595 18.602 10.0113 18.2088C10.9092 17.8157 14.8154 15.2357 16.5649 13.1217C17.7613 11.7464 18.3337 10.3334 18.3337 8.76944Z" fill="black"/>
</svg>
