<svg width="24" height="24" viewBox="0 0 24 24" fill="none" xmlns="http://www.w3.org/2000/svg">
<path d="M18.1356 10.1309C18.2062 10.1284 18.2766 10.1408 18.3425 10.1674C18.4084 10.194 18.4686 10.2342 18.5194 10.2858C18.5702 10.3373 18.6106 10.399 18.6382 10.4673C18.6658 10.5356 18.68 10.609 18.68 10.6831C18.68 10.7573 18.6658 10.8307 18.6382 10.8989C18.6106 10.9672 18.5702 11.029 18.5194 11.0805C18.4686 11.132 18.4084 11.1723 18.3425 11.1989C18.2766 11.2255 18.2062 11.2379 18.1356 11.2353H16.6738V12.2196H18.1356C18.2066 12.216 18.2776 12.2275 18.3443 12.2535C18.4109 12.2796 18.4718 12.3195 18.5233 12.371C18.5748 12.4225 18.6158 12.4844 18.6438 12.553C18.6718 12.6216 18.6862 12.6955 18.6862 12.7702C18.6862 12.8448 18.6718 12.9187 18.6438 12.9873C18.6158 13.0559 18.5748 13.1178 18.5233 13.1693C18.4718 13.2208 18.4109 13.2608 18.3443 13.2868C18.2776 13.3128 18.2066 13.3243 18.1356 13.3207H16.15C16.0112 13.3202 15.8782 13.262 15.7802 13.1588C15.6822 13.0556 15.627 12.9159 15.6269 12.7702V8.59674C15.6269 8.29292 15.8612 8.04357 16.15 8.04357H18.1394C18.2743 8.05089 18.4014 8.11244 18.4944 8.21547C18.5873 8.3185 18.6389 8.45511 18.6385 8.59699C18.6381 8.73888 18.5857 8.87516 18.4922 8.97761C18.3987 9.08006 18.2712 9.14081 18.1363 9.14729H16.6744V10.1316L18.1356 10.1309ZM14.9269 12.7695C14.9257 12.9156 14.8697 13.0554 14.7709 13.1584C14.6721 13.2614 14.5386 13.3192 14.3994 13.3194C14.317 13.3202 14.2355 13.3009 14.1614 13.263C14.0873 13.2251 14.0226 13.1696 13.9725 13.1009L11.9381 10.1959V12.7688C11.9381 12.9149 11.8829 13.0549 11.7845 13.1581C11.6862 13.2614 11.5528 13.3194 11.4138 13.3194C11.2747 13.3194 11.1413 13.2614 11.043 13.1581C10.9446 13.0549 10.8894 12.9149 10.8894 12.7688V8.59543C10.8894 8.35986 11.0362 8.14856 11.2475 8.0731C11.2997 8.05375 11.3547 8.0442 11.41 8.04488C11.5725 8.04488 11.7225 8.13741 11.8231 8.26733L13.8737 11.1789V8.59543C13.8737 8.29161 14.1081 8.04226 14.3981 8.04226C14.6881 8.04226 14.9256 8.29161 14.9256 8.59543L14.9269 12.7695ZM10.1419 12.7695C10.1412 12.9159 10.0853 13.056 9.98645 13.1592C9.88758 13.2624 9.75379 13.3202 9.61437 13.32C9.476 13.3188 9.34368 13.2603 9.24619 13.1572C9.14869 13.0541 9.09391 12.9148 9.09375 12.7695V8.59609C9.09375 8.29227 9.32813 8.04291 9.61813 8.04291C9.9075 8.04291 10.1425 8.29227 10.1425 8.59609L10.1419 12.7695ZM8.0875 13.32H6.09813C5.95886 13.3197 5.82535 13.2617 5.72659 13.1586C5.62782 13.0555 5.57178 12.9157 5.57062 12.7695V8.59609C5.57062 8.29227 5.80813 8.04291 6.09813 8.04291C6.38813 8.04291 6.6225 8.29227 6.6225 8.59609V12.2189H8.0875C8.22657 12.2189 8.35995 12.277 8.45829 12.3802C8.55663 12.4834 8.61188 12.6235 8.61188 12.7695C8.61188 12.9155 8.55663 13.0555 8.45829 13.1588C8.35995 13.262 8.22657 13.32 8.0875 13.32V13.32ZM22 10.5233C22 5.82431 17.5106 2 12 2C6.48937 2 2 5.82431 2 10.5233C2 14.7341 5.55813 18.2612 10.3625 18.9312C10.6881 19.0027 11.1306 19.1569 11.245 19.4476C11.3456 19.7101 11.31 20.1169 11.2775 20.3945L11.1406 21.2863C11.1012 21.5494 10.9387 22.3224 12.0131 21.8506C13.0906 21.3788 17.7781 18.2829 19.8775 15.746C21.3131 14.0957 22 12.4001 22 10.5233Z" fill="white"/>
</svg>
