<svg width="18" height="18" viewBox="0 0 18 18" fill="none" xmlns="http://www.w3.org/2000/svg">
<path d="M12.8407 4.35598C13.7476 5.26284 13.7476 6.73716 12.8407 7.64402L10.7194 9.76534L11.727 10.773L13.8483 8.65165C15.3121 7.18794 15.3121 4.81206 13.8483 3.34835C12.3846 1.88464 10.0088 1.88464 8.54505 3.34835L6.42373 5.46967L7.43136 6.4773L9.55268 4.35598C10.4595 3.44911 11.9339 3.44911 12.8407 4.35598ZM10.136 6L5.8934 10.2426L6.95406 11.3033L11.1967 7.06066L10.136 6ZM8.54505 13.955L10.6664 11.8336L9.65874 10.826L7.53742 12.9473C6.63056 13.8542 5.15624 13.8542 4.24937 12.9473C3.34251 12.0405 3.34251 10.5661 4.24938 9.65928L6.3707 7.53796L5.36307 6.53033L3.24175 8.65165C1.77804 10.1154 1.77804 12.4912 3.24175 13.955C4.70546 15.4187 7.08134 15.4187 8.54505 13.955Z" fill="#AA0813"/>
</svg>
