<svg width="20" height="20" viewBox="0 0 20 20" fill="none" xmlns="http://www.w3.org/2000/svg">
<path d="M10.0013 9.58342C9.44877 9.58342 8.91886 9.36392 8.52816 8.97322C8.13746 8.58252 7.91797 8.05262 7.91797 7.50008C7.91797 6.94755 8.13746 6.41764 8.52816 6.02694C8.91886 5.63624 9.44877 5.41675 10.0013 5.41675C10.5538 5.41675 11.0837 5.63624 11.4744 6.02694C11.8651 6.41764 12.0846 6.94755 12.0846 7.50008C12.0846 7.77367 12.0307 8.04458 11.9261 8.29734C11.8214 8.5501 11.6679 8.77977 11.4744 8.97322C11.281 9.16668 11.0513 9.32013 10.7986 9.42483C10.5458 9.52953 10.2749 9.58342 10.0013 9.58342V9.58342ZM10.0013 1.66675C8.45421 1.66675 6.97047 2.28133 5.87651 3.37529C4.78255 4.46925 4.16797 5.95299 4.16797 7.50008C4.16797 11.8751 10.0013 18.3334 10.0013 18.3334C10.0013 18.3334 15.8346 11.8751 15.8346 7.50008C15.8346 5.95299 15.2201 4.46925 14.1261 3.37529C13.0321 2.28133 11.5484 1.66675 10.0013 1.66675V1.66675Z" fill="black"/>
</svg>
