<svg width="25" height="24" viewBox="0 0 25 24" fill="none" xmlns="http://www.w3.org/2000/svg">
<path d="M20.0625 15.5C18.8625 15.5 17.5625 15.3 16.4625 14.9H16.1625C15.8625 14.9 15.6625 15 15.4625 15.2L13.2625 17.4C10.4625 15.9 8.0625 13.6 6.6625 10.8L8.8625 8.6C9.1625 8.3 9.2625 7.9 9.0625 7.6C8.7625 6.5 8.5625 5.2 8.5625 4C8.5625 3.5 8.0625 3 7.5625 3H4.0625C3.5625 3 3.0625 3.5 3.0625 4C3.0625 13.4 10.6625 21 20.0625 21C20.5625 21 21.0625 20.5 21.0625 20V16.5C21.0625 16 20.5625 15.5 20.0625 15.5ZM5.0625 5H6.5625C6.6625 5.9 6.8625 6.8 7.0625 7.6L5.8625 8.8C5.4625 7.6 5.1625 6.3 5.0625 5ZM19.0625 19C17.7625 18.9 16.4625 18.6 15.2625 18.2L16.4625 17C17.2625 17.2 18.1625 17.4 19.0625 17.4V19Z" fill="white"/>
</svg>
