<svg width="17" height="16" viewBox="0 0 17 16" fill="none" xmlns="http://www.w3.org/2000/svg">
<path d="M12.7502 4.23338C12.1915 3.66956 11.5132 3.23846 10.7654 2.97191C10.0177 2.70536 9.21968 2.61017 8.43024 2.69338C5.98358 2.94005 3.97024 4.92672 3.69691 7.37338C3.33024 10.6067 5.83024 13.3334 8.98357 13.3334C9.99031 13.3334 10.9764 13.0477 11.8272 12.5096C12.6781 11.9715 13.3588 11.203 13.7902 10.2934C14.0036 9.84671 13.6836 9.33338 13.1902 9.33338C12.9436 9.33338 12.7102 9.46671 12.6036 9.68672C12.2165 10.5194 11.5545 11.1934 10.7289 11.5953C9.90323 11.9971 8.96438 12.1024 8.07024 11.8934C6.59024 11.5667 5.39691 10.36 5.08358 8.88005C4.95186 8.29489 4.95339 7.6876 5.08804 7.10311C5.22269 6.51862 5.48702 5.97188 5.86148 5.50333C6.23593 5.03478 6.71094 4.6564 7.25136 4.39619C7.79177 4.13598 8.38378 4.0006 8.98357 4.00005C10.0902 4.00005 11.0769 4.46005 11.7969 5.18672L10.7902 6.19338C10.3702 6.61338 10.6636 7.33338 11.2569 7.33338H13.6502C14.0169 7.33338 14.3169 7.03338 14.3169 6.66672V4.27338C14.3169 3.68005 13.5969 3.38005 13.1769 3.80005L12.7502 4.23338Z" fill="black"/>
</svg>
