<svg width="266" height="645" viewBox="0 0 266 645" fill="none" xmlns="http://www.w3.org/2000/svg">
<path d="M144.004 386.566C143.905 386.236 143.247 385.477 143.116 385.18C142.622 384.124 142.228 382.638 140.649 382.671C139.037 382.671 137.59 382.473 135.682 382.308C134.3 383.331 131.504 382.308 129.662 382.869C127.491 383.496 124.728 384.817 122.492 385.345C120.058 385.279 113.446 383.991 111.012 383.925C110.255 384.09 109.532 384.586 108.611 384.751C108.183 385.675 112.229 388.48 112.163 389.932C111.407 390.758 111.966 392.573 111.538 393.893C111.538 393.959 110.847 394.916 110.716 396.6C110.913 397.293 111.637 398.481 111.834 399.372C112.032 400.263 111.637 400.824 112.032 401.385C112.36 401.748 112.032 401.517 112.657 401.781C113.709 402.607 119.367 401.055 121.373 401.088C124.432 401.088 126.57 399.9 128.807 399.306C129.695 399.372 130.583 399.438 131.472 399.504C132.36 399.24 133.577 398.283 134.564 398.052C136.274 397.689 137.228 399.141 138.478 399.009C138.873 398.976 139.596 398.25 139.859 398.118C140.748 397.953 141.669 397.788 142.557 397.656C142.984 396.732 143.083 395.114 143.182 393.695C142.557 392.672 143.412 391.517 143.445 389.635C143.576 389.074 144.267 387.721 144.004 386.665V386.566ZM164.266 416.964C164.628 419.109 164.398 418.317 164.661 420.793C166.635 422.179 168.97 424.324 171.306 425.314C172.424 425.776 173.509 424.984 174.167 424.885C175.417 425.083 176.667 425.314 177.917 425.512C178.378 425.479 178.97 425.05 179.825 425.314C183.081 426.403 189.2 424.687 193.081 424.324C193.344 423.73 193.476 423.037 193.574 422.014C193.114 421.123 194.134 419.967 193.838 418.35L193.278 417.294L193.838 413.993C193.772 413.564 193.081 412.178 193.048 411.947C193.213 409.505 192.653 411.089 192.851 408.68C192.62 407.359 193.706 407.425 193.311 406.171C192.785 405.808 192.193 405.247 191.831 404.719C191.305 404.686 190.778 404.653 190.252 404.587C188.871 405.841 185.285 404.521 182.785 404.356C181.831 404.29 180.91 404.224 179.957 404.125C179.036 404.356 177.851 405.379 177.029 405.577L174.233 404.686C174.003 404.752 173.411 405.544 173.213 405.61C172.259 405.544 171.338 405.478 170.385 405.379C169.694 405.544 168.707 406.369 168.082 406.534C165.779 407.227 165.352 405.61 165.056 409.307C165.681 410.33 164.069 415.512 164.299 416.964H164.266ZM247.059 634.8C245.743 633.051 244.987 631.169 243.737 629.354C241.73 626.45 238.737 623.908 236.829 620.938C234.461 617.241 233.507 613.016 231.533 608.924C229.724 605.194 226.04 602.389 224.067 598.857C222.455 596.052 222.06 592.949 220.415 590.111C219.198 588.031 217.554 585.82 216.271 583.84C215.547 582.717 215.613 581.199 214.856 580.011C212.982 577.073 210.186 574.598 208.475 571.297C207.554 569.515 207.719 567.898 206.798 566.116C205.942 564.432 203.245 560.109 201.798 559.052C200.679 558.227 199.133 557.567 198.476 556.346C197.785 555.059 197.949 554.036 197.357 552.781C195.647 549.151 193.607 545.091 191.502 541.593C191.009 540.767 189.792 539.942 189.298 539.15C187.983 536.972 187.16 534.859 185.68 532.879C184.266 530.998 182.127 529.38 180.976 527.169C180.581 526.41 180.845 525.651 180.417 524.991C178.575 522.02 176.766 518.984 174.924 515.98C171.042 515.716 166.404 514.825 163.806 515.188C161.635 515.518 158.938 516.343 156.997 516.838C153.806 516.772 150.583 516.706 147.392 516.673C143.313 517.631 138.938 517.532 135.583 518.951C135.123 522.416 134.596 525.123 135.419 528.588C135.419 529.777 135.386 530.965 135.353 532.153C135.583 532.945 136.142 533.704 136.373 534.661H138.149C140.649 534.826 138.675 535.09 141.57 535.123C142.524 535.123 143.017 534.628 143.971 534.661C145.221 534.265 146.142 533.935 147.458 533.572C149.596 533.605 148.346 532.945 150.484 532.978C150.944 532.879 152.852 532.978 153.708 532.681C154.431 532.45 155.648 531.526 156.569 531.295C157.984 531.427 159.398 531.592 160.845 531.724C161.273 531.625 163.543 533.968 163.707 534.298C164.464 535.784 165.385 535.52 167.918 536.972C167.72 537.17 170.746 538.556 170.713 538.688C169.825 540.371 171.174 542.121 169.2 542.946C167.391 544.134 162.655 541.46 158.872 542.352C154.53 543.375 156.8 542.946 152.589 543.969C150.089 544.035 147.589 544.101 145.089 544.2C143.741 544.662 137.688 543.111 136.406 543.771C134.86 544.563 135.879 546.609 135.517 549.118C134.169 550.768 135.649 557.105 135.978 558.623C141.997 562.089 147.622 559.944 155.55 560.043C157.556 559.977 163.28 559.944 165.286 559.878C166.997 560.505 167.918 562.386 169.135 563.508L169.069 567.799C168.707 568.822 167.49 569.647 167.918 571.727C168.049 572.387 165.483 574.202 165.812 575.225C165.911 575.522 165.451 576.71 165.549 577.007C165.418 578.427 165.253 579.879 165.122 581.298C166.01 585.919 164.529 591.101 163.51 595.655C162.26 596.481 164.793 599.187 163.181 599.715C162.128 599.715 157.03 598.395 155.977 598.395C153.477 599.022 149.398 600.639 145.55 599.55C143.741 599.055 140.748 598.23 138.807 597.999C136.208 597.702 132.787 598.428 130.583 598.923C127.031 598.725 123.248 594.731 119.696 594.533C119.4 594.434 118.61 593.543 118.281 593.444C117.327 593.444 116.373 593.411 115.42 593.378C114.992 593.246 114.005 592.388 113.643 592.289C111.439 591.497 107.361 598.989 105.65 597.867C105.288 597.372 104.959 596.91 104.598 596.415C100.617 592.289 101.407 584.137 103.512 576.644C103.446 574.268 103.348 571.859 103.282 569.482C103.611 568.228 101.933 564.63 102.229 563.31C103.183 562.749 101.407 559.349 102.492 559.019C104.17 559.019 108.512 560.406 110.157 560.439C110.617 560.307 113.874 560.736 114.268 560.571C115.321 560.472 116.275 561.957 117.327 561.858C117.755 561.726 118.775 560.934 119.137 560.802C120.683 560.802 122.228 560.868 123.774 560.868C124.071 560.373 124.432 559.812 124.86 559.448C124.794 555.884 124.761 552.286 124.695 548.722C125.024 547.467 124.63 544.662 125.156 543.012C125.32 542.517 126.11 541.361 126.274 540.899C126.735 539.381 125.024 532.351 124.663 530.866C123.873 527.466 125.32 524.067 124.827 521.228C124.005 520.634 123.182 520.007 122.36 519.38C118.643 518.027 120.781 520.403 117.262 519.512C115.814 519.149 114.137 519.974 112.262 519.413C111.768 519.281 110.518 518.423 110.157 518.291C108.347 517.697 107.788 519.017 106.933 519.314C105.716 519.71 103.15 519.38 102.295 519.578C100.617 519.413 98.9728 519.281 97.3281 519.116C96.5387 519.347 95.4861 520.238 94.7953 520.502C93.6112 520.733 92.427 520.931 91.2099 521.162C90.3218 522.647 88.6114 525.222 89.3021 528.291C89.5324 529.347 90.3547 531.064 89.9271 532.582C89.335 534.892 90.1574 538.787 89.4008 541.526C89.1377 542.55 89.039 544.728 88.6114 545.817C88.4798 546.147 87.6246 546.906 87.5259 547.236C87.493 549.745 87.4272 552.253 87.3943 554.729C86.7364 556.874 85.4865 559.085 84.7957 561.099C84.6642 562.518 84.4997 563.937 84.3681 565.389C83.6774 567.535 82.4603 570.472 81.7366 572.486V574.268C81.5722 574.598 80.7169 575.357 80.6183 575.687C80.6183 577.238 80.5525 578.79 80.5196 580.341C80.1248 581.265 78.7104 582.486 78.3157 583.509C78.1512 585.523 77.9868 587.569 77.8552 589.582C77.921 589.846 78.4473 590.903 78.1841 591.728C77.9868 592.322 76.9342 593.246 76.7368 593.84L76.9671 599.913C76.375 601.959 75.6842 605.128 75.0593 607.372C75.0593 609.155 74.9935 610.937 74.9606 612.719C74.1711 615.36 72.9541 618.396 72.0988 620.872C73.6119 621.169 75.1251 621.433 76.5066 620.905C80.5525 619.419 85.5523 617.241 89.8284 615.822C93.0849 614.766 96.7032 615.195 100.19 614.337C108.183 612.389 119.761 611.003 128.84 612.95C131.11 613.445 138.412 612.653 140.024 612.29C141.932 612.356 143.839 612.422 145.747 612.521C154.069 610.607 163.214 611.498 170.352 613.379C172.095 613.445 173.805 613.511 175.549 613.61C177.72 614.304 180.483 615.723 182.687 616.548C184.627 617.241 186.338 617.274 188.147 618.132C189.035 618.561 190.285 619.716 191.173 620.013H194.167C195.482 620.278 197.522 620.377 198.804 621.037C199.857 621.565 200.844 623.083 201.831 623.743C204.857 625.756 208.804 624.304 211.929 626.285C213.376 627.209 214.626 628.892 216.074 629.816C219.429 631.994 224.198 632.358 227.849 634.074C229.987 635.064 231.106 635.955 232.52 637.77C233.441 638.992 237.487 641.632 239.132 642.094C240.513 641.896 241.862 641.698 243.211 641.5C245.382 641.896 246.895 642.193 248.934 641.698C249.46 640.84 250.184 640.279 250.546 639.223C250.25 638.497 249.987 637.77 249.691 637.044C248.77 636.219 247.849 635.427 246.928 634.602L247.059 634.8ZM113.61 584.566C114.926 585.391 116.077 583.113 117.623 583.674C119.531 583.674 121.406 583.74 123.314 583.773C128.807 585.259 137.754 588.592 142.787 587.239C144.037 586.909 146.01 587.47 146.701 587.668C149.037 588.295 149.464 587.998 151.405 587.866C152.129 586.777 152.721 586.843 152.885 585.028C153.839 583.773 154.135 574.961 154.102 572.42C153.181 571.727 153.28 571.033 151.997 570.604C151.438 570.142 150.221 570.175 149.168 570.208C148.379 570.868 142.82 572.42 140.945 571.859C139.859 571.528 136.833 569.911 135.254 570.34C134.235 570.604 133.083 571.759 132.031 572.057C129.333 572.816 127.623 571.099 125.978 570.868C121.571 570.274 117.985 571.826 114.564 572.453C114.301 572.882 113.61 573.443 113.479 573.872C113.084 574.961 113.709 576.908 113.775 577.436C113.643 577.799 113.512 578.13 113.413 578.493C113.084 580.506 113.413 583.08 113.643 584.566H113.61ZM16.8049 181.668C17.3641 181.569 17.9233 181.47 18.4825 181.371C18.9101 181.14 19.6338 180.249 20.1601 180.084C22.5613 179.325 25.3572 180.777 26.7717 181.206C31.4096 181.635 36.0476 182.031 40.6856 182.46C41.5408 180.975 42.5605 178.962 43.1197 177.179L43.8763 171.205C44.1723 170.314 44.7315 165.099 44.9946 164.01L45.1591 159.686C46.3104 155 48.4156 147.705 47.1656 141.797C44.2052 140.576 42.6263 139.157 42.5605 134.635L44.5012 132.886C45.4551 133.183 46.738 133.051 47.8564 133.414C48.4813 133.612 48.7116 134.14 49.5339 134.338C49.8958 132.325 51.1128 130.642 51.6391 128.925C51.7049 127.704 51.7707 126.483 51.8365 125.262C51.968 124.8 52.6259 123.677 52.7575 123.215L52.6259 119.552C52.6259 118.562 53.0206 117.571 53.1851 116.878C53.1193 114.766 53.0206 112.654 52.9549 110.541C53.1522 109.65 53.4811 101.63 53.2509 100.871C52.7904 99.3854 52.0996 98.7913 51.4089 98.2962C49.6655 99.9135 47.9221 101.531 46.4748 103.379C42.9552 107.901 40.6856 113.149 38.1528 118.595C37.2976 120.443 35.6529 122.258 34.8306 124.206C33.8109 126.582 33.4819 128.76 32.4622 131.137C31.2123 134.14 29.3045 137.54 28.1861 140.774C27.9558 142.325 27.7256 143.91 27.4953 145.461C27.1993 146.319 26.5743 147.606 26.3112 148.597L26.1138 152.821C25.0941 156.32 22.5284 158.993 21.114 161.997C18.5483 167.443 17.2654 173.912 15.226 179.886C15.0945 181.107 14.9629 182.328 14.8313 183.549C15.6208 183.021 16.0484 182.097 16.8049 181.635V181.668ZM145.057 143.052C146.01 142.821 147.392 143.25 147.885 143.382C149.76 143.877 151.997 140.972 153.708 140.642C154.004 139.718 154.464 139.85 154.892 139.223C155.089 138.662 155.286 138.101 155.484 137.507C157.063 135.097 156.175 132.886 156.372 129.024C156.076 128.76 156.372 129.024 156.109 128.727L152.392 128.661C151.043 129.618 150.944 128.628 149.07 129.09C148.51 129.222 147.096 129.783 146.504 129.915L143.083 129.585C142.491 129.783 141.537 130.576 140.78 130.675C140.221 130.774 139.629 130.378 138.807 130.345C136.537 130.279 134.695 130.51 133.083 130.807C131.143 134.8 134.465 135.394 135.517 137.705C135.912 138.53 135.945 142.424 136.208 143.118C139.53 145.098 141.471 143.844 145.057 142.986V143.052ZM72.8225 568.558C72.8225 568.558 73.5462 567.172 73.5462 567.139C73.6777 565.72 73.8422 564.3 73.9738 562.848C74.2698 562.023 75.158 560.868 75.454 560.01C75.454 559.184 75.454 558.326 75.4869 557.501C75.8487 556.412 76.9671 555.059 77.3289 553.97C77.3289 553.012 77.3618 552.055 77.3947 551.098C77.6578 550.306 78.6117 549.415 78.8749 548.623C79.5657 546.543 80.1577 535.817 79.8617 534.331C79.4341 532.318 80.0262 530.569 80.6511 528.984C78.7762 531.625 77.4276 534.562 75.5527 537.236C73.283 540.47 70.1581 543.375 67.9872 546.642C66.9346 548.26 65.6517 549.778 64.7636 551.329C64.5991 552.055 64.4018 552.781 64.2373 553.54C63.0531 554.729 61.9019 555.95 60.7177 557.138C55.1258 564.993 49.1063 572.618 43.7447 580.605C41.5737 583.839 40.4882 587.47 38.383 590.804C37.1002 592.85 36.2121 595.226 34.8963 597.405C32.7583 600.903 30.0281 604.633 27.89 608.164C27.1993 609.287 27.2322 610.574 26.5743 611.729C25.2586 613.974 23.0218 615.657 22.0021 618.363C20.7193 621.796 20.193 624.502 18.8114 627.704C16.7391 632.556 12.7262 636.78 13.5156 643.117C14.4695 643.843 14.3708 644.206 16.2457 644.173C20.0943 641.137 23.7126 639.586 27.9229 637.011C29.765 635.889 32.2978 636.549 34.4687 635.592C35.3569 635.196 36.4752 634.041 37.462 633.645C42.2645 631.664 46.4091 630.179 51.3431 628.298C53.8101 627.341 55.8824 625.063 58.1191 623.842C58.9415 623.644 59.7638 623.446 60.5861 623.281C60.8822 623.182 61.2111 623.017 61.5401 622.885C61.5729 621.928 61.6716 621.004 61.9348 620.179C62.1979 619.419 63.1518 618.363 63.415 617.703C63.5466 616.284 63.711 614.832 63.8426 613.412C64.1715 612.389 65.0268 610.805 65.3228 609.881C65.3228 609.056 65.3228 608.198 65.3557 607.372C65.6188 606.481 66.2438 604.633 66.4741 603.808L66.2109 598.791C66.4741 597.867 67.3622 596.151 67.6911 595.259C67.8227 593.84 67.9872 592.421 68.1187 590.969C68.4806 589.813 69.3029 587.866 69.6318 586.711L69.3687 581.001C69.5661 580.407 70.2568 578.856 70.4871 578.163V576.38C71.0463 574.961 72.2633 572.948 72.7567 571.429V568.558H72.8225ZM77.1644 421.948C76.7697 422.938 75.6842 424.159 75.2566 425.149C74.3685 427.262 74.7303 432.575 74.533 435.249C75.5855 435.414 82.1971 435.084 83.2497 434.391C85.4207 433.896 87.6904 429.935 89.6311 428.846C90.1903 428.78 90.7495 428.714 91.3086 428.648C92.9862 428.054 98.5123 426.205 99.236 424.885C99.3346 423.664 99.4004 422.443 99.4991 421.222C100.19 420.43 99.6636 418.845 100.091 417.591C100.519 416.337 101.177 415.479 101.374 413.696C101.144 413.564 100.946 413.432 100.749 413.3C99.8938 412.442 97.2624 410.264 95.6177 410.693C95.5848 410.693 94.3019 411.254 94.2362 411.254C92.6902 411.155 91.1442 411.023 89.5982 410.924C88.8416 411.155 87.9535 412.211 87.1641 412.409L84.8615 412.244C83.4471 412.541 78.0526 409.604 76.4737 409.835C75.75 410.561 78.1841 416.898 77.4934 417.624C77.3947 419.076 77.296 420.496 77.1644 421.948ZM73.0528 439.639C71.737 441.289 70.3884 445.679 68.7766 449.87C69.9937 451.29 71.2107 452.709 72.3949 454.161C72.9541 454.689 73.5462 455.184 74.1054 455.712C74.2698 456.438 74.4343 457.198 74.5988 457.924C75.3882 459.739 77.0329 461.62 77.7894 463.7C78.6776 466.043 78.4473 467.957 79.5328 469.938C80.5525 471.753 82.23 473.04 83.4471 474.591C84.4997 475.945 85.026 477.463 86.1444 478.816C86.572 479.344 87.4601 479.113 88.0851 479.476C88.9074 480.202 89.6968 480.962 90.5192 481.688C91.1442 482.117 91.802 482.15 92.4599 482.546C93.5454 483.239 94.1046 484.658 94.894 485.648C96.5716 487.695 98.7754 489.345 100.519 491.391C101.44 492.48 102.558 493.372 103.742 494.131C102.032 496.375 100.289 498.619 98.6439 500.897C97.2295 502.877 94.9269 504.428 93.5125 506.442C93.0191 507.168 92.5257 507.927 92.0323 508.719C92.3941 508.521 93.0849 507.828 93.3809 507.729C94.3348 507.729 95.5519 509.148 96.5058 509.148C97.1637 508.917 98.3807 508.884 99.1702 508.653C101.078 508.686 102.953 508.719 104.861 508.752C108.347 508.818 108.643 509.379 111.768 508.653C112.887 508.389 114.433 508.917 114.959 509.082C118.281 509.94 123.248 508.125 123.906 506.013C124.597 504.923 123.413 501.689 124.005 499.577C124.663 497.332 123.281 483.734 124.597 481.259C125.682 481.325 129.037 484.196 129.662 484.757C129.991 485.153 132.458 491.886 132.656 492.579C133.083 493.173 132.689 493.801 132.985 494.725C133.116 495.22 133.873 496.408 134.004 496.903C133.971 498.916 133.083 498.652 133.05 500.666C129.827 502.712 131.833 505.947 134.925 505.485C135.945 505.881 137.656 505.914 139.202 505.914C141.34 507.696 144.366 504.725 148.116 505.716C151.076 506.508 154.793 505.154 157.392 504.461C158.477 504.461 159.53 504.494 160.582 504.527C162.03 504.164 163.641 503.867 165.253 503.669C164.694 503.207 164.135 502.778 163.608 502.415C162.391 501.557 160.648 501.128 159.76 499.973C158.214 497.926 157.063 495.649 155.944 493.339C160.286 487.926 164.891 483.008 169.2 477.628C170.878 476.044 172.556 474.492 174.233 472.908C176.338 470.136 178.082 467.528 180.187 464.822C181.338 463.37 183.081 461.62 184.496 460.333C184.891 460.102 185.285 459.871 185.713 459.64C187.983 457.066 189.331 453.798 191.436 451.125C193.344 448.682 195.844 446.372 197.916 443.929C197.982 443.005 198.048 442.081 198.114 441.157C197.555 439.771 197.028 433.863 196.436 432.476C194.89 432.873 194.265 434.193 192.292 434.523C190.351 434.82 189.693 432.939 187.719 433.203C185.68 433.467 180.779 433.434 178.772 432.542C178.476 432.41 177.818 431.585 177.522 431.453C175.417 431.288 173.345 431.156 171.24 430.991C170.944 430.859 170.286 430.067 169.99 429.902L166.766 428.648L166.141 427.922C164.069 427.064 161.898 428.78 160.188 427.493C159.464 426.965 155.747 425.38 155.385 424.357C155.55 422.146 155.714 419.934 155.879 417.723C155.879 416.7 155.254 415.677 155.089 414.984C154.398 412.079 156.372 409.307 155.681 406.699C154.53 406.996 152.523 406.369 151.01 406.699C150.418 406.831 148.971 407.359 148.28 407.491C145.517 407.293 142.754 407.095 140.024 406.897C140.024 406.897 138.675 407.458 138.642 407.458C137.656 407.392 136.669 407.326 135.682 407.227L134.958 407.854L132.294 407.986C131.965 408.085 131.208 408.779 130.912 408.878C129.86 409.241 129.268 408.977 128.215 409.34C127.195 409.703 126.011 410.495 124.794 410.759C121.834 410.429 118.873 410.099 115.88 409.769C115.387 409.901 114.86 410.858 114.466 410.99C112.097 411.848 110.124 409.505 109.071 411.914C108.183 413.003 109.17 415.05 109.071 416.931C108.94 420.264 108.808 423.598 108.676 426.932C108.545 427.328 107.69 428.186 107.558 428.516C106.966 429.935 107.558 431.222 106.637 432.113C106.407 432.113 106.209 432.113 105.979 432.08C105.255 432.806 104.532 433.533 103.841 434.259C103.381 434.325 102.953 434.424 102.492 434.49C101.374 434.985 99.8938 435.81 98.7097 436.206C98.3807 436.206 98.0518 436.173 97.7229 436.14C97.3939 436.239 96.6374 436.965 96.3413 437.031C95.1243 436.932 93.9072 436.866 92.6902 436.767C92.131 436.932 91.7034 437.757 91.2757 437.988C90.585 438.153 89.9271 438.351 89.2363 438.516C87.4272 439.474 85.1905 440.926 83.0524 441.388C82.2629 441.322 81.5064 441.256 80.7169 441.223C77.6579 441.784 76.079 436.932 73.7764 438.351C73.283 438.648 73.3817 439.177 73.0199 439.639H73.0528ZM116.538 436.206C117.887 435.249 123.511 439.474 125.814 439.507C128.084 439.54 129.301 439.309 130.814 439.012C132.458 438.648 133.643 439.375 135.123 439.078C136.702 438.747 138.346 439.276 139.432 438.549C144.662 438.483 153.609 438.88 154.629 442.015C156.142 443.797 157.951 446.438 158.082 448.748C158.411 449.738 158.707 450.728 159.003 451.686C158.642 451.818 158.444 452.049 158.313 452.28C157.26 453.963 156.8 452.61 156.306 453.699C155.747 454.326 154.694 456.669 154.661 457.957C154.201 459.508 153.214 459.244 153.576 460.498C153.806 461.29 153.28 462.247 153.214 462.544C152.885 463.7 151.471 465.713 151.569 466.472C151.339 467.066 151.109 467.627 150.879 468.221C149.662 468.882 148.28 470.136 146.833 470.499C144.596 471.093 141.438 468.254 139.925 467.759C138.807 467.759 137.721 467.759 136.603 467.693C135.583 467.396 135.156 466.835 133.643 466.769C131.866 466.769 130.123 466.703 128.347 466.703C121.439 464.096 119.104 469.079 117.623 455.085C117.656 453.138 117.525 454.821 117.558 452.874C117.656 448.121 115.847 436.866 116.505 436.206H116.538ZM127.195 452.148C128.051 455.25 126.472 455.217 128.84 457.627C130.057 458.485 131.537 457.396 132.82 457.99C133.05 458.287 133.248 458.584 133.478 458.881C135.485 460.135 138.445 461.059 141.076 460.168C141.899 458.584 142.294 455.877 142.853 454.029C142.886 451.884 142.754 453.369 142.82 451.224C143.247 449.837 143.807 448.088 143.905 446.537C143.478 446.273 143.543 446.306 143.247 445.943C142.03 445.943 140.813 445.91 139.596 445.877C138.544 446.735 137.327 445.976 135.616 446.405C134.925 446.57 133.873 447.395 133.281 447.56C132.031 447.89 131.011 447.032 130.32 446.933C128.314 446.603 127.031 448.121 126.932 449.804C127.393 450.398 126.965 451.224 127.228 452.148H127.195ZM172.292 205.432C172.523 205.564 172.72 205.663 172.95 205.795C173.049 206.257 173.115 206.686 173.213 207.148C174.167 208.105 175.088 209.03 176.042 209.987C176.141 210.449 176.207 210.878 176.305 211.34C176.634 211.571 176.93 211.802 177.259 212.066C177.259 212.297 177.259 212.495 177.226 212.726C177.49 213.155 178.213 213.683 178.476 214.112C178.476 214.343 178.476 214.541 178.443 214.772C179.628 216.654 182.456 217.38 184.2 218.766C184.989 219.393 185.614 220.614 186.404 221.209C186.831 221.341 187.259 221.473 187.719 221.605C188.114 221.902 188.575 222.694 188.969 223.024C189.2 223.024 189.397 223.024 189.627 223.057C189.825 223.387 190.022 223.75 190.252 224.08C190.91 224.542 191.667 224.146 192.555 224.542C192.851 224.674 193.278 225.466 193.476 225.598C193.805 225.598 194.134 225.631 194.463 225.664C194.989 225.961 195.581 226.786 196.041 227.084C197.193 227.876 198.278 227.942 199.594 228.602C203.048 230.351 207.653 233.289 212.653 232.661C213.245 231.605 213.08 232.199 213.08 230.681C212.028 229.889 211.6 228.371 210.58 227.546C209.922 226.984 209.133 226.819 208.673 226.093C208.179 225.301 207.916 224.179 207.159 223.684C206.403 223.519 205.613 223.387 204.857 223.222C203.344 222.595 202.423 220.482 200.877 219.921C200.12 219.888 198.969 218.337 198.212 218.304L197.258 217.578L195.285 217.479C193.969 216.918 190.219 216.357 190.055 214.739C188.739 212.759 190.351 209.954 191.042 208.798C191.502 208.039 191.568 207.082 192.16 206.521C193.509 205.267 195.482 204.97 197.291 204.145C198.41 203.617 199.364 202.527 200.383 201.999C200.943 201.933 201.502 201.834 202.061 201.768C203.081 201.372 204.002 200.514 204.824 199.92C204.824 199.689 204.824 199.491 204.857 199.26C204.495 198.963 204.824 199.26 204.528 198.897C203.87 198.864 203.212 198.831 202.554 198.798C201.239 199.722 199.495 198.798 197.555 199.194C195.384 199.623 191.798 198.534 189.265 199.062C188.443 199.227 187.292 199.953 185.91 199.557C183.838 198.93 180.483 198.336 177.983 198.798C175.549 199.227 172.325 197.181 170.352 198.699C170.023 199.062 170.121 198.963 169.957 199.689C172.72 201.504 170.944 202.891 172.292 205.498V205.432ZM61.4743 127.209C60.7835 129.981 59.4678 136.946 59.3033 140.312C60.323 140.807 61.7045 141.203 62.6913 141.83C63.3492 142.259 64.0071 143.448 64.7636 143.745C66.5399 144.471 71.8357 144.141 74.4014 144.042C75.5198 142.061 77.0987 138.992 78.842 137.606C81.9669 135.163 85.5523 130.84 88.3811 128.133C87.9535 124.833 84.8615 124.437 81.6051 124.404C80.388 124.47 79.1709 124.503 77.9539 124.536C75.9474 124.04 74.0067 122.753 72.2304 122.093C71.0134 122.027 69.7963 121.961 68.5792 121.895C66.7043 121.301 64.4018 119.387 63.7439 117.406H62.7571C62.6584 117.736 62.1979 118.298 62.1321 118.463L62.2308 120.773L61.6058 121.466C61.5729 123.347 61.54 125.229 61.5071 127.143L61.4743 127.209ZM263.407 271.74C263.276 269.859 264.559 267.779 264.065 265.733C263.605 263.786 263.177 261.64 263.276 259.264L263.506 256.359C262.914 254.049 261.368 250.022 261.96 247.217C262.092 246.656 261.664 245.93 261.697 244.774C261.795 240.154 260.973 235.071 259.888 230.516C259.592 229.229 260.348 228.668 260.578 228.074C260.907 227.282 260.907 221.11 260.513 219.822C260.414 219.492 259.888 218.634 259.756 218.271C259.756 216.423 259.756 214.541 259.723 212.693C259.427 212 258.506 211.043 258.243 210.251C258.243 209.36 258.243 208.468 258.243 207.577C257.585 205.366 256.434 203.023 255.776 200.679C254.888 197.577 256.467 194.903 255.447 191.306C254.493 187.906 254.362 184.275 253.441 180.843C253.342 179.787 253.243 178.764 253.177 177.74C252.585 176.024 251.335 174.242 250.71 172.625C250.546 171.304 250.381 169.951 250.184 168.631C248.803 164.967 247.52 160.247 245.743 156.617C245.283 155.66 243.934 154.802 243.54 153.976C243.605 152.92 243.671 151.897 243.77 150.841C242.125 146.385 240.481 141.962 238.836 137.507C237.356 134.602 234.593 132.16 232.981 129.321C232.257 128.034 231.501 126.483 231.007 125.097C230.415 123.413 230.744 121.334 229.757 119.981C229.099 119.552 228.441 119.09 227.817 118.661C227.093 117.703 227.027 116.548 226.336 115.558C224.988 113.578 223.507 111.267 221.929 109.353C220.613 107.769 218.804 106.548 217.126 105.227C215.58 105.524 213.837 105.887 212.521 106.118C209.955 106.548 200.35 104.138 198.114 104.303C197.818 104.897 197.653 105.392 197.489 106.416C197.982 107.637 196.831 108.297 196.995 110.013C197.127 111.531 198.212 113.644 198.344 115.36C198.114 117.175 199.594 123.116 199.364 124.932C200.482 132.721 202.291 140.312 201.929 141.005C201.568 142.92 204.528 157.046 204.166 158.96C204.758 164.703 207.192 170.248 206.337 177.08C203.245 178.863 207.061 182.724 201.633 181.866C201.633 181.734 199.364 180.645 199.397 180.546C196.37 179.028 194.726 170.941 196.666 165.099C196.831 164.604 195.844 161.403 195.614 159.983C195.482 159.092 193.574 154.405 193.443 153.514C193.673 151.831 191.996 137.738 192.226 136.054C192.16 135.625 190.844 128.925 190.778 128.529C190.45 126.384 189.627 114.04 189.561 112.522C189.43 107.835 190.285 109.617 190.088 105.029C189.89 105.029 189.66 104.963 189.463 104.93C188.147 103.445 184.463 104.567 182.522 103.61C180.417 102.587 180.351 101.3 176.536 101.861C175.286 102.026 171.404 102.191 169.825 101.3C169.398 101.036 169.069 99.9135 168.74 99.6824C167.358 98.7583 162.095 101.267 160.747 101.531C158.74 101.267 156.734 100.97 154.727 100.706C154.464 100.739 152.688 101.069 152.392 101.135C150.155 100.838 147.951 100.541 145.714 100.211C144.859 100.343 143.675 101.135 142.984 101.3C137.82 100.475 132.656 99.6494 127.491 98.7913C126.669 98.9893 124.761 98.5272 123.906 98.7913C122.525 98.7253 121.11 98.6593 119.729 98.5933C115.913 99.3194 109.828 98.5933 105.288 95.7548C105.157 95.2597 105.058 94.9627 104.795 94.5996C105.058 92.3222 102.394 87.4704 103.117 86.1172C104.565 85.6551 105.979 85.193 106.933 84.0709C107.459 83.4768 110.88 85.4901 111.571 85.226C112.624 85.3581 113.676 85.5231 114.762 85.6551C116.143 87.1734 120.321 87.4044 121.636 87.0744C122.261 87.1734 122.919 87.2394 123.544 87.3384C126.768 86.6783 129.597 87.6354 133.412 88.5596C135.123 88.6586 136.833 88.7906 138.544 88.8896C141.833 90.3749 142.359 89.6488 145.616 89.1207C147.293 89.3517 149.004 89.5828 150.681 89.8138C151.569 89.6488 152.984 88.9557 154.036 88.7906C156.569 89.1537 159.102 89.4837 161.668 89.8468C162.194 89.7478 163.477 89.1867 164.036 89.0877L165.615 89.3187C165.878 89.2527 166.536 88.4276 166.7 88.3616L175.319 89.1867C175.713 89.3517 176.865 90.4079 177.062 90.5399C180.022 90.936 182.983 91.3651 185.943 91.7611C187.094 92.3552 190.153 94.9957 192.357 94.4676C193.048 94.3026 194.232 93.5104 195.088 93.3784C197.291 93.8075 199.495 94.2365 201.699 94.6656C202.258 94.5666 203.706 94.0385 204.396 93.9395C205.416 94.0715 206.436 94.2035 207.455 94.3686C206.074 92.6523 204.692 90.936 203.311 89.1867C202.094 88.0975 200.877 86.9753 199.66 85.8862C198.476 84.4009 198.048 82.8827 196.962 81.2324C196.206 80.1102 194.857 79.1861 194.035 78.1299C193.509 77.4698 193.542 76.6446 193.048 75.9185C192.226 74.6313 190.91 73.2121 190.121 71.9248C189.594 71.0667 189.792 70.4396 189.364 69.4824C188.575 67.6011 187.029 65.9179 186.173 64.1686C185.844 63.5085 186.042 63.0464 185.68 62.3863C183.673 58.8877 179.891 56.3793 177.621 53.0787C175.976 50.7023 175.483 47.7318 173.707 45.5205C172.325 44.5633 170.944 43.6062 169.562 42.649C167.654 40.4046 165.286 38.4903 163.477 36.2459C162.589 35.1568 161.964 33.7045 160.78 32.9124C158.017 31.0641 155.484 29.2818 152.754 27.4005C152.293 27.0704 152.162 26.4763 151.767 26.0803C150.616 24.9251 149.267 24.1659 147.885 23.2088C146.438 22.2186 145.55 20.5684 144.464 19.2151C142.688 17.0368 139.07 15.0564 137.392 13.0431C136.373 11.8219 135.748 10.5017 134.695 9.28048C134.004 8.45534 132.754 8.12529 131.768 7.53119C129.465 6.07895 127.689 2.81141 126.373 0.435014C125.419 0.0719544 124.268 -0.0270529 122.755 0.00595255C121.801 0.633056 120.551 0.732072 119.63 1.35918C117.623 2.74541 115.617 5.31983 114.137 7.20114C113.183 8.38934 111.703 9.37951 110.782 10.5677C109.795 11.8549 109.367 13.2741 108.413 14.5944C105.321 18.8851 101.67 23.2418 98.611 27.5985C97.8873 28.6217 97.69 29.7439 96.9334 30.734C94.1046 34.5297 91.0455 38.3583 88.0851 42.1869C87.0325 43.5401 85.4536 44.7944 84.4997 46.2136C81.7695 50.2733 80.0591 54.762 77.1315 58.5576C76.1776 59.8118 74.4014 60.3399 73.0528 61.2641C70.7502 62.8483 68.8095 65.9179 67.3293 68.2282C66.1122 70.1095 65.4544 72.4859 64.4676 74.4993C63.7768 75.9845 62.2308 77.4368 61.6058 78.988C61.4414 79.8792 61.3098 80.7703 61.1453 81.6615C60.0598 84.5659 58.9744 87.6685 57.527 90.4739H58.0205C60.948 94.2695 67.8227 93.1143 74.3685 92.8833C75.9145 92.8173 77.4605 92.7513 79.0065 92.7183C80.4538 93.0483 83.7102 93.8405 85.9799 93.1143C87.0654 92.7843 91.2757 90.804 92.5586 91.2C94.4335 91.7611 95.3216 94.0385 95.4203 96.745C94.7953 97.3721 93.5454 99.9465 93.2493 100.838C93.052 101.828 92.8875 102.851 92.6902 103.841C92.2954 104.402 91.3086 104.468 90.7494 104.93C90.4205 105.392 90.1245 105.854 89.7955 106.284C88.8087 107.043 87.7232 107.505 86.9009 108.396L85.651 110.112C83.7431 111.498 81.5064 111.036 81.5064 114.271C81.8353 114.37 82.1642 114.469 82.5261 114.568C84.0721 115.789 85.7825 114.799 88.1838 115.36C89.4008 115.624 91.0784 116.284 92.2297 116.548C94.0059 116.383 95.7493 116.185 97.5255 116.02C97.8544 116.119 98.5781 116.812 98.907 116.977C99.9267 117.472 100.42 117.142 100.946 118.231C102.295 119.882 98.907 126.483 98.3478 128.001C96.2427 133.447 92.2626 137.375 88.5785 141.368C87.0654 143.019 85.6181 145.23 83.8089 146.55C82.5919 147.441 81.1775 147.606 79.8946 148.365C78.842 148.96 77.7236 150.412 76.671 150.808C75.6184 151.204 73.9738 150.676 73.3488 150.61C71.2436 150.61 69.1384 150.544 67.0332 150.511C66.4741 150.313 66.0793 149.488 65.6517 149.224C65.1912 149.125 64.7636 149.026 64.3031 148.927C63.7439 148.663 62.8558 147.87 62.2637 147.672L60.948 147.738C60.1256 147.441 59.8296 146.946 58.5796 146.847C58.2178 147.177 58.5796 146.979 57.9218 147.21C57.4284 148.663 56.935 150.148 56.4416 151.6C56.31 151.864 55.5863 152.293 55.4877 152.623C55.5205 153.613 53.7443 159.554 53.7114 160.544C53.514 161.172 53.3167 162.294 52.9878 163.185C51.2773 168.202 52.6917 174.407 51.2444 179.82C51.047 180.612 49.1392 181.536 49.1721 181.833C49.0405 182.592 48.909 183.384 48.8103 184.143C50.2247 184.704 55.1916 184.572 57.1323 184.572C58.152 185.398 59.5664 184.87 61.1124 185.299C62.4282 185.695 67.1977 186.817 69.4016 186.124C69.6976 186.025 70.4542 185.266 70.7502 185.134C72.6251 184.936 74.533 184.771 76.4079 184.572C77.3618 182.823 77.1973 179.358 77.1973 176.585C79.8617 173.582 75.2895 163.977 75.454 164.109C76.5066 163.152 84.8944 165.264 86.3417 165.594C89.039 171.535 86.2759 176.552 87.3943 183.417C87.6246 183.417 87.8219 183.417 88.0522 183.417C88.8087 184.011 93.2165 183.747 94.6967 183.549C96.3413 183.318 98.5781 182.592 100.025 182.328C100.914 182.163 102.657 182.922 103.315 183.054C103.315 183.054 108.709 182.889 108.972 182.823C110.288 182.493 113.578 180.975 115.288 182.262C116.308 182.559 116.801 183.153 117.262 183.945C117.887 184.605 119.235 186.883 118.446 187.807C119.268 189.127 121.998 191.504 121.176 192.296C120.058 193.385 118.808 194.738 117.13 195.233C115.913 195.233 109.005 193.154 107.788 193.121C104.927 193.319 101.177 192.857 98.4794 193.286C97.1637 195.662 96.2756 198.204 95.0256 200.877C93.9072 203.254 92.131 205.102 91.9007 208.468C95.1901 208.501 97.7887 208.204 100.223 207.61C102.92 206.95 105.453 208.27 106.834 208.732C109.367 208.666 111.933 208.6 114.466 208.534C118.215 208.699 121.735 209.294 125.024 210.053C125.353 210.614 127.491 211.175 127.689 211.769C127.952 212.594 133.182 213.716 133.083 214.046C133.083 214.706 133.083 215.367 133.05 216.027C132.491 217.38 123.281 218.898 121.932 219.294C120.123 219.855 116.998 218.205 115.979 217.842C112.788 216.753 111.407 219.624 107.986 218.7C104.203 217.677 101.835 218.601 97.69 218.502C95.7492 218.469 93.9401 217.479 92.7231 217.743C89.7955 218.37 85.0589 218.007 82.0656 218.898C79.7959 219.558 76.8355 220.845 74.7303 221.44C72.9541 221.407 71.1778 221.374 69.4345 221.341C65.7833 222.364 62.7571 221.275 57.9547 221.242C55.2574 221.638 54.4022 222.628 52.5272 222.364C51.4089 222.232 49.9287 222.661 48.4813 222.628C45.1591 222.562 41.8369 222.496 38.5146 222.463C37.2318 221.473 31.3109 221.671 28.9097 221.638C24.6336 221.572 22.035 221.341 18.9759 220.449C17.4299 220.449 15.8839 220.383 14.3379 220.35L13.6472 221.01C12.0683 221.473 11.0157 220.515 9.99599 220.284C9.66705 219.723 9.17365 219.03 8.71314 218.601C8.64736 215.433 9.10786 213.287 11.4762 212.66C12.1999 212.132 13.4498 212.792 14.4695 212.396C14.8642 212.231 15.6537 211.241 16.1471 211.109C17.9562 210.548 19.1404 211.868 20.1272 212.165L26.4098 212.627C29.9952 212.66 33.2188 212.759 37.3634 212.825C38.8107 212.825 40.2251 212.858 41.6724 212.891C42.8237 213.221 44.2381 214.607 46.3104 213.98C46.6393 213.881 47.5932 213.122 47.9879 213.023C49.4353 212.627 52.0338 213.221 52.9549 213.452C54.4022 213.353 55.8495 213.287 57.2639 213.188C57.3626 212.957 57.4942 212.759 57.5928 212.528C58.4481 211.571 58.0862 209.03 58.0205 206.884C57.9547 204.706 57.231 202.758 56.8034 201.207C56.3429 199.524 56.6718 197.016 56.5731 195.53C55.9153 194.969 55.2574 194.408 54.5995 193.814L47.955 193.682C47.1656 193.385 46.113 192.263 45.3236 191.966C42.3303 191.9 39.337 191.867 36.3765 191.801C34.2385 191.207 30.6202 192.032 28.0874 191.306C26.1138 190.744 23.581 189.787 21.8376 189.193C20.9495 188.896 19.5351 189.391 19.1733 189.49C18.1536 189.688 17.5944 189.259 16.8707 189.127C15.7852 187.312 14.6997 186.883 14.634 183.978C13.9432 186.487 13.4827 189.424 12.7919 192.197C12.6275 193.616 12.4959 195.035 12.3314 196.421C11.1802 199.722 9.76573 203.122 8.77893 206.488C8.15395 208.699 8.9105 210.647 8.35131 212.726C5.9172 221.605 4.43699 232.1 2.06866 240.88C1.83841 243.916 1.64106 246.986 1.4108 250.022C1.54238 250.583 1.8713 252.003 1.67394 252.927C0.588458 257.713 1.18054 262.498 0.0950577 267.416C-0.628599 270.684 2.98968 277.978 3.84491 280.75C5.02908 284.711 5.25933 288.375 6.60796 292.335C6.9369 293.325 7.75924 294.547 8.08817 295.438C9.20655 298.573 8.41711 302.27 9.63417 305.24C10.9499 308.508 12.4959 311.445 14.0748 314.779C14.5682 315.835 15.7194 317.155 16.0484 318.344C15.8181 319.895 15.5879 321.479 15.3576 323.03C15.6537 324.186 16.6405 325.638 17.0681 326.793C17.9562 329.268 17.726 331.546 18.5812 334.12C20.0614 338.642 21.7061 343.56 23.2849 347.916C23.5481 349.633 23.8112 351.349 24.0415 353.032C24.6665 354.848 25.6533 357.092 26.2783 359.039C26.969 361.119 26.6401 362.967 27.5282 364.815C28.5808 366.961 29.8965 369.7 30.7189 371.911C30.982 373.463 31.2123 375.014 31.4754 376.598C32.6267 380.262 34.0411 384.52 35.1924 388.15C35.9818 390.692 35.7845 393.068 36.9357 395.279C37.8239 396.963 39.8961 398.25 41.0803 399.702C42.6263 401.583 44.271 404.059 45.488 406.138C47.9879 410.396 48.58 415.314 50.6852 419.901C52.4944 423.862 55.4219 427.757 57.5599 431.42C58.8428 433.665 59.5335 436.173 60.7506 438.417C61.4743 435.777 61.9348 433.038 62.8887 430.397C63.0203 428.747 62.5269 426.833 62.6584 425.182C63.2505 423.433 63.5465 420.595 64.1057 418.944C65.6517 414.29 63.9084 405.214 66.6385 403.96C67.3293 403.498 73.3159 406.105 74.1711 405.94C74.9606 406.006 75.7171 406.072 76.5066 406.105C76.8355 406.006 77.8223 405.313 78.2499 405.247C79.3354 405.313 80.4538 405.412 81.5722 405.478C82.4932 405.247 83.9405 404.29 84.9931 404.059C86.6706 404.059 88.3153 404.059 89.9929 404.059C90.6837 403.927 92.2954 403.432 93.052 403.267C93.7099 403.3 94.3677 403.366 95.0256 403.399C95.3545 403.3 96.3413 402.607 96.736 402.541C98.8083 402.805 100.914 403.069 102.986 403.333C103.216 402.805 103.315 402.574 103.446 401.682C102.624 400.758 102.788 399.57 102.361 398.25C101.637 396.071 99.6636 397.557 100.979 394.058C101.867 391.649 102.953 389.272 103.249 385.873C102.854 385.609 102.394 384.949 101.999 384.784C100.683 384.685 99.3346 384.586 98.0189 384.487C96.6703 383.991 96.144 383.166 94.4664 382.902C93.3151 384.454 90.6508 385.015 88.6114 385.477C87.6246 385.411 86.6378 385.345 85.651 385.246C84.5984 385.477 83.2497 386.434 82.23 386.665C79.5657 386.599 76.9342 386.5 74.2698 386.401C72.0989 386.797 67.724 387.325 64.961 386.401C64.2373 386.137 62.2966 385.543 61.0138 385.774C59.7967 385.972 57.2639 385.378 55.685 385.708C54.8627 385.873 53.6127 386.962 52.297 386.467C51.9023 386.335 50.9813 385.279 50.3892 385.312C50.0273 385.312 48.9419 386.137 48.6787 386.203C46.8696 386.533 40.0277 381.714 39.7646 380.559C39.5672 379.635 40.3895 378.744 40.6198 377.951C42.3303 377.357 43.4486 378.017 45.2907 377.621C47.659 377.093 50.5207 377.357 53.6127 377.555C54.9285 377.654 56.2442 377.753 57.5928 377.852C58.3823 377.72 60.0269 377.225 60.6519 377.06C64.2044 376.301 67.7898 378.546 71.5726 377.852C72.362 377.72 74.4014 378.051 75.5527 377.819L76.6053 377.225C78.0197 377.456 79.467 377.654 80.8814 377.885C82.5919 377.522 84.8286 376.499 86.6378 376.301C87.4272 376.235 88.414 377.159 89.5982 376.862C90.1903 376.697 91.4402 375.839 91.9994 375.707C93.6441 375.938 95.2887 376.169 96.9334 376.4C97.7558 376.235 99.4991 375.806 100.321 375.641C102.131 375.278 104.861 376.004 106.308 375.74C107.624 375.938 108.94 376.169 110.255 376.367C110.913 376.268 113.281 376.235 113.939 375.971C114.17 375.872 114.696 375.146 114.992 375.047L118.643 375.311C119.235 375.212 122.722 374.75 123.446 374.684C123.774 373.958 121.801 373.067 121.867 371.878C121.505 371.35 121.406 368.479 121.406 367.39C121.406 364.056 119.4 366.069 119.137 363.099C116.998 362.01 116.406 357.917 118.347 358.148C118.577 358.643 121.538 358.016 123.38 358.478C125.288 358.412 131.241 359.105 130.945 361.515C131.34 363.528 131.537 365.871 130.781 368.182C130.123 370.228 130.419 372.473 130.189 372.869C131.241 373.76 134.564 372.407 135.452 372.208C137.984 372.407 140.517 372.572 143.05 372.77C143.675 372.638 146.142 372.341 146.767 372.044C147.622 371.614 148.576 370.525 149.563 370.228C150.648 370.327 159.793 370.459 160.188 370.195C161.931 370.261 164.233 369.337 165.549 369.205C164.891 368.017 164.398 366.862 164.398 366.036C162.786 363.759 163.872 353.263 164.365 351.679C164.562 350.953 164.135 350.227 164.069 349.996C164.102 348.544 164.168 347.124 164.201 345.672C164.266 342.9 164.201 340.424 163.74 338.345C163.312 336.266 164.497 333.46 164.924 332.041C165.812 329.037 163.345 325.341 162.687 323.492C161.931 323.129 155.878 321.644 154.76 321.941L153.74 322.568C152.425 322.403 151.076 322.271 149.76 322.106L149.07 322.766C146.964 322.931 144.859 323.096 142.754 323.261C141.175 322.865 136.866 323.327 134.761 323.69C134.103 323.558 133.445 323.426 132.787 323.294C131.866 323.459 130.583 324.318 129.761 324.549L123.446 324.384C122.13 323.889 120.814 322.304 118.183 322.898C116.966 323.162 115.288 323.823 114.17 324.12C113.051 324.12 111.966 324.054 110.847 324.021C107.986 324.648 96.9005 323.723 93.9401 322.865C92.0981 322.337 89.1377 322.469 87.9535 322.7C87.0325 322.865 86.4404 322.403 85.9799 322.304L80.9801 322.502C80.388 322.337 78.9407 321.611 78.3486 321.446C77.0329 321.413 75.6842 321.38 74.3685 321.347C73.8422 321.083 73.3488 319.994 72.7567 319.631C72.1975 319.499 72.0988 318.509 71.5726 318.377C70.9476 317.981 59.4678 311.313 59.3362 310.356C60.0269 309.993 63.8755 309.366 64.6649 309.135C65.6517 309.069 72.2304 310.521 73.2172 310.422C74.8619 309.729 75.2566 311.809 77.9539 311.776C78.7104 312.469 79.3683 312.106 80.5854 312.502C83.9405 313.624 88.1837 313.723 92.4928 313.855C94.269 313.921 96.0124 313.954 97.7886 314.02C103.117 315.505 106.176 315.802 111.374 314.416C112.36 314.416 113.347 314.482 114.367 314.482C114.696 314.383 115.65 313.657 116.045 313.525C119.137 313.624 122.228 313.69 125.32 313.789C126.077 314.02 126.998 314.812 128.281 314.548C130.583 314.086 133.248 313.591 135.287 313.096C137.886 312.469 141.438 314.284 142.886 313.987L144.234 313.36C145.32 313.492 146.438 313.657 147.556 313.789C148.741 313.624 150.451 312.535 151.569 312.238C154.76 312.436 157.984 312.634 161.174 312.832C161.438 312.37 161.799 311.875 162.194 311.511C162.095 307.518 162.194 309.795 162.095 305.802C162.622 304.217 163.345 304.217 164.102 303.095C164.562 302.402 164.102 301.676 164.497 300.785C164.628 300.455 165.385 299.795 165.516 299.464C165.944 298.573 165.714 297.88 166.24 297.154C166.602 296.626 169.792 293.986 170.22 293.491C171.108 293.491 171.174 295.702 171.602 296.065C172.687 296.395 172.194 297.583 172.49 298.639C173.575 299.828 172.95 302.171 172.358 303.623C170.417 308.376 171.338 308.409 172.095 313.393C173.509 314.185 176.009 314.218 178.378 314.251C178.97 314.713 182.654 314.713 183.673 314.416C184.233 314.218 185.121 313.36 185.713 313.129C186.765 312.7 187.358 312.964 188.377 312.535C188.673 312.403 189.43 311.544 189.726 311.577C190.746 311.677 192.851 311.875 192.949 311.908C194.397 311.941 194.956 312.898 196.37 312.964C196.765 313.096 199.035 315.076 199.693 315.274C200.153 316.891 205.317 319.697 205.416 321.842C203.64 323.426 200.581 323.327 198.245 324.252C197.028 324.219 190.647 322.304 189.43 322.271C187.851 322.799 186.667 324.318 184.364 324.78C183.081 325.044 182.128 324.252 181.404 324.021C178.641 323.195 175.055 324.417 173.411 325.11C172.852 329.4 172.72 334.912 172.654 339.731C172.72 341.612 172.786 343.494 172.819 345.408C172.358 346.86 171.766 349.831 171.306 351.349C170.549 353.957 171.371 357.752 170.746 359.996C170.121 362.208 171.47 364.287 171.24 365.673C171.01 367.093 170.22 368.116 170.121 370.294C170.319 370.393 170.286 370.525 170.121 370.69C173.608 371.35 178.575 371.944 180.91 371.482C182.818 371.119 185.581 370.69 187.654 370.294C189.101 370.294 190.548 370.294 191.996 370.294C194.989 369.667 200.679 366.829 204.265 368.017C207.62 369.106 212.291 368.743 213.08 372.01C213.475 372.572 216.995 378.348 216.896 379.338C215.383 380.625 209.462 379.272 207.258 379.767C205.909 380.625 203.837 379.437 202.982 379.107C200.745 379.173 198.541 379.239 196.305 379.272C194.824 379.569 193.114 380.361 191.897 380.625C189.594 380.328 187.292 380.064 184.956 379.767C183.41 380.097 181.963 381.45 180.483 381.78C179.43 382.011 172.884 380.79 171.931 380.493C169.694 379.767 165.977 380.295 164.595 380.625C163.115 380.988 160.253 380.229 159.332 379.899C157.096 379.173 154.267 379.239 152.688 379.734C152.458 380.229 152.392 380.262 152.26 381.054C153.214 382.341 152.194 384.091 152.556 386.071C153.477 391.187 151.997 391.715 152.162 396.468C152.951 396.897 153.181 397.128 154.431 397.293C154.859 396.996 155.122 397.293 155.78 397.062C156.438 396.831 157.457 396.071 158.181 395.906C160.615 396.071 163.049 396.27 165.451 396.435C165.944 396.336 167.128 395.675 167.523 395.576L173.838 395.708C176.832 395.114 180.417 392.243 183.345 391.649C184.66 391.748 185.976 391.847 187.325 391.946C187.785 391.847 188.936 391.187 189.397 391.088C191.502 391.253 193.574 391.385 195.68 391.55C196.074 391.451 197.061 390.758 197.39 390.692C199.397 390.197 203.146 391.187 204.66 391.55C205.449 393.695 207.949 398.283 206.6 401.418C206.436 401.748 206.173 406.732 206.074 406.93C206.074 408.482 205.383 411.353 205.383 412.937C205.186 417.03 203.837 416.535 203.673 420.628C204.199 423.433 204.692 427.064 205.252 430.199C205.778 429.077 206.337 427.955 206.929 426.899C211.633 418.581 221.205 413.069 226.073 405.115C226.139 404.653 226.238 404.224 226.303 403.762C227.488 401.385 228.869 398.448 230.086 395.939C230.777 394.487 230.645 393.134 231.27 391.682C231.501 391.121 232.257 390.362 232.454 389.668C232.454 389.206 232.454 388.777 232.454 388.348C233.047 386.533 234.625 384.718 235.316 382.968C235.875 381.549 235.546 380.328 236.007 378.942C236.994 375.938 238.671 372.374 239.79 369.337C240.513 367.357 240.283 365.541 240.941 363.528C241.73 361.152 243.342 359.072 244.263 357.026C245.678 353.791 245.217 349.699 246.599 346.53C247.125 345.342 248.342 343.89 248.967 342.735C250.217 340.424 250.349 337.916 251.566 335.572C252.454 333.856 253.901 331.876 254.658 329.962C255.348 328.212 255.579 325.968 256.072 324.384C256.138 323.426 256.204 322.436 256.302 321.479C257.519 318.575 258.835 314.548 259.822 311.412C261.105 307.386 261.105 301.907 261.861 297.814C262.256 295.636 260.94 292.335 261.565 289.794C262.848 284.414 263.473 277.054 263.111 271.509L263.407 271.74ZM83.6116 335.936C84.105 335.506 84.4668 334.714 84.9602 334.285C85.8483 333.592 86.7364 333.361 87.493 332.536C92.8875 331.975 92.4928 334.021 94.9927 336.299C95.6506 336.893 96.6703 337.421 97.4268 337.85L98.0189 337.784C98.9399 338.378 99.4004 339.632 99.9925 340.589C101.045 341.579 102.065 342.57 103.117 343.56C103.117 343.758 103.085 343.956 103.052 344.154C103.348 344.616 104.071 345.012 104.334 345.507C104.466 346.101 104.565 346.695 104.696 347.256C105.157 348.148 106.44 349.072 106.67 350.062C106.538 351.283 106.374 352.504 106.242 353.692C105.519 354.254 105.584 354.65 104.63 355.046C103.973 355.607 102.986 355.805 101.9 355.937C101.012 354.947 99.4004 354.716 98.7097 353.56C97.8873 352.207 96.9992 350.194 95.7493 349.369C95.3545 349.303 94.9927 349.237 94.598 349.204C94.2691 349.006 93.9072 348.313 93.5783 348.115C93.1178 347.818 92.6573 347.983 92.1968 347.652C91.2757 347.025 90.6179 345.837 89.5982 345.21C88.9074 344.814 88.0193 344.979 87.3614 344.55C86.0128 343.659 85.8154 341.447 84.9931 339.995C84.105 338.378 83.48 338.543 83.6445 335.902L83.6116 335.936ZM131.34 147.375C131.044 147.375 130.781 147.375 130.485 147.375C130.09 147.177 128.807 146.286 128.511 145.923C126.965 143.943 128.149 143.514 127.459 141.038C127.163 139.982 126.307 138.794 125.814 137.87V137.309C124.992 136.517 124.136 135.757 123.314 134.965C122.853 134.239 122.886 133.447 122.492 132.655C121.242 130.146 121.275 123.677 120.715 122.489C123.182 121.202 124.334 118.727 127.294 118C128.084 117.802 131.504 121.301 131.833 121.4C132.623 121.598 133.544 121.202 133.84 121.136C134.531 121.037 137.721 121.598 138.379 121.796C140.155 122.258 142.524 121.631 143.511 121.301L147.787 121.367L148.938 120.806C149.991 120.806 151.01 120.839 152.063 120.872C152.49 120.773 153.477 120.146 153.773 120.047C155.451 119.519 157.194 120.443 158.346 119.552C160.549 120.41 163.51 119.684 166.043 119.684C166.668 120.707 167.918 121.334 168.279 122.588C168.871 124.602 167.95 127.572 167.589 128.859C167.457 130.179 167.358 131.533 167.227 132.853C165.944 136.285 166.964 140.213 165.089 143.118C163.872 144.999 162.852 149.554 160.681 150.181C160.22 150.544 152.129 150.478 150.944 149.983C150.616 149.851 149.267 148.299 148.971 147.936C141.8 148.233 137.261 150.016 131.307 147.342L131.34 147.375ZM51.0799 233.949C51.0799 233.949 51.2444 233.949 51.3431 233.949C51.7707 233.586 52.4943 233.52 52.8891 233.124C54.1061 233.19 55.3232 233.256 56.5402 233.289C56.6389 233.289 57.0665 232.892 57.5928 232.991C58.2836 233.157 58.8757 234.147 59.2046 234.246C59.3691 234.246 59.5664 234.246 59.7309 234.246C59.7309 234.246 59.8625 233.883 60.2572 233.982C60.7177 234.081 61.7045 234.642 62.3624 234.444C62.79 234.312 63.7439 233.487 64.1715 233.355C65.2241 233.421 66.2438 233.487 67.2964 233.553C70.2239 232.76 77.0987 234.51 80.388 235.302C82.8879 235.896 84.6313 234.378 87.1641 235.137L87.6903 235.632C88.3811 235.632 89.0719 235.599 89.7626 235.566C90.0258 235.698 90.6179 236.391 91.3415 236.589L94.4664 236.523C94.894 236.655 95.6177 237.381 96.0453 237.513C96.9334 237.843 97.4268 237.579 98.1505 237.975C98.2491 238.14 98.3149 238.338 98.4136 238.503C98.7755 238.503 99.1044 238.503 99.4662 238.503C101.341 239.131 104.334 239.824 105.782 240.946C106.242 241.507 106.111 242.53 106.604 243.025C106.275 245.798 103.315 248.405 102.624 251.244C102.163 253.257 104.729 256.095 103.578 257.779C103.15 258.604 101.9 258.109 101.506 258.868C101.506 259.825 101.538 260.782 101.571 261.739C101.144 262.003 100.716 262.3 100.289 262.564C100.289 262.993 100.289 263.423 100.321 263.885C100.058 264.413 99.1373 264.71 98.7755 265.238C97.6242 265.238 96.9005 264.974 96.144 264.512C95.9795 264.248 95.7822 263.984 95.6177 263.753C95.1572 263.522 94.894 263.753 94.5651 263.522C92.9862 263.72 92.7888 264.644 91.7363 265.172C91.4073 265.172 91.0455 265.172 90.6837 265.172C89.8613 265.535 88.4469 266.228 87.5917 266.558C87.2298 266.558 86.9009 266.558 86.5391 266.558C85.8483 266.855 84.6313 267.713 83.9734 267.944C83.1839 267.878 82.3945 267.812 81.6051 267.746C80.0262 267.746 78.9736 268.307 77.1644 267.845C76.1447 267.581 75.2895 266.921 74.533 266.591C72.5922 265.766 67.0661 264.545 68.1516 261.772C68.5463 260.716 68.7766 260.188 69.6647 259.627C69.3687 257.019 67.9543 258.67 67.2635 257.581C66.6385 256.59 67.3293 252.267 66.5727 251.31C66.3754 251.21 66.5727 250.979 66.0464 251.045L65.5531 251.574L63.4479 251.376C62.79 250.715 61.54 250.385 61.0466 249.593V248.801C60.7835 248.339 60.1256 247.481 59.9283 246.986C59.9283 246.623 59.9283 246.293 59.9283 245.93L59.402 245.435C59.4678 245.005 59.5664 244.543 59.6322 244.114C59.5664 243.982 58.9086 243.52 58.8428 243.355V242.563C58.481 242.035 57.7573 241.903 57.231 241.54C54.139 239.527 50.6523 238.833 51.047 233.85L51.0799 233.949ZM243.441 292.467C243.013 295.999 237.783 297.649 237.356 301.181C236.139 303.458 234.889 305.703 233.672 307.98C232.619 308.805 231.599 309.63 230.547 310.488C228.014 309.993 217.258 315.439 216.666 313.195C216.074 312.238 221.567 304.514 222.159 303.689C223.31 302.072 227.192 299.795 227.948 297.715C228.08 295.174 227.159 293.623 227.29 291.081C226.83 290.784 224.363 290.586 224.034 290.157C222.06 289.926 220.054 289.728 218.08 289.497C217.685 289.596 216.699 290.322 216.37 290.388C214.922 290.322 213.508 290.223 212.061 290.157C211.205 290.322 209.363 290.817 208.705 290.982C206.502 290.751 204.298 290.52 202.094 290.289C200.844 290.553 199.397 291.51 198.344 291.741C196.568 291.543 194.824 291.312 193.048 291.114C192.719 291.213 191.732 291.939 191.338 292.005C189.693 291.906 188.015 291.84 186.371 291.741C184.496 292.104 181.667 292.335 179.989 292.731C177.128 292.467 179.364 292.533 176.503 292.269C170.516 291.939 165.615 291.345 160.549 292.401C158.115 292.269 155.681 292.137 153.247 292.005C151.175 292.434 147.556 292.467 145.55 292.929C144.563 292.863 143.576 292.83 142.557 292.764C141.866 292.962 140.386 293.721 139.498 293.92C137.294 293.788 135.09 291.741 132.886 291.609C130.978 292.071 128.544 293.491 126.768 293.953L115.156 293.656C114.17 293.92 112.92 294.877 111.735 295.141C107.986 294.943 104.236 294.712 100.486 294.514L99.4662 295.141C98.3478 295.075 97.2623 295.009 96.144 294.943C91.8678 295.9 87.2298 296.923 82.6905 297.88C80.1578 298.408 75.6185 297.55 74.1054 297.055C71.441 296.923 68.8095 296.758 66.1451 296.626L64.8623 295.9C61.1124 295.702 56.4087 293.92 52.6588 293.722C50.126 292.929 47.6261 292.434 44.4354 292.269C43.7118 293.391 43.3171 297.55 42.5605 298.606C41.2777 300.389 40.9158 304.151 38.5804 304.712C37.4949 305.537 29.765 311.214 28.9426 310.785C28.4821 309.861 28.3176 308.772 27.7913 307.716C27.6598 307.485 26.9361 306.99 26.8374 306.66C26.5085 305.372 33.6464 295.405 33.8437 294.448C34.1069 293.094 33.153 290.289 33.8437 288.441C34.3043 287.219 35.5871 285.47 36.0805 284.216C36.1463 282.896 36.2121 281.576 36.3108 280.222C36.7055 279.265 37.8568 278.737 38.4159 278.011C38.9751 277.252 38.9751 276.46 39.5343 275.734C40.3567 275.106 41.1461 274.479 41.9684 273.852L43.9421 273.951C44.6657 274.644 45.4222 275.37 46.1459 276.064C46.0143 278.737 45.8499 281.378 45.7183 284.051C46.8696 284.777 48.909 285.8 50.2576 286.295C51.376 286.361 52.4614 286.427 53.5798 286.46C54.0074 286.625 55.06 287.417 55.5205 287.549C58.9415 287.748 62.3624 287.913 65.7833 288.111C67.2635 288.573 68.7437 288.111 70.0923 288.342C70.816 288.474 72.1975 288.771 73.3817 288.87C74.3685 288.936 75.3882 288.969 76.375 289.035C76.6053 289.101 78.1183 290.091 78.3157 290.124C78.842 290.223 83.6116 288.969 84.3681 288.804C86.1444 288.903 87.8877 289.002 89.664 289.101C90.1903 288.969 91.4731 288.375 92.0323 288.243C92.5915 288.243 93.1507 288.309 93.677 288.342C94.269 288.177 95.4861 287.318 96.0782 287.153C96.8347 287.186 97.6242 287.252 98.4136 287.285C101.802 286.559 106.867 287.021 110.091 286.262C111.209 286.328 112.295 286.394 113.413 286.427C114.005 286.295 115.255 285.668 115.781 285.569C117.229 285.635 118.643 285.734 120.09 285.8C121.275 285.569 123.314 285.272 124.465 285.041C126.505 284.612 128.478 285.701 129.794 284.678C130.32 284.084 130.287 282.5 130.32 281.377C129.63 280.354 130.616 278.473 130.222 277.054L129.597 276.361C129.531 275.701 129.465 275.007 129.366 274.347C128.807 272.631 127.064 271.41 126.636 269.859C126.866 267.878 127.064 265.865 127.294 263.885C127.097 262.894 126.307 261.772 126.11 261.145C126.143 260.254 127.886 257.052 127.919 256.161C130.222 253.125 132.557 251.838 135.156 253.653C135.649 255.369 136.57 257.482 137.195 259.099C137.524 260.023 137.261 260.683 137.721 261.475C138.182 262.234 139.3 262.564 139.596 263.588C140.09 265.205 138.971 266.987 138.708 267.878C138.182 269.496 138.511 274.776 138.938 275.899C139.136 276.46 139.958 277.087 140.188 277.615C140.846 279.265 140.583 281.377 142.261 282.071C143.741 283.259 145.32 281.179 147.26 281.675C149.431 282.236 151.8 281.939 154.563 282.071C156.668 282.302 158.74 282.533 160.845 282.764C161.306 282.005 161.503 281.873 161.635 280.486C160.78 279.298 160.451 276.064 161.01 273.786C161.01 273.753 161.405 273.654 161.372 273.126C161.174 270.387 161.799 265.469 161.273 262.795C161.372 261.244 161.438 259.693 161.536 258.142C161.273 256.755 161.01 253.323 161.569 251.475C161.635 251.21 162.194 250.319 161.997 249.494C161.898 248.999 161.24 247.679 161.141 247.118C161.01 246.458 161.503 245.963 161.536 245.798C161.536 244.114 161.503 242.464 161.47 240.781C161.076 238.833 159.924 233.586 160.681 231.077C161.569 228.173 161.701 223.156 161.602 220.449C161.701 218.436 161.832 216.456 161.931 214.475C161.766 213.848 160.911 212.792 160.747 212.066C160.911 208.964 161.076 205.861 161.24 202.758L161.109 199.425C161.701 197.973 162.687 198.732 162.951 196.19C159.76 194.672 140.583 193.616 138.905 190.447C137.984 189.358 138.215 181.8 138.577 180.414C139.958 179.721 141.471 178.565 143.017 178.004C144.333 177.509 146.01 177.674 147.063 176.882C147.951 176.915 148.839 176.981 149.727 177.014C150.155 178.202 150.681 179.919 151.866 180.48C152.951 181.404 172.687 188.005 174.332 188.5C175.549 188.863 178.016 188.632 179.628 189.127C182.555 190.018 185.318 189.721 188.246 189.259C189.232 189.094 193.542 189.985 194.495 190.282C195.712 190.249 196.93 190.183 198.147 190.15C198.344 190.216 199.068 190.745 199.791 190.579C200.252 190.48 201.37 189.787 201.831 189.688C202.949 189.754 204.035 189.82 205.153 189.853L206.173 189.259C207.192 189.028 208.64 189.622 209.133 189.754H214.791C216.008 189.424 217.258 188.203 218.212 187.906C221.764 186.817 225.415 188.764 228.113 189.457C228.639 190.414 229.165 190.447 229.297 191.867C230.02 193.319 230.481 198.831 229.428 199.788C229.066 200.217 228.705 200.646 228.376 201.075C226.764 201.9 224.856 201.933 223.31 202.791C220.942 204.079 218.376 206.125 215.778 207.049C215.35 207.049 214.889 207.016 214.462 206.983C213.639 207.841 208.969 207.874 208.146 208.699C206.699 209.855 204.824 209.558 204.331 211.835C204.956 212.231 205.613 212.891 206.238 213.287C206.666 213.419 207.094 213.551 207.554 213.683C208.146 214.145 208.804 215.433 209.429 215.796C210.975 216.654 213.146 216.258 214.659 217.413C215.185 218.106 215.679 218.799 216.205 219.492C218.179 221.704 220.251 223.519 221.83 226.126C222.981 228.041 224.757 229.724 224.79 232.628C224.264 233.256 226.632 239.296 226.205 240.154C225.547 241.507 225.514 246.524 224.264 247.283L222.915 247.547C222.455 247.811 221.731 248.636 221.172 248.801C220.087 248.636 218.968 248.471 217.883 248.273C213.278 249.032 206.041 242.992 202.949 241.507C200.975 241.078 199.035 239.031 197.061 238.602C195.186 237.678 193.805 234.312 192.16 233.19C190.91 232.331 189.529 232.166 188.279 231.308C188.015 231.143 187.654 230.45 187.358 230.252C186.93 230.12 186.502 229.988 186.042 229.856C183.871 228.305 181.535 226.357 179.332 224.806C178.509 224.212 177.588 224.245 176.733 223.651C174.99 222.43 174.134 220.977 171.24 220.68C170.746 221.506 170.516 221.803 170.417 223.288C173.082 227.018 169.299 230.516 170.417 235.302C170.549 235.863 171.141 237.348 171.273 238.008C171.141 240.22 171.042 242.431 170.911 244.642C170.911 244.741 171.47 246.26 171.47 246.326C171.898 248.471 171.075 251.574 171.437 253.323C171.371 254.643 171.306 255.996 171.207 257.316C171.075 259.759 171.042 262.861 171.437 265.007C171.799 266.888 171.141 270.288 170.746 271.641C169.792 274.842 167.029 281.278 168.904 281.972C169.595 282.566 177.522 282.434 178.805 282.401C180.318 282.368 182.456 282.533 184.134 282.368C185.351 282.434 186.568 282.5 187.785 282.566C192.982 281.543 195.285 281.675 200.383 280.519C201.271 280.321 202.357 280.882 202.686 280.981C203.969 281.344 205.186 280.651 206.041 280.486C208.475 280.618 210.909 280.75 213.343 280.882C215.153 280.486 217.521 279.925 219.396 279.562C221.6 279.694 233.54 275.8 235.744 275.899C238.671 275.305 243.145 279.925 244.296 284.051C246.632 287.616 244 291.114 243.572 292.467H243.441ZM63.7768 112.951C64.8952 110.97 66.8359 110.145 68.5792 108.759L69.8292 107.043C71.0134 106.218 72.8554 106.052 74.0724 105.227C74.1711 104.996 74.2698 104.765 74.3685 104.534C75.3553 103.808 76.1448 103.313 77.296 102.752C77.296 102.521 77.296 102.29 77.296 102.092C75.5198 102.158 73.7435 102.224 72.0002 102.29C71.7041 102.092 64.8294 102.224 63.3821 102.29C63.0203 102.851 63.0203 102.554 62.7571 103.313C62.0663 104.27 62.6584 111.828 63.1189 112.951C63.3492 112.951 63.5466 112.951 63.7768 112.951ZM87.3285 194.738C86.9996 194.375 87.1969 194.705 86.9996 194.078C83.5458 193.682 79.4999 193.979 76.0461 193.55C73.908 195.398 69.0398 194.804 65.7175 195.365V196.025C64.04 198.006 66.6056 200.745 66.9346 202.032C67.1648 202.857 66.6714 203.254 66.5727 203.683C66.0793 206.257 66.8359 208.336 67.4609 209.69C68.1516 211.241 67.8227 211.67 70.0923 211.736C71.3423 210.746 75.4211 210.812 77.7565 210.878C78.5789 209.624 79.5986 209.591 79.7959 207.577C79.3354 206.983 79.467 205.63 79.5328 204.574C82.4603 202.858 86.7693 198.765 87.3285 194.738ZM77.5592 245.468L77.3618 247.58C77.7236 247.844 78.0526 248.075 78.4144 248.339L78.4802 251.21C78.7104 251.871 79.6643 252.366 79.3354 253.554C79.2367 253.917 78.3815 254.775 78.3486 255.138C78.2499 256.161 80.092 256.623 78.6775 258.274C78.6775 259.066 78.7104 259.858 78.7433 260.617C81.2432 259.957 83.7431 259.264 86.2759 258.604C86.7035 258.406 87.3614 257.713 87.8219 257.515C89.0061 257.019 90.3218 257.151 91.1771 256.392C92.2626 256.029 92.2626 255.204 92.9533 254.511C92.8546 253.158 92.3941 252.96 92.0981 252.168C91.6047 250.781 92.427 249.263 92.5257 248.504C92.427 248.075 92.3283 247.646 92.2297 247.217H93.0191C93.0191 247.019 93.0191 246.854 93.0191 246.656C92.4928 246.425 91.8349 245.831 91.4402 245.666C90.8152 245.6 90.2231 245.534 89.5982 245.435C89.4995 245.171 89.4008 244.906 89.335 244.642C88.5127 245.435 87.1312 244.774 85.947 244.477C84.8286 244.477 83.6773 244.543 82.559 244.576C81.5722 244.279 79.4341 244.213 78.6118 243.619C77.8223 243.619 77.2631 243.751 76.8026 243.916C77 245.567 77.3289 244.774 77.625 245.468" fill="#FAFAFA"/>
</svg>
