<svg width="223" height="2" fill="none" xmlns="http://www.w3.org/2000/svg"><g clip-path="url(#a)" fill="#000"><path d="m15.953 1.25-.001.002V1.25h.001ZM11.523.389c.026.034.042.059.082.115-.032-.022-.062-.019-.09-.01-.054-.048-.084-.104.008-.104V.39ZM9.236.501 9.22.504c.006-.02.012-.013.016-.003ZM48.901 1.994l-.01.006h-.007c-.002 0-.005-.003-.006-.007a.364.364 0 0 1-.015-.07h.089c-.004.025-.01.044-.014.046l-.035.024-.002.001ZM16 1.092l.004-.003a.295.295 0 0 1 .037-.026c.002 0 .003-.001.005-.003a1.09 1.09 0 0 1 .037-.02l.013-.005c.01-.004.02-.008.03-.01.006 0 .012 0 .017-.003.008-.001.018-.004.027-.004.006 0 .013 0 .019.002l.026.001c.009.001.017.006.026.009l.019.005c.016.008.03.016.046.027a1.802 1.802 0 0 1-.053.072l.104.014.005.05c-.046.018-.128.062-.133.053a.33.33 0 0 0-.026-.046c-.003-.005-.005-.006-.01-.01-.007-.008-.013-.016-.021-.022l-.01-.005c-.008-.005-.017-.011-.025-.014h-.002c-.057-.023-.124-.012-.183-.029a.432.432 0 0 1 .04-.035l.007.002ZM66.375 1.968c-.011.005-.022.007-.032.012l-.04.013c-.013.003-.023.003-.033.004-.009 0-.018.003-.026.003-.012 0-.02-.003-.03-.006a.044.044 0 0 1-.02-.004c-.01-.003-.017-.01-.026-.015-.004-.002-.01-.004-.013-.008a.183.183 0 0 1-.023-.025l-.01-.01L66.1 1.9l-.007-.012a.815.815 0 0 1-.026-.05c.133.027.266.057.4.086a.852.852 0 0 1-.09.045h-.002ZM10.01.465l.016-.01c.01-.006.018-.013.029-.017.008-.005.017-.006.026-.01.007 0 .014-.005.021-.005a.305.305 0 0 1 .036-.003h.012c.014 0 .029.003.043.007h.003a.176.176 0 0 1 .106.077h-.334a.206.206 0 0 1 .04-.039h.002ZM66.954 2c-.032 0-.072-.046-.139-.139h.231c-.036.093-.062.139-.093.139h.001Z"/><path d="m49.09 1.947.003.053c-.072-.025-.152-.05-.23-.075v-.02h.226l.001.042ZM204.446 1.25h.001v.002l-.001-.002ZM208.186.504l.082-.115c.091 0 .062.056.008.103a.102.102 0 0 0-.09.01v.002ZM210.446.504l-.016-.003c.006-.01.01-.016.016.003ZM170.873 1.923c-.007.038-.01.06-.014.07-.002.003-.003.006-.006.007h-.007c-.003 0-.006-.003-.01-.006l-.035-.023c-.005-.003-.009-.022-.015-.047h.089l-.002-.001ZM203.923 1.154a.144.144 0 0 0-.026.014.058.058 0 0 0-.008.004.116.116 0 0 0-.022.022l-.01.01a.173.173 0 0 0-.026.047c-.005.01-.087-.035-.133-.054l.005-.05c.031-.003.06-.008.105-.014l-.054-.072a.23.23 0 0 1 .046-.026c.006-.003.013-.004.019-.006.009-.003.017-.007.026-.008.009-.002.017-.002.026-.002l.019-.001c.009 0 .019.003.027.004.006 0 .012 0 .016.003l.031.01a.266.266 0 0 1 .05.025c.002 0 .003.001.005.003.013.007.024.017.037.026.002 0 .003.001.005.003.013.01.027.021.04.034-.058.019-.126.007-.184.03h-.001l.007-.002ZM153.954 1.887l-.007.012-.022.033-.01.01a.22.22 0 0 1-.023.025l-.013.008c-.009.006-.016.012-.026.015a.568.568 0 0 1-.019.004c-.01.003-.019.006-.031.006a.188.188 0 0 1-.026-.003c-.011 0-.021 0-.033-.004l-.04-.013c-.01-.005-.021-.006-.032-.012a.792.792 0 0 1-.09-.045l.399-.088a.515.515 0 0 1-.026.052h-.001Z"/><path d="M210.537.426h.002a.156.156 0 0 1 .044-.007h.011c.012 0 .024 0 .037.003.007 0 .014.004.021.005.009.003.018.005.026.01.01.003.019.01.029.016.006.003.012.006.016.01a.247.247 0 0 1 .041.041h-.334a.178.178 0 0 1 .105-.077l.002-.001ZM152.928 2c-.032 0-.058-.046-.094-.139h.232c-.067.093-.106.139-.139.139h.001ZM171.538 1.905h.226v.02l-.23.075c0-.019.002-.036.003-.053l.001-.042Z"/><path d="M222.048.523c-.127.009-.253.016-.38.026-.043.004-.087.023-.132.02-.047-.001-.115.063-.14-.053-.001-.01-.071-.018-.075-.006-.045.111-.124.062-.188.065-.136.007-.27.002-.393.002l-.058-.152c-.032.031-.062.065-.094.094-.025.021-.052.053-.077.053-.121-.003-.242-.017-.364-.023-.068-.003-.136 0-.228 0a.112.112 0 0 1-.044.046c.089 0 .175 0 .261.003.075.002.15.023.227.03a.635.635 0 0 0 .157-.008c.091-.016.182-.07.269.02.014.015.062.016.082.003l.835.022a2.855 2.855 0 0 0-.508.114c-.136.073-.267.119-.423.089-.096-.02-.197-.016-.285-.022.021.06-.013.111-.1.116-.153.007-.156.35-.262.204l.024.081h-.46l-.015-.107-.212.058-.018-.03.118-.076c-.032-.045-.065-.097-.148-.033-.032.024-.084.024-.127.029-.12.013-.239.023-.386.037l.094.07h-.281l.047.07c-.078.007-.029.138-.133.134-.068-.003-.136 0-.227 0-.048.138-.12-.045-.197-.022a5.298 5.298 0 0 0-.013.073h-.276a.433.433 0 0 0 .046-.02c-.079-.03-.167-.064-.256-.095a.242.242 0 0 0-.091-.017c-.096.003-.198.035-.287.012-.155-.04-.3-.005-.448.01-.073.007-.144.023-.216.033-.088.013-.173.017-.257.074-.054.036-.156.037-.164-.087 0-.013-.049-.023-.082-.038l-.017.138c-.057-.006-.112-.012-.166-.016-.061-.004-.123-.015-.184-.01-.095.006-.166-.012-.174-.158l-.121.129a4.728 4.728 0 0 1-.147.022.621.621 0 0 1-.115.005.168.168 0 0 1-.151-.106.048.048 0 0 0-.019-.015.162.162 0 0 0-.067-.016c-.01 0-.02.001-.026.006a.676.676 0 0 1-.384.108.996.996 0 0 1-.246-.036.662.662 0 0 0-.108-.017c-.037-.003-.074-.003-.112-.003-.075 0-.15.007-.225.008-.006 0-.012.01-.018.022a.151.151 0 0 1-.008.019l-.008.016.057-.006.05-.006c0 .013.003.025.005.038-.074.013-.148.023-.221.038-.08.017-.156.04-.236.058-.019.004-.039.008-.058.014a.872.872 0 0 1-.117.025.36.36 0 0 1-.056 0 1.563 1.563 0 0 0-.275-.02c-.137 0-.273.014-.408.033-.134.018-.268.046-.403.073-.064.014-.121.058-.198.061a.271.271 0 0 1-.085-.013l.073-.014.031-.006c-.055-.04-.097-.068-.138-.097-.01-.007-.023-.014-.027-.025-.006-.016-.009-.043-.012-.056 0-.004-.002-.007-.004-.007-.027 0-.058-.005-.087-.005-.014 0-.029 0-.04.003a.124.124 0 0 0-.035.013.175.175 0 0 1-.107.03c-.036 0-.072-.005-.108-.005a.232.232 0 0 0-.071.01l-.006-.007a.31.31 0 0 1-.021-.042c-.005-.007-.008-.015-.011-.02-.026.047-.055.072-.088.072-.024 0-.053-.013-.085-.04-.01-.008-.022-.018-.033-.03-.07.077-.385.118-.581.076a.339.339 0 0 1-.112-.042l.094-.015v-.08c-.032.01-.036-.002-.066-.036-.045-.049-.099-.049-.139.013l.064.016-.006.025-.207-.038a.278.278 0 0 0 .01-.026l-.033.022c-.012.007-.023.014-.035.019l-.034.01c-.035.009-.073.014-.103.032-.022.011-.042.024-.061.03l-.019.005h-.017c-.006 0-.012-.005-.017-.01a.108.108 0 0 1-.032-.041.025.025 0 0 1-.015.004.03.03 0 0 1-.015-.004l-.018-.009c-.011-.006-.023-.013-.033-.014-.006 0-.01 0-.016.003-.01.004-.019.017-.026.043 0 .003-.006.004-.016.004-.026 0-.081-.007-.116-.01-.057-.006-.117-.003-.17-.022a.183.183 0 0 1-.088-.063l-.019-.018a.06.06 0 0 0-.026-.013.025.025 0 0 0-.025.01c-.003.003-.005.01-.008.016l-.005.028-.11-.01h-.039l-.039.001c-.078.006-.157.015-.218-.07-.006-.01-.045.005-.079.015a.177.177 0 0 1-.034.009.284.284 0 0 0-.026.007c-.01.003-.018.006-.029.007a.074.074 0 0 1-.024.005c-.007 0-.012 0-.013-.003a.154.154 0 0 0-.152-.064c-.053.007-.108.03-.162.03.033.008.065.014.098.02v.015h-.091c-.03 0-.06 0-.089.003-.022.003-.042.03-.062.045.015.015.033.028.05.042a.14.14 0 0 1-.003.028 3.882 3.882 0 0 1-.117-.015c-.04-.006-.082-.01-.129-.016.074-.058.125-.111.186-.14.017-.009.036-.015.054-.022.038-.012.076-.02.112-.029l.052-.013-.12-.033-.051-.015a.176.176 0 0 0-.06.078c-.011.022-.086 0-.131-.004-.036-.003-.083-.03-.107-.01-.086.08-.198.06-.248-.057-.046.102-.181.125-.281.028-.086-.084-.163-.119-.261-.014l-.045-.122-.331.22.059.033c-.048.02-.078.044-.09.035-.085-.068-.151-.05-.232.025-.047.042-.129.021-.195.027l-.333.028-.007-.057.65-.136-.125-.136.271-.054-.063-.162c-.055.089-.168.138-.213.044-.06-.125-.124-.048-.18-.052-.083-.008-.17.023-.258.037a2.8 2.8 0 0 1 .016.074c-.246.016-.478.132-.747.026l.082.096-.088.034h.333a.96.96 0 0 0 .002.054c-.169.02-.338.032-.506.065-.102.022-.195.03-.287-.045-.025-.02-.071.002-.109.003-.07.003-.149.106-.211-.032-.005-.014-.073.02-.112.02-.047 0-.116.045-.119-.07.007-.137.052-.228.134-.268h.003a.284.284 0 0 1 .091-.025.247.247 0 0 0 .142-.042c-.026-.016-.052-.03-.077-.048-.027-.018-.054-.04-.082-.06-.04.086-.109.102-.207.046-.055.03-.094.075-.125.068-.149-.035-.285.046-.427.065-.029.004-.053.055-.082.077-.132.1-.253.026-.383-.05-.006.218-.145.142-.229.151-.111.012-.232.104-.344-.019-.006-.005-.048.035-.068.058-.037.042-.052.04-.058-.027 0-.012-.055-.036-.062-.026-.114.145-.263.098-.399.105-.082.005-.182.079-.253-.047-.004-.008-.045 0-.053.016-.124.196-.301.062-.448.11-.019.005-.048-.038-.074-.055-.043-.03-.084-.064-.121.018-.039.086-.07.089-.162.037-.013-.008-.035-.01-.047 0-.075.052-.141.049-.211-.02-.014-.014-.071.01-.089.036-.077.102-.141.09-.194-.054l-.175.08c-.009-.032-.017-.067-.036-.13-.162.206-.359.083-.554.072a3.54 3.54 0 0 1-.02-.115c-.172.048-.308-.017-.441-.149-.04-.04-.146-.022-.202.016-.136.09-.268.148-.424.11-.095-.023-.196-.019-.285-.026.022.074-.013.138-.099.143-.154.01-.301 0-.407-.18l.024.1h-.46l-.015-.132-.212.072a.59.59 0 0 1-.017-.036l.117-.096c-.032-.056-.065-.12-.148-.04-.032.03-.084.03-.127.036-.12.017-.239.029-.386.046l.094.087h-.28l.046.087c-.078.009-.029.172-.133.168-.068-.003-.136 0-.227 0-.048.17-.12-.055-.197-.028l-.013.09h-.276l.046-.024c-.079-.037-.167-.079-.255-.118a.207.207 0 0 0-.092-.021c-.096.004-.198.043-.287.014-.155-.05-.299-.006-.448.013-.073.009-.143.028-.216.04-.088.017-.173.022-.257.092-.054.045-.156.046-.163-.107 0-.016-.05-.028-.083-.047l-.017.17c-.057-.007-.112-.015-.166-.02-.061-.006-.123-.02-.184-.014-.095.008-.166-.014-.173-.195l-.122.16c-.055.01-.101.02-.147.025-.039.006-.078.012-.115.008a.16.16 0 0 1-.099-.045.223.223 0 0 1-.052-.086.049.049 0 0 0-.019-.02.161.161 0 0 0-.032-.015c-.012-.002-.023-.005-.035-.005-.011 0-.02.001-.026.007a.577.577 0 0 1-.384.133.894.894 0 0 1-.246-.043.453.453 0 0 0-.108-.02c-.038-.003-.074-.005-.112-.003-.075.001-.15.008-.225.01-.006 0-.012.013-.018.027a.212.212 0 0 1-.008.023l-.007.02c.02-.004.039-.005.056-.008l.051-.006c0 .016.002.032.004.048-.074.016-.148.027-.221.046-.08.02-.156.05-.236.071l-.058.018a.598.598 0 0 1-.117.03c-.019.003-.037.001-.056 0a1.443 1.443 0 0 0-.275-.023c-.137 0-.272.016-.408.039a5.037 5.037 0 0 0-.403.091c-.063.016-.121.071-.198.075a.195.195 0 0 1-.085-.017l.074-.017.03-.008-.137-.12c-.011-.008-.024-.019-.028-.03-.006-.02-.009-.055-.011-.071 0-.006-.003-.009-.005-.009-.027 0-.058-.006-.087-.006a.12.12 0 0 0-.04.005.08.08 0 0 0-.035.017.151.151 0 0 1-.107.038c-.036 0-.072-.007-.108-.007a.17.17 0 0 0-.071.013s-.003-.003-.006-.01c-.006-.01-.014-.032-.021-.051l-.011-.026c-.026.06-.054.09-.088.09-.024 0-.053-.015-.085-.047-.01-.011-.022-.023-.033-.038-.07.096-.385.147-.581.095a.29.29 0 0 1-.112-.052l.094-.02v-.1c-.032.014-.036-.004-.066-.043-.045-.06-.099-.06-.139.016l.064.02-.006.03c-.07-.016-.138-.03-.207-.047a.42.42 0 0 0 .01-.033.95.95 0 0 0-.033.027.168.168 0 0 1-.035.024l-.034.013c-.035.01-.073.017-.103.039-.022.014-.042.029-.061.037a.045.045 0 0 1-.019.005c-.005 0-.011 0-.017-.002-.006-.001-.011-.006-.017-.01a.123.123 0 0 1-.032-.052c-.004.004-.009.004-.015.004-.005 0-.01-.003-.015-.006-.006-.002-.012-.007-.018-.01-.011-.007-.023-.016-.033-.017-.006 0-.01 0-.016.003-.01.006-.019.022-.026.053 0 .003-.006.005-.016.005-.026 0-.081-.009-.115-.013-.058-.007-.118-.005-.171-.028a.189.189 0 0 1-.061-.043.193.193 0 0 1-.027-.035l-.019-.022a.084.084 0 0 0-.026-.016c-.009-.001-.017 0-.025.01-.003.005-.005.012-.008.022l-.005.035-.11-.013h-.039l-.039.003c-.078.007-.157.017-.218-.088-.006-.012-.045.005-.079.02-.012.004-.023.009-.034.011l-.026.01c-.01.002-.018.006-.029.01l-.024.005c-.007 0-.012 0-.013-.004a.208.208 0 0 0-.036-.045c-.036-.035-.075-.04-.116-.034-.053.01-.108.037-.162.038.033.009.065.018.098.025v.019c-.03 0-.06 0-.091-.002-.03 0-.06 0-.089.004-.022.003-.042.037-.062.057l.05.052a.188.188 0 0 1-.003.033l-.117-.017-.128-.019c.073-.07.124-.137.185-.174a.356.356 0 0 1 .055-.026c.037-.014.075-.024.111-.034a.584.584 0 0 0 .052-.016l-.12-.04-.132-.046c-.004.01-.01.019-.014.03a.645.645 0 0 1 .039.027l-.006.03-.263-.067-.004.022-.008.038-.001.01c-.027-.004-.056-.017-.082-.019-.009 0-.018 0-.025.003-.153.048-.306.104-.458.158-.015.006-.025.02-.042.035l.121.024-.008.045c-.058-.023-.116-.045-.181-.072l-.385.053-.007-.037c.041-.034.062-.067.065-.096.003-.029-.011-.058-.043-.081l-.229.093c-.056.021-.111.046-.169.058-.004 0-.008 0-.014-.003a.105.105 0 0 1-.03-.03l-.013-.017c-.019-.031-.038-.055-.058-.052-.013.002-.026.012-.041.036a.218.218 0 0 1-.192.112l-.042-.001a.778.778 0 0 1-.085-.014.407.407 0 0 0-.114-.008.227.227 0 0 0-.112.04.155.155 0 0 1-.094.02c-.034-.002-.071-.01-.104-.012-.14-.01-.28-.025-.413-.037-.021.177-.172.068-.258.176h.301v.047c-.123-.017-.249.003-.374 0a.685.685 0 0 1-.229-.046l-.055.017c.003.047.008.095.01.147-.164.027-.315.052-.465.075l-.007-.026c.014-.015.027-.03.042-.042h-1.139l.047-.035.032-.023c-.004-.017-.004-.026-.007-.026l-.077-.017c-.076-.02-.153-.04-.23-.038-.024 0-.049.009-.069.01-.032.003-.055-.009-.061-.075l-.01-.003c-.027.074-.069.111-.123.11-.039 0-.084-.025-.134-.067a.136.136 0 0 1-.067-.029c-.007-.005-.014-.007-.021-.011a.34.34 0 0 1-.029.055.163.163 0 0 1-.049.045.041.041 0 0 1-.018.004c-.003 0-.007-.003-.01-.007-.01-.015-.02-.044-.033-.061a.318.318 0 0 0-.041-.05c-.005.004-.013.005-.018.008l-.019.009c-.005.003-.009.004-.013.005a.4.4 0 0 1-.151.028.686.686 0 0 1-.12-.013c-.059-.01-.118-.023-.179-.026-.017 0-.034.02-.084.052.044 0 .077-.001.106-.003.029 0 .053 0 .078.006.042.01.111.036.114.062.006.068.029.096.058.107.014.006.032.008.048.009.016.001.034 0 .05.003a.497.497 0 0 1 .068.014c-.086.016-.173.044-.256.051a.414.414 0 0 1-.06 0 .239.239 0 0 1-.167-.077c-.068.012-.117.02-.164.03l-.003-.102c-.09.017-.18.029-.268.055-.082.025-.162.064-.269.106a.07.07 0 0 0-.031-.006c-.057.004-.136.066-.203.053-.027-.005-.052-.023-.072-.06l-.215.042c0 .008-.003.018-.005.027.054.026.106.054.19.096l-.265.046-.039-.12c-.023.019-.048.053-.071.053-.058 0-.139.01-.168-.031-.14-.203-.336-.192-.517-.24-.004 0-.01 0-.016.004-.006.002-.011.007-.016.01a.283.283 0 0 1-.065.043.218.218 0 0 1-.066.019.229.229 0 0 1-.141-.04c-.027-.018-.062-.04-.092-.038-.03 0-.058.026-.07.1 0 .003-.004.005-.008.008a.124.124 0 0 1-.044.009h-.021c-.02-.003-.039-.01-.06-.017l-.057-.022a.272.272 0 0 0-.008.032l.048.036-.056.016c-.046-.099-.088-.184-.122-.254-.018.027-.037.051-.055.074l-.143.191c-.073-.075-.14-.29-.208-.362a.137.137 0 0 1-.042.008c-.043.001-.087-.01-.13-.012l-.059-.003.001.009c-.036.011-.084.042-.115.048-.01.001-.019 0-.026-.006a.169.169 0 0 0-.061-.04c-.016.007-.033.01-.048.021a.442.442 0 0 1-.12.064.283.283 0 0 1-.059.011c-.02.002-.042 0-.064-.001-.034-.004-.069-.015-.104-.012-.047.005-.095.018-.127.025-.035.033-.059.072-.075.067a3.506 3.506 0 0 1-.169-.061l-.175-.067-.005.015-.001.004c-.003.006-.007.012-.012.012-.112.011-.226.011-.339.026l-.009.003a.056.056 0 0 0-.019.008c-.021.013-.043.036-.063.052l.003.005h-.006l.003-.005c-.09.016-.178.032-.268.045a4.45 4.45 0 0 1-.536.05c-.09.002-.179 0-.269-.005l.038-.149c-.041-.04-.091-.036-.133-.043-.042-.008-.08-.025-.094-.106 0-.003-.012-.005-.023-.006-.012-.001-.026 0-.031.007-.053.06-.104.132-.166.144a.089.089 0 0 1-.039 0c-.028-.006-.056-.025-.09-.061-.003-.005-.008-.006-.016-.007a.096.096 0 0 0-.065.018c-.027.022-.046.032-.059.034-.04.005-.029-.063-.027-.112a.159.159 0 0 0-.037-.009c-.037-.002-.076.01-.114.01a.118.118 0 0 1-.102-.034l-.034.004V1.37s-.005-.006-.013-.006a.202.202 0 0 0-.056.014l-.027.012a.178.178 0 0 0-.042.032l-.045.043-.009-.045c-.348.051-.717.115-1.086.147-.007 0-.014 0-.021-.002.004.03.01.057.014.078h-.017c-.01 0-.02-.029-.03-.068a.132.132 0 0 1-.068.018.991.991 0 0 1-.138-.015 1.113 1.113 0 0 0-.089-.009c-.008 0-.013-.018-.028-.039l.065.008-.011-.105a.2.2 0 0 1-.044.03l-.02.034-.012.017c-.146-.021-.271-.042-.407-.062l-.01-.037-.015-.055c-.006 0-.013.002-.019.004v.052a.635.635 0 0 0-.046.02c-.029.013-.055.026-.081.034a.108.108 0 0 1-.03.004c0 .08-.036.093-.078.091-.031 0-.064-.01-.088-.009-.063.005-.125.006-.187.005l-.186-.002v.04h.399a.326.326 0 0 1-.031.085c-.037.068-.098.094-.176.091-.087-.003-.172 0-.259 0-.023 0-.048 0-.065-.006-.03-.008-.042-.034-.004-.11.006-.011.004-.039-.003-.048-.009-.01-.029-.014-.042-.011-.081.02-.162.043-.243.065l-.011-.04c.033-.028.069-.056.104-.084h-.013c-.041-.003-.078-.016-.12-.016a.19.19 0 0 0-.103.03.324.324 0 0 1-.192.05c-.11-.005-.224-.051-.333-.095h-.001a.57.57 0 0 1-.083-.019v-.014c-.033-.015-.068-.028-.102-.042l-.022.084.237.088a.127.127 0 0 1-.063.057.07.07 0 0 1-.024.004.21.21 0 0 1-.098-.025c-.02-.008-.043-.024-.061-.018-.065.018-.128.066-.192.065-.098-.002-.196-.047-.296-.05-.09-.002-.181.025-.281.041l.018-.098c-.034-.003-.068-.008-.101-.01a1.935 1.935 0 0 1-.141-.02l-.084-.01c-.014-.001-.027-.004-.041-.007a.288.288 0 0 1-.161-.091c-.02-.022-.039-.029-.059-.026-.059.006-.122.094-.185.113-.048.014-.091.05-.138.078l-.013-.036a.654.654 0 0 0 .052-.025l-.104-.11-.001.057a.167.167 0 0 1-.026.076.13.13 0 0 1-.023.024.176.176 0 0 1-.1.027h-.042l-.069-.001a.365.365 0 0 0-.136.02.108.108 0 0 0-.045.035.165.165 0 0 1-.042.045.078.078 0 0 1-.04.015.108.108 0 0 1-.06-.011c-.02-.009-.039-.02-.057-.03l-.019-.01a.103.103 0 0 0-.058-.01.06.06 0 0 0-.038.015c-.007.006-.043-.068-.073-.088-.025.006-.05.014-.073.017-.039.006-.084 0-.12.013a.106.106 0 0 0-.031.018.165.165 0 0 1-.061.036.1.1 0 0 1-.029.004c-.01 0-.019 0-.028-.003-.018-.004-.036-.011-.054-.019l-.055-.026a.167.167 0 0 0-.051-.014l-.026.011v-.011c-.027.006-.046.035-.048.108 0 .034-.047.093-.073.093-.11 0-.222-.011-.33-.03-.045-.008-.103-.013-.114-.094 0-.005-.013-.006-.019-.008l-.01.052-.007.041c-.028-.01-.045-.022-.063-.023-.041-.004-.099-.006-.148-.009-.05-.003-.087-.007-.089-.019a.16.16 0 0 0-.016-.059.215.215 0 0 0-.015.06c-.002.01-.041.017-.089.018-.049.003-.107.005-.149.009-.017.001-.034.013-.062.023l-.007-.04-.01-.053c-.006.003-.019.005-.019.008-.011.08-.069.086-.114.094-.11.019-.22.03-.33.03-.026 0-.073-.06-.073-.093-.002-.073-.021-.102-.049-.108v.011l-.025-.011a.279.279 0 0 0-.051.014l-.055.026a.195.195 0 0 1-.082.022c-.01 0-.019 0-.029-.004a.154.154 0 0 1-.061-.036.066.066 0 0 0-.031-.018c-.037-.011-.081-.007-.12-.013-.024-.003-.048-.011-.073-.017-.03.02-.066.094-.073.088a.09.09 0 0 0-.038-.016.121.121 0 0 0-.058.012l-.019.008c-.018.01-.039.022-.057.03a.112.112 0 0 1-.06.012.078.078 0 0 1-.04-.015.175.175 0 0 1-.042-.045.09.09 0 0 0-.045-.035.365.365 0 0 0-.136-.02l-.069.001h-.042a.17.17 0 0 1-.1-.027.103.103 0 0 1-.023-.024.167.167 0 0 1-.026-.076c-.001-.016-.003-.035-.001-.057l-.105.11.053.025-.014.036c-.044-.027-.088-.064-.137-.078-.063-.019-.126-.107-.185-.113-.02-.003-.039.004-.059.026a.288.288 0 0 1-.161.091l-.042.007-.083.01a.379.379 0 0 0-.042.005c-.034.006-.067.01-.099.014-.033.005-.068.008-.101.01l.018.099c-.102-.016-.191-.043-.281-.04-.098.002-.196.047-.296.049-.064 0-.127-.047-.192-.065-.018-.006-.041.011-.061.018a.22.22 0 0 1-.098.025.07.07 0 0 1-.024-.004c-.023-.008-.044-.025-.063-.057l.237-.088-.022-.084c-.035.014-.069.027-.102.042v.014c-.027.009-.054.013-.081.018h-.002c-.108.043-.223.09-.332.094a.321.321 0 0 1-.193-.05.185.185 0 0 0-.102-.03c-.042 0-.08.013-.12.016h-.013l.104.084c-.005.013-.007.028-.012.04l-.243-.065a.046.046 0 0 0-.042.012c-.007.007-.008.036-.002.048.037.074.026.1-.005.11-.017.006-.042.004-.065.006-.087 0-.172-.002-.259 0-.078.003-.138-.022-.176-.092a.293.293 0 0 1-.03-.084h.399v-.04l-.187.001c-.062 0-.124 0-.186-.004-.026-.001-.06.007-.088.009-.042.001-.079-.012-.079-.092a.107.107 0 0 1-.03-.004c-.024-.007-.052-.02-.081-.033l-.046-.02V1.36c-.006 0-.013-.002-.019-.004l-.014.055-.01.038-.408.062-.012-.017-.037-.06-.023-.037c-.006.052-.012.094-.016.137.02-.001.037-.004.065-.007-.013.02-.02.039-.028.039-.027 0-.058.004-.089.009-.048.006-.097.014-.138.014-.04 0-.072-.008-.088-.032-.011.005-.023.006-.035.005-.37-.032-.737-.097-1.085-.147l-.009.045c-.017-.014-.03-.03-.045-.043a.178.178 0 0 0-.069-.044.202.202 0 0 0-.056-.014c-.008 0-.012 0-.013.004v.055l-.034-.004a.118.118 0 0 1-.102.035c-.038-.003-.077-.015-.115-.01a.079.079 0 0 0-.036.008c0 .05.012.118-.027.112-.013-.002-.032-.012-.059-.034a.096.096 0 0 0-.065-.018.02.02 0 0 0-.016.007.19.19 0 0 1-.09.06.089.089 0 0 1-.039 0c-.062-.01-.113-.085-.166-.143-.006-.005-.019-.007-.031-.007-.011 0-.023.003-.023.006-.014.081-.05.098-.094.106-.043.007-.092.004-.133.043l.038.15c-.09.005-.179.005-.269.004a4.469 4.469 0 0 1-.536-.05c-.09-.013-.178-.029-.268-.045l.003.005h-.006l.003-.003c-.021-.016-.042-.04-.063-.052-.006-.005-.013-.006-.019-.009l-.009-.003c-.113-.014-.225-.014-.34-.026-.004 0-.008-.006-.011-.011 0-.002 0-.003-.002-.005l-.005-.014-.175.066a4.517 4.517 0 0 1-.169.061c-.015.004-.039-.035-.076-.066-.031-.008-.079-.02-.127-.025-.034-.003-.069.007-.104.011a.308.308 0 0 1-.123-.01.406.406 0 0 1-.12-.063c-.014-.01-.03-.015-.047-.02a.171.171 0 0 0-.061.038c-.006.006-.015.008-.026.006-.032-.004-.08-.036-.116-.048 0-.004 0-.005.002-.008-.021 0-.041.003-.06.003-.043 0-.086.013-.13.011a.137.137 0 0 1-.042-.007c-.068.071-.136.285-.208.362l-.143-.191-.055-.074-.121.253-.057-.015.048-.037a.157.157 0 0 1-.007-.032l-.058.022a.454.454 0 0 1-.059.018h-.022a.118.118 0 0 1-.043-.01c-.006-.002-.009-.005-.009-.008-.012-.074-.039-.098-.069-.1-.031 0-.065.02-.093.038a.234.234 0 0 1-.14.04.167.167 0 0 1-.067-.018.306.306 0 0 1-.065-.044.035.035 0 0 0-.016-.01c-.005-.003-.011-.004-.015-.003-.181.048-.378.036-.518.24-.029.04-.11.03-.168.03-.023 0-.047-.034-.071-.053a4.467 4.467 0 0 1-.039.12c-.069-.011-.148-.026-.264-.046.084-.042.136-.07.189-.095 0-.009-.003-.02-.004-.028l-.215-.042c-.021.038-.047.055-.073.061-.066.013-.146-.05-.202-.054-.012 0-.022 0-.032.006-.107-.043-.186-.082-.269-.106-.088-.026-.178-.036-.267-.055l-.003.102-.165-.03a.25.25 0 0 1-.166.077h-.061c-.082-.007-.169-.034-.256-.05.023-.004.045-.01.068-.015.016-.002.035-.002.051-.002a.127.127 0 0 0 .047-.01c.029-.01.053-.038.058-.106.003-.026.073-.052.115-.063.023-.005.047-.005.078-.005.029 0 .063.003.105.003-.049-.032-.066-.054-.084-.053-.059.003-.118.016-.179.026a.814.814 0 0 1-.12.013.37.37 0 0 1-.15-.027c-.005 0-.009-.003-.013-.006-.006-.003-.013-.004-.019-.009l-.019-.007a.515.515 0 0 0-.04.05c-.012.017-.023.047-.034.06-.003.005-.007.008-.01.008a.037.037 0 0 1-.017-.005.163.163 0 0 1-.049-.045.265.265 0 0 1-.029-.055c-.007.005-.015.006-.023.012a.14.14 0 0 1-.067.029c-.049.043-.094.066-.134.066-.054 0-.096-.037-.123-.11-.003 0-.006.003-.01.003-.006.067-.029.078-.061.076-.022-.003-.045-.01-.069-.01a.97.97 0 0 0-.23.037c-.026.006-.051.013-.077.017a.115.115 0 0 0-.007.027l.032.023c.013.008.027.02.047.034h-1.139c.015.015.028.03.042.042l-.007.027-.465-.076.01-.146-.055-.017a.677.677 0 0 1-.229.046c-.125.004-.251-.016-.374 0v-.048h.301c-.086-.107-.236.002-.258-.175-.133.012-.273.027-.413.036l-.104.012c-.035.003-.068 0-.094-.02a.227.227 0 0 0-.111-.04h-.055l-.06.009a.78.78 0 0 1-.085.013l-.042.002a.218.218 0 0 1-.192-.112c-.015-.023-.029-.033-.041-.036-.02-.003-.039.02-.057.052a.098.098 0 0 1-.013.017c-.011.012-.021.023-.031.03-.006.002-.01.004-.014.002-.058-.011-.113-.036-.169-.058a9.925 9.925 0 0 1-.229-.092c-.032.023-.046.05-.043.08.003.031.024.063.065.096-.003.013-.006.025-.007.038l-.385-.054-.181.073a.56.56 0 0 0-.008-.045c.039-.007.078-.016.121-.025-.016-.014-.027-.03-.042-.035a10.91 10.91 0 0 0-.458-.157c-.009-.003-.016-.003-.025-.003-.026.001-.053.014-.082.019v-.01l-.009-.038-.004-.022-.263.067-.006-.03.039-.028-.014-.03-.132.046-.12.04c.016.006.035.01.052.016.036.01.074.02.112.035a.46.46 0 0 1 .054.026c.063.036.112.103.185.174l-.128.019-.117.017c0-.012-.002-.022-.003-.033l.05-.053c-.02-.018-.04-.053-.062-.056-.03-.004-.06-.004-.089-.004l-.091.001v-.019c.033-.008.065-.017.098-.024-.054-.002-.109-.03-.162-.038a.128.128 0 0 0-.116.033.293.293 0 0 0-.036.045c-.001.003-.007.005-.013.005-.006 0-.014-.003-.024-.006l-.029-.01-.026-.01a.59.59 0 0 1-.034-.01c-.034-.015-.072-.032-.079-.02-.061.105-.14.095-.218.087l-.039-.002h-.039l-.11.013a.108.108 0 0 0-.005-.035.047.047 0 0 0-.008-.022c-.008-.01-.015-.013-.025-.01a.053.053 0 0 0-.026.016c-.009.007-.014.016-.019.022a.153.153 0 0 1-.027.034.189.189 0 0 1-.061.044c-.053.023-.114.02-.17.027-.034.005-.089.013-.116.013-.009 0-.015-.001-.016-.004-.007-.032-.016-.046-.026-.054-.004-.002-.01-.004-.016-.002-.011.001-.023.01-.033.017l-.018.01-.015.006c-.006 0-.011 0-.015-.005a.123.123 0 0 1-.032.053.044.044 0 0 1-.017.01c-.006.001-.012.003-.017.001-.006 0-.013-.003-.019-.004-.019-.007-.039-.023-.061-.038-.03-.02-.066-.027-.103-.039a.164.164 0 0 1-.034-.013.112.112 0 0 1-.035-.023.96.96 0 0 1-.033-.028l.01.034-.207.046-.006-.03.064-.02c-.04-.076-.094-.076-.139-.015-.03.04-.034.056-.066.042v.101l.094.02a.29.29 0 0 1-.112.051c-.195.052-.511.002-.581-.094a.394.394 0 0 1-.033.038c-.032.033-.061.049-.085.047-.033 0-.062-.031-.088-.09 0 0-.008.015-.011.025-.007.02-.015.04-.021.052l-.006.01a.17.17 0 0 0-.071-.014c-.036 0-.072.007-.108.007a.151.151 0 0 1-.107-.037.098.098 0 0 0-.035-.018.18.18 0 0 0-.04-.004c-.029 0-.06.004-.087.006 0 0-.003.003-.004.008-.003.016-.006.051-.012.071-.004.013-.017.022-.027.03l-.138.121.031.007.073.018a.19.19 0 0 1-.085.017c-.078-.004-.136-.06-.198-.075a5.516 5.516 0 0 0-.403-.092 2.273 2.273 0 0 0-.545-.033c-.047.005-.093.01-.138.018a.181.181 0 0 1-.056 0c-.039-.005-.078-.018-.117-.03-.02-.007-.039-.014-.058-.018-.078-.02-.156-.05-.236-.071-.072-.019-.147-.032-.221-.047l.005-.047.05.005.056.008-.007-.02a.212.212 0 0 1-.008-.022c-.006-.015-.012-.028-.018-.028-.073 0-.15-.008-.225-.01-.038 0-.075 0-.112.003a.566.566 0 0 0-.108.02.894.894 0 0 1-.246.044.585.585 0 0 1-.384-.134.045.045 0 0 0-.026-.007.106.106 0 0 0-.035.006.161.161 0 0 0-.032.014.056.056 0 0 0-.019.02.251.251 0 0 1-.052.086.146.146 0 0 1-.099.045.52.52 0 0 1-.115-.007c-.046-.007-.092-.016-.147-.026a16 16 0 0 0-.121-.16c-.006.182-.079.205-.174.196-.061-.006-.121.007-.184.013l-.166.02-.017-.17c-.035.018-.083.031-.083.047-.007.154-.111.152-.163.107-.082-.07-.168-.075-.257-.09-.072-.014-.143-.033-.216-.041-.148-.02-.293-.063-.448-.013-.088.029-.191-.01-.287-.015a.22.22 0 0 0-.091.022c-.09.039-.177.08-.256.117l.046.025h-.276l-.013-.09c-.077-.029-.149.198-.197.027-.089 0-.159-.002-.227 0-.104.005-.055-.159-.133-.168l.047-.086h-.281l.094-.087c-.147-.018-.266-.03-.386-.047-.043-.005-.095-.007-.127-.036-.083-.078-.116-.014-.148.04l.117.096a.586.586 0 0 1-.017.036l-.212-.072-.015.132h-.459l.023-.1c-.107.18-.253.191-.407.18-.086-.005-.121-.069-.099-.142-.09.007-.19.002-.285.026-.158.037-.289-.02-.424-.11-.056-.038-.162-.057-.202-.016-.133.131-.269.198-.441.149a3.546 3.546 0 0 1-.02.114c-.195.013-.392.135-.554-.072l-.036.13c-.064-.029-.12-.053-.175-.08-.053.144-.117.158-.194.054-.018-.026-.075-.05-.089-.035-.07.068-.138.071-.211.02-.012-.01-.034-.008-.047 0-.092.051-.122.048-.161-.037-.037-.083-.079-.05-.122-.019-.026.018-.055.061-.074.055-.147-.048-.323.087-.448-.11-.008-.014-.049-.023-.053-.016-.071.126-.171.054-.253.048-.135-.007-.284.04-.399-.106-.007-.008-.061.015-.062.026-.006.067-.021.071-.058.028-.022-.025-.064-.064-.068-.058-.11.123-.231.03-.344.019-.084-.009-.224.066-.229-.152-.13.076-.25.15-.383.05-.03-.021-.053-.072-.082-.076-.142-.02-.278-.1-.427-.066-.031.008-.07-.037-.125-.068-.098.056-.167.04-.207-.046-.027.02-.055.042-.082.06-.025.018-.051.033-.077.049.049.034.095.037.142.042a.31.31 0 0 1 .091.023h.003c.082.04.128.13.134.266-.003.118-.072.073-.118.073-.04 0-.106-.035-.113-.02-.062.137-.14.034-.211.031-.036 0-.083-.023-.109-.003-.092.074-.183.067-.287.045-.051-.01-.102-.017-.152-.024.016.004.033.007.049.013a.433.433 0 0 1 .055.021c.062.03.111.083.185.14l-.129.017c-.04.006-.078.01-.117.014a.14.14 0 0 0-.003-.027l.051-.042c-.02-.016-.041-.044-.062-.045a.633.633 0 0 0-.09-.003h-.091v-.015l.098-.02c-.053-.001-.108-.024-.162-.03a.152.152 0 0 0-.115.027.181.181 0 0 0-.036.037c-.002.002-.008.004-.013.002a.086.086 0 0 1-.025-.004.18.18 0 0 0-.029-.007l-.026-.007-.033-.01c-.035-.01-.072-.024-.08-.015-.05.07-.112.077-.177.074l.073.016a.544.544 0 0 1-.007.056 25.425 25.425 0 0 1-.332-.027c-.041-.003-.086 0-.126-.003-.003 0-.006.003-.007.004-.054.019-.115.018-.171.022-.033.003-.088.011-.116.01-.008 0-.014 0-.016-.004-.007-.025-.015-.038-.026-.044-.004-.003-.01-.003-.015-.003-.012 0-.024.008-.034.015l-.017.008a.033.033 0 0 1-.016.005c-.006 0-.01 0-.014-.005a.117.117 0 0 1-.032.042.051.051 0 0 1-.018.01.034.034 0 0 1-.017 0 .045.045 0 0 1-.019-.005c-.019-.006-.039-.019-.06-.03-.031-.018-.067-.024-.103-.032a.318.318 0 0 1-.035-.01.504.504 0 0 1-.068-.04c.003.008.008.016.01.025l-.206.038-.006-.025c.022-.004.042-.01.064-.016-.041-.062-.094-.062-.139-.013-.031.032-.035.046-.067.035v.08c.035.007.065.011.094.015a.297.297 0 0 1-.111.042c-.195.042-.512 0-.581-.075a.87.87 0 0 1-.033.03c-.032.027-.061.04-.086.04-.033 0-.062-.025-.088-.073l-.01.02a.414.414 0 0 1-.022.042c-.003.005-.004.008-.006.008a.166.166 0 0 0-.07-.01c-.037 0-.073.005-.109.005a.176.176 0 0 1-.107-.03.07.07 0 0 0-.034-.013c-.013-.003-.026-.003-.041-.003-.029 0-.059.004-.087.004 0 0-.003.003-.004.008-.003.013-.006.04-.012.056-.004.01-.017.017-.027.025l-.137.097.03.005.074.015a.21.21 0 0 1-.086.013c-.078-.003-.135-.048-.198-.06a7.304 7.304 0 0 0-.403-.075 2.929 2.929 0 0 0-.545-.027 1.432 1.432 0 0 0-.137.014.188.188 0 0 1-.057 0c-.039-.003-.078-.014-.117-.024a1.023 1.023 0 0 0-.058-.015c-.078-.017-.156-.04-.235-.058-.072-.016-.148-.026-.221-.037l.004-.038.051.006.056.006-.007-.016-.009-.02c-.006-.01-.012-.02-.017-.02-.074 0-.151-.008-.226-.01-.037 0-.075 0-.111.003a.73.73 0 0 0-.109.018 1.069 1.069 0 0 1-.245.036.682.682 0 0 1-.385-.109c-.006-.004-.014-.006-.026-.006a.158.158 0 0 0-.066.016.042.042 0 0 0-.019.016.212.212 0 0 1-.052.07.17.17 0 0 1-.1.036c-.036.003-.075-.001-.114-.006a4.763 4.763 0 0 1-.148-.021 13.583 13.583 0 0 0-.121-.13c-.006.147-.078.164-.173.158-.061-.004-.122.006-.184.01-.055.005-.11.01-.166.017-.006-.051-.01-.087-.018-.138-.034.014-.082.025-.082.038-.007.124-.111.121-.163.086-.083-.056-.168-.06-.258-.073-.072-.01-.143-.026-.215-.034-.149-.016-.294-.05-.448-.01-.088.023-.191-.008-.288-.011a.284.284 0 0 0-.091.017c-.09.03-.176.065-.256.094l.046.02h-.276l-.013-.072c-.076-.023-.149.16-.196.022-.09 0-.159-.003-.227 0-.104.004-.055-.128-.133-.135l.046-.07h-.28l.093-.069c-.147-.014-.265-.025-.385-.038-.044-.004-.096-.005-.128-.029-.082-.063-.115-.011-.147.034l.117.076-.017.03-.213-.058-.014.107h-.46l.023-.081c-.107.146-.108-.197-.262-.205-.086-.004-.121-.056-.099-.115h-.013a.508.508 0 0 1-.265.02H110.02a.519.519 0 0 1-.264-.02h-.013c.022.059-.013.111-.1.115-.153.008-.156.35-.261.205l.023.08h-.46l-.015-.106-.212.057-.017-.029c.037-.024.073-.049.117-.076-.032-.045-.065-.097-.148-.034-.032.025-.084.025-.127.03l-.386.037.094.07h-.28l.046.069c-.078.007-.029.14-.133.135-.068-.003-.136 0-.227 0-.048.137-.12-.045-.197-.022a5.298 5.298 0 0 0-.013.072h-.276a.433.433 0 0 0 .046-.02c-.079-.029-.167-.064-.255-.094a.25.25 0 0 0-.092-.017c-.096.003-.198.034-.287.011-.155-.039-.299-.004-.448.01-.073.008-.143.024-.216.034-.088.013-.173.017-.257.073-.054.037-.156.038-.163-.086 0-.013-.05-.024-.083-.038l-.017.138c-.056-.006-.111-.012-.166-.016-.061-.005-.123-.015-.184-.01-.095.005-.166-.012-.173-.158l-.122.129a4.728 4.728 0 0 1-.147.021c-.039.005-.078.009-.114.006a.177.177 0 0 1-.1-.036.177.177 0 0 1-.052-.07.042.042 0 0 0-.019-.016.162.162 0 0 0-.067-.016c-.01 0-.02.002-.026.006a.676.676 0 0 1-.384.109.996.996 0 0 1-.246-.036.661.661 0 0 0-.108-.018c-.036-.003-.074-.003-.112-.003-.075 0-.15.008-.225.01-.006 0-.012.01-.017.02l-.009.02-.007.016.056-.006.051-.006c0 .013.002.025.004.038-.074.013-.148.023-.221.037-.08.018-.156.04-.236.058-.019.005-.039.009-.058.015a.875.875 0 0 1-.117.024.364.364 0 0 1-.056 0 1.541 1.541 0 0 0-.275-.019c-.137 0-.273.013-.407.032-.135.02-.269.047-.404.074-.063.013-.121.058-.198.061a.271.271 0 0 1-.085-.013l.074-.015.03-.005-.137-.097c-.01-.008-.024-.015-.028-.025-.006-.016-.009-.043-.011-.056 0-.005-.003-.008-.005-.008-.027 0-.058-.004-.086-.004-.015 0-.029 0-.041.003a.124.124 0 0 0-.035.013.173.173 0 0 1-.107.03c-.036 0-.072-.005-.108-.005a.232.232 0 0 0-.071.01l-.006-.008a.502.502 0 0 1-.031-.062c-.026.048-.055.073-.089.073-.024 0-.053-.013-.085-.04-.01-.008-.022-.018-.033-.03-.07.077-.385.117-.581.075a.33.33 0 0 1-.112-.042l.094-.014V1.42c-.032.011-.036-.002-.066-.035-.045-.05-.099-.05-.139.013l.064.016-.006.025-.207-.038a.2.2 0 0 0 .01-.026.689.689 0 0 0-.033.022.201.201 0 0 1-.07.029c-.034.008-.072.014-.102.031-.022.012-.042.025-.06.03l-.02.005h-.017c-.006 0-.011-.004-.017-.009a.113.113 0 0 1-.032-.042.024.024 0 0 1-.014.005.033.033 0 0 1-.016-.005l-.018-.008c-.011-.006-.023-.013-.033-.015-.006 0-.01 0-.016.003-.01.005-.019.018-.026.044 0 .003-.006.004-.016.004-.026 0-.08-.007-.115-.01-.058-.006-.118-.003-.171-.022-.003 0-.006-.003-.007-.004-.04.004-.086 0-.126.003-.11.01-.221.019-.332.027l-.008-.056.074-.016c-.065.003-.127-.003-.178-.074-.006-.009-.045.006-.08.016a.163.163 0 0 1-.032.009.239.239 0 0 0-.027.007c-.01.003-.018.006-.029.007a.08.08 0 0 1-.024.004c-.007 0-.012 0-.013-.002a.153.153 0 0 0-.152-.064c-.053.007-.108.029-.162.03l.099.02v.015h-.091c-.03 0-.061 0-.09.003-.022.003-.042.029-.062.045l.05.042-.003.027a3.727 3.727 0 0 1-.117-.014l-.128-.016c.073-.058.124-.112.185-.14.017-.01.036-.015.055-.022.015-.006.033-.009.049-.013-.05.007-.101.014-.152.024-.103.022-.195.03-.288-.045-.024-.02-.07.002-.108.003-.071.003-.149.106-.211-.032-.006-.014-.074.02-.113.02-.046 0-.116.046-.118-.07.007-.136.052-.228.134-.268h.003c.013-.006.026-.012.04-.015a.285.285 0 0 1 .05-.008.247.247 0 0 0 .143-.042c-.026-.016-.052-.03-.077-.048l-.082-.06c-.04.086-.11.101-.207.045-.055.03-.094.076-.126.068-.149-.034-.285.047-.426.066-.03.004-.054.055-.083.076-.131.1-.253.026-.383-.05-.006.218-.144.143-.228.152-.112.011-.233.104-.344-.02-.006-.005-.048.036-.068.059-.038.042-.052.039-.058-.028 0-.011-.055-.036-.062-.026-.114.145-.263.099-.4.106-.082.004-.181.078-.252-.048-.004-.007-.045 0-.054.016-.124.197-.3.062-.448.11-.019.006-.047-.037-.074-.055-.043-.03-.083-.064-.121.019-.039.085-.07.088-.162.036-.013-.007-.035-.009-.046 0-.075.052-.142.05-.211-.019-.015-.014-.071.009-.09.035-.076.103-.14.09-.194-.053l-.174.08-.037-.131c-.161.207-.358.084-.553.072l-.02-.114c-.172.048-.308-.018-.441-.15-.04-.04-.146-.021-.203.017-.136.09-.267.147-.423.11-.096-.024-.197-.02-.285-.026.022.073-.013.137-.1.143-.153.01-.3 0-.406-.181l.023.1h-.46l-.014-.132c-.074.025-.143.05-.213.072l-.017-.036.117-.095c-.032-.057-.065-.12-.147-.04-.032.03-.084.03-.127.035-.12.018-.239.03-.386.047l.094.087h-.281l.046.086c-.078.01-.029.173-.133.168-.068-.002-.136 0-.227 0-.047.171-.12-.055-.196-.027-.003.02-.009.054-.013.09h-.276l.046-.025c-.08-.036-.168-.078-.256-.117a.205.205 0 0 0-.091-.022c-.097.004-.198.044-.288.015-.154-.05-.299-.006-.448.013-.072.008-.143.027-.215.04-.088.016-.174.022-.258.091-.053.045-.156.047-.163-.107 0-.016-.05-.027-.082-.046l-.018.17-.166-.021c-.06-.006-.123-.019-.183-.013-.096.007-.167-.014-.174-.195l-.121.159c-.055.01-.102.02-.148.026-.039.006-.078.011-.114.007a.162.162 0 0 1-.1-.045.24.24 0 0 1-.052-.085.05.05 0 0 0-.019-.02c-.008-.006-.02-.01-.031-.015a.098.098 0 0 0-.035-.006c-.01 0-.02.002-.026.007a.58.58 0 0 1-.385.134.897.897 0 0 1-.245-.044.45.45 0 0 0-.109-.02.942.942 0 0 0-.111-.003c-.075.002-.15.009-.226.01-.005 0-.011.013-.017.028l-.009.023c-.003.007-.004.014-.007.019l.056-.008.051-.005c0 .016.003.032.004.047-.073.016-.147.028-.22.047-.08.02-.157.05-.236.07-.02.005-.04.012-.058.018a.608.608 0 0 1-.117.03c-.02.003-.038.002-.057 0a1.451 1.451 0 0 0-.275-.023c-.137 0-.273.016-.407.04a5.773 5.773 0 0 0-.403.09c-.064.017-.122.072-.198.076a.195.195 0 0 1-.086-.017 2.56 2.56 0 0 1 .074-.018l.03-.007-.137-.12c-.01-.009-.023-.019-.027-.03-.006-.02-.01-.056-.012-.072 0-.005-.003-.008-.004-.008-.028 0-.058-.006-.087-.006-.014 0-.029 0-.04.004a.079.079 0 0 0-.035.018.152.152 0 0 1-.107.037c-.036 0-.073-.007-.109-.007a.17.17 0 0 0-.07.013l-.006-.009a.709.709 0 0 1-.022-.052l-.01-.026c-.026.06-.055.09-.088.091-.025 0-.054-.015-.085-.047-.01-.012-.022-.023-.034-.038-.07.096-.384.146-.58.094a.285.285 0 0 1-.112-.052l.094-.019v-.101c-.032.014-.036-.003-.067-.042-.044-.061-.098-.061-.138.016l.063.019-.006.03-.206-.046a.302.302 0 0 0 .01-.034l-.034.028c-.011.009-.023.017-.034.023l-.035.013c-.035.01-.072.017-.102.04-.022.014-.042.028-.061.037a.044.044 0 0 1-.02.004l-.016-.001c-.006-.002-.012-.006-.018-.01a.13.13 0 0 1-.032-.053c-.004.005-.008.005-.014.005s-.01-.003-.016-.006l-.017-.01c-.012-.007-.023-.016-.034-.017-.005 0-.01 0-.015.002-.01.006-.02.022-.026.054 0 .003-.006.004-.016.004-.026 0-.081-.008-.116-.013-.058-.007-.117-.004-.17-.027a.22.22 0 0 1-.088-.078.233.233 0 0 0-.02-.022.084.084 0 0 0-.026-.016.023.023 0 0 0-.024.01.083.083 0 0 0-.009.022.567.567 0 0 0-.004.035c-.036-.005-.074-.01-.11-.013-.013 0-.026-.002-.039 0a.355.355 0 0 0-.04.002c-.077.008-.157.018-.217-.088-.006-.012-.045.006-.08.02a.454.454 0 0 1-.033.012l-.026.009-.029.01-.025.006c-.007.001-.011 0-.013-.005a.197.197 0 0 0-.036-.045c-.036-.034-.075-.039-.115-.033-.054.009-.109.036-.162.038.033.008.065.017.098.024v.02c-.03 0-.06 0-.091-.002a.46.46 0 0 0-.09.004c-.021.003-.042.036-.062.056l.05.053c0 .011 0 .021-.002.033l-.117-.017-.129-.02c.074-.07.124-.137.185-.173a.39.39 0 0 1 .055-.026c.038-.015.075-.025.111-.035a.549.549 0 0 0 .052-.016l-.12-.04a6.995 6.995 0 0 1-.131-.045l-.015.029.04.027-.006.03-.263-.066-.005.022-.007.037v.01c-.03-.004-.058-.017-.084-.018-.008 0-.017 0-.024.003-.154.047-.307.104-.459.157-.014.006-.024.02-.042.035l.122.025-.009.045c-.058-.023-.115-.045-.18-.073l-.385.054c-.003-.013-.006-.025-.007-.038.04-.033.062-.066.065-.095.003-.03-.012-.058-.044-.081-.086.034-.157.065-.228.092-.056.022-.111.047-.17.058-.004 0-.008 0-.014-.003a.114.114 0 0 1-.03-.029l-.013-.017c-.019-.032-.038-.055-.058-.052-.013.001-.026.011-.04.036a.22.22 0 0 1-.192.112c-.015 0-.03 0-.043-.002a.804.804 0 0 1-.085-.013.42.42 0 0 0-.059-.009c-.019-.001-.038-.003-.055 0a.228.228 0 0 0-.111.04.155.155 0 0 1-.094.02c-.035-.002-.071-.009-.104-.012-.14-.01-.28-.024-.414-.036-.02.177-.172.068-.257.175h.3v.048c-.122-.017-.248.003-.374 0a.683.683 0 0 1-.228-.046l-.055.017.01.146c-.165.028-.315.052-.466.076l-.007-.027.042-.042h-1.139l.048-.034c.013-.009.023-.018.032-.023-.005-.018-.005-.027-.008-.027l-.076-.017c-.077-.019-.154-.039-.23-.038-.025 0-.05.01-.07.01-.031.003-.054-.008-.06-.075l-.01-.003c-.028.074-.07.112-.123.11-.04 0-.086-.024-.135-.066a.134.134 0 0 1-.066-.03c-.007-.005-.015-.006-.023-.01a.276.276 0 0 1-.03.054.16.16 0 0 1-.048.045.039.039 0 0 1-.018.005c-.003 0-.007-.003-.01-.008-.01-.014-.02-.043-.033-.06a.352.352 0 0 0-.04-.05l-.02.007-.018.01-.013.005a.4.4 0 0 1-.15.027.677.677 0 0 1-.12-.013c-.06-.01-.119-.023-.18-.026-.017 0-.034.02-.084.053.044 0 .077-.002.106-.003.029 0 .053 0 .078.005.042.01.111.037.114.063.006.068.03.095.058.107.014.006.032.007.048.009.016.001.034 0 .05.002a.516.516 0 0 1 .068.015c-.086.016-.173.043-.256.05a.427.427 0 0 1-.06 0 .256.256 0 0 1-.166-.076c-.069.011-.118.02-.165.029l-.003-.102c-.09.018-.18.03-.268.055-.082.025-.162.064-.269.106a.074.074 0 0 0-.031-.006c-.057.005-.136.067-.203.054-.027-.006-.052-.023-.072-.06l-.215.041c0 .009-.003.019-.005.028l.19.095L70.16 2a8.62 8.62 0 0 1-.039-.12c-.023.018-.048.053-.07.053-.059 0-.14.01-.168-.032-.14-.203-.337-.191-.518-.239-.004 0-.01 0-.016.003l-.016.01a.283.283 0 0 1-.065.044.218.218 0 0 1-.066.018.226.226 0 0 1-.14-.04c-.028-.017-.063-.04-.093-.038-.03 0-.058.026-.07.1 0 .003-.004.006-.008.009a.121.121 0 0 1-.043.009h-.022c-.02-.003-.04-.01-.06-.018-.02-.007-.038-.016-.057-.022a.2.2 0 0 0-.007.032l.047.037-.056.015c-.046-.098-.088-.183-.122-.253l-.055.074-.143.191c-.073-.075-.14-.291-.208-.362a.142.142 0 0 1-.042.007c-.043.002-.087-.01-.13-.011l-.06-.003c0 .003 0 .006.002.008-.036.012-.084.042-.115.048-.01.002-.02 0-.026-.006a.16.16 0 0 0-.061-.039c-.016.006-.033.01-.048.02a.443.443 0 0 1-.12.064.288.288 0 0 1-.059.012c-.02.001-.042 0-.064-.002-.034-.004-.069-.014-.104-.011-.047.004-.095.017-.127.025-.035.033-.06.072-.075.066a3.959 3.959 0 0 1-.17-.06l-.174-.067a.049.049 0 0 1-.006.014l-.001.005c-.003.005-.008.011-.012.011-.113.012-.227.012-.34.026-.002 0-.005.003-.008.003a.055.055 0 0 0-.02.009c-.02.013-.043.036-.063.052l.003.004h-.006l.003-.004c-.09.016-.178.032-.267.045a4.448 4.448 0 0 1-.536.049c-.09.003-.18 0-.27-.004l.038-.15c-.04-.039-.09-.036-.133-.043-.043-.007-.08-.025-.094-.106 0-.003-.011-.004-.023-.005-.011-.002-.026 0-.03.007-.054.06-.104.132-.166.143a.089.089 0 0 1-.04 0c-.027-.006-.056-.024-.09-.06-.002-.005-.008-.006-.015-.008a.096.096 0 0 0-.065.019c-.028.022-.046.032-.06.033-.04.006-.028-.062-.027-.111a.147.147 0 0 0-.036-.009c-.037-.003-.076.009-.114.01a.12.12 0 0 1-.103-.035l-.033.005v-.054s-.006-.006-.013-.006a.201.201 0 0 0-.056.015c-.01.004-.02.009-.028.011a.203.203 0 0 0-.042.032c-.014.013-.029.03-.045.044l-.008-.045c-.349.05-.717.114-1.086.146-.011 0-.023 0-.035-.004-.016.023-.047.032-.088.032a.985.985 0 0 1-.137-.015 1.1 1.1 0 0 0-.09-.009c-.007 0-.013-.018-.027-.039l.065.008-.016-.138-.023.038-.038.06-.011.016c-.146-.021-.272-.042-.408-.062l-.01-.037-.015-.055c-.005 0-.013.002-.018.004v.052a.44.44 0 0 0-.047.02c-.029.013-.055.026-.08.034a.11.11 0 0 1-.03.004c0 .08-.037.093-.079.091-.03 0-.064-.01-.088-.009a2.004 2.004 0 0 1-.187.005l-.186-.002v.04h.399a.3.3 0 0 1-.03.085c-.038.068-.099.094-.177.091-.087-.003-.172 0-.259 0-.023 0-.047 0-.065-.006-.03-.008-.042-.034-.004-.11.006-.011.004-.039-.003-.048-.009-.01-.029-.014-.042-.011-.08.02-.162.043-.243.065l-.011-.04c.033-.028.07-.056.104-.084h-.013c-.04-.003-.078-.016-.12-.016a.188.188 0 0 0-.103.03.325.325 0 0 1-.192.05c-.11-.005-.224-.051-.333-.095h-.001a.562.562 0 0 1-.082-.019v-.014c-.034-.015-.068-.028-.103-.042l-.022.084.237.088a.126.126 0 0 1-.063.057.065.065 0 0 1-.023.004.21.21 0 0 1-.099-.025c-.02-.008-.043-.024-.06-.018-.066.018-.13.066-.193.065-.098-.002-.196-.047-.296-.05-.09-.002-.18.025-.28.041l.017-.098c-.033-.003-.068-.008-.101-.01a1.99 1.99 0 0 1-.14-.02l-.084-.01c-.015-.001-.028-.004-.042-.007a.287.287 0 0 1-.16-.091c-.021-.022-.04-.029-.06-.026-.06.006-.121.094-.185.113-.048.014-.091.05-.137.078l-.013-.036a.987.987 0 0 0 .052-.025l-.104-.11c0 .02 0 .04-.002.057a.17.17 0 0 1-.026.076.118.118 0 0 1-.023.024.177.177 0 0 1-.1.027h-.042l-.07-.001a.368.368 0 0 0-.135.02.11.11 0 0 0-.045.035.184.184 0 0 1-.042.045.08.08 0 0 1-.04.015.107.107 0 0 1-.06-.011c-.02-.009-.039-.02-.057-.03l-.02-.01a.102.102 0 0 0-.057-.01.058.058 0 0 0-.038.015c-.007.006-.043-.068-.073-.088-.025.006-.05.014-.072.017-.04.006-.084 0-.12.013a.113.113 0 0 0-.032.018.16.16 0 0 1-.061.036.1.1 0 0 1-.029.004c-.01 0-.019 0-.027-.003-.02-.004-.036-.011-.055-.019-.02-.008-.036-.017-.055-.026a.16.16 0 0 0-.05-.014l-.027.011v-.011c-.027.006-.046.035-.048.108 0 .034-.047.093-.073.093-.11 0-.221-.011-.33-.03-.045-.008-.102-.013-.114-.094 0-.005-.013-.006-.019-.008l-.01.052-.007.041c-.028-.01-.045-.022-.062-.023-.042-.004-.1-.006-.15-.009-.048-.003-.086-.007-.087-.019a.173.173 0 0 0-.016-.059.292.292 0 0 0-.016.06c-.002.01-.04.017-.088.018-.05.003-.107.005-.15.009-.017.001-.034.013-.061.023l-.008-.04-.01-.053c-.006.003-.019.005-.019.008-.011.08-.069.086-.114.094-.11.019-.22.03-.33.03-.025 0-.073-.06-.073-.093-.002-.073-.02-.102-.05-.108v.011l-.024-.011a.273.273 0 0 0-.05.014 1.913 1.913 0 0 0-.055.026.207.207 0 0 1-.083.022c-.01 0-.019 0-.029-.004a.152.152 0 0 1-.06-.036.07.07 0 0 0-.032-.018c-.036-.011-.081-.007-.12-.013-.023-.003-.048-.011-.073-.017-.03.02-.066.094-.073.088a.092.092 0 0 0-.038-.016.122.122 0 0 0-.058.012l-.018.008c-.02.01-.04.022-.058.03a.109.109 0 0 1-.06.012.08.08 0 0 1-.04-.015.182.182 0 0 1-.042-.045.09.09 0 0 0-.045-.035.368.368 0 0 0-.136-.02l-.069.001h-.042a.169.169 0 0 1-.1-.027.115.115 0 0 1-.023-.024.17.17 0 0 1-.026-.076c-.001-.016-.003-.035-.001-.057l-.104.11.052.025-.013.036c-.045-.027-.088-.064-.138-.078-.063-.019-.125-.107-.185-.113-.02-.003-.039.004-.059.026a.286.286 0 0 1-.16.091l-.042.007a16.34 16.34 0 0 1-.126.015c-.033.006-.067.01-.098.014-.034.005-.068.008-.102.01l.018.099c-.102-.016-.191-.043-.28-.04-.099.002-.197.047-.297.049-.064 0-.127-.047-.192-.065-.018-.006-.04.011-.061.018a.219.219 0 0 1-.098.025.066.066 0 0 1-.023-.004.116.116 0 0 1-.064-.057l.237-.088a5.456 5.456 0 0 0-.022-.084c-.034.014-.07.027-.102.042v.014c-.026.009-.054.013-.081.018h-.002c-.108.043-.222.09-.332.094a.32.32 0 0 1-.193-.05.188.188 0 0 0-.102-.03c-.042 0-.08.013-.12.016h-.013l.104.084c-.004.013-.007.028-.012.04l-.242-.065c-.013-.002-.032 0-.042.012-.008.007-.009.036-.003.048.037.074.026.1-.005.11-.017.006-.041.004-.065.006-.086 0-.172-.002-.258 0-.078.003-.14-.022-.177-.092a.3.3 0 0 1-.03-.084h.399v-.04l-.187.001c-.062 0-.124 0-.186-.004-.026-.001-.06.007-.088.009-.042.001-.078-.012-.078-.092a.11.11 0 0 1-.03-.004c-.025-.007-.051-.02-.082-.033l-.046-.02V1.36c-.006 0-.013-.002-.019-.004l-.014.055-.01.038-.408.062-.011-.017-.02-.034a.198.198 0 0 1-.044-.03l-.012.104c.02-.001.038-.004.065-.007-.013.02-.02.039-.027.039-.027 0-.058.004-.09.009-.047.006-.097.014-.137.014a.13.13 0 0 1-.068-.017c-.009.039-.019.068-.03.068h-.018l.015-.078c-.008 0-.015.003-.022.001-.37-.032-.737-.097-1.086-.146l-.008.045c-.018-.015-.03-.03-.045-.044a.201.201 0 0 0-.042-.032.12.12 0 0 0-.027-.011.203.203 0 0 0-.057-.015c-.007 0-.011 0-.013.005v.055l-.033-.005a.12.12 0 0 1-.103.035c-.037-.003-.076-.014-.114-.01a.082.082 0 0 0-.036.009c0 .049.012.117-.027.111-.014-.001-.032-.011-.06-.033a.096.096 0 0 0-.065-.019.02.02 0 0 0-.016.007.189.189 0 0 1-.09.061.089.089 0 0 1-.038 0c-.063-.011-.113-.085-.167-.143-.005-.006-.018-.007-.03-.007s-.023.002-.023.005c-.015.081-.05.099-.094.106-.043.007-.093.004-.133.044l.038.149c-.09.005-.18.005-.27.004a4.476 4.476 0 0 1-.536-.05c-.09-.012-.178-.028-.267-.044l.003.004h-.006l.003-.003c-.022-.016-.042-.039-.064-.052-.005-.004-.013-.006-.018-.008-.003 0-.006-.003-.01-.003-.112-.015-.225-.015-.339-.026-.004 0-.009-.006-.011-.012 0-.001 0-.003-.002-.004a.039.039 0 0 1-.004-.015l-.175.067a3.945 3.945 0 0 1-.17.06c-.014.005-.038-.034-.075-.066-.031-.007-.079-.02-.127-.025-.034-.003-.07.008-.104.012a.313.313 0 0 1-.123-.01.404.404 0 0 1-.12-.064c-.014-.01-.03-.014-.047-.02a.18.18 0 0 0-.061.039c-.006.006-.015.007-.026.006-.032-.005-.08-.036-.116-.048 0-.004 0-.006.002-.009l-.06.003c-.043 0-.086.013-.13.012a.134.134 0 0 1-.042-.008c-.068.071-.136.286-.208.362l-.143-.19-.055-.075-.121.254-.057-.016.048-.036c-.003-.01-.006-.02-.007-.032-.02.007-.04.014-.058.022a.46.46 0 0 1-.06.017h-.02a.122.122 0 0 1-.044-.009c-.006-.003-.009-.005-.009-.008-.011-.074-.039-.099-.07-.1-.03 0-.064.02-.092.037a.236.236 0 0 1-.14.04.165.165 0 0 1-.067-.018.342.342 0 0 1-.065-.043.038.038 0 0 0-.016-.01c-.005-.003-.011-.005-.015-.003-.181.047-.378.036-.518.239-.029.04-.11.03-.168.031-.023 0-.047-.034-.07-.053a8.707 8.707 0 0 1-.04.12l-.264-.046c.084-.042.136-.07.19-.096 0-.009-.004-.019-.005-.027-.07-.015-.14-.028-.215-.042-.02.037-.047.055-.073.06-.066.013-.146-.049-.202-.053-.012 0-.022 0-.032.006-.107-.044-.186-.083-.269-.106-.088-.026-.178-.036-.267-.055l-.003.101a10.164 10.164 0 0 0-.165-.029.25.25 0 0 1-.166.077h-.06c-.083-.007-.17-.035-.257-.05l.068-.015c.016-.003.035-.003.05-.003a.128.128 0 0 0 .049-.009c.028-.011.052-.039.057-.107.003-.026.073-.052.115-.062.023-.006.047-.006.078-.006.029 0 .063.003.105.003-.049-.032-.066-.054-.084-.052-.059.003-.118.016-.179.026a.823.823 0 0 1-.12.013c-.05 0-.1-.006-.15-.028-.005 0-.009-.002-.013-.005-.006-.003-.013-.005-.02-.01l-.018-.006a.464.464 0 0 0-.04.049c-.012.017-.023.048-.034.06-.002.005-.007.008-.01.008a.038.038 0 0 1-.017-.004.16.16 0 0 1-.05-.045c-.01-.016-.02-.036-.028-.055-.007.004-.015.006-.023.011a.14.14 0 0 1-.067.03c-.049.043-.094.066-.134.066-.054 0-.096-.038-.123-.11-.003 0-.006.003-.01.003-.006.066-.03.078-.06.075-.023-.003-.046-.01-.07-.01a.976.976 0 0 0-.23.038c-.026.005-.05.013-.077.017l-.007.026.032.023.047.035h-1.139l.042.042-.007.026c-.15-.025-.3-.05-.465-.075l.01-.147-.055-.017a.683.683 0 0 1-.228.046c-.126.005-.252-.016-.375 0v-.047h.3c-.085-.108-.235.001-.257-.176-.133.012-.273.028-.413.037-.033.002-.07.008-.104.011-.035.003-.068 0-.094-.019a.228.228 0 0 0-.111-.04c-.02-.002-.037 0-.055 0-.02.001-.038.006-.06.008a.807.807 0 0 1-.085.014l-.042.001a.22.22 0 0 1-.192-.112c-.015-.023-.029-.033-.04-.036-.02-.003-.04.02-.058.052a.068.068 0 0 1-.013.018.14.14 0 0 1-.03.029c-.007.003-.01.004-.015.003-.058-.012-.113-.037-.17-.058a9.961 9.961 0 0 1-.228-.093c-.032.023-.046.05-.043.081.003.03.024.062.065.096-.003.013-.006.024-.007.037l-.385-.053-.18.072-.01-.045.122-.024c-.016-.015-.027-.03-.042-.035a10.68 10.68 0 0 0-.458-.158c-.009-.003-.016-.003-.024-.003-.026.002-.054.015-.083.019v-.01l-.009-.038-.004-.022-.263.067-.006-.03a.637.637 0 0 0 .04-.028l-.015-.029-.132.045c-.043.015-.084.03-.12.04.016.006.035.01.052.017.036.01.074.02.112.034a.47.47 0 0 1 .054.026c.063.037.112.103.185.174l-.128.019-.117.017-.003-.033.05-.052c-.02-.019-.04-.054-.062-.057-.03-.004-.06-.004-.09-.004l-.09.002v-.02c.033-.008.065-.017.098-.024-.053-.001-.108-.03-.162-.038-.04-.005-.08-.001-.116.034a.243.243 0 0 0-.036.045c-.001.003-.007.004-.013.004-.007 0-.014-.003-.024-.006a.23.23 0 0 1-.03-.01l-.025-.009a.453.453 0 0 1-.033-.011c-.035-.015-.073-.032-.08-.02-.06.105-.14.095-.218.088-.013 0-.026-.003-.04-.003h-.038l-.11.013a.113.113 0 0 0-.005-.035.049.049 0 0 0-.008-.021c-.008-.01-.015-.013-.025-.01a.055.055 0 0 0-.026.015l-.019.022a.173.173 0 0 1-.027.035.189.189 0 0 1-.06.043c-.054.023-.115.02-.171.028-.034.004-.089.013-.116.013-.009 0-.014-.002-.016-.005-.007-.031-.016-.046-.026-.053-.006-.003-.01-.004-.016-.003-.011.001-.023.01-.033.017-.006.005-.012.008-.017.01a.069.069 0 0 1-.016.006c-.006 0-.01 0-.015-.004a.13.13 0 0 1-.032.052c-.005.004-.011.009-.017.01-.006.002-.011.003-.017.002-.006 0-.013-.003-.02-.005-.018-.007-.038-.023-.06-.037-.03-.02-.066-.028-.103-.04a.172.172 0 0 1-.069-.036l-.033-.027.01.033-.207.046-.005-.03.063-.019c-.04-.077-.094-.077-.139-.016-.03.04-.034.057-.066.042v.102l.094.018a.285.285 0 0 1-.112.053c-.195.052-.511.001-.58-.095a.477.477 0 0 1-.034.038c-.032.033-.06.05-.085.048-.033 0-.062-.032-.088-.091 0 0-.008.016-.01.026a.709.709 0 0 1-.028.06.171.171 0 0 0-.07-.012c-.037 0-.073.007-.11.007a.152.152 0 0 1-.106-.038.097.097 0 0 0-.035-.017.182.182 0 0 0-.04-.005c-.03 0-.06.005-.087.006 0 0-.003.003-.004.009-.003.016-.006.05-.012.07-.004.014-.017.023-.027.031l-.138.12.03.008.074.017a.191.191 0 0 1-.085.017c-.078-.004-.136-.059-.198-.075a5.426 5.426 0 0 0-.403-.091 2.274 2.274 0 0 0-.545-.033c-.047.004-.093.01-.138.017a.183.183 0 0 1-.056 0 .58.58 0 0 1-.117-.03l-.058-.018c-.078-.02-.156-.05-.236-.07-.072-.02-.147-.033-.22-.047 0-.016.002-.032.004-.048l.05.006.056.007-.007-.019-.008-.023c-.006-.014-.012-.027-.018-.027-.073 0-.15-.009-.225-.01-.038 0-.075 0-.111.002a.569.569 0 0 0-.109.02.898.898 0 0 1-.246.044.587.587 0 0 1-.384-.133.043.043 0 0 0-.026-.007.097.097 0 0 0-.035.005l-.032.015a.05.05 0 0 0-.018.02.263.263 0 0 1-.053.086.147.147 0 0 1-.1.045.515.515 0 0 1-.114-.008c-.046-.007-.092-.016-.147-.026a9.553 9.553 0 0 0-.121-.159c-.006.181-.078.204-.174.195-.06-.005-.121.008-.183.013l-.167.02a6.48 6.48 0 0 0-.017-.169c-.035.018-.082.03-.082.047-.008.153-.112.152-.164.107-.082-.07-.168-.075-.257-.091-.072-.013-.143-.032-.215-.041-.15-.019-.294-.062-.449-.013-.088.029-.19-.01-.287-.014a.227.227 0 0 0-.091.021c-.09.04-.177.081-.256.118l.046.024h-.276l-.013-.09c-.077-.029-.149.199-.197.028-.09 0-.159-.003-.227 0-.104.004-.055-.16-.133-.168l.047-.087h-.28l.093-.087c-.147-.017-.266-.03-.386-.046-.043-.006-.095-.007-.127-.036-.082-.079-.116-.015-.148.04l.118.096-.018.036-.212-.072-.015.131h-.46l.024-.1c-.107.181-.253.192-.406.181-.087-.005-.122-.07-.1-.143-.09.007-.19.003-.285.026-.158.038-.29-.02-.424-.11-.056-.038-.162-.056-.202-.016-.133.132-.269.199-.44.15l-.021.114c-.195.013-.392.134-.554-.073l-.036.13c-.063-.028-.12-.053-.175-.08-.053.144-.117.159-.194.055-.018-.027-.075-.05-.09-.035-.069.068-.136.07-.21.019-.012-.01-.034-.008-.047 0-.092.052-.122.049-.161-.037-.037-.082-.078-.049-.122-.018-.026.017-.055.06-.074.055-.147-.048-.323.086-.448-.11-.008-.015-.049-.024-.053-.016-.071.126-.17.053-.253.047-.135-.007-.284.04-.4-.105-.006-.009-.06.014-.061.026-.006.066-.02.07-.058.027-.022-.024-.064-.063-.068-.058-.11.123-.231.03-.344.02-.084-.01-.224.066-.229-.153-.13.077-.25.15-.383.05-.029-.02-.053-.072-.082-.076-.142-.019-.278-.1-.427-.065-.031.007-.07-.038-.125-.068-.098.056-.167.04-.207-.046-.027.02-.055.042-.082.06-.025.018-.051.032-.077.048.05.035.095.038.142.042a.336.336 0 0 1 .091.023h.003c.082.04.128.13.134.267-.003.117-.072.072-.118.072-.04 0-.106-.035-.113-.02-.062.137-.14.035-.211.032-.036 0-.083-.023-.109-.003-.092.074-.183.066-.287.045-.168-.034-.337-.045-.506-.065 0-.018.001-.037.003-.054h.332l-.088-.035.082-.095c-.269.104-.503-.01-.747-.026L14 .949c-.088-.015-.175-.045-.258-.038-.054.006-.12-.072-.18.052-.045.094-.16.044-.213-.043l-.063.162.271.054c-.055.057-.088.095-.125.136l.65.136a.726.726 0 0 1-.007.056 25.501 25.501 0 0 1-.332-.027c-.067-.006-.15.014-.196-.028-.082-.075-.147-.092-.232-.024-.013.01-.042-.015-.09-.035a.527.527 0 0 0 .06-.033c-.115-.077-.225-.151-.332-.22l-.045.121c-.098-.104-.175-.068-.261.015-.1.097-.234.073-.28-.028-.051.116-.163.136-.25.056-.021-.02-.069.008-.106.01-.045.005-.12.027-.13.005a.192.192 0 0 0-.061-.078l-.05.014c-.044.012-.085.023-.12.034l.051.013c.037.008.074.016.112.029a.434.434 0 0 1 .055.021c.062.03.11.083.185.14-.047.007-.089.01-.129.017l-.117.014-.003-.027.05-.042c-.02-.016-.04-.044-.062-.045-.03-.003-.06-.005-.09-.003h-.09v-.015l.098-.02c-.054-.001-.108-.025-.162-.03a.153.153 0 0 0-.116.027.213.213 0 0 0-.036.036c-.001.003-.007.005-.013.003a.088.088 0 0 1-.024-.004.168.168 0 0 0-.03-.007l-.025-.008c-.01-.001-.022-.005-.034-.008-.034-.012-.072-.025-.079-.016-.06.085-.14.077-.218.07h-.078c-.037.002-.074.007-.11.01a.073.073 0 0 0-.005-.028.033.033 0 0 0-.008-.017c-.007-.01-.015-.01-.025-.01a.05.05 0 0 0-.026.014l-.019.017a.184.184 0 0 1-.088.064c-.053.019-.114.017-.17.022-.034.003-.089.011-.116.01-.009 0-.014 0-.016-.004-.007-.025-.016-.038-.026-.044-.004-.003-.01-.003-.016-.003-.011 0-.023.007-.033.015l-.017.008a.033.033 0 0 1-.016.005c-.006 0-.01 0-.015-.005a.102.102 0 0 1-.032.042.048.048 0 0 1-.017.01.035.035 0 0 1-.017 0 .045.045 0 0 1-.02-.005c-.018-.006-.038-.02-.06-.03-.03-.018-.066-.024-.102-.033-.012-.002-.024-.005-.035-.01a.663.663 0 0 1-.068-.04l.01.026-.207.037-.005-.024c.021-.004.042-.01.063-.016-.04-.062-.094-.062-.139-.013-.03.032-.034.046-.066.035v.08c.035.007.065.01.094.015a.303.303 0 0 1-.111.042c-.196.042-.512 0-.582-.075a.578.578 0 0 1-.033.03c-.032.026-.06.04-.085.04-.033 0-.062-.025-.088-.073 0 0-.008.013-.01.02a.538.538 0 0 1-.022.042c-.003.005-.004.008-.006.008a.169.169 0 0 0-.07-.01c-.037 0-.073.005-.11.005a.176.176 0 0 1-.106-.03.072.072 0 0 0-.035-.013c-.013-.003-.026-.003-.04-.003-.03 0-.06.004-.087.004 0 0-.003.003-.004.007-.003.013-.006.041-.012.057-.004.01-.017.017-.027.025-.04.029-.083.057-.138.097l.03.005.074.015a.205.205 0 0 1-.085.013c-.078-.003-.136-.048-.198-.061a7.342 7.342 0 0 0-.403-.074 2.939 2.939 0 0 0-.545-.027 1.424 1.424 0 0 0-.138.014.184.184 0 0 1-.056 0c-.039-.003-.078-.014-.117-.024l-.058-.015c-.078-.017-.156-.04-.236-.058-.072-.016-.147-.026-.22-.038 0-.013.002-.024.004-.037l.05.006.057.005-.008-.015-.008-.02c-.006-.01-.012-.021-.018-.021-.073 0-.15-.007-.225-.009-.038 0-.075 0-.111.003a.704.704 0 0 0-.109.018 1.073 1.073 0 0 1-.246.036.68.68 0 0 1-.384-.109c-.006-.004-.015-.006-.026-.006a.151.151 0 0 0-.067.016.042.042 0 0 0-.018.016.208.208 0 0 1-.053.07.168.168 0 0 1-.1.036c-.035.003-.074-.002-.113-.006a4.66 4.66 0 0 1-.148-.022l-.121-.128c-.006.146-.078.163-.174.157-.06-.004-.121.006-.183.01l-.167.016a4.485 4.485 0 0 0-.017-.137c-.035.014-.082.024-.082.038-.008.124-.112.121-.164.086-.082-.056-.167-.06-.257-.073-.072-.01-.143-.027-.215-.034-.15-.016-.294-.05-.449-.01-.088.023-.19-.009-.287-.011a.282.282 0 0 0-.091.017c-.09.03-.177.065-.256.094l.046.02h-.276l-.013-.072c-.077-.023-.149.16-.197.022-.09 0-.159-.003-.227 0-.104.004-.055-.128-.133-.135l.047-.07h-.28l.093-.07C.997 1.11.878 1.1.758 1.087.715 1.082.663 1.08.631 1.057.549.994.515 1.046.484 1.091l.117.076-.018.03-.212-.059-.015.108h-.46c.008-.028.017-.054.024-.082C-.187 1.311-.19.968-.342.96-.429.956-.463.904-.442.844-.532.85-.63.847-.726.866c-.158.03-.29-.016-.424-.088a2.827 2.827 0 0 0-.507-.115l.834-.021c.021.013.068.011.082-.003.085-.091.176-.036.269-.02.052.008.106.01.158.007C-.24.62-.164.6-.087.596-.002.595.085.595.173.595A.123.123 0 0 1 .129.548c-.09 0-.16-.003-.228 0-.121.007-.243.02-.364.023C-.49.57-.517.539-.54.517-.572.488-.602.455-.634.423l-.058.152c-.123 0-.257.004-.393-.001-.064-.003-.143.046-.188-.065-.004-.012-.074-.005-.075.005-.025.116-.093.052-.14.054-.044.001-.087-.017-.132-.02C-1.747.538-1.873.53-2 .522V.488l.496-.032C-1.55.391-1.591.332-1.631.272l.008-.046h.56l.011-.055-.107-.119c.113-.021.203-.059.29-.047a.283.283 0 0 1 .18.127c.017.028-.01.113.06.104C-.516.223-.406.2-.296.184c.03-.004.062.015.091.022.045-.1.098-.157.197-.081.021.017.06.014.088.006C.139.11.213.044.257.068.384.136.498.044.619.052c.184.015.369-.017.554-.021.06 0 .122.024.182.037.033.005.08-.043.114-.034.106.03.207.084.313.127l-.284.085c.003.008.016.037.02.042h-.38L1.13.335c.03.035.06.07.078.088.052-.022.097-.062.137-.055.096.016.188.05.28.084.05.019.097.048.145.074l.026-.01a.504.504 0 0 0-.003-.05l.208.014.008-.016.076.021L2.32.5c.126-.094.28-.003.412-.048.018-.006.055-.003.058.004.03.083.08.083.132.071.027-.043.108-.03.101-.087L2.941.393l.003-.03C3.318.347 3.693.329 4.067.31v.017l-.13.02.224.06c.029.007.06.023.085.016.09-.025.178-.058.266-.087.05-.016.099-.03.15-.042.098-.022.233-.067.273.053.043.135.082.06.117.035.215-.15.436-.135.663-.052.032.012.071-.004.107-.012.119-.023.237-.063.356-.07.22-.012.442.14.663.138.005 0 .009-.008.013-.013a1.408 1.408 0 0 0-.05-.044l.013-.045.25.072c.059-.03.117-.078.178-.085.118-.013.238-.006.358-.003.091.001.198-.026.27.023.07.046.102.126.154-.01.004-.012.056.004.088.007.024.003.06.019.07.006.089-.132.155-.006.209.019.045-.03.078-.076.108-.071.156.017.31.053.466.07.17.02.342.027.519.04L9.48.338a.423.423 0 0 1 .282.027c.016.006.033.007.052.006L9.824.37c.05-.006.105-.03.157-.042h.004c.013-.024.026-.054.04-.073l.004-.004c.006-.006.01-.01.016-.012.19-.026.378-.058.566.045.088.048.194.05.297.074.05.187.224-.16.285-.046.072.136.14.06.215.037.085.076.231.126.072-.103.124.179.294.058.43.064.104.004.186-.003.276.073.05.043.121.053.166.072.01.05.01.11.033.143.022.03.068.032.103.048-.094-.05-.099-.06-.058-.233.08.06.155.107.224.166.08.07.137.05.163-.07.006-.027.009-.053.013-.079h.02l.037.132c.017-.064.021-.12.037-.126.057-.02.119-.02.177-.03.096-.018.193-.02.29-.032.203-.026.41-.112.607.037.013.01.03.02.045.018.075-.016.15-.042.227-.052.08-.009.16-.002.263-.002.103-.17.113.128.193.118.075-.145.255-.164.438-.04-.037-.127.007-.152.096-.146.14.009.282.003.434.003-.027-.03-.046-.048-.064-.066.113.034.242-.11.336.055.01.018.085.015.098-.008.091-.153.208-.014.308-.049.043-.014.097.023.145.022.105-.003.216-.061.296.091.016.03.072.046.107.04.1-.017.198-.05.288-.075l.042.122.238-.165.168.178a1.92 1.92 0 0 0 .034-.099l-.039-.023c.018-.008.035-.021.052-.023.035-.003.073-.007.105.006.1.042.154-.015.167-.08l.356-.062V.139l-.075-.036c.322-.056.611.04.9.19.016-.028.028-.073.05-.081.051-.022.15-.055.157-.037.05.12.121.102.185.051.159-.13.333-.035.497-.066.012-.002.026.021.038.036.066.082.114.05.153-.038.017.017.07-.009.153-.027.064-.013.133.018.2.029.006 0 .011-.015.019-.02.125-.064.26-.008.348.134.017.027.064.029.097.042l-.11-.164.02-.04c.067.017.14.017.2.055.104.066.198.156.3.23.022.016.068.014.083-.004.085-.113.176-.045.269-.026.052.01.105.013.157.008.075-.007.15-.033.227-.034.16-.006.323-.002.5-.002a6.15 6.15 0 0 1-.131-.097c.032-.026.05-.052.07-.055.073-.009.147-.007.219-.014.08-.01.166-.005.239-.04.117-.057.22.016.328.03.094.011.183.062.276.094.004.001.013-.024.02-.025.055-.007.129-.042.163-.012.096.084.165.04.25-.014.03-.019.081.006.12.019.022.007.038.034.057.052l.019-.03-.044-.043a.315.315 0 0 0 .012-.034l.154.053c.04.013.106.05.118.034.13-.189.305-.041.45-.102.018-.007.056-.004.058.006.052.177.162.05.24.064.17.03.343.024.532.033-.043-.028-.076-.05-.12-.075.018-.013.028-.026.037-.026.166-.002.336-.026.498.008.01.002.02.003.032.003.081 0 .192-.04.215.13.03-.015.066-.023.084-.049.078-.104.17-.098.245-.017.053.058.095.054.143.033l.049-.021a.613.613 0 0 1 .172-.05c.02-.003.039-.003.058-.003.036 0 .072.012.107.024.036.013.07.026.107.034.003 0 .007 0 .011-.003.012-.007.025-.026.03-.031l.1.124c.009-.011.018-.025.028-.036l-.018-.025-.067-.101.39.032.123.01c0 .013-.003.026-.005.038l-.005.059-.002.019.042-.018c.04-.018.078-.037.117-.04.198-.015.396-.02.594-.032.06-.003.119-.012.178-.017l.088-.01a.898.898 0 0 1 .088-.002c.146 0 .294.013.44.03.043.006.088.016.131.028.044.012.087.025.13.035 0 .007-.002.014-.004.023l-.172.01c.064.017.122.042.178.055a.38.38 0 0 0 .056.009.492.492 0 0 0 .226-.045c.024-.01.027-.093.042-.146.037 0 .08-.003.123 0 .125.008.251.015.375.03.02.001.04.035.055.048.006.004.01.007.015.004a.51.51 0 0 1 .53.06c.008.005.016.005.028.004.011-.002.023-.006.037-.006l-.041-.087-.022-.046.253.033c.078.01.153.02.227.033.023.003.046.018.068.028.023.012.045.02.065.016.182-.044.361-.083.546-.007l-.013.07c-.006.028-.01.058-.019.1.125-.139.248-.208.373-.195.076.009.15.046.227.116.04-.06.1-.09.162-.093a.242.242 0 0 1 .174.06.243.243 0 0 1 .07.111h.204l-.118-.15a.642.642 0 0 1 .19-.06.794.794 0 0 1 .202-.007c.065.006.127.02.177.042.051.022.093.052.116.088.006-.011.01-.017.017-.022a.073.073 0 0 1 .028-.01c.025-.007.066-.017.146-.053a.388.388 0 0 1 .15-.034c.032 0 .065.002.097.005.048.004.096.011.145.013.267.004.535.019.805.03V.39l-.111-.02a.47.47 0 0 0 .026.04c.036.048.078.071.117.068a.1.1 0 0 0 .076-.052c.065-.103.14-.122.221-.119.012 0 .024 0 .035.003.078.007.185.006.229.067.036.05.066.07.092.07.043 0 .078-.051.116-.09.085.059.167.114.25.169L36.66.49l-.081-.11h.232l.006.026.027.112.038-.096c.018.019.036.04.058.062.003-.036 0-.075.004-.097a.032.032 0 0 1 .008-.016.313.313 0 0 1 .143-.062.378.378 0 0 1 .153.017c.014.005.029.01.045.012a.27.27 0 0 0 .136-.003.294.294 0 0 1 .034-.007l.038-.001c.075.001.155.036.18.082.048-.014.083-.027.12-.036.022-.006.047-.006.071-.006.01 0 .022 0 .034-.003l.033-.003h.03a.04.04 0 0 1 .022.012c.036.043.074.06.11.06a.186.186 0 0 0 .102-.041c.034-.025.061-.037.086-.037.008 0 .016 0 .023.005.029.01.052.042.07.091.041-.033.077-.06.112-.09a.133.133 0 0 1 .02.015c.023.017.05.039.06.03a.193.193 0 0 1 .04-.024.257.257 0 0 1 .121-.02c.055.002.109.014.162.007.062-.01.096.018.114.088 0 .004.016.001.034.003-.002-.008-.005-.013-.006-.02L39.01.353c.042.016.084.02.126.021.042 0 .083-.004.123-.004.08-.001.156.009.223.09.016-.07.026-.097.045-.091.007.002.017.01.029.023l.018.023c.013.016.03.026.046.037.018.01.037.02.055.034l.014-.081.005-.04.018.074c.034-.023.08-.075.1-.062a.136.136 0 0 0 .066.023h.033c.045-.003.09-.016.135-.014.011 0 .023.001.033.004a.08.08 0 0 0 .026.003c.017 0 .036-.003.053-.004.044-.003.084.01.102.12l.025-.138.02.003v.04l.445.083c.033.006.078.037.095.02a.441.441 0 0 1 .06-.046.532.532 0 0 1 .314-.07c.044 0 .087.002.13.004.048 0 .096.04.164.072.073-.043.111-.065.152-.065.01 0 .02.001.031.004.034.009.076.03.142.064.016.009.05-.036.065-.05h.226c.075 0 .15 0 .224.005.011 0 .023.004.034.007.034.01.065.026.11-.003.042-.026.117.035.18.051.008.002.015.003.024.003.026 0 .052-.006.078-.003.017 0 .032.006.046.019a.141.141 0 0 1 .034.067l.014.004c.022.003.064-.002.078-.016l-.065-.04.009-.03c.036.003.072.008.108.014a.087.087 0 0 1 .06-.02c.018 0 .037.006.056.014l.046.02h.015a.513.513 0 0 0 .094-.007.48.48 0 0 1 .076-.006c.074-.02.158-.065.223-.071l.033.001c.01.003.02.006.029.012.048.033.09.048.13.052.013-.001.026-.004.04-.004h.051a.407.407 0 0 0 .08-.033c.053-.03.112-.045.156-.058l.037-.012.032.05.02.035c.036 0 .071 0 .106.003.042-.055.091-.09.155-.09a.217.217 0 0 1 .088.02c.046.017.092.04.139.037.03-.001.06-.004.092-.009.091-.013.184-.034.275-.04.046-.003.095.036.167.066l.054-.044.104.136.013-.118c.027.02.064.04.095.066a.207.207 0 0 1 .168-.08.199.199 0 0 1 .152.091c.003.003.006.006.007.009A.206.206 0 0 0 45.843.5c.016-.013.04-.016.065-.013h.002s.007-.004.01-.004c.009 0 .016.006.023.01.015.003.028.006.04.007.018.003.035.022.053.036.005 0 .013.005.018.005a.1.1 0 0 0 .035-.007.163.163 0 0 0 .019-.051c0-.004.007-.009.014-.012.008-.003.016-.004.022-.003.022.006.043.01.065.012.043.003.087-.003.13-.009l.065-.008c.048-.006.097-.012.145-.012h.049c.016 0 .032.003.048.006a.318.318 0 0 1 .14.062l.007-.001c.01-.006.028-.025.05-.042-.004.036-.007.062-.008.088.04-.007.08-.035.121-.09a.057.057 0 0 1 .024-.017c.06-.028.182.022.245.029h.013c.167-.042.328-.058.487-.061.168-.003.331.01.495.026.013-.004.025-.009.039-.012a.328.328 0 0 1 .202.024c.009.004.015.01.022.014.012 0 .022.003.033.003 0 .004 0-.022.003-.046.022.005.056 0 .065.017.005.007.009.01.012.016a.491.491 0 0 1 .131-.025c.044 0 .087.005.128.015.037-.005.076-.01.114-.013.01 0 .023.01.03.006.019-.012.035-.024.05-.032.017-.009.028-.016.04-.02a.092.092 0 0 1 .03-.008c.009 0 .016.003.023.007.013.01.023.03.032.066v.004a2.276 2.276 0 0 0 .113-.013h.01c.03-.006.06-.01.088-.017a.322.322 0 0 1 .088-.012c.018 0 .035.006.05.013.073-.004.145-.009.218-.01l.075-.003h.037c.012 0 .022.001.034.003l.078-.003c.044 0 .09.003.136.004a.03.03 0 0 1 .014.006c.009.006.017.015.026.022l.016-.022c.003-.003.006-.006.009-.006.07.002.144-.016.208.003.006 0 .011-.003.017-.004h.026c.04.007.081.011.123.013.081.003.163-.004.244-.01.04-.003.081-.005.122-.006.023 0 .046-.003.068 0 .01.001.019.007.027.012.006-.003.013-.008.019-.008.234 0 .468.013.703.028.007 0 .014.003.021.007.02.01.04.029.064.048h.001s.009-.003.012-.006a.107.107 0 0 1 .046-.04l.044-.05.034.04h.012l.055.007c.008 0 .017 0 .027-.003.015-.003.033.02.056.046l.003.003a.756.756 0 0 1 .343-.068c.053 0 .098.007.126.02a.054.054 0 0 1 .029.023l.073.003.04-.008a1.075 1.075 0 0 1 .148-.03c.018 0 .034 0 .047.008l.069.042.035.017c.005.003.011.003.017.006a.174.174 0 0 0 .046-.035c.026-.026.045-.035.063-.03.023.004.04.03.057.058.002 0 .003 0 .005-.002.073-.037.16-.039.241-.047a.177.177 0 0 1 .055.004l.014-.007a.257.257 0 0 1 .063-.015h.026l.007-.016.006.019a.171.171 0 0 1 .086.05c.003.004.008.004.01.007.01-.002.016-.005.025-.008.05-.011.098-.017.146-.021.022-.012.042-.025.064-.024l.361.016.324.018a.362.362 0 0 1 .142-.03c.112.004.224.017.336.031.009 0 .016-.003.024-.003a1.507 1.507 0 0 1 .234-.003h.047c.038 0 .074.003.112.006.011 0 .023.009.034.016l.018.012c.011.007.023.014.034.013.012 0 .022-.008.034-.026a.135.135 0 0 0 .014-.038c0-.003.007-.003.016-.003a.36.36 0 0 1 .08.019c.001 0 .002-.003.004-.003a.044.044 0 0 1 .039.01.176.176 0 0 1 .046.071c.032-.06.07-.088.111-.1a.241.241 0 0 1 .073-.009h.011c.01 0 .02 0 .03.003.01 0 .022 0 .032.002.014 0 .028.009.041.013.013-.004.027-.012.04-.013.01 0 .022 0 .032-.002.01-.001.02-.004.03-.003h.012c.025 0 .05.002.072.01.042.01.08.041.112.1A.176.176 0 0 1 56.48.49c.013-.01.026-.013.039-.01.002 0 .003.001.004.003a.36.36 0 0 1 .08-.019c.009 0 .014 0 .016.003.004.016.01.027.014.038.01.018.022.026.033.026a.069.069 0 0 0 .035-.013.126.126 0 0 1 .017-.012.075.075 0 0 1 .035-.016c.036-.003.074-.004.111-.006h.048a1.466 1.466 0 0 1 .234.003c.01 0 .016.002.024.003.112-.014.224-.027.336-.032a.408.408 0 0 1 .142.03c.107-.005.215-.01.324-.017l.361-.016c.022 0 .042.012.064.024.049.004.097.01.146.021l.025.008c.002-.002.007-.003.01-.006a.176.176 0 0 1 .086-.051l.006-.019.007.016h.026a.162.162 0 0 1 .077.022.24.24 0 0 1 .055-.004c.08.008.168.008.241.047.002 0 .003 0 .005.002.017-.028.034-.052.057-.058.018-.003.038.004.063.03a.175.175 0 0 0 .046.035.081.081 0 0 0 .017-.006L59.3.5l.07-.042a.07.07 0 0 1 .046-.009c.017 0 .034.004.05.007.033.006.065.015.098.024l.04.008c.024 0 .047 0 .073-.003a.055.055 0 0 1 .03-.023.356.356 0 0 1 .125-.02.839.839 0 0 1 .342.068l.003-.003c.023-.026.042-.05.057-.046.009.001.017.003.027.003.018 0 .036-.005.055-.008h.012l.034-.039.044.05c.016.008.03.02.046.04.003.003.006.006.012.006h.001c.025-.019.045-.038.064-.048a.063.063 0 0 1 .021-.007c.235-.015.469-.028.703-.028.006 0 .013.005.019.008.008-.005.017-.01.027-.012.022-.003.045 0 .068 0 .04 0 .081.003.122.006.08.006.162.011.244.01.04 0 .08-.006.123-.013.007 0 .016-.002.026 0 .005 0 .011.003.017.004.064-.019.139 0 .208-.003.003 0 .006.002.009.006.006.006.01.015.016.022.008-.007.017-.016.026-.022A.03.03 0 0 1 62.17.43a2.13 2.13 0 0 1 .136-.004l.078.003c.012 0 .022-.003.034-.003h.037l.075.003c.072.001.145.006.217.01a.125.125 0 0 1 .05-.013c.028 0 .057.004.089.012.029.007.06.011.088.015h.01L63 .458l.096.01V.464c.01-.034.02-.055.034-.066a.034.034 0 0 1 .023-.007c.008 0 .019.003.03.007a.255.255 0 0 1 .04.02l.05.033c.007.004.02-.008.03-.006l.114.013a.433.433 0 0 1 .259.01c.005-.006.009-.009.012-.016.008-.016.042-.012.065-.017 0 .026.003.05.003.046.011 0 .021-.003.033-.003.007-.006.013-.011.022-.014a.327.327 0 0 1 .202-.024c.014.003.026.008.039.012.163-.016.328-.029.494-.026.16.003.321.02.488.06h.013c.063-.008.185-.056.245-.028a.07.07 0 0 1 .023.017c.042.055.083.083.122.09L65.43.477c.021.017.039.036.049.042.003.001.006.003.007.001a.318.318 0 0 1 .14-.062c.016-.003.032-.006.048-.006h.05c.048 0 .096.007.144.012l.065.008c.043.006.086.012.13.009a.257.257 0 0 0 .065-.012.04.04 0 0 1 .022.003c.007.003.014.008.014.012.006.026.012.04.019.05a.1.1 0 0 0 .034.008c.006 0 .014-.003.02-.005.017-.014.034-.033.051-.036l.04-.007s.015-.01.024-.012c.004 0 .007.003.01.005h.002c.026-.003.049 0 .065.013a.28.28 0 0 0 .046.027c.003-.003.006-.005.007-.008a.199.199 0 0 1 .152-.092c.06-.002.12.026.168.08.031-.026.067-.046.095-.065l.013.117.104-.136.053.045c.073-.03.12-.07.168-.067.093.006.184.028.275.04.03.005.06.008.092.01.047.002.093-.02.14-.038l.045-.015a.204.204 0 0 1 .04-.004c.064 0 .114.035.156.09.034-.002.07-.003.105-.003l.02-.035.032-.05.038.011c.043.013.1.03.156.058a.443.443 0 0 0 .08.033h.051c.013 0 .026.003.04.005a.307.307 0 0 0 .13-.052.071.071 0 0 1 .028-.012.09.09 0 0 1 .035-.001c.065.004.15.049.223.07.024 0 .05 0 .076.006.03.006.063.008.094.008h.015l.046-.02a.17.17 0 0 1 .056-.015c.02 0 .04.006.06.02.036-.004.072-.01.108-.013l.009.03-.065.04c.014.014.056.017.078.015.008 0 .013-.002.014-.004a.142.142 0 0 1 .033-.066.07.07 0 0 1 .047-.02c.024 0 .052.005.078.004.009 0 .017 0 .024-.003.061-.016.136-.077.18-.051.046.028.076.013.11.003.011-.003.021-.007.034-.007.075-.006.15-.006.224-.006l.226.001c.016.012.049.057.065.05.066-.034.107-.055.141-.064a.129.129 0 0 1 .032-.005c.04 0 .077.02.152.066.068-.032.116-.071.163-.073.044 0 .087-.003.13-.004a.532.532 0 0 1 .316.07c.02.014.039.03.059.047.017.016.064-.014.095-.02l.446-.084v-.04s.013 0 .019-.002c.005.035.013.068.025.138.02-.11.058-.124.102-.12.017 0 .036.004.053.004.009 0 .017 0 .026-.003a.14.14 0 0 1 .033-.005c.045-.001.09.012.135.015h.033a.153.153 0 0 0 .067-.023c.018-.012.065.04.1.062 0-.006.005-.025.017-.074l.005.04.014.08c.018-.013.037-.021.054-.033.018-.012.034-.022.047-.038l.019-.023a.073.073 0 0 1 .028-.023c.02-.006.03.022.045.091.067-.08.143-.092.223-.09.04 0 .08.005.123.005a.32.32 0 0 0 .125-.022l-.027.087a.11.11 0 0 0-.006.02c.018 0 .032 0 .033-.003.02-.07.052-.097.115-.088.053.007.108-.004.162-.007a.24.24 0 0 1 .121.02.193.193 0 0 1 .039.025c.012.008.038-.013.06-.03l.021-.015.111.09c.02-.051.042-.081.071-.092a.06.06 0 0 1 .023-.004c.025 0 .052.012.086.036a.18.18 0 0 0 .102.04c.036 0 .074-.015.11-.059a.04.04 0 0 1 .022-.011.106.106 0 0 1 .03 0l.033.003c.012 0 .023.003.034.003.024 0 .049 0 .072.005.036.01.07.022.12.037.024-.047.104-.081.18-.083a.243.243 0 0 1 .072.009c.041.013.089.011.135.003a.519.519 0 0 0 .045-.012.326.326 0 0 1 .153-.017c.05.007.097.027.143.062a.033.033 0 0 1 .008.016c.004.022.001.06.004.097.022-.025.04-.044.058-.062l.037.095c.012-.049.02-.084.028-.111L75.46.38h.232l-.08.11.021.034.25-.168c.038.038.073.089.116.089.026 0 .056-.019.092-.07.044-.06.15-.06.229-.066l.035-.003c.08-.003.156.016.22.119.02.031.048.049.077.052.04.003.081-.02.117-.068a.341.341 0 0 0 .026-.04c-.036.005-.072.012-.11.02V.334c.27-.01.537-.026.804-.03.048 0 .096-.008.145-.014a.712.712 0 0 1 .097-.004c.049 0 .098.01.15.033.08.036.121.047.146.054.013.003.02.006.027.01a.07.07 0 0 1 .018.022.263.263 0 0 1 .116-.089.593.593 0 0 1 .177-.042.795.795 0 0 1 .203.008.66.66 0 0 1 .19.059l-.12.15h.204a.24.24 0 0 1 .244-.17.21.21 0 0 1 .163.092.416.416 0 0 1 .227-.115c.124-.013.248.055.371.195a2.165 2.165 0 0 0-.019-.1c-.006-.026-.008-.048-.013-.07.184-.076.364-.037.547.006.02.005.042-.004.065-.016.023-.011.046-.024.068-.027.073-.012.149-.022.227-.033.078-.01.162-.02.253-.034l-.022.047-.042.087c.014 0 .026.004.038.005.011.002.02.003.027-.003a.51.51 0 0 1 .53-.06c.005.001.01 0 .015-.005.016-.013.036-.045.055-.047a6.56 6.56 0 0 1 .376-.03c.042-.004.085 0 .123 0 .013.051.017.134.042.145.07.032.15.048.225.045.019 0 .038-.004.056-.008.057-.013.115-.037.178-.055-.062-.005-.117-.008-.172-.01 0-.008-.003-.017-.004-.024.043-.01.087-.023.13-.035.043-.011.087-.021.132-.027.146-.017.292-.03.44-.03.028 0 .058 0 .087.002l.088.01c.06.006.119.014.178.017.198.011.396.015.594.031.04.003.077.022.118.04.012.007.027.013.041.018l-.001-.019-.006-.059c0-.011-.003-.025-.004-.038.04-.002.082-.007.123-.01l.39-.032-.068.102-.017.024.027.037.1-.125s.019.025.03.032c.005.003.007.004.012.003.036-.009.072-.023.107-.035a.316.316 0 0 1 .165-.02c.059.007.118.024.172.05.017.006.033.015.049.02.046.02.088.025.143-.033.074-.08.165-.085.244.018.02.026.057.033.084.05.023-.172.135-.133.215-.131.012 0 .024 0 .032-.003.162-.035.333-.01.499-.009.009 0 .017.013.036.026l-.12.076c.19-.01.363-.003.532-.034.078-.014.188.113.24-.063.003-.01.04-.013.058-.006.144.06.32-.086.45.101.013.017.078-.02.118-.033l.155-.054.011.035-.043.042.019.03c.019-.017.034-.045.056-.052.04-.014.09-.037.12-.019.084.055.155.099.25.015.035-.03.109.004.163.011.008 0 .016.027.02.025.093-.032.183-.082.277-.094.108-.013.21-.087.328-.029.072.036.158.03.239.04.072.006.145.005.218.014.02.002.039.029.07.055-.046.033-.08.059-.13.097.177 0 .337-.005.5.001.074.003.15.03.226.035a.525.525 0 0 0 .158-.009c.09-.019.182-.087.269.026.014.019.062.019.082.005.101-.074.195-.164.3-.23.06-.038.134-.038.2-.056l.02.04c-.033.052-.066.1-.11.164.034-.013.08-.014.097-.042.087-.141.223-.198.349-.133.007.005.013.02.019.02.066-.011.135-.043.2-.03.083.018.135.045.152.028.04.088.087.12.154.037.011-.014.026-.037.037-.036.165.032.339-.064.498.067.062.052.134.07.184-.051.008-.019.106.013.158.036.022.009.033.054.05.081.287-.147.578-.246.9-.19-.03.015-.054.025-.075.037v.035c.111.018.22.037.355.062.013.065.067.121.168.08.032-.014.07-.01.104-.006.017 0 .035.014.052.023-.013.009-.039.022-.039.023.013.04.028.08.035.098.06-.063.115-.121.167-.178l.239.165.042-.121c.09.024.188.056.288.075.034.006.092-.01.107-.04.078-.154.19-.095.296-.092.049 0 .102-.036.144-.021.102.034.219-.105.308.049.013.022.088.026.099.007.094-.165.222-.02.335-.055l-.064.067c.152 0 .292.007.434-.003.088-.006.133.019.097.146.18-.124.361-.106.438.04.08.01.09-.288.192-.118.103 0 .184-.007.263.001.077.009.15.036.227.052.015.003.032-.007.045-.017.197-.15.405-.064.607-.038.097.013.194.015.29.032.06.01.12.012.177.03.016.006.02.063.036.125.018-.06.026-.095.035-.13h.02l.013.078a.336.336 0 0 0 .02.058c.044.006.087.013.132.022l.012-.009c.069-.06.144-.109.224-.167a.597.597 0 0 1 .023.141L99.9.548c.006-.03.008-.063.016-.093.045-.019.114-.029.166-.072.09-.076.171-.07.276-.073.136-.006.305.115.429-.064.008-.01.032 0 .064 0-.026.035-.042.06-.082.116.115-.076.208.14.306-.048.061-.114.234.087.285-.098.103-.023.208-.026.296-.074.188-.103.378-.07.567-.045.006 0 .011.005.016.012l.003.004c.014.018.027.048.04.071h.005c.052.013.106.038.157.044a.02.02 0 0 1 .009.001c.019 0 .036 0 .052-.006.124-.046.185.091.298.12l-.042-.133c.183-.013.361-.02.539-.039.156-.017.309-.053.465-.07.031-.004.064.04.109.07.053-.024.12-.15.209-.019.009.013.047-.003.07-.005.03-.003.082-.02.088-.008.052.136.084.058.153.01.072-.049.178-.021.271-.023.12-.003.24-.01.358.003.061.007.119.055.178.086l.25-.073.013.045-.051.045c.005.004.009.013.013.013.222 0 .443-.006.664.006.118.006.237.046.355.07.037.008.076.024.107.012.227-.082.449-.098.664.052.035.025.074.1.117-.034.039-.12.175-.077.273-.054.051.012.1.026.149.042.09.03.177.062.266.087.026.007.058-.007.085-.016.071-.017.141-.038.225-.06-.051-.007-.092-.012-.131-.02V.313c.375.017.749.036 1.124.055 0 .01.001.019.003.029l-.081.048c-.011.077.141.024.101.16h.02l.082-.073.026.053c.107-.121.209-.127.253-.021l.157-.057a.32.32 0 0 1-.1.11c.072-.017.143-.042.211.013.068-.055.139-.032.211-.013a.316.316 0 0 1-.1-.11l.156.057c.045-.106.146-.102.253.021l.026-.053.083.074h.02c-.041-.135.111-.084.101-.161l-.081-.048.003-.029c.374-.017.749-.036 1.123-.055V.33l-.13.02c.083.022.153.043.224.06.029.007.06.023.086.016.089-.025.177-.058.266-.087.049-.016.098-.03.148-.042.099-.022.235-.067.274.054.043.134.082.059.117.034.215-.15.436-.134.663-.052.032.012.071-.004.107-.011.119-.023.237-.064.356-.071.221-.012.442-.005.663-.006.005 0 .009-.009.013-.013a1.397 1.397 0 0 0-.05-.045l.013-.045c.088.026.176.05.25.073.059-.03.117-.079.178-.086.118-.013.238-.006.358-.003.091.002.198-.026.271.023.069.047.101.126.153-.01.004-.011.056.005.088.008.025.002.061.018.069.005.09-.131.156-.005.21.02.045-.031.078-.076.108-.072.157.018.31.054.466.071.178.02.355.026.539.04a7.465 7.465 0 0 1-.042.132c.113-.027.175-.166.298-.12a.123.123 0 0 0 .052.006l.009-.001c.05-.006.105-.03.157-.042h.005c.013-.024.026-.054.04-.073l.003-.004c.006-.006.01-.01.016-.012.191-.026.379-.058.566.045.089.048.194.05.297.074.05.187.224-.014.285.098.099.189.192-.028.306.048-.04-.056-.058-.08-.082-.116.033 0 .056-.008.063 0 .125.179.294.058.43.064.104.004.186-.003.276.073.05.043.121.053.166.072.006.03.009.064.016.093l.039.004c0-.03.007-.072.023-.14.08.059.155.107.224.166l.012.009c.044-.009.088-.016.133-.022a.244.244 0 0 0 .018-.058c.006-.026.009-.052.013-.078h.021c.008.035.019.07.034.13.018-.062.022-.119.037-.124.056-.02.118-.02.176-.03.097-.018.194-.021.29-.033.203-.026.411-.111.608.038.013.01.03.02.044.017.076-.016.151-.042.227-.052.08-.008.159-.001.264-.001.102-.171.112.127.192.117.075-.145.256-.163.438-.039-.036-.127.007-.152.097-.146.14.008.282.003.433.003l-.063-.067c.112.035.241-.11.335.055.01.019.085.016.098-.007.091-.154.209-.015.308-.05.044-.014.097.024.145.022.105-.003.217-.06.296.092.016.03.072.046.107.04.1-.017.198-.05.288-.075l.042.121.238-.165c.052.055.107.115.168.178.007-.018.022-.057.035-.098 0 0-.025-.016-.039-.023.017-.009.034-.022.052-.023.034-.003.072-.008.104.005.101.042.154-.014.167-.08.135-.022.246-.041.356-.061V.138l-.075-.036c.322-.057.611.04.901.19.015-.028.027-.073.049-.082.052-.022.15-.055.157-.036.051.12.122.101.185.05.159-.13.333-.034.498-.066.011-.001.026.022.037.036.067.083.114.051.153-.037.018.017.07-.009.154-.028.063-.013.133.019.199.03.006 0 .012-.015.019-.02.126-.065.26-.008.348.133.018.028.064.03.097.042l-.11-.163.021-.04c.066.017.14.017.199.054.104.067.198.157.301.23.021.016.068.015.082-.004.085-.113.176-.045.269-.026.052.01.105.013.158.009.075-.007.15-.033.226-.035.161-.006.323-.001.501-.001a4.983 4.983 0 0 1-.132-.097c.032-.026.051-.053.071-.055.072-.01.146-.008.218-.015.08-.009.166-.004.239-.039.117-.058.219.016.328.029.094.012.183.062.276.094.004.002.013-.023.02-.025.055-.007.129-.042.164-.011.095.084.164.04.25-.015.03-.018.081.006.12.02.021.006.037.034.056.051l.019-.03-.044-.042a.239.239 0 0 0 .012-.035l.155.054c.04.013.105.05.117.033.13-.188.305-.04.451-.101.017-.007.055-.005.058.006.052.176.162.049.24.063.169.03.342.025.532.034-.044-.028-.077-.05-.12-.076.017-.013.027-.026.036-.026.166-.001.337-.026.498.009.011.001.021.003.032.003.081 0 .193-.04.216.13.029-.016.065-.023.084-.05.078-.103.17-.098.244-.017.053.058.095.054.143.034.016-.006.032-.015.049-.022a.612.612 0 0 1 .172-.05c.02-.002.039-.002.058-.002.036 0 .072.012.107.023.036.013.071.026.107.035.003 0 .007 0 .011-.003.012-.007.025-.026.031-.032l.1.125c.008-.012.017-.025.027-.037l-.017-.024a3.658 3.658 0 0 1-.068-.102l.39.032c.041.003.082.008.123.01 0 .013-.003.027-.004.038a1.202 1.202 0 0 0-.006.06l-.002.018a.9.9 0 0 0 .042-.017c.041-.019.078-.038.117-.04.198-.015.396-.02.595-.032.059-.003.118-.012.177-.018l.088-.009a.914.914 0 0 1 .089-.002c.146 0 .293.013.439.03.044.006.088.016.132.027.043.012.086.025.13.035 0 .007-.003.015-.005.023-.054.003-.109.008-.172.01.064.018.122.043.178.056a.388.388 0 0 0 .057.008.49.49 0 0 0 .225-.045c.025-.01.028-.092.042-.146.038 0 .08-.003.123 0 .126.009.251.016.376.03.019.002.039.035.055.048.005.005.01.008.014.005a.511.511 0 0 1 .531.06c.007.005.016.005.027.003.012-.001.023-.005.038-.005l-.042-.087-.022-.047.253.034c.078.01.153.02.227.033.023.003.046.017.068.027.023.012.045.02.065.016.182-.043.361-.082.547-.007l-.013.071-.019.1c.124-.139.247-.208.371-.195a.41.41 0 0 1 .227.115c.041-.059.1-.09.162-.092a.245.245 0 0 1 .174.06.248.248 0 0 1 .07.11h.204l-.118-.15a.646.646 0 0 1 .189-.06.792.792 0 0 1 .202-.007c.066.006.128.02.178.042a.253.253 0 0 1 .116.089c.006-.012.01-.018.017-.022a.078.078 0 0 1 .028-.01c.024-.007.066-.018.146-.054a.386.386 0 0 1 .15-.033c.032 0 .065.001.097.004.048.005.095.012.144.013.268.005.535.02.806.03v.054l-.112-.02.026.04c.037.048.078.072.117.069a.1.1 0 0 0 .077-.052c.065-.103.139-.122.221-.12.012 0 .023 0 .035.004.078.007.185.005.228.066.037.051.067.07.093.07.043 0 .078-.05.116-.089l.25.168.021-.034c-.026-.035-.05-.07-.081-.11h.233l.006.026c.007.027.014.062.027.111l.038-.095.058.062c.003-.036 0-.075.004-.097.002-.007.004-.013.007-.016a.316.316 0 0 1 .143-.062.378.378 0 0 1 .154.017.417.417 0 0 0 .044.012.27.27 0 0 0 .136-.003c.012-.003.023-.006.035-.007.012-.002.025-.002.038-.002.075.002.154.036.179.083.049-.015.084-.028.12-.037.023-.005.048-.005.072-.005.01 0 .022 0 .033-.003.012 0 .024-.003.034-.003h.03a.04.04 0 0 1 .022.011c.036.044.073.06.11.06a.183.183 0 0 0 .102-.04c.033-.025.061-.037.085-.037.009 0 .016 0 .024.004.029.01.052.042.07.092l.112-.09.02.014c.023.018.049.04.061.03a.193.193 0 0 1 .039-.024.255.255 0 0 1 .121-.02c.055.003.109.014.162.007.062-.009.095.019.114.088 0 .005.016.002.034.003-.002-.007-.005-.013-.006-.02a2.818 2.818 0 0 1-.028-.087c.042.016.084.02.126.022.042 0 .082-.004.123-.004.079-.002.156.008.223.09.015-.07.026-.098.044-.092.008.003.018.01.029.023l.019.023c.013.016.029.026.046.038.018.012.036.02.055.033l.013-.08.006-.04.017.074c.035-.023.081-.075.1-.062a.138.138 0 0 0 .067.023h.033c.045-.003.09-.016.134-.015.012 0 .023.002.034.005.008.003.017.003.026.003.017 0 .036-.003.053-.005.043-.003.084.01.101.12l.026-.137c.006 0 .013.001.019.003v.039l.445.084c.034.006.078.036.096.02a.466.466 0 0 1 .059-.046.533.533 0 0 1 .315-.071c.044 0 .087.003.13.004.048 0 .096.04.164.073.073-.044.111-.066.151-.066.011 0 .021.002.032.005.033.009.075.03.142.064.016.008.049-.037.065-.05l.225-.001c.076 0 .151 0 .224.006.012 0 .024.004.035.007.033.01.065.026.11-.003.042-.026.117.035.179.05.009.002.016.004.025.004.026 0 .052-.006.078-.003.017 0 .032.005.046.019a.136.136 0 0 1 .033.066c0 .002.006.003.015.004.022.003.064-.001.078-.015l-.065-.04.009-.03c.036.003.072.007.108.013a.087.087 0 0 1 .059-.02c.019 0 .038.007.057.014l.046.02h.014a.507.507 0 0 0 .094-.007.484.484 0 0 1 .077-.005c.074-.02.158-.066.223-.071l.034.001c.01.003.02.006.029.012.048.033.09.047.13.052.013-.002.026-.005.039-.005h.052a.424.424 0 0 0 .08-.033c.053-.029.113-.045.156-.058l.038-.011c.011.018.021.036.031.05l.021.035c.036 0 .07 0 .105.003.042-.055.091-.09.155-.09a.264.264 0 0 1 .087.019c.046.017.092.04.138.038.031-.002.061-.005.093-.01.091-.012.183-.034.275-.04.046-.003.095.037.167.067l.054-.045.104.136.013-.117c.027.019.063.039.095.065a.207.207 0 0 1 .168-.08.2.2 0 0 1 .152.092l.007.008a.212.212 0 0 0 .046-.027c.016-.013.041-.016.065-.013h.002s.007-.005.01-.005c.008 0 .016.006.023.01l.04.008c.018.003.035.022.052.036.006 0 .013.004.019.004a.1.1 0 0 0 .035-.007.174.174 0 0 0 .019-.05c0-.005.007-.01.014-.012.007-.003.016-.004.022-.003a.34.34 0 0 0 .065.012.654.654 0 0 0 .13-.01l.065-.008c.048-.006.097-.011.145-.011h.049a.32.32 0 0 1 .188.068c.001 0 .004 0 .007-.002.01-.006.027-.024.049-.042-.003.036-.006.062-.007.089.039-.008.079-.035.121-.09a.06.06 0 0 1 .023-.018c.061-.027.183.022.246.03h.013c.166-.043.328-.059.487-.061.168-.003.331.01.495.026.013-.005.024-.01.039-.012a.327.327 0 0 1 .202.023l.022.015c.011 0 .021.003.033.003 0 .004 0-.022.003-.047.022.006.056 0 .065.018.004.007.009.01.012.016a.483.483 0 0 1 .131-.025c.043 0 .087.004.127.014.038-.004.077-.01.115-.013.01 0 .023.01.03.006l.05-.032c.016-.008.028-.016.04-.02a.085.085 0 0 1 .03-.007c.009 0 .016.003.023.007.013.01.023.03.032.065v.005a2.247 2.247 0 0 0 .113-.014h.01c.03-.005.059-.01.088-.017a.32.32 0 0 1 .088-.011c.017 0 .035.005.051.013.072-.005.144-.01.216-.01l.076-.003h.037l.033.002.079-.002c.044 0 .091.002.135.004.005 0 .011.003.015.006.009.005.017.014.026.021.006-.007.011-.017.016-.021.003-.003.006-.006.008-.006.07.001.145-.016.209.003.005 0 .011-.003.017-.005h.026c.04.008.081.012.123.013.081.003.163-.004.244-.01.041-.003.081-.004.122-.005.023 0 .046-.003.068 0 .01.001.018.007.027.011.006-.003.013-.007.019-.007.234 0 .468.013.702.027.008 0 .015.003.022.008.019.01.039.029.064.047h.001s.009-.002.012-.005a.104.104 0 0 1 .046-.04l.043-.05.035.039h.012a.69.69 0 0 0 .054.007c.009 0 .018 0 .028-.003.014-.003.033.02.056.047l.003.003a.76.76 0 0 1 .259-.066c.029-.003.058-.004.084-.003a.32.32 0 0 1 .126.02.06.06 0 0 1 .029.024l.073.003.039-.009a1.053 1.053 0 0 1 .149-.03c.018 0 .033 0 .046.008.024.015.047.03.07.042l.035.018c.005.003.011.003.017.006a.176.176 0 0 0 .046-.035c.026-.026.045-.035.062-.03.023.004.041.03.058.057l.004-.001c.074-.038.161-.04.242-.048a.177.177 0 0 1 .055.004l.014-.007a.261.261 0 0 1 .062-.014h.026l.008-.016.005.019a.171.171 0 0 1 .087.05c.003.003.007.003.01.006.009-.001.016-.004.025-.007.049-.012.098-.018.146-.022.022-.011.042-.025.063-.023.12.004.242.009.362.016l.324.017a.357.357 0 0 1 .141-.03c.113.004.224.017.337.032.009 0 .016-.003.023-.003.038-.003.077-.006.115-.006.041 0 .08 0 .119.003h.048c.038 0 .074.003.111.006.012 0 .024.008.035.016a.126.126 0 0 0 .018.011c.011.007.023.015.034.013.012-.001.022-.007.033-.026a.12.12 0 0 0 .015-.037c0-.003.007-.003.016-.003.019.001.05.008.079.018l.005-.002a.044.044 0 0 1 .039.01.175.175 0 0 1 .046.07c.032-.059.069-.088.111-.1a.244.244 0 0 1 .073-.008h.011c.01 0 .02 0 .03.003l.032.001c.013 0 .028.01.041.013.013-.004.027-.011.04-.013l.032-.001c.01-.002.02-.004.03-.003h.012c.025 0 .049.001.072.009.042.011.08.042.112.1A.166.166 0 0 1 164.2.49a.045.045 0 0 1 .039-.01l.004.002a.362.362 0 0 1 .08-.018c.008 0 .014 0 .016.003.004.015.01.027.014.037.01.019.022.026.033.026a.07.07 0 0 0 .035-.013.222.222 0 0 1 .017-.011.076.076 0 0 1 .035-.016c.036-.003.074-.005.111-.006h.048a1.451 1.451 0 0 1 .234.003c.009 0 .016.001.023.003.113-.015.224-.028.337-.032a.407.407 0 0 1 .142.03l.324-.017c.12-.006.241-.012.361-.016.022 0 .042.012.064.023.049.004.097.01.146.022.008.001.016.004.024.007.003-.001.007-.003.01-.006a.18.18 0 0 1 .087-.05l.006-.02.007.017c.009 0 .017-.002.026 0a.161.161 0 0 1 .077.021c.019-.002.037-.005.055-.004.081.009.167.009.241.048l.004.001c.018-.027.035-.052.058-.058.018-.003.038.005.062.03a.178.178 0 0 0 .047.036l.017-.006.035-.018.069-.042a.07.07 0 0 1 .046-.008c.018 0 .035.004.051.007.033.006.065.014.098.023l.039.009c.025 0 .048 0 .074-.003.004-.009.014-.017.029-.023a.357.357 0 0 1 .126-.02c.026 0 .055 0 .084.002a.76.76 0 0 1 .258.066l.003-.003c.023-.026.042-.05.057-.047a.149.149 0 0 0 .027.003c.017 0 .036-.004.055-.007h.012l.034-.04.044.05c.016.009.03.02.046.04.003.004.006.006.011.006h.002c.024-.018.045-.037.063-.047.008-.005.015-.006.022-.008.234-.014.469-.027.703-.027.006 0 .013.004.019.007.008-.004.017-.01.027-.011.022-.003.045 0 .068 0 .04 0 .081.002.121.005.081.006.162.012.245.01a.73.73 0 0 0 .123-.013h.026c.005 0 .011.003.017.005.064-.02.139 0 .208-.003.003 0 .006.001.009.006.006.005.01.014.016.021.008-.007.017-.016.026-.021a.029.029 0 0 1 .014-.006 2.11 2.11 0 0 1 .214-.002l.033-.002h.038l.075.002c.072.002.145.006.217.01a.124.124 0 0 1 .05-.012c.028 0 .057.004.089.011.029.007.059.012.088.016h.01l.014.004c.032.005.066.008.097.01V.463c.009-.033.019-.055.034-.065a.033.033 0 0 1 .023-.007c.008 0 .018.003.03.007a.766.766 0 0 1 .09.052c.007.004.02-.007.03-.006l.114.013a.429.429 0 0 1 .259.01c.004-.005.009-.008.012-.015.008-.016.041-.012.065-.018 0 .026.002.05.002.047.012 0 .022-.003.034-.003.007-.006.013-.012.021-.015a.328.328 0 0 1 .203-.023c.014.003.026.007.039.012.163-.016.328-.03.494-.026.159.002.321.02.487.06h.013c.064-.008.185-.056.246-.029.009.005.017.01.023.018.042.055.083.082.122.09l-.008-.089c.022.018.04.036.05.042.003.002.005.003.007.002a.317.317 0 0 1 .14-.063c.016-.003.032-.005.048-.005s.032-.002.049 0c.049 0 .097.007.145.011l.065.009c.043.006.086.011.13.009a.264.264 0 0 0 .065-.012.038.038 0 0 1 .021.003c.008.003.015.007.015.011.006.027.011.041.019.051a.096.096 0 0 0 .034.007c.006 0 .013-.003.019-.004.017-.014.035-.033.052-.036l.041-.007s.014-.01.023-.012c.004 0 .007.003.01.004h.001c.026-.003.049 0 .065.013.013.01.029.02.047.028l.007-.009a.197.197 0 0 1 .152-.091c.06-.003.12.026.167.08.032-.026.068-.047.096-.066l.013.118.104-.136.053.045c.073-.03.12-.07.168-.067.093.006.184.027.275.04.03.005.06.008.091.01.046.002.092-.021.139-.039l.046-.014a.2.2 0 0 1 .042-.004c.063 0 .112.034.154.09a2.59 2.59 0 0 1 .106-.003l.02-.035.032-.05.038.01c.043.014.101.03.156.059a.445.445 0 0 0 .079.033h.052c.013 0 .026.003.039.004a.3.3 0 0 0 .13-.052.075.075 0 0 1 .029-.011.088.088 0 0 1 .034-.002c.065.004.148.05.222.071a.35.35 0 0 1 .077.006.5.5 0 0 0 .094.007h.014l.046-.02a.171.171 0 0 1 .057-.015c.02 0 .04.006.059.02.036-.004.072-.01.108-.012l.009.03a1.24 1.24 0 0 1-.065.04c.015.014.056.016.078.015.009 0 .013-.003.015-.004a.136.136 0 0 1 .033-.067.07.07 0 0 1 .046-.019c.025-.001.052.005.078.003.009 0 .018 0 .025-.003.06-.016.136-.077.179-.05.046.027.077.013.11.002.011-.002.022-.007.035-.007.075-.006.148-.006.224-.006l.225.002c.016.011.049.056.065.05.067-.034.107-.056.142-.065a.127.127 0 0 1 .032-.004c.04 0 .076.02.152.065.067-.032.115-.07.163-.072.043 0 .087-.003.13-.005a.533.533 0 0 1 .315.071.55.55 0 0 1 .059.047c.018.016.064-.015.096-.02l.445-.085V.372l.019-.002.026.137c.019-.11.058-.123.101-.12.017 0 .036.004.054.004.008 0 .017 0 .026-.003a.135.135 0 0 1 .033-.004c.045-.001.089.012.134.014h.033a.155.155 0 0 0 .067-.023c.019-.011.065.04.1.063 0-.006.005-.025.017-.074l.006.039.013.08c.019-.012.037-.02.055-.032a.17.17 0 0 0 .046-.038l.019-.023a.068.068 0 0 1 .029-.023c.019-.006.03.021.045.09.066-.08.143-.092.222-.089.041 0 .081.004.123.004a.321.321 0 0 0 .126-.021l-.028.087a.075.075 0 0 0-.005.02c.017 0 .031 0 .033-.003.019-.07.052-.097.114-.088.053.007.108-.005.162-.008.04-.001.081 0 .121.02a.193.193 0 0 1 .039.025c.012.009.038-.013.061-.03l.02-.015c.035.03.071.058.112.09.018-.05.042-.08.07-.091a.066.066 0 0 1 .024-.004c.024 0 .052.011.085.036.032.023.066.04.103.04.036 0 .073-.016.109-.059a.04.04 0 0 1 .022-.012.104.104 0 0 1 .03 0c.012 0 .024.003.034.003l.033.003c.025 0 .049 0 .072.006.036.009.071.022.12.036.025-.046.104-.08.179-.082l.038.001a.234.234 0 0 1 .035.007.287.287 0 0 0 .136.003.493.493 0 0 0 .044-.011.3.3 0 0 1 .079-.018c.026-.001.05-.003.075 0a.311.311 0 0 1 .143.063.028.028 0 0 1 .007.015c.004.022.001.061.004.097l.058-.062.038.096c.011-.05.02-.084.027-.112a.123.123 0 0 0 .006-.026h.233c-.031.04-.055.075-.081.11l.021.035c.083-.055.165-.112.251-.168.037.038.072.088.115.088.026 0 .057-.018.093-.07.043-.059.149-.059.228-.066.012 0 .023-.001.035-.003.081-.003.156.016.221.12.02.03.048.048.077.051.039.003.081-.02.117-.068a.513.513 0 0 0 .026-.04c-.036.005-.073.013-.112.02V.333c.271-.01.538-.026.806-.03.047 0 .095-.007.144-.013a.718.718 0 0 1 .097-.004c.049 0 .098.01.15.033.08.036.122.046.146.053a.086.086 0 0 1 .028.01.07.07 0 0 1 .017.022.264.264 0 0 1 .116-.088.59.59 0 0 1 .178-.042.792.792 0 0 1 .202.007c.068.012.133.03.189.06l-.118.15h.204a.238.238 0 0 1 .244-.17.21.21 0 0 1 .162.092.417.417 0 0 1 .227-.116c.124-.013.249.055.371.196l-.017-.1-.013-.071c.184-.076.364-.036.546.007.021.004.042-.004.066-.016.023-.012.046-.025.067-.027l.227-.034c.078-.01.162-.02.253-.033l-.021.046-.042.087c.014 0 .026.004.037.006.012.001.021.003.028-.003a.51.51 0 0 1 .53-.06c.005 0 .009 0 .015-.005.016-.013.036-.045.055-.048.126-.014.25-.023.376-.03.042-.003.085 0 .123 0 .013.052.017.134.041.146a.514.514 0 0 0 .226.045.242.242 0 0 0 .056-.009c.057-.013.115-.036.178-.055l-.172-.01c0-.007-.003-.016-.004-.023.043-.01.086-.023.13-.035.043-.012.087-.022.131-.027.146-.018.292-.03.44-.03.029 0 .059 0 .088.002l.088.009c.059.007.119.014.178.017.198.012.396.016.594.032.039.003.077.022.117.04l.042.018-.001-.019-.006-.06c0-.01-.003-.024-.004-.037l.122-.01.391-.032a4.273 4.273 0 0 0-.068.101l-.017.025.027.036.1-.124a.2.2 0 0 0 .03.032c.004.002.007.004.012.002.036-.008.072-.023.107-.034a.31.31 0 0 1 .164-.02c.06.007.119.024.172.049.018.007.034.016.05.021.046.02.088.025.143-.033.073-.081.165-.085.244.017.02.026.056.034.084.05.023-.171.134-.132.215-.13.012 0 .023 0 .032-.004.162-.034.333-.01.499-.008.008 0 .017.013.036.026l-.12.075c.189-.01.363-.003.532-.033.078-.015.188.113.24-.064.003-.01.04-.013.058-.006.144.061.321-.085.451.102.011.017.076-.02.117-.034l.155-.053a.465.465 0 0 1 .011.035l-.043.042.018.03c.019-.017.035-.045.057-.052.039-.015.089-.038.12-.019.084.055.155.098.25.014.035-.03.108.005.163.012.008 0 .016.026.021.025.092-.032.182-.083.276-.094.108-.013.211-.087.328-.03.072.037.157.031.238.04.073.007.146.005.219.014.02.003.039.03.07.055l-.131.097c.178 0 .338-.004.5.002.075.003.15.029.227.034a.528.528 0 0 0 .158-.008c.091-.02.182-.087.268.026.015.019.063.019.083.004.101-.074.195-.164.301-.23.059-.038.133-.038.199-.055l.02.04c-.033.051-.066.1-.11.164.034-.013.08-.014.097-.042.087-.142.223-.198.349-.133.007.004.013.02.018.019.067-.01.136-.042.2-.03.084.018.136.046.153.028.039.089.087.12.153.038.012-.015.026-.038.038-.036.165.031.338-.064.497.066.062.052.135.07.185-.05.008-.02.106.013.158.036.022.008.033.053.049.08.288-.147.578-.245.901-.189l-.076.036v.035l.356.062c.013.066.067.122.168.08.032-.013.069-.009.104-.006.017 0 .035.015.052.023-.013.01-.039.022-.039.024.013.04.027.08.035.098l.167-.178c.084.058.156.109.239.165l.042-.122c.089.025.188.057.287.076.035.005.093-.01.107-.04.078-.154.191-.095.297-.092.049 0 .102-.036.144-.022.101.035.219-.104.308.05.013.021.088.025.098.007.094-.165.223-.02.336-.055l-.064.066c.152 0 .292.007.434-.003.088-.005.133.02.097.147.18-.125.361-.106.438.039.079.011.089-.287.192-.118.103 0 .184-.007.263.002.077.009.15.036.227.052.015.003.032-.007.045-.017.197-.15.405-.064.607-.038.097.013.194.014.291.032.059.01.12.011.176.03.016.006.02.064.038.126l.036-.132h.02c.004.026.007.054.013.079.026.12.084.14.163.07.07-.059.145-.108.224-.166.041.174.037.183-.057.233.034-.014.082-.017.102-.048.023-.033.023-.09.033-.143.045-.019.115-.029.167-.072.089-.076.17-.07.276-.073.136-.006.305.115.429-.063-.159.23-.013.178.072.102.076.024.145.099.216-.037.061-.115.234.231.285.046.102-.023.208-.026.296-.074.188-.103.377-.07.567-.045.005 0 .011.005.016.012l.002.004c.015.018.028.048.041.071h.004c.052.013.107.038.158.044l.008.001c.019 0 .037 0 .053-.006a.42.42 0 0 1 .281-.027l-.005.013c.176-.012.348-.02.519-.04.156-.017.309-.053.465-.07.03-.003.064.04.108.07.054-.024.12-.15.21-.018.009.013.046-.003.069-.006.031-.003.083-.02.089-.007.052.136.084.058.153.01.072-.05.178-.022.27-.023.12-.003.24-.01.359.003.06.007.118.055.178.085l.25-.072.013.045-.051.045c.004.004.009.013.013.013.221 0 .442-.151.664-.14.118.006.237.047.355.071.036.008.075.024.107.012.227-.082.448-.098.664.052.034.025.073.1.117-.035.039-.12.175-.076.273-.053.051.011.1.026.149.042.09.029.176.062.266.087.026.007.058-.008.085-.016l.224-.06-.13-.02V.306c.375.017.749.036 1.123.055 0 .01.002.019.003.029l-.081.048c-.007.056.074.043.102.086.052.012.101.012.131-.07.003-.01.041-.01.058-.005.131.045.288-.046.412.048l.234-.015.077-.021.007.016.208-.013a.445.445 0 0 1-.003.049l.026.01c.048-.028.096-.055.145-.074.092-.035.185-.068.28-.084.041-.007.085.033.138.055.015-.019.047-.053.078-.088l-.009-.046h-.379l.019-.042-.283-.086c.104-.045.206-.097.312-.127.035-.01.079.037.114.034.061-.013.122-.039.182-.037.185.004.37.036.554.021.121-.01.236.084.363.016.043-.023.117.045.178.063.027.008.066.011.088-.006.098-.075.151-.017.196.081.029-.007.061-.025.091-.022.112.015.222.04.331.052.07.01.044-.076.061-.104a.288.288 0 0 1 .181-.127c.087-.01.176.027.289.047l-.107.12c.004.018.007.037.012.054h.559l.009.047-.128.183c.159.01.327.02.495.032V.52l.059.004ZM.384.565C.372.566.36.568.35.575.333.585.319.591.303.598h.136C.419.585.399.575.382.565h.002ZM3.506.452c.028 0 .055 0 .084-.003-.026-.013-.053-.022-.075-.014-.038.013-.129-.03-.116.092.062 0 .126.003.191.006l-.12-.06c.017-.01.028-.021.036-.021ZM7.8.639c-.013.004-.03-.007-.044-.012-.029-.01-.056-.03-.085-.03-.07 0-.142.009-.214.011.055.013.107.03.158.04a.605.605 0 0 0 .278-.029.313.313 0 0 0-.095.02H7.8Zm.796-.26L8.53.536 8.512.503c-.02.008-.04.019-.06.029.013.008.027.023.039.032.005.002.01.005.014.004a.617.617 0 0 1 .317-.03.883.883 0 0 1-.227-.16h.001Zm.43.234.01.004c.004.003.011.002.017 0L9.026.611v.002Zm28.864.937.02.042c.02 0 .043-.003.068-.005.003-.003.006-.004.007-.007a3.33 3.33 0 0 0-.095-.03Zm36.465.03.007.007c.025 0 .048.003.068.005l.02-.042c-.029.008-.06.02-.095.03ZM116.544.533l-.005.048v.004a.1.1 0 0 0 .013.006.79.79 0 0 1 .026-.009l.044-.016a.64.64 0 0 1-.078-.037v.004Zm-.425.036-.002-.004c-.013.004-.025.009-.038.01h-.007l.021.022.028-.03-.002.002Zm-4.948.03-.05-.03c-.011.012-.022.024-.034.03h.084Zm-2.183 0a.114.114 0 0 1-.033-.03c-.016.009-.032.02-.051.03h.084Zm-5.455-.066V.53c-.026.013-.052.026-.08.038.015.004.03.01.045.016l.026.009.014-.006V.582l-.007-.047.002-.002Zm.428.033-.003.005.027.029.022-.022H104c-.013-.001-.025-.006-.038-.01l-.001-.002Zm-.373-.068.063-.004.133-.009a6.538 6.538 0 0 0-.045-.107.955.955 0 0 1-.153.12h.002Zm5.235-.063c-.027-.01-.066.005-.098.027h.022c.062.006.126.006.189.01-.017-.055-.082-.029-.113-.039v.002Zm2.429 0c-.03.011-.095-.015-.113.039.064-.005.126-.005.19-.01h.021c-.033-.022-.07-.038-.098-.028V.435Zm5.038.05.133.009.064.004a1.007 1.007 0 0 1-.154-.12l-.044.107h.001Zm29.337 1.065.02.042c.02 0 .043-.003.068-.005.003-.003.006-.004.007-.007a2.675 2.675 0 0 0-.095-.03Zm36.465.03.007.007c.025 0 .048.003.068.005l.02-.042c-.029.008-.06.02-.095.03ZM211.023.62h.017l.01-.005-.027.006V.619Zm.54-.116-.017.034-.067-.159a.88.88 0 0 1-.227.16.618.618 0 0 1 .317.03c.004 0 .009 0 .014-.004.012-.008.025-.024.039-.032l-.06-.03h.001Zm.843.092c-.029 0-.056.02-.085.03-.015.007-.031.018-.044.012a.356.356 0 0 0-.094-.02.61.61 0 0 0 .278.03c.051-.01.103-.026.158-.04-.071-.003-.144-.012-.214-.012h.001Zm4.158-.162c-.022-.007-.05 0-.076.015.028 0 .057.001.084.003.009 0 .018.01.036.02l-.12.06.191-.005c.013-.123-.078-.08-.115-.093Zm3.162.14c-.01-.007-.021-.008-.033-.01l-.056.032h.136c-.015-.005-.031-.011-.048-.023h.001Z"/></g><defs><clipPath id="a"><path fill="#fff" transform="matrix(1 0 0 -1 0 2)" d="M0 0h220v2H0z"/></clipPath></defs></svg>