<svg width="110" height="1" fill="none" xmlns="http://www.w3.org/2000/svg"><g clip-path="url(#a)" fill="#000"><path d="m7.977.624-.001.002V.624h.001ZM5.762.194l.04.058c-.015-.01-.03-.01-.045-.005-.026-.024-.042-.052.005-.052ZM4.618.25 4.61.253c.003-.01.006-.007.008-.001ZM24.45.997 24.446 1h-.003l-.003-.004a.182.182 0 0 1-.007-.035h.045c-.003.013-.006.022-.008.024l-.018.011v.001ZM8 .546l.002-.002a.147.147 0 0 1 .02-.014l.02-.01.006-.002c.005-.002.01-.005.015-.005.003 0 .006 0 .008-.002L8.085.51h.01l.012.001.013.005c.003 0 .007.001.01.003a.186.186 0 0 1 .023.013.88.88 0 0 1-.027.036l.052.007.003.025c-.023.01-.064.03-.066.026a.164.164 0 0 0-.013-.023L8.097.597C8.093.594 8.09.59 8.086.587L8.08.583a.059.059 0 0 0-.013-.007c-.03-.012-.062-.006-.092-.014a.214.214 0 0 1 .02-.018H8ZM33.188.984l-.016.006-.02.006-.017.003-.013.001c-.006 0-.01-.001-.015-.003-.003 0-.007 0-.01-.002l-.013-.007c-.002-.002-.005-.002-.006-.005-.005-.003-.008-.008-.012-.012l-.005-.005-.01-.017-.004-.005a.471.471 0 0 1-.013-.026l.2.044a.43.43 0 0 1-.046.022ZM5.005.232S5.01.23 5.013.227L5.027.22 5.04.214l.011-.002A.152.152 0 0 1 5.07.21h.006c.007 0 .014.002.022.004h.001c.023.006.042.02.053.038h-.167a.102.102 0 0 1 .02-.02ZM33.477 1c-.016 0-.036-.023-.07-.07h.116c-.018.047-.03.07-.047.07h.001Z"/><path d="M24.545.973c0 .009 0 .018.002.027l-.115-.038v-.01h.113v.021ZM102.223.624h.001v.002l-.001-.002ZM104.093.252l.041-.058c.045 0 .031.028.004.052a.051.051 0 0 0-.045.005v.001ZM105.223.252l-.008-.001c.003-.006.005-.009.008.001ZM85.437.961c-.004.02-.005.03-.008.035L85.427 1h-.004c-.002 0-.003-.001-.005-.003L85.4.985c-.002-.001-.004-.01-.007-.023h.044ZM101.962.577c-.005.001-.009.004-.013.007l-.005.002-.011.011a.018.018 0 0 1-.005.005.103.103 0 0 0-.013.023c-.002.005-.043-.017-.066-.027l.003-.024.052-.007-.027-.036a.115.115 0 0 1 .023-.013c.003-.002.007-.003.01-.003l.013-.005h.013l.009-.001.014.002.008.001.015.006.006.002.019.01.002.001.019.013.002.002c.007.005.014.01.02.017-.028.01-.062.004-.091.015h-.001l.004-.001ZM76.977.944l-.004.005a.332.332 0 0 1-.01.017l-.006.005a.095.095 0 0 1-.011.012l-.007.005-.013.007-.01.002C76.913 1 76.909 1 76.903 1l-.013-.001c-.006 0-.011 0-.017-.003l-.02-.006-.016-.006a.43.43 0 0 1-.045-.022l.2-.044a.436.436 0 0 1-.013.026h-.001Z"/><path d="M105.268.213h.002a.071.071 0 0 1 .021-.004h.006c.006 0 .012 0 .018.002.004 0 .007.002.011.003l.013.004.015.009.008.005a.121.121 0 0 1 .02.02h-.167a.087.087 0 0 1 .053-.038V.213ZM76.464 1c-.016 0-.029-.023-.047-.07h.116c-.034.047-.053.07-.07.07h.001ZM85.77.952h.112v.01L85.767 1c0-.01 0-.018.002-.027v-.02Z"/><path d="M111.024.261c-.064.005-.126.008-.19.014-.022.002-.043.011-.066.01-.024-.001-.058.03-.07-.027-.001-.005-.035-.009-.038-.003-.022.056-.062.031-.093.033-.068.003-.136 0-.197 0l-.029-.076c-.016.016-.031.033-.047.047-.012.011-.026.027-.038.027-.061-.001-.122-.009-.182-.011-.034-.002-.068 0-.115 0a.054.054 0 0 1-.021.023l.13.001c.037 0 .075.012.113.015.026.002.053 0 .079-.004.046-.008.091-.035.134.01.008.007.032.008.042.002l.417.01a1.417 1.417 0 0 0-.254.058.308.308 0 0 1-.212.044c-.047-.01-.098-.008-.142-.011.011.03-.007.056-.05.058-.077.003-.078.175-.131.102l.012.04h-.23l-.007-.053-.107.029a.075.075 0 0 0-.008-.015l.058-.038c-.016-.022-.032-.048-.073-.017-.016.013-.042.013-.064.015l-.193.019.047.034h-.14l.023.035c-.039.004-.015.07-.067.068-.034-.002-.068 0-.113 0-.024.068-.06-.023-.098-.011a.36.36 0 0 0-.007.036h-.138a.217.217 0 0 0 .023-.01c-.04-.015-.084-.032-.128-.047a.12.12 0 0 0-.045-.009c-.049.001-.099.017-.144.006-.077-.02-.15-.002-.224.005-.036.003-.072.011-.108.016-.044.007-.087.01-.129.037-.026.019-.078.02-.081-.043 0-.007-.025-.012-.041-.019l-.009.069a3.707 3.707 0 0 0-.083-.008c-.031-.002-.062-.007-.092-.005-.048.003-.083-.006-.087-.079l-.06.064-.074.011c-.02.002-.039.005-.057.003a.089.089 0 0 1-.05-.018.088.088 0 0 1-.026-.035.023.023 0 0 0-.01-.008.083.083 0 0 0-.015-.005.076.076 0 0 0-.018-.003c-.005 0-.01.001-.013.003a.34.34 0 0 1-.192.055.501.501 0 0 1-.123-.019.314.314 0 0 0-.054-.008c-.018-.002-.037-.002-.056-.002-.037 0-.075.004-.113.005-.003 0-.005.005-.008.01l-.005.01a.094.094 0 0 1-.003.008l.028-.003.025-.003.002.019-.11.019c-.04.008-.078.02-.118.029l-.029.007a.447.447 0 0 1-.058.012h-.029a.76.76 0 0 0-.137-.01c-.069 0-.137.007-.204.017-.067.01-.134.023-.201.037-.032.006-.061.029-.099.03a.139.139 0 0 1-.043-.006l.037-.008.015-.002-.069-.049c-.005-.004-.011-.007-.013-.012-.003-.008-.005-.022-.006-.029 0-.002-.002-.003-.002-.003l-.044-.002-.02.001a.054.054 0 0 0-.017.007.09.09 0 0 1-.054.015l-.054-.003a.124.124 0 0 0-.036.005l-.002-.004a.11.11 0 0 1-.011-.02l-.005-.01c-.013.023-.028.035-.044.035-.013 0-.027-.006-.043-.02l-.017-.014c-.034.038-.192.058-.29.037a.165.165 0 0 1-.056-.02l.047-.008v-.04c-.016.005-.018-.001-.033-.018-.023-.024-.049-.024-.07.007l.032.008-.003.012-.103-.019a.07.07 0 0 0 .005-.013l-.017.011a.072.072 0 0 1-.017.01.151.151 0 0 1-.017.004c-.018.005-.036.008-.052.016-.01.006-.021.013-.03.016l-.009.002h-.009c-.003 0-.006-.002-.009-.005a.066.066 0 0 1-.016-.02.01.01 0 0 1-.007.002c-.003 0-.005-.001-.008-.003a.058.058 0 0 1-.008-.004l-.017-.007-.008.001c-.005.002-.009.009-.013.022 0 .001-.003.002-.008.002-.013 0-.04-.003-.058-.005-.029-.003-.058-.001-.085-.01a.085.085 0 0 1-.03-.018c-.005-.004-.01-.009-.014-.015-.002-.003-.006-.005-.01-.008a.025.025 0 0 0-.013-.007c-.004 0-.008 0-.012.005l-.004.008a.054.054 0 0 0-.002.014l-.055-.005h-.039c-.039.004-.079.008-.109-.035-.003-.004-.023.003-.04.008a.089.089 0 0 1-.017.004.14.14 0 0 0-.013.004l-.014.004a.046.046 0 0 1-.013.002c-.003 0-.005 0-.006-.002a.077.077 0 0 0-.076-.032c-.027.004-.054.015-.081.016l.049.01v.007h-.045c-.016 0-.031 0-.045.002-.011.001-.021.014-.031.022a.552.552 0 0 0 .025.021l-.001.014a1.64 1.64 0 0 1-.059-.007l-.064-.008c.037-.03.062-.056.092-.07.009-.005.018-.008.028-.011l.055-.015.026-.006-.06-.017-.025-.007a.095.095 0 0 0-.03.039c-.005.01-.043 0-.065-.002-.018-.002-.042-.016-.054-.006-.043.04-.099.03-.124-.028-.023.05-.09.063-.14.014-.044-.042-.082-.06-.131-.007a2.66 2.66 0 0 0-.023-.061l-.165.11.03.017c-.024.01-.039.021-.045.017-.043-.034-.076-.025-.117.012-.023.021-.064.011-.097.014l-.166.014-.004-.028.325-.068-.063-.069.136-.026-.032-.081c-.027.044-.083.068-.106.021-.03-.062-.062-.024-.09-.026-.041-.003-.085.012-.129.02l.008.036c-.123.008-.239.066-.374.013l.042.048-.044.017h.166l.001.027c-.084.01-.169.016-.253.033-.051.01-.097.014-.144-.023-.012-.01-.035 0-.054.002-.035.001-.074.052-.105-.016-.003-.008-.037.01-.057.01-.023 0-.058.022-.059-.036.004-.068.026-.113.067-.134h.002a.065.065 0 0 1 .02-.008.15.15 0 0 1 .025-.004.124.124 0 0 0 .071-.02l-.038-.025a.738.738 0 0 1-.041-.03c-.021.043-.055.05-.104.023-.027.015-.047.038-.063.034-.074-.017-.142.023-.213.033-.014.002-.027.027-.041.038-.066.05-.127.013-.192-.025-.003.109-.072.071-.114.076-.056.005-.116.052-.172-.01-.003-.003-.024.018-.034.03-.019.02-.026.019-.029-.015 0-.005-.027-.018-.031-.013-.057.073-.131.05-.199.053-.042.002-.091.04-.127-.024-.002-.003-.022 0-.027.008-.062.099-.15.031-.224.055-.009.003-.024-.019-.037-.027-.021-.015-.041-.032-.06.01-.02.042-.035.043-.081.017-.007-.003-.018-.004-.023 0-.038.026-.071.025-.106-.01-.007-.006-.035.005-.045.018-.038.052-.07.045-.097-.027l-.087.04-.018-.065c-.081.104-.18.042-.277.036l-.01-.057c-.086.024-.154-.009-.22-.074-.02-.02-.073-.011-.102.008-.068.044-.133.073-.211.055-.048-.012-.099-.01-.143-.013.011.036-.006.068-.05.071-.076.005-.15 0-.203-.09l.012.05h-.23l-.007-.066-.107.036-.008-.018.058-.048c-.016-.028-.032-.06-.073-.02-.016.015-.042.015-.064.018-.06.009-.12.014-.193.023l.047.044h-.14l.023.043c-.04.004-.015.086-.067.084h-.113c-.024.085-.06-.028-.098-.014l-.007.045h-.138l.023-.012c-.04-.018-.084-.04-.128-.059a.103.103 0 0 0-.045-.01c-.049.001-.1.021-.144.007-.078-.025-.15-.003-.224.006-.036.004-.072.014-.108.02-.044.008-.087.011-.129.046-.026.022-.078.023-.081-.054 0-.008-.025-.013-.041-.023l-.01.085-.082-.01c-.03-.003-.062-.01-.092-.007-.048.004-.083-.007-.087-.098l-.06.08c-.028.005-.051.01-.074.013a.22.22 0 0 1-.057.004.081.081 0 0 1-.05-.023.121.121 0 0 1-.026-.042.024.024 0 0 0-.01-.01.08.08 0 0 0-.016-.008C96.367.602 96.36.6 96.355.6c-.006 0-.01.001-.013.004a.29.29 0 0 1-.192.067.45.45 0 0 1-.123-.022.224.224 0 0 0-.054-.01c-.019-.002-.037-.002-.056-.002-.037.001-.075.005-.113.005-.002 0-.005.007-.008.014l-.005.012-.003.01.028-.005.025-.002.002.023c-.036.008-.073.014-.11.024-.04.01-.078.025-.118.035-.01.002-.02.006-.029.009a.303.303 0 0 1-.058.015h-.029a.725.725 0 0 0-.137-.012c-.069 0-.136.008-.204.02a2.454 2.454 0 0 0-.201.046c-.032.008-.061.035-.1.037a.097.097 0 0 1-.042-.008l.037-.01.015-.003-.069-.06c-.005-.004-.011-.01-.013-.015-.003-.01-.005-.028-.006-.036l-.002-.004-.044-.003c-.007 0-.014 0-.02.002a.04.04 0 0 0-.017.01.076.076 0 0 1-.054.018c-.018 0-.036-.004-.054-.004a.086.086 0 0 0-.035.007l-.003-.005a.356.356 0 0 1-.011-.026l-.005-.013c-.013.03-.028.045-.044.046-.013 0-.027-.008-.043-.024l-.017-.019c-.034.048-.192.073-.29.047a.142.142 0 0 1-.056-.026 2.75 2.75 0 0 0 .047-.01v-.05c-.016.007-.018-.001-.033-.02-.022-.031-.05-.031-.07.007l.032.01-.003.015-.103-.023a.132.132 0 0 0 .005-.017l-.016.014a.092.092 0 0 1-.018.011 3.232 3.232 0 0 1-.017.007c-.018.005-.036.008-.051.02-.011.007-.021.014-.03.018a.022.022 0 0 1-.01.002h-.009a.028.028 0 0 1-.009-.005.064.064 0 0 1-.016-.027c-.002.003-.004.003-.007.003s-.005-.002-.008-.003L93.76.689c-.006-.004-.012-.008-.017-.009l-.008.001c-.005.003-.01.011-.013.027 0 .002-.003.002-.008.002-.013 0-.04-.004-.058-.006C93.626.7 93.597.702 93.57.69a.094.094 0 0 1-.03-.022.113.113 0 0 1-.014-.017.117.117 0 0 0-.01-.01.043.043 0 0 0-.013-.009c-.004 0-.008 0-.012.005a.041.041 0 0 0-.004.011.29.29 0 0 0-.002.018L93.43.659h-.02l-.02.001c-.038.004-.078.01-.108-.044-.003-.006-.023.003-.04.01l-.017.006-.013.005-.014.005a.13.13 0 0 1-.013.003c-.003 0-.005 0-.006-.003A.096.096 0 0 0 93.16.62c-.018-.017-.038-.02-.058-.017-.027.005-.054.018-.08.02l.048.011v.01h-.045l-.045.001c-.011.002-.021.018-.031.028a.874.874 0 0 0 .025.027l-.001.016-.059-.009-.064-.009c.037-.035.062-.069.092-.087a.192.192 0 0 1 .028-.013c.019-.007.037-.012.055-.017a.266.266 0 0 0 .026-.008l-.06-.02-.065-.023-.008.015.02.013-.003.016-.132-.034-.002.011L92.8.57l-.001.005c-.014-.002-.028-.009-.041-.01-.005 0-.009 0-.013.002-.076.024-.153.052-.229.079-.007.003-.012.01-.02.017l.06.013-.004.022c-.03-.012-.058-.022-.09-.036l-.193.027c-.001-.007-.003-.013-.003-.02.02-.016.03-.032.032-.047.002-.014-.006-.029-.022-.04l-.114.046c-.028.01-.055.023-.084.029-.002 0-.005 0-.007-.002a.056.056 0 0 1-.016-.014l-.006-.009c-.01-.016-.019-.027-.03-.026-.006 0-.012.006-.02.018a.11.11 0 0 1-.096.056h-.02a.403.403 0 0 1-.043-.007.208.208 0 0 0-.057-.005.114.114 0 0 0-.056.02.078.078 0 0 1-.047.01c-.017 0-.035-.004-.052-.006-.07-.005-.14-.012-.207-.018-.01.089-.086.034-.128.088h.15v.024c-.061-.009-.124.001-.187 0a.342.342 0 0 1-.114-.023l-.028.008.005.073-.233.038-.003-.013.02-.021h-.569l.024-.017.016-.012c-.002-.009-.002-.013-.004-.013l-.038-.009c-.038-.01-.077-.02-.115-.019-.012 0-.024.005-.034.006-.016.001-.028-.005-.03-.038-.002 0-.004 0-.006-.002-.014.037-.035.056-.061.055-.02 0-.042-.012-.068-.033a.067.067 0 0 1-.033-.014c-.003-.003-.007-.004-.01-.006a.138.138 0 0 1-.015.027.08.08 0 0 1-.025.023.02.02 0 0 1-.008.002c-.002 0-.004-.001-.005-.004-.006-.007-.01-.021-.017-.03a.17.17 0 0 0-.02-.025l-.01.004-.01.004a.2.2 0 0 1-.082.017.339.339 0 0 1-.059-.007c-.03-.005-.059-.011-.09-.013-.008 0-.017.01-.041.026a1 1 0 0 0 .052-.001c.015 0 .027 0 .04.003.02.005.055.018.057.031.002.034.014.048.028.054.008.003.016.003.024.004l.026.001a.257.257 0 0 1 .034.008c-.044.008-.087.021-.128.025h-.03a.128.128 0 0 1-.084-.038L89.53.87l-.002-.05c-.044.008-.09.014-.133.027-.041.012-.081.032-.135.053a.037.037 0 0 0-.016-.003c-.028.002-.068.033-.1.027-.015-.003-.027-.012-.037-.03l-.108.02-.002.014.095.048-.132.023a6.309 6.309 0 0 1-.02-.06c-.012.01-.024.027-.035.027-.03 0-.07.005-.084-.016-.07-.102-.169-.096-.259-.12-.002 0-.005 0-.008.002l-.008.005a.144.144 0 0 1-.032.022.11.11 0 0 1-.034.009.113.113 0 0 1-.07-.02c-.014-.009-.03-.02-.046-.02-.015 0-.029.014-.035.05 0 .002-.002.004-.004.005a.06.06 0 0 1-.022.005h-.01c-.01-.002-.02-.006-.03-.01l-.03-.01-.003.016.024.018-.028.008-.06-.127-.028.037c-.026.035-.05.065-.072.096-.037-.038-.07-.146-.104-.181a.072.072 0 0 1-.02.003c-.023.001-.044-.005-.066-.005l-.03-.002a.01.01 0 0 0 .001.004c-.018.006-.042.021-.058.024-.005.001-.01 0-.013-.003a.08.08 0 0 0-.03-.02c-.008.004-.017.006-.024.011a.221.221 0 0 1-.06.032.143.143 0 0 1-.061.005c-.018-.002-.035-.007-.052-.006-.024.002-.048.009-.064.012-.017.017-.03.037-.038.034a1.975 1.975 0 0 1-.084-.03L87.274.76l-.002.007V.77c-.002.003-.004.006-.006.006-.057.006-.114.006-.17.013l-.005.002a.028.028 0 0 0-.009.004l-.032.026.002.002h-.003l.001-.002-.133.023a2.223 2.223 0 0 1-.403.022l.019-.075c-.02-.02-.046-.018-.067-.021-.02-.004-.04-.013-.047-.053 0-.002-.005-.002-.011-.003-.006 0-.013 0-.015.004-.027.03-.052.066-.084.071a.044.044 0 0 1-.019 0c-.014-.003-.028-.012-.045-.03-.001-.002-.004-.003-.008-.004a.048.048 0 0 0-.032.01c-.014.01-.023.016-.03.016-.02.003-.014-.03-.014-.055a.074.074 0 0 0-.018-.005c-.019-.001-.038.005-.057.005a.06.06 0 0 1-.051-.017l-.017.002V.684s-.003-.003-.006-.003a.101.101 0 0 0-.028.008l-.014.005a.098.098 0 0 0-.021.016l-.023.022-.004-.022c-.174.025-.358.057-.543.073h-.01l.007.038h-.009c-.005 0-.01-.014-.015-.034a.065.065 0 0 1-.034.009.495.495 0 0 1-.069-.007.549.549 0 0 0-.045-.005c-.003 0-.006-.01-.013-.02l.032.004-.006-.052a.097.097 0 0 1-.021.015l-.01.017-.006.009-.204-.031-.005-.02-.007-.027-.01.002v.026a.225.225 0 0 0-.023.01c-.014.007-.027.014-.04.017a.054.054 0 0 1-.016.002c0 .04-.018.047-.039.046-.015 0-.031-.005-.044-.004-.03.002-.062.003-.093.002h-.093V.8h.2a.15.15 0 0 1-.016.041c-.019.034-.049.048-.088.046h-.13c-.011 0-.023 0-.032-.003-.015-.004-.02-.017-.002-.055.003-.006.002-.02-.001-.024C84.532.8 84.522.798 84.514.8l-.12.033-.007-.02.052-.042h-.006c-.02-.002-.04-.008-.06-.008a.094.094 0 0 0-.051.015.162.162 0 0 1-.097.025c-.055-.003-.112-.026-.166-.047a.281.281 0 0 1-.042-.01V.738l-.051-.021-.01.042.118.044a.063.063 0 0 1-.032.028.033.033 0 0 1-.012.002.105.105 0 0 1-.049-.012c-.01-.004-.022-.012-.03-.01-.033.01-.065.034-.096.033-.05 0-.099-.023-.149-.024-.044-.002-.09.012-.14.02l.009-.05c-.017 0-.034-.003-.05-.004a.99.99 0 0 1-.07-.01L83.412.77c-.007 0-.013-.002-.02-.003a.144.144 0 0 1-.081-.046c-.01-.01-.02-.015-.03-.013-.03.003-.06.047-.092.056-.024.008-.046.026-.069.04l-.006-.019.026-.012-.052-.055-.001.028a.086.086 0 0 1-.013.039c-.004.004-.007.008-.012.011a.088.088 0 0 1-.05.014H82.958a.184.184 0 0 0-.068.01.055.055 0 0 0-.022.017.09.09 0 0 1-.021.022.04.04 0 0 1-.02.008.053.053 0 0 1-.03-.006l-.03-.015-.009-.004a.05.05 0 0 0-.028-.006.029.029 0 0 0-.02.008c-.003.003-.021-.034-.036-.044l-.036.009c-.02.002-.042 0-.06.006a.055.055 0 0 0-.016.009.08.08 0 0 1-.03.018.05.05 0 0 1-.015.002l-.014-.001-.027-.01-.028-.013a.08.08 0 0 0-.025-.007L82.41.82V.814c-.014.003-.023.017-.024.054 0 .017-.024.047-.037.047a.968.968 0 0 1-.165-.016c-.022-.003-.05-.006-.057-.047 0-.002-.006-.003-.009-.003l-.005.026-.004.02c-.013-.005-.022-.01-.03-.012L82.003.88c-.025-.001-.044-.004-.044-.01a.088.088 0 0 0-.008-.029.11.11 0 0 0-.008.03c0 .005-.02.008-.044.01-.025 0-.054.001-.075.003-.008.001-.017.007-.03.012l-.004-.02-.005-.026-.01.003c-.006.04-.035.044-.057.047a.976.976 0 0 1-.165.016c-.013 0-.037-.03-.037-.047 0-.037-.01-.051-.024-.054V.82L81.48.814a.135.135 0 0 0-.026.007l-.027.013a.103.103 0 0 1-.041.011c-.006 0-.01 0-.015-.002a.076.076 0 0 1-.03-.018.034.034 0 0 0-.016-.009c-.018-.006-.04-.004-.06-.006-.012-.002-.024-.006-.036-.01-.016.011-.034.048-.037.045a.046.046 0 0 0-.019-.008.06.06 0 0 0-.029.006l-.01.004-.028.015a.055.055 0 0 1-.03.006.04.04 0 0 1-.02-.008.09.09 0 0 1-.021-.022.046.046 0 0 0-.023-.018.183.183 0 0 0-.067-.01l-.035.001h-.021a.084.084 0 0 1-.05-.014.057.057 0 0 1-.011-.011.086.086 0 0 1-.013-.039.169.169 0 0 1-.001-.028l-.052.055.026.012-.007.019c-.022-.014-.044-.032-.068-.04-.032-.009-.063-.053-.093-.056-.01-.002-.02.002-.03.013a.143.143 0 0 1-.08.046l-.02.003-.043.005a.207.207 0 0 0-.02.002l-.05.008-.05.005.008.049c-.05-.008-.095-.022-.14-.02-.05.001-.098.024-.148.024-.032 0-.064-.023-.096-.032-.009-.003-.02.006-.03.01a.11.11 0 0 1-.05.011c-.003 0-.008 0-.011-.002a.058.058 0 0 1-.032-.028l.118-.044a3.47 3.47 0 0 0-.01-.042l-.052.02v.008a.255.255 0 0 1-.04.009c-.055.022-.112.045-.167.047a.16.16 0 0 1-.096-.025.094.094 0 0 0-.052-.015c-.02 0-.04.007-.06.008h-.006l.052.042-.006.02L79.39.8c-.007-.002-.016 0-.021.006-.004.003-.005.018-.002.023.02.037.013.05-.002.055-.008.003-.02.003-.032.003h-.13c-.039.002-.07-.01-.088-.045a.15.15 0 0 1-.015-.042h.2v-.02h-.094c-.031 0-.062 0-.093-.002-.013 0-.03.004-.044.004-.021.001-.04-.005-.04-.045l-.014-.002c-.013-.004-.026-.01-.04-.017l-.024-.01V.68l-.01-.002-.007.027-.005.019-.203.031-.006-.009-.02-.03L78.69.7l-.009.069.033-.004c-.007.01-.01.02-.014.02-.014 0-.029.002-.045.004-.023.003-.048.007-.068.007-.02 0-.037-.004-.044-.016-.006.002-.012.003-.018.002-.185-.016-.368-.048-.543-.073l-.004.023-.022-.022a.103.103 0 0 0-.021-.016.06.06 0 0 0-.014-.006.101.101 0 0 0-.028-.007c-.004 0-.006 0-.007.002V.71L77.87.707a.06.06 0 0 1-.052.018C77.8.723 77.78.718 77.76.72a.039.039 0 0 0-.018.004c0 .025.006.059-.014.056-.006 0-.015-.006-.03-.017a.048.048 0 0 0-.032-.01.01.01 0 0 0-.008.004.094.094 0 0 1-.044.03.044.044 0 0 1-.02 0c-.031-.005-.056-.042-.083-.07-.003-.004-.01-.004-.015-.004l-.012.002c-.007.041-.025.05-.047.053-.022.004-.046.002-.066.022l.018.075a2.24 2.24 0 0 1-.403-.022L76.854.82l.002.002h-.003l.001-.002c-.01-.008-.02-.02-.032-.026l-.01-.004-.003-.001c-.057-.008-.113-.008-.17-.013-.002 0-.005-.003-.006-.006V.768L76.627.76l-.087.034-.085.03c-.007.002-.02-.017-.037-.033-.016-.004-.04-.01-.064-.013-.017-.001-.035.004-.052.006a.157.157 0 0 1-.061-.005.201.201 0 0 1-.06-.032c-.008-.005-.016-.007-.024-.01a.09.09 0 0 0-.03.02c-.004.003-.008.003-.014.003-.016-.003-.04-.018-.057-.024V.73l-.03.002c-.021 0-.043.006-.064.006a.067.067 0 0 1-.021-.004c-.034.035-.068.143-.104.181a7.436 7.436 0 0 1-.072-.096l-.027-.036-.061.126-.028-.008.023-.018-.003-.016-.029.011a.229.229 0 0 1-.03.009h-.01a.061.061 0 0 1-.022-.005c-.003-.001-.004-.002-.004-.004-.006-.037-.02-.05-.035-.05-.015 0-.033.01-.047.019a.118.118 0 0 1-.07.02.082.082 0 0 1-.033-.01.14.14 0 0 1-.032-.02.019.019 0 0 0-.008-.006c-.003-.001-.006-.002-.008-.001-.09.023-.189.018-.259.119-.014.02-.055.015-.084.016-.011 0-.024-.017-.035-.027a3.308 3.308 0 0 1-.02.06l-.132-.023c.042-.02.068-.035.095-.048l-.002-.013-.108-.021c-.01.018-.023.027-.036.03-.034.006-.073-.025-.102-.027a.03.03 0 0 0-.016.003C74.59.878 74.55.86 74.51.847 74.465.834 74.42.83 74.375.82l-.001.05a5.019 5.019 0 0 0-.082-.014.125.125 0 0 1-.083.038h-.03c-.042-.003-.085-.017-.129-.025l.034-.007c.008-.002.017-.002.025-.002a.066.066 0 0 0 .024-.004c.015-.006.026-.02.03-.054 0-.013.035-.026.056-.03.012-.004.024-.004.04-.004l.052.002c-.025-.016-.033-.027-.042-.026-.03.001-.06.008-.09.013a.41.41 0 0 1-.06.006.186.186 0 0 1-.075-.014l-.006-.002-.01-.005L74.02.74a.245.245 0 0 0-.02.024c-.006.009-.012.024-.017.03-.001.003-.003.004-.005.004-.003 0-.006 0-.008-.002a.08.08 0 0 1-.025-.022c-.006-.008-.01-.018-.015-.028l-.011.006a.07.07 0 0 1-.033.014c-.025.022-.047.034-.068.034-.026 0-.047-.02-.061-.055l-.005.001c-.003.033-.015.04-.03.038-.011-.002-.023-.005-.035-.005-.039 0-.077.01-.115.019l-.038.008-.004.013.016.012.024.017h-.57l.021.021-.004.013-.232-.037.005-.074-.028-.008a.342.342 0 0 1-.114.023c-.063.002-.126-.008-.187 0V.761h.15c-.042-.054-.117 0-.128-.088-.067.006-.137.014-.207.019l-.052.005c-.017.002-.034 0-.047-.01a.114.114 0 0 0-.056-.02h-.027l-.03.005a.405.405 0 0 1-.043.007H72a.11.11 0 0 1-.097-.055c-.007-.012-.014-.017-.02-.019-.01-.001-.02.01-.029.026a.035.035 0 0 1-.006.01l-.015.014c-.003.001-.005.002-.008.001-.029-.006-.056-.018-.084-.029a4.962 4.962 0 0 1-.114-.046c-.016.011-.023.025-.022.04.001.016.012.031.032.048l-.003.019-.192-.027-.09.036-.005-.022.06-.012c-.007-.008-.013-.016-.02-.018a5.363 5.363 0 0 0-.23-.079l-.012-.001c-.013 0-.026.007-.041.01V.568L71.1.55l-.002-.01-.132.033-.003-.015.02-.014-.008-.015-.065.023-.06.02.026.008c.018.005.036.01.055.017l.028.013c.03.019.055.052.092.087l-.064.01-.059.008L70.927.7l.025-.026c-.01-.01-.02-.027-.03-.028-.016-.003-.031-.003-.046-.003l-.045.001v-.01l.049-.012c-.027 0-.054-.015-.081-.018-.02-.003-.04-.001-.058.016a.122.122 0 0 0-.018.023l-.006.002-.013-.003-.014-.005-.013-.005a.245.245 0 0 1-.017-.005c-.017-.008-.036-.016-.04-.01-.03.052-.07.047-.109.044l-.02-.002h-.019l-.055.007c0-.007 0-.013-.002-.018a.025.025 0 0 0-.004-.01C70.407.63 70.404.63 70.399.63a.027.027 0 0 0-.013.008c-.005.004-.008.008-.01.011-.004.007-.008.013-.014.018a.095.095 0 0 1-.03.021c-.027.012-.057.01-.085.014-.017.002-.044.007-.058.007-.004 0-.007-.001-.008-.003-.004-.015-.008-.023-.013-.026a.01.01 0 0 0-.008-.002c-.006.001-.011.005-.017.009a.054.054 0 0 1-.016.008c-.003 0-.005 0-.007-.002a.066.066 0 0 1-.016.026.027.027 0 0 1-.009.005.018.018 0 0 1-.009 0c-.003 0-.006 0-.01-.002-.008-.003-.019-.011-.03-.018-.015-.01-.033-.014-.05-.02a.087.087 0 0 1-.035-.018l-.017-.014.005.017-.103.023-.003-.015.031-.01c-.02-.038-.046-.038-.069-.008-.015.02-.017.029-.033.021v.051l.047.01a.143.143 0 0 1-.056.026c-.097.026-.256 0-.29-.047a.23.23 0 0 1-.017.018c-.016.017-.03.025-.043.024-.016 0-.03-.016-.044-.045l-.005.013a.356.356 0 0 1-.014.03.085.085 0 0 0-.035-.006l-.054.003a.076.076 0 0 1-.054-.019.05.05 0 0 0-.017-.008.091.091 0 0 0-.02-.003c-.015 0-.03.003-.044.003l-.002.005-.005.035c-.003.007-.01.011-.014.015-.02.019-.041.037-.069.06l.015.004.037.009a.095.095 0 0 1-.042.009c-.04-.003-.069-.03-.1-.038a2.715 2.715 0 0 0-.201-.046 1.13 1.13 0 0 0-.273-.016 1.049 1.049 0 0 0-.068.008.091.091 0 0 1-.028 0 .29.29 0 0 1-.06-.015l-.028-.009c-.039-.01-.078-.025-.118-.035-.036-.01-.073-.016-.11-.023l.002-.024.025.003.028.003-.003-.01-.005-.01c-.003-.008-.005-.014-.008-.014-.037 0-.076-.005-.113-.005l-.056.001a.285.285 0 0 0-.054.01.448.448 0 0 1-.123.022.293.293 0 0 1-.192-.067.022.022 0 0 0-.013-.003c-.005 0-.012 0-.017.003a.08.08 0 0 0-.016.007.025.025 0 0 0-.01.01.13.13 0 0 1-.026.043.074.074 0 0 1-.05.022.258.258 0 0 1-.057-.004C67.35.678 67.326.673 67.3.668a5.396 5.396 0 0 0-.061-.08c-.003.091-.04.103-.087.098-.03-.002-.06.004-.092.007l-.083.01a3.037 3.037 0 0 0-.009-.085c-.017.01-.04.016-.04.024-.004.076-.056.076-.082.053-.042-.035-.084-.037-.13-.045-.035-.007-.07-.016-.107-.02-.074-.01-.147-.032-.224-.007-.044.014-.095-.005-.144-.007a.113.113 0 0 0-.045.01l-.128.06.023.011h-.138l-.007-.045c-.038-.014-.074.1-.098.014h-.113c-.052.002-.028-.08-.067-.084L65.69.54h-.14l.047-.044-.193-.023C65.382.47 65.356.47 65.34.454c-.04-.039-.057-.007-.073.02.02.018.04.033.058.048l-.008.018-.107-.036-.007.066h-.23l.012-.05c-.054.09-.127.096-.203.09-.044-.002-.061-.034-.05-.071-.045.003-.095.001-.143.013-.078.019-.144-.01-.211-.055-.028-.019-.081-.028-.102-.008-.066.066-.134.099-.22.074l-.01.058c-.098.006-.196.067-.277-.037l-.018.066-.087-.04c-.027.071-.059.079-.097.027-.01-.013-.038-.025-.045-.018-.035.034-.069.036-.106.01-.005-.005-.016-.004-.023 0-.046.026-.061.024-.08-.019-.019-.04-.04-.024-.062-.009-.012.009-.027.03-.036.028-.074-.024-.162.043-.224-.055-.005-.008-.025-.012-.027-.008-.035.063-.085.026-.127.023-.067-.003-.141.02-.2-.052-.003-.005-.03.007-.03.013-.003.033-.01.035-.03.013-.01-.012-.03-.031-.033-.029-.055.062-.116.016-.172.01-.042-.004-.112.033-.114-.076-.065.038-.125.075-.192.025-.015-.01-.027-.036-.041-.038-.07-.01-.139-.05-.213-.033-.016.004-.036-.019-.063-.034-.049.028-.083.02-.104-.023l-.04.03c-.013.01-.026.016-.039.024.025.018.048.02.07.021.01 0 .018.003.026.005a.169.169 0 0 1 .02.007h.002c.041.02.064.065.067.133-.001.059-.036.036-.06.036-.019 0-.052-.017-.056-.01-.03.069-.07.018-.105.016-.018 0-.041-.011-.054-.001-.047.037-.092.033-.144.022-.026-.005-.05-.009-.076-.012.008.002.017.003.025.006l.027.011c.031.015.056.041.093.07l-.065.008-.058.008-.002-.014.025-.021c-.01-.008-.02-.022-.03-.023a.313.313 0 0 0-.045-.001h-.046V.673l.05-.01c-.028-.001-.055-.013-.082-.016a.077.077 0 0 0-.076.032c0 .002-.003.002-.006.002l-.013-.002a.084.084 0 0 0-.014-.004L61.026.67c-.005 0-.01-.003-.017-.004-.017-.006-.036-.012-.04-.008-.025.035-.056.038-.088.037l.037.008a.34.34 0 0 1-.004.028l-.166-.014-.063-.001-.004.002c-.026.01-.057.009-.085.01-.017.002-.044.007-.058.006-.004 0-.007 0-.008-.002-.003-.012-.008-.019-.013-.022L60.51.71c-.005 0-.011.003-.016.007l-.009.004a.017.017 0 0 1-.008.002c-.003 0-.005 0-.007-.002a.051.051 0 0 1-.016.021.025.025 0 0 1-.009.005h-.009l-.009-.003c-.01-.002-.02-.009-.03-.015-.015-.008-.034-.011-.052-.016l-.017-.005a.065.065 0 0 1-.017-.01l-.017-.01.005.013-.103.019c0-.005-.002-.009-.003-.013L60.224.7c-.02-.032-.047-.032-.07-.007-.015.016-.017.023-.033.017v.04c.017.004.033.006.047.008a.152.152 0 0 1-.056.021c-.097.021-.255 0-.29-.037a.32.32 0 0 1-.017.015c-.016.013-.03.02-.042.02-.017 0-.032-.013-.044-.037l-.005.01a.296.296 0 0 1-.011.021L59.7.775a.084.084 0 0 0-.036-.005l-.054.003a.088.088 0 0 1-.053-.016.036.036 0 0 0-.018-.006c-.006-.002-.013-.002-.02-.002l-.043.003s-.002.001-.002.003c-.002.007-.003.02-.006.029-.003.005-.009.008-.014.012l-.069.048.016.003.036.007a.103.103 0 0 1-.042.007c-.04-.001-.068-.024-.1-.03a3.66 3.66 0 0 0-.201-.037 1.468 1.468 0 0 0-.273-.014.71.71 0 0 0-.068.007.092.092 0 0 1-.028 0c-.02-.001-.04-.007-.059-.012l-.029-.007-.118-.03c-.036-.007-.073-.012-.11-.018L58.41.7l.025.003.029.003-.004-.008-.005-.01c-.002-.005-.005-.01-.008-.01-.037 0-.075-.004-.113-.005-.019 0-.038 0-.056.002a.354.354 0 0 0-.054.008.536.536 0 0 1-.123.018.34.34 0 0 1-.192-.054c-.003-.002-.007-.003-.013-.003a.076.076 0 0 0-.033.008.022.022 0 0 0-.01.008.104.104 0 0 1-.026.035.084.084 0 0 1-.05.018c-.017.001-.037 0-.057-.003a2.334 2.334 0 0 1-.073-.01l-.061-.065c-.003.073-.039.082-.087.079-.03-.002-.06.003-.092.005l-.083.008a2.306 2.306 0 0 0-.008-.069c-.018.007-.041.012-.041.019-.004.062-.056.06-.082.043-.041-.028-.084-.03-.129-.037-.036-.005-.071-.013-.108-.016-.074-.008-.146-.026-.224-.005-.044.011-.095-.005-.143-.006a.141.141 0 0 0-.046.009c-.045.015-.088.032-.128.047l.023.01h-.138l-.006-.037c-.039-.011-.075.08-.099.011h-.113C56.03.7 56.055.634 56.016.63a.825.825 0 0 1 .023-.035h-.14l.047-.034-.193-.02C55.732.54 55.706.54 55.69.528c-.041-.032-.058-.006-.074.017l.059.038-.01.015a27.66 27.66 0 0 1-.105-.03l-.008.054h-.23l.012-.04c-.053.073-.054-.099-.13-.102-.044-.002-.062-.029-.05-.058h-.007a.253.253 0 0 1-.132.01h-.005a.26.26 0 0 1-.132-.01h-.007c.011.03-.006.056-.05.058-.076.003-.078.175-.13.102l.011.04h-.23l-.007-.053-.106.029-.009-.015.059-.038c-.016-.023-.033-.049-.074-.017-.016.013-.042.013-.063.015l-.194.019.047.034h-.14l.023.035c-.039.004-.014.07-.066.067h-.114c-.023.07-.06-.022-.098-.01l-.006.036h-.138a.346.346 0 0 0 .023-.01c-.04-.015-.084-.032-.128-.047a.124.124 0 0 0-.046-.01c-.048.002-.099.018-.144.007-.077-.02-.15-.003-.224.005-.036.003-.071.011-.107.016-.044.007-.087.009-.129.037-.027.018-.078.02-.082-.043 0-.007-.024-.012-.04-.019l-.01.069-.083-.008c-.03-.002-.061-.007-.091-.005-.048.003-.084-.006-.087-.08l-.06.065-.075.011c-.02.002-.039.004-.057.003a.09.09 0 0 1-.05-.018.09.09 0 0 1-.026-.035.022.022 0 0 0-.009-.008.085.085 0 0 0-.033-.008c-.005 0-.01.001-.013.003a.34.34 0 0 1-.193.054.5.5 0 0 1-.122-.018.328.328 0 0 0-.055-.008c-.018-.002-.036-.002-.055-.002-.038 0-.075.004-.113.005-.003 0-.006.005-.009.01l-.004.01-.004.008.029-.003.025-.003.002.019c-.037.006-.074.011-.11.019-.04.008-.079.02-.118.029l-.03.007a.448.448 0 0 1-.058.012h-.028a.76.76 0 0 0-.137-.01c-.07 0-.137.007-.204.017-.067.01-.135.023-.202.037-.032.006-.06.029-.099.03a.136.136 0 0 1-.043-.007l.037-.007.015-.003-.068-.048c-.005-.004-.012-.007-.014-.012-.003-.008-.004-.022-.006-.029 0-.002-.001-.003-.002-.003l-.043-.003c-.008 0-.015 0-.02.002a.06.06 0 0 0-.018.006.088.088 0 0 1-.053.016L50.36.77a.116.116 0 0 0-.036.005L50.322.77a.176.176 0 0 1-.01-.02l-.006-.01c-.013.023-.027.035-.044.035-.012 0-.027-.006-.043-.02a.32.32 0 0 1-.016-.014c-.035.038-.192.058-.29.037a.165.165 0 0 1-.056-.02l.047-.008V.71c-.016.005-.018-.001-.034-.018-.022-.025-.049-.025-.069.007l.032.007c0 .005-.002.01-.003.013L49.727.7a.087.087 0 0 0 .005-.013l-.017.01-.017.01a.158.158 0 0 1-.018.005c-.017.005-.036.008-.051.016-.01.006-.021.013-.03.015l-.01.003h-.008c-.003 0-.006-.003-.01-.005a.057.057 0 0 1-.015-.02.012.012 0 0 1-.007.001c-.003 0-.005 0-.008-.002l-.009-.004c-.006-.003-.011-.007-.016-.007l-.008.001c-.006.002-.01.009-.013.022 0 .001-.003.002-.008.002-.013 0-.04-.004-.058-.005-.03-.003-.059-.002-.086-.01L49.34.716c-.02.002-.043 0-.063.001l-.166.014-.004-.028.037-.008c-.032.001-.064-.002-.089-.037-.003-.004-.022.003-.04.008A.081.081 0 0 1 49 .671a.125.125 0 0 0-.013.004l-.015.004a.04.04 0 0 1-.012.002c-.004 0-.006 0-.007-.002a.072.072 0 0 0-.018-.018c-.018-.014-.037-.016-.057-.014-.027.004-.055.015-.081.016l.049.01V.68h-.046l-.045.001c-.01.002-.02.015-.03.023.007.007.016.014.025.02l-.002.015A1.873 1.873 0 0 1 48.69.73l-.065-.008c.037-.029.063-.055.093-.07l.027-.01c.008-.004.017-.005.025-.007l-.076.012c-.051.011-.098.015-.144-.022-.012-.01-.035 0-.054.001-.035.002-.075.053-.106-.016-.003-.007-.037.01-.056.01-.023 0-.058.023-.06-.035.004-.068.027-.114.068-.134h.001a.14.14 0 0 1 .046-.012.123.123 0 0 0 .07-.02L48.42.394l-.04-.03c-.02.043-.055.051-.104.023-.028.015-.047.038-.063.034-.074-.017-.142.023-.213.033-.015.002-.027.027-.041.038-.066.05-.127.013-.192-.025-.003.11-.072.072-.114.076-.056.006-.117.052-.172-.01-.003-.002-.024.018-.034.03-.019.02-.026.019-.029-.014 0-.006-.027-.018-.031-.013-.057.072-.132.049-.2.052-.04.003-.09.04-.126-.023-.002-.004-.023 0-.027.008-.062.098-.15.03-.224.055-.01.002-.024-.02-.037-.028-.021-.015-.042-.032-.06.01-.02.042-.035.044-.081.018-.007-.004-.018-.005-.024 0-.037.026-.07.024-.105-.01-.007-.007-.035.005-.045.018-.038.05-.07.044-.097-.027l-.087.04-.018-.066c-.081.104-.18.042-.277.037l-.01-.058c-.086.024-.154-.008-.22-.074-.02-.02-.074-.011-.102.008-.068.045-.134.074-.212.055-.047-.012-.098-.01-.142-.013.01.037-.007.069-.05.071-.077.006-.15 0-.203-.09l.011.05h-.23l-.006-.066-.107.036L44.7.522l.058-.048c-.016-.028-.032-.06-.074-.02-.015.015-.042.015-.063.018-.06.009-.12.015-.193.023l.047.044h-.14l.023.043c-.04.005-.015.086-.067.084h-.113c-.024.086-.06-.027-.099-.014l-.006.045h-.138l.023-.012-.128-.059a.102.102 0 0 0-.045-.01c-.049.002-.1.021-.144.007-.078-.025-.15-.003-.224.006-.037.005-.072.014-.108.02-.044.009-.087.011-.129.046-.026.023-.078.023-.081-.053 0-.008-.025-.014-.042-.024l-.008.085-.084-.01c-.03-.003-.06-.01-.091-.007-.048.004-.083-.007-.087-.097l-.06.08c-.028.004-.051.01-.074.012a.22.22 0 0 1-.057.004.08.08 0 0 1-.05-.022.12.12 0 0 1-.026-.043.025.025 0 0 0-.01-.01.082.082 0 0 0-.016-.007.049.049 0 0 0-.017-.003c-.005 0-.01 0-.013.003a.29.29 0 0 1-.192.067.448.448 0 0 1-.123-.022.473.473 0 0 0-.11-.012c-.038.001-.075.005-.113.006-.003 0-.006.006-.009.013l-.004.012-.003.01.028-.004.025-.003.002.024c-.037.008-.074.013-.11.023-.04.01-.078.025-.118.035l-.03.01a.304.304 0 0 1-.058.014.122.122 0 0 1-.028 0 .728.728 0 0 0-.137-.012c-.069 0-.137.009-.204.02a2.884 2.884 0 0 0-.202.046c-.032.008-.06.035-.099.038a.097.097 0 0 1-.042-.01l.037-.008.015-.003-.069-.06c-.005-.005-.012-.01-.014-.016-.003-.01-.004-.027-.005-.035 0-.003-.002-.005-.003-.005l-.043-.003c-.007 0-.014 0-.02.003a.04.04 0 0 0-.018.008.076.076 0 0 1-.053.02c-.018 0-.036-.004-.054-.004a.085.085 0 0 0-.036.006l-.003-.004a.4.4 0 0 1-.01-.026c-.003-.005-.004-.01-.005-.013-.014.03-.028.045-.045.045-.012 0-.026-.008-.042-.024l-.017-.018c-.035.047-.192.073-.29.047a.142.142 0 0 1-.056-.026l.047-.01v-.05c-.016.007-.018-.002-.033-.022-.023-.03-.05-.03-.07.008l.032.01-.003.015-.103-.023a.151.151 0 0 0 .005-.017l-.017.014a.115.115 0 0 1-.017.012l-.017.006c-.018.005-.037.009-.052.02-.01.007-.02.014-.03.018a.022.022 0 0 1-.01.003L39.93.725A.027.027 0 0 1 39.92.72a.065.065 0 0 1-.016-.026c-.002.002-.004.002-.007.002s-.005-.002-.008-.003l-.009-.005c-.005-.004-.011-.008-.016-.009-.003 0-.005 0-.008.002-.005.003-.01.01-.013.026 0 .002-.003.003-.008.003-.013 0-.04-.005-.058-.007-.029-.003-.059-.002-.085-.014a.113.113 0 0 1-.044-.04.103.103 0 0 0-.01-.01.04.04 0 0 0-.013-.008c-.004 0-.008 0-.012.006a.042.042 0 0 0-.004.01.38.38 0 0 0-.003.018l-.054-.007h-.02l-.02.002c-.039.003-.078.008-.109-.044-.003-.006-.022.002-.04.01l-.016.005-.013.005-.014.005-.013.003c-.003 0-.006 0-.006-.002a.099.099 0 0 0-.018-.023c-.018-.017-.038-.02-.058-.016-.027.004-.054.018-.081.018l.049.013v.01c-.015 0-.03 0-.046-.002a.23.23 0 0 0-.044.003c-.011.001-.021.018-.031.028a.766.766 0 0 0 .025.026c0 .006 0 .01-.002.016l-.058-.008-.064-.01c.036-.035.062-.068.092-.087a.186.186 0 0 1 .027-.013L39.15.58a.275.275 0 0 0 .026-.008l-.06-.02-.066-.023-.007.015.02.014-.003.015-.132-.033-.002.01-.003.02v.004c-.016-.002-.03-.008-.042-.01-.005 0-.01 0-.013.002-.076.024-.153.052-.229.08-.007.002-.012.01-.02.017l.06.012-.004.022c-.03-.011-.058-.022-.09-.036l-.193.027-.004-.019c.02-.017.031-.033.033-.048.001-.014-.006-.029-.022-.04l-.114.046c-.028.011-.056.023-.085.03-.002 0-.004 0-.007-.002a.057.057 0 0 1-.015-.015L38.17.631c-.009-.015-.018-.027-.028-.026-.007.001-.013.006-.02.019a.11.11 0 0 1-.097.055h-.02a.405.405 0 0 1-.043-.007.209.209 0 0 0-.03-.004c-.01-.001-.019-.002-.028 0a.114.114 0 0 0-.055.02.078.078 0 0 1-.047.01L37.75.691l-.207-.019c-.01.089-.086.034-.129.088h.15v.024c-.06-.009-.123.001-.186 0a.342.342 0 0 1-.115-.023l-.027.008.005.074-.233.037-.003-.013.02-.02h-.569c.01-.008.017-.014.024-.018l.016-.012c-.002-.008-.002-.013-.004-.013l-.038-.008c-.038-.01-.077-.02-.115-.02-.012 0-.025.005-.035.006-.016.001-.027-.005-.03-.038l-.005-.001c-.014.037-.035.055-.062.055-.02 0-.042-.013-.067-.034a.067.067 0 0 1-.033-.014l-.012-.006a.143.143 0 0 1-.014.028.08.08 0 0 1-.025.022.02.02 0 0 1-.008.002c-.002 0-.004-.001-.005-.003-.005-.008-.01-.022-.017-.03a.177.177 0 0 0-.02-.025l-.01.003-.01.005-.006.002a.2.2 0 0 1-.075.014.337.337 0 0 1-.06-.006c-.03-.005-.059-.012-.09-.013-.008 0-.017.01-.041.026a1 1 0 0 0 .053-.002c.014 0 .026 0 .038.003.022.005.056.018.058.031.002.034.014.048.029.054.007.003.015.004.023.004.008.001.018 0 .026.002a.262.262 0 0 1 .034.007c-.044.008-.087.022-.128.025h-.03a.127.127 0 0 1-.084-.038l-.082.014-.002-.05c-.044.008-.09.014-.133.027-.041.013-.081.032-.135.053a.037.037 0 0 0-.016-.003c-.028.002-.068.033-.1.027-.015-.003-.027-.012-.037-.03l-.108.02-.002.014.095.048L35.08 1a4.482 4.482 0 0 1-.02-.06c-.011.01-.024.027-.035.027-.03 0-.07.005-.084-.016-.07-.101-.169-.096-.259-.12-.002 0-.005 0-.008.002l-.008.005a.141.141 0 0 1-.032.022.11.11 0 0 1-.034.01.113.113 0 0 1-.07-.021c-.014-.009-.03-.02-.046-.019-.015 0-.029.013-.035.05 0 .002-.002.003-.004.004a.06.06 0 0 1-.022.005h-.01l-.03-.009c-.01-.004-.02-.008-.03-.01a.095.095 0 0 0-.003.015l.024.018-.028.008-.06-.126-.028.036-.072.096c-.037-.038-.07-.146-.104-.181a.07.07 0 0 1-.02.004c-.023 0-.044-.005-.066-.006-.01 0-.02 0-.03-.002l.001.005c-.018.006-.042.02-.058.024-.005 0-.009 0-.013-.003a.08.08 0 0 0-.03-.02c-.008.003-.017.005-.024.01a.218.218 0 0 1-.06.032.143.143 0 0 1-.061.005c-.018-.002-.035-.007-.052-.006-.024.003-.048.01-.064.013-.017.016-.03.036-.038.033a1.979 1.979 0 0 1-.084-.03L33.396.76a.023.023 0 0 1-.002.008l-.001.002c-.002.003-.004.006-.006.006-.056.005-.113.005-.17.013l-.004.001a.027.027 0 0 0-.01.004c-.01.007-.021.018-.031.026l.001.003h-.003l.002-.003-.134.023a2.223 2.223 0 0 1-.403.022l.02-.074c-.021-.02-.046-.018-.067-.022-.022-.004-.04-.012-.047-.053l-.012-.003c-.006 0-.013 0-.015.004-.027.03-.052.066-.083.072a.044.044 0 0 1-.02 0c-.014-.003-.028-.013-.044-.03-.002-.003-.005-.004-.008-.004a.048.048 0 0 0-.033.009c-.014.01-.023.016-.03.017-.02.003-.014-.032-.013-.056a.074.074 0 0 0-.019-.004c-.018-.002-.038.004-.057.005a.06.06 0 0 1-.05-.018L32.14.71V.684S32.136.68 32.133.68a.101.101 0 0 0-.028.007l-.014.006a.098.098 0 0 0-.02.016l-.023.021-.005-.022c-.174.025-.358.057-.543.073-.005 0-.011 0-.017-.002-.008.011-.024.016-.044.016a.495.495 0 0 1-.069-.007.545.545 0 0 0-.044-.005c-.004 0-.007-.01-.014-.02l.032.004L31.336.7l-.011.018-.019.03-.006.009-.204-.031-.005-.02-.007-.027-.01.002v.026a.225.225 0 0 0-.022.01c-.015.007-.028.014-.04.017a.055.055 0 0 1-.016.002c0 .04-.018.047-.039.046-.015 0-.032-.005-.044-.004-.031.002-.062.003-.093.002h-.094V.8h.2a.15.15 0 0 1-.015.041c-.02.034-.05.048-.088.046h-.13c-.011 0-.024 0-.032-.003-.016-.004-.021-.017-.003-.055.003-.006.003-.02-.001-.024-.004-.005-.014-.007-.02-.006-.041.01-.082.022-.122.033-.003-.006-.004-.014-.006-.02L30.56.77h-.007c-.02-.002-.039-.008-.06-.008a.094.094 0 0 0-.05.015.162.162 0 0 1-.097.025c-.055-.003-.112-.026-.166-.047h-.001a.281.281 0 0 1-.041-.01V.738l-.052-.021-.01.042.118.044a.063.063 0 0 1-.032.028.033.033 0 0 1-.011.002.105.105 0 0 1-.05-.012c-.01-.004-.021-.012-.03-.01-.032.01-.064.034-.096.033-.049 0-.098-.023-.148-.024-.045-.002-.09.012-.14.02l.008-.05c-.016 0-.034-.003-.05-.004a1.003 1.003 0 0 1-.07-.01L29.534.77l-.021-.003a.143.143 0 0 1-.08-.046c-.01-.01-.02-.015-.03-.013-.03.003-.06.047-.092.056-.024.008-.046.026-.07.04-.001-.006-.003-.013-.006-.019l.026-.012L29.21.72v.028a.085.085 0 0 1-.014.039.059.059 0 0 1-.011.011.088.088 0 0 1-.05.014H29.078a.184.184 0 0 0-.067.01.055.055 0 0 0-.023.017.089.089 0 0 1-.02.022.04.04 0 0 1-.021.008.053.053 0 0 1-.03-.006c-.01-.004-.02-.01-.029-.015L28.88.843a.051.051 0 0 0-.029-.006.029.029 0 0 0-.019.008c-.003.003-.021-.034-.037-.044l-.036.009c-.02.002-.042 0-.06.006a.055.055 0 0 0-.016.009.08.08 0 0 1-.03.018.05.05 0 0 1-.015.002l-.013-.001-.028-.01-.027-.013a.08.08 0 0 0-.025-.007L28.53.82V.814c-.014.003-.024.017-.024.054 0 .017-.024.047-.037.047a.968.968 0 0 1-.165-.016c-.022-.003-.051-.006-.057-.047 0-.002-.007-.003-.01-.003 0 .01-.003.018-.005.026 0 .008-.002.015-.003.02-.014-.005-.023-.01-.031-.012L28.124.88C28.1.878 28.081.875 28.08.87a.088.088 0 0 0-.008-.029.137.137 0 0 0-.008.03c0 .005-.02.008-.044.01-.024 0-.053.001-.074.003-.009.001-.018.007-.031.012l-.004-.02-.005-.026-.01.003c-.005.04-.034.044-.056.047a.977.977 0 0 1-.165.016c-.013 0-.037-.03-.037-.047 0-.037-.01-.051-.025-.054V.82l-.012-.006a.135.135 0 0 0-.025.007l-.028.013a.103.103 0 0 1-.04.011c-.006 0-.01 0-.015-.002a.076.076 0 0 1-.03-.018.035.035 0 0 0-.017-.009c-.018-.006-.04-.004-.06-.006-.011-.002-.023-.006-.036-.01-.015.011-.033.048-.037.045a.046.046 0 0 0-.018-.008.06.06 0 0 0-.03.006l-.009.004-.029.015a.055.055 0 0 1-.03.006.04.04 0 0 1-.02-.008.093.093 0 0 1-.02-.022.045.045 0 0 0-.023-.018.184.184 0 0 0-.068-.01l-.034.001h-.021a.084.084 0 0 1-.05-.014c-.005-.003-.008-.007-.012-.011a.086.086 0 0 1-.013-.039.169.169 0 0 1 0-.028l-.053.055.026.012-.006.019c-.023-.014-.044-.032-.069-.04-.032-.009-.063-.053-.092-.056-.01-.002-.02.002-.03.013a.143.143 0 0 1-.08.046L26.61.77l-.042.005a.213.213 0 0 0-.021.002l-.05.008-.05.005.009.049c-.05-.008-.096-.022-.14-.02-.05.001-.099.024-.148.024-.032 0-.064-.023-.097-.032-.008-.003-.02.006-.03.01a.11.11 0 0 1-.05.011c-.003 0-.007 0-.01-.002a.058.058 0 0 1-.032-.028l.118-.044-.01-.042-.052.02v.008a.251.251 0 0 1-.04.009h-.001c-.055.022-.112.045-.167.047a.16.16 0 0 1-.096-.025.094.094 0 0 0-.051-.015c-.021 0-.04.007-.06.008h-.007l.053.042-.006.02L25.509.8c-.006-.002-.016 0-.02.006-.004.003-.005.018-.002.023.019.037.013.05-.002.055-.009.003-.021.003-.033.003h-.13c-.038.002-.069-.01-.087-.045a.153.153 0 0 1-.016-.042h.2v-.02h-.093c-.031 0-.063 0-.093-.002-.014 0-.03.004-.045.004-.02.001-.039-.005-.039-.045l-.015-.002c-.012-.004-.025-.01-.04-.017l-.024-.01V.68l-.009-.002-.007.027-.005.019-.204.031-.006-.009-.01-.016a.101.101 0 0 1-.022-.016l-.005.053.032-.004c-.006.01-.01.02-.014.02-.013 0-.029.002-.044.004-.024.003-.049.007-.069.007a.065.065 0 0 1-.034-.009c-.004.02-.01.034-.015.034h-.009l.007-.039c-.003 0-.007.002-.01.001-.186-.016-.37-.048-.543-.073l-.005.022-.022-.021a.1.1 0 0 0-.021-.016.06.06 0 0 0-.014-.006.101.101 0 0 0-.028-.007c-.004 0-.006 0-.006.002V.71L23.99.708a.06.06 0 0 1-.051.018C23.919.724 23.9.718 23.88.72a.041.041 0 0 0-.018.004c0 .024.006.059-.013.056-.007-.001-.016-.006-.03-.017a.048.048 0 0 0-.032-.01.01.01 0 0 0-.008.004.094.094 0 0 1-.045.03.044.044 0 0 1-.02 0c-.03-.005-.056-.042-.083-.071-.003-.003-.01-.004-.015-.004-.006 0-.012.002-.012.003-.007.04-.025.05-.047.053-.021.004-.046.002-.066.022l.019.074c-.045.003-.09.003-.135.003a2.236 2.236 0 0 1-.268-.025L22.974.82l.002.003h-.003l.001-.002c-.01-.008-.02-.02-.031-.026l-.01-.004-.004-.002c-.056-.007-.113-.007-.17-.013-.002 0-.004-.003-.006-.006V.768a.02.02 0 0 1-.003-.007l-.087.033c-.028.011-.056.021-.085.03-.007.003-.02-.017-.037-.033-.016-.003-.04-.01-.064-.012-.017-.001-.035.004-.052.006a.157.157 0 0 1-.061-.005.202.202 0 0 1-.06-.032c-.007-.005-.015-.007-.024-.01a.09.09 0 0 0-.03.02c-.003.002-.008.003-.014.002-.015-.002-.04-.018-.057-.024V.732l-.03.002c-.021 0-.043.006-.064.005a.067.067 0 0 1-.021-.003c-.034.035-.068.142-.104.18a6.643 6.643 0 0 1-.072-.095l-.027-.037-.061.127-.028-.008.024-.018a.106.106 0 0 1-.004-.016 1.29 1.29 0 0 0-.029.01.228.228 0 0 1-.03.01h-.01A.06.06 0 0 1 21.7.884c-.003-.001-.005-.003-.005-.004-.005-.037-.019-.05-.034-.05-.015 0-.033.01-.046.019a.118.118 0 0 1-.07.02.083.083 0 0 1-.034-.01.17.17 0 0 1-.032-.021.019.019 0 0 0-.008-.005C21.469.83 21.466.83 21.464.83c-.09.024-.189.018-.259.12-.014.02-.055.015-.084.016-.011 0-.024-.018-.035-.027a6.309 6.309 0 0 1-.02.06l-.132-.023.095-.048-.003-.014-.107-.02c-.01.018-.023.027-.036.03-.034.006-.073-.025-.101-.027-.006 0-.011 0-.016.003-.054-.022-.094-.041-.135-.053-.044-.013-.089-.018-.134-.028l-.001.051-.082-.014a.125.125 0 0 1-.083.038h-.03c-.042-.004-.085-.017-.129-.025l.034-.008.025-.001a.064.064 0 0 0 .024-.004c.015-.006.026-.02.03-.054 0-.013.035-.026.056-.031.012-.003.024-.003.04-.003l.052.001C20.41.755 20.4.744 20.391.744c-.03.002-.06.008-.09.013a.41.41 0 0 1-.06.007.186.186 0 0 1-.081-.017l-.01-.004-.009-.004a.232.232 0 0 0-.02.025c-.006.009-.012.024-.017.03-.001.003-.003.004-.005.004a.02.02 0 0 1-.009-.002.08.08 0 0 1-.024-.023c-.006-.008-.01-.018-.015-.027l-.011.006a.07.07 0 0 1-.033.014c-.025.022-.047.033-.068.033-.026 0-.047-.018-.061-.055l-.005.002c-.003.033-.015.039-.03.038-.011-.002-.023-.006-.035-.006a.489.489 0 0 0-.115.02l-.038.008-.004.013.016.012.024.017h-.57l.021.021-.003.013-.233-.038.005-.073-.028-.008a.342.342 0 0 1-.114.023c-.063.002-.126-.008-.187 0V.762h.15c-.042-.054-.117 0-.128-.088-.067.006-.137.014-.207.018l-.052.006c-.017.002-.034 0-.047-.01a.114.114 0 0 0-.056-.02h-.027l-.03.005a.4.4 0 0 1-.043.006l-.02.001a.11.11 0 0 1-.097-.056c-.007-.011-.014-.016-.02-.018-.01-.001-.02.01-.029.026a.033.033 0 0 1-.006.009c-.005.006-.01.011-.015.014-.003.002-.005.003-.008.002a4.966 4.966 0 0 1-.199-.075c-.015.011-.023.025-.021.04.001.015.012.031.032.048l-.003.019c-.067-.01-.135-.02-.192-.027l-.09.036-.005-.022.06-.013c-.007-.007-.013-.015-.02-.017a5.316 5.316 0 0 0-.23-.079l-.012-.001c-.013 0-.026.007-.041.009V.57a.19.19 0 0 1-.004-.019l-.003-.01c-.046.01-.088.022-.131.033a.116.116 0 0 0-.003-.016l.02-.013-.008-.015-.065.023-.06.02.026.008c.018.005.037.01.055.017l.028.013c.03.018.055.052.092.087l-.064.01-.059.008L17.05.7l.025-.027c-.01-.009-.02-.026-.03-.028-.016-.002-.031-.002-.046-.002h-.045V.635l.049-.012c-.027 0-.054-.015-.081-.019-.02-.003-.04 0-.058.017a.122.122 0 0 0-.018.022c0 .002-.003.003-.006.003l-.013-.003a.114.114 0 0 1-.014-.005l-.013-.005a.229.229 0 0 1-.017-.006c-.017-.007-.036-.016-.04-.01-.03.053-.07.048-.109.044l-.02-.001h-.019l-.055.007c0-.008 0-.014-.002-.018a.025.025 0 0 0-.004-.01c-.004-.006-.007-.007-.012-.006a.028.028 0 0 0-.013.008c-.005.004-.008.008-.01.011-.004.007-.009.013-.014.017a.095.095 0 0 1-.03.022c-.027.012-.057.01-.085.014-.017.002-.044.006-.058.006-.004 0-.007 0-.008-.002-.004-.016-.008-.023-.013-.027-.003-.001-.005-.002-.008-.001-.006 0-.012.005-.017.009a.05.05 0 0 1-.016.008c-.003 0-.005 0-.007-.003a.065.065 0 0 1-.016.027.027.027 0 0 1-.009.005h-.009l-.01-.002c-.009-.003-.019-.011-.03-.019-.015-.01-.033-.013-.05-.02a.085.085 0 0 1-.035-.017l-.017-.014c.001.006.004.01.005.017l-.103.023-.003-.015.032-.01c-.02-.038-.047-.038-.07-.008-.015.02-.017.028-.033.021v.05l.047.01a.141.141 0 0 1-.056.026c-.097.026-.256.001-.29-.047a.25.25 0 0 1-.017.02c-.016.016-.03.024-.043.023-.016 0-.03-.016-.044-.046l-.005.013a.351.351 0 0 1-.014.03.085.085 0 0 0-.035-.006c-.018 0-.036.004-.054.004a.076.076 0 0 1-.054-.019.048.048 0 0 0-.017-.009.091.091 0 0 0-.02-.002c-.015 0-.03.002-.043.003l-.003.004-.005.036c-.003.006-.01.01-.014.015l-.069.06.015.004.037.009a.096.096 0 0 1-.043.008C15.13.866 15.1.838 15.07.831a2.703 2.703 0 0 0-.202-.046 1.136 1.136 0 0 0-.273-.017 1.046 1.046 0 0 0-.068.009.092.092 0 0 1-.028 0 .291.291 0 0 1-.06-.015L14.41.753c-.039-.01-.078-.025-.118-.035-.036-.01-.073-.016-.11-.024l.002-.023.025.002.028.004-.003-.01-.005-.01c-.003-.008-.005-.015-.008-.015-.037 0-.075-.004-.113-.005-.019 0-.038 0-.056.002a.287.287 0 0 0-.054.01.448.448 0 0 1-.123.022.294.294 0 0 1-.192-.067A.021.021 0 0 0 13.67.6l-.018.003a.082.082 0 0 0-.015.007.025.025 0 0 0-.01.01.13.13 0 0 1-.026.043.074.074 0 0 1-.05.023.258.258 0 0 1-.057-.004c-.023-.003-.046-.008-.073-.013a5.396 5.396 0 0 0-.061-.08c-.003.091-.04.103-.087.098-.03-.003-.06.004-.092.007l-.083.01a3.036 3.036 0 0 0-.009-.085c-.017.009-.04.015-.04.023-.004.077-.056.076-.082.054-.042-.035-.084-.038-.13-.046-.035-.006-.07-.016-.107-.02-.074-.01-.146-.031-.224-.006-.044.014-.095-.006-.144-.008a.114.114 0 0 0-.045.011l-.128.059.023.012h-.138l-.007-.045c-.038-.014-.074.1-.098.014h-.113c-.052.002-.028-.08-.067-.084l.023-.043h-.14l.047-.044-.193-.023c-.022-.003-.048-.004-.063-.018-.042-.04-.058-.007-.074.02l.058.048-.008.018-.107-.036-.007.066h-.23l.012-.05c-.054.09-.127.095-.203.09-.044-.003-.061-.035-.05-.071-.045.003-.095.001-.143.013-.078.018-.144-.01-.211-.055-.028-.02-.081-.029-.101-.008-.067.065-.135.099-.221.074l-.01.057C10.07.628 9.972.69 9.89.585L9.873.65c-.032-.014-.06-.026-.087-.04-.027.072-.059.08-.097.027C9.679.624 9.65.613 9.644.62c-.035.034-.069.035-.106.01-.005-.005-.016-.004-.023 0-.046.025-.061.024-.08-.019-.019-.041-.04-.024-.061-.01-.013.01-.028.031-.037.028-.074-.024-.162.044-.224-.055-.005-.007-.025-.011-.027-.008C9.05.63 9 .593 8.959.59c-.067-.003-.141.02-.2-.053-.003-.004-.03.008-.03.013-.003.034-.01.036-.03.014-.01-.012-.03-.032-.033-.029-.055.062-.116.015-.172.01C8.452.54 8.382.578 8.38.469c-.065.038-.125.075-.192.025-.014-.011-.027-.036-.041-.038-.07-.01-.139-.05-.213-.033-.016.004-.036-.019-.063-.034-.049.028-.083.02-.103-.023l-.042.03c-.012.009-.025.016-.038.024.025.017.048.019.07.021.01 0 .018.002.026.004a.167.167 0 0 1 .02.008h.002c.041.02.064.065.067.133-.001.059-.036.036-.06.036-.019 0-.052-.017-.056-.01-.03.069-.07.017-.105.016-.018 0-.041-.012-.054-.002-.047.037-.092.034-.144.023C7.37.632 7.285.626 7.2.616L7.202.59h.167a3.959 3.959 0 0 1-.045-.017l.042-.048C7.23.576 7.114.52 6.992.511L7 .474C6.956.467 6.912.452 6.87.456c-.027.002-.06-.037-.09.026-.022.047-.08.021-.106-.022L6.643.54l.136.027-.063.068.325.068c0 .01-.002.019-.004.028L6.871.718c-.033-.003-.075.008-.097-.013C6.732.667 6.7.658 6.657.692c-.006.005-.02-.007-.045-.017a.262.262 0 0 0 .03-.017l-.165-.11-.023.061c-.049-.052-.087-.034-.13.007-.05.049-.118.037-.14-.013-.026.057-.082.068-.125.028-.011-.01-.035.003-.054.005-.022.002-.06.013-.065.002a.096.096 0 0 0-.03-.04l-.025.008-.06.017.026.006c.018.005.037.008.055.015l.028.01c.03.015.055.042.092.07l-.064.009-.059.007-.001-.014.025-.02c-.01-.009-.02-.022-.03-.023C5.88.68 5.865.68 5.85.68h-.045V.674l.049-.01c-.027 0-.054-.012-.081-.015a.077.077 0 0 0-.076.032c0 .001-.003.002-.006.001-.004 0-.008 0-.013-.002a.084.084 0 0 0-.014-.004L5.652.673 5.635.668C5.618.663 5.6.656 5.595.66c-.03.043-.07.039-.109.036h-.039c-.018 0-.037.003-.055.004 0-.006 0-.01-.002-.014a.016.016 0 0 0-.004-.008C5.382.673 5.379.673 5.374.673A.025.025 0 0 0 5.36.68l-.01.009a.092.092 0 0 1-.044.032C5.28.73 5.25.729 5.222.73c-.017.002-.044.006-.058.005-.004 0-.007 0-.008-.002-.004-.012-.008-.019-.013-.021C5.141.71 5.138.71 5.135.71c-.006 0-.011.004-.017.007L5.11.723a.016.016 0 0 1-.008.002c-.003 0-.005 0-.007-.002a.051.051 0 0 1-.016.02.024.024 0 0 1-.009.005h-.009c-.003 0-.006 0-.009-.002-.01-.003-.02-.01-.03-.015C5.006.722 4.988.719 4.97.715L4.953.71a.33.33 0 0 1-.034-.02l.005.012-.103.02-.003-.013L4.85.7C4.83.67 4.803.67 4.78.694c-.015.016-.017.024-.033.018v.04l.047.008a.152.152 0 0 1-.056.02c-.097.022-.256 0-.29-.037a.29.29 0 0 1-.017.015c-.016.013-.03.02-.043.02-.016 0-.03-.013-.044-.036l-.005.01a.272.272 0 0 1-.01.02l-.003.004A.084.084 0 0 0 4.29.771l-.054.003A.088.088 0 0 1 4.182.76a.036.036 0 0 0-.017-.007l-.02-.001-.043.002-.003.004-.005.028c-.003.005-.01.009-.014.012L4.01.846l.015.003.037.007a.102.102 0 0 1-.042.006c-.04-.001-.068-.023-.1-.03A3.668 3.668 0 0 0 3.72.795a1.469 1.469 0 0 0-.273-.014.712.712 0 0 0-.068.008.092.092 0 0 1-.028 0C3.33.787 3.31.78 3.292.776L3.263.77 3.145.74C3.11.732 3.072.727 3.035.721l.002-.019.025.003.028.003L3.087.7 3.082.69C3.08.686 3.077.68 3.074.68c-.037 0-.075-.004-.113-.004l-.056.001a.352.352 0 0 0-.054.009.537.537 0 0 1-.123.018.34.34 0 0 1-.192-.054C2.533.647 2.529.647 2.523.647a.076.076 0 0 0-.033.008.021.021 0 0 0-.01.008.104.104 0 0 1-.026.034.084.084 0 0 1-.05.018c-.018.002-.037 0-.057-.002a2.305 2.305 0 0 1-.073-.011L2.213.637c-.003.073-.04.082-.087.08-.03-.003-.06.002-.092.004L1.951.73A2.212 2.212 0 0 0 1.942.66c-.017.008-.04.013-.04.02-.004.062-.056.06-.082.043-.042-.029-.084-.03-.129-.037C1.655.68 1.619.673 1.583.669 1.51.661 1.437.644 1.36.664 1.315.676 1.264.66 1.215.658a.141.141 0 0 0-.045.009c-.045.015-.088.033-.128.047l.023.01H.927L.92.688C.882.676.846.768.822.698H.71C.657.702.68.636.642.632L.665.597h-.14L.572.562C.498.555.44.55.38.543.357.541.331.54.315.53.275.497.258.523.242.545L.3.584a.255.255 0 0 1-.008.014L.185.57.178.623h-.23l.012-.04C-.094.654-.094.482-.171.48-.214.478-.231.452-.221.422c-.045.003-.095.002-.142.011A.306.306 0 0 1-.575.39 1.414 1.414 0 0 0-.829.332L-.412.32C-.4.327-.378.327-.37.319c.042-.045.088-.018.134-.01a.36.36 0 0 0 .079.004C-.12.31-.082.3-.044.298l.13-.001A.061.061 0 0 1 .065.274c-.046 0-.08-.002-.115 0-.06.003-.121.01-.182.011C-.245.285-.258.27-.27.26L-.317.212l-.029.076c-.061 0-.129.002-.196-.001C-.574.285-.614.31-.636.254-.64.248-.673.252-.674.257c-.012.058-.046.026-.07.027-.022 0-.043-.009-.066-.01L-1 .26V.244l.248-.016-.064-.092.005-.023h.28l.005-.027-.053-.06c.056-.01.1-.03.144-.024.033.005.071.032.09.064.01.014-.004.056.03.052C-.257.112-.202.1-.148.092c.016-.002.032.007.046.01.022-.049.05-.077.098-.04.011.01.03.008.044.003.03-.01.068-.043.09-.03.063.033.12-.013.18-.009.093.007.185-.008.278-.01.03 0 .06.012.09.018.017.002.04-.022.058-.017C.787.032.838.059.89.08L.749.123a.596.596 0 0 0 .01.021h-.19L.565.167l.039.045C.63.2.652.18.673.184a.759.759 0 0 1 .14.042C.837.236.86.25.885.263L.898.258.897.233 1 .24l.003-.008.039.01.117.008c.063-.047.14-.002.206-.024.008-.003.027-.001.029.002.015.041.04.041.065.036.014-.022.055-.016.051-.044l-.04-.024.001-.014.562-.028v.009l-.065.01.112.03c.014.003.03.011.042.008.045-.012.09-.03.133-.044a.872.872 0 0 1 .075-.02c.049-.011.117-.034.136.026.022.068.041.03.059.018.108-.076.218-.068.332-.027.015.006.035-.002.053-.005.06-.012.119-.032.178-.036.11-.006.221.07.332.07.002 0 .004-.005.006-.007a.703.703 0 0 0-.025-.022L3.408.14l.125.037c.03-.016.059-.04.09-.043.059-.007.119-.003.179-.002.045.001.099-.013.135.012.034.023.05.063.076-.005.002-.006.029.002.044.003.013.002.03.01.035.003.045-.066.078-.003.105.01.022-.015.039-.038.054-.036.078.009.155.027.233.036.085.01.171.013.26.02L4.74.168a.212.212 0 0 1 .141.014c.008.002.017.003.026.002h.005c.025-.003.053-.015.079-.021h.002c.006-.012.013-.027.02-.036l.001-.003C5.017.122 5.02.12 5.022.12c.096-.013.19-.03.284.022.044.024.097.025.148.037.025.093.112-.08.142-.023.036.068.07.03.108.019.043.037.116.063.036-.052.062.09.147.03.215.032.052.002.093-.001.138.036.025.022.06.027.083.036.005.026.005.055.017.072.01.015.034.016.05.024-.046-.025-.048-.03-.028-.117.04.03.077.054.112.084.04.034.069.024.082-.036l.006-.039h.01l.018.066c.009-.032.011-.06.02-.063.027-.01.058-.01.087-.015.049-.009.097-.01.146-.016.1-.013.205-.056.303.019.007.005.015.01.023.008.037-.008.075-.02.113-.026.04-.004.08 0 .132 0 .05-.086.056.063.096.058.037-.072.128-.082.219-.02-.018-.063.003-.075.048-.072.07.004.141.001.217.001L7.815.122c.057.017.12-.055.168.027.005.01.043.008.05-.003.045-.077.103-.008.153-.025.022-.007.048.012.072.01.053 0 .109-.03.148.047.008.015.037.023.054.02.05-.009.099-.026.144-.038l.02.061.12-.083.084.09a.99.99 0 0 0 .017-.05S8.833.17 8.825.167c.01-.005.018-.011.027-.012.017-.001.036-.004.052.003.05.021.077-.007.084-.04.067-.011.122-.02.177-.031V.07L9.128.052c.161-.029.306.02.45.094.008-.013.014-.036.025-.04.026-.011.075-.028.078-.018.026.06.061.05.093.025.08-.065.166-.017.249-.033.005-.001.013.01.018.018.034.041.057.025.077-.019.009.009.035-.004.077-.014.031-.006.066.01.1.015.002 0 .005-.007.009-.01.063-.032.13-.004.174.067.009.014.032.014.048.021l-.054-.082.01-.02c.033.009.07.009.1.027.051.034.098.079.15.116.01.007.034.007.04-.003.044-.056.09-.022.135-.013a.289.289 0 0 0 .08.005c.037-.004.074-.017.113-.018.08-.003.16 0 .25 0L11.284.12c.016-.013.025-.026.035-.027.036-.005.073-.004.11-.008.04-.004.083-.002.119-.02.058-.028.11.009.164.015.047.006.092.031.138.047.002.001.006-.011.01-.012.027-.004.064-.021.082-.006.047.042.082.02.125-.007.015-.01.04.003.06.01.01.003.018.017.028.025l.01-.015-.022-.02a.169.169 0 0 0 .005-.018l.078.027c.02.006.052.025.058.016.065-.094.153-.02.226-.05.008-.004.027-.003.029.002.026.089.08.025.12.032.084.016.171.013.266.017l-.06-.038c.008-.006.013-.013.018-.013.083 0 .168-.013.25.005l.015.001c.04 0 .096-.02.108.065.014-.008.032-.011.042-.024.039-.052.085-.05.122-.009.027.029.047.027.071.017l.025-.011a.307.307 0 0 1 .086-.025l.029-.001c.018 0 .036.005.053.011l.054.018.006-.002c.005-.003.012-.013.015-.016l.05.063.013-.019-.008-.012c-.009-.013-.02-.027-.034-.05l.195.015.061.005-.002.02-.003.029v.01a.635.635 0 0 0 .02-.01c.02-.009.04-.018.06-.02.098-.007.197-.01.296-.016.03-.001.06-.005.089-.008l.044-.005.044-.001c.073 0 .147.007.22.015a.532.532 0 0 1 .066.014l.065.017-.002.012-.086.005c.031.009.06.021.088.028a.19.19 0 0 0 .029.004.245.245 0 0 0 .112-.023c.013-.005.014-.046.021-.073h.062c.063.005.126.008.188.015.01.001.02.018.027.024.003.003.005.004.008.003a.255.255 0 0 1 .265.03c.003.002.008.002.014.001l.018-.002-.02-.044-.012-.023.127.017.113.016c.012.002.024.009.034.014.012.006.023.01.033.008.091-.022.18-.041.273-.004l-.006.036-.01.05c.062-.07.124-.105.187-.098a.206.206 0 0 1 .113.058c.02-.03.05-.045.081-.046a.121.121 0 0 1 .087.03.121.121 0 0 1 .035.055h.102l-.06-.075a.398.398 0 0 1 .196-.033c.033.002.064.01.09.02.025.011.046.026.057.045.003-.006.006-.01.01-.011a.036.036 0 0 1 .013-.005c.012-.004.033-.009.073-.027a.194.194 0 0 1 .075-.017c.016 0 .033 0 .049.002.023.003.047.006.072.007.134.002.267.01.402.015v.027l-.055-.01.013.02c.018.024.039.036.058.034a.05.05 0 0 0 .039-.026c.032-.051.069-.06.11-.06.006 0 .012 0 .018.002.039.004.092.003.114.033.018.026.033.035.046.035.022 0 .04-.025.058-.044l.125.084.01-.017-.04-.055h.117l.003.013.013.055.02-.047c.008.009.017.02.028.03.001-.017 0-.037.002-.048 0-.003.002-.006.004-.008a.156.156 0 0 1 .071-.03.189.189 0 0 1 .077.009c.007 0 .014.003.022.005a.135.135 0 0 0 .068-.002l.018-.004h.018c.038 0 .078.018.09.041.025-.007.042-.014.06-.018a.15.15 0 0 1 .036-.003l.017-.001.016-.002h.016a.02.02 0 0 1 .01.006c.018.022.037.03.055.03.018 0 .037-.01.052-.02.016-.013.03-.019.042-.019.005 0 .008 0 .012.002.014.005.026.021.035.046.02-.017.039-.03.056-.045l.01.007c.012.01.025.02.03.016a.097.097 0 0 1 .02-.013c.02-.01.04-.01.06-.01.028.002.055.007.082.004.03-.005.047.01.057.044 0 .002.008 0 .016.001L19.52.22l-.014-.043c.02.008.042.01.063.01l.061-.002c.04 0 .078.005.111.045.008-.034.013-.048.023-.045a.043.043 0 0 1 .014.011l.01.012c.006.008.014.013.023.019l.027.016.007-.04.003-.02.008.037c.018-.011.04-.037.05-.03.011.006.023.01.033.01h.017c.022 0 .045-.007.067-.007.006 0 .012.001.017.003a.04.04 0 0 0 .013.001l.027-.002c.021-.002.042.005.05.06l.013-.069c.003 0 .007 0 .01.002v.02l.222.041c.017.003.04.018.048.01a.22.22 0 0 1 .03-.023.266.266 0 0 1 .157-.035l.065.002c.024 0 .048.02.082.036.037-.022.056-.033.076-.033l.016.003c.016.004.037.015.07.032.008.004.025-.019.033-.025h.113c.037 0 .075 0 .112.002.006 0 .011.002.017.004.017.005.033.013.055-.002.021-.013.059.018.09.026l.012.001c.013 0 .026-.003.04-.001.008 0 .015.002.022.009a.07.07 0 0 1 .017.033c0 .001.003.002.007.002.01.002.032 0 .04-.008-.012-.006-.023-.013-.033-.02l.004-.014a.691.691 0 0 1 .054.006c.01-.007.02-.01.03-.01.01 0 .018.004.028.007l.023.01h.007c.016 0 .031 0 .047-.003a.239.239 0 0 1 .039-.003c.036-.01.078-.033.11-.035h.017l.015.006a.136.136 0 0 0 .065.026l.02-.002h.026a.202.202 0 0 0 .04-.017c.026-.014.056-.022.077-.029l.02-.005.015.025.01.017c.018 0 .036 0 .053.002.02-.028.046-.045.077-.045a.108.108 0 0 1 .044.01c.023.008.047.02.07.018.015 0 .03-.002.046-.004.046-.007.092-.018.137-.02.023-.002.048.018.084.033l.027-.023.052.068.006-.058c.014.01.032.02.048.032a.103.103 0 0 1 .084-.04.1.1 0 0 1 .076.046.017.017 0 0 1 .003.004.103.103 0 0 0 .024-.013c.008-.007.02-.008.032-.007l.006-.002c.004 0 .008.003.011.005l.02.004c.01.001.018.01.027.018l.01.002a.049.049 0 0 0 .017-.004.077.077 0 0 0 .009-.025c0-.002.004-.004.007-.006.004-.001.008-.002.011-.001.01.003.022.005.033.006.021 0 .043-.002.065-.005l.032-.004a.608.608 0 0 1 .072-.006h.025l.024.003a.159.159 0 0 1 .07.031h.003l.025-.022-.003.044c.019-.003.04-.017.06-.044a.029.029 0 0 1 .012-.01c.03-.013.09.012.123.015h.006c.083-.02.164-.029.244-.03.084-.001.165.005.247.013l.02-.006a.164.164 0 0 1 .1.012l.011.007.017.002.002-.024c.01.003.028 0 .032.009l.006.008a.245.245 0 0 1 .066-.012c.021 0 .043.002.063.007l.057-.007c.005 0 .012.005.015.003l.026-.016.02-.01a.046.046 0 0 1 .014-.003c.005 0 .008.001.012.003.007.005.012.015.016.033v.002a1.128 1.128 0 0 0 .056-.007h.005l.044-.008a.161.161 0 0 1 .045-.006c.008 0 .017.003.025.007l.108-.006.038-.001h.019l.016.001.04-.001.067.002.008.003.012.01.008-.01c.002-.001.003-.003.005-.003.035 0 .072-.008.104.002l.009-.003h.013a.43.43 0 0 0 .061.007c.04.001.082-.002.122-.005l.06-.003h.035c.005 0 .01.004.014.006.002-.002.006-.004.009-.004.117 0 .234.007.351.014.004 0 .008.001.011.004.01.005.02.014.032.023l.006-.002a.054.054 0 0 1 .024-.02l.021-.025.018.02h.005c.01 0 .018.002.028.003.004 0 .009 0 .014-.002.007-.001.016.01.028.024l.001.001a.378.378 0 0 1 .234-.024.027.027 0 0 1 .015.012l.037.001.02-.004a.543.543 0 0 1 .074-.015c.008 0 .016 0 .023.004l.034.02.018.01.008.002a.087.087 0 0 0 .024-.017c.013-.013.022-.017.03-.015.012.002.021.015.03.029h.002c.037-.02.08-.02.12-.025.01 0 .019 0 .028.002l.007-.003a.13.13 0 0 1 .031-.007h.013l.004-.008.003.009c.014.003.029.01.043.025l.005.003c.005 0 .008-.002.012-.003a.525.525 0 0 1 .073-.011c.011-.006.021-.013.032-.012l.181.008.162.009a.181.181 0 0 1 .07-.015c.057.002.113.008.17.016l.01-.002a.756.756 0 0 1 .118-.001h.024c.018 0 .037.001.055.003.006 0 .012.004.018.008a.06.06 0 0 0 .008.005c.006.004.012.008.018.007.005 0 .01-.004.016-.013a.069.069 0 0 0 .008-.019l.007-.001c.01 0 .026.004.04.009l.002-.001a.022.022 0 0 1 .02.005.089.089 0 0 1 .023.035c.016-.03.035-.044.056-.05a.121.121 0 0 1 .036-.004h.006l.015.001h.016c.006 0 .014.005.02.007l.02-.006h.016c.005-.002.01-.003.015-.002h.006a.12.12 0 0 1 .036.004c.021.006.04.021.056.05a.088.088 0 0 1 .023-.035.023.023 0 0 1 .02-.005h.002a.179.179 0 0 1 .04-.008l.007.001.008.019c.005.01.01.013.016.013a.034.034 0 0 0 .018-.007l.008-.005a.037.037 0 0 1 .018-.008c.018-.002.037-.003.055-.003h.024c.02-.002.04-.002.06-.002.02 0 .038.002.057.003.005 0 .008 0 .012.002.056-.008.112-.014.168-.016.024-.001.048.007.071.015a233.599 233.599 0 0 1 .343-.017c.01 0 .02.006.031.012a.506.506 0 0 1 .073.01l.013.004.005-.003a.088.088 0 0 1 .043-.025l.003-.01.004.009h.013a.082.082 0 0 1 .038.01.12.12 0 0 1 .027-.002c.04.005.084.005.121.024h.002c.009-.013.018-.025.03-.028.008-.002.018.002.03.015a.088.088 0 0 0 .023.017A78212062820.277 78212062820.277 0 0 1 29.65.25l.035-.02a.035.035 0 0 1 .023-.004c.009 0 .018.002.026.003l.049.012.02.004.036-.001a.027.027 0 0 1 .015-.012.177.177 0 0 1 .063-.01.42.42 0 0 1 .17.034l.002-.001c.012-.013.021-.025.028-.024a.08.08 0 0 0 .014.002c.009 0 .018-.002.028-.004h.005l.018-.02.021.025c.008.005.016.01.023.02.002.002.003.003.006.003h.001c.012-.009.022-.018.032-.023.003-.003.007-.003.01-.004.118-.007.235-.014.352-.014.003 0 .006.002.01.004.004-.002.008-.005.013-.006h.034l.06.003c.041.003.082.006.123.005.02 0 .04-.003.061-.007h.013l.01.003c.03-.01.068 0 .103-.002.002 0 .003 0 .005.003l.007.01.013-.01a1.062 1.062 0 0 1 .114-.004l.017-.001h.02l.037.001.108.006A.062.062 0 0 1 31.4.213a.2.2 0 0 1 .044.006l.044.008h.006l.007.002.048.005V.232c.005-.017.01-.028.017-.033a.017.017 0 0 1 .011-.003l.016.003a.125.125 0 0 1 .02.01l.024.016c.004.002.01-.003.016-.003l.057.007a.217.217 0 0 1 .13.005l.005-.008c.004-.008.02-.006.032-.009 0 .013.002.026.002.024l.017-.002c.003-.003.006-.006.01-.007a.163.163 0 0 1 .102-.012l.019.006c.082-.008.164-.014.247-.013.08.001.16.01.244.03h.006c.032-.004.093-.028.123-.014a.034.034 0 0 1 .012.009c.02.027.04.04.06.044l-.003-.044.024.021c.002.001.003.002.004.001a.16.16 0 0 1 .07-.031l.024-.003h.025c.024 0 .048.004.072.006l.032.004c.022.003.044.006.065.005l.033-.006a.02.02 0 0 1 .01.001c.004.002.008.004.008.006.003.013.006.02.01.025a.05.05 0 0 0 .017.004l.01-.002c.008-.008.017-.017.025-.018l.02-.004.012-.006.005.002c.014-.001.025 0 .033.007l.023.014a.017.017 0 0 0 .004-.005.1.1 0 0 1 .076-.045c.03-.002.06.013.084.04.016-.013.034-.024.047-.033l.007.059.052-.068.027.022c.036-.015.06-.035.084-.033.046.003.091.013.137.02.015.002.03.004.046.004.023.002.046-.01.07-.019L33.894.2a.102.102 0 0 1 .02-.002c.032 0 .056.017.077.045l.053-.001.01-.018.016-.025.019.006c.022.006.05.014.078.029a.225.225 0 0 0 .04.016h.026l.02.002a.153.153 0 0 0 .064-.026.036.036 0 0 1 .015-.005.046.046 0 0 1 .017-.001c.033.002.075.024.111.035.013 0 .026 0 .039.003a.252.252 0 0 0 .047.004h.007l.023-.01a.086.086 0 0 1 .028-.008c.01 0 .02.003.03.01l.054-.006.004.015a.62.62 0 0 1-.032.02c.007.007.028.008.039.008.004 0 .006-.002.007-.002a.071.071 0 0 1 .017-.034.035.035 0 0 1 .023-.01c.012 0 .026.003.039.002l.012-.001c.03-.008.068-.039.09-.025.023.013.038.006.055.001.006-.001.01-.004.017-.004.038-.003.075-.003.112-.003l.113.001c.008.006.025.028.032.025.034-.017.054-.028.071-.032a.064.064 0 0 1 .016-.002c.02 0 .039.01.076.032.034-.016.058-.035.082-.036L35.526.2c.054 0 .107.003.157.035l.03.024c.009.008.032-.008.048-.01l.222-.043v-.02h.01l.013.068c.01-.055.029-.061.05-.06l.027.002.013-.001a.07.07 0 0 1 .017-.002c.022-.001.044.006.067.007h.017a.076.076 0 0 0 .033-.012c.01-.005.032.02.05.032l.008-.037.003.02.007.04.027-.017c.009-.006.017-.01.023-.019l.01-.011a.037.037 0 0 1 .014-.012c.01-.003.015.01.023.046.033-.04.071-.047.11-.045l.062.002a.16.16 0 0 0 .063-.01l-.014.043a.055.055 0 0 0-.002.01c.008 0 .016 0 .016-.002.01-.035.026-.048.057-.044.027.004.055-.002.081-.004.02 0 .04 0 .061.01a.097.097 0 0 1 .02.013c.005.004.018-.007.03-.015l.01-.008c.017.015.035.03.056.045.009-.025.02-.04.035-.045a.03.03 0 0 1 .012-.002c.012 0 .026.005.042.018a.09.09 0 0 0 .052.02c.018 0 .037-.008.055-.03a.02.02 0 0 1 .01-.006h.015l.017.002.017.001c.012 0 .024 0 .036.003l.06.018c.012-.023.052-.04.09-.041h.018l.018.004a.143.143 0 0 0 .068.002.246.246 0 0 0 .022-.006.163.163 0 0 1 .077-.009.156.156 0 0 1 .071.031.016.016 0 0 1 .004.008c.002.011 0 .03.002.049l.029-.031.019.048.013-.056.003-.013h.117c-.016.02-.028.037-.04.055l.01.017.125-.084c.019.02.036.044.058.044.013 0 .028-.009.046-.034.022-.03.075-.03.114-.034l.018-.001c.04-.002.078.008.11.06.01.015.024.024.039.025.02.002.04-.01.058-.034a.165.165 0 0 0 .013-.02l-.056.01V.167c.136-.005.27-.013.403-.015.024 0 .048-.003.072-.006.016-.002.032-.003.049-.003.024 0 .049.006.075.017.04.018.06.023.073.027.006.001.01.003.014.005a.035.035 0 0 1 .008.01.131.131 0 0 1 .058-.043.297.297 0 0 1 .09-.021.397.397 0 0 1 .195.033l-.06.075h.103a.12.12 0 0 1 .122-.085c.03.002.06.017.08.046a.208.208 0 0 1 .114-.058c.062-.006.125.028.186.098a1.083 1.083 0 0 0-.01-.05l-.006-.035c.092-.038.182-.019.273.003.01.002.021-.002.033-.008.011-.006.023-.012.034-.014l.113-.016.127-.017-.011.023-.021.044c.007 0 .013.002.019.003.006 0 .01.001.014-.002a.255.255 0 0 1 .265-.03c.002 0 .004 0 .007-.002.008-.007.018-.023.027-.024.063-.007.126-.012.188-.015.021-.002.043 0 .062 0 .006.026.009.067.02.073a.256.256 0 0 0 .114.022c.009 0 .018-.002.028-.004.028-.007.057-.018.089-.028a4.846 4.846 0 0 0-.086-.005L41.2.154l.066-.018a.506.506 0 0 1 .065-.014 1.856 1.856 0 0 1 .264-.013l.044.004.09.009c.098.006.197.008.296.016.02.001.038.01.059.02l.02.009v-.01l-.003-.03L42.1.11l.061-.005.196-.016-.035.05-.008.013c.004.006.01.011.014.018l.05-.062s.009.012.015.015c.002.002.003.003.005.002.019-.004.037-.012.054-.017a.158.158 0 0 1 .053-.012l.03.001c.029.004.059.013.085.025.009.004.017.008.025.01.023.01.044.013.072-.016.036-.04.082-.042.122.009.01.013.028.017.041.025.012-.086.068-.066.108-.066l.016-.001c.081-.017.166-.005.25-.004.004 0 .008.006.018.013a8.88 8.88 0 0 1-.06.037c.094-.005.181-.001.266-.016.039-.008.094.056.12-.032.001-.005.02-.007.029-.003.072.03.16-.043.225.05.006.01.038-.01.059-.016l.077-.027.006.017-.022.021.01.016c.009-.009.017-.023.027-.026.02-.008.045-.02.06-.01.043.028.078.05.126.007.017-.015.054.003.081.006.004 0 .008.013.01.013.047-.016.091-.042.138-.048.055-.006.106-.043.164-.014.037.018.08.015.12.02.036.003.073.002.109.007.01.001.02.014.035.027l-.066.049c.09 0 .17-.002.25 0 .038.002.076.015.114.018a.263.263 0 0 0 .079-.004c.045-.01.091-.044.134.013.008.009.031.009.041.002.051-.037.098-.082.15-.115.03-.02.067-.02.1-.028l.01.02-.054.082c.016-.006.04-.007.048-.02.044-.072.112-.1.174-.067.004.002.007.01.01.009.033-.005.068-.021.1-.014.041.008.067.022.076.013.02.044.044.06.077.02.006-.008.013-.02.019-.019.082.016.169-.032.248.033.031.026.068.035.093-.025.003-.01.053.007.078.018.011.004.017.027.025.04.144-.073.29-.122.45-.094l-.037.018v.017l.178.031c.006.033.033.061.083.04.016-.006.035-.004.052-.003.01 0 .018.008.026.012-.006.004-.019.01-.019.012a1 1 0 0 0 .017.049l.084-.09.12.083.02-.06c.045.012.094.028.144.037.018.003.047-.005.054-.02.039-.077.095-.047.148-.046.024 0 .051-.018.072-.01.05.017.11-.053.154.024.007.01.044.013.05.004.046-.083.11-.01.167-.028l-.032.033c.076 0 .146.004.217-.001.044-.003.067.01.048.073.09-.062.181-.053.22.02.04.005.044-.144.096-.06.05 0 .091-.003.131.002.038.004.075.018.114.026.007.001.016-.004.022-.009.098-.075.202-.032.304-.019.048.007.096.007.145.016.03.005.06.006.088.015.008.003.01.031.018.063.009-.03.013-.048.017-.066h.01l.007.04a.173.173 0 0 0 .01.028l.066.011.006-.004c.035-.03.072-.054.112-.083a.3.3 0 0 1 .011.07l.02-.002c.003-.015.004-.031.008-.047.022-.009.057-.014.083-.036.045-.037.085-.034.138-.036.068-.003.153.057.215-.032.003-.005.016 0 .032 0l-.042.058c.058-.038.104.07.154-.024.03-.057.117.044.142-.049.051-.012.104-.013.148-.037.094-.051.189-.035.283-.022.003 0 .006.002.008.005l.002.003c.007.008.014.023.02.035h.002c.026.007.054.019.079.022h.004c.01 0 .019 0 .026-.002.063-.024.093.045.15.06L51.38.105c.092-.006.181-.01.27-.02.078-.008.155-.026.233-.035.015-.001.031.02.054.036.027-.013.06-.076.105-.01.004.007.023-.001.034-.003.016-.001.042-.01.044-.003.027.068.042.029.077.005.036-.025.089-.011.135-.012.06-.001.12-.005.18.002.03.003.059.027.088.042l.125-.036a.612.612 0 0 0 .007.023l-.025.022c.002.002.004.006.006.006.11 0 .221-.002.332.003.06.003.118.024.178.036.018.003.037.011.053.006.114-.042.224-.05.332.026.017.012.037.05.059-.018.02-.06.087-.038.136-.026.026.005.05.013.075.02.044.015.088.032.133.044.013.004.028-.004.042-.008l.112-.03-.065-.01V.157l.562.027.001.015-.04.023c-.005.039.07.013.05.08h.011a6.83 6.83 0 0 0 .04-.036l.014.027c.053-.061.104-.064.126-.011l.078-.028a.156.156 0 0 1-.05.055c.037-.01.072-.021.106.006.034-.027.07-.016.105-.006a.156.156 0 0 1-.05-.055c.032.01.056.02.079.028.022-.053.073-.05.126.01l.013-.026.041.037h.011c-.02-.068.055-.042.05-.08l-.04-.024.001-.015.562-.027v.008l-.065.01.112.03c.014.004.03.012.042.008.045-.012.09-.029.133-.043a.864.864 0 0 1 .075-.021c.049-.011.117-.034.136.026.022.068.041.03.059.018.108-.076.218-.068.332-.026.016.005.035-.003.053-.006.06-.012.119-.032.178-.036.11-.005.221-.002.332-.003.002 0 .004-.004.006-.006l-.025-.022.006-.023.125.036c.03-.015.059-.039.09-.042.059-.007.119-.003.179-.002.045 0 .099-.013.135.012.035.023.05.063.076-.005.003-.006.029.002.044.003.013.002.03.01.035.003.045-.066.078-.003.105.01.022-.016.039-.038.054-.036.078.009.155.027.233.036.089.01.178.013.27.02a3.747 3.747 0 0 1-.021.066c.056-.014.087-.084.148-.06a.061.061 0 0 0 .026.003l.005-.001c.025-.003.053-.015.079-.021h.002c.006-.012.013-.027.02-.036 0 0 0-.002.002-.003.002-.002.005-.005.007-.005.096-.013.19-.03.284.022.044.024.097.025.148.037.025.093.112-.007.142.05.05.093.096-.015.154.023L59.57.123c.017 0 .029-.004.032 0 .062.09.147.03.215.032.052.002.093-.001.138.036.025.022.06.027.083.036.003.016.004.032.008.047l.02.002a.34.34 0 0 1 .011-.07c.04.03.077.053.112.083l.006.004a1.06 1.06 0 0 1 .066-.01.117.117 0 0 0 .01-.03c.003-.012.004-.026.006-.039h.01l.018.066c.008-.032.01-.06.018-.063.028-.01.059-.01.088-.015.048-.009.097-.01.145-.016.101-.013.206-.056.304.019.006.005.015.01.022.009.038-.008.075-.021.114-.026.04-.005.08-.001.131-.001.052-.086.057.064.096.059.038-.073.128-.082.22-.02-.019-.064.003-.076.048-.073.07.004.14.001.217.001l-.032-.033c.056.017.12-.055.167.028.006.009.043.008.05-.004.045-.077.104-.007.154-.025.021-.007.048.012.072.011.053-.001.108-.03.148.046.008.015.036.023.054.02.05-.009.099-.025.143-.038l.021.061.12-.082.084.089.017-.05-.02-.011c.009-.004.018-.01.026-.012.018-.001.036-.003.052.003.051.021.078-.007.084-.04l.178-.03V.068L62.988.05c.162-.028.306.02.45.095.009-.014.014-.037.025-.04.026-.012.075-.028.08-.019.024.06.06.05.092.025.08-.065.166-.017.248-.033.006 0 .013.01.02.018.032.041.056.025.076-.019.008.009.034-.004.076-.013.032-.007.067.009.1.014.003 0 .006-.007.01-.01.062-.032.13-.004.174.067.008.014.031.015.048.021l-.055-.082.01-.02c.034.009.07.009.1.028.052.033.099.078.15.115.011.008.034.007.041-.002.043-.057.089-.023.135-.013a.288.288 0 0 0 .079.004c.037-.004.075-.017.113-.017.08-.003.161-.001.25-.001L65.145.12c.016-.013.025-.026.035-.027.036-.005.073-.004.11-.007.039-.005.082-.003.118-.02.059-.029.11.008.164.014.047.006.092.032.138.048.003 0 .007-.012.01-.013.028-.003.065-.02.082-.006.048.042.083.02.125-.007.015-.01.04.003.06.01.011.003.02.017.029.026l.009-.016-.022-.02a.148.148 0 0 0 .006-.018l.077.027c.02.006.053.025.059.017.065-.095.152-.02.225-.051.01-.004.028-.002.03.003.025.088.08.024.12.032.084.015.17.012.265.016l-.06-.037c.009-.007.014-.013.018-.013.084-.001.169-.013.25.004a.11.11 0 0 0 .016.001c.04 0 .096-.02.107.066.015-.008.033-.012.042-.025.04-.052.086-.05.122-.009.027.03.048.027.072.017l.024-.011a.307.307 0 0 1 .087-.025l.029-.001c.017 0 .036.006.053.012.018.006.035.013.053.017.002 0 .004 0 .006-.002.006-.003.013-.013.015-.015.017.02.034.04.05.062l.014-.018-.009-.013-.034-.05.195.016.062.005-.002.019-.003.03v.009l.02-.009c.02-.01.04-.019.059-.02.099-.008.198-.01.297-.016.03-.002.059-.006.089-.009L68.4.11c.014-.002.03-.002.044-.002.073 0 .147.007.22.015a.527.527 0 0 1 .065.014l.065.018-.002.011-.086.005c.032.009.06.021.09.028a.19.19 0 0 0 .027.004.246.246 0 0 0 .113-.022c.012-.005.014-.047.021-.073.019 0 .04-.002.061 0 .063.004.126.008.188.015.01 0 .02.017.028.024.003.002.005.003.007.002a.255.255 0 0 1 .265.03c.004.002.008.002.014.002.006-.001.012-.003.019-.003l-.021-.044c-.003-.006-.007-.013-.01-.023l.126.017.113.016c.012.002.023.01.034.014.012.006.022.01.032.008.092-.022.181-.041.274-.003l-.007.035-.01.05c.063-.07.124-.104.187-.098a.206.206 0 0 1 .113.058c.02-.03.05-.045.081-.046a.121.121 0 0 1 .087.03.121.121 0 0 1 .035.055h.102l-.06-.075a.398.398 0 0 1 .196-.033c.033.003.064.01.09.02.025.012.046.027.057.045.003-.006.005-.009.01-.011a.036.036 0 0 1 .013-.005c.012-.004.033-.009.073-.027a.194.194 0 0 1 .075-.017c.016 0 .033.001.049.003.023.002.047.005.072.006.133.002.267.01.402.015v.027l-.055-.01a.247.247 0 0 0 .013.02c.018.024.039.036.058.034a.05.05 0 0 0 .038-.026c.033-.051.07-.06.111-.06a.07.07 0 0 1 .017.002c.04.004.093.003.115.034.018.025.033.034.046.034.022 0 .039-.025.058-.044.042.03.084.057.125.084l.01-.017-.04-.055h.117l.002.013.014.056.019-.048.029.03c.001-.017 0-.037.002-.048 0-.003.002-.006.004-.008a.156.156 0 0 1 .071-.03.189.189 0 0 1 .077.009l.022.005a.135.135 0 0 0 .068-.002l.017-.003.02-.001c.037 0 .077.018.089.041l.06-.018a.15.15 0 0 1 .036-.003l.017-.001.016-.002h.016a.02.02 0 0 1 .01.006c.018.022.037.03.055.03.018 0 .036-.01.052-.02.016-.013.03-.018.042-.018.005 0 .008 0 .012.002.014.005.026.02.035.045l.056-.045.01.008c.012.008.025.02.03.015a.1.1 0 0 1 .02-.012c.02-.01.04-.011.06-.01.028 0 .055.007.081.003.032-.004.048.01.058.044 0 .002.008 0 .016.002 0-.004-.002-.007-.003-.01l-.013-.044c.02.008.042.01.063.01l.061-.001c.04-.001.078.004.111.045.008-.035.013-.049.023-.046a.042.042 0 0 1 .014.012l.01.011c.006.008.014.013.023.019.008.006.018.01.027.017l.007-.04.002-.02.01.037c.017-.012.04-.038.05-.032.01.008.022.011.032.012h.017c.022-.001.045-.008.067-.007.006 0 .012 0 .017.002l.013.001.026-.002c.022-.001.043.005.051.06l.013-.069.01.002v.02l.222.041c.017.003.04.019.048.01a.22.22 0 0 1 .03-.023A.266.266 0 0 1 74.47.2l.065.002c.024 0 .048.02.082.036.037-.021.055-.032.076-.032.005 0 .01 0 .016.002.016.004.037.015.07.032.008.004.025-.018.033-.025h.113c.037 0 .075 0 .112.002.005 0 .011.003.017.004.017.005.033.013.055-.001.021-.014.059.017.09.025l.012.001c.013 0 .026-.003.039-.001.009 0 .016.003.023.01a.07.07 0 0 1 .017.033l.007.002c.01.001.032-.001.039-.008l-.032-.02c0-.005.002-.01.004-.015a.691.691 0 0 1 .054.007c.01-.008.02-.011.03-.01.009 0 .018.003.028.007l.023.01h.007c.016 0 .031-.001.047-.004a.239.239 0 0 1 .038-.003c.037-.01.08-.032.112-.035h.017l.015.006a.136.136 0 0 0 .065.026l.02-.002h.025a.202.202 0 0 0 .04-.016c.027-.015.056-.023.078-.03l.019-.005c.006.01.01.018.016.025l.01.018h.053c.02-.027.045-.044.077-.044a.124.124 0 0 1 .043.01c.023.008.046.02.07.018.015 0 .03-.002.046-.004.046-.007.092-.017.137-.02.023-.002.048.018.084.033l.027-.022.052.068.006-.059c.014.01.032.02.048.033a.103.103 0 0 1 .084-.04.1.1 0 0 1 .076.045.017.017 0 0 1 .003.005.103.103 0 0 0 .024-.014c.008-.007.02-.008.032-.007l.006-.002c.004 0 .008.003.011.005l.02.004c.01.001.018.01.027.018l.01.002a.049.049 0 0 0 .016-.003.08.08 0 0 0 .01-.026c0-.002.004-.004.007-.006.004-.001.008-.002.01-.001l.033.006a.328.328 0 0 0 .066-.005l.032-.004a.61.61 0 0 1 .072-.006h.025l.024.003a.159.159 0 0 1 .07.031h.003l.025-.021-.004.044c.02-.004.04-.018.061-.045a.029.029 0 0 1 .012-.009c.03-.014.09.011.123.015h.006c.083-.021.164-.03.244-.03.084-.002.165.004.247.012l.02-.005a.164.164 0 0 1 .1.011l.011.007.017.002.002-.023c.01.003.028 0 .032.008l.006.008a.245.245 0 0 1 .066-.012c.021 0 .043.002.063.007l.057-.006c.005 0 .012.005.015.003l.026-.016c.008-.005.013-.008.02-.01a.045.045 0 0 1 .014-.004c.005 0 .008.001.012.004.007.005.012.015.016.032v.002a1.128 1.128 0 0 0 .056-.006h.005c.016-.003.03-.005.044-.009a.161.161 0 0 1 .044-.006c.01 0 .018.003.026.007.036-.002.072-.005.108-.005l.038-.002h.019l.016.002.04-.002.067.002.007.003.013.011.008-.01c.002-.002.003-.004.005-.004.034.001.072-.008.104.002l.008-.002h.013a.43.43 0 0 0 .062.006c.04.002.082-.002.122-.005l.06-.003h.035c.005.001.01.004.014.006.002-.001.006-.004.009-.004.117 0 .234.007.351.014.004 0 .007.002.011.004.01.005.02.014.032.024l.006-.003a.054.054 0 0 1 .023-.02l.022-.025.017.02h.006c.01 0 .018.002.028.003l.013-.001c.008-.002.017.01.029.023l.001.001a.378.378 0 0 1 .234-.024.027.027 0 0 1 .015.012l.037.001.02-.004a.543.543 0 0 1 .074-.015c.008 0 .016 0 .023.004l.034.021.018.009.008.003a.087.087 0 0 0 .024-.018c.013-.013.022-.017.03-.015.012.002.02.015.03.03l.002-.002c.037-.018.08-.02.12-.023.01-.001.019 0 .028.002l.007-.004a.13.13 0 0 1 .031-.007h.013l.004-.008.003.01c.014.002.029.01.043.025.002.001.004.001.005.003l.012-.004a.525.525 0 0 1 .073-.01c.011-.007.021-.013.032-.013l.18.008.163.01a.181.181 0 0 1 .07-.016c.057.002.113.009.17.016l.01-.002a.751.751 0 0 1 .118-.001h.024c.018 0 .037.001.055.003.006 0 .012.004.018.008a.06.06 0 0 0 .008.006c.006.003.012.007.018.006.005 0 .01-.004.016-.013a.069.069 0 0 0 .007-.019l.008-.001c.01 0 .026.004.04.01l.002-.002a.022.022 0 0 1 .02.005.089.089 0 0 1 .023.035c.016-.03.035-.044.056-.05a.121.121 0 0 1 .036-.004h.006l.015.001.016.001c.006 0 .013.005.02.007.006-.002.014-.006.02-.007h.016c.005-.001.01-.003.015-.002h.006a.12.12 0 0 1 .036.004c.021.006.04.021.056.05A.088.088 0 0 1 82.1.245a.023.023 0 0 1 .02-.005l.002.001a.18.18 0 0 1 .04-.01c.004 0 .007 0 .007.002.002.008.005.014.008.02.005.008.01.012.016.012A.035.035 0 0 0 82.21.26a.06.06 0 0 1 .01-.006.037.037 0 0 1 .017-.008c.018-.002.036-.002.055-.003h.024a.736.736 0 0 1 .129.003c.056-.007.112-.014.168-.016.024 0 .048.007.07.015l.163-.009.18-.008c.011 0 .022.006.032.012a.506.506 0 0 1 .073.01l.013.005.005-.003a.088.088 0 0 1 .043-.026l.003-.01.004.009h.013a.082.082 0 0 1 .038.01c.01 0 .019-.002.027-.001.04.004.084.004.121.023l.002.001c.009-.014.018-.026.03-.029.008-.001.018.002.03.015a.088.088 0 0 0 .023.018.04.04 0 0 0 .009-.003l.017-.009.035-.02a.035.035 0 0 1 .023-.005c.009 0 .018.002.026.003l.049.012.02.004.036-.001a.027.027 0 0 1 .015-.012.177.177 0 0 1 .062-.01.42.42 0 0 1 .172.034l.001-.001c.012-.013.021-.025.028-.023a.08.08 0 0 0 .014.001c.009 0 .018-.002.028-.004h.005l.018-.02.021.026c.008.004.016.01.023.02.002.001.003.003.006.003.013-.01.023-.02.033-.024l.01-.004c.118-.007.235-.014.352-.014.003 0 .006.003.01.004.004-.002.008-.005.013-.006h.034l.06.003c.041.003.082.006.123.005.02 0 .04-.003.061-.006h.013l.009.002c.032-.01.07 0 .104-.002.002 0 .003.001.004.003l.008.011.013-.01a1.047 1.047 0 0 1 .114-.004l.017-.002h.019l.038.002c.036 0 .072.003.108.005a.062.062 0 0 1 .025-.007.2.2 0 0 1 .044.006c.015.004.03.006.044.008h.006l.007.002.048.005V.231c.004-.017.01-.027.017-.032a.017.017 0 0 1 .011-.004c.005 0 .01.001.015.004a.125.125 0 0 1 .02.01l.025.016c.004.002.01-.004.016-.003l.057.006a.217.217 0 0 1 .13.005l.005-.008c.004-.008.02-.005.032-.008 0 .013.002.025.002.023l.016-.002.011-.007a.163.163 0 0 1 .101-.011l.02.005c.082-.008.164-.014.247-.013.08.002.16.01.244.03h.006c.032-.004.093-.028.123-.014a.035.035 0 0 1 .012.009c.02.027.04.041.06.045l-.003-.044c.01.008.02.018.024.02.002.001.003.002.004.001a.16.16 0 0 1 .07-.03c.008-.002.016-.004.024-.004h.025c.024 0 .048.004.072.006l.032.004c.022.003.044.006.065.005.011 0 .022-.002.033-.006a.02.02 0 0 1 .01.001c.004.002.008.004.008.006.003.013.006.02.01.026a.05.05 0 0 0 .017.003l.01-.002c.008-.007.016-.017.025-.018l.02-.004s.007-.005.012-.005c.002 0 .004 0 .005.002.014-.002.025 0 .033.006l.023.014a.017.017 0 0 0 .004-.004.1.1 0 0 1 .076-.046c.03-.001.06.013.084.04.016-.013.034-.023.047-.033l.007.059.052-.068.027.022c.036-.015.06-.034.084-.033.046.003.091.014.137.02a.48.48 0 0 0 .045.005c.023.001.047-.01.07-.02L87.753.2a.103.103 0 0 1 .02-.003c.033 0 .057.018.078.045l.053-.001.01-.018.016-.025.019.006c.022.006.05.014.078.029a.225.225 0 0 0 .04.016h.026l.02.003a.153.153 0 0 0 .064-.026.036.036 0 0 1 .015-.006.043.043 0 0 1 .016 0c.033.001.075.024.112.035.012 0 .025 0 .038.002a.252.252 0 0 0 .047.004h.007l.023-.01a.085.085 0 0 1 .028-.007c.01 0 .02.003.03.01l.054-.007.005.015a.664.664 0 0 1-.033.02c.007.007.028.009.04.008l.006-.002a.071.071 0 0 1 .017-.033.035.035 0 0 1 .023-.01l.04.002c.004 0 .008 0 .011-.002.03-.008.068-.038.09-.025.023.014.038.006.055.001.006-.001.01-.003.017-.003.038-.003.075-.003.112-.003h.113c.008.006.025.029.033.025.033-.017.053-.027.07-.032a.063.063 0 0 1 .016-.002c.02 0 .039.01.076.033.034-.016.058-.036.082-.037L89.385.2c.054 0 .108.003.157.036.01.006.02.014.03.023.009.008.032-.007.048-.01l.222-.042v-.02l.01-.001.013.069c.01-.055.029-.062.05-.06l.027.002c.005 0 .009 0 .013-.002a.069.069 0 0 1 .017-.002c.022 0 .045.006.067.007h.017a.077.077 0 0 0 .033-.011c.01-.006.032.02.05.03l.008-.036.003.02.007.04c.01-.007.019-.01.027-.017a.082.082 0 0 0 .023-.019l.01-.011c.006-.007.01-.01.014-.012.01-.003.016.011.023.046.033-.04.071-.046.111-.045l.062.002a.16.16 0 0 0 .062-.01l-.013.043a.048.048 0 0 0-.003.01c.008 0 .016 0 .016-.002.01-.034.026-.048.057-.044.027.004.055-.002.081-.003.02-.001.04 0 .061.01a.097.097 0 0 1 .02.012c.005.004.019-.006.03-.015l.01-.007.056.045c.01-.026.02-.041.035-.046a.03.03 0 0 1 .012-.002c.012 0 .026.006.042.018a.09.09 0 0 0 .052.02c.018 0 .037-.008.055-.03a.02.02 0 0 1 .01-.005h.016l.016.001.017.002a.15.15 0 0 1 .036.002l.06.019c.012-.024.052-.041.09-.042l.018.001c.006 0 .013.002.018.004.02.006.045.005.068.001a.255.255 0 0 0 .022-.006.151.151 0 0 1 .04-.008c.012-.001.025-.002.037 0a.156.156 0 0 1 .071.03.017.017 0 0 1 .004.009c.002.01 0 .03.002.048l.03-.03.018.047a2.363 2.363 0 0 1 .017-.069h.116l-.04.055.01.017.125-.083c.02.018.036.044.058.044.013 0 .028-.01.046-.035.022-.03.075-.03.115-.033l.017-.002c.04-.001.078.008.11.06.01.015.024.024.039.026.02.001.04-.01.058-.034a.177.177 0 0 0 .013-.02c-.018.002-.036.006-.055.01V.166c.135-.005.269-.013.402-.016.024 0 .048-.003.073-.006.015-.002.031-.003.048-.002.025 0 .05.005.075.016.04.019.06.024.073.027l.014.005a.035.035 0 0 1 .009.011.131.131 0 0 1 .057-.044.297.297 0 0 1 .09-.021.397.397 0 0 1 .195.033l-.06.076h.103a.12.12 0 0 1 .122-.085c.031.001.06.016.081.045a.208.208 0 0 1 .113-.057c.063-.007.125.027.186.097l-.008-.05-.007-.035c.092-.038.182-.018.273.003.01.003.021-.002.033-.007.011-.006.023-.013.034-.014l.113-.017.127-.017-.011.024-.021.043c.007 0 .013.002.019.003.006 0 .01.001.013-.001a.255.255 0 0 1 .265-.03c.003 0 .005 0 .008-.003.008-.007.018-.023.027-.024.063-.007.125-.012.188-.015.021-.002.043 0 .062 0 .006.026.008.067.02.073a.256.256 0 0 0 .113.022c.01 0 .02-.002.029-.004.028-.006.057-.018.089-.027l-.087-.006c0-.003 0-.007-.002-.011l.065-.017a.506.506 0 0 1 .066-.014c.073-.009.146-.015.22-.015l.044.001.044.004c.03.004.06.008.089.009.099.006.198.008.297.016.02.001.038.01.059.02l.02.009v-.01l-.003-.03-.002-.018.061-.005.195-.016-.034.05-.008.013c.004.006.01.012.013.018l.05-.062.015.016c.003.001.004.002.006.001.018-.004.036-.011.054-.017a.158.158 0 0 1 .053-.012.293.293 0 0 1 .115.026l.025.011c.023.01.044.012.071-.016.037-.041.083-.043.123.008.01.013.028.017.041.025.012-.086.068-.066.108-.065.006 0 .012 0 .016-.002.081-.017.166-.005.25-.004.004 0 .008.006.017.013a8.88 8.88 0 0 1-.06.038c.095-.006.182-.002.267-.017.038-.007.093.056.12-.032 0-.005.02-.006.028-.003.073.03.16-.043.226.05.006.01.038-.01.058-.016l.078-.027.006.018-.022.02.01.016c.009-.009.017-.022.027-.026.02-.007.045-.019.06-.01.042.028.078.05.126.008.017-.015.054.002.081.006.004 0 .008.013.01.012.047-.016.091-.041.138-.047.055-.007.106-.044.164-.015.037.018.08.015.12.02.036.003.073.003.109.007.01.002.02.015.035.028l-.066.048c.09 0 .17-.002.25 0 .038.002.076.015.114.018a.263.263 0 0 0 .079-.004c.045-.01.09-.044.134.013.008.01.031.01.041.002.051-.037.098-.082.15-.115.03-.019.067-.019.1-.028l.01.02-.054.083c.016-.007.04-.008.048-.021.044-.071.111-.1.174-.067.004.002.007.01.01.01.033-.006.068-.022.1-.015.041.009.067.022.076.014.02.044.044.06.077.018.006-.007.013-.018.019-.018.082.016.169-.032.248.034.031.026.067.034.093-.026.003-.01.052.007.078.018.011.005.017.027.025.04.144-.073.289-.122.45-.094l-.037.018v.018l.178.03c.006.033.033.062.083.04.016-.006.035-.004.052-.002.009 0 .018.007.026.011-.006.005-.019.011-.019.012l.017.049.084-.089.119.083.021-.061c.045.012.094.028.144.037.018.003.046-.005.054-.02.039-.077.095-.047.148-.046.024 0 .051-.018.072-.01.051.017.109-.053.154.024.007.011.044.013.049.004.047-.083.112-.01.168-.028l-.032.034c.076 0 .146.003.217-.002.044-.003.066.01.048.073.091-.062.181-.053.219.02.04.006.045-.144.097-.059.051 0 .091-.003.131 0 .038.005.075.019.114.027.007.001.015-.004.022-.009.098-.074.202-.032.304-.019.048.007.096.008.145.016.029.005.06.006.088.016.008.003.01.031.019.063l.018-.066h.01l.006.039c.013.06.042.07.082.035.035-.03.072-.054.112-.083.02.087.018.091-.029.117.018-.008.041-.01.052-.024.011-.017.011-.046.016-.072.023-.01.057-.014.083-.036.045-.038.086-.035.138-.036.068-.003.153.057.215-.032-.079.115-.006.089.036.051.038.012.072.05.108-.019.03-.057.117.116.142.024.052-.012.104-.014.148-.037.094-.052.189-.036.284-.023.003 0 .006.002.008.006l.001.002c.007.009.014.024.02.036h.003c.026.006.053.018.078.021l.005.001c.009 0 .018 0 .026-.003a.211.211 0 0 1 .141-.014l-.003.007c.088-.006.174-.01.259-.02.078-.008.155-.026.233-.035.015-.002.032.02.054.035.027-.012.06-.075.105-.01.004.007.023 0 .035-.002.015-.001.041-.01.044-.004.026.068.042.03.076.005.037-.024.089-.01.136-.011.06-.002.12-.005.179.001.03.004.059.028.089.043l.125-.036a.962.962 0 0 0 .006.022l-.025.023c.002.002.004.006.007.006.11 0 .221-.075.331-.07.06.004.119.024.178.036.018.004.038.012.054.006.113-.041.224-.05.331.026.018.012.037.05.059-.017.019-.06.087-.039.137-.027a.945.945 0 0 1 .074.02c.045.015.088.032.133.044.013.004.029-.003.043-.008.035-.008.07-.018.112-.03a1.33 1.33 0 0 1-.065-.01V.154l.561.027.002.015-.041.024c-.003.028.037.022.051.043.026.006.05.006.066-.035.001-.005.02-.005.028-.002.066.022.144-.024.206.023l.118-.007.038-.01.003.007.105-.006-.002.024c.004.003.009.004.013.005a.565.565 0 0 1 .072-.036.777.777 0 0 1 .141-.042c.02-.004.042.016.068.027l.039-.044-.004-.023h-.189l.009-.021c-.046-.014-.095-.03-.142-.043.052-.022.104-.048.156-.064.018-.005.04.02.058.018.03-.007.06-.02.091-.02.092.003.185.019.276.012.061-.005.118.042.182.008.022-.012.058.022.089.03.013.005.033.007.044-.002.049-.038.076-.009.098.04.015-.003.031-.012.046-.01.055.007.11.02.165.026.035.004.022-.039.031-.052a.14.14 0 0 1 .09-.064c.043-.005.088.014.144.024l-.053.06.006.027h.28a.166.166 0 0 0 .004.023l-.064.092.247.016v.016l.03.002ZM.192.282C.186.283.18.284.175.288.167.293.16.296.151.299H.22L.191.282ZM1.753.226l.042-.001C1.782.218 1.768.214 1.757.217 1.74.224 1.693.202 1.7.264l.095.003-.06-.03c.009-.006.014-.011.018-.011ZM3.9.319c-.007.003-.015-.003-.022-.005C3.864.309 3.85.298 3.836.298c-.036 0-.071.005-.107.006.027.007.053.015.078.02l.029.003a.303.303 0 0 0 .11-.018.156.156 0 0 0-.047.01Zm.398-.13-.033.08L4.256.25l-.03.015.02.016c.002.001.004.003.007.002A.309.309 0 0 1 4.41.269a.441.441 0 0 1-.114-.08h.001Zm.215.117.005.003h.009L4.513.306Zm14.432.469.01.02.034-.001.004-.004a1.67 1.67 0 0 0-.048-.015ZM37.177.79l.004.004.034.002.01-.021-.048.015ZM58.272.267 58.27.29v.003s.005.001.007.003l.013-.005.022-.008a.32.32 0 0 1-.039-.019v.002Zm-.212.018-.002-.003c-.006.003-.012.005-.019.006h-.003l.01.01.014-.014Zm-2.474.014L55.56.285a.062.062 0 0 1-.016.014h.042Zm-1.092 0a.054.054 0 0 1-.017-.014c-.007.004-.015.01-.025.014h.042ZM51.766.267V.265a.675.675 0 0 1-.04.019.29.29 0 0 1 .023.008l.013.004.007-.003V.291l-.003-.024Zm.214.016-.001.002.014.015.01-.011H52c-.007 0-.013-.003-.019-.005ZM51.794.25l.032-.002.066-.004-.022-.054a.483.483 0 0 1-.077.06Zm2.618-.032c-.014-.005-.033.003-.05.014h.011c.032.003.063.003.095.005-.009-.027-.041-.014-.056-.02v.001Zm1.214 0c-.015.006-.048-.007-.056.02.032-.002.063-.002.094-.005h.011C55.66.22 55.64.213 55.626.218Zm2.519.026.066.004.032.002a.483.483 0 0 1-.076-.06l-.023.054h.001Zm14.668.532.01.02.035-.001.003-.004a1.575 1.575 0 0 0-.048-.015ZM91.046.79l.004.004.034.002.01-.021-.048.015Zm14.465-.48h.009l.005-.003a.075.075 0 0 1-.014.003Zm.271-.059-.009.018-.033-.08a.443.443 0 0 1-.114.08.311.311 0 0 1 .159.015c.002 0 .004 0 .007-.002.006-.004.012-.012.019-.016l-.03-.015h.001Zm.421.047c-.014 0-.028.01-.043.015-.007.003-.015.009-.021.006a.182.182 0 0 0-.047-.01.297.297 0 0 0 .11.017c.01 0 .019-.002.028-.003.026-.004.052-.012.079-.02-.035-.001-.071-.005-.107-.005h.001Zm2.079-.081c-.011-.004-.025 0-.038.007l.042.001c.004 0 .009.005.018.01l-.06.03.096-.002c.006-.062-.039-.04-.058-.046Zm1.581.07c-.005-.004-.011-.005-.016-.006l-.029.017h.068c-.007-.003-.015-.006-.023-.012Z"/></g><defs><clipPath id="a"><path fill="#fff" transform="matrix(1 0 0 -1 0 1)" d="M0 0h110v1H0z"/></clipPath></defs></svg>