<svg width="390" height="844" viewBox="0 0 390 844" fill="none" xmlns="http://www.w3.org/2000/svg">
<path d="M203.88 359.18C203.81 359.18 203.73 359.2 203.67 359.22L203.59 359.24L202.87 359.21L202.2 359.19C202.12 359.21 202 359.24 201.87 359.24C201.82 359.24 201.77 359.24 201.73 359.22C201.45 359.15 201.16 359.11 200.89 359.08C200.5 359.03 200.13 358.99 199.8 358.86C199.66 358.84 199.48 358.82 199.29 358.8C199.1 358.78 198.9 358.76 198.74 358.73C198.64 358.7 198.53 358.66 198.42 358.61C198.25 358.55 198.08 358.48 197.95 358.44L197.29 358.39C197.03 358.32 196.84 358.11 196.65 357.9C196.5 357.73 196.34 357.56 196.21 357.52L195.45 357.47C195.33 357.44 195.22 357.4 195.11 357.37C194.85 357.29 194.6 357.21 194.27 357.19C194.11 357.27 193.93 357.28 193.75 357.28C193.6 357.28 193.44 357.3 193.35 357.35C193.22 357.44 193.13 357.6 193.03 357.77C192.95 357.92 192.86 358.08 192.74 358.2C192.58 358.36 192.35 358.49 192.11 358.62C191.8 358.79 191.49 358.96 191.37 359.19V360.57C191.49 360.79 191.52 361.07 191.54 361.33C191.56 361.55 191.58 361.75 191.65 361.91C191.7 362.02 191.77 362.14 191.84 362.25C191.94 362.41 192.04 362.57 192.09 362.75C192.29 363.33 192.4 363.97 192.5 364.58C192.57 364.97 192.64 365.36 192.72 365.73C192.79 366.03 192.78 366.31 192.76 366.58C192.75 366.77 192.74 366.95 192.76 367.13C192.91 367.22 193.01 367.23 193.14 367.26C193.25 367.28 193.39 367.3 193.59 367.37C193.84 367.46 194.08 367.59 194.33 367.71C194.63 367.86 194.94 368.02 195.24 368.1C195.31 368.12 195.45 368.14 195.72 368.14C196.47 368.14 197.67 367.96 198.17 367.85H200.61C201.36 367.68 202.2 367.63 203.02 367.58C203.48 367.55 203.96 367.52 204.41 367.47L204.74 367.15C205.09 366.63 205.54 365.42 205.73 364.8L205.79 364.03C205.87 363.8 206 363.58 206.13 363.38C206.26 363.17 206.4 362.96 206.47 362.72C206.67 362.09 206.68 361.06 206.39 360.62C206.22 360.37 204.31 359.29 203.86 359.17L203.88 359.18ZM202.47 365.63C202.04 365.9 201.26 365.92 200.57 365.94H199.64L198.71 366.23C198.63 366.25 198.54 366.26 198.45 366.26C198.19 366.26 197.93 366.19 197.72 366.14C197.65 366.12 197.58 366.1 197.52 366.09C197.46 366.08 197.39 366.07 197.32 366.07C197.12 366.07 196.91 366.12 196.74 366.16L196.62 366.19C196.55 366.21 196.48 366.21 196.4 366.21C196.22 366.21 196.06 366.17 195.92 366.13C195.87 366.12 195.82 366.1 195.77 366.09H195.7L195.66 366.02C195.38 365.58 195.22 365.03 195.18 364.37V364.31L195.21 364.26C195.45 363.95 195.45 363.47 195.44 362.96C195.44 362.58 195.44 362.18 195.53 361.82C195.57 361.67 195.58 361.51 195.6 361.36C195.63 361.01 195.67 360.61 196.1 360.45C196.13 360.43 196.29 360.33 196.29 360.33H196.35C197.27 360.33 198.65 360.88 199.65 361.28C199.91 361.38 200.14 361.47 200.32 361.54C200.49 361.6 200.66 361.63 200.82 361.66C201.15 361.72 201.48 361.77 201.72 362.11L202.18 362.98L202.15 363.46L202.12 363.85C202.16 364.03 202.22 364.2 202.28 364.37C202.4 364.71 202.51 365.07 202.52 365.49V365.58L202.44 365.63H202.47Z" fill="#B9CED1"/>
<path d="M222.37 392.2C222.16 392.05 222.03 391.83 221.9 391.62C221.79 391.43 221.68 391.25 221.53 391.14C221.33 390.99 220.92 390.78 220.49 390.55C219.8 390.19 219.08 389.81 218.8 389.49C218.74 389.42 218.69 389.34 218.66 389.26C218.62 389.18 218.58 389.11 218.53 389.08C218.45 389.02 218.37 388.99 218.29 388.95C218.07 388.85 217.81 388.74 217.78 388.28V388.22L217.82 388.17L217.86 388.06L218.95 387.37C219.05 387.33 219.16 387.31 219.27 387.31C219.41 387.31 219.54 387.34 219.66 387.37C219.77 387.4 219.88 387.42 219.99 387.42C220.04 387.42 220.09 387.42 220.14 387.4C220.3 387.36 220.47 387.31 220.64 387.26C220.83 387.2 221.02 387.14 221.21 387.1C221.34 387.07 221.48 387.06 221.65 387.06C221.8 387.06 221.96 387.07 222.11 387.08C222.25 387.09 222.39 387.1 222.53 387.1C222.71 387.1 222.84 387.08 222.95 387.04C223.1 386.98 223.34 386.93 223.62 386.87C224.05 386.78 224.71 386.63 224.87 386.47C225.05 386.28 225.37 386.1 225.67 385.93C225.87 385.81 226.06 385.7 226.19 385.6C226.41 385.43 226.56 385.13 226.72 384.84C226.85 384.59 226.99 384.32 227.18 384.13C227.2 383.85 227.32 383.62 227.43 383.42C227.57 383.16 227.64 383 227.57 382.82C227.49 382.64 227.55 382.36 227.62 382.04C227.66 381.85 227.73 381.5 227.64 381.4C227.5 381.28 226.62 381.13 226.2 381.05C225.98 381.01 225.79 380.98 225.68 380.95L224.82 380.67C224.73 380.65 224.6 380.65 224.49 380.65H224.26C224.16 380.65 224.06 380.65 223.99 380.63C223.94 380.63 223.89 380.62 223.84 380.62C223.73 380.62 223.62 380.64 223.51 380.65C223.38 380.67 223.26 380.69 223.13 380.69C223 380.69 222.9 380.67 222.8 380.64C222.66 380.59 222.47 380.57 222.2 380.57C222.07 380.57 221.93 380.57 221.8 380.58C221.67 380.58 221.54 380.59 221.42 380.59C221.22 380.59 221.06 380.58 220.94 380.54C220.89 380.53 220.81 380.52 220.72 380.52C220.29 380.52 219.61 380.68 219.27 380.75C219.02 380.81 218.76 380.81 218.51 380.82C218.3 380.82 218.11 380.82 217.96 380.86C217.71 380.92 217.47 380.95 217.24 380.97C217.03 380.99 216.84 381.02 216.61 381.07C216.48 381.07 215.98 381.15 215.53 381.21C215.04 381.28 214.57 381.35 214.45 381.35C214.39 381.36 214.32 381.38 214.25 381.4C214.04 381.46 213.8 381.53 213.55 381.53C213.47 381.53 213.39 381.53 213.31 381.51C213.22 381.49 213.12 381.49 213.01 381.49C212.89 381.49 212.76 381.49 212.63 381.5C212.49 381.5 212.35 381.52 212.21 381.52C212.03 381.52 211.88 381.51 211.75 381.48C211.56 381.44 211.34 381.39 211.05 381.39C210.71 381.39 210.39 381.45 210.05 381.52C209.7 381.59 209.33 381.66 208.95 381.66C208.75 381.66 208.57 381.64 208.39 381.6C208.37 381.6 208.32 381.6 208.26 381.6H207.98C207.86 381.6 207.72 381.6 207.6 381.56C207.45 381.51 207.33 381.41 207.22 381.32C207.12 381.24 207.02 381.16 206.97 381.14H206.2L206.07 381.11C205.74 381.03 205.35 380.94 204.98 380.86C204.57 380.77 204.02 380.57 203.49 380.37C203.04 380.2 202.61 380.04 202.32 379.97C201.84 379.86 201.43 379.66 201.04 379.46C200.5 379.19 199.99 378.94 199.3 378.92C199.08 379.05 198.82 379.1 198.56 379.15C198.32 379.2 198.1 379.24 197.93 379.34C197.58 379.56 197.38 380.07 197.18 380.55C197.05 380.88 196.91 381.23 196.72 381.49C196.88 382.08 197.35 382.57 197.92 382.74C198 382.76 198.07 382.77 198.16 382.77C198.26 382.77 198.36 382.76 198.45 382.74C198.55 382.73 198.66 382.71 198.76 382.71C198.89 382.71 199 382.73 199.11 382.77C199.29 382.85 199.45 382.97 199.59 383.09C199.67 383.15 199.74 383.22 199.82 383.27C200.06 383.42 200.48 383.51 200.82 383.58L201.03 383.63C201.32 383.7 201.8 383.7 202.23 383.7H203.08C204.04 383.7 204.78 383.73 204.79 384.17V384.24L204.75 384.29C204.54 384.53 204.55 385.21 204.56 385.8C204.56 386.26 204.57 386.69 204.5 387C204.47 387.12 204.43 387.25 204.39 387.39C204.34 387.54 204.3 387.69 204.27 387.79V389.29C204.24 389.45 204.22 389.66 204.19 389.89C204.16 390.12 204.14 390.36 204.1 390.52L204.13 391.18L204.16 391.88C204.11 392.13 204.16 392.38 204.2 392.66C204.22 392.77 204.23 392.88 204.24 392.99L204.34 392.86L206.37 394.93L207.12 394.75C207.16 394.49 207.2 394.16 207.23 393.84C207.34 392.77 207.4 392.3 207.74 392.3H207.79L207.83 392.33C207.93 392.41 208.08 392.44 208.23 392.48C208.35 392.51 208.47 392.54 208.58 392.59C208.72 392.65 208.88 392.89 209.26 393.52C209.45 393.84 209.75 394.32 209.83 394.38C210.12 394.5 210.26 394.79 210.39 395.05C210.42 395.12 210.46 395.17 210.49 395.23L212.39 394.86L213.41 394.7C213.17 394.53 212.94 394.38 212.7 394.28C212.42 394.2 212.18 393.88 211.92 393.55C211.72 393.28 211.49 392.98 211.3 392.93C211.21 392.89 211.12 392.83 211.04 392.78C210.96 392.73 210.88 392.67 210.82 392.65C210.64 392.58 210.51 392.44 210.38 392.3C210.25 392.16 210.13 392.03 209.98 391.99C209.78 391.94 209.55 391.74 209.28 391.5C209.06 391.3 208.78 391.06 208.62 391.02H208.56L208.45 390.85C208.29 390.62 208.14 390.4 208.05 390.03C208 389.84 208.03 389.69 208.05 389.57C208.07 389.46 208.08 389.38 208.05 389.26C208.03 389.19 207.99 389.11 207.94 389.03C207.81 388.77 207.62 388.4 207.74 387.96C207.8 387.74 207.78 387.47 207.76 387.21C207.74 386.96 207.73 386.72 207.78 386.51C207.86 386.12 207.82 385.73 207.77 385.34C207.72 384.95 207.68 384.58 207.77 384.22L207.79 384.15L207.85 384.11C207.85 384.11 207.91 384.07 207.94 384.04C208.01 383.98 208.09 383.92 208.17 383.9H208.2L209.26 383.93C209.32 383.92 209.38 383.89 209.45 383.87C209.63 383.81 209.83 383.75 210.06 383.75C210.14 383.75 210.21 383.75 210.3 383.77C210.45 383.8 210.71 383.84 210.93 383.84C211.04 383.84 211.13 383.84 211.2 383.82C211.23 383.82 211.27 383.8 211.32 383.79C211.46 383.75 211.62 383.7 211.81 383.7C211.87 383.7 211.94 383.7 212.05 383.73C212.12 383.75 212.24 383.77 212.34 383.77C212.37 383.77 212.4 383.77 212.42 383.77C212.58 383.73 213.16 383.61 213.69 383.61C213.88 383.61 214.05 383.63 214.2 383.66C214.25 383.67 214.31 383.7 214.38 383.72C214.47 383.76 214.56 383.8 214.66 383.8C214.72 383.79 214.8 383.76 214.88 383.72C215.03 383.66 215.19 383.59 215.38 383.59C215.42 383.59 215.45 383.59 215.49 383.59C215.56 383.6 215.62 383.61 215.67 383.62C215.78 383.64 215.88 383.66 215.99 383.66C216.06 383.66 216.13 383.66 216.22 383.64C216.31 383.62 216.42 383.57 216.51 383.52C216.6 383.47 216.69 383.43 216.82 383.39H217.81C218.15 383.31 218.54 383.21 218.83 383.13C218.9 383.11 218.97 383.1 219.06 383.1C219.27 383.1 219.49 383.15 219.59 383.17C219.64 383.17 219.7 383.18 219.77 383.18C220.23 383.18 220.92 383 221.04 382.92L221.08 382.89H221.21C221.49 382.89 221.68 382.93 221.9 382.98H221.95L222.32 383.42V383.49C222.31 383.82 222.17 383.9 221.98 383.98C221.87 384.02 221.74 384.07 221.57 384.24C221.51 384.31 221.43 384.36 221.37 384.39C221.33 384.41 221.29 384.43 221.27 384.46L221.23 384.51H221.16C221.08 384.53 221.01 384.6 220.92 384.69C220.81 384.81 220.68 384.94 220.52 384.95C220.45 384.98 220.36 385.05 220.27 385.12C220.13 385.23 219.98 385.36 219.8 385.4C219.66 385.44 219.57 385.54 219.46 385.65C219.35 385.77 219.23 385.91 219.05 385.96C218.93 386.01 218.84 386.11 218.74 386.22C218.63 386.34 218.5 386.47 218.31 386.56C218.13 386.61 217.97 386.62 217.83 386.63C217.67 386.64 217.54 386.65 217.41 386.71C217.27 386.77 217.15 386.88 217.02 386.99C216.86 387.13 216.7 387.27 216.49 387.35C216.24 387.44 216.08 387.47 215.92 387.5C215.76 387.52 215.61 387.55 215.37 387.65C215.06 387.78 214.43 388.4 214.09 388.73L213.97 388.84V388.95C214.04 389.03 214.1 389.11 214.16 389.2C214.26 389.34 214.35 389.47 214.44 389.53L215.24 389.77H215.26C215.44 389.89 215.59 390.03 215.75 390.17C215.99 390.38 216.21 390.58 216.51 390.68C216.68 390.74 216.89 390.77 217.09 390.8C217.38 390.84 217.67 390.88 217.91 391.03C218.48 391.39 218.84 391.87 219.23 392.37C219.39 392.58 219.62 392.76 219.86 392.94C220.05 393.09 220.24 393.24 220.4 393.42L220.49 393.37L222.48 393.82L223.57 393.18C223.41 393.05 223.26 392.91 223.11 392.77C222.89 392.57 222.67 392.36 222.44 392.19L222.37 392.2Z" fill="#B9CED1"/>
<path d="M177.3 395.02C177.18 394.99 177.07 394.95 176.97 394.9C176.77 394.82 176.58 394.74 176.25 394.74C175.87 394.98 175.27 395.06 174.7 395.14C174.52 395.17 174.35 395.19 174.18 395.22L175.74 396.84C175.74 396.75 175.77 396.67 175.83 396.63C175.94 396.51 176.16 396.46 176.61 396.46C176.75 396.46 176.89 396.46 177.03 396.46H177.07L177.75 394.99C177.67 395.01 177.59 395.03 177.49 395.03C177.42 395.03 177.35 395.03 177.29 395L177.3 395.02Z" fill="#B9CED1"/>
<path d="M181.44 394.83C181.44 394.83 181.35 394.81 181.15 394.81C180.95 394.81 180.71 394.82 180.48 394.84L182.34 395.71L183.33 394.96C183.14 394.95 182.94 394.94 182.75 394.94C182.3 394.94 181.84 394.93 181.45 394.83H181.44Z" fill="#B9CED1"/>
<path d="M172.82 394.92C172.41 394.77 171.95 394.6 171.82 394.59C171.72 394.61 171.61 394.67 171.5 394.72C171.42 394.76 171.34 394.8 171.26 394.82C171.09 394.88 170.89 394.9 170.7 394.92C170.4 394.95 170.19 394.98 170.15 395.1V395.13C170.19 395.28 170.49 395.67 170.67 395.89C170.9 396.18 171.04 396.37 171.09 396.49C171.26 396.93 171.55 397.43 171.83 397.89L172.54 398.04L174.1 395.24C174.1 395.24 174.01 395.25 173.96 395.26C173.74 395.26 173.29 395.09 172.82 394.92Z" fill="#B9CED1"/>
<path d="M3.32 374.32L5.86 376.84L7.7 375.68L9.49 374.54L11.13 373.07L13.36 373.31L15.13 372.26L16.96 371.38L18.98 370.89L20.4 369.17L22.1 368.04L22.92 365.41L24.75 364.58L26.28 363.25L28.1 362.36L31.3 363.41L32.38 361.37L32.82 358.53L34.96 357.98L36.96 357.21L38.92 356.44L40.45 355.19L40.66 351.89L43.04 351.94L44.41 349.89L46.91 351.81L48.66 349.6L50.26 352.04L52.22 351.89L53.91 352.83L55.12 354.59L58.4 353.4L59.24 355.75L59.78 358.65L63.09 357.14L64.09 359.6L66.55 358.2L68.1 359.64L69.98 360.13L72.09 361.38L73.98 360.44L76.05 360.58L77.62 358.65L79.19 356.6L81.72 359.31L83.6 359.49L85.46 359.21L87.36 359.04L89.19 359.72L91.08 359.98L93.17 359.74L95.04 360.44L97.07 360.82L98.99 361.54L101.48 361.26L102.93 362.96L104.32 364.68L105.61 366.49L107.41 367.5L109.24 368.48L110.15 370.79L112.99 370.31L112.97 373.9L114.65 375.07L117.12 375.12L118.03 377.39L119.93 378.24L121.66 379.34L122.79 381.3L124.54 382.37L127.2 382.15L128.43 383.96L129.11 386.55L131.45 386.78L134.14 386.52L135.72 387.84L135.91 391.13L138.6 390.87L140.51 391.84V395.68L142.48 396.68L145.26 396.07L147.1 397.01L148.33 400.06L150.5 400.15L152.51 401L154.23 399.92C154.32 399.63 154.45 399.31 154.53 398.99V398.16C154.62 397.84 154.63 397.35 154.71 397.04V396.21C154.95 395.34 155.17 394.44 155.44 393.64C155.72 392.82 155.69 391.74 155.92 390.92C155.95 390.82 156.02 390.5 156.12 390.07H156.13L156.74 390.69C156.91 390.8 157.26 390.86 157.55 390.91C157.64 390.93 157.73 390.94 157.81 390.96C157.84 390.96 157.88 390.97 157.91 390.97C158.05 390.97 158.18 390.91 158.31 390.86C158.4 390.82 158.48 390.79 158.61 390.76L159.08 390.78L159.64 390.81C159.64 390.81 159.71 390.79 159.75 390.78C159.89 390.74 162.07 390.99 162.26 390.99C162.35 390.99 162.43 391 162.5 391.03C162.61 391.06 162.7 391.14 162.79 391.21C162.85 391.26 162.91 391.31 162.95 391.33C163.1 391.39 164.1 391.49 164.74 391.49C164.97 391.49 165.06 391.48 165.08 391.47C165.2 391.44 165.32 391.4 165.45 391.35C165.58 391.3 165.7 391.26 165.85 391.22H166.64C166.73 391.2 166.83 391.19 166.93 391.17C167.07 391.15 167.22 391.12 167.36 391.08C167.42 391.06 167.49 391.03 167.57 390.99C167.75 390.9 167.99 390.78 168.24 390.78C168.32 390.78 168.4 390.79 168.47 390.81L168.63 390.86C168.88 390.94 169.21 391.05 169.44 391.1C169.5 391.11 169.56 391.12 169.62 391.12C169.79 391.12 169.96 391.08 170.15 391.03C170.36 390.98 170.59 390.92 170.83 390.92C170.94 390.92 171.04 390.93 171.14 390.95C171.44 391.01 171.81 391.05 172.23 391.05C173.56 391.05 175.16 390.74 176.59 390.43L177.22 390.45L177.81 390.48C178.04 390.43 178.32 390.4 178.67 390.4C178.86 390.4 179.05 390.4 179.24 390.41C179.43 390.41 179.61 390.42 179.8 390.42C180.13 390.42 180.38 390.4 180.63 390.35L182.09 390.45C182.19 390.43 182.3 390.39 182.42 390.36C182.54 390.32 182.67 390.28 182.8 390.26L184.23 390.22C184.57 390.14 184.91 390.05 185.26 389.96C185.62 389.86 185.98 389.77 186.38 389.68L187.11 389.73C187.23 389.7 187.35 389.65 187.48 389.61C187.61 389.56 187.73 389.52 187.84 389.49C188.01 389.45 188.2 389.43 188.41 389.43C188.85 389.43 189.27 389.53 189.56 389.59C189.62 389.59 189.69 389.57 189.73 389.55L189.81 389.53H189.84C190.09 389.53 190.78 389.62 191.5 389.7C192.19 389.78 192.9 389.86 193.17 389.87C193.67 389.98 194.17 390.04 194.68 390.04C195.7 390.04 196.62 389.8 197.28 389.36C197.38 389.29 197.49 389.24 197.61 389.18C197.94 389.02 198.16 388.89 198.21 388.65L198.19 388.63C197.88 388.4 197.59 388.18 197.17 388.05C197.03 388.01 196.9 387.99 196.76 387.97C196.59 387.95 196.41 387.93 196.23 387.85C196.1 387.79 195.96 387.71 195.82 387.63C195.66 387.53 195.49 387.43 195.31 387.37C195.18 387.33 195.04 387.32 194.92 387.32H194.55C194.42 387.32 194.24 387.32 194.05 387.27C193.68 387.18 193.38 387.14 193.08 387.14C192.78 387.14 192.45 387.18 191.99 387.28L190.04 387.18C189.84 387.23 189.66 387.31 189.48 387.39C189.33 387.46 189.18 387.53 188.98 387.57H188.24C188.17 387.58 188.1 387.62 188.03 387.65C187.94 387.69 187.84 387.74 187.72 387.76C187.62 387.76 187.03 387.78 186.45 387.8C185.91 387.82 185.37 387.84 185.23 387.84H185.2C185.04 387.88 184.57 387.89 183.88 387.91C183.5 387.91 183.15 387.93 182.97 387.94C182.81 387.94 182.63 387.76 182.57 387.63C182.49 387.47 182.55 387.37 182.57 387.33L182.59 387.31L182.62 387.29C183.16 386.93 183.4 386.21 183.59 385.52L183.7 384.75C183.77 384.57 183.91 384.42 184.04 384.27C184.16 384.14 184.27 384.01 184.33 383.87C184.39 383.74 184.42 383.57 184.45 383.39C184.52 383.04 184.59 382.68 184.87 382.48C185.55 382.01 186.4 381.87 187.31 381.73C187.74 381.66 188.19 381.59 188.61 381.49C188.72 381.45 188.85 381.43 189.03 381.43C189.19 381.43 189.37 381.44 189.55 381.46C189.72 381.47 189.89 381.49 190.04 381.49C190.18 381.49 190.28 381.48 190.38 381.45C190.51 381.43 190.65 381.42 190.79 381.42H191.07C191.14 381.42 191.29 381.42 191.36 381.4C191.59 381.31 191.85 381.31 192.08 381.3C192.58 381.3 192.71 381.25 192.73 380.98V380.95L192.75 380.91C192.77 380.82 192.63 380.42 192.16 379.68C192.12 379.62 192 379.57 191.9 379.53C191.76 379.47 191.62 379.42 191.53 379.3C191.28 378.96 190.88 378.75 190.58 378.72C190.48 378.72 190.37 378.77 190.24 378.83C190.06 378.91 189.83 379.02 189.51 379.07C189.41 379.09 189.31 379.09 189.23 379.09C189.11 379.09 189 379.08 188.91 379.07C188.84 379.07 188.78 379.06 188.72 379.06C188.68 379.06 188.65 379.06 188.62 379.07C188.58 379.08 188.49 379.1 188.38 379.12C188.28 379.14 188.17 379.16 188.1 379.17C188.05 379.18 188.02 379.21 187.97 379.25C187.9 379.31 187.81 379.38 187.63 379.42C186.93 379.57 186.12 379.61 185.87 379.61C185.48 379.61 185.34 379.64 185.1 379.7C184.98 379.73 184.83 379.76 184.62 379.8C184.56 379.81 184.48 379.82 184.41 379.82C184.29 379.82 184.17 379.81 184.04 379.8C183.93 379.79 183.82 379.78 183.72 379.78C183.68 379.78 183.65 379.78 183.62 379.78C183.39 379.81 183.18 379.82 182.99 379.82C182.72 379.82 182.48 379.79 182.26 379.74C182.1 379.7 181.95 379.68 181.81 379.67C181.32 379.61 180.82 379.55 180.82 378.71V378.67L180.84 378.63C180.91 378.47 180.8 377.43 180.72 377.16L179.72 373.71C179.72 373.71 179.68 373.68 179.66 373.66C179.57 373.59 179.51 373.55 179.37 373.53C179.24 373.61 179.11 373.66 178.99 373.7C178.8 373.77 178.64 373.83 178.56 373.94L178.31 374.84C178.27 374.93 178.21 375.02 178.15 375.11C178.02 375.31 177.88 375.51 177.93 375.76C177.95 375.87 178.01 376 178.07 376.12C178.13 376.24 178.19 376.37 178.22 376.53L178.16 377.55C178.18 377.62 178.25 377.7 178.32 377.79C178.41 377.89 178.5 378 178.55 378.13C178.69 378.56 178.61 379.24 178.55 379.48L178.53 379.56L178.46 379.59C178.04 379.79 177.24 379.85 176.83 379.85H176C175.81 379.9 175.48 379.96 175.22 379.96C175.13 379.96 175.06 379.96 174.97 379.93C174.54 379.83 173.95 379.7 173.44 379.7C173.28 379.7 173.14 379.71 173.02 379.74C172.94 379.76 172.83 379.77 172.7 379.77C171.92 379.77 169.42 379.31 169.24 379.04C169.13 378.88 169.22 378.68 169.36 378.37C169.46 378.14 169.58 377.86 169.67 377.53C169.71 377.38 169.79 377.25 169.87 377.12C169.97 376.96 170.08 376.79 170.09 376.6C170.09 376.44 170.12 376.25 170.16 376.07C170.19 375.9 170.22 375.73 170.23 375.63C170.16 375.34 170.28 375.01 170.4 374.66C170.46 374.48 170.53 374.29 170.57 374.09C170.61 373.91 170.69 373.24 170.77 372.58C170.85 371.89 170.93 371.25 170.98 371.06C171.08 370.64 171.14 370.06 171.07 369.77C170.96 369.3 171.05 367.75 171.24 367.45C171.33 367.3 171.46 367.27 171.55 367.27C171.68 367.27 171.81 367.33 171.94 367.4C172.08 367.47 172.22 367.54 172.36 367.54C172.39 367.54 172.41 367.54 172.44 367.54C172.49 367.53 172.54 367.52 172.58 367.52C172.82 367.52 172.99 367.66 173.13 367.78C173.27 367.89 173.38 367.99 173.55 367.99C173.59 367.99 173.63 367.99 173.67 367.97H173.76C173.91 367.97 174.2 368.02 174.51 368.08C174.77 368.13 175.07 368.19 175.18 368.19H175.24L175.72 368.25C176.17 368.14 176.48 368.11 176.78 368.09C177.1 368.06 177.4 368.03 177.9 367.91H178.59C179.14 367.79 180.42 367.19 180.84 366.94C181.28 366.68 182.08 365.93 182.39 365.48C182.46 365.39 182.5 365.28 182.55 365.17C182.63 365 182.7 364.82 182.85 364.68C182.99 364.55 183.16 364.44 183.32 364.35C183.51 364.23 183.69 364.12 183.81 363.97C183.91 363.84 183.97 363.68 184.03 363.5C184.09 363.34 184.14 363.17 184.24 363.01C184.28 362.95 184.31 362.9 184.35 362.84C184.47 362.66 184.57 362.52 184.6 362.27C184.25 361.85 183.98 361.43 183.83 360.8C183.8 360.65 183.53 360.49 183.32 360.36C183.1 360.22 182.89 360.09 182.79 359.92C182.63 359.64 182.14 359.52 181.67 359.41C181.28 359.31 180.91 359.23 180.66 359.04C180.48 358.91 179.89 358.77 179.32 358.63C178.32 358.39 177.64 358.21 177.42 357.94L177.37 357.88L177.39 357.8C177.51 357.28 178.55 356.87 179.9 356.38C180.32 356.23 180.72 356.08 180.87 355.99C180.97 355.93 181.26 355.83 181.72 355.67C182.06 355.55 182.57 355.38 182.65 355.33C182.91 355.15 184.31 353.85 184.42 353.59C184.46 353.49 184.47 353.39 184.48 353.27C184.49 353.15 184.5 353.01 184.56 352.87C184.59 352.8 184.63 352.7 184.69 352.6C184.86 352.26 185.1 351.79 184.86 351.43C184.7 351.01 184.01 350.94 183.34 350.88C182.94 350.84 182.57 350.81 182.28 350.7C181.79 350.52 180.74 350.22 179.88 350.22C179.68 350.22 179.5 350.24 179.35 350.27C179.27 350.29 179.18 350.32 179.08 350.34C178.83 350.41 178.56 350.5 178.25 350.5C178.13 350.5 178.02 350.49 177.91 350.46C177.47 350.36 177.01 350.22 176.57 350.08C176.27 349.99 175.98 349.9 175.76 349.83H174.79C174.69 349.8 174.58 349.75 174.47 349.7C174.36 349.65 174.26 349.61 174.16 349.58C173.9 349.51 173.6 349.49 173.31 349.47C173.04 349.45 172.79 349.44 172.6 349.39H171.59L171.48 349.36C171.24 349.3 171.02 349.25 170.7 349.24C170.7 349.24 170.34 349.24 170.32 349.16C170.3 349.09 170.6 348.77 170.73 348.57C171.05 348.07 171.32 347.55 171.63 347.08C172.14 346.29 172.46 345.44 172.98 344.67C173.13 344.44 173.41 344.27 173.57 344.05C173.79 343.76 173.9 343.42 174.12 343.13L174.47 342.84C175.17 341.92 175.71 340.92 176.41 340C177.01 339.21 177.87 338.67 178.68 338.09C179.04 337.83 179.28 337.46 179.48 337.07C179.64 336.76 180.01 336.53 180.31 336.31C180.64 335.97 180.97 335.64 181.3 335.3C181.53 335.17 181.76 335.05 181.99 334.92C182.32 334.68 182.49 334.21 182.83 333.96C183.45 333.51 183.94 332.98 184.56 332.53L185.4 331.67C186.07 331.19 186.68 330.74 187.37 330.29L188.01 329.62C188.56 329.15 189.04 328.71 189.49 328.13C189.92 327.71 190.35 327.3 190.77 326.88C191.15 326.39 191.69 326.06 192.06 325.59C192.48 325.05 192.9 324.65 193.42 324.26L194.17 324.19C194.7 324.45 195 325.03 195.47 325.36C195.81 325.59 196.23 325.63 196.63 325.82C197 326 197.41 326.32 197.74 326.57C198.6 327.23 199.12 328.49 199.99 329.14C200.33 329.39 200.72 329.71 201.1 329.89C201.5 330.07 201.91 330.12 202.26 330.35C202.39 330.44 202.52 330.61 202.64 330.7C202.95 330.93 203.3 331.07 203.6 331.3C204.38 331.89 204.8 332.92 205.56 333.52C206.38 334.17 206.99 334.95 207.62 335.79C207.73 335.87 207.84 335.96 207.96 336.04C208.25 336.33 208.48 336.64 208.72 336.98C208.91 337.16 209.1 337.34 209.3 337.52C209.47 337.76 209.56 338.02 209.73 338.26C209.94 338.47 210.15 338.69 210.35 338.9C210.64 339.32 210.82 339.77 211.11 340.18C211.43 340.63 211.88 340.96 212.21 341.41C212.69 342.07 212.96 342.24 213.67 342.66C214.09 342.91 214.4 343.35 214.8 343.62C215.29 343.95 215.81 344.14 216.27 344.47C216.67 344.76 216.7 345.24 216.97 345.68C217.26 346.14 217.63 346.55 217.96 346.98C218.39 347.53 218.43 347.2 218.85 347.75C219.36 348.41 219.38 347.95 219.93 348.58C220.13 348.81 220.48 348.95 220.67 349.2C220.97 349.59 221.23 350.01 221.5 350.43C221.47 350.56 221.27 350.35 221.13 350.3L221.04 350.27C220.95 350.24 220.85 350.22 220.73 350.22C220.53 350.22 220.31 350.27 220.08 350.32C219.84 350.37 219.59 350.43 219.34 350.43C219.19 350.43 219.06 350.41 218.94 350.37C218.72 350.31 218.43 350.26 218.13 350.22C217.79 350.17 217.44 350.12 217.21 350.04L216.34 349.96C216.15 349.91 215.95 349.88 215.73 349.85C215.51 349.82 215.28 349.79 215.07 349.73L213.6 349.34C213.49 349.32 213.37 349.32 213.25 349.32H212.9C212.77 349.32 212.64 349.32 212.49 349.29L211.31 348.89C211.21 348.87 211.1 348.87 210.97 348.87H210.55C210.42 348.87 210.24 348.87 210.09 348.84C209.78 348.78 209.44 348.66 209.11 348.55C208.77 348.43 208.44 348.32 208.17 348.28C208.07 348.26 207.97 348.26 207.87 348.26C207.68 348.26 207.5 348.28 207.32 348.31C207.13 348.34 206.93 348.36 206.71 348.36C206.6 348.36 206.48 348.36 206.37 348.33C206.13 348.29 205.81 348.27 205.51 348.25C205.2 348.23 204.9 348.21 204.69 348.18L203.83 348.25C203.49 348.2 203.2 348.1 202.92 348C202.64 347.9 202.38 347.81 202.11 347.76L201.55 347.86L199.04 347.88C198.28 347.75 197.55 347.59 196.84 347.44C196.09 347.28 195.32 347.11 194.52 346.97C194.45 346.96 194.38 346.95 194.31 346.95C194.06 346.95 193.84 347.02 193.62 347.08C193.46 347.13 193.31 347.17 193.16 347.19C193.09 347.19 193.02 347.2 192.95 347.2C192.65 347.2 192.39 347.12 192.15 347.04C192.02 347 191.9 346.96 191.78 346.94C191.7 346.93 191.64 346.92 191.57 346.92C191.41 346.92 191.28 346.96 191.15 346.99C191.02 347.03 190.88 347.06 190.72 347.06C190.68 347.06 190.63 347.06 190.59 347.06C190.54 347.06 190.48 347.06 190.43 347.06H190.27C190.18 347.06 190.1 347.06 190.03 347.05C189.89 347.03 189.77 347.02 189.64 347.01C189.43 346.99 189.21 346.98 188.97 346.89C188.81 346.83 188.68 346.76 188.55 346.69C188.37 346.59 188.19 346.49 187.91 346.45C187.73 346.45 187.25 346.55 186.9 346.63C186.73 346.67 186.58 346.7 186.48 346.72C186.37 346.92 186.33 347 186.36 347.35C186.54 347.61 186.56 347.96 186.57 348.28C186.57 348.42 186.58 348.55 186.6 348.65C186.68 348.69 186.75 348.74 186.83 348.79C187.01 348.9 187.19 349.01 187.38 349.07C187.63 349.16 187.9 349.21 188.15 349.26C188.5 349.33 188.85 349.41 189.19 349.56C189.39 349.65 189.53 349.81 189.67 349.97C189.82 350.14 189.97 350.31 190.15 350.34C190.17 350.34 190.2 350.34 190.22 350.34C190.33 350.34 190.4 350.28 190.52 350.17C190.59 350.1 190.67 350.03 190.76 349.99H190.84C191.02 349.98 191.18 350.05 191.32 350.11C191.44 350.16 191.55 350.21 191.63 350.22C191.73 350.19 191.84 350.14 191.96 350.09C192.3 349.95 192.72 349.77 193.14 349.77C193.21 349.77 193.27 349.77 193.34 349.78C193.41 349.78 193.5 349.81 193.6 349.84C193.69 349.86 193.78 349.88 193.78 349.89L194.09 349.84L194.46 349.79C194.73 349.83 195.05 349.85 195.39 349.87C195.75 349.89 196.13 349.91 196.43 349.96L197.39 349.88C197.61 349.91 197.84 349.93 198.08 349.94C198.33 349.96 198.58 349.97 198.78 350L199.19 349.97L199.35 350C199.82 350.09 200.25 350.18 200.7 350.33C201.08 350.45 201.48 350.48 201.9 350.51C202.23 350.53 202.57 350.56 202.91 350.63C203.07 350.66 203.24 350.68 203.42 350.7C203.63 350.72 203.85 350.74 204.04 350.79C204.1 350.81 204.16 350.81 204.22 350.81C204.35 350.81 204.47 350.77 204.59 350.72C204.72 350.67 204.86 350.62 205.03 350.62C205.13 350.62 205.22 350.64 205.31 350.67C205.39 350.7 205.46 350.75 205.52 350.79C205.57 350.83 205.63 350.87 205.66 350.88C205.71 350.9 205.76 350.9 205.82 350.9C205.91 350.9 206.01 350.88 206.1 350.87C206.22 350.85 206.34 350.83 206.46 350.83C206.54 350.83 206.61 350.83 206.69 350.85C206.77 350.87 206.85 350.91 206.93 350.94C206.99 350.97 207.05 351 207.1 351.01C207.75 351.17 208.37 351.23 209.02 351.29C209.34 351.32 209.66 351.35 210 351.4C210.31 351.44 210.58 351.46 210.84 351.47C211.12 351.49 211.39 351.5 211.71 351.54C211.88 351.56 212.11 351.59 212.38 351.62C214.31 351.83 215 351.96 215.16 352.2H215.18L215.22 352.28C215.31 352.43 215.22 352.66 215.07 353.08C214.99 353.28 214.91 353.51 214.9 353.59C214.92 353.83 214.84 354.2 214.75 354.6C214.67 354.96 214.59 355.33 214.6 355.55C214.54 356.04 214.6 356.65 214.65 357.23C214.71 357.85 214.76 358.44 214.69 358.88L214.71 359.79C214.67 360.08 214.64 360.41 214.61 360.75C214.59 361.06 214.56 361.38 214.52 361.62L214.61 362.72C214.49 363.6 214.52 365.26 214.74 366.05L214.77 366.97C214.82 367.56 215.48 370.44 215.63 370.89C215.78 371.34 215.84 372.27 215.78 372.71C215.74 373.07 216.07 373.94 216.27 374.3C216.33 374.41 216.39 374.52 216.44 374.62C216.53 374.79 216.61 374.95 216.75 375.17L216.94 375.85C217.05 376.06 217.24 376.19 217.43 376.33C217.5 376.38 217.57 376.43 217.63 376.48C217.65 376.48 217.67 376.48 217.69 376.48C217.85 376.48 217.98 376.51 218.11 376.53C218.2 376.55 218.28 376.56 218.36 376.56C218.41 376.56 218.45 376.56 218.55 376.53C218.65 376.53 218.74 376.45 218.85 376.35C218.98 376.23 219.13 376.1 219.3 376.1C219.58 376 220.26 375.57 220.33 375.44C220.43 375.29 220.24 374.52 220.06 374.16C219.98 374.01 219.89 373.85 219.79 373.69C219.6 373.37 219.41 373.04 219.3 372.74C219.25 372.61 219.25 372.47 219.25 372.35C219.25 372.24 219.25 372.15 219.21 372.09C219.15 372 219.05 371.91 218.94 371.82C218.83 371.73 218.71 371.63 218.63 371.51C218.54 371.38 218.5 371.19 218.46 371C218.44 370.92 218.43 370.85 218.4 370.76L218.3 370.03C218.3 370.03 217.38 367.2 217.44 366.78C217.46 366.63 217.52 366.48 217.57 366.33C217.61 366.22 217.65 366.11 217.67 366.06L217.53 364.35C217.48 364.2 217.44 364 217.39 363.81C217.34 363.61 217.29 363.41 217.24 363.21L217.19 362.57C217.16 362.48 217.11 362.37 217.05 362.26C216.91 361.97 216.74 361.62 216.78 361.26C216.82 360.99 216.89 360.73 216.96 360.49C217.02 360.29 217.07 360.1 217.11 359.91C217.15 359.65 217.13 359.42 217.1 359.17C217.07 358.93 217.04 358.67 217.09 358.4C217.13 358.13 217.17 357.84 217.21 357.55C217.3 356.85 217.4 356.12 217.59 355.5C217.67 355.24 217.73 354.93 217.76 354.73C217.8 354.48 217.76 354.15 217.71 353.85C217.63 353.31 217.55 352.75 217.94 352.47C218.04 352.4 218.16 352.36 218.31 352.36C218.61 352.36 218.96 352.52 219.19 352.62C219.25 352.65 219.3 352.67 219.33 352.68C219.55 352.77 219.8 352.79 220.06 352.81C220.27 352.83 220.48 352.85 220.7 352.9C220.88 352.94 221.07 352.99 221.26 353.04C221.73 353.16 222.22 353.29 222.64 353.36L223.12 353.33C223.27 353.35 223.43 353.3 223.6 353.4C224.36 354.24 225.42 355.5 225.84 356.34C226.3 356.5 226.39 356.96 226.63 357.35C226.93 357.81 227.05 358.73 227.4 359.18C227.92 359.86 228.37 361.26 228.75 362.09C228.9 362.42 229.07 362.78 229.16 363.11C229.18 363.34 230.12 365.65 230.13 365.87C230.57 367.41 230.9 368.11 231.27 369.69C231.29 370.23 231.8 370.99 231.83 371.52C232.07 372.58 232.08 373.79 232.31 374.89L232.34 376.35C232.42 376.71 232.59 377.08 232.66 377.43L232.59 378.6C232.71 379.09 232.88 379.78 233 380.31C233.01 380.6 233.02 380.89 233.03 381.19C233.24 382.1 233.27 383.17 233.52 384.12C233.86 385.41 234.18 386.96 234.53 388.27C234.54 388.5 234.56 388.72 234.57 388.95C234.69 389.47 234.81 390.15 234.93 390.66C235.17 391.69 234.9 392.92 235.12 393.97C235.15 394.11 235.23 394.38 235.26 394.51V394.65L236.57 394.03L238.31 396.23L240.27 396.7L241.99 394.81L244.49 396.1L245.99 394.68L246.72 392.48L248.86 391.71L248.66 388.87L249.58 387.07L251.86 386.22L252.95 384.49L253.62 382.5L254.99 380.93L256.18 379.25L255.79 376.69L256.75 374.89L259.14 374.5L260.16 373.12L262.05 372.03L264.14 372.08L266.3 371.29L268.2 373.08L270.53 371.58L272.29 373.82L274.37 374.08L276.38 375.33L278.6 372.61L280.71 374.09L282.88 373.86L283.71 370.94L286.5 371.25L286.48 368.62L288.33 367.39L289.32 365.56L290.53 363.85L291.9 361.76L294.25 363.26L296.17 363L297.41 364.89L299.37 365.41L302.13 365.04L303.59 366.45L304.25 369.19L306.36 369.64L308.28 370.32L309.54 373.1L311.64 373.6L313.77 373.82L315.99 372.84L318 373.43L320.06 374.5L322.17 374.65L324.05 372.07L326.06 371.95L328.09 371.87L330.28 372.49L331.76 369.72L333.72 369.32L335.98 369.95L338.21 370.27L340.47 370.53L341.25 366.46L343.32 366.58L345.06 365.61L346.87 364.48L348.97 364.31L350.94 366.16L352.78 366.31L353.98 368.47L356.45 367.11L357.44 369.89L360.17 367.66L361.9 368.5L363.53 370.47L365.53 370.34L367.47 370.74L369.43 371.18L371.38 370.2L373.27 368.85L375.38 371.93L377.22 370.05L379.26 369.3L381.43 370.08L383.36 368.15L385.71 370.64L387.83 370.6L389.8 369.27L389.99 369.11V0H0V376.14L1.51 375.43L3.32 374.32ZM175.36 383.4C175.4 383.29 175.41 383.19 175.43 383.09C175.48 382.82 175.53 382.5 175.86 382.4C176.09 382.23 176.84 382.19 177.42 382.18H177.79C178.27 382.18 179.17 382.18 179.47 381.97L179.56 381.94H179.61C180.68 381.94 181.07 382.22 181.63 382.82L181.67 382.87V382.93C181.68 383.43 181.57 383.73 181.47 384.02C181.44 384.11 181.41 384.2 181.38 384.26L181.27 385.27C181.2 385.47 181.05 385.61 180.92 385.73C180.78 385.86 180.67 385.97 180.64 386.11C180.64 386.15 180.68 386.27 180.7 386.33C180.72 386.38 180.73 386.42 180.74 386.45C180.85 386.95 180.62 387.96 180.36 388.12C180.2 388.2 179.31 388.25 178.79 388.25C178.48 388.25 178.25 388.23 178.11 388.2C177.69 388.11 177.09 388.07 176.6 388.04C175.88 388 175.73 387.99 175.68 387.83C175.61 387.6 175.63 387.32 175.64 387.03C175.65 386.78 175.67 386.52 175.63 386.3C175.58 386.07 175.53 385.85 175.48 385.63C175.3 384.85 175.12 384.11 175.36 383.39V383.4ZM171.13 352.13C171.18 351.95 171.24 351.89 171.34 351.82C171.43 351.75 171.54 351.73 171.64 351.71C171.69 351.71 171.76 351.69 171.79 351.67L171.84 351.64H171.89C172.34 351.64 172.45 351.67 172.63 351.75C172.7 351.78 172.79 351.81 172.93 351.85C173.07 351.89 173.22 351.89 173.37 351.9C173.51 351.9 173.64 351.9 173.76 351.94C173.78 351.94 173.84 351.96 174.01 351.96C174.42 351.96 175.07 351.89 175.27 351.85H177.02C177.07 351.85 177.13 351.84 177.19 351.84C177.27 351.84 177.35 351.84 177.44 351.86C177.52 351.86 177.61 351.88 177.7 351.88C177.77 351.88 177.83 351.88 177.89 351.86C178.22 351.77 178.69 351.76 179.05 351.76H179.21L179.51 352.18L179.41 352.45C179.21 353.04 179.01 353.59 178.79 353.76C178.65 353.87 178.51 353.88 178.39 353.89C178.31 353.89 178.24 353.89 178.15 353.93C178.07 353.96 178 354.03 177.91 354.11C177.82 354.2 177.72 354.29 177.58 354.35L177.27 354.42C177.12 354.52 177.01 354.71 176.9 354.91C176.78 355.11 176.67 355.33 176.48 355.47C176.38 355.55 176.26 355.62 176.15 355.69C175.95 355.81 175.76 355.93 175.65 356.09C175.56 356.29 175.29 356.31 174.99 356.33C174.86 356.33 174.65 356.35 174.6 356.39C174.54 356.49 174.39 356.6 174.01 356.85C173.77 357.01 173.37 357.28 173.32 357.34C173.39 357.53 174.38 357.9 174.86 358.08C175.58 358.35 175.82 358.45 175.9 358.58C176.03 358.81 176.59 359.11 177.04 359.36C177.48 359.6 177.85 359.81 178.02 360L178.67 360.76C178.76 360.83 179.04 360.93 179.31 361.03C180.11 361.32 180.63 361.54 180.63 361.88C180.63 363.14 179.64 363.8 178.93 364.28L178.76 364.4C178.41 364.66 177.58 365.28 177.09 365.46C176.94 365.52 176.79 365.55 176.65 365.57C176.5 365.6 176.36 365.62 176.23 365.68C176.16 365.72 176.08 365.77 176.01 365.82C175.89 365.91 175.76 366 175.61 366.05C175.51 366.08 175.4 366.1 175.29 366.1C175.14 366.1 175 366.07 174.86 366.04C174.73 366.01 174.61 365.98 174.49 365.98C174.42 365.98 174.35 365.98 174.28 366.01C174.22 366.03 174.17 366.03 174.1 366.03C173.92 366.03 173.76 365.97 173.6 365.91C173.46 365.85 173.32 365.8 173.2 365.8C173.15 365.8 173.11 365.8 173.07 365.82L172.99 365.84H172.96C172.74 365.84 172.58 365.63 172.41 365.41C172.26 365.22 172.09 365 171.94 365H171.84L171.74 364.84C171.66 364.71 171.61 364.62 171.61 364.33V364.28L171.64 364.24C171.8 363.99 171.7 363.59 171.57 363.11C171.45 362.65 171.31 362.13 171.41 361.63C171.72 360.08 171.99 358.2 171.56 356.03L171.52 355.05C171.49 354.9 171.49 354.7 171.49 354.48C171.49 354.23 171.49 353.97 171.44 353.77C171.42 353.7 171.36 353.59 171.3 353.48C171.11 353.14 170.82 352.62 171.08 352.13H171.13ZM159.58 375.68C159.61 373.71 160.27 372.23 160.97 370.88C161.15 370.53 161.4 370.2 161.52 369.77C161.54 369.53 161.56 369.28 161.58 369.04C161.83 368.1 161.84 366.91 162.21 366.03C162.51 365.31 163 364.65 163.31 363.95C163.5 363.54 163.58 363.15 163.81 362.79C164.03 362.45 164.42 362.24 164.65 361.93C164.94 361.55 165.16 360.97 165.35 360.53C165.79 359.5 165.96 358.44 166.37 357.38C166.57 356.87 166.92 356.49 167.12 356.03C167.17 355.82 167.22 355.61 167.28 355.4C167.37 355.19 167.54 354.93 167.63 354.72C167.86 354.18 167.79 353.61 168 353.02C168.1 352.74 168.3 352.52 168.45 352.3C168.46 352.3 168.63 352.05 168.85 351.69C168.89 351.72 168.92 351.74 168.92 351.74L169.01 351.83C169.01 351.83 169.04 351.88 169.06 351.9C169.1 351.95 169.14 352 169.15 352.07C169.36 352.37 169.34 352.69 169.31 352.99C169.29 353.18 169.28 353.39 169.32 353.59C169.4 353.99 169.44 354.95 169.32 355.46C169.31 355.52 169.29 355.59 169.27 355.66C169.2 355.91 169.11 356.21 169.18 356.51C169.28 356.97 169.33 357.49 169.33 358.07L169.31 358.39L169.28 358.65C169.31 358.77 169.36 358.92 169.41 359.05C169.45 359.17 169.49 359.28 169.53 359.42L169.48 360.55C169.63 361.28 169.63 361.92 169.48 362.53V363.74C169.43 363.94 169.44 364.17 169.45 364.4C169.46 364.86 169.48 365.37 169 365.6C168.94 365.63 168.85 365.66 168.74 365.69C168.26 365.83 168.03 365.95 168.09 366.24C168.13 366.41 168.3 366.53 168.49 366.66C168.68 366.79 168.87 366.92 168.94 367.14C169.13 367.73 168.9 368.81 168.82 369.13C168.78 369.32 168.58 369.68 168.35 370.1C168.15 370.47 167.84 371.03 167.84 371.15C167.98 371.76 168 374.45 167.84 374.86C167.69 375.24 167.74 375.6 167.8 375.98C167.87 376.41 167.93 376.86 167.67 377.3C167.59 377.42 167.56 377.63 167.52 377.83C167.45 378.21 167.37 378.64 167.04 378.74C166.9 378.85 166.5 378.85 166.49 378.85C166.39 378.85 166.3 378.85 166.23 378.82C166.12 378.82 165.84 378.88 165.6 378.93C165.31 378.99 165.03 379.05 164.87 379.05C164.82 379.05 164.78 379.05 164.74 379.03C164.57 378.96 164.3 378.94 164.07 378.93C163.89 378.92 163.73 378.9 163.61 378.88C163.47 378.88 163.26 378.83 163.03 378.78C162.84 378.74 162.63 378.69 162.53 378.69H162.46C162.09 378.69 159.78 378.37 159.48 378.31C159.4 378.29 159.21 378.31 159.18 378.28C159.15 378.25 159.28 377.95 159.27 377.9C159.18 377.75 159.6 376.16 159.61 375.71L159.58 375.68ZM157.19 385.57C157.54 384.48 157.86 383.48 158.21 382.47C158.36 382.03 158.32 380.72 158.42 380.59C158.52 380.46 158.56 380.65 158.64 380.67C158.72 380.69 158.81 380.7 158.9 380.7C159.17 380.7 159.46 380.63 159.69 380.57L159.91 380.52L162.74 380.88C162.83 380.86 162.92 380.85 163.02 380.85C163.15 380.85 163.29 380.86 163.43 380.88C163.56 380.89 163.7 380.91 163.84 380.91C163.95 380.91 164.05 380.9 164.14 380.88C164.17 380.88 164.2 380.87 164.24 380.87C164.32 380.87 164.4 380.89 164.47 380.91C164.52 380.92 164.58 380.94 164.63 380.94C164.73 380.92 164.84 380.9 164.97 380.9C165.35 380.9 165.77 381.01 166.06 381.09L166.22 381.13C166.32 381.15 166.42 381.17 166.53 381.17C166.72 381.17 166.92 381.14 167.13 381.1C167.35 381.06 167.59 381.03 167.83 381.03C168 381.03 168.16 381.05 168.31 381.09C168.55 381.15 168.82 381.23 169.09 381.31C169.41 381.4 169.75 381.5 170.06 381.58C170.22 381.62 170.34 381.68 170.45 381.73C170.58 381.79 170.67 381.84 170.81 381.84C170.87 381.84 170.93 381.84 171 381.82C171.21 381.78 171.41 381.75 171.59 381.75C172.29 381.75 172.55 382.08 172.62 382.32C172.75 382.5 172.76 382.75 172.76 383C172.76 383.14 172.76 383.29 172.79 383.4C172.86 383.68 172.93 384.03 172.99 384.36C173.04 384.61 173.08 384.85 173.13 385.1C173.13 385.21 173.2 385.31 173.29 385.43C173.39 385.57 173.51 385.74 173.51 385.91C173.53 386.01 173.58 386.12 173.63 386.22C173.68 386.33 173.73 386.44 173.75 386.53C173.97 387.35 174.01 387.72 173.89 387.89C173.81 388.01 173.67 388.03 172.78 388.09C172.44 388.11 172.09 388.14 171.93 388.17L171.8 388.2C171.59 388.25 171.4 388.29 171.17 388.29C171.01 388.29 170.84 388.27 170.65 388.22C170.43 388.17 170.02 388.12 169.61 388.12C169.36 388.12 169.15 388.14 168.97 388.18C168.33 388.32 167.73 388.34 167.18 388.34H164.62L164.54 388.31C164.28 388.25 164.03 388.19 163.69 388.19L162.94 388.21L162.15 388.23C162.03 388.2 159.77 387.86 159.53 387.86C159.44 387.86 159.36 387.86 159.3 387.88C158.86 387.97 158.5 388.02 158.15 388.02C157.8 388.02 157.46 387.98 157.04 387.88C156.99 387.87 156.93 387.86 156.86 387.86C156.77 387.86 156.68 387.86 156.59 387.88C156.83 386.83 157.07 385.84 157.15 385.59L157.19 385.57Z" fill="#B9CED1"/>
<path d="M176.61 396.47C176.16 396.47 175.94 396.52 175.83 396.64C175.77 396.68 175.75 396.76 175.74 396.85L176.53 397.67L177.08 396.49H177.04C176.9 396.49 176.75 396.49 176.62 396.49L176.61 396.47Z" fill="white"/>
<path d="M202.31 364.37C202.25 364.2 202.19 364.02 202.15 363.85L202.18 363.46L202.21 362.98L201.75 362.11C201.51 361.77 201.17 361.72 200.85 361.66C200.69 361.63 200.52 361.6 200.35 361.54C200.17 361.47 199.94 361.38 199.68 361.28C198.68 360.88 197.3 360.33 196.38 360.33H196.32C196.32 360.33 196.16 360.43 196.13 360.45C195.7 360.61 195.67 361.01 195.63 361.36C195.62 361.51 195.6 361.67 195.56 361.82C195.46 362.19 195.46 362.58 195.47 362.96C195.47 363.47 195.47 363.95 195.24 364.26L195.2 364.31V364.37C195.24 365.02 195.4 365.57 195.68 366.02L195.72 366.08H195.79C195.79 366.08 195.89 366.12 195.94 366.13C196.08 366.17 196.24 366.21 196.42 366.21C196.49 366.21 196.57 366.21 196.64 366.19L196.76 366.16C196.93 366.12 197.14 366.07 197.34 366.07C197.41 366.07 197.48 366.07 197.54 366.09C197.6 366.1 197.67 366.12 197.74 366.14C197.95 366.2 198.22 366.26 198.47 366.26C198.56 366.26 198.65 366.26 198.73 366.23L199.66 365.94H200.59C201.28 365.92 202.06 365.89 202.49 365.63L202.57 365.58V365.49C202.57 365.07 202.45 364.71 202.33 364.37H202.31Z" fill="white"/>
<path d="M209.78 394.38C209.69 394.32 209.4 393.84 209.21 393.52C208.83 392.89 208.67 392.65 208.53 392.59C208.41 392.54 208.3 392.51 208.18 392.48C208.03 392.44 207.89 392.4 207.78 392.33L207.74 392.3H207.69C207.35 392.3 207.29 392.77 207.18 393.84C207.15 394.16 207.11 394.49 207.07 394.75L208.32 394.45L210.31 395.26L210.42 395.24C210.39 395.18 210.35 395.12 210.32 395.06C210.2 394.8 210.05 394.51 209.76 394.39L209.78 394.38Z" fill="white"/>
<path d="M157.06 387.87C157.48 387.97 157.82 388.01 158.17 388.01C158.52 388.01 158.88 387.97 159.32 387.87C159.38 387.86 159.46 387.85 159.55 387.85C159.79 387.85 162.05 388.2 162.17 388.22L162.96 388.2L163.71 388.18C164.04 388.18 164.29 388.24 164.56 388.3L164.64 388.32H167.2C167.75 388.33 168.35 388.32 168.99 388.17C169.16 388.13 169.38 388.11 169.63 388.11C170.04 388.11 170.45 388.16 170.67 388.21C170.86 388.25 171.03 388.28 171.19 388.28C171.42 388.28 171.6 388.24 171.82 388.19L171.95 388.16C172.11 388.12 172.46 388.1 172.8 388.08C173.69 388.02 173.83 387.99 173.91 387.88C174.03 387.71 174 387.33 173.77 386.52C173.74 386.43 173.7 386.32 173.65 386.21C173.6 386.1 173.55 385.99 173.53 385.9C173.53 385.72 173.42 385.56 173.31 385.42C173.23 385.3 173.15 385.2 173.15 385.09C173.1 384.85 173.05 384.6 173.01 384.35C172.95 384.02 172.88 383.67 172.81 383.39C172.78 383.28 172.78 383.14 172.78 382.99C172.78 382.74 172.78 382.48 172.64 382.31C172.56 382.07 172.3 381.74 171.61 381.74C171.43 381.74 171.23 381.76 171.02 381.81C170.95 381.83 170.88 381.83 170.83 381.83C170.69 381.83 170.6 381.79 170.47 381.72C170.37 381.67 170.25 381.61 170.08 381.57C169.77 381.49 169.44 381.4 169.11 381.3C168.83 381.22 168.56 381.14 168.33 381.08C168.18 381.04 168.02 381.02 167.85 381.02C167.61 381.02 167.37 381.06 167.15 381.09C166.94 381.12 166.74 381.16 166.55 381.16C166.44 381.16 166.33 381.15 166.24 381.12L166.08 381.08C165.8 381 165.37 380.89 164.99 380.89C164.87 380.89 164.75 380.9 164.65 380.93C164.6 380.93 164.54 380.92 164.49 380.9C164.42 380.88 164.34 380.86 164.26 380.86C164.23 380.86 164.19 380.86 164.16 380.87C164.07 380.89 163.97 380.9 163.86 380.9C163.72 380.9 163.59 380.88 163.45 380.87C163.31 380.85 163.17 380.84 163.04 380.84C162.94 380.84 162.85 380.84 162.76 380.87L159.93 380.51L159.71 380.56C159.48 380.62 159.19 380.69 158.92 380.69C158.82 380.69 158.73 380.69 158.66 380.66C158.58 380.64 158.55 380.45 158.44 380.58C158.34 380.71 158.38 382.02 158.23 382.46C157.87 383.47 157.56 384.47 157.21 385.56C157.13 385.82 156.89 386.8 156.65 387.85C156.74 387.84 156.83 387.83 156.92 387.83C156.99 387.83 157.05 387.83 157.1 387.85L157.06 387.87Z" fill="white"/>
<path d="M219.79 392.94C219.55 392.76 219.32 392.58 219.16 392.37C218.77 391.87 218.41 391.39 217.84 391.03C217.6 390.88 217.3 390.84 217.02 390.8C216.82 390.77 216.62 390.75 216.44 390.68C216.15 390.57 215.92 390.38 215.68 390.17C215.53 390.04 215.37 389.9 215.19 389.79H215.17L214.37 389.54C214.27 389.48 214.18 389.35 214.09 389.21C214.03 389.12 213.97 389.04 213.9 388.96V388.85L214.01 388.74C214.35 388.41 214.98 387.79 215.29 387.66C215.53 387.56 215.68 387.54 215.84 387.51C216 387.49 216.17 387.46 216.41 387.36C216.62 387.28 216.78 387.14 216.94 387C217.07 386.89 217.2 386.78 217.33 386.72C217.46 386.66 217.6 386.65 217.75 386.64C217.89 386.64 218.05 386.62 218.23 386.57C218.43 386.48 218.55 386.35 218.66 386.23C218.76 386.12 218.85 386.02 218.97 385.97C219.15 385.91 219.27 385.78 219.38 385.66C219.48 385.55 219.57 385.45 219.72 385.41C219.9 385.36 220.06 385.24 220.19 385.13C220.28 385.06 220.37 384.99 220.44 384.96C220.6 384.95 220.72 384.81 220.84 384.7C220.92 384.61 221 384.54 221.08 384.53H221.15L221.19 384.47C221.19 384.47 221.25 384.43 221.29 384.4C221.35 384.37 221.43 384.32 221.49 384.25C221.65 384.09 221.79 384.03 221.9 383.99C222.09 383.92 222.23 383.84 222.24 383.5V383.43L221.87 383H221.82C221.59 382.94 221.41 382.89 221.13 382.89H221L220.96 382.92C220.83 383 220.15 383.18 219.69 383.18C219.62 383.18 219.56 383.18 219.51 383.17C219.41 383.15 219.19 383.1 218.98 383.1C218.89 383.1 218.82 383.1 218.75 383.13C218.46 383.2 218.07 383.3 217.73 383.38H216.74C216.6 383.42 216.51 383.47 216.43 383.51C216.33 383.56 216.23 383.62 216.14 383.63C216.05 383.65 215.98 383.65 215.91 383.65C215.79 383.65 215.7 383.63 215.59 383.61C215.53 383.6 215.48 383.59 215.41 383.58C215.37 383.58 215.34 383.58 215.3 383.58C215.11 383.58 214.95 383.65 214.8 383.71C214.72 383.74 214.64 383.78 214.58 383.79C214.48 383.79 214.38 383.75 214.3 383.71C214.23 383.68 214.17 383.66 214.12 383.65C213.98 383.62 213.81 383.6 213.61 383.6C213.08 383.6 212.5 383.72 212.34 383.76C212.32 383.76 212.29 383.76 212.26 383.76C212.16 383.76 212.05 383.73 211.97 383.72C211.85 383.7 211.79 383.69 211.73 383.69C211.54 383.69 211.37 383.74 211.24 383.78C211.2 383.79 211.16 383.8 211.12 383.81C211.05 383.83 210.96 383.83 210.85 383.83C210.62 383.83 210.37 383.79 210.22 383.76C210.14 383.74 210.06 383.74 209.98 383.74C209.75 383.74 209.54 383.8 209.37 383.86C209.3 383.88 209.24 383.9 209.18 383.92L208.12 383.88H208.09C208.01 383.92 207.94 383.97 207.86 384.03C207.83 384.06 207.79 384.08 207.77 384.1L207.71 384.14L207.69 384.21C207.6 384.57 207.65 384.94 207.69 385.33C207.74 385.72 207.79 386.11 207.7 386.5C207.66 386.7 207.67 386.94 207.68 387.2C207.7 387.46 207.71 387.74 207.66 387.95C207.54 388.4 207.73 388.76 207.86 389.02C207.9 389.1 207.94 389.18 207.97 389.25C208.01 389.36 207.99 389.44 207.97 389.56C207.95 389.68 207.92 389.82 207.97 390.02C208.06 390.39 208.21 390.61 208.37 390.84L208.48 391H208.54C208.7 391.05 208.98 391.29 209.2 391.49C209.47 391.73 209.7 391.93 209.9 391.98C210.05 392.02 210.17 392.15 210.3 392.29C210.43 392.43 210.56 392.57 210.74 392.64C210.8 392.66 210.88 392.72 210.96 392.77C211.05 392.83 211.13 392.89 211.22 392.92C211.41 392.97 211.64 393.27 211.84 393.54C212.09 393.88 212.33 394.2 212.62 394.27C212.86 394.37 213.1 394.52 213.33 394.69L214.32 394.54L216.39 392.68L218.33 394.53L220.31 393.41C220.14 393.24 219.96 393.08 219.77 392.93L219.79 392.94Z" fill="white"/>
<path d="M171.49 353.78C171.54 353.98 171.54 354.24 171.54 354.49C171.54 354.7 171.54 354.9 171.57 355.06L171.61 356.04C172.04 358.22 171.77 360.09 171.46 361.64C171.36 362.14 171.5 362.66 171.62 363.12C171.74 363.59 171.85 364 171.69 364.25L171.66 364.29V364.34C171.66 364.63 171.71 364.72 171.79 364.85L171.89 365.01H171.99C172.14 365.01 172.31 365.22 172.46 365.41C172.63 365.63 172.8 365.84 173.01 365.84H173.04L173.12 365.82C173.12 365.82 173.21 365.8 173.25 365.8C173.38 365.8 173.51 365.85 173.65 365.91C173.81 365.97 173.97 366.03 174.15 366.03C174.21 366.03 174.27 366.03 174.33 366.01C174.4 365.99 174.46 365.98 174.54 365.98C174.66 365.98 174.78 366.01 174.91 366.04C175.04 366.07 175.18 366.1 175.34 366.1C175.45 366.1 175.55 366.08 175.66 366.05C175.8 366 175.93 365.91 176.06 365.82C176.14 365.76 176.21 365.71 176.28 365.68C176.41 365.62 176.55 365.59 176.7 365.57C176.84 365.55 176.99 365.52 177.14 365.46C177.63 365.27 178.46 364.66 178.81 364.4L178.98 364.28C179.7 363.8 180.68 363.14 180.68 361.88C180.68 361.54 180.16 361.32 179.36 361.03C179.09 360.93 178.8 360.83 178.72 360.76L178.07 360C177.9 359.8 177.52 359.6 177.09 359.36C176.64 359.11 176.08 358.81 175.95 358.58C175.87 358.45 175.63 358.35 174.91 358.08C174.43 357.9 173.44 357.53 173.37 357.34C173.42 357.28 173.82 357.01 174.06 356.85C174.43 356.6 174.59 356.49 174.65 356.39C174.69 356.36 174.91 356.34 175.04 356.33C175.33 356.31 175.61 356.29 175.7 356.09C175.8 355.93 175.99 355.81 176.2 355.69C176.31 355.62 176.43 355.55 176.53 355.47C176.71 355.33 176.83 355.11 176.95 354.91C177.06 354.71 177.17 354.52 177.32 354.42L177.63 354.35C177.78 354.29 177.87 354.2 177.96 354.11C178.04 354.03 178.12 353.96 178.2 353.93C178.29 353.9 178.36 353.9 178.44 353.89C178.56 353.89 178.7 353.88 178.84 353.76C179.06 353.59 179.26 353.04 179.46 352.45L179.56 352.18L179.26 351.77H179.1C178.74 351.77 178.27 351.78 177.94 351.87C177.88 351.88 177.82 351.89 177.75 351.89C177.66 351.89 177.57 351.88 177.49 351.87C177.4 351.86 177.32 351.85 177.24 351.85C177.18 351.85 177.12 351.85 177.07 351.87H175.32C175.12 351.91 174.46 351.98 174.06 351.98C173.9 351.98 173.83 351.97 173.81 351.96C173.69 351.93 173.56 351.92 173.42 351.92C173.27 351.92 173.12 351.91 172.98 351.87C172.84 351.83 172.75 351.79 172.68 351.77C172.49 351.69 172.39 351.66 171.94 351.66H171.89L171.84 351.69C171.84 351.69 171.75 351.72 171.69 351.73C171.59 351.75 171.48 351.76 171.39 351.84C171.29 351.92 171.23 351.97 171.18 352.15C170.92 352.64 171.2 353.16 171.4 353.5C171.46 353.61 171.52 353.72 171.54 353.79L171.49 353.78Z" fill="white"/>
<path d="M159.45 378.28C159.75 378.34 162.05 378.66 162.43 378.66H162.5C162.6 378.66 162.82 378.71 163 378.75C163.23 378.8 163.44 378.85 163.58 378.85C163.7 378.87 163.87 378.89 164.04 378.9C164.27 378.92 164.54 378.94 164.71 379C164.75 379.01 164.79 379.02 164.84 379.02C165 379.02 165.27 378.96 165.57 378.9C165.81 378.85 166.08 378.79 166.2 378.79C166.27 378.81 166.35 378.82 166.46 378.82C166.48 378.82 166.88 378.82 167.01 378.71C167.35 378.6 167.43 378.17 167.49 377.8C167.53 377.6 167.56 377.4 167.64 377.27C167.91 376.83 167.84 376.38 167.77 375.95C167.71 375.57 167.66 375.21 167.81 374.83C167.98 374.42 167.95 371.73 167.81 371.12C167.81 371 168.12 370.44 168.32 370.07C168.55 369.65 168.75 369.29 168.79 369.1C168.86 368.78 169.09 367.7 168.91 367.11C168.84 366.9 168.65 366.76 168.46 366.63C168.27 366.5 168.1 366.38 168.06 366.21C168 365.93 168.23 365.8 168.71 365.66C168.81 365.63 168.9 365.6 168.97 365.57C169.45 365.35 169.44 364.83 169.42 364.37C169.42 364.14 169.41 363.91 169.45 363.71V362.5C169.61 361.89 169.61 361.25 169.45 360.52L169.5 359.39C169.47 359.25 169.43 359.14 169.38 359.02C169.33 358.88 169.27 358.74 169.25 358.62L169.28 358.36L169.3 358.04C169.3 357.46 169.25 356.94 169.15 356.48C169.08 356.19 169.17 355.88 169.24 355.63C169.26 355.56 169.28 355.49 169.29 355.43C169.41 354.92 169.37 353.96 169.29 353.56C169.25 353.36 169.26 353.15 169.28 352.96C169.3 352.65 169.33 352.34 169.12 352.04C169.1 351.97 169.06 351.92 169.03 351.87C169.02 351.85 169 351.83 168.98 351.8L168.89 351.71C168.89 351.71 168.86 351.69 168.82 351.66C168.6 352.02 168.43 352.27 168.42 352.27C168.27 352.49 168.07 352.72 167.97 352.99C167.76 353.58 167.83 354.15 167.6 354.69C167.51 354.9 167.34 355.16 167.25 355.37C167.2 355.58 167.15 355.79 167.09 356C166.89 356.46 166.53 356.84 166.34 357.35C165.93 358.41 165.76 359.47 165.32 360.5C165.13 360.94 164.9 361.52 164.62 361.9C164.38 362.21 164 362.42 163.78 362.76C163.55 363.12 163.46 363.51 163.28 363.92C162.96 364.61 162.48 365.28 162.18 366C161.81 366.88 161.8 368.06 161.55 369.01C161.53 369.25 161.51 369.5 161.49 369.74C161.37 370.18 161.12 370.5 160.94 370.85C160.24 372.19 159.58 373.68 159.55 375.65C159.55 376.1 159.12 377.68 159.21 377.84C159.23 377.89 159.09 378.19 159.12 378.22C159.15 378.25 159.33 378.22 159.42 378.25L159.45 378.28Z" fill="white"/>
<path d="M175.63 386.3C175.67 386.51 175.66 386.77 175.64 387.03C175.62 387.33 175.61 387.6 175.68 387.83C175.73 387.99 175.88 388 176.6 388.04C177.08 388.07 177.69 388.1 178.11 388.2C178.25 388.23 178.48 388.25 178.79 388.25C179.31 388.25 180.2 388.2 180.36 388.12C180.62 387.96 180.85 386.96 180.74 386.45C180.74 386.43 180.72 386.38 180.7 386.33C180.68 386.28 180.64 386.15 180.64 386.11C180.66 385.97 180.78 385.86 180.92 385.73C181.05 385.61 181.2 385.46 181.27 385.27L181.38 384.26C181.4 384.2 181.44 384.11 181.47 384.02C181.58 383.73 181.69 383.42 181.67 382.93V382.87L181.63 382.82C181.07 382.22 180.69 381.94 179.61 381.94H179.56L179.47 381.97C179.17 382.18 178.27 382.18 177.79 382.18H177.42C176.83 382.18 176.08 382.23 175.86 382.4C175.54 382.51 175.48 382.82 175.43 383.09C175.41 383.19 175.39 383.3 175.36 383.4C175.13 384.11 175.3 384.85 175.48 385.64C175.53 385.86 175.58 386.08 175.63 386.31V386.3Z" fill="white"/>
<path d="M235.15 393.96C234.92 392.91 235.2 391.68 234.96 390.65C234.84 390.15 234.71 389.46 234.6 388.94C234.59 388.71 234.57 388.49 234.56 388.26C234.22 386.95 233.9 385.4 233.55 384.11C233.3 383.16 233.27 382.09 233.06 381.18C233.05 380.89 233.04 380.6 233.03 380.3C232.91 379.77 232.74 379.08 232.62 378.59L232.69 377.42C232.61 377.07 232.45 376.71 232.37 376.34L232.34 374.88C232.11 373.79 232.1 372.58 231.86 371.51C231.84 370.97 231.33 370.21 231.3 369.68C230.92 368.1 230.6 367.4 230.16 365.86C230.15 365.63 229.21 363.32 229.19 363.1C229.1 362.78 228.94 362.42 228.78 362.08C228.4 361.25 227.96 359.85 227.43 359.17C227.09 358.73 226.96 357.81 226.66 357.34C226.41 356.95 226.33 356.49 225.87 356.33C225.44 355.48 224.38 354.23 223.63 353.39C223.45 353.3 223.3 353.35 223.15 353.32L222.67 353.35C222.25 353.27 221.76 353.15 221.29 353.03C221.1 352.98 220.91 352.93 220.73 352.89C220.51 352.84 220.3 352.82 220.09 352.8C219.83 352.78 219.58 352.76 219.36 352.67C219.32 352.65 219.27 352.63 219.22 352.61C218.99 352.5 218.64 352.35 218.34 352.35C218.19 352.35 218.07 352.39 217.97 352.46C217.58 352.74 217.66 353.3 217.74 353.84C217.79 354.15 217.83 354.47 217.79 354.72C217.76 354.93 217.7 355.23 217.62 355.49C217.42 356.11 217.33 356.83 217.24 357.54C217.2 357.83 217.17 358.12 217.12 358.39C217.08 358.66 217.11 358.92 217.13 359.16C217.16 359.41 217.19 359.64 217.14 359.9C217.11 360.09 217.05 360.28 216.99 360.48C216.92 360.73 216.84 360.98 216.81 361.25C216.76 361.61 216.93 361.97 217.08 362.25C217.13 362.36 217.19 362.47 217.22 362.56L217.27 363.2C217.33 363.39 217.38 363.59 217.42 363.8C217.47 363.99 217.51 364.18 217.56 364.34L217.7 366.05C217.68 366.11 217.64 366.21 217.6 366.32C217.55 366.46 217.49 366.61 217.47 366.77C217.41 367.19 218.32 370 218.33 370.02L218.43 370.75C218.46 370.84 218.47 370.91 218.49 370.99C218.53 371.18 218.57 371.37 218.66 371.5C218.74 371.62 218.86 371.71 218.97 371.81C219.08 371.9 219.18 371.99 219.24 372.08C219.28 372.14 219.28 372.23 219.28 372.34C219.28 372.46 219.28 372.59 219.33 372.73C219.44 373.03 219.64 373.36 219.82 373.68C219.92 373.84 220.01 374 220.09 374.15C220.28 374.51 220.46 375.28 220.36 375.43C220.28 375.57 219.6 375.99 219.33 376.09C219.16 376.09 219.01 376.22 218.88 376.34C218.77 376.43 218.68 376.51 218.58 376.52C218.49 376.55 218.44 376.55 218.39 376.55C218.31 376.55 218.23 376.53 218.14 376.52C218.02 376.5 217.88 376.47 217.72 376.47C217.7 376.47 217.68 376.47 217.66 376.47C217.59 376.42 217.52 376.37 217.46 376.32C217.26 376.18 217.08 376.06 216.97 375.84L216.78 375.16C216.64 374.94 216.56 374.78 216.47 374.61C216.42 374.51 216.36 374.4 216.3 374.29C216.1 373.94 215.77 373.07 215.81 372.7C215.86 372.26 215.81 371.34 215.66 370.88C215.51 370.43 214.85 367.55 214.8 366.96L214.77 366.04C214.54 365.25 214.51 363.59 214.64 362.71L214.55 361.61C214.59 361.37 214.61 361.05 214.64 360.74C214.67 360.4 214.69 360.06 214.74 359.78L214.72 358.87C214.79 358.43 214.74 357.84 214.68 357.22C214.63 356.63 214.57 356.02 214.63 355.54C214.62 355.32 214.7 354.95 214.78 354.59C214.87 354.19 214.95 353.82 214.93 353.58C214.93 353.49 215.02 353.27 215.1 353.07C215.26 352.65 215.34 352.42 215.25 352.27L215.21 352.2H215.19C215.02 351.95 214.34 351.81 212.41 351.61C212.14 351.58 211.9 351.56 211.74 351.53C211.42 351.49 211.15 351.47 210.87 351.46C210.61 351.45 210.34 351.43 210.03 351.39C209.69 351.35 209.37 351.31 209.05 351.28C208.4 351.22 207.78 351.15 207.13 351C207.09 350.99 207.03 350.96 206.96 350.93C206.88 350.89 206.8 350.85 206.72 350.84C206.65 350.82 206.57 350.82 206.49 350.82C206.37 350.82 206.25 350.84 206.13 350.86C206.03 350.88 205.94 350.89 205.85 350.89C205.79 350.89 205.73 350.89 205.69 350.87C205.65 350.86 205.6 350.82 205.55 350.78C205.48 350.73 205.41 350.68 205.34 350.66C205.25 350.63 205.15 350.61 205.06 350.61C204.9 350.61 204.76 350.66 204.62 350.71C204.5 350.75 204.38 350.8 204.25 350.8C204.19 350.8 204.13 350.8 204.07 350.78C203.88 350.73 203.66 350.71 203.45 350.69C203.27 350.67 203.1 350.66 202.94 350.62C202.6 350.55 202.26 350.52 201.93 350.5C201.51 350.47 201.11 350.44 200.73 350.32C200.28 350.17 199.84 350.08 199.38 349.99L199.22 349.96L198.81 349.99C198.61 349.96 198.36 349.94 198.11 349.93C197.88 349.92 197.64 349.9 197.42 349.87L196.46 349.95C196.16 349.9 195.79 349.88 195.42 349.86C195.08 349.84 194.75 349.83 194.49 349.78L194.12 349.83L193.81 349.88C193.81 349.88 193.71 349.85 193.63 349.83C193.53 349.81 193.43 349.78 193.37 349.77C193.31 349.77 193.24 349.76 193.17 349.76C192.75 349.76 192.33 349.94 191.99 350.08C191.87 350.13 191.76 350.18 191.66 350.21C191.58 350.21 191.47 350.15 191.35 350.1C191.21 350.04 191.06 349.97 190.87 349.97H190.79C190.7 350.02 190.62 350.09 190.55 350.16C190.44 350.27 190.36 350.33 190.25 350.33C190.23 350.33 190.21 350.33 190.18 350.33C190 350.29 189.85 350.13 189.7 349.96C189.56 349.8 189.41 349.64 189.22 349.55C188.88 349.4 188.52 349.32 188.18 349.25C187.92 349.2 187.66 349.14 187.41 349.06C187.22 349 187.04 348.89 186.86 348.78C186.78 348.73 186.71 348.69 186.63 348.64C186.61 348.54 186.6 348.41 186.6 348.27C186.59 347.95 186.57 347.6 186.39 347.34C186.36 346.99 186.39 346.9 186.51 346.71C186.62 346.69 186.77 346.66 186.93 346.62C187.28 346.54 187.77 346.44 187.94 346.44C188.22 346.48 188.4 346.58 188.58 346.68C188.71 346.75 188.84 346.83 189 346.88C189.24 346.97 189.46 346.98 189.67 347C189.79 347 189.92 347.02 190.06 347.04C190.13 347.05 190.21 347.06 190.3 347.06H190.46C190.52 347.06 190.57 347.06 190.62 347.06C190.66 347.06 190.71 347.06 190.75 347.06C190.91 347.06 191.05 347.02 191.18 346.99C191.32 346.95 191.45 346.92 191.6 346.92C191.66 346.92 191.73 346.92 191.81 346.94C191.93 346.96 192.05 347 192.18 347.04C192.41 347.11 192.68 347.2 192.98 347.2C193.05 347.2 193.12 347.2 193.19 347.19C193.34 347.17 193.49 347.12 193.65 347.08C193.87 347.01 194.09 346.95 194.34 346.95C194.41 346.95 194.48 346.95 194.55 346.97C195.36 347.1 196.13 347.27 196.87 347.44C197.58 347.6 198.31 347.76 199.07 347.88L201.58 347.86L202.14 347.76C202.4 347.8 202.67 347.9 202.95 348C203.23 348.1 203.51 348.2 203.86 348.25L204.72 348.18C204.93 348.22 205.24 348.23 205.54 348.25C205.84 348.27 206.16 348.29 206.4 348.33C206.52 348.35 206.63 348.36 206.74 348.36C206.95 348.36 207.15 348.33 207.35 348.31C207.53 348.29 207.71 348.26 207.9 348.26C208 348.26 208.1 348.26 208.2 348.28C208.47 348.33 208.8 348.44 209.14 348.55C209.47 348.66 209.81 348.78 210.12 348.84C210.27 348.87 210.44 348.87 210.58 348.87H211C211.12 348.87 211.24 348.87 211.34 348.89L212.52 349.29C212.67 349.32 212.8 349.32 212.93 349.32H213.28C213.4 349.32 213.52 349.32 213.63 349.34L215.1 349.73C215.31 349.79 215.54 349.82 215.76 349.85C215.98 349.88 216.18 349.9 216.37 349.96L217.24 350.04C217.47 350.12 217.82 350.17 218.16 350.22C218.47 350.27 218.76 350.31 218.97 350.37C219.1 350.41 219.23 350.43 219.37 350.43C219.62 350.43 219.87 350.37 220.11 350.32C220.34 350.27 220.55 350.22 220.76 350.22C220.87 350.22 220.97 350.23 221.07 350.27L221.16 350.3C221.3 350.35 221.5 350.56 221.53 350.43C221.26 350.01 221.01 349.6 220.7 349.2C220.51 348.95 220.16 348.81 219.96 348.58C219.41 347.95 219.39 348.41 218.88 347.75C218.46 347.2 218.42 347.53 217.99 346.98C217.66 346.55 217.28 346.14 217 345.68C216.73 345.25 216.7 344.76 216.3 344.47C215.84 344.14 215.31 343.95 214.83 343.62C214.43 343.35 214.11 342.91 213.7 342.66C212.99 342.23 212.72 342.07 212.24 341.41C211.91 340.96 211.46 340.62 211.14 340.18C210.85 339.77 210.67 339.33 210.38 338.9C210.17 338.69 209.96 338.47 209.76 338.26C209.59 338.03 209.5 337.76 209.33 337.52C209.14 337.34 208.95 337.16 208.75 336.98C208.51 336.64 208.28 336.33 207.99 336.04C207.88 335.96 207.77 335.87 207.65 335.79C207.02 334.95 206.41 334.17 205.59 333.52C204.83 332.92 204.41 331.89 203.63 331.3C203.32 331.07 202.98 330.93 202.67 330.7C202.55 330.61 202.42 330.44 202.29 330.35C201.94 330.13 201.53 330.07 201.13 329.89C200.75 329.72 200.36 329.4 200.02 329.14C199.16 328.5 198.63 327.24 197.77 326.57C197.44 326.32 197.03 326 196.66 325.82C196.26 325.63 195.84 325.6 195.5 325.36C195.03 325.04 194.73 324.45 194.2 324.19L193.45 324.26C192.93 324.66 192.51 325.05 192.09 325.59C191.72 326.06 191.18 326.4 190.8 326.88C190.37 327.3 189.94 327.71 189.52 328.13C189.07 328.71 188.58 329.14 188.04 329.62L187.4 330.29C186.71 330.74 186.1 331.19 185.43 331.67L184.59 332.53C183.97 332.98 183.49 333.51 182.86 333.96C182.52 334.21 182.35 334.68 182.02 334.92C181.79 335.05 181.56 335.17 181.33 335.3C181 335.64 180.67 335.97 180.34 336.31C180.04 336.53 179.67 336.76 179.51 337.07C179.3 337.46 179.06 337.83 178.71 338.09C177.9 338.68 177.04 339.21 176.44 340C175.74 340.92 175.2 341.92 174.5 342.84L174.15 343.13C173.93 343.41 173.82 343.75 173.6 344.05C173.44 344.27 173.16 344.45 173.01 344.67C172.48 345.44 172.17 346.3 171.66 347.08C171.35 347.55 171.08 348.07 170.76 348.57C170.63 348.77 170.33 349.08 170.35 349.16C170.37 349.23 170.73 349.24 170.73 349.24C171.05 349.24 171.27 349.3 171.51 349.36L171.62 349.39H172.63C172.82 349.44 173.08 349.46 173.34 349.48C173.63 349.5 173.93 349.52 174.19 349.59C174.28 349.61 174.39 349.66 174.5 349.71C174.61 349.76 174.73 349.81 174.82 349.83H175.79C176.01 349.9 176.3 349.99 176.6 350.08C177.04 350.22 177.5 350.36 177.94 350.46C178.05 350.49 178.16 350.5 178.28 350.5C178.59 350.5 178.86 350.42 179.11 350.34C179.2 350.31 179.29 350.28 179.38 350.27C179.53 350.24 179.71 350.22 179.91 350.22C180.76 350.22 181.82 350.52 182.31 350.7C182.6 350.81 182.98 350.84 183.37 350.88C184.04 350.94 184.73 351.01 184.89 351.43C185.13 351.79 184.89 352.26 184.72 352.6C184.67 352.7 184.62 352.8 184.59 352.87C184.54 353.01 184.52 353.15 184.51 353.27C184.5 353.39 184.49 353.49 184.45 353.59C184.34 353.85 182.93 355.14 182.68 355.33C182.6 355.38 182.09 355.56 181.75 355.67C181.28 355.83 180.99 355.93 180.9 355.99C180.75 356.08 180.35 356.23 179.93 356.38C178.58 356.87 177.54 357.29 177.42 357.8L177.4 357.88L177.45 357.94C177.67 358.21 178.34 358.39 179.35 358.63C179.92 358.77 180.52 358.91 180.69 359.04C180.94 359.22 181.31 359.31 181.7 359.41C182.17 359.52 182.66 359.64 182.82 359.92C182.92 360.09 183.13 360.22 183.35 360.36C183.56 360.49 183.82 360.66 183.86 360.8C184.01 361.43 184.28 361.85 184.63 362.27C184.6 362.52 184.5 362.66 184.38 362.84C184.34 362.89 184.31 362.95 184.27 363.01C184.17 363.17 184.12 363.33 184.06 363.5C184 363.68 183.94 363.84 183.84 363.97C183.72 364.12 183.54 364.23 183.35 364.35C183.19 364.45 183.02 364.55 182.88 364.68C182.73 364.82 182.66 365 182.58 365.17C182.53 365.28 182.49 365.39 182.42 365.48C182.11 365.93 181.31 366.68 180.87 366.94C180.45 367.19 179.17 367.78 178.62 367.91H177.93C177.43 368.02 177.13 368.05 176.81 368.08C176.51 368.11 176.2 368.14 175.75 368.24L175.27 368.18H175.21C175.1 368.18 174.8 368.13 174.54 368.07C174.23 368.01 173.93 367.95 173.79 367.95H173.7C173.7 367.95 173.62 367.97 173.58 367.97C173.41 367.97 173.3 367.87 173.16 367.76C173.01 367.64 172.85 367.5 172.61 367.5C172.56 367.5 172.51 367.5 172.47 367.52C172.44 367.52 172.42 367.52 172.39 367.52C172.25 367.52 172.11 367.45 171.97 367.38C171.83 367.31 171.71 367.25 171.58 367.25C171.49 367.25 171.37 367.28 171.27 367.43C171.08 367.72 170.99 369.28 171.1 369.75C171.17 370.04 171.1 370.62 171.01 371.04C170.97 371.23 170.89 371.88 170.8 372.56C170.72 373.21 170.64 373.89 170.6 374.07C170.56 374.27 170.49 374.46 170.43 374.64C170.31 374.99 170.2 375.32 170.26 375.61C170.26 375.7 170.22 375.88 170.19 376.05C170.16 376.23 170.12 376.42 170.12 376.58C170.1 376.77 170 376.94 169.9 377.1C169.82 377.23 169.73 377.36 169.7 377.51C169.62 377.84 169.49 378.12 169.39 378.35C169.25 378.66 169.16 378.86 169.27 379.02C169.45 379.29 171.95 379.75 172.73 379.75C172.86 379.75 172.97 379.75 173.05 379.72C173.17 379.69 173.31 379.68 173.47 379.68C173.97 379.68 174.57 379.81 175 379.91C175.09 379.93 175.16 379.94 175.25 379.94C175.52 379.94 175.84 379.87 176.03 379.83H176.86C177.27 379.83 178.06 379.76 178.49 379.57L178.56 379.54L178.58 379.46C178.64 379.22 178.72 378.54 178.58 378.11C178.54 377.98 178.44 377.87 178.35 377.77C178.28 377.69 178.21 377.6 178.19 377.53L178.25 376.51C178.21 376.35 178.16 376.22 178.1 376.1C178.04 375.98 177.98 375.85 177.96 375.74C177.91 375.49 178.04 375.29 178.18 375.09C178.25 374.99 178.3 374.9 178.34 374.82L178.59 373.92C178.67 373.82 178.83 373.75 179.02 373.68C179.14 373.64 179.27 373.59 179.4 373.51C179.54 373.53 179.6 373.57 179.69 373.64C179.71 373.65 179.73 373.67 179.75 373.69L180.75 377.14C180.82 377.41 180.94 378.45 180.87 378.61L180.84 378.65V378.69C180.84 379.53 181.34 379.59 181.83 379.65C181.97 379.67 182.13 379.69 182.28 379.72C182.51 379.78 182.74 379.8 183.01 379.8C183.2 379.8 183.41 379.79 183.64 379.76C183.67 379.76 183.7 379.76 183.74 379.76C183.84 379.76 183.95 379.77 184.06 379.78C184.18 379.79 184.31 379.8 184.43 379.8C184.5 379.8 184.57 379.8 184.64 379.78C184.85 379.74 184.99 379.71 185.12 379.68C185.36 379.62 185.5 379.59 185.89 379.59C186.14 379.59 186.95 379.56 187.65 379.4C187.83 379.36 187.92 379.28 187.99 379.23C188.04 379.19 188.07 379.17 188.12 379.15C188.19 379.13 188.3 379.11 188.4 379.1C188.5 379.08 188.6 379.06 188.64 379.05C188.67 379.05 188.7 379.04 188.74 379.04C188.8 379.04 188.86 379.04 188.93 379.05C189.03 379.06 189.13 379.07 189.25 379.07C189.34 379.07 189.43 379.07 189.53 379.05C189.85 379 190.08 378.9 190.26 378.81C190.4 378.75 190.5 378.7 190.6 378.7C190.9 378.73 191.3 378.94 191.55 379.28C191.64 379.4 191.78 379.46 191.92 379.51C192.03 379.55 192.15 379.6 192.18 379.66C192.65 380.4 192.79 380.8 192.77 380.89L192.74 380.93V380.96C192.74 381.24 192.6 381.27 192.1 381.28C191.87 381.28 191.61 381.28 191.38 381.38C191.31 381.41 191.16 381.41 191.09 381.41H190.81C190.67 381.41 190.53 381.41 190.4 381.44C190.3 381.47 190.2 381.48 190.06 381.48C189.91 381.48 189.74 381.47 189.57 381.45C189.39 381.44 189.21 381.42 189.05 381.42C188.87 381.42 188.74 381.44 188.63 381.48C188.21 381.59 187.76 381.66 187.33 381.72C186.42 381.86 185.57 381.99 184.89 382.47C184.61 382.66 184.54 383.03 184.47 383.38C184.43 383.56 184.4 383.72 184.35 383.86C184.29 384 184.18 384.13 184.06 384.26C183.93 384.41 183.79 384.56 183.72 384.74L183.61 385.51C183.41 386.2 183.17 386.93 182.64 387.28L182.61 387.3L182.59 387.32C182.59 387.32 182.5 387.47 182.59 387.62C182.65 387.75 182.84 387.93 182.99 387.93C183.17 387.91 183.52 387.91 183.9 387.9C184.59 387.88 185.05 387.87 185.22 387.83H185.25C185.39 387.83 185.93 387.81 186.47 387.79C187.05 387.77 187.63 387.75 187.74 387.75C187.86 387.72 187.96 387.68 188.05 387.64C188.12 387.61 188.2 387.57 188.26 387.55H189C189.2 387.51 189.34 387.44 189.5 387.37C189.68 387.29 189.86 387.21 190.06 387.16L192.01 387.26C192.47 387.17 192.79 387.12 193.1 387.12C193.41 387.12 193.71 387.16 194.07 387.25C194.26 387.3 194.44 387.3 194.57 387.3H194.94C195.06 387.3 195.2 387.3 195.33 387.34C195.5 387.4 195.67 387.5 195.84 387.6C195.98 387.68 196.11 387.77 196.25 387.82C196.43 387.9 196.61 387.92 196.78 387.94C196.92 387.96 197.05 387.97 197.19 388.02C197.61 388.15 197.9 388.37 198.21 388.6L198.23 388.62C198.18 388.86 197.96 388.99 197.63 389.15C197.51 389.21 197.39 389.27 197.3 389.33C196.65 389.77 195.72 390.01 194.7 390.01C194.2 390.01 193.69 389.95 193.19 389.84C192.92 389.83 192.21 389.75 191.52 389.67C190.79 389.59 190.11 389.51 189.86 389.5H189.83L189.75 389.52C189.75 389.52 189.63 389.56 189.58 389.56C189.29 389.5 188.87 389.4 188.43 389.4C188.23 389.4 188.04 389.42 187.86 389.46C187.75 389.49 187.62 389.53 187.5 389.58C187.38 389.63 187.25 389.67 187.13 389.7L186.4 389.65C186.01 389.73 185.65 389.83 185.28 389.93C184.94 390.02 184.59 390.11 184.25 390.19L182.82 390.23C182.69 390.26 182.56 390.3 182.44 390.33C182.32 390.37 182.21 390.4 182.11 390.42L180.65 390.32C180.4 390.37 180.15 390.39 179.82 390.39C179.64 390.39 179.45 390.39 179.26 390.38C179.07 390.38 178.88 390.37 178.69 390.37C178.33 390.37 178.06 390.4 177.83 390.45L177.24 390.42L176.61 390.4C175.18 390.71 173.58 391.02 172.25 391.02C171.83 391.02 171.46 390.99 171.16 390.92C171.06 390.9 170.96 390.89 170.85 390.89C170.6 390.89 170.38 390.95 170.17 391C169.98 391.05 169.81 391.09 169.64 391.09C169.57 391.09 169.51 391.09 169.46 391.07C169.23 391.02 168.9 390.91 168.65 390.83L168.49 390.78C168.42 390.76 168.34 390.75 168.26 390.75C168.01 390.75 167.78 390.87 167.59 390.96C167.51 391 167.44 391.04 167.38 391.05C167.23 391.09 167.09 391.12 166.95 391.14C166.85 391.16 166.75 391.17 166.66 391.2H165.87C165.72 391.23 165.59 391.27 165.47 391.32C165.35 391.37 165.22 391.41 165.1 391.44C165.07 391.44 164.99 391.46 164.76 391.46C164.12 391.46 163.11 391.36 162.97 391.3C162.92 391.28 162.87 391.23 162.81 391.18C162.72 391.11 162.63 391.03 162.52 391C162.45 390.98 162.36 390.96 162.28 390.96C162.09 390.96 159.91 390.71 159.77 390.75C159.73 390.76 159.69 390.77 159.66 390.78L159.1 390.75L158.63 390.73C158.5 390.75 158.42 390.79 158.33 390.83C158.2 390.89 158.07 390.94 157.93 390.94C157.9 390.94 157.86 390.94 157.83 390.93C157.75 390.91 157.67 390.9 157.57 390.88C157.29 390.83 156.93 390.77 156.76 390.66L156.15 390.05H156.14C156.04 390.47 155.97 390.79 155.94 390.89C155.71 391.71 155.74 392.79 155.46 393.61C155.19 394.4 154.97 395.31 154.74 396.18V397.01C154.65 397.31 154.64 397.81 154.56 398.13V398.96C154.47 399.28 154.34 399.6 154.25 399.89L154.68 399.62L156.64 398.43L158.65 399.25L160.54 398.37L162.76 399.91L164.61 398.82L166.73 399.37L168.67 399.01L170.46 397.6L171.85 397.89C171.57 397.43 171.28 396.93 171.11 396.49C171.06 396.37 170.92 396.18 170.69 395.89C170.52 395.67 170.21 395.28 170.16 395.13V395.1C170.21 394.97 170.41 394.94 170.72 394.92C170.91 394.9 171.11 394.88 171.28 394.82C171.35 394.79 171.43 394.76 171.52 394.72C171.63 394.67 171.74 394.62 171.84 394.59C171.97 394.6 172.43 394.77 172.84 394.92C173.31 395.09 173.76 395.26 173.98 395.26C174.03 395.26 174.07 395.25 174.12 395.24L174.15 395.18L174.2 395.23C174.37 395.2 174.54 395.17 174.72 395.15C175.3 395.07 175.89 394.98 176.27 394.75C176.59 394.75 176.78 394.83 176.99 394.91C177.1 394.95 177.2 394.99 177.32 395.03C177.39 395.05 177.45 395.06 177.52 395.06C177.61 395.06 177.7 395.04 177.78 395.02L178.12 394.29L180.21 394.72L180.49 394.85C180.73 394.83 180.97 394.82 181.16 394.82C181.35 394.82 181.43 394.83 181.45 394.84C181.84 394.93 182.31 394.94 182.75 394.95C182.95 394.95 183.14 394.95 183.33 394.97L184.21 394.3L186.27 394.66L188.38 395.71L190.24 393.87L192.23 393.49L194.2 392.73L196.25 393.14L198.25 392.77L200.29 393.42L202.35 395.25L204.21 392.98C204.2 392.87 204.19 392.76 204.17 392.65C204.12 392.38 204.08 392.12 204.13 391.87L204.1 391.17L204.07 390.51C204.11 390.35 204.14 390.11 204.16 389.88C204.19 389.66 204.21 389.45 204.25 389.28V387.78C204.27 387.69 204.31 387.53 204.36 387.38C204.4 387.24 204.44 387.1 204.47 386.99C204.55 386.67 204.54 386.24 204.53 385.79C204.53 385.19 204.51 384.52 204.72 384.28L204.76 384.23V384.16C204.74 383.72 204.01 383.69 203.04 383.69H202.19C201.76 383.69 201.28 383.69 200.99 383.62L200.78 383.57C200.44 383.5 200.01 383.41 199.78 383.26C199.7 383.21 199.63 383.15 199.55 383.08C199.41 382.97 199.25 382.84 199.07 382.76C198.96 382.72 198.85 382.7 198.72 382.7C198.62 382.7 198.52 382.71 198.41 382.73C198.32 382.74 198.22 382.76 198.12 382.76C198.03 382.76 197.96 382.75 197.88 382.73C197.31 382.55 196.85 382.07 196.68 381.48C196.87 381.22 197.01 380.87 197.14 380.54C197.34 380.05 197.54 379.55 197.89 379.33C198.05 379.23 198.28 379.18 198.52 379.14C198.77 379.09 199.04 379.04 199.26 378.91C199.95 378.93 200.46 379.18 201 379.45C201.39 379.65 201.8 379.85 202.28 379.96C202.57 380.03 203 380.19 203.45 380.36C203.98 380.56 204.53 380.76 204.94 380.85C205.31 380.93 205.7 381.02 206.03 381.1L206.16 381.13H206.93C206.98 381.15 207.08 381.23 207.18 381.31C207.3 381.4 207.42 381.5 207.56 381.55C207.68 381.59 207.82 381.59 207.94 381.59H208.22C208.28 381.59 208.33 381.59 208.35 381.59C208.53 381.63 208.71 381.65 208.91 381.65C209.29 381.65 209.66 381.58 210.01 381.51C210.35 381.44 210.68 381.38 211.01 381.38C211.3 381.38 211.51 381.43 211.71 381.47C211.84 381.5 211.98 381.51 212.17 381.51C212.31 381.51 212.45 381.51 212.59 381.49C212.72 381.49 212.85 381.48 212.97 381.48C213.08 381.48 213.18 381.48 213.27 381.5C213.35 381.52 213.43 381.52 213.51 381.52C213.76 381.52 214 381.45 214.21 381.39C214.28 381.37 214.35 381.35 214.41 381.34C214.53 381.34 215 381.27 215.49 381.2C215.94 381.13 216.44 381.06 216.57 381.06C216.79 381.01 216.99 380.99 217.2 380.96C217.43 380.93 217.67 380.9 217.92 380.85C218.07 380.81 218.27 380.81 218.47 380.81C218.72 380.81 218.98 380.81 219.23 380.74C219.57 380.66 220.25 380.51 220.68 380.51C220.77 380.51 220.85 380.51 220.9 380.53C221.02 380.56 221.17 380.58 221.38 380.58C221.5 380.58 221.63 380.58 221.76 380.57C221.89 380.57 222.03 380.56 222.16 380.56C222.43 380.56 222.62 380.58 222.76 380.63C222.86 380.67 222.97 380.68 223.09 380.68C223.21 380.68 223.34 380.66 223.47 380.64C223.58 380.62 223.69 380.61 223.8 380.61C223.85 380.61 223.9 380.61 223.95 380.62C224.02 380.63 224.11 380.64 224.22 380.64H224.45C224.55 380.64 224.68 380.64 224.78 380.66L225.64 380.94C225.75 380.97 225.94 381 226.16 381.04C226.58 381.12 227.46 381.28 227.6 381.39C227.69 381.48 227.61 381.84 227.58 382.03C227.51 382.35 227.46 382.62 227.53 382.81C227.61 382.99 227.53 383.15 227.39 383.41C227.28 383.61 227.16 383.84 227.14 384.12C226.96 384.32 226.82 384.58 226.68 384.83C226.53 385.12 226.37 385.42 226.15 385.59C226.02 385.69 225.83 385.8 225.63 385.92C225.33 386.1 225.01 386.28 224.83 386.46C224.67 386.62 224.02 386.76 223.58 386.86C223.3 386.92 223.06 386.97 222.91 387.03C222.8 387.07 222.67 387.09 222.49 387.09C222.36 387.09 222.22 387.08 222.07 387.07C221.92 387.06 221.76 387.05 221.61 387.05C221.44 387.05 221.3 387.06 221.17 387.09C220.98 387.13 220.79 387.19 220.6 387.25C220.43 387.3 220.27 387.35 220.1 387.39C220.05 387.4 220 387.41 219.95 387.41C219.84 387.41 219.73 387.39 219.62 387.36C219.5 387.33 219.37 387.3 219.23 387.3C219.12 387.3 219.01 387.32 218.91 387.36L217.82 388.05L217.78 388.16L217.74 388.21V388.27C217.78 388.72 218.03 388.84 218.26 388.94C218.35 388.98 218.43 389.01 218.5 389.07C218.55 389.1 218.59 389.18 218.63 389.25C218.67 389.32 218.71 389.41 218.77 389.48C219.05 389.8 219.77 390.17 220.46 390.54C220.89 390.77 221.29 390.98 221.5 391.13C221.65 391.24 221.76 391.42 221.87 391.61C222 391.82 222.13 392.04 222.34 392.19C222.57 392.36 222.8 392.57 223.01 392.77C223.16 392.91 223.32 393.05 223.47 393.18L224.48 392.59L226.35 394.5L228.21 396.17L230.39 394.46L232.27 395.79L234.38 395.02L235.23 394.62V394.48C235.2 394.35 235.12 394.08 235.09 393.94L235.15 393.96ZM206.49 362.72C206.41 362.96 206.28 363.17 206.15 363.38C206.02 363.59 205.89 363.8 205.81 364.03L205.75 364.8C205.56 365.42 205.11 366.63 204.76 367.15L204.43 367.47C203.98 367.52 203.5 367.55 203.04 367.58C202.22 367.63 201.38 367.68 200.63 367.86H198.19C197.69 367.96 196.49 368.15 195.74 368.15C195.47 368.15 195.33 368.13 195.26 368.11C194.96 368.03 194.65 367.87 194.35 367.72C194.11 367.6 193.86 367.47 193.61 367.38C193.41 367.31 193.27 367.28 193.16 367.27C193.03 367.25 192.93 367.23 192.78 367.14C192.76 366.97 192.77 366.79 192.78 366.59C192.8 366.32 192.81 366.04 192.74 365.74C192.65 365.37 192.58 364.98 192.52 364.59C192.41 363.98 192.3 363.34 192.11 362.76C192.05 362.58 191.95 362.42 191.86 362.26C191.79 362.14 191.72 362.03 191.67 361.92C191.6 361.76 191.58 361.55 191.56 361.34C191.54 361.07 191.51 360.8 191.39 360.58V359.2C191.5 358.97 191.82 358.8 192.13 358.63C192.37 358.5 192.6 358.37 192.76 358.21C192.88 358.09 192.97 357.93 193.05 357.78C193.14 357.61 193.23 357.44 193.37 357.36C193.45 357.3 193.61 357.3 193.77 357.29C193.95 357.29 194.14 357.27 194.29 357.2C194.62 357.22 194.87 357.3 195.13 357.38C195.24 357.42 195.35 357.45 195.47 357.48L196.23 357.53C196.35 357.56 196.51 357.74 196.67 357.91C196.86 358.12 197.05 358.33 197.31 358.4L197.97 358.45C198.1 358.48 198.27 358.55 198.44 358.62C198.55 358.66 198.66 358.71 198.76 358.74C198.92 358.77 199.12 358.79 199.31 358.81C199.5 358.83 199.68 358.85 199.82 358.87C200.15 359 200.52 359.04 200.91 359.09C201.19 359.12 201.47 359.16 201.75 359.23C201.79 359.24 201.84 359.25 201.89 359.25C202.01 359.25 202.14 359.22 202.22 359.2L202.89 359.22L203.61 359.25L203.69 359.23C203.75 359.21 203.83 359.19 203.9 359.19C204.35 359.3 206.26 360.39 206.43 360.64C206.72 361.07 206.71 362.1 206.51 362.74L206.49 362.72Z" fill="white"/>
</svg>
