<svg width="390" height="844" viewBox="0 0 390 844" fill="none" xmlns="http://www.w3.org/2000/svg">
<g clip-path="url(#clip0_1865_489372)">
<path d="M-509.57 349.95L-507.4 347.75L-505.51 348.48L-503.75 350.55L-501.66 349.31L-499.97 352.12L-497.54 352.11L-495.76 349.42L-494.01 352.63L-491.78 350.03L-489.77 350.06L-487.77 350.24L-485.76 350.36L-483.69 351.75L-481.76 349.77L-479.49 352.67L-477.48 351.92L-475.52 351.06L-473.31 351.81L-471.9 348.05L-469.61 349.18L-467.81 347.95L-465.8 347.6L-463.98 346.58L-462.05 345.96L-459.58 346.96L-457.7 346.06L-456.05 344.61L-454.84 342.17L-452.34 342.81L-451.29 340.23L-448.54 341.19L-447.09 339.52L-445.48 338.19L-443.13 338.1L-441.28 337.11L-439.3 336.3L-439.49 332.37L-437.18 332.06L-434.44 332.2L-432.62 331.07L-431.18 329.48L-431.85 325.59L-428.57 326.02L-427.44 324.15L-426 322.58L-424.95 321.33L-422.96 320.1L-420.97 320.61L-419.21 321.95L-417.86 324.66L-415.1 322.53L-413.79 325.42L-411.39 325.26L-411.07 322.63L-408.98 321.59L-407.3 320.38L-406.98 317.49L-405.43 315.91L-402.63 316.55L-400.91 315.47L-398.83 315.33L-397.5 312.95L-395.55 312.24L-393.58 311.59L-391.61 310.67L-389.37 312.64L-387.4 311.58L-385.33 310.24L-383.34 311.67L-381.52 313.7L-379.33 312.41H-377.27L-375.13 312.17L-373.69 315.06L-371.69 315.32L-369.83 316.16L-367.05 313.88L-366.06 317.67L-363.51 316.34L-362.1 318.63L-360.4 317.09L-360.39 315.76L-357.03 314.64L-357.52 312.19L-357.39 309.9L-357.18 307.56L-356.37 305.49L-353.6 304.74L-351.84 303.47L-350.79 301.68L-350.18 299.45L-350.33 296.3L-346.71 297.13L-345.41 295.52L-344.43 293.41L-343.5 291.04L-341.25 289.31L-338.83 290.87L-337.15 292.54L-335.52 294.31L-332.89 295.14L-333.2 292.46L-334.61 290.31L-334.36 288.1L-333.99 285.9L-332.27 284.21L-332.12 281.95L-329.3 281.26L-330.52 277.78L-328.97 276.23L-325.96 276.56L-324.87 274.73L-323.21 273.68L-321.04 273.98L-319.49 272.66L-317.78 271.14L-315.75 271.54L-313.77 271.03L-311.8 271.45L-310.29 273.58L-308.41 273.77L-306.12 273.32L-304.66 274.84L-303.55 276.65L-301.43 277.55L-300.61 274.94L-298.17 274.59L-297.41 272.28L-296.28 270.4L-293.54 270.41L-292.07 268.94L-291.87 265.96L-289.34 265.72L-288.04 264.05L-285.6 263.7L-284.34 261.98L-283.48 259.78L-283.01 257.13L-279.88 257.59L-279.4 256.9L-277.78 257.13L-277.77 259.66L-276.43 261.6L-273.39 259.63L-272.47 263.62L-270.26 263.15L-268.45 260.39L-266.23 262.28L-263.91 262.72L-263.46 258.61L-261.84 257.65L-259.06 258.64L-257.71 256.98L-255.67 256.58L-254.61 254.3L-252.31 254.57L-251.15 251.91L-249.01 251.85L-246.62 253.49L-245 251.39L-242.83 253.14L-240.97 252.37L-239.05 251.32L-237.09 252.89L-235.06 249.9L-233.16 251.87L-231.16 251.45L-229.12 250.33L-227.26 252.23L-225.17 250.18L-223.23 250.28L-221.3 250.5L-219.37 252.18L-217.37 252.9L-215.31 253.53L-213.66 250.45L-211.7 250.57L-209.48 251.62L-208.06 249.24L-206.5 247.94L-203.54 250.14L-203.15 246.37L-201.12 246.12L-198.65 246.16L-198.47 243.34L-195.85 243.03L-194.19 241.56L-194.57 238.24L-193.28 241.07L-191.16 241.49L-189.68 242.89L-188.54 244.81L-186.86 245.89L-184.96 246.64L-183.86 248.63L-181.13 249.62L-180.11 247.01L-178.53 245.77L-177.29 244.48L-175.95 243.33L-175.02 241.36L-174 238.87L-171.72 239.21H-169.72L-167.91 238.4L-166.18 236.22L-164.12 236.44L-162.08 238.1L-160.1 236.51L-158.23 239.19L-156.25 238.5L-154.06 236.48L-152.3 238.46L-150.09 237.14L-148.4 239.06L-146.4 239.04L-144.61 241.08L-142.6 241.31L-140.56 241.15L-138.53 240.12L-136.6 238.48L-134.62 238.95L-132.82 237.74L-130.62 239.09L-128.43 239.48L-126.53 238.6L-125.62 235.73L-123.5 235.54L-121.12 235.18L-121.69 231.84L-120.25 230.55L-118.6 229.35L-117.35 230.85L-115.95 232.66L-113.04 231.39L-111.34 232.5L-110.29 235.38L-108.23 235.79L-105.55 234.03L-104.43 237.51L-102.02 236.26L-99.96 236.15L-98.36 238.76L-96.36 239.36H-94.28L-92.11 236.71L-90.19 237.78L-88.22 236.82L-86.21 238.64L-84.25 237.88L-82.23 238.25L-80.24 238.18L-78.43 236.4L-76.56 235.51L-74.27 237.54L-72.58 235.48L-70.22 237.53L-68.17 237.65L-66.69 234.6L-64.35 236.28L-62.83 233.57L-60.5 235.17L-58.94 232.7L-56.64 234.15L-55.05 231.73L-52.86 232.67L-51 231.69L-49.08 231.01L-46.89 232.28L-45.1 230.55L-42.96 231.87L-41.04 231.12L-39.01 231.77L-37.09 230.56L-35.1 228.81L-33.08 229.4L-31.11 230.48L-29.1 230.37L-27.4 232.94L-24.99 230.21L-23.27 232.02L-21.04 231.28L-19.26 232.52L-17.2 232.69L-15.92 235.22L-13.85 235.35L-11.83 235.7L-10.64 237.97L-8.07999 237.26L-6.37 238.4L-4.66 239.5L-3.73999 241.92L-2.14001 243.13L0.640015 242.62L1.45001 245.02L2.60999 246.85L4.97998 247.13L5.29999 249.92L7.23999 250.77L9.89001 250.94L10.14 253.65L12.71 254.02L13.29 255.65L14.2 254.01L16.21 253.04L17.71 250.97L20.2 251.45L22.6 253.11L24.37 250.92L26.46 250.2L28.43 252.16L30.35 252.95L32.24 253.66L34.27 253.74L36.66 252.74L38.25 254.62L40.87 253.35L43.1 253.46L44.03 256.8L46.5 256.32L47.85 258.43L49.81 259.03L51.84 259.48L53.54 260.63L54.74 262.88L56.45 264.02L59.1 263.12L60.04 265.93L62.38 265.7L64.52 265.92L65.93 267.71L67.3 269.58L69.38 269.93L70.96 271.35L74 269.59L74.55 273.25L76.71 273.41L78.66 274.03L80.69 274.48L82.6 275.19L84.69 275.5L86.74 275.9L87.02 280.14L90.16 278.17L90.84 281.57L93.48 280.68L95.43 281.29L96.99 282.77L97.86 285.73L101.13 283.48L102.05 286.35L103.34 288.4L105.53 288.48L107.94 288.1L109.35 289.9L110.5 292.27L112.69 292.37L114.32 293.68L117.07 292.55L118.14 295.09L120.42 294.98L122.17 296.04L123.34 298.35L126.32 296.72L126.79 300.56L129.35 299.97L131.68 299.87L133.45 300.99L135.5 301.46L137.35 302.37L139.18 303.31L140.51 305.61L142.97 304.86L144.28 307.41L145.93 309.19L148.56 307.43L150.13 309.74L152.19 310.14L154.27 310.33L156.45 309.47L158.41 310.9L160.49 309.22L162.48 308.93L164.62 310.19L166.34 307.95L168.84 310.02L170.57 308.4L172.48 307.66L175.12 308.52L176.92 307.21L178.69 305.9L179.08 302.76L180.58 301.39L183.66 301.44L183.91 298.58L184.44 300.84L185.76 302.47L186.16 305.41L188.71 305.44L190.86 305.45L192.62 306.73L194.57 308.22L196.71 308.08L198.77 307.4L200.95 307.74L202.98 307.06L204.8 305.79L205.92 303.28L208.92 304.57L210.11 302.4L211.05 299.91L212.62 298.52L214.61 297.8L215.96 295.98L218.62 296.46L220.75 296.16L221.69 293.24L223.92 293.23L225.8 292.28L227.8 291.54L230.02 291.88L230.45 294.71L234.06 293.59L234.61 296.2L236.19 297.53L238.55 297.67L239.84 299.4L241.3 300.92L241.92 304.03L244.84 302.91L246.25 304.65H248.49L250.68 304.58L251.45 308.19L253.53 308.49L255.78 308.15L257.43 309.7L259.4 310.24L261.29 311.11L263.22 311.91L265.32 311.78L267.63 309.86L269.26 313.17L271.46 311.38L273.34 313.85L275.4 313.9L277.47 313.79L279.51 313.27L281.44 311.39L283.45 311.31L285.61 313.53L287.6 313.22L289.44 310.42L291.52 311.46L293.49 310.78L295.56 311.68L297.62 312.32L299.55 311.02L301.51 310.08L303.57 310.8L305.47 308.97L307.49 309.15L309.45 308.27L311.53 309.13L313.66 310.78L315.67 310.61L317.7 310.83L319.72 310.81L321.58 308.56L323.57 308.24L325.77 310.5L327.49 306.76L329.66 308.54L331.54 306.88L333.79 309.48L335.64 307.54L337.82 309.14L339.8 308.68L341.53 305.69L343.54 305.63L345.52 305.24L347.7 306.59L349.59 305.42L351.82 307.02L353.7 305.77L355.53 304.25L357.72 305.43L359.87 306.17L361.46 303.09H363.49L365.54 303.13L367.5 302.68L369.83 304.38L371.38 301.52L373.25 300.5L375.48 301.6L377.23 299.87L379.28 299.91L381.35 300.05L383.65 301.75L385.41 299.94L387.36 299.32L389.46 299.94L391.48 300.03L393.28 297.61L395.41 299.03L397.35 297.54L399.38 297.49L401.4 299.7L403.38 299.94L405.47 297.81L407.49 298.14L409.56 298.12L411.36 300.11L413.72 297.96L415.43 300.38L417.26 302.02L419.59 300.01L421.6 300.34L423.47 302.11L425.54 302.08L427.62 301.17L429.63 300.86L431.84 302.68L433.64 300.55L435.91 301.29L437.77 300.15L439.27 298.44L441.86 299.31L443.6 298.23L444.7 295.79L447.33 296.84L448.67 294.88L450.04 292.38L452.51 294.69L454.37 292.58L456.09 294.3L458.57 293.59L460.57 294.54L461.31 296.9L463.02 297.87L464.42 300.09L466.4 298.41L467.73 297.19L470.74 298.99L471.84 297.03L472.47 294.45L475.43 295.95L475.96 292.16L478.21 291.34L480.48 291.97L482.34 293.39L484.02 294.7L485.55 296.18L487 297.8L489.3 297.63L491.83 296.74L493.63 297.24L494.96 300.09L497.03 298.52L499.28 300.23L501.16 299.43L503.03 298.7L504.66 297.7L505.59 295.72L507.11 294.7L509.1 294.47L511.01 294.43L513.04 291.93L515.01 293.45L517.05 293.73L519.37 293.06L520.7 295.82L523.03 295.25L525.06 295.61L527.1 295.8L528.87 296.82L530.39 299.26L532.61 298.22L534.47 299.94L536.5 300.91L538.54 298.25L540.59 299.33L542.62 299.21L544.58 298.63L546.26 296.65L548.17 296.17L550.87 298.7L552.47 296.79L553.99 294.87L555.82 294.03L558.57 295.66L559.44 292.27L561.65 292.34L564.35 293.46L565.48 290.94L567.15 289.71L569.31 289.5L570.31 286.86L572.86 287.43L573.69 284.54L576.74 286.13L577.66 283.47L578.87 281.41L581.96 283.04L583.87 282.34L585.47 281.01L586.2 278.12L588.72 278.51L589.88 276.46L591.58 275.37L593.87 275.26L595.31 273.71L597.55 273.42L597.54 269.77L600.33 270.22L600.57 267.12L603.67 267.82L603.98 264.96L605.58 263.73L607.74 262.88L608.24 260.17L611.69 260.9L612.48 258.48L614.89 258.46L615.79 255.7L617.74 254.92L619.92 255.43L621.79 253.74L623.92 252.92L626.02 253.56L628.22 253.01L629.73 256.57L632.14 254.97L633.92 256.46L636.12 256.15L638.19 256.34L639.66 259.35L642.33 256.39L644.13 257.95L645.98 260.25L648.16 259.52L650.35 260.28L652.6 260.18L654.22 257.72L656.46 257.64L657.85 255.24L660.43 255.08L662.2 253.5L664.12 252.83L666.14 252.63L668.16 252.86L670.37 252.4L671.82 254.71L673.38 256.22L675.85 255.55L678.18 255.38L680.1 256.09L681.29 258.47L683.09 259.52L684.68 261.14L686.8 261.04L689.13 259.01L690.66 262.27L692.69 262.13L694.65 260.56L696.59 260.92L698.47 260.34L700.66 261.5L702.56 260.79L704.52 260.31L706.32 259.38L708.59 259.42L710.16 257.93L710.86 256.69L712 257.54L714.39 257.92L715.66 259.18L716.41 261.88L718.9 260.69L720.17 263.64L722.43 261.83L724.31 261.82H726.2L728.24 264.24L730.11 262.74L732.27 264.03L733.7 260.57L735.64 260.54L738.03 262.27L740.06 262.13L741.45 259.25L743.75 260.25L745.75 259.98L747.39 258.13L749.26 257.32L751.31 257.25L753.28 256.82L755.29 256.6L756.98 255L758.83 254.11L760.84 253.85L763.28 255.46L764.7 252.7L767.2 254.56L768.92 253.1L770.79 252.23L772.89 252.37L774.59 250.83L776.81 251.49L778.66 250.56L780.25 248.56L782.53 249.45L784.24 247.95L786.12 247.17L787.99 246.33L790.5 248.23L792.59 248.29L794.31 246.83L796.12 245.76L797.8 244.12L799.77 243.69L802.02 244.49L804.17 244.85L805.92 243.5L807.81 242.75L809.5 240.85L811.67 241.02L813.72 240.69L815.91 241.26L818.05 241.9L819.84 239.34L821.96 239.56L824.04 238.97L826.03 241.19L828.34 238.83L829.89 242.09L832.01 241.8L833.8 242.78L836.1 242.77L838.41 243.26L839.36 245.59L840.96 247.05L841.83 249.11L844.02 250.17L844.68 252.3L844.17 255.46L847.35 255.38L847.66 258.3L850.23 258.16L851.28 261.31L853.79 260.52L856.07 259.69L857.88 261.56L860.11 260.62L861.98 262.42L863.79 263.37L866.09 261.73L868 262.32L869.72 263.66L871.26 265.5L873.77 263.81L875.77 264.07L877.87 264.05L878.73 267.84L880.9 267.58L882.71 268.4L884.5 269.27L886.48 269.6L888.37 270.21L889.66 272.46L892.35 270.85L893.57 273.32L895.72 273.2L897.66 273.64L899.5 274.39L900 274.88V0H-510V349.48L-509.57 349.95Z" fill="#B9CED1"/>
</g>
<defs>
<clipPath id="clip0_1865_489372">
<rect width="390" height="844" fill="white"/>
</clipPath>
</defs>
</svg>
