<svg width="390" height="844" viewBox="0 0 390 844" fill="none" xmlns="http://www.w3.org/2000/svg">
<g clip-path="url(#clip0_1865_489358)">
<path d="M-474.08 251.65L-473.95 250.85L-471.84 250.5L-469.48 250.68L-468.94 247.24L-466.37 247.91L-465.02 246.02L-462.17 247.47L-460.39 246.56L-459.33 243.91L-456.78 244.88L-456.07 241.17L-453.61 241.99L-451.92 240.78L-449.74 240.95L-447.73 240.7L-446.2 238.91L-444.78 236.63L-442.41 237.61L-440.77 235.99L-438.6 236.36L-436.95 234.65L-434.54 236.2L-432.58 235.87L-431.09 233.16L-428.96 233.62L-426.69 235.06L-424.85 233.99L-423.23 231.29L-420.79 234.17L-419.02 232.19L-416.77 233.77L-415.2 230.21L-412.91 232.02L-410.85 232.07L-409.21 229.46L-406.95 230.66L-404.85 230.82L-402.96 229.87L-400.71 230.43L-399.31 227.77L-396.72 229.2L-395.71 225.9L-393.3 226.46L-391.11 226.21L-390.75 222.59L-387.71 223.61L-385.91 222.44L-384.79 220.46L-384.52 217.8L-381.1 217.94L-382.84 214.18L-380.34 213.46L-379.65 211.54L-378.17 210.08L-377.82 207.94L-377.28 205.87L-376.9 203.55L-373.93 203.42L-373.42 201L-371.33 200.39L-369.08 200.35L-368.5 197.2L-366.63 196.4L-364.07 197.73L-362.84 195.06L-360.58 196L-358.69 195.61L-357.18 192.96L-355.08 193.59L-352.89 195.1L-351.34 192.03L-349.03 194.23L-347.13 193.36L-345.25 192.39L-343.16 192.93L-341.11 193.24L-339.09 193.25L-337.12 192.9L-335.54 189.59L-333.18 192.27L-331.6 188.94L-329.21 191.83L-327.26 191.29L-325.42 189.99L-323.31 190.73L-321.43 189.68L-319.35 190.2L-317.5 188.95L-315.79 186.58L-313.64 187.66L-311.53 188.39L-309.74 186.62L-307.59 187.67L-305.47 188.48L-303.75 186.26L-301.81 185.65L-299.58 187.36L-297.93 184.51L-295.88 184.71L-293.82 185.74L-291.85 186.93L-289.88 185.63L-287.72 184.17L-285.88 185.65L-283.97 186.3L-282.72 188.34L-281.04 189.18L-279.09 189.57L-278.68 187.12L-275.41 187.9L-275.03 184.8L-273.31 183.52L-270.97 183.35L-269.32 182.02L-267.32 181.39L-266.02 179.19L-263.3 180.35L-262.01 177.96L-260.02 177.35L-257.75 177.67L-256.46 174.84L-254.47 174.21L-251.7 176.53L-250.29 173.82L-247.96 174.69L-245.93 174.35L-244.31 172.26L-242.22 172.18L-240.19 171.85L-238.17 171.97L-236.12 172.27L-234.72 169.57L-232.42 170.97L-230.88 168.89L-229.17 167.61L-227.22 167.41L-224.99 168.52L-222.92 168.84L-221.47 166.37L-219.34 167.01L-217.7 165.32L-215.22 167.46L-213.95 164.03L-212.07 163.42L-209.82 164.55L-207.62 165.57L-205.78 164.8L-203.87 164.36L-202.41 161.44L-200.01 163.77L-198.26 162.34L-196.45 161.18L-194.34 161.92L-192.4 161.5L-190.45 161.11L-188.58 159.93L-186.4 161.81L-184.62 159.48L-182.46 161.59L-180.68 158.66L-178.51 161.56L-176.67 159.08L-174.61 160.67L-172.63 160.63L-170.7 158.95L-168.67 161.12L-166.75 157.85L-164.72 161.19L-162.76 157.68L-160.78 161.1L-158.79 158.68L-156.83 161.17L-154.83 159.88L-152.83 158.94L-150.83 157.85L-148.87 159.26L-146.86 158.12L-144.96 161.07L-142.89 158.4L-141 161.28L-138.96 159.74L-136.94 158.72L-134.99 159.75L-132.97 158.57L-131 160.04L-128.95 159.3L-126.95 159.93L-124.91 159.31L-122.98 161.72L-120.87 159.45L-118.93 161.51L-116.84 160.09L-114.86 161.15L-112.77 159.53L-110.85 161.9L-108.77 160.66L-106.73 160.54L-104.75 161.28L-102.83 163.38L-100.76 162.49L-98.65 161L-96.63 161.18L-94.57 160.58L-92.67 162.64L-90.56 161.36L-88.5 160.97L-86.66 163.66L-84.63 163.68L-82.57 163.27L-80.45 162.14L-78.37 161.6L-76.65 165.26L-74.32 161.9L-72.31 162.22L-70.41 163.66L-68.6 165.82L-66.42 164.45L-64.46 165.15L-62.59 166.59L-60.56 166.6L-58.52 166.59L-56.49 166.64L-54.43 166.48L-52.15 164.74L-50.39 166.84L-48.59 168.53L-46.63 169.07L-44.59 169.08L-42.37 168.05L-40.31 168.02L-38.56 169.77L-36.4 169.2L-34.51 170.15L-32.73 171.6L-30.46 170.57L-28.29 170.11L-26.53 171.6L-24.69 172.67L-22.28 171.24L-20.91 174.28L-18.32 172.23L-17.14 175.88L-14.92 175.35L-12.67 174.82L-10.84 175.84L-9.26001 177.7L-6.48999 175.46L-5.64001 179.71L-3.12 178.44L-0.940002 178.3L0.869995 179.35L2.09003 182.09L4.60999 181.01L6.14001 182.8L8.15997 183.19L9.63 185.05L12.65 182.92L13.62 186.02L15.69 186.33L18.23 185.59L19.64 187.5L20.74 190.06L22.9 190.23L24.46 191.71L26.84 191.48L27.77 194.32L30.98 192.59L32.09 195.02L34.05 195.78L36.05 196.46L37.61 197.98L38.48 200.87L41.9 198.77L43.37 200.47L45.52 200.78L46.74 203.06L49.04 203.01L50.28 205.35L52.41 205.64L54.33 206.22L55.91 207.69L58.21 207.17L59.22 210.47L61.93 208.57L63.88 208.96L65.01 212.28L67.57 210.53L68.79 213.78L71.04 213.04L72.68 214.8L74.96 213.84L76.59 215.76L79.16 213.29L80.52 216.57L82.86 215.1L84.54 216.87L86.82 215.64L88.94 215.28L90.5 217.86L92.74 216.88L94.38 219.06L96.76 217.3L98.54 218.75L100.71 218.13L102.16 221.38L104.32 220.82L106.6 219.52L108.31 221.39L110.02 223.37L112.55 220.55L114.08 223.6L116.52 221.24L118.15 223.72L120.26 223.31L122.21 223.9L124.31 223.52L126 225.75L128.15 225.06L130.29 224.41L132.01 226.52L134.06 226.41L136.33 224.91L137.97 227.55L140.27 225.79L142.1 227.18L144.26 226.36L145.8 229.82L147.88 229.54L149.88 229.78L151.82 230.53L154.08 228.87L156.24 227.85L157.98 230.08L159.86 231.26L161.79 232.13L164.03 230.46L166.18 229.47L167.9 232.02L169.88 232.42L172.2 229.95L173.98 232.06L176.17 230.65L178.16 231L180.13 231.49L182.13 231.67L183.98 233.29L186.14 232.03L188.16 232.04L190.13 232.49L191.82 235.71L193.79 236.22L196.02 233.99L197.85 235.83L200.07 233.64L201.8 236.74L203.85 236.27L205.83 236.64L208.04 234.48L209.77 237.72L212.01 235.03L213.79 237.71L215.86 236.99L217.8 237.88L219.83 237.65L221.76 238.66L223.77 238.73L225.87 237.54L227.8 238.62L229.89 237.51L231.88 237.81L233.88 237.88L235.96 236.94L237.75 239.9L239.8 239.35L241.92 237.8L243.78 239.89L245.91 238.17L247.73 240.84L249.87 238.96L251.69 241.63L253.93 238.42L255.78 240.96L257.78 241.45L259.98 239.19L261.87 241.26L263.83 242.27L265.98 240.82L268.07 240.05L269.92 242.67L271.94 242.9L273.97 243.01L276.18 240.54L278.23 240.47L280.23 240.88L282.08 243.44L284.15 243.07L286.34 240.95L288.27 242.48L290.22 243.58L292.38 241.93L294.33 243.1L296.24 244.88L298.35 243.88L300.52 242.08L302.37 244.66L304.35 245.47L306.46 244.49L308.51 244.3L310.59 243.68L312.59 244.21L314.51 245.8L316.77 246.09L318.44 244.27L320.31 243.44L322.26 242.79L323.54 240.47L325.34 239.36L327.92 240.45L330.04 240.4L331.5 238.27L333.29 237.11L335.2 236.31L337.74 237.96L339.6 237.06L341.4 235.84L343 233.54L345.26 234.41L347.39 234.71L349.06 232.41L351.23 233.04L353.3 233.09L355.3 232.72L357.13 230.94L359.28 231.74L361.36 232.05L363.2 230L365.33 230.82L367.37 230.77L369.55 232.49L371.48 231.19L373.55 231.57L375.62 232.17L377.57 230.9L379.66 231.78L381.63 230.9L383.64 230.53L385.66 230.33L387.75 231.09L389.56 227.64L391.8 230.71L393.67 228.21L395.65 227.47L397.7 227.7L399.92 229.94L401.79 227.92L403.83 227.9L405.8 227.2L408.09 229.62L409.93 227.65L411.8 226.11L414.07 227.91L415.93 226.45L417.92 225.99L420.17 227.22L422.06 224.79L424.39 225.43L426.61 225.07L429.07 224.81L431.36 226.46L433.48 226.27L435.42 224.7L437.73 226.11L439.3 223.66L441.97 225.39L443.25 222.67L444.71 220.79L447.42 221.89L448.37 218.93L450.82 219.29L452.15 217.2L454.27 217.01L455.9 215.72L458.51 216.76L460.46 216.31L461.46 213.38L464.16 215.01L465.05 211.41L467.87 213.86L469.12 210.94L471.35 211.76L473.25 211.31L475.26 211.56L476.91 208.54L479.07 211.23L481.01 208.18L482.89 211.03L484.69 212.01L487.21 208.89L489 210.3L491.28 210.01L492.81 211.81L493.66 214.54L496.46 213.53L498.33 214.3L499.28 216.51L500.41 218.41L501.64 220.23L503.76 220.53L505.41 221.7L507.71 221.13L509.03 223.43L511.31 221.44L513.11 221.19L514.82 223.07L516.66 221.96L518.5 222.31L520.64 223.59L522.54 222.37L524.33 220.97L526.74 222.68L528.86 222.61L530.13 219.6L532.17 219.4L533.62 217.56L535.34 216.54L538.2 217.95L539.73 216.39L541.36 215.09L542.75 213.45L545.73 214.18L547.18 212.57L547.28 209.3L548.57 207.69L551.44 207.75L551.86 205.21L552.53 203.04L556.28 203.47L557.18 201.43L556.3 197.96L557.74 196.39L558.79 194.47L562.49 194.92L561.35 190.91L565.05 191.71L565.15 188.64L567.88 188.88L568.62 186.15L570.15 184.2L572.6 184.8L574.57 183.42L576.84 182.82L578.56 185.39L580.75 184.62L582.18 187.44L584.29 187.86L586.34 185.68L588.59 187.37L590.49 186.31L591.72 183.78L593.8 183.7L595.64 182.95L597.32 181.85L599.71 182.3L600.3 178.63L603.38 181.17L605.13 180.43L606.91 179.73L608.81 179.55L610.67 179.04L612.53 177.33L614.51 178.84L616.58 176.19L618.5 177.72L620.65 176.43L622.35 178.94L624.32 179.18L626.38 178.87L628.25 179.75L630.06 180.96L632.06 181.1L633.87 182.32L636.12 181.05L638.15 180.99L639.89 182.88L641.75 183.41L644.32 181.48L646.03 183.25L648.43 182.37L649.92 185.02L652.14 184.8L653.77 186.92L655.94 186.88L658.55 187.58L660.4 185.86L660.99 183.98L661.93 182.12L662.76 179.46L665.64 181.2L666.87 178.66L668.71 177.47L670.95 180.55L672.77 178.83L674.61 179.63L676.32 180.89L678.68 178.6L680.25 180.42L681.97 181.43L684.34 180.11L685.49 183.05L687.85 181.82L689.95 181.41L691.05 185.03L693.43 183.66L695.1 185.33L697.16 185.16L699.32 184.19L701.22 184.78L702.88 187.48L705.11 185.21L706.89 187.75L709.04 184.99L710.97 185.28L712.91 187.19L714.91 187.95L716.88 186.89L718.75 184.9L720.93 187.81L722.86 186.91L724.62 184.85L726.59 184.78L728.52 184.44L730.54 184.83L730.75 182.33L732.78 181.17L735.33 182.98L736.98 182.6L738.94 179.52L740.65 182.83L742.56 180.42L744.68 181.3L746.75 180.46L748.18 178.81L748.57 176.15L751.69 176.68L751.91 173.33L754.16 172.93L756.45 172.94L758.34 172.27L760.24 171.68L762.1 170.94L764.05 170.57L766.01 170.32L767.98 167.82L770.02 169.52L771.92 170.62L773.78 170.41L775.79 169.34L777.53 170.95L779.37 169.91L781.21 169.55L784.05 169.28L783.68 165.29L785.42 163.39L788.34 164.14L790.44 164.63L792.22 162.66L794.45 161.42L796.34 163.4L798.23 164.46L800.4 164.44L802.81 163.84L803.84 167.07L805.73 167.68L807.74 167.94L809.75 168.19L811.83 168.24L813.09 170.76L815.37 170.21L817.84 169.06L819.12 171.55L821.06 171.99L823.27 171.66L825.28 171.91L826.69 173.97L828.21 176.09L830.45 176L832.72 175.88L834.1 178.29L836.2 178.65L837.71 180.54L840.15 180.08L842.86 179.17L844.17 180.83L845.05 183.38L847.75 181.97L848.88 184.01L850.94 183.8L852.06 186.25L854.72 184.92L856.89 185.09L859.04 185.42L861.04 186.8L863.1 186.63L864.62 189.8L866.73 189.27L868.75 189.33L871.07 187.53L872.59 190.69L874.91 188.93L876.87 189.33L878.69 190.63L880.67 190.98L882.41 192.74L884.66 191.39L886.56 192.19L888.82 190.78L890.58 192.45L892.51 193.06L894.59 192.74L896.7 192.28L898.53 193.49L900 193.45V0H-510V251.65H-474.08Z" fill="#B9CED1"/>
</g>
<defs>
<clipPath id="clip0_1865_489358">
<rect width="390" height="844" fill="white"/>
</clipPath>
</defs>
</svg>
