<svg width="390" height="844" viewBox="0 0 390 844" fill="none" xmlns="http://www.w3.org/2000/svg">
<g clip-path="url(#clip0_1865_489346)">
<path d="M-510 135.84L-508.82 136.4L-506.48 134.1L-504.84 137.33L-502.88 138.06L-500.79 137.69L-498.57 136.11L-496.61 136.81L-494.76 138.73L-492.49 136.27L-490.65 138.35L-488.43 136.32L-486.53 137.79L-484.41 136.7L-482.61 139.71L-480.46 138.17L-478.48 138.88L-476.44 138.73L-474.42 138.94L-472.45 140.02L-470.44 140.43L-468.3 137.77L-466.37 140.34L-464.27 138.06L-462.26 138.47L-460.26 139.79L-458.24 139.67L-456.22 140.37L-454.18 138.67L-452.16 139.74L-450.13 141.43L-448.1 140.52L-446.07 140.46L-444.04 141.02L-442 141.34L-439.97 140.95L-437.98 139.45L-435.96 139.19L-433.91 139.86L-431.91 139.14L-429.82 140.69L-427.81 140.04L-425.82 139.39L-423.73 140.22L-421.72 139.88L-419.76 138.82L-417.73 138.7L-415.71 138.54L-413.61 139.31L-411.66 138.27L-409.75 136.91L-407.48 139.37L-405.66 137.12L-403.75 135.93L-401.47 138.15L-399.51 137.35L-397.38 137.94L-395.56 136.07L-393.54 135.79L-391.74 133.86L-389.53 134.98L-387.41 135.42L-385.5 134.37L-383.23 135.86L-381.51 133.51L-379.37 134.04L-377.59 132.16L-375.34 133.38L-373.4 132.55L-371.43 131.95L-369.66 130.1L-367.42 131.22L-365.35 131.21L-363.61 129.23L-361.29 130.78L-359.59 128.54L-357.61 128.03L-355.63 127.48L-353.07 130.45L-351.17 129.44L-349.33 128.08L-347.26 128.1L-345.46 126.46L-343.44 126.15L-341.33 126.44L-339.48 125.18L-337.49 124.83L-335.17 126.64H-333.14L-331.3 125.28L-329.63 122.83L-327.37 124.3L-325.61 122.36L-323.61 122.12L-321.27 124.21L-319.55 121.98L-317.35 123.19L-315.61 121.02L-313.42 122.11L-311.32 122.67L-309.22 123.18L-307.28 122.47L-305.34 121.72L-303.29 121.9L-301.67 118.62L-299.55 119.33L-297.53 119.19L-295.31 120.76L-293.59 118.15L-291.32 120.23H-289.29L-287.58 117.45L-285.38 119.01L-283.54 117.25L-281.41 118.27L-279.37 118.35L-277.42 117.67L-275.43 117.29L-273.55 115.91L-271.58 115.28L-269.3 117.88L-267.57 114.82L-265.37 116.69L-263.55 114.47L-261.43 115.54L-259.52 114.22L-257.38 115.59L-255.35 115.7L-253.31 115.92L-251.56 112.58L-249.34 115.1L-247.52 112.45L-245.35 114.48H-243.33L-241.36 113.85L-239.25 115.11L-237.47 111.64L-235.46 111.39L-233.32 113.26L-231.35 112.45L-229.4 111.41L-227.32 112.45L-225.37 111.25L-223.38 110.76L-221.34 110.96L-219.33 110.84L-217.35 110.04L-215.34 109.94L-213.18 112.87L-211.14 113.36L-209.24 110.88L-207.19 111.64L-205.19 111.32L-203.22 109.99L-201.16 111.31L-199.14 111.44L-197.17 110.05L-195.12 111.1L-193.09 111.6L-191.1 110.76L-189.05 112.21L-187.08 110.44L-185.02 112.25L-183.02 111.7L-181.04 110.01L-179.04 109.11L-177.02 109.21L-174.97 111.79L-172.97 111.3L-170.96 110.56L-168.95 109.86L-166.93 110.32L-164.92 111.62L-162.91 110.29L-160.89 109.15L-158.88 109.68L-156.86 108.57L-154.85 109.47L-152.82 108.6L-150.8 108.47L-148.82 111.7L-146.78 109.03L-144.78 110.09L-142.77 110.84L-140.76 110.73L-138.72 109.68L-136.75 111.46L-134.74 111.56L-132.72 111.62L-130.72 111.82L-128.65 110.07L-126.66 110.98L-124.62 110.24L-122.63 110.83L-120.64 111.62L-118.64 112.01L-116.52 109.53L-114.59 111.62L-112.49 109.6L-110.6 112.43L-108.62 113.05L-106.61 113.2L-104.46 110.59L-102.48 111.45L-100.47 111.59L-98.54 113.1L-96.42 111.39L-94.57 114.15L-92.34 111.03L-90.39 112.45L-88.48 114.39L-86.27 111.87L-84.38 113.96L-82.17 111.72L-80.23 113.09L-78.35 115.07L-76.25 114.41L-74.28 115.23L-72.27 115.52L-70.3 116.39L-68.14 114.97L-66.19 116.04L-64.1 115.47L-62.12 116.13L-59.86 113.97L-58.03 116.16L-55.98 116.1L-54.1 117.66L-51.94 116.63L-49.91 116.72L-47.79 116.07L-45.87 117.22L-43.91 118.05L-41.88 118.17L-39.82 118.1L-37.78 118.2L-35.84 119.12L-33.56 117.17L-31.64 118.3L-29.81 120.07L-27.7 119.56L-25.9 121.55L-23.87 121.51L-21.59 119.58H-19.57L-17.86 121.93L-15.88 122.3L-13.87 122.39L-11.87 122.6L-9.88 122.87L-7.85999 122.88L-5.63 121.48L-3.70999 122.26L-1.91 123.84L0.119995 123.81L1.91 125.44L3.96002 125.28L6.25 123.57L7.98999 125.51L9.84998 126.64L11.81 127.14L13.91 126.64L15.7 128.25L18.16 125.42L19.68 128.8L22.13 126.06L23.88 127.89L25.62 129.8L27.61 130.05L29.74 129.4L31.94 128.33L33.83 129.26L35.95 128.61L37.45 132.16L39.65 131.04L41.69 130.97L43.77 130.61L45.65 131.63L47.37 133.74L49.61 132.3L51.72 131.71L53.59 132.85L55.26 135.33L57.68 132.58L59.61 133.22L61.63 133.29L63.41 135.05L65.45 134.99L67.59 134.08L69.23 137L71.17 137.69L73.5 135.28L75.24 137.54L77.31 137.18L79.24 137.96L81.48 136.11L83.18 138.87L85.49 136.27L87.47 136.61L89.14 139.74L91.1 140.41L93.28 138.84L95.27 139.09L97.25 139.43L99.37 138.31L101.36 138.48L103.12 141.44L105.29 139.6L107.12 141.91L109.21 140.85L111.35 139.13L113.26 140.45L115.27 140.41L117.26 140.77L119.23 141.39L121.17 142.68L123.27 140.9L125.32 139.97L127.25 141.69L129.27 141.37L131.3 140.55L133.27 141.77L135.28 141.55L137.26 142.68L139.27 142.05L141.27 142.52L143.29 141.46L145.29 142.48L147.3 141.87L149.3 141.56L151.31 144.06L153.31 141.47L155.31 141.24L157.31 141.26L159.33 142.67L161.35 143.37L163.35 142.63L165.38 143.85L167.32 140.62L169.31 140.19L171.33 140.91L173.39 142.85L175.33 140.64L177.4 142.51L179.41 142.49L181.39 141.73L183.43 142.62L185.34 140.01L187.34 139.89L189.42 141.76L191.39 140.96L193.33 139.22L195.45 141.9L197.35 139.29L199.43 141.1L201.46 141.57L203.5 142.28L205.48 141.22L207.54 142.08L209.55 141.73L211.59 141.93L213.47 138.47L215.63 141.62L217.56 139.35L219.65 140.87L221.61 139.33L223.69 140.58L225.71 140.33L227.76 140.87L229.72 139.2L231.77 139.97L233.83 140.53L235.75 138.02L237.84 139.69L239.76 136.96L241.86 138.68L243.88 138.72L245.89 138.33L247.97 139.42L249.94 138.08L251.94 137.51L254.01 138.54L256.02 138.22L258.09 139.13L260.09 138.53L262.11 138.35L264.15 138.67L266.15 138.08L268.12 136.73L270.14 136.4L272.25 138.55L274.25 137.76L276.24 136.94L278.23 135.98L280.21 135.06L282.34 137.36L284.39 137.96L286.39 137.23L288.43 137.72L290.42 136.69L292.48 137.58L294.42 135.55L296.46 135.7L298.54 136.94L300.44 134.04L302.51 134.95L304.49 133.86L306.62 136.25L308.59 135.1L310.61 134.78L312.67 135.68L314.69 135.38L316.72 135.46L318.76 135.83L320.76 135.23L322.71 133.36L324.73 133.18L326.85 135.35L328.81 133.78L330.92 135.76L332.9 134.65L334.93 134.79L336.99 135.44L338.92 133.26L340.98 133.24L343.05 133.37L345.14 133.88L347.14 132.52L349.27 133.97L351.38 135.01L353.38 133.54L355.46 133.87L357.56 134.78L359.61 134.53L361.57 131.94L363.73 134.2L365.75 133.26L367.79 132.6L369.85 132.51L371.85 131.12L373.92 132.45L375.87 130.73L377.99 133.21L379.98 132.71L382 132.78L384.04 133.42L385.94 130.56L387.94 130.19L390.04 132.23L392 130.98L394.09 132.63L396.02 130.65L398.13 132.78L400.08 131.21L402.11 131.55L404.03 129.42L406.11 130.75L408.15 131.45L410.07 129.24L412.12 130.07L414.13 129.87L416.11 129.06L418.17 129.94L420.14 128.88L422.15 128.73L424.16 128.78L426.18 129.94L428.16 131.07L430.09 128.95L432.07 129.88L434.03 129.85L436 130.39L437.96 130.42L439.96 128.95L441.94 128.29L443.89 129.64L445.85 129.8L447.84 129.29L449.76 130.84L451.7 131.73L453.69 130.92L455.67 130.27L457.64 129.71L459.6 129.92L461.56 130.28L463.52 130.92L465.91 130.99L465.92 128.13L467.28 126.45L468.91 124.57L471.32 126.31L472.73 123.38L474.93 124.11L477.03 124.43L479.09 124.52L480.58 121.97L482.4 120.92L485.01 123.65L486.95 123.19L488.79 122.24L490.24 119.48L492.68 121.4L494.78 121.69L496.7 121.13L497.98 117.56L499.9 117.01L502.19 118.21L504.36 118.82L506.13 117.56L507.7 115.37L509.8 115.69L511.96 116.25L514.12 116.84L515.82 115.25L517.33 112.78L519.84 114.97L521.5 113.2L523.81 114.49L525.19 111.62L527 110.69L529.07 111.07L530.85 109.75L532.98 110.72L534.88 110.16L536.95 112.16L538.81 110.45L540.74 110.62L542.62 111.19L544.7 111.07L546.92 110.67L549.04 110.89L551.21 110.98L552.84 112.78L554.41 114.73L556.6 114.69L558.46 115.75L560.45 116.43L562.57 116.08L564.45 116.87L566.49 116.59L568.55 115.77L570.3 118.94L572.41 116.26L574.36 116.65L576.37 118.53L578.4 119.1L580.34 117.76L582.39 118.23L584.12 115.51L586.26 116.8L588.18 116.17L590.24 116.52L592.28 116.59L594.39 117.1L596.31 116.44L597.76 113.14L600 114.38L601.94 113.84L604.06 114.39L605.91 113.36L607.72 112.15L609.73 112.08L611.82 112.47L613.75 111.9L615.54 110.31L617.88 112.84L619.62 110.71L621.48 109.16L623.62 110.68L625.64 111.12L627.59 110.41L629.58 111.06L631.56 110.53L633.47 112.08L635.49 110.98L637.55 110.33L639.36 112.14L641.82 109.63L643.5 111.93L645.38 112.86L647.5 112.74L649.52 113.07L651.17 114.88L653.39 114.48L655.38 114.96L657.49 115.01L659.21 116.46L661.69 115.12L663.38 116.69L665.6 116.15L666.91 119.59L669.09 119.24L671.21 119.05L673.01 120.81L675.18 120.11L677.23 120.25L679.21 121.85L681.31 119.79L683.2 118.67L685.33 121.41L687.28 120.93L689.01 118.66L691.12 119.74L692.92 118.36L694.81 117.59L696.82 117.79L698.87 118.48L700.7 116.65L702.8 118.79L704.73 118.48L706.7 116.96L708.55 118.88L710.63 117.03L712.51 117.89L714.49 117.52L716.14 120.59L718.23 119.12L720.07 120.9L722.07 120.31L724.06 120.73L726.07 120.82L727.76 117.49L729.81 118.26L731.91 118.76L733.82 118.19L736.04 118.74L737.86 117.78L739.64 116.77L741.7 116.62L743.62 116.03L744.79 113.37L746.42 112.05L748.87 112.99L750.82 112.57L752.7 111.96L754.4 110.8L756.3 110.29L758.12 109.5L759.55 106.92L762.09 109.46L763.63 106.68L765.81 108.35L767.75 108.68L769.72 105.86L771.75 106.57L773.65 108.04L775.52 109.13L777.62 108.4L779.44 109.72L781.39 110.15L783.48 109.82L785.65 109.01L787.44 110.62L789.51 110.35L791.53 110.31L793.58 109.23L795.52 112.1L797.53 110.72L799.44 109.73L801.32 108.59L803.47 108.88L805.8 109.71L807.32 106.84L809.61 107.46L811.65 106.58L813.79 108.76L815.69 107.96L817.56 109.04L819.75 106.52L821.78 106.53L823.6 107.79L825.5 108.41L827.03 110.55L829.51 108.67L831.4 109.27L832.79 111.77L835.12 110.58L837.17 110.46L838.34 114.41L841.05 111.59L842.93 112.51L844.43 115.5L846.46 115.89L848.57 115.7L850.92 113.84L852.71 115.69L854.93 114.42L856.67 116.93L858.96 114.76L860.87 116.1L862.87 116.52L864.95 116.01L866.87 117.67L869.05 115.39L870.95 117.97L873.03 117.08L875.01 118.52L877.08 117.76L879.09 118.74L881.16 117.43L883.19 117.83L885.22 118.85L887.26 116.43L889.31 119.63L891.33 117.61L893.36 116.96L895.37 115.98L897.46 118.29L899.47 117.09L900 117.14V0H-510V135.84Z" fill="#B9CED1"/>
</g>
<defs>
<clipPath id="clip0_1865_489346">
<rect width="390" height="844" fill="white"/>
</clipPath>
</defs>
</svg>
