<svg width="390" height="844" viewBox="0 0 390 844" fill="none" xmlns="http://www.w3.org/2000/svg">
<g clip-path="url(#clip0_1865_489334)">
<path d="M900 0H-510V77.33L-509.29 76.73L-508.02 75.92L-506.79 76.13L-505.6 77.24L-504.36 77.27L-503.03 75.35L-501.81 75.95L-500.63 77.09L-499.31 75.7L-498.05 75.31L-496.79 75.05L-495.55 75.06L-494.43 77.29L-493.18 77.07L-492.02 78.53L-490.79 78.81L-489.43 76.7L-488.13 75.57L-486.89 75.74L-485.71 76.73L-484.46 76.63L-483.25 77.14L-482.04 77.78L-480.81 78L-479.65 79.72L-478.24 76.07L-477.09 78.04L-475.89 79.27L-474.62 78.55L-473.39 78.9L-472.18 79.63L-470.94 79.75L-469.63 77.69L-468.45 79.8L-467.13 76.58L-465.91 77.09L-464.7 78.96L-463.46 79.68L-462.22 80.17L-460.97 79.46L-459.73 78.74L-458.49 78.66L-457.27 77.17L-456.04 77.65L-454.75 79.93L-453.56 78.3L-452.3 79.01L-451.03 80.02L-449.91 77.25L-448.57 79.46L-447.45 77.23L-446.12 79.05L-444.91 78.44L-443.68 78.4L-442.39 79.27L-441.19 78.66L-439.92 79L-438.83 77.06L-437.55 77.62L-436.34 77.27L-435.28 75.28L-433.96 76.28L-432.61 77.44L-431.54 75.73L-430.37 75.03L-429.08 75.59L-427.7 77L-426.51 76.47L-425.15 77.62L-424.26 74.36L-422.7 77.25L-421.67 75.36L-420.26 76.83L-419.17 75.5L-417.98 75.08L-416.58 76.4L-415.72 73.26L-414.2 75.5L-413.03 74.91L-411.83 74.61L-410.61 74.41L-409.26 75.23L-408.22 73.61L-406.87 74.44L-405.75 73.49L-404.54 73.27L-403.46 71.99L-401.88 74.53L-400.67 74.33L-399.69 72.3L-398.57 71.31L-397.4 70.78L-396.05 71.53L-394.81 71.45L-393.61 71.1L-392.23 72.14L-391.02 71.82L-389.82 71.5L-388.6 71.31L-387.6 69.41L-386.35 69.45L-385.09 69.57L-383.91 69.04L-382.48 70.44L-381.41 69.11L-380.03 70.12L-379.1 67.69L-377.87 67.58L-376.41 69.21L-375.01 70.32L-373.78 70.22L-372.63 69.53L-371.44 69.07L-370.21 68.94L-369.22 66.98L-367.97 67.02L-366.47 68.92L-365.35 67.97L-364.12 67.83L-362.81 68.28L-361.79 66.56L-360.39 67.8L-359.33 66.32L-358.1 66.19L-357.12 64.2L-355.63 66.01L-354.2 67.39L-353.18 65.68L-352.23 63.48L-350.86 64.41L-349.35 66.53L-348.56 63.14L-346.99 65.73L-345.91 64.58L-344.85 63.32L-343.36 65.3L-342.44 62.9L-341.08 63.91L-339.8 64.3L-338.91 61.71L-337.58 62.45L-336.37 62.33L-335.24 61.52L-334.11 60.76L-332.87 60.8L-331.51 61.82L-330.45 60.53L-328.99 62.27L-327.98 60.59L-326.63 61.5L-325.28 62.44L-324.15 61.67L-322.93 61.61L-321.89 60.13L-320.8 58.99L-319.51 59.53L-318.12 60.76L-316.81 61.42L-315.7 60.44L-314.59 59.5L-313.55 57.94L-312.01 60.49L-310.96 59.01L-309.8 58.44L-308.53 58.82L-307.29 58.93L-306 59.41L-304.7 60.04L-303.48 59.96L-302.6 57.04L-301.4 56.79L-300.24 56.18L-298.65 59.34L-297.82 55.85L-296.54 56.3L-295.37 55.82L-294.16 55.62L-292.62 58.45L-291.69 55.76L-290.32 57.12L-289.1 56.83L-288.07 54.72L-286.71 55.8L-285.31 57.64L-284.33 54.13L-282.87 57.55L-281.72 56.13L-280.52 54.12L-279.25 56.2L-277.98 54.79L-276.88 57.49L-275.52 55.76L-274.47 57.34L-273.25 57.28L-272.1 57.77L-271.02 58.55L-269.52 57.58L-268.43 58.41L-267.1 58.23L-265.63 57.33L-264.82 59.87L-263.45 59.49L-262.23 60.58L-260.86 57.71L-259.65 59.35L-258.34 60.06L-257.32 58L-256.02 58.52L-254.85 58.1L-253.53 58.41L-252.15 58.76L-251.36 57L-249.83 57.82L-249.28 55.5L-247.58 56.73L-246.28 56.74L-246.18 53.3L-245.03 52.88L-243.21 54.37L-242.02 54.09L-241.57 51.51L-239.99 52.4L-238.36 53.68L-237.75 51.23L-236.33 51.91L-235.37 50.46L-233.87 52.06L-232.96 49.35L-231.62 50.12L-230.36 50.51L-229.12 50.41L-228.06 52.13L-226.79 51.95L-225.47 51.77L-224.24 52.14L-223.13 52.87L-221.42 51.71L-220.25 52.31L-218.95 52.43L-217.69 52.64L-217.3 55.97L-215.39 53.72L-214.78 56.71L-213.03 53.87L-211.9 54.22L-210.89 56.24L-209.61 55.36L-208.38 54.23L-207.2 55.09L-206.04 54.1L-204.79 55.19L-203.52 55.82L-202.37 55.12L-201.04 55.83L-199.84 55.52L-198.4 56.54L-197.58 54.32L-196.48 53.67L-195.16 53.96L-193.96 53.71L-193.23 51.68L-191.77 52.43L-190.3 53.15L-189.05 53.03L-187.69 53.28L-187.28 50.43L-186.26 49.61L-184.68 50.55L-184.08 48.38L-182.43 49.53L-181.11 49.65L-180.48 47.56L-179.27 47.3L-177.98 47.32L-176.81 46.94L-175.43 47.26L-174.26 46.91L-173.13 46.39L-172.18 45.18L-170.68 46.11L-169.54 45.65L-168.23 45.93L-167.5 43.35L-166.04 44.42L-164.54 46.15L-163.79 42.78L-162.23 45.51L-161.3 42.45L-159.88 45.2L-158.75 43.76L-157.51 43.55L-156.26 43.38L-154.98 42.66L-153.75 43.3L-152.62 44.61L-151.56 46L-150.06 44.03L-148.98 45.1L-147.87 45.91L-146.72 46.36L-144.89 43.74L-143.98 45.37L-143.28 47.72L-141.59 46.09L-140.15 45.57L-139.76 48.76L-138.25 48L-137.06 48.34L-135.64 47.98L-134.85 49.56L-133.44 49.25L-132.76 51.15L-131.12 50.19L-130.42 51.97L-129.05 51.82L-127.97 52.52L-126.36 51.67L-125.32 52.49L-124.19 53.05L-123.15 53.87L-121.47 52.78L-120.35 53.34L-119.56 54.96L-118.31 55.14L-117 55.13L-116.02 56.21L-114.91 56.88L-113.74 57.4L-112.71 58.45L-111.33 58.12L-109.89 57.38L-108.84 58.47L-107.72 59.37L-106.41 59.21L-105.22 59.79L-103.7 57.54L-102.7 60.18L-101.32 58.4L-100.1 58.68L-98.86 58.34L-97.63 60.45L-96.5 57.47L-95.16 60.06L-94.14 57.22L-92.93 57.31L-91.49 59.66L-90.53 57.19L-89.33 57.07L-88.13 56.93L-86.81 57.74L-85.38 59.52L-84.53 56.36L-83.34 55.98L-81.98 57.34L-80.64 58.85L-79.47 58.46L-78.43 55.77L-77.18 56.16L-75.94 57.18L-74.74 57.86L-73.51 56.75L-72.36 58.31L-71.2 58.7L-69.76 55.53L-68.72 57.78L-67.62 58.85L-66.17 56.72L-64.93 56.74L-63.81 57.52L-62.39 56.29L-61.22 56.74L-60.3 58.73L-59.2 59.52L-57.62 57.45L-56.43 57.74L-55.52 59.67L-54.21 59.22L-53.27 60.95L-51.64 58.8L-50.42 58.94L-49.28 59.6L-48.01 59.47L-47.23 62.14L-45.89 61.63L-44.39 60.16L-43.28 60.95L-42.07 61.16L-40.86 61.39L-39.77 62.29L-38.39 61.56L-37.33 62.65L-36.02 62.29L-34.66 61.63L-33.72 63.44L-32.78 65.19L-31.66 65.9L-29.91 63.08L-29.2 66.14L-27.76 65.05L-26.66 65.9L-25.58 66.85L-24.13 65.7L-23.09 66.89L-21.47 64.74L-20.25 64.95L-19.49 67.71L-18.18 67.39L-16.74 66.28L-15.56 66.65L-14.41 67.26L-13.02 66.46L-11.74 66.26L-10.57 66.69L-9.63 68.45L-8.73001 70.46L-7.14999 68.32L-6.04999 70.84L-4.78 70.18L-3.45001 67.85L-2.26001 69.28L-1.04999 70.25L0.200012 70.21L1.45999 69.82L2.66998 70.74L3.92999 70.14L5.25 68.15L6.42999 69.93L7.71997 68.89L8.90002 70.35L10.16 70.04L11.45 68.96L12.69 68.89L13.88 70.38L15.11 70.86L16.38 70.19L17.58 71.35L18.8 71.9L20.17 68.65L21.42 68.54L22.58 70.78L23.9 68.84L25.08 70.36L26.32 70.62L27.59 69.86L28.76 71.92L30.1 69.43L31.22 71.92L32.54 69.85L33.72 70.75L34.93 71.06L36.26 69.45L37.4 70.87L38.65 70.54L39.91 70.22L41.2 69.57L42.18 72.35L43.41 72.38L44.56 73.24L45.9 72.01L47.32 70.2L48.46 71.15L49.58 72.23L50.78 72.53L52.2 70.77L53.03 74.49L54.32 73.96L55.73 72.32L56.87 73.19L57.98 74.33L59.27 73.75L60.6 72.86L61.73 73.79L63.14 72.09L64.34 72.36L65.34 74.62L66.61 74.21L67.86 73.96L68.99 75.14L70.38 73.18L71.39 75.95L72.67 75.2L73.97 74.11L75.15 74.75L76.29 76.38L77.5 76.78L78.78 75.56L79.99 76.23L81.24 75.31L82.47 74.98L83.67 76.75L84.9 76.56L86.14 77.21L87.33 74.74L88.6 76.66L89.8 75.75L91.03 75.63L92.2 74.7L93.57 76.81L94.75 76.03L96 76.13L97.11 74.86L98.32 74.65L99.6 75.03L100.57 73.16L101.85 73.54L102.99 73L104.25 73.09L105.74 74.26L107.04 74.38L108.3 74.32L109.31 73.19L110.51 72.88L111.15 70.62L112.95 72.36L113.45 69.84L115.01 69.85L114.91 72.21L116.81 71.98L118.16 72.26L119.26 72.81L120.33 73.35L120.93 74.69L121.88 75.5L123.5 74.96L124.48 75.65L124.8 78.05L126.45 77.16L127.78 76.97L128.57 78.48L129.35 80.3L130.77 79.77L131.92 80.25L132.88 81.86L134.1 82.21L135.42 81.95L136.77 81.22L137.96 81.65L139.18 81.95L140.38 82.4L141.67 81.81L142.94 81.04L144.06 83.27L145.4 80.33L146.59 81.38L147.81 81.9L149.04 81.3L150.26 82.04L151.5 82.79L152.7 80.18L153.92 80.59L155.16 81.2L156.39 81.07L157.62 81.17L158.91 83L160.03 79.98L161.25 79.6L162.5 80.35L163.77 81.41L164.98 80.96L166.28 82.85L167.47 81.63L168.74 82.95L169.87 79.22L171.14 80.75L172.36 80.07L173.6 81.65L174.82 82.16L176.03 82.57L177.28 80.71L178.44 82.79L179.69 81.47L180.98 80.32L182.2 80.69L183.46 80.13L184.71 79.66L185.86 81.77L187.08 82.4L188.37 80.84L189.6 80.89L190.78 82.65L192.07 80.62L193.32 79.86L194.53 81.06L195.78 80.1L196.98 83L198.22 81.24L199.46 82.44L200.7 82.62L201.9 80.27L203.19 83.44L204.4 81.96L205.59 80.72L206.91 82.98L208.09 81.77L209.3 81.3L210.41 79.52L211.69 80.41L212.84 79.53L214.36 82.5L215.61 82.42L216.54 79.76L218.09 82.13L219.02 79.86L220.03 78.35L221.78 81.43L222.99 81.15L223.89 79.21L225.12 79.08L225.99 77.28L227.25 77.31L228.36 76.75L230.33 79.52L230.95 76.97L232.41 77.66L233.52 77.04L234.9 77.29L235.33 74.49L237.2 76.3L238.26 75.52L239.8 76.14L240.58 74.63L241.11 72.16L242.69 73.08L243.94 72.98L245.54 74.36L246.51 73.16L247.2 70.37L249.08 73.72L249.95 71.61L251.11 70.96L252.54 72.47L253.75 72.39L254.98 72.54L256.14 71.85L257.31 71.16L258.43 69.29L259.78 71.71L260.91 69.1L262.21 71.55L263.43 71.72L264.64 72.09L265.86 71.38L267.1 70.39L268.28 72.2L269.59 69.47L270.76 71.13L271.92 72.49L273.26 70.32L274.36 72.46L275.76 69.66L276.96 70.17L278.18 70.39L279.43 70.29L280.55 71.71L281.67 73.18L283.02 71.66L284.18 72.6L285.39 72.78L286.67 72.27L287.79 73.65L289.03 73.55L290.39 71.99L291.58 72.63L292.87 71.87L294.13 71.54L295.21 73.66L296.49 72.98L297.67 73.94L299.01 72.11L300.19 72.99L301.37 74.01L302.6 74.16L303.84 74.17L305.15 71.46L306.32 74.35L307.57 72.54L308.79 71.82L310.01 72.31L311.27 74.14L312.47 72.69L313.67 72.18L314.87 71.8L316.26 74.36L317.42 73.23L318.48 71.34L319.72 71.57L321.14 73.14L322.46 73.54L323.38 71.4L324.64 71.49L325.57 69.86L327.06 71.05L328.03 69.57L329.84 72.24L330.79 70.67L332.03 70.55L332.88 68.46L334.38 69.64L335.51 68.93L336.59 67.98L337.87 68.03L339.23 68.54L340.43 68.22L341.35 66.22L342.69 66.63L343.99 66.89L345.23 66.74L346.62 67.7L347.57 65.28L349 66.82L350.22 66.48L351.51 67.05L352.59 64.67L353.92 66.02L355.18 66.28L356.42 66.22L357.65 67.99L358.9 65.19L360.12 65.76H361.35L362.46 67.62L363.75 66.56L364.79 68.53L366.38 65.09L367.44 66.64L368.78 65.88L369.81 67.35L371.16 66.66L372.17 68.11L373.26 68.98L374.9 66.66L375.81 68.57L377.15 68.06L378.38 68.12L379.49 68.85L380.52 69.98L381.57 70.96L382.62 71.92L384.47 68.89L385.44 70.31L386.61 70.69L388.1 69.42L388.67 72.97L390.18 71.59L391.51 71.05L392.43 72.94L393.47 74.17L394.93 72.8L395.9 74.61L397.37 73.02L398.35 75.01L399.89 72.53L401.07 72.91L402.38 71.83L403.33 75.18L404.73 72.62L405.89 73.99L407.18 72.65L408.39 73.61L409.62 73.39L410.88 74.8L412.11 73.86L413.34 73.49L414.66 75.04L415.81 73.36L417.11 74.02L418.21 72.43L419.43 72.2L420.74 72.87L422.14 74.02L423.01 71.12L424.28 71.29L425.68 72.31L426.79 71.42L428.11 71.76L429.55 72.75L430.36 70.27L431.61 70.21L432.75 69.6L434.2 70.48L435.16 69.04L436.96 71.46L437.55 68.34L439.12 69.66L440.1 68.35L441.33 68.14L442.35 67.04L443.8 67.77L445.48 69.37L446.53 68.39L447.71 67.97L448.68 66.7L450.14 67.37L451.49 67.6L452.23 64.12L453.66 65.01L454.85 65.25L456.08 64.93L457.29 64.85L458.35 67.48L459.57 67.72L460.84 66.52L462.04 67.93L463.26 65.58L464.51 67.6L465.69 66.02L466.93 66.6L468.21 67.42L469.48 67.92L470.48 65.12L471.78 66L473.07 66.66L474.35 67.01L475.51 66.39L476.59 65.16L477.77 64.83L479.29 66.76L480.42 65.99L481.59 65.55L482.35 62.75L483.86 64.31L484.93 63.38L485.98 62.38L487.5 63.8L488.91 64.65L489.74 62.57L491.01 62.68L492.4 63.35L493.09 60.71L494.28 60.42L495.72 61.32L497.24 62.54L498.5 62.6L499.13 59.74L500.24 59.09L501.41 58.7L503.03 60.37L503.79 58.09L504.99 57.84L506.27 57.98L507.96 60.11L508.64 57.33L510.01 57.95L511.48 59.08L512.19 56.29L513.4 56.1L514.56 55.57L516.06 57.04L517.46 58.04L518.28 55.47L519.84 57.59L520.88 56.37L521.8 53.94L523.13 54.61L524.61 56.6L525.61 54.53L526.96 55.61L528.2 55.73L529.26 53.67L530.58 54.77L531.92 56.21L533.06 55.04L534.18 53.14L535.48 54.43L536.78 55.89L537.93 54.08L539.15 53.94L540.36 53.3L541.58 52.58L542.82 52.91L544.07 54.26L545.3 53.99L546.53 54.32L547.76 52.4L548.98 53.75L550.21 53.92L551.42 55.32L552.69 52.98L553.88 54.69L555.14 53.58L556.33 54.98L557.56 54.73L558.82 53.94L560.04 54.23L561.25 54.56L562.51 53.86L563.77 53.3L564.93 54.73L566.18 54.33L567.37 55.2L568.67 53.85L569.86 54.59L571.16 53.39L572.32 54.57L573.57 54.38L574.83 53.88L575.91 56.41L577.18 55.69L578.33 57.03L579.55 57.35L580.89 55.55L582.04 56.82L583.37 55.22L584.64 54.48L585.81 55.63L586.98 56.62L588.26 55.77L589.37 57.98L590.78 54.59L591.95 55.7L593.08 57.69L594.4 56.02L595.68 54.75L596.91 54.83L597.99 58.39L599.22 58.32L600.46 58.19L601.77 55.98L602.92 58.6L604.18 57.68L605.4 58.01L606.67 56.02L607.87 57.81L609.11 56.86L610.34 57.58L611.57 58.1L612.79 56.61L614.03 57.72L615.27 58.16L616.47 56.64L617.73 57.87L618.95 57.24L620.22 58.44L621.46 58.56L622.61 56.67L623.82 56.17L624.97 54.92L626.22 55.38L627.49 56.05L628.85 57.58L630.03 56.89L631.33 57.49L632.55 57.22L633.77 57.02L634.9 56.05L636.23 56.68L637.09 53.82L638.4 54.37L639.65 54.47L640.87 54.34L642.01 53.73L643.49 55L644.49 53.64L646.02 55.01L646.94 53.33L648.19 53.29L649.14 51.93L650.12 50.78L651.51 51.18L652.98 51.86L653.95 50.56L655.72 52.54L656.9 52.14L657.73 50.04L658.77 48.62L660.24 49.69L661.43 48.83L662.83 50.94L664.02 48.57L665.36 48.24L666.65 48.78L667.76 49.98L669.24 49.23L669.7 52.17L671.71 50.07L672.66 51.19L673.8 51.76L674.51 53.27L676.22 52.55L676.3 55.35L678.74 53.12L678.62 56.38L679.99 56.42L680.76 57.91L683.1 55.42L684.32 55.61L685.14 57.03L685.95 58.62L687.58 57.45L688.89 57.26L690.05 57.62L690.87 59.7L692.07 60.12L693.49 59.21L694.78 58.92L695.74 61L697.17 59.54L698.25 61.15L699.6 59.98L700.74 61.45L701.98 61.73L703.35 59.24L704.51 61.09L705.77 60.31L706.99 61.5L708.25 59.8L709.48 61.91L710.72 59.48L711.96 60.16L713.21 60.33L714.47 61.68L715.75 62.98L716.95 61.03L718.19 60.77L719.49 62.72L720.66 60.27L721.94 61.66L723.15 60.77L724.42 61.75L725.64 61.04L726.85 60L728.11 60.5L729.34 60.24L730.55 59.19L731.82 59.91L733.13 62.4L734.29 59.51L735.57 61.1L736.77 59.48L738.06 61.28L739.28 60.66L740.5 59.88L741.74 59.97L743.02 61.27L744.26 61.08L745.48 60.48L746.71 60.19L747.9 58.35L749.2 60.28L750.43 59.84L751.64 58.99L752.93 60.84L754.13 59.25L755.42 60.82L756.66 60.81L757.88 60.19L759.08 58.59L760.3 57.9L761.55 58.19L762.79 58.2L764.03 58.41L765.27 58.24L766.59 61.17L767.78 59.43L768.98 57.62L770.31 61.13L771.54 61.15L772.73 59.7L773.95 59.55L775.18 59.41L776.4 59.28L777.65 59.47L778.83 58.74L779.91 57.22L781.22 58.12L782.47 58.25L783.58 57.44L785.07 58.91L785.9 56.72L787.58 58.66L788.35 56.59L789.82 57.29L790.9 56.58L791.72 55.22L792.75 54.56L794.1 54.5L795.67 54.79L796.79 54.13L798.36 54.35L799.4 53.58L799.72 51.34L800.52 49.95L802.75 51.92L803.03 49.02L804.25 48.41L805.64 48.4L806.87 47.91L808.19 48.53L809.44 48.16L810.81 47.19L811.77 49.42L812.95 49.62L814.5 48.77L814.72 51.66L816.25 51.09L817.89 50.68L818.21 52.54L819.85 52.4L820.83 53.27L819.82 56.02L821.98 55.72L822.99 56.58L821.96 58.65L824.12 57.61L824.5 58.16L825.64 57.63L826.53 56.33L827.66 55.62L829.28 56.95L830.47 56.68L831.99 58.05L832.57 54.74L834.15 56.5L835.57 57.36L836.77 57.09L837.6 55.09L838.85 55.03L839.94 54.39L840.99 53.8L841.85 52.28L843.02 51.67L844.38 52.35L845.62 52.64L846.72 54.23L847.81 54.85L848.91 55.42L849.95 56.21L851.23 56.53L853.18 55.32L853.64 57.55L854.9 57.83L856.26 57.73L857.37 58.4L858.94 57.29L860 58.11L860.96 59.6L862.61 57.41L863.45 59.93L864.71 59.92L865.85 60.93L867.3 58.84L868.35 61.3L869.67 60.06H870.91L872.17 59.01L873.39 59.05L874.61 59.75L875.84 61.36L877.07 59.86L878.32 61.05L879.55 60.86L880.76 59.65L881.95 58.44L883.25 60.55L884.52 61.64L885.66 58.84L886.94 60.24L888.16 59.82L889.43 61.09L890.61 59.04L891.88 60.73L893.1 60.55L894.32 59.94L895.55 60.81L896.76 61.06L897.97 61.23L899.25 59.69L900 58.84V0Z" fill="#B9CED1"/>
</g>
<defs>
<clipPath id="clip0_1865_489334">
<rect width="390" height="844" fill="white"/>
</clipPath>
</defs>
</svg>
