<svg width="390" height="844" viewBox="0 0 390 844" fill="none" xmlns="http://www.w3.org/2000/svg">
<g clip-path="url(#clip0_1865_489321)">
<path d="M-503.48 22.74C-502.98 22.73 -502.41 23.56 -501.91 23.54C-501.41 23.53 -501.03 21.91 -500.53 21.9C-498.67 23.89 -499.28 24.48 -497.5 22.09C-493.59 24.46 -494.18 22.34 -490 21.55C-485.35 19.84 -487.37 22.45 -485.32 23.54C-483.99 21.64 -481.33 21.25 -479.33 23.03C-476.92 18 -473.61 26.19 -471.94 20.97C-469.69 21.18 -468.55 21.05 -467.32 22.16C-466.32 21.78 -465.6 21.14 -464.4 20.91C-460.41 20.62 -456.09 22.11 -452.23 22.26C-451.16 21.85 -450.51 21.1 -449.32 20.77C-448.38 21.18 -447.69 21.87 -446.24 21.55C-444.17 22.46 -442.78 22.94 -441.73 21.38C-440.37 22.26 -439.74 21.93 -438.73 21.1C-437.77 21.41 -436.89 21.75 -435.68 21.56C-433.25 21.12 -431.11 18.92 -428.25 20C-425.85 22.55 -426.18 18.81 -422.11 21.5C-420.33 22.32 -418.89 21.33 -417.64 20.66C-416.65 21.12 -416.15 22.06 -414.54 21.92C-411.55 21.15 -411.29 17.73 -408.59 20.73C-406.46 21.24 -406.71 20.05 -405.65 19.54C-404.6 20.01 -404.48 21.39 -402.55 20.79C-398.17 18.69 -400.01 20.86 -396.47 21.58C-395.36 21.11 -396.16 18.58 -393.59 19.43C-393.09 19.42 -392.51 20.55 -392.01 20.54C-391.51 20.54 -391.07 19.48 -390.57 19.47C-388.2 21.38 -388.3 20.66 -386.05 19.26C-385.55 19.26 -384.95 20.8 -384.45 20.79C-383.95 20.79 -383.53 19.37 -383.03 19.36C-381.68 20.68 -379.96 19.91 -378.52 19.02C-377.31 19.79 -376.61 19.81 -375.5 18.99C-372.45 20.17 -370.86 22.21 -366.37 20.48C-365.24 19.73 -365.45 17.89 -363.41 19.36C-361.18 18.43 -361.53 19.94 -360.33 20.48C-359.05 19.3 -356.86 19.5 -355.8 20.66C-353.16 18.61 -351.17 17.08 -349.79 20.27C-349.29 20.27 -348.87 18.5 -348.37 18.5C-347.32 19.12 -346.48 19.34 -345.35 18.64C-340.79 22.08 -342.74 16.76 -339.31 18.89C-336.29 17.86 -337.23 23.41 -331.79 18.4C-328.7 19.78 -328.61 20.3 -327.28 18.01C-325.94 19.41 -326.21 21.96 -324.24 18.65C-320.01 17.76 -320.96 18.84 -319.66 20.34C-319.16 20.34 -318.71 18.81 -318.2 18.81C-317.7 18.81 -317.17 19.63 -316.66 19.62C-316.16 19.62 -315.71 17.92 -315.21 17.91C-312.2 17.18 -313.57 19.38 -312.13 19.9C-311.72 17.95 -310.19 16.91 -307.64 19.11C-307.14 19.11 -306.66 18.31 -306.15 18.31C-305.65 18.31 -305.1 19.88 -304.6 19.88C-304.1 19.88 -303.65 17.77 -303.15 17.77C-301.82 18.74 -299.61 17.97 -298.59 19.28C-296.4 16.48 -296.98 18.93 -295.55 20.19C-295.05 20.19 -294.6 17.72 -294.1 17.72C-293.6 17.72 -293.07 18.82 -292.57 18.82C-292.07 18.82 -291.59 17.74 -291.09 17.73C-288.05 23.32 -288.47 17.97 -283.52 19.09C-280.98 19.9 -281.84 18.43 -280.52 17.89C-280.02 17.89 -279.48 20.02 -278.98 20.02C-278.14 18.28 -277.46 17.69 -275.97 19.77C-275.47 19.77 -274.98 18.64 -274.47 18.64C-273.97 18.64 -273.45 19.57 -272.95 19.57C-270.14 19.98 -269.15 19.53 -266.93 18.7C-266.43 18.7 -265.93 17.54 -265.43 17.54C-264.93 17.54 -264.41 19.95 -263.91 19.95C-261.99 17.78 -260.93 16.84 -259.39 19.62C-254.47 16.22 -257.2 19.97 -251.86 19.89C-251.36 19.89 -250.85 17.44 -250.35 17.44C-249.85 17.44 -249.35 19.53 -248.85 19.53C-247.33 16.14 -245.22 18.4 -242.83 20.04C-241.77 18.79 -240.41 18.13 -238.28 17.5C-237.08 18.52 -236.62 20.69 -233.78 19.27C-231.1 19.53 -228.72 18.97 -227.72 17.5C-226.47 18.29 -225.88 18.22 -224.7 17.47C-223.55 17.92 -222.92 18.77 -221.72 19.15C-219.91 16.97 -220.22 17.75 -218.71 19.35C-213.37 17.1 -216.47 19.37 -211.2 20.23C-209.5 14.85 -206.75 20.58 -202.09 18.13C-200.54 19.38 -201.35 20.49 -199.09 18.63C-195.38 16.67 -197.83 22.23 -194.53 17.89C-192.47 21.87 -194.23 19.58 -190.04 18.72C-188.63 19.72 -188.36 19.61 -187.02 18.69C-184.41 17.66 -183.49 19.51 -181.03 19.52C-177.99 15.2 -176.51 22.27 -173.4 18.04C-170.96 22.85 -169.22 16.8 -165.99 20.21C-165.49 20.22 -164.89 18.74 -164.39 18.75C-163.36 19.03 -162.43 19.62 -161.45 19.93C-159.91 20.47 -158.09 20.51 -156.91 19.73C-155.05 21.99 -152.19 21.31 -150.84 19.34C-148.71 21.15 -150.22 20.81 -147.83 19.46C-143.73 20.86 -146.65 21.12 -141.85 20.09C-139.04 22.51 -140.65 19.61 -137.27 19.51C-135.18 20.07 -133.85 20.97 -131.39 21.21C-130.14 20.56 -130.01 19.35 -128.3 20.5C-124.66 19.97 -126.58 22.96 -123.73 20.07C-122.78 20.58 -122.79 21.82 -120.86 21.51C-119.4 22.19 -118.86 21.6 -117.8 21.08C-115.27 21.32 -112.99 21.12 -111.63 19.94C-110.64 21.04 -108.89 21.09 -107.15 20.37C-106.46 22.65 -100.34 21.88 -98.11 20.55C-97.61 20.57 -97.31 22.19 -96.81 22.21C-96.31 22.23 -95.7 21.37 -95.2 21.39C-93.66 22.69 -93.05 21.75 -90.74 21.96C-87.25 18.78 -85.61 26.67 -78.62 21.66C-78.12 21.68 -77.91 23.79 -77.41 23.81C-76.91 23.83 -76.21 22.47 -75.71 22.49C-68.73 26.11 -73.6 22.09 -66.88 24.1C-66.38 24.12 -65.53 21.74 -65.03 21.76C-63.4 22.58 -65.32 25.22 -62.18 22.95C-60.84 24.9 -59.46 22.92 -57.89 24.59C-52.75 24.32 -55.11 21.71 -50.05 22.68C-49.02 25.98 -48.37 24.47 -44.06 23.07C-37.39 24.6 -43.18 25.45 -36.79 24.97C-34.33 25.78 -35.08 24.46 -33.61 23.96C-31.01 25.83 -32.78 24.43 -30.54 23.68C-29.19 26.47 -26.58 24.28 -23.22 25.24C-19.38 25.22 -18.44 23.88 -17.34 26.34C-15.42 23.53 -15.55 23.96 -14.33 26.42C-13.83 26.44 -13.06 24.69 -12.56 24.72C-11.07 26.32 -7.66998 25.93 -5.34 27.01C-3.48001 26.4 -4.61002 24.03 -2.13 25.77C1.29999 25.25 0.970001 25.83 2.19 27.22C6.78998 27.14 5.44 25.97 9.66998 27.75C12.02 26.04 12.35 26.41 14.17 28.01C15.52 26.69 16.83 27.09 18.91 26.47C21.18 25.12 21.22 26.57 23.35 27.15C24.48 26.69 25.19 26.46 26.39 27.02C29.03 25.15 29.36 27.06 30.77 28.23C32.71 25.62 32.41 25.92 33.78 28.29C35.61 27.52 35.42 27.79 36.77 28.58C38.82 27.08 38.82 25.21 41.4 27.71C44.78 26.34 44.57 27.92 45.76 29.16C47.95 27.6 48.52 28.14 50.26 29.49C51.51 27.57 52.96 25.96 54.85 28.88C56.89 26.85 58.72 30.08 62.33 29.57C64.2 26.84 63.88 26.87 65.35 29.59C67.5699 27.98 67.22 29.4 69.87 29.76C71.94 30.18 71.8199 29.18 72.97 28.68C75.49 30.6 79.7599 30.13 82.04 28.26C85.7 28.77 85 27.7 86.44 30.12C88.23 27.93 87.81 27.84 89.46 30.08C92.11 28.09 90.43 28.63 92.47 30.31C94.2599 29.59 96.98 27.82 98.55 29.23C101.33 27.4 99.86 29.16 101.53 30.06C104.35 31.72 103.11 29.19 104.59 28.59C106.72 29.37 110.76 27.99 112.08 30.29C115.62 29.39 114.26 26.55 116.61 30.07C119.38 27.23 117.71 29.31 119.63 30.75C123.06 24.27 122.91 33.77 127.15 28.71C129.11 29.59 128.43 29.55 130.16 28.64C131.49 31.24 138 31.46 139.19 28.96C140.63 29.34 141.14 28.99 142.18 28.54C144.39 29.61 142.59 31.87 145.23 29.31C147.77 27.61 149 28.49 151.28 29.74C153.34 28.09 152.11 27.99 154.29 29.62C157.61 28.43 158.47 26.75 160.32 29.58C162.73 27.58 162.28 31.04 164.84 29.44C167.46 30.83 168.12 28.79 169.19 27.8C171.38 30.48 172.47 30.18 173.67 27.52C182.99 31.51 179.14 24.78 182.92 28.96C185 26.2 183.99 27.9 185.99 29.37C187.22 27.39 187.97 25.59 190.4 28.43C192.46 25.43 193.44 30.54 196.25 26.49C198.74 26.76 200.43 28.07 202.48 28.77C203.69 28.2 202.88 26.47 205.38 27.04C208.76 31.72 206.86 23.35 211.44 27.24C215.13 26.29 214.29 26.07 216 28.09C217.66 27.34 216.18 24.82 218.98 26.81C219.48 26.81 220.02 28.47 220.53 28.46C221.87 27.92 220.75 25.4 223.52 26.55C224.97 28.24 226.16 28.24 228.06 26.69C230.2 28.74 232.92 28.85 234.1 26.46C236.34 28.58 238.76 29.1 240.15 26.41C241.97 27.77 241.56 27.43 243.18 26.27C244.75 27.69 245.78 26.76 247.72 26.09C254.77 30.08 250.42 26.82 259.8 26.54C262.32 26.16 262.09 28.43 264.31 26.97C266.04 28.98 265.44 29 267.33 27.02C268.4 28.82 269.71 29.81 271.83 27.64C274.27 30.2 273.43 27.28 274.92 26.48C275.42 26.48 275.83 28.17 276.33 28.18C277.59 27.52 277.4 26.3 279.4 27.39C283.68 24.63 281.97 29.16 285.36 28.79C289.96 25.07 289.68 32.12 293.02 27.03C294.57 30.43 294.86 28.82 297.56 26.84C299.08 27.05 299.69 28.19 300.47 28.77C302.81 25.85 302.03 28.04 303.45 29.52C304.54 27.38 306.15 25.83 308.02 28.87C309.94 27.51 309.79 28.5 311.02 29.42C314.12 23.85 311.65 31.71 317.09 28.91C319.18 30.17 319 28.59 320.15 27.93C320.65 27.93 321.1 29.64 321.6 29.64C324.13 29.01 324.27 26.75 326.15 29.09C328.32 27.98 329.56 27.96 330.68 29.51C332.02 28.42 331.5 25.9 333.72 28.58C334.93 28.03 335.6 28.13 336.74 28.66C340.04 30.21 338.3 25.4 341.27 28.35C345.16 28.91 344.81 25.03 347.34 29.84C348.65 27.86 350.45 26.78 351.87 29.4C355.89 27.75 357.19 25.9 359.45 29.61C360.38 27.88 361.14 27.66 363.94 28.73C364.86 27.97 364.82 26.45 366.89 27.74C369.15 25.79 368.81 28.53 370.03 29.13C371.82 26.94 374.82 26.95 376.1 29.29C382.49 24.29 377.63 31.85 383.33 26.6C386.15 29.66 384.58 25.82 387.91 27.15C389.24 26.18 389.85 26.8 390.96 27.47C392.21 25.98 393.59 27.51 395.37 26.59C397.29 28.64 399.07 26.64 401.31 25.94C402.31 26.46 403.21 26.68 404.33 26.03C408.72 29.66 404.35 23.11 415.02 27.18C415.72 26.38 416.13 25.27 417.93 26.36C419.72 24.03 421.61 26.75 424.05 27.12C428.16 27.79 430.34 24.11 433.03 26.75C433.89 24.59 434.31 24 436 26.46C437.79 25.29 439.55 25.25 441.96 25.93C444.1 24.3 445.31 24.22 446.49 26.24C447.14 25.42 447.17 22.72 449.39 24.94C450.84 23.48 451.4 24.66 452.44 25.5C456.21 25.76 458.72 27.84 459.87 24.1C461.08 26.51 464.42 25.52 467.44 25.16C469.27 26.42 469.54 24.84 470.42 24.15C472.53 26.06 474.46 24.99 476.44 23.7C477.27 24.43 478.42 24.53 479.46 23.77C481.08 29.19 483.81 22.97 486.95 25.81C487.59 24.75 488.41 22.39 490 24.96C492.94 26.02 493.15 26.6 494.57 24.29C498.51 23.48 496.99 28.23 502.03 25.54C505.32 21.92 505.05 26.44 508.05 25.74C510 24.98 511.52 23.79 512.58 25.74C515.45 25.87 517.67 26.34 518.78 24.57C519.06 26.61 524.07 27.42 526.17 25.92C527.87 26.99 530.11 25.86 532.06 27.01C532.56 27.03 533.36 25.11 533.86 25.13C535.4 27.78 536.37 26.96 539.78 26.04C540.59 27.34 543.75 28.93 545.61 27.46C546.75 26.13 547.92 26.64 548.57 27.84C549.37 26.76 550.85 26.6 551.59 27.91C553.62 24.96 553.75 27.51 554.45 28.91C556.44 26.87 556.93 29.3 559.2 27.73C560.35 29.77 563.67 28.88 565.29 27.54C566.28 28.96 565.85 30.54 568.21 28.21C569.04 29.52 571.52 29.01 572.77 28.13C574.09 29.77 576.85 28.79 578.83 28.13C581.24 33.7 582.78 25.79 584.5 30.54C585.2 29.12 588.36 28.38 589.08 30.33C592.26 25.96 591.98 31.71 598.42 28.51C600.39 28.87 601.31 30.12 602.92 28.71C604.78 29.19 606.42 29.79 607.19 30.87C608.73 28.93 608.92 28.58 610.21 30.93C612.23 30.8 613.13 31.87 614.76 30.86C615.21 30.24 616.62 29.16 617.85 30.16C620.66 29.72 621.48 31.45 623.79 31.35C624.51 30.04 627.01 30.38 628.33 31.29C629.37 30.51 631.49 29.22 632.89 30.56C633.5 29.76 635.07 29.6 635.9 30.46C637.29 29.42 638.29 30.78 638.88 31.42C639.92 29.12 641.24 30.72 641.88 32.01C642.15 31.27 643.54 29.58 644.91 31.03C649.51 25.88 648.21 36.64 652.42 29.75C652.54 32.53 657.95 32.98 658.43 29.93C659.28 30.61 660.61 30.54 661.43 29.84C662.77 29.97 663.68 30.84 664.5 31.32C665.5 29.79 666.94 31.18 667.55 31.99C670.6 29.47 675.61 31.06 679.63 31.9C681.41 30.15 684.22 27.92 687.08 30.75C688.92 27.67 688.59 30.08 690.17 31.39C691.79 26.87 694.36 30.7 697.72 31.35C696.97 29 701.01 27.3 702.15 30.5C702.65 30.48 702.9 28.48 703.4 28.46C705.33 29.07 706.28 27.87 707.97 28.83C710.64 28.44 710.11 30.85 712.76 30.65C712.63 29.77 713.87 27.1 715.57 29.23C717.62 28.03 720.79 27.63 721.69 29.69C723.25 29.43 723.69 28.12 724.35 27.48C724.85 27.45 725.64 29.21 726.14 29.18C731.89 31.94 729.99 22.65 735.23 29.21C737.41 28.85 736.97 26.97 739.33 26.77C739.85 27.3 741.1 29.01 742.74 28.86C744.02 26.47 743.84 27.08 745.78 28.88C746.43 26.34 747.45 26.22 750.22 28.3C751.01 25.38 754.76 25.17 756.25 28.12C756.97 24.36 759.12 27.01 761.99 26.5C763.06 26.07 764.22 26.47 765.09 26.84C765.55 26.11 766.68 25.39 767.98 26.17C770.53 26.33 771.52 24.21 773.82 25.1C776.26 25.1 776.75 23.81 778.44 25.45C778.93 22.82 782.19 25.13 783.17 26.32C784.66 22.79 784.27 26.01 787.54 25.45C788.23 22.83 792.41 25.77 794.73 23.63C795.23 23.6 795.99 24.79 796.49 24.76C797.17 23.87 798.73 24.25 799.55 24.88C801.71 25.35 801.52 23.12 802.08 22.54C804.44 22.01 804.62 23.95 806.91 23.87C807.41 23.84 807.67 22.7 808.17 22.67C808.67 22.64 809.44 23.89 809.94 23.86C810.54 23.33 810.56 21.52 812.61 22.12C813.59 24.79 816.63 24.44 818.68 22.15C819.63 23.46 822.84 23.12 823.13 21.69C824.85 23.82 825.27 22.88 826.04 21.06C830.37 22.36 834.18 18.73 836.84 21.99C838.24 21.97 839.05 20.82 839.53 20.24C840.03 20.21 840.9 22.07 841.4 22.04C842.96 19.41 842.31 20.37 844.42 21.99C845.48 19.4 851.12 18.85 854.66 20.07C856.2 18.18 857.93 20.83 859.45 21.49C860.22 19.01 862.83 19.28 865.4 20.96C866.15 20.45 867.1 20.03 868.34 20.45C868.72 19.92 870.08 18.98 871.09 18.71C871.59 18.69 872.33 20.19 872.83 20.16C873.55 18.53 876.68 19.57 877.43 20.66C877.79 17.94 883.69 17.32 886.31 19.49C886.8 18.4 888.6 18.66 889.33 19.54C890.61 19.12 891.2 18.05 892.09 17.47C894.16 20.81 895.24 16.47 898.34 19.32C898.76 18.97 899.31 18.68 899.92 18.63V0H-509.94L-510 23.84C-509.79 23.99 -509.58 24.14 -509.4 24.25C-507.95 23.35 -504.69 24.04 -503.48 22.73V22.74Z" fill="#B9CED1"/>
</g>
<defs>
<clipPath id="clip0_1865_489321">
<rect width="390" height="844" fill="white"/>
</clipPath>
</defs>
</svg>
