<svg width="390" height="844" viewBox="0 0 390 844" fill="none" xmlns="http://www.w3.org/2000/svg">
<g clip-path="url(#clip0_1865_489777)">
<path d="M893.48 821.26C892.98 821.27 892.41 820.44 891.91 820.46C891.41 820.47 891.03 822.09 890.53 822.1C888.67 820.11 889.28 819.52 887.5 821.91C883.59 819.54 884.18 821.66 880 822.45C875.35 824.16 877.37 821.55 875.32 820.46C873.99 822.36 871.33 822.75 869.33 820.97C866.92 826 863.61 817.81 861.94 823.03C859.69 822.82 858.55 822.95 857.32 821.84C856.32 822.22 855.6 822.86 854.4 823.09C850.41 823.38 846.09 821.89 842.23 821.74C841.16 822.15 840.51 822.9 839.32 823.23C838.38 822.82 837.69 822.13 836.24 822.45C834.17 821.54 832.78 821.06 831.73 822.62C830.37 821.74 829.74 822.07 828.73 822.9C827.77 822.59 826.89 822.25 825.68 822.44C823.25 822.88 821.11 825.08 818.25 824C815.85 821.45 816.18 825.19 812.11 822.5C810.33 821.68 808.89 822.67 807.64 823.34C806.65 822.88 806.15 821.94 804.54 822.08C801.55 822.85 801.29 826.27 798.59 823.27C796.46 822.76 796.71 823.95 795.65 824.46C794.6 823.99 794.48 822.61 792.55 823.21C788.17 825.31 790.01 823.14 786.47 822.42C785.36 822.89 786.16 825.42 783.59 824.57C783.09 824.58 782.51 823.45 782.01 823.46C781.51 823.46 781.07 824.52 780.57 824.53C778.2 822.62 778.3 823.34 776.05 824.74C775.55 824.74 774.95 823.2 774.45 823.21C773.95 823.21 773.53 824.63 773.03 824.64C771.68 823.32 769.96 824.09 768.52 824.98C767.31 824.21 766.61 824.19 765.5 825.01C762.45 823.83 760.86 821.79 756.37 823.52C755.24 824.27 755.45 826.11 753.41 824.64C751.18 825.57 751.53 824.06 750.33 823.52C749.05 824.7 746.86 824.5 745.8 823.34C743.16 825.39 741.17 826.92 739.79 823.73C739.29 823.73 738.87 825.5 738.37 825.5C737.32 824.88 736.48 824.66 735.35 825.36C730.79 821.92 732.74 827.24 729.31 825.11C726.29 826.14 727.23 820.59 721.79 825.6C718.7 824.22 718.61 823.7 717.28 825.99C715.94 824.59 716.21 822.04 714.24 825.35C710.01 826.24 710.96 825.16 709.66 823.66C709.16 823.66 708.71 825.19 708.2 825.19C707.7 825.19 707.17 824.37 706.66 824.38C706.16 824.38 705.71 826.08 705.21 826.09C702.2 826.82 703.57 824.62 702.13 824.1C701.72 826.05 700.19 827.09 697.64 824.89C697.14 824.89 696.66 825.69 696.15 825.69C695.65 825.69 695.1 824.12 694.6 824.12C694.1 824.12 693.65 826.23 693.15 826.23C691.82 825.26 689.61 826.03 688.59 824.72C686.4 827.52 686.98 825.07 685.55 823.81C685.05 823.81 684.6 826.28 684.1 826.28C683.6 826.28 683.07 825.18 682.57 825.18C682.07 825.18 681.59 826.26 681.09 826.27C678.05 820.68 678.47 826.03 673.52 824.91C670.98 824.1 671.84 825.57 670.52 826.11C670.02 826.11 669.48 823.98 668.98 823.98C668.14 825.72 667.46 826.31 665.97 824.23C665.47 824.23 664.98 825.36 664.47 825.36C663.97 825.36 663.45 824.43 662.95 824.43C660.14 824.02 659.15 824.47 656.93 825.3C656.43 825.3 655.93 826.46 655.43 826.46C654.93 826.46 654.41 824.05 653.91 824.05C651.99 826.22 650.93 827.16 649.39 824.38C644.47 827.78 647.2 824.03 641.86 824.11C641.36 824.11 640.85 826.56 640.35 826.56C639.85 826.56 639.35 824.47 638.85 824.47C637.33 827.86 635.22 825.6 632.83 823.96C631.77 825.21 630.41 825.87 628.28 826.5C627.08 825.48 626.62 823.31 623.78 824.73C621.1 824.47 618.72 825.03 617.72 826.5C616.47 825.71 615.88 825.78 614.7 826.53C613.55 826.08 612.92 825.23 611.72 824.85C609.91 827.03 610.22 826.25 608.71 824.65C603.37 826.9 606.47 824.63 601.2 823.77C599.5 829.15 596.75 823.42 592.09 825.87C590.54 824.62 591.35 823.51 589.09 825.37C585.38 827.33 587.83 821.77 584.53 826.11C582.47 822.13 584.23 824.42 580.04 825.28C578.63 824.28 578.36 824.39 577.02 825.31C574.41 826.34 573.49 824.49 571.03 824.48C567.99 828.8 566.51 821.73 563.4 825.96C560.96 821.15 559.22 827.2 555.99 823.79C555.49 823.78 554.89 825.26 554.39 825.25C553.36 824.97 552.43 824.38 551.45 824.07C549.91 823.53 548.09 823.49 546.91 824.27C545.05 822.01 542.19 822.69 540.84 824.66C538.71 822.85 540.22 823.19 537.83 824.54C533.73 823.14 536.65 822.88 531.85 823.91C529.04 821.49 530.65 824.39 527.27 824.49C525.18 823.93 523.85 823.03 521.39 822.79C520.14 823.44 520.01 824.65 518.3 823.5C514.66 824.03 516.58 821.04 513.73 823.93C512.78 823.42 512.79 822.18 510.86 822.49C509.4 821.81 508.86 822.4 507.8 822.92C505.27 822.68 502.99 822.88 501.63 824.06C500.64 822.96 498.89 822.91 497.15 823.63C496.46 821.35 490.34 822.12 488.11 823.45C487.61 823.43 487.31 821.81 486.81 821.79C486.31 821.77 485.7 822.63 485.2 822.61C483.66 821.31 483.05 822.25 480.74 822.04C477.25 825.22 475.61 817.33 468.62 822.34C468.12 822.32 467.91 820.21 467.41 820.19C466.91 820.17 466.21 821.53 465.71 821.51C458.73 817.89 463.6 821.91 456.88 819.9C456.38 819.88 455.53 822.26 455.03 822.24C453.4 821.42 455.32 818.78 452.18 821.05C450.84 819.1 449.46 821.08 447.89 819.41C442.75 819.68 445.11 822.29 440.05 821.32C439.02 818.02 438.37 819.53 434.06 820.93C427.39 819.4 433.18 818.55 426.79 819.03C424.33 818.22 425.08 819.54 423.61 820.04C421.01 818.17 422.78 819.57 420.54 820.32C419.19 817.53 416.58 819.72 413.22 818.76C409.38 818.78 408.44 820.12 407.34 817.66C405.42 820.47 405.55 820.04 404.33 817.58C403.83 817.56 403.06 819.31 402.56 819.28C401.07 817.68 397.67 818.07 395.34 816.99C393.48 817.6 394.61 819.97 392.13 818.23C388.7 818.75 389.03 818.17 387.81 816.78C383.21 816.86 384.56 818.03 380.33 816.25C377.98 817.96 377.65 817.59 375.83 815.99C374.48 817.31 373.17 816.91 371.09 817.53C368.82 818.88 368.78 817.43 366.65 816.85C365.52 817.31 364.81 817.54 363.61 816.98C360.97 818.85 360.64 816.94 359.23 815.77C357.29 818.38 357.59 818.08 356.22 815.71C354.39 816.48 354.58 816.21 353.23 815.42C351.18 816.92 351.18 818.79 348.6 816.29C345.22 817.66 345.43 816.08 344.24 814.84C342.05 816.4 341.48 815.86 339.74 814.51C338.49 816.43 337.04 818.04 335.15 815.12C333.11 817.15 331.28 813.92 327.67 814.43C325.8 817.16 326.12 817.13 324.65 814.41C322.43 816.02 322.78 814.6 320.13 814.24C318.06 813.82 318.18 814.82 317.03 815.32C314.51 813.4 310.24 813.87 307.96 815.74C304.3 815.23 305 816.3 303.56 813.88C301.77 816.07 302.19 816.16 300.54 813.92C297.89 815.91 299.57 815.37 297.53 813.69C295.74 814.41 293.02 816.18 291.45 814.77C288.67 816.6 290.14 814.84 288.47 813.94C285.65 812.28 286.89 814.81 285.41 815.41C283.28 814.63 279.24 816.01 277.92 813.71C274.38 814.61 275.74 817.45 273.39 813.93C270.62 816.77 272.29 814.69 270.37 813.25C266.94 819.73 267.09 810.23 262.85 815.29C260.89 814.41 261.57 814.45 259.84 815.36C258.51 812.76 252 812.54 250.81 815.04C249.37 814.66 248.86 815.01 247.82 815.46C245.61 814.39 247.41 812.13 244.77 814.69C242.23 816.39 241 815.51 238.72 814.26C236.66 815.91 237.89 816.01 235.71 814.38C232.39 815.57 231.53 817.25 229.68 814.42C227.27 816.42 227.72 812.96 225.16 814.56C222.54 813.17 221.88 815.21 220.81 816.2C218.62 813.52 217.53 813.82 216.33 816.48C207.01 812.49 210.86 819.22 207.08 815.04C205 817.8 206.01 816.1 204.01 814.63C202.78 816.61 202.03 818.41 199.6 815.57C197.54 818.57 196.56 813.46 193.75 817.51C191.26 817.24 189.57 815.93 187.52 815.23C186.31 815.8 187.12 817.53 184.62 816.96C181.24 812.28 183.14 820.65 178.56 816.76C174.87 817.71 175.71 817.93 174 815.91C172.34 816.66 173.82 819.18 171.02 817.19C170.52 817.19 169.98 815.53 169.47 815.54C168.13 816.08 169.25 818.6 166.48 817.45C165.03 815.76 163.84 815.76 161.94 817.31C159.8 815.26 157.08 815.15 155.9 817.54C153.66 815.42 151.24 814.9 149.85 817.59C148.03 816.23 148.44 816.57 146.82 817.73C145.25 816.31 144.22 817.24 142.28 817.91C135.23 813.92 139.58 817.18 130.2 817.46C127.68 817.84 127.91 815.57 125.69 817.03C123.96 815.02 124.56 815 122.67 816.98C121.6 815.18 120.29 814.19 118.17 816.36C115.73 813.8 116.57 816.72 115.08 817.52C114.58 817.52 114.17 815.83 113.67 815.82C112.41 816.48 112.6 817.7 110.6 816.61C106.32 819.37 108.03 814.84 104.64 815.21C100.04 818.93 100.32 811.88 96.98 816.97C95.4301 813.57 95.1401 815.18 92.4401 817.16C90.92 816.95 90.3101 815.81 89.5301 815.23C87.1901 818.15 87.97 815.96 86.55 814.48C85.46 816.62 83.85 818.17 81.98 815.13C80.0601 816.49 80.21 815.5 78.98 814.58C75.8801 820.15 78.35 812.29 72.91 815.09C70.82 813.83 71.0001 815.41 69.85 816.07C69.35 816.07 68.9001 814.36 68.4001 814.36C65.8701 814.99 65.73 817.25 63.85 814.91C61.6801 816.02 60.4401 816.04 59.3201 814.49C57.98 815.58 58.5001 818.1 56.2801 815.42C55.0701 815.97 54.4001 815.87 53.2601 815.34C49.9601 813.79 51.7 818.6 48.73 815.65C44.84 815.09 45.1901 818.97 42.66 814.16C41.35 816.14 39.55 817.22 38.1301 814.6C34.11 816.25 32.8101 818.1 30.55 814.39C29.6201 816.12 28.86 816.34 26.0601 815.27C25.1401 816.03 25.1801 817.55 23.11 816.26C20.85 818.21 21.19 815.47 19.97 814.87C18.1801 817.06 15.1801 817.05 13.9001 814.71C7.51007 819.71 12.3701 812.15 6.67004 817.4C3.85004 814.34 5.4201 818.18 2.09009 816.85C0.760101 817.82 0.150085 817.2 -0.9599 816.53C-2.2099 818.02 -3.5899 816.49 -5.3699 817.41C-7.28992 815.36 -9.06992 817.36 -11.3099 818.06C-12.3099 817.54 -13.2099 817.32 -14.3299 817.97C-18.7199 814.34 -14.3499 820.89 -25.0199 816.82C-25.7199 817.62 -26.1299 818.73 -27.9299 817.64C-29.7199 819.97 -31.6099 817.25 -34.0499 816.88C-38.1599 816.21 -40.3399 819.89 -43.0299 817.25C-43.8899 819.41 -44.3099 820 -45.9999 817.54C-47.7899 818.71 -49.5499 818.75 -51.9599 818.07C-54.0999 819.7 -55.3099 819.78 -56.4899 817.76C-57.1399 818.58 -57.1699 821.28 -59.3899 819.06C-60.8399 820.52 -61.3999 819.34 -62.4399 818.5C-66.2099 818.24 -68.7199 816.16 -69.8699 819.9C-71.0799 817.49 -74.4199 818.48 -77.4399 818.84C-79.2699 817.58 -79.5399 819.16 -80.4199 819.85C-82.5299 817.94 -84.4599 819.01 -86.4399 820.3C-87.2699 819.57 -88.4199 819.47 -89.4599 820.23C-91.0799 814.81 -93.8099 821.03 -96.9499 818.19C-97.5899 819.25 -98.4099 821.61 -99.9999 819.04C-102.94 817.98 -103.15 817.4 -104.57 819.71C-108.51 820.52 -106.99 815.77 -112.03 818.46C-115.32 822.08 -115.05 817.56 -118.05 818.26C-120 819.02 -121.52 820.21 -122.58 818.26C-125.45 818.13 -127.67 817.66 -128.78 819.43C-129.06 817.39 -134.07 816.58 -136.17 818.08C-137.87 817.01 -140.11 818.14 -142.06 816.99C-142.56 816.97 -143.36 818.89 -143.86 818.87C-145.4 816.22 -146.37 817.04 -149.78 817.96C-150.59 816.66 -153.75 815.07 -155.61 816.54C-156.75 817.87 -157.92 817.36 -158.57 816.16C-159.37 817.24 -160.85 817.4 -161.59 816.09C-163.62 819.04 -163.75 816.49 -164.45 815.09C-166.44 817.13 -166.93 814.7 -169.2 816.27C-170.35 814.23 -173.67 815.12 -175.29 816.46C-176.28 815.04 -175.85 813.46 -178.21 815.79C-179.04 814.48 -181.52 814.99 -182.77 815.87C-184.09 814.23 -186.85 815.21 -188.83 815.87C-191.24 810.3 -192.78 818.21 -194.5 813.46C-195.2 814.88 -198.36 815.62 -199.08 813.67C-202.26 818.04 -201.98 812.29 -208.42 815.49C-210.39 815.13 -211.31 813.88 -212.92 815.29C-214.78 814.81 -216.42 814.21 -217.19 813.13C-218.73 815.07 -218.92 815.42 -220.21 813.07C-222.23 813.2 -223.13 812.13 -224.76 813.14C-225.21 813.76 -226.62 814.84 -227.85 813.84C-230.66 814.28 -231.48 812.55 -233.79 812.65C-234.51 813.96 -237.01 813.62 -238.33 812.71C-239.37 813.49 -241.49 814.78 -242.89 813.44C-243.5 814.24 -245.07 814.4 -245.9 813.54C-247.29 814.58 -248.29 813.22 -248.88 812.58C-249.92 814.88 -251.24 813.28 -251.88 811.99C-252.15 812.73 -253.54 814.42 -254.91 812.97C-259.51 818.12 -258.21 807.36 -262.42 814.25C-262.54 811.47 -267.95 811.02 -268.43 814.07C-269.28 813.39 -270.61 813.46 -271.43 814.16C-272.77 814.03 -273.68 813.16 -274.5 812.68C-275.5 814.21 -276.94 812.82 -277.55 812.01C-280.6 814.53 -285.61 812.94 -289.63 812.1C-291.41 813.85 -294.22 816.08 -297.08 813.25C-298.92 816.33 -298.59 813.92 -300.17 812.61C-301.79 817.13 -304.36 813.3 -307.72 812.65C-306.97 815 -311.01 816.7 -312.15 813.5C-312.65 813.52 -312.9 815.52 -313.4 815.54C-315.33 814.93 -316.28 816.13 -317.97 815.17C-320.64 815.56 -320.11 813.15 -322.76 813.35C-322.63 814.23 -323.87 816.9 -325.57 814.77C-327.62 815.97 -330.79 816.37 -331.69 814.31C-333.25 814.57 -333.69 815.88 -334.35 816.52C-334.85 816.55 -335.64 814.79 -336.14 814.82C-341.89 812.06 -339.99 821.35 -345.23 814.79C-347.41 815.15 -346.97 817.03 -349.33 817.23C-349.85 816.7 -351.1 814.99 -352.74 815.14C-354.02 817.53 -353.84 816.92 -355.78 815.12C-356.43 817.66 -357.45 817.78 -360.22 815.7C-361.01 818.62 -364.76 818.83 -366.25 815.88C-366.97 819.64 -369.12 816.99 -371.99 817.5C-373.06 817.93 -374.22 817.53 -375.09 817.16C-375.55 817.89 -376.68 818.61 -377.98 817.83C-380.53 817.67 -381.52 819.79 -383.82 818.9C-386.26 818.9 -386.75 820.19 -388.44 818.55C-388.93 821.18 -392.19 818.87 -393.17 817.68C-394.66 821.21 -394.27 817.99 -397.54 818.55C-398.23 821.17 -402.41 818.23 -404.73 820.37C-405.23 820.4 -405.99 819.21 -406.49 819.24C-407.17 820.13 -408.73 819.75 -409.55 819.12C-411.71 818.65 -411.52 820.88 -412.08 821.46C-414.44 821.99 -414.62 820.05 -416.91 820.13C-417.41 820.16 -417.67 821.3 -418.17 821.33C-418.67 821.36 -419.44 820.11 -419.94 820.14C-420.54 820.67 -420.56 822.48 -422.61 821.88C-423.59 819.21 -426.63 819.56 -428.68 821.85C-429.63 820.54 -432.84 820.88 -433.13 822.31C-434.85 820.18 -435.27 821.12 -436.04 822.94C-440.37 821.64 -444.18 825.27 -446.84 822.01C-448.24 822.03 -449.05 823.18 -449.53 823.76C-450.03 823.79 -450.9 821.93 -451.4 821.96C-452.96 824.59 -452.31 823.63 -454.42 822.01C-455.48 824.6 -461.12 825.15 -464.66 823.93C-466.2 825.82 -467.93 823.17 -469.45 822.51C-470.22 824.99 -472.83 824.72 -475.4 823.04C-476.15 823.55 -477.1 823.97 -478.34 823.55C-478.72 824.08 -480.08 825.02 -481.09 825.29C-481.59 825.31 -482.33 823.81 -482.83 823.84C-483.55 825.47 -486.68 824.43 -487.43 823.34C-487.79 826.06 -493.69 826.68 -496.31 824.51C-496.8 825.6 -498.6 825.34 -499.33 824.46C-500.61 824.88 -501.2 825.95 -502.09 826.53C-504.16 823.19 -505.24 827.53 -508.34 824.68C-508.76 825.03 -509.31 825.32 -509.92 825.37V843.97H899.94L900 820.13C899.79 819.98 899.58 819.83 899.4 819.72C897.95 820.62 894.69 819.93 893.48 821.24V821.26Z" fill="#B9CED1"/>
</g>
<defs>
<clipPath id="clip0_1865_489777">
<rect width="390" height="844" fill="white"/>
</clipPath>
</defs>
</svg>
