<svg width="390" height="844" viewBox="0 0 390 844" fill="none" xmlns="http://www.w3.org/2000/svg">
<g clip-path="url(#clip0_1865_489890)">
<path d="M-510 844H900V766.67L899.29 767.27L898.02 768.08L896.79 767.87L895.6 766.76L894.36 766.73L893.03 768.65L891.81 768.05L890.63 766.91L889.31 768.3L888.05 768.69L886.79 768.95L885.55 768.94L884.43 766.71L883.18 766.93L882.02 765.47L880.79 765.19L879.43 767.3L878.13 768.43L876.89 768.26L875.71 767.27L874.46 767.37L873.25 766.86L872.04 766.22L870.81 766L869.65 764.28L868.24 767.93L867.09 765.96L865.89 764.73L864.62 765.45L863.39 765.1L862.18 764.37L860.94 764.25L859.63 766.31L858.45 764.2L857.13 767.42L855.91 766.91L854.7 765.04L853.46 764.32L852.22 763.83L850.97 764.54L849.73 765.26L848.49 765.34L847.27 766.83L846.04 766.35L844.75 764.07L843.56 765.7L842.3 764.99L841.03 763.98L839.91 766.75L838.57 764.54L837.45 766.77L836.12 764.95L834.91 765.56L833.68 765.6L832.39 764.73L831.19 765.34L829.92 765L828.83 766.94L827.55 766.38L826.34 766.73L825.28 768.72L823.96 767.72L822.61 766.56L821.54 768.27L820.37 768.97L819.08 768.41L817.7 767L816.51 767.53L815.15 766.38L814.26 769.64L812.7 766.75L811.67 768.64L810.26 767.17L809.17 768.5L807.98 768.92L806.58 767.6L805.72 770.74L804.2 768.5L803.03 769.09L801.83 769.39L800.61 769.59L799.26 768.77L798.22 770.39L796.87 769.56L795.75 770.51L794.54 770.73L793.46 772.01L791.88 769.47L790.67 769.67L789.69 771.7L788.57 772.69L787.4 773.22L786.05 772.47L784.81 772.55L783.61 772.9L782.23 771.86L781.02 772.18L779.82 772.5L778.6 772.69L777.6 774.59L776.35 774.55L775.09 774.43L773.91 774.96L772.48 773.56L771.41 774.89L770.03 773.88L769.1 776.31L767.87 776.42L766.41 774.79L765.01 773.68L763.78 773.78L762.63 774.47L761.44 774.93L760.21 775.06L759.22 777.02L757.97 776.98L756.47 775.08L755.35 776.03L754.12 776.17L752.81 775.72L751.79 777.44L750.39 776.2L749.33 777.68L748.1 777.81L747.12 779.8L745.63 777.99L744.2 776.61L743.18 778.32L742.23 780.52L740.86 779.59L739.35 777.47L738.56 780.86L736.99 778.27L735.91 779.42L734.85 780.68L733.36 778.7L732.44 781.1L731.08 780.09L729.8 779.7L728.91 782.29L727.58 781.55L726.37 781.67L725.24 782.48L724.11 783.24L722.87 783.2L721.51 782.18L720.45 783.47L718.99 781.73L717.98 783.41L716.63 782.5L715.28 781.56L714.15 782.33L712.93 782.39L711.89 783.87L710.8 785.01L709.51 784.47L708.12 783.24L706.81 782.58L705.7 783.56L704.59 784.5L703.55 786.06L702.01 783.51L700.96 784.99L699.8 785.56L698.53 785.18L697.29 785.07L696 784.59L694.7 783.96L693.48 784.04L692.6 786.96L691.4 787.21L690.24 787.82L688.65 784.66L687.82 788.15L686.54 787.7L685.37 788.18L684.16 788.38L682.62 785.55L681.69 788.24L680.32 786.88L679.1 787.17L678.07 789.28L676.71 788.2L675.31 786.36L674.33 789.87L672.87 786.45L671.72 787.87L670.52 789.88L669.25 787.8L667.98 789.21L666.88 786.51L665.52 788.24L664.47 786.66L663.25 786.72L662.1 786.23L661.02 785.45L659.52 786.42L658.43 785.59L657.1 785.77L655.63 786.67L654.82 784.13L653.45 784.51L652.23 783.42L650.86 786.29L649.65 784.65L648.34 783.94L647.32 786L646.02 785.48L644.85 785.9L643.53 785.59L642.15 785.24L641.36 787L639.83 786.18L639.28 788.5L637.58 787.27L636.28 787.26L636.18 790.7L635.03 791.12L633.21 789.63L632.02 789.91L631.57 792.49L629.99 791.6L628.36 790.32L627.75 792.77L626.33 792.09L625.37 793.54L623.87 791.94L622.96 794.65L621.62 793.88L620.36 793.49L619.12 793.59L618.06 791.87L616.79 792.05L615.47 792.23L614.24 791.86L613.13 791.13L611.42 792.29L610.25 791.69L608.95 791.57L607.69 791.36L607.3 788.03L605.39 790.28L604.78 787.29L603.03 790.13L601.9 789.78L600.89 787.76L599.61 788.64L598.38 789.77L597.2 788.91L596.04 789.9L594.79 788.81L593.52 788.18L592.37 788.88L591.04 788.17L589.84 788.48L588.4 787.46L587.58 789.68L586.48 790.33L585.16 790.04L583.96 790.29L583.23 792.32L581.77 791.57L580.3 790.85L579.05 790.97L577.69 790.72L577.28 793.57L576.26 794.39L574.68 793.45L574.08 795.62L572.43 794.47L571.11 794.35L570.48 796.44L569.27 796.7L567.98 796.68L566.81 797.06L565.43 796.74L564.26 797.09L563.13 797.61L562.18 798.82L560.68 797.89L559.54 798.35L558.23 798.07L557.5 800.65L556.04 799.58L554.54 797.85L553.79 801.22L552.23 798.49L551.3 801.55L549.88 798.8L548.75 800.24L547.51 800.45L546.26 800.62L544.98 801.34L543.75 800.7L542.62 799.39L541.56 798L540.06 799.97L538.98 798.9L537.87 798.09L536.72 797.64L534.89 800.26L533.98 798.63L533.28 796.28L531.59 797.91L530.15 798.43L529.76 795.24L528.25 796L527.06 795.66L525.64 796.02L524.85 794.44L523.44 794.75L522.76 792.85L521.12 793.81L520.42 792.03L519.05 792.18L517.97 791.48L516.36 792.33L515.32 791.51L514.19 790.95L513.15 790.13L511.47 791.22L510.35 790.66L509.56 789.04L508.31 788.86L507 788.87L506.02 787.79L504.91 787.12L503.74 786.6L502.71 785.55L501.33 785.88L499.89 786.62L498.84 785.53L497.72 784.63L496.41 784.79L495.22 784.21L493.7 786.46L492.7 783.82L491.32 785.6L490.1 785.32L488.86 785.66L487.63 783.55L486.5 786.53L485.16 783.94L484.14 786.78L482.93 786.69L481.49 784.34L480.53 786.81L479.33 786.93L478.13 787.07L476.81 786.26L475.38 784.48L474.53 787.64L473.34 788.02L471.98 786.66L470.64 785.15L469.47 785.54L468.43 788.23L467.18 787.84L465.94 786.82L464.74 786.14L463.51 787.25L462.36 785.69L461.2 785.3L459.76 788.47L458.72 786.22L457.62 785.15L456.17 787.28L454.93 787.26L453.81 786.48L452.39 787.71L451.22 787.26L450.3 785.27L449.2 784.48L447.62 786.55L446.43 786.26L445.52 784.33L444.21 784.78L443.27 783.05L441.64 785.2L440.42 785.06L439.28 784.4L438.01 784.53L437.23 781.86L435.89 782.37L434.39 783.84L433.28 783.05L432.07 782.84L430.86 782.61L429.77 781.71L428.39 782.44L427.33 781.35L426.02 781.71L424.66 782.37L423.72 780.56L422.78 778.81L421.66 778.1L419.91 780.92L419.2 777.86L417.76 778.95L416.66 778.1L415.58 777.15L414.13 778.3L413.09 777.11L411.47 779.26L410.25 779.05L409.49 776.29L408.18 776.61L406.74 777.72L405.56 777.35L404.41 776.74L403.02 777.54L401.74 777.74L400.57 777.31L399.63 775.55L398.73 773.54L397.15 775.68L396.05 773.16L394.78 773.82L393.45 776.15L392.26 774.72L391.05 773.75L389.8 773.79L388.54 774.18L387.33 773.26L386.07 773.86L384.75 775.85L383.57 774.07L382.28 775.11L381.1 773.65L379.84 773.96L378.55 775.04L377.31 775.11L376.12 773.62L374.89 773.14L373.62 773.81L372.42 772.65L371.2 772.1L369.83 775.35L368.58 775.46L367.42 773.22L366.1 775.16L364.92 773.64L363.68 773.38L362.41 774.14L361.24 772.08L359.9 774.57L358.78 772.08L357.46 774.15L356.28 773.25L355.07 772.94L353.74 774.55L352.6 773.13L351.35 773.46L350.09 773.78L348.8 774.43L347.82 771.65L346.59 771.62L345.44 770.76L344.1 771.99L342.68 773.8L341.54 772.85L340.42 771.77L339.22 771.47L337.8 773.23L336.97 769.51L335.68 770.04L334.27 771.68L333.13 770.81L332.02 769.67L330.73 770.25L329.4 771.14L328.27 770.21L326.86 771.91L325.66 771.64L324.66 769.38L323.39 769.79L322.14 770.04L321.01 768.86L319.62 770.82L318.61 768.05L317.33 768.8L316.03 769.89L314.85 769.25L313.71 767.62L312.5 767.22L311.22 768.44L310.01 767.77L308.76 768.69L307.53 769.02L306.33 767.25L305.1 767.44L303.86 766.79L302.67 769.26L301.4 767.34L300.2 768.25L298.97 768.37L297.8 769.3L296.43 767.19L295.25 767.97L294 767.87L292.89 769.14L291.68 769.35L290.4 768.97L289.43 770.84L288.15 770.46L287.01 771L285.75 770.91L284.26 769.74L282.96 769.62L281.7 769.68L280.69 770.81L279.49 771.12L278.85 773.38L277.05 771.64L276.55 774.16L274.99 774.15L275.09 771.79L273.19 772.02L271.84 771.74L270.74 771.19L269.67 770.65L269.07 769.31L268.12 768.5L266.5 769.04L265.52 768.35L265.2 765.95L263.55 766.84L262.22 767.03L261.43 765.52L260.65 763.7L259.23 764.23L258.08 763.75L257.12 762.14L255.9 761.79L254.58 762.05L253.23 762.78L252.04 762.35L250.82 762.05L249.62 761.6L248.33 762.19L247.06 762.96L245.94 760.73L244.6 763.67L243.41 762.62L242.19 762.1L240.96 762.7L239.74 761.96L238.5 761.21L237.3 763.82L236.08 763.41L234.84 762.8L233.61 762.93L232.38 762.83L231.09 761L229.97 764.02L228.75 764.4L227.5 763.65L226.23 762.59L225.02 763.04L223.72 761.15L222.53 762.37L221.26 761.05L220.13 764.78L218.86 763.25L217.64 763.93L216.4 762.35L215.18 761.84L213.97 761.43L212.72 763.29L211.56 761.21L210.31 762.53L209.02 763.68L207.8 763.31L206.54 763.87L205.29 764.34L204.14 762.23L202.92 761.6L201.63 763.16L200.4 763.11L199.22 761.35L197.93 763.38L196.68 764.14L195.47 762.94L194.22 763.9L193.02 761L191.78 762.76L190.54 761.56L189.3 761.38L188.1 763.73L186.81 760.56L185.6 762.04L184.41 763.28L183.09 761.02L181.91 762.23L180.7 762.7L179.59 764.48L178.31 763.59L177.16 764.47L175.64 761.5L174.39 761.58L173.46 764.24L171.91 761.87L170.98 764.14L169.97 765.65L168.22 762.57L167.01 762.85L166.11 764.79L164.88 764.92L164.01 766.72L162.75 766.69L161.64 767.25L159.67 764.48L159.05 767.03L157.59 766.34L156.48 766.96L155.1 766.71L154.67 769.51L152.8 767.7L151.74 768.48L150.2 767.86L149.42 769.37L148.89 771.84L147.31 770.92L146.06 771.02L144.46 769.64L143.49 770.84L142.8 773.63L140.92 770.28L140.05 772.39L138.89 773.04L137.46 771.53L136.25 771.61L135.02 771.46L133.86 772.15L132.69 772.84L131.57 774.71L130.22 772.29L129.09 774.9L127.79 772.45L126.57 772.28L125.36 771.91L124.14 772.62L122.9 773.61L121.72 771.8L120.41 774.53L119.24 772.87L118.08 771.51L116.74 773.68L115.64 771.54L114.24 774.34L113.04 773.83L111.82 773.61L110.57 773.71L109.45 772.29L108.33 770.82L106.98 772.34L105.82 771.4L104.61 771.22L103.33 771.73L102.21 770.35L100.97 770.45L99.61 772.01L98.42 771.37L97.13 772.13L95.87 772.46L94.79 770.34L93.51 771.02L92.33 770.06L90.99 771.89L89.81 771.01L88.63 769.99L87.4 769.84L86.16 769.83L84.85 772.54L83.68 769.65L82.43 771.46L81.21 772.18L79.99 771.69L78.73 769.86L77.53 771.31L76.33 771.82L75.13 772.2L73.74 769.64L72.58 770.77L71.52 772.66L70.28 772.43L68.86 770.86L67.54 770.46L66.62 772.6L65.36 772.51L64.43 774.14L62.94 772.95L61.97 774.43L60.16 771.76L59.21 773.33L57.97 773.45L57.12 775.54L55.62 774.36L54.49 775.07L53.41 776.02L52.13 775.97L50.77 775.46L49.57 775.78L48.65 777.78L47.31 777.37L46.01 777.11L44.77 777.26L43.38 776.3L42.43 778.72L41 777.18L39.78 777.52L38.49 776.95L37.41 779.33L36.08 777.98L34.82 777.72L33.58 777.78L32.35 776.01L31.1 778.81L29.88 778.24H28.65L27.54 776.38L26.25 777.44L25.21 775.47L23.62 778.91L22.56 777.36L21.22 778.12L20.19 776.65L18.84 777.34L17.83 775.89L16.74 775.02L15.1 777.34L14.19 775.43L12.85 775.94L11.62 775.88L10.51 775.15L9.47998 774.02L8.42999 773.04L7.38 772.08L5.53003 775.11L4.56 773.69L3.39001 773.31L1.89999 774.58L1.32999 771.03L-0.179993 772.41L-1.51001 772.95L-2.42999 771.06L-3.47 769.83L-4.92999 771.2L-5.89999 769.39L-7.37 770.98L-8.35001 768.99L-9.89001 771.47L-11.07 771.09L-12.38 772.17L-13.33 768.82L-14.73 771.38L-15.89 770.01L-17.18 771.35L-18.39 770.39L-19.62 770.61L-20.88 769.2L-22.11 770.14L-23.34 770.51L-24.66 768.96L-25.81 770.64L-27.11 769.98L-28.21 771.57L-29.43 771.8L-30.74 771.13L-32.14 769.98L-33.01 772.88L-34.28 772.71L-35.68 771.69L-36.79 772.58L-38.11 772.24L-39.55 771.25L-40.36 773.73L-41.61 773.79L-42.75 774.4L-44.2 773.52L-45.16 774.96L-46.96 772.54L-47.55 775.66L-49.12 774.34L-50.1 775.65L-51.33 775.86L-52.35 776.96L-53.8 776.23L-55.48 774.63L-56.53 775.61L-57.71 776.03L-58.68 777.3L-60.14 776.63L-61.49 776.4L-62.23 779.88L-63.66 778.99L-64.85 778.75L-66.08 779.07L-67.29 779.15L-68.35 776.52L-69.57 776.28L-70.84 777.48L-72.04 776.07L-73.26 778.42L-74.51 776.4L-75.69 777.98L-76.93 777.4L-78.21 776.58L-79.48 776.08L-80.48 778.88L-81.78 778L-83.07 777.34L-84.35 776.99L-85.51 777.61L-86.59 778.84L-87.77 779.17L-89.29 777.24L-90.42 778.01L-91.59 778.45L-92.35 781.25L-93.86 779.69L-94.93 780.62L-95.98 781.62L-97.5 780.2L-98.91 779.35L-99.74 781.43L-101.01 781.32L-102.4 780.65L-103.09 783.29L-104.28 783.58L-105.72 782.68L-107.24 781.46L-108.5 781.4L-109.13 784.26L-110.24 784.91L-111.41 785.3L-113.03 783.63L-113.79 785.91L-114.99 786.16L-116.27 786.02L-117.96 783.89L-118.64 786.67L-120.01 786.05L-121.48 784.92L-122.19 787.71L-123.4 787.9L-124.56 788.43L-126.06 786.96L-127.46 785.96L-128.28 788.53L-129.84 786.41L-130.88 787.63L-131.8 790.06L-133.13 789.39L-134.61 787.4L-135.61 789.47L-136.96 788.39L-138.2 788.27L-139.26 790.33L-140.58 789.23L-141.92 787.79L-143.06 788.96L-144.18 790.86L-145.48 789.57L-146.78 788.11L-147.93 789.92L-149.15 790.06L-150.36 790.7L-151.58 791.42L-152.82 791.09L-154.07 789.74L-155.3 790.01L-156.53 789.68L-157.76 791.6L-158.98 790.25L-160.21 790.08L-161.42 788.68L-162.69 791.02L-163.88 789.31L-165.14 790.42L-166.33 789.02L-167.56 789.27L-168.82 790.06L-170.04 789.77L-171.25 789.44L-172.51 790.14L-173.77 790.7L-174.93 789.27L-176.18 789.67L-177.37 788.8L-178.67 790.15L-179.86 789.41L-181.16 790.61L-182.32 789.43L-183.57 789.62L-184.83 790.12L-185.91 787.59L-187.18 788.31L-188.33 786.97L-189.55 786.65L-190.89 788.45L-192.04 787.18L-193.37 788.78L-194.64 789.52L-195.81 788.37L-196.98 787.38L-198.26 788.23L-199.37 786.02L-200.78 789.41L-201.95 788.3L-203.08 786.31L-204.4 787.98L-205.68 789.25L-206.91 789.17L-207.99 785.61L-209.22 785.68L-210.46 785.81L-211.77 788.02L-212.92 785.4L-214.18 786.32L-215.4 785.99L-216.67 787.98L-217.87 786.19L-219.11 787.14L-220.34 786.42L-221.57 785.9L-222.79 787.39L-224.03 786.28L-225.27 785.84L-226.47 787.36L-227.73 786.13L-228.95 786.76L-230.22 785.56L-231.46 785.44L-232.61 787.33L-233.82 787.83L-234.97 789.08L-236.22 788.62L-237.49 787.95L-238.85 786.42L-240.03 787.11L-241.33 786.51L-242.55 786.78L-243.77 786.98L-244.9 787.95L-246.23 787.32L-247.09 790.18L-248.4 789.63L-249.65 789.53L-250.87 789.66L-252.01 790.27L-253.49 789L-254.49 790.36L-256.02 788.99L-256.94 790.67L-258.19 790.71L-259.14 792.07L-260.12 793.22L-261.51 792.82L-262.98 792.14L-263.95 793.44L-265.72 791.46L-266.9 791.86L-267.73 793.96L-268.77 795.38L-270.24 794.31L-271.43 795.17L-272.83 793.06L-274.02 795.43L-275.36 795.76L-276.65 795.22L-277.76 794.02L-279.24 794.77L-279.7 791.83L-281.71 793.93L-282.66 792.81L-283.8 792.24L-284.51 790.73L-286.22 791.45L-286.3 788.65L-288.74 790.88L-288.62 787.62L-289.99 787.58L-290.76 786.09L-293.1 788.58L-294.32 788.39L-295.14 786.97L-295.95 785.38L-297.58 786.55L-298.89 786.74L-300.05 786.38L-300.87 784.3L-302.07 783.88L-303.49 784.79L-304.78 785.08L-305.74 783L-307.17 784.46L-308.25 782.85L-309.6 784.02L-310.74 782.55L-311.98 782.27L-313.35 784.76L-314.51 782.91L-315.77 783.69L-316.99 782.5L-318.25 784.2L-319.48 782.09L-320.72 784.52L-321.96 783.84L-323.21 783.67L-324.47 782.32L-325.75 781.02L-326.95 782.97L-328.19 783.23L-329.49 781.28L-330.66 783.73L-331.94 782.34L-333.15 783.23L-334.42 782.25L-335.64 782.96L-336.85 784L-338.11 783.5L-339.34 783.76L-340.55 784.81L-341.82 784.09L-343.13 781.6L-344.29 784.49L-345.57 782.9L-346.77 784.52L-348.06 782.72L-349.28 783.34L-350.5 784.12L-351.74 784.03L-353.02 782.73L-354.26 782.92L-355.48 783.52L-356.71 783.81L-357.9 785.65L-359.2 783.72L-360.43 784.16L-361.64 785.01L-362.93 783.16L-364.13 784.75L-365.42 783.18L-366.66 783.19L-367.88 783.81L-369.08 785.41L-370.3 786.1L-371.55 785.81L-372.79 785.8L-374.03 785.59L-375.27 785.76L-376.59 782.83L-377.78 784.57L-378.98 786.38L-380.31 782.87L-381.54 782.85L-382.73 784.3L-383.95 784.45L-385.18 784.59L-386.4 784.72L-387.65 784.53L-388.83 785.26L-389.91 786.78L-391.22 785.88L-392.47 785.75L-393.58 786.56L-395.07 785.09L-395.9 787.28L-397.58 785.34L-398.35 787.41L-399.82 786.71L-400.9 787.42L-401.72 788.78L-402.75 789.44L-404.1 789.5L-405.67 789.21L-406.79 789.87L-408.36 789.65L-409.4 790.42L-409.72 792.66L-410.52 794.05L-412.75 792.08L-413.03 794.98L-414.25 795.59L-415.64 795.6L-416.87 796.09L-418.19 795.47L-419.44 795.84L-420.81 796.81L-421.77 794.58L-422.95 794.38L-424.5 795.23L-424.72 792.34L-426.25 792.91L-427.89 793.32L-428.21 791.46L-429.85 791.6L-430.83 790.73L-429.82 787.98L-431.98 788.28L-432.99 787.42L-431.96 785.35L-434.12 786.39L-434.5 785.84L-435.64 786.37L-436.53 787.67L-437.66 788.38L-439.28 787.05L-440.47 787.32L-441.99 785.95L-442.57 789.26L-444.15 787.5L-445.57 786.64L-446.77 786.91L-447.6 788.91L-448.85 788.97L-449.94 789.61L-450.99 790.2L-451.85 791.72L-453.02 792.33L-454.38 791.65L-455.62 791.36L-456.72 789.77L-457.81 789.15L-458.91 788.58L-459.95 787.79L-461.23 787.47L-463.18 788.68L-463.64 786.45L-464.9 786.17L-466.26 786.27L-467.37 785.6L-468.94 786.71L-470 785.89L-470.96 784.4L-472.61 786.59L-473.45 784.07L-474.71 784.08L-475.85 783.07L-477.3 785.16L-478.35 782.7L-479.67 783.94H-480.91L-482.17 784.99L-483.39 784.95L-484.61 784.25L-485.84 782.64L-487.07 784.14L-488.32 782.95L-489.55 783.14L-490.76 784.35L-491.95 785.56L-493.25 783.45L-494.52 782.36L-495.66 785.16L-496.94 783.76L-498.16 784.18L-499.43 782.91L-500.61 784.96L-501.88 783.27L-503.1 783.45L-504.32 784.06L-505.55 783.19L-506.76 782.94L-507.97 782.77L-509.25 784.31L-510 785.16V844Z" fill="#B9CED1"/>
</g>
<defs>
<clipPath id="clip0_1865_489890">
<rect width="390" height="844" fill="white"/>
</clipPath>
</defs>
</svg>
