<svg width="390" height="844" viewBox="0 0 390 844" fill="none" xmlns="http://www.w3.org/2000/svg">
<g clip-path="url(#clip0_1865_489902)">
<path d="M900 708.16L898.82 707.6L896.48 709.9L894.84 706.67L892.88 705.94L890.79 706.31L888.57 707.89L886.61 707.19L884.76 705.27L882.49 707.73L880.65 705.65L878.43 707.68L876.53 706.21L874.41 707.3L872.61 704.29L870.46 705.83L868.48 705.12L866.44 705.27L864.42 705.06L862.45 703.98L860.44 703.57L858.3 706.23L856.37 703.66L854.27 705.94L852.26 705.53L850.26 704.21L848.24 704.33L846.22 703.63L844.18 705.33L842.16 704.26L840.13 702.57L838.1 703.48L836.07 703.54L834.04 702.98L832 702.66L829.97 703.05L827.98 704.55L825.96 704.81L823.91 704.14L821.91 704.86L819.82 703.31L817.81 703.96L815.82 704.61L813.73 703.78L811.72 704.12L809.76 705.18L807.73 705.3L805.71 705.46L803.61 704.69L801.66 705.73L799.75 707.09L797.48 704.63L795.66 706.88L793.75 708.07L791.47 705.85L789.51 706.65L787.38 706.06L785.56 707.93L783.54 708.21L781.74 710.14L779.53 709.02L777.41 708.58L775.5 709.63L773.23 708.14L771.51 710.49L769.37 709.96L767.59 711.84L765.34 710.62L763.4 711.45L761.43 712.05L759.66 713.9L757.42 712.78L755.35 712.79L753.61 714.77L751.29 713.22L749.59 715.46L747.61 715.97L745.63 716.52L743.07 713.55L741.17 714.56L739.33 715.92L737.26 715.9L735.46 717.54L733.44 717.85L731.33 717.56L729.48 718.82L727.49 719.17L725.17 717.36H723.14L721.3 718.72L719.63 721.17L717.37 719.7L715.61 721.64L713.61 721.88L711.27 719.79L709.55 722.02L707.35 720.81L705.61 722.98L703.42 721.89L701.32 721.33L699.22 720.82L697.28 721.53L695.34 722.28L693.29 722.1L691.67 725.38L689.55 724.67L687.53 724.81L685.31 723.24L683.59 725.85L681.32 723.77H679.29L677.58 726.55L675.38 724.99L673.54 726.75L671.41 725.73L669.37 725.65L667.42 726.33L665.43 726.71L663.55 728.09L661.58 728.72L659.3 726.12L657.57 729.18L655.37 727.31L653.55 729.53L651.43 728.46L649.52 729.78L647.38 728.41L645.35 728.3L643.31 728.08L641.56 731.42L639.34 728.9L637.52 731.55L635.35 729.52H633.33L631.36 730.15L629.25 728.89L627.47 732.36L625.46 732.61L623.32 730.74L621.35 731.55L619.4 732.59L617.32 731.55L615.37 732.75L613.38 733.24L611.34 733.04L609.33 733.16L607.35 733.96L605.34 734.06L603.18 731.13L601.14 730.64L599.24 733.12L597.19 732.36L595.19 732.68L593.22 734.01L591.16 732.69L589.14 732.56L587.17 733.95L585.12 732.9L583.09 732.4L581.1 733.24L579.05 731.79L577.08 733.56L575.02 731.75L573.02 732.3L571.04 733.99L569.04 734.89L567.02 734.79L564.97 732.21L562.97 732.7L560.96 733.44L558.95 734.14L556.93 733.68L554.92 732.38L552.91 733.71L550.89 734.85L548.88 734.32L546.86 735.43L544.85 734.53L542.82 735.4L540.8 735.53L538.82 732.3L536.78 734.97L534.78 733.91L532.77 733.16L530.76 733.27L528.72 734.32L526.75 732.54L524.74 732.44L522.72 732.38L520.72 732.18L518.65 733.93L516.66 733.02L514.62 733.76L512.63 733.17L510.64 732.38L508.64 731.99L506.52 734.47L504.59 732.38L502.49 734.4L500.6 731.57L498.62 730.95L496.61 730.8L494.46 733.41L492.48 732.55L490.47 732.41L488.54 730.9L486.42 732.61L484.57 729.85L482.34 732.97L480.39 731.55L478.48 729.61L476.27 732.13L474.38 730.04L472.17 732.28L470.23 730.91L468.35 728.93L466.25 729.59L464.28 728.77L462.27 728.48L460.3 727.61L458.14 729.03L456.19 727.96L454.1 728.53L452.12 727.87L449.86 730.03L448.03 727.84L445.98 727.9L444.1 726.34L441.94 727.37L439.91 727.28L437.79 727.93L435.87 726.78L433.91 725.95L431.88 725.83L429.82 725.9L427.78 725.8L425.84 724.88L423.56 726.83L421.64 725.7L419.81 723.93L417.7 724.44L415.9 722.45L413.87 722.49L411.59 724.42H409.57L407.86 722.07L405.88 721.7L403.87 721.61L401.87 721.4L399.88 721.13L397.86 721.12L395.63 722.52L393.71 721.74L391.91 720.16L389.88 720.19L388.09 718.56L386.04 718.72L383.75 720.43L382.01 718.49L380.15 717.36L378.19 716.86L376.09 717.36L374.3 715.75L371.84 718.58L370.32 715.2L367.87 717.94L366.12 716.11L364.38 714.2L362.39 713.95L360.26 714.6L358.06 715.67L356.17 714.74L354.05 715.39L352.55 711.84L350.35 712.96L348.31 713.03L346.23 713.39L344.35 712.37L342.63 710.26L340.39 711.7L338.28 712.29L336.41 711.15L334.74 708.67L332.32 711.42L330.39 710.78L328.37 710.71L326.59 708.95L324.55 709.01L322.41 709.92L320.77 707L318.83 706.31L316.5 708.72L314.76 706.46L312.69 706.82L310.76 706.04L308.52 707.89L306.82 705.13L304.51 707.73L302.53 707.39L300.86 704.26L298.9 703.59L296.72 705.16L294.73 704.91L292.75 704.57L290.63 705.69L288.64 705.52L286.88 702.56L284.71 704.4L282.88 702.09L280.79 703.15L278.65 704.87L276.74 703.55L274.73 703.59L272.74 703.23L270.77 702.61L268.83 701.32L266.73 703.1L264.68 704.03L262.75 702.31L260.73 702.63L258.7 703.45L256.73 702.23L254.72 702.45L252.74 701.32L250.73 701.95L248.73 701.48L246.71 702.54L244.71 701.52L242.7 702.13L240.7 702.44L238.69 699.94L236.69 702.53L234.69 702.76L232.69 702.74L230.67 701.33L228.65 700.63L226.65 701.37L224.62 700.15L222.68 703.38L220.69 703.81L218.67 703.09L216.61 701.15L214.67 703.36L212.6 701.49L210.59 701.51L208.61 702.27L206.57 701.38L204.66 703.99L202.66 704.11L200.58 702.24L198.61 703.04L196.67 704.78L194.55 702.1L192.65 704.71L190.57 702.9L188.54 702.43L186.5 701.72L184.52 702.78L182.46 701.92L180.45 702.27L178.41 702.07L176.53 705.53L174.37 702.38L172.44 704.65L170.35 703.13L168.39 704.67L166.31 703.42L164.29 703.67L162.24 703.13L160.28 704.8L158.23 704.03L156.17 703.47L154.25 705.98L152.16 704.31L150.24 707.04L148.14 705.32L146.12 705.28L144.11 705.67L142.03 704.58L140.06 705.92L138.06 706.49L135.99 705.46L133.98 705.78L131.91 704.87L129.91 705.47L127.89 705.65L125.85 705.33L123.85 705.92L121.88 707.27L119.86 707.6L117.75 705.45L115.75 706.24L113.76 707.06L111.77 708.02L109.79 708.94L107.66 706.64L105.61 706.04L103.61 706.77L101.57 706.28L99.58 707.31L97.52 706.42L95.58 708.45L93.54 708.3L91.46 707.06L89.56 709.96L87.49 709.05L85.51 710.14L83.38 707.75L81.41 708.9L79.39 709.22L77.33 708.32L75.31 708.62L73.28 708.54L71.24 708.17L69.24 708.77L67.29 710.64L65.27 710.82L63.15 708.65L61.19 710.22L59.08 708.24L57.1 709.35L55.07 709.21L53.01 708.56L51.08 710.74L49.02 710.76L46.95 710.63L44.86 710.12L42.86 711.48L40.73 710.03L38.62 708.99L36.62 710.46L34.54 710.13L32.44 709.22L30.39 709.47L28.43 712.06L26.27 709.8L24.25 710.74L22.21 711.4L20.15 711.49L18.15 712.88L16.08 711.55L14.13 713.27L12.01 710.79L10.02 711.29L8 711.22L5.96002 710.58L4.06 713.44L2.06 713.81L-0.0400085 711.77L-2 713.02L-4.09 711.37L-6.01999 713.35L-8.13 711.22L-10.08 712.79L-12.11 712.45L-14.03 714.58L-16.11 713.25L-18.15 712.55L-20.07 714.76L-22.12 713.93L-24.13 714.13L-26.11 714.94L-28.17 714.06L-30.14 715.12L-32.15 715.27L-34.16 715.22L-36.18 714.06L-38.16 712.93L-40.09 715.05L-42.07 714.12L-44.03 714.15L-46 713.61L-47.96 713.58L-49.96 715.05L-51.94 715.71L-53.89 714.36L-55.85 714.2L-57.84 714.71L-59.76 713.16L-61.7 712.27L-63.69 713.08L-65.67 713.73L-67.64 714.29L-69.6 714.08L-71.56 713.72L-73.52 713.08L-75.91 713.01L-75.92 715.87L-77.28 717.55L-78.91 719.43L-81.32 717.69L-82.73 720.62L-84.93 719.89L-87.03 719.57L-89.09 719.48L-90.58 722.03L-92.4 723.08L-95.01 720.35L-96.95 720.81L-98.79 721.76L-100.24 724.52L-102.68 722.6L-104.78 722.31L-106.7 722.87L-107.98 726.44L-109.9 726.99L-112.19 725.79L-114.36 725.18L-116.13 726.44L-117.7 728.63L-119.8 728.31L-121.96 727.75L-124.12 727.16L-125.82 728.75L-127.33 731.22L-129.84 729.03L-131.5 730.8L-133.81 729.51L-135.19 732.38L-137 733.31L-139.07 732.93L-140.85 734.25L-142.98 733.28L-144.88 733.84L-146.95 731.84L-148.81 733.55L-150.74 733.38L-152.62 732.81L-154.7 732.93L-156.92 733.33L-159.04 733.11L-161.21 733.02L-162.84 731.22L-164.41 729.27L-166.6 729.31L-168.46 728.25L-170.45 727.57L-172.57 727.92L-174.45 727.13L-176.49 727.41L-178.55 728.23L-180.3 725.06L-182.41 727.74L-184.36 727.35L-186.37 725.47L-188.4 724.9L-190.34 726.24L-192.39 725.77L-194.12 728.49L-196.26 727.2L-198.18 727.83L-200.24 727.48L-202.28 727.41L-204.39 726.9L-206.31 727.56L-207.76 730.86L-210 729.62L-211.94 730.16L-214.06 729.61L-215.91 730.64L-217.72 731.85L-219.73 731.92L-221.82 731.53L-223.75 732.1L-225.54 733.69L-227.88 731.16L-229.62 733.29L-231.48 734.84L-233.62 733.32L-235.64 732.88L-237.59 733.59L-239.58 732.94L-241.56 733.47L-243.47 731.92L-245.49 733.02L-247.55 733.67L-249.36 731.86L-251.82 734.37L-253.5 732.07L-255.38 731.14L-257.5 731.26L-259.52 730.93L-261.17 729.12L-263.39 729.52L-265.38 729.04L-267.49 728.99L-269.21 727.54L-271.69 728.88L-273.38 727.31L-275.6 727.85L-276.91 724.41L-279.09 724.76L-281.21 724.95L-283.01 723.19L-285.18 723.89L-287.23 723.75L-289.21 722.15L-291.31 724.21L-293.2 725.33L-295.33 722.59L-297.28 723.07L-299.01 725.34L-301.12 724.26L-302.92 725.64L-304.81 726.41L-306.82 726.21L-308.87 725.52L-310.7 727.35L-312.8 725.21L-314.73 725.52L-316.7 727.04L-318.55 725.12L-320.63 726.97L-322.51 726.11L-324.49 726.48L-326.14 723.41L-328.23 724.88L-330.07 723.1L-332.07 723.69L-334.06 723.27L-336.07 723.18L-337.76 726.51L-339.81 725.74L-341.91 725.24L-343.82 725.81L-346.04 725.26L-347.86 726.22L-349.64 727.23L-351.7 727.38L-353.62 727.97L-354.79 730.63L-356.42 731.95L-358.87 731.01L-360.82 731.43L-362.7 732.04L-364.4 733.2L-366.3 733.71L-368.12 734.5L-369.55 737.08L-372.09 734.54L-373.63 737.32L-375.81 735.65L-377.75 735.32L-379.72 738.14L-381.75 737.43L-383.65 735.96L-385.52 734.87L-387.62 735.6L-389.44 734.28L-391.39 733.85L-393.48 734.18L-395.65 734.99L-397.44 733.38L-399.51 733.65L-401.53 733.69L-403.58 734.77L-405.52 731.9L-407.53 733.28L-409.44 734.27L-411.32 735.41L-413.47 735.12L-415.8 734.29L-417.32 737.16L-419.61 736.54L-421.65 737.42L-423.79 735.24L-425.69 736.04L-427.56 734.96L-429.75 737.48L-431.78 737.47L-433.6 736.21L-435.5 735.59L-437.03 733.45L-439.51 735.33L-441.4 734.73L-442.79 732.23L-445.12 733.42L-447.17 733.54L-448.34 729.59L-451.05 732.41L-452.93 731.49L-454.43 728.5L-456.46 728.11L-458.57 728.3L-460.92 730.16L-462.71 728.31L-464.93 729.58L-466.67 727.07L-468.96 729.24L-470.87 727.9L-472.87 727.48L-474.95 727.99L-476.87 726.33L-479.05 728.61L-480.95 726.03L-483.03 726.92L-485.01 725.48L-487.08 726.24L-489.09 725.26L-491.16 726.57L-493.19 726.17L-495.22 725.15L-497.26 727.57L-499.31 724.37L-501.33 726.39L-503.36 727.04L-505.37 728.02L-507.46 725.71L-509.47 726.91L-510 726.86V844H900V708.16Z" fill="#B9CED1"/>
</g>
<defs>
<clipPath id="clip0_1865_489902">
<rect width="390" height="844" fill="white"/>
</clipPath>
</defs>
</svg>
