<svg width="390" height="844" viewBox="0 0 390 844" fill="none" xmlns="http://www.w3.org/2000/svg">
<g clip-path="url(#clip0_1865_489808)">
<path d="M864.08 592.35L863.95 593.15L861.84 593.5L859.48 593.32L858.94 596.76L856.37 596.09L855.02 597.98L852.17 596.53L850.39 597.44L849.33 600.09L846.78 599.12L846.07 602.83L843.61 602.01L841.92 603.22L839.74 603.05L837.73 603.3L836.2 605.09L834.78 607.37L832.41 606.39L830.77 608.01L828.6 607.64L826.95 609.35L824.54 607.8L822.58 608.13L821.09 610.84L818.96 610.38L816.69 608.94L814.85 610.01L813.23 612.71L810.79 609.83L809.02 611.81L806.77 610.23L805.2 613.79L802.91 611.98L800.85 611.93L799.21 614.54L796.95 613.34L794.85 613.18L792.96 614.13L790.71 613.57L789.31 616.23L786.72 614.8L785.71 618.1L783.3 617.54L781.11 617.79L780.75 621.41L777.71 620.39L775.91 621.56L774.79 623.54L774.52 626.2L771.1 626.06L772.84 629.82L770.34 630.54L769.65 632.46L768.17 633.92L767.82 636.06L767.28 638.13L766.9 640.45L763.93 640.58L763.42 643L761.33 643.61L759.08 643.65L758.5 646.8L756.63 647.6L754.07 646.27L752.84 648.94L750.58 648L748.69 648.39L747.18 651.04L745.08 650.41L742.89 648.9L741.34 651.97L739.03 649.77L737.13 650.64L735.25 651.61L733.16 651.07L731.11 650.76L729.09 650.75L727.12 651.1L725.54 654.41L723.18 651.73L721.6 655.06L719.21 652.17L717.26 652.71L715.42 654.01L713.31 653.27L711.43 654.32L709.35 653.8L707.5 655.05L705.79 657.42L703.64 656.34L701.53 655.61L699.74 657.38L697.59 656.33L695.47 655.52L693.75 657.74L691.81 658.35L689.58 656.64L687.93 659.49L685.88 659.29L683.82 658.26L681.85 657.07L679.88 658.37L677.72 659.83L675.88 658.35L673.97 657.7L672.72 655.66L671.04 654.82L669.09 654.43L668.68 656.88L665.41 656.1L665.03 659.2L663.31 660.48L660.97 660.65L659.32 661.98L657.32 662.61L656.02 664.81L653.3 663.65L652.01 666.04L650.02 666.65L647.75 666.33L646.46 669.16L644.47 669.79L641.7 667.47L640.29 670.18L637.96 669.31L635.93 669.65L634.31 671.74L632.22 671.82L630.19 672.15L628.17 672.03L626.12 671.73L624.72 674.43L622.42 673.03L620.88 675.11L619.17 676.39L617.22 676.59L614.99 675.48L612.92 675.16L611.47 677.63L609.34 676.99L607.7 678.68L605.22 676.54L603.95 679.97L602.07 680.58L599.82 679.45L597.62 678.43L595.78 679.2L593.87 679.64L592.41 682.56L590.01 680.23L588.26 681.66L586.45 682.82L584.34 682.08L582.4 682.5L580.45 682.89L578.58 684.07L576.4 682.19L574.62 684.52L572.46 682.41L570.68 685.34L568.51 682.44L566.67 684.92L564.61 683.33L562.63 683.37L560.7 685.05L558.67 682.88L556.75 686.15L554.72 682.81L552.76 686.32L550.78 682.9L548.79 685.32L546.83 682.83L544.83 684.12L542.83 685.06L540.83 686.15L538.87 684.74L536.86 685.88L534.96 682.93L532.89 685.6L531 682.72L528.96 684.26L526.94 685.28L524.99 684.25L522.97 685.43L521 683.96L518.95 684.7L516.95 684.07L514.91 684.69L512.98 682.28L510.87 684.55L508.93 682.49L506.84 683.91L504.86 682.85L502.77 684.47L500.85 682.1L498.77 683.34L496.73 683.46L494.75 682.72L492.83 680.62L490.76 681.51L488.65 683L486.63 682.82L484.57 683.42L482.67 681.36L480.56 682.64L478.5 683.03L476.66 680.34L474.63 680.32L472.57 680.73L470.45 681.86L468.37 682.4L466.65 678.74L464.32 682.1L462.31 681.78L460.41 680.34L458.6 678.18L456.42 679.55L454.46 678.85L452.59 677.41L450.56 677.4L448.52 677.41L446.49 677.36L444.43 677.52L442.15 679.26L440.39 677.16L438.59 675.47L436.63 674.93L434.59 674.92L432.37 675.95L430.31 675.98L428.56 674.23L426.4 674.8L424.51 673.85L422.73 672.4L420.46 673.43L418.29 673.89L416.53 672.4L414.69 671.33L412.28 672.76L410.91 669.72L408.32 671.77L407.14 668.12L404.92 668.65L402.67 669.18L400.84 668.16L399.26 666.3L396.49 668.54L395.64 664.29L393.12 665.56L390.94 665.7L389.13 664.65L387.91 661.91L385.39 662.99L383.86 661.2L381.84 660.81L380.37 658.95L377.35 661.08L376.38 657.98L374.31 657.67L371.77 658.41L370.36 656.5L369.26 653.94L367.1 653.77L365.54 652.29L363.16 652.52L362.23 649.68L359.02 651.41L357.91 648.98L355.95 648.22L353.95 647.54L352.39 646.02L351.52 643.13L348.1 645.23L346.63 643.53L344.48 643.22L343.26 640.94L340.96 640.99L339.72 638.65L337.59 638.36L335.67 637.78L334.09 636.31L331.79 636.83L330.78 633.53L328.07 635.43L326.12 635.04L324.99 631.72L322.43 633.47L321.21 630.22L318.96 630.96L317.32 629.2L315.04 630.16L313.41 628.24L310.84 630.71L309.48 627.43L307.14 628.9L305.46 627.13L303.18 628.36L301.06 628.72L299.5 626.14L297.26 627.12L295.62 624.94L293.24 626.7L291.46 625.25L289.29 625.87L287.84 622.62L285.68 623.18L283.4 624.48L281.69 622.61L279.98 620.63L277.45 623.45L275.92 620.4L273.48 622.76L271.85 620.28L269.74 620.69L267.79 620.1L265.69 620.48L264 618.25L261.85 618.94L259.71 619.59L257.99 617.48L255.94 617.59L253.67 619.09L252.03 616.45L249.73 618.21L247.9 616.82L245.74 617.64L244.2 614.18L242.12 614.46L240.12 614.22L238.18 613.47L235.92 615.13L233.76 616.15L232.02 613.92L230.14 612.74L228.21 611.87L225.97 613.54L223.82 614.53L222.1 611.98L220.12 611.58L217.8 614.05L216.02 611.94L213.83 613.35L211.84 613L209.87 612.51L207.87 612.33L206.02 610.71L203.86 611.97L201.84 611.96L199.87 611.51L198.18 608.29L196.21 607.78L193.98 610.01L192.15 608.17L189.93 610.36L188.2 607.26L186.15 607.73L184.17 607.36L181.96 609.52L180.23 606.28L177.99 608.97L176.21 606.29L174.14 607.01L172.2 606.12L170.17 606.35L168.24 605.34L166.23 605.27L164.13 606.46L162.2 605.38L160.11 606.49L158.12 606.19L156.12 606.12L154.04 607.06L152.25 604.1L150.2 604.65L148.08 606.2L146.22 604.11L144.09 605.83L142.27 603.16L140.13 605.04L138.31 602.37L136.07 605.58L134.22 603.04L132.22 602.55L130.02 604.81L128.13 602.74L126.17 601.73L124.02 603.18L121.93 603.95L120.08 601.33L118.06 601.1L116.03 600.99L113.82 603.46L111.77 603.53L109.77 603.12L107.92 600.56L105.85 600.93L103.66 603.05L101.73 601.52L99.78 600.42L97.62 602.07L95.67 600.9L93.76 599.12L91.65 600.12L89.48 601.92L87.63 599.34L85.65 598.53L83.54 599.51L81.49 599.7L79.41 600.32L77.41 599.79L75.49 598.2L73.23 597.91L71.56 599.73L69.69 600.56L67.74 601.21L66.46 603.53L64.66 604.64L62.08 603.55L59.96 603.6L58.5 605.73L56.71 606.89L54.8 607.69L52.26 606.04L50.4 606.94L48.6 608.16L47 610.46L44.74 609.59L42.61 609.29L40.94 611.59L38.77 610.96L36.7 610.91L34.7 611.28L32.87 613.06L30.72 612.26L28.64 611.95L26.8 614L24.67 613.18L22.63 613.23L20.45 611.51L18.52 612.81L16.45 612.43L14.38 611.83L12.43 613.1L10.34 612.22L8.37 613.1L6.35999 613.47L4.34003 613.67L2.25 612.91L0.440002 616.36L-1.79999 613.29L-3.67001 615.79L-5.64999 616.53L-7.70001 616.3L-9.92001 614.06L-11.79 616.08L-13.83 616.1L-15.8 616.8L-18.09 614.38L-19.93 616.35L-21.8 617.89L-24.07 616.09L-25.93 617.55L-27.92 618.01L-30.17 616.78L-32.06 619.21L-34.39 618.57L-36.61 618.93L-39.07 619.19L-41.36 617.54L-43.48 617.73L-45.42 619.3L-47.73 617.89L-49.3 620.34L-51.97 618.61L-53.25 621.33L-54.71 623.21L-57.42 622.11L-58.37 625.07L-60.82 624.71L-62.15 626.8L-64.27 626.99L-65.9 628.28L-68.51 627.24L-70.46 627.69L-71.46 630.62L-74.16 628.99L-75.05 632.59L-77.87 630.14L-79.12 633.06L-81.35 632.24L-83.25 632.69L-85.26 632.44L-86.91 635.46L-89.07 632.77L-91.01 635.82L-92.89 632.97L-94.69 631.99L-97.21 635.11L-99 633.7L-101.28 633.99L-102.81 632.19L-103.66 629.46L-106.46 630.47L-108.33 629.7L-109.28 627.49L-110.41 625.59L-111.64 623.77L-113.76 623.47L-115.41 622.3L-117.71 622.87L-119.03 620.57L-121.31 622.56L-123.11 622.81L-124.82 620.93L-126.66 622.04L-128.5 621.69L-130.64 620.41L-132.54 621.63L-134.33 623.03L-136.74 621.32L-138.86 621.39L-140.13 624.4L-142.17 624.6L-143.62 626.44L-145.34 627.46L-148.2 626.05L-149.73 627.61L-151.36 628.91L-152.75 630.55L-155.73 629.82L-157.18 631.43L-157.28 634.7L-158.57 636.31L-161.44 636.25L-161.86 638.79L-162.53 640.96L-166.28 640.53L-167.18 642.57L-166.3 646.04L-167.74 647.61L-168.79 649.53L-172.49 649.08L-171.35 653.09L-175.05 652.29L-175.15 655.36L-177.88 655.12L-178.62 657.85L-180.15 659.8L-182.6 659.2L-184.57 660.58L-186.84 661.18L-188.56 658.61L-190.75 659.38L-192.18 656.56L-194.29 656.14L-196.34 658.32L-198.59 656.63L-200.49 657.69L-201.72 660.22L-203.8 660.3L-205.64 661.05L-207.32 662.15L-209.71 661.7L-210.3 665.37L-213.38 662.83L-215.13 663.57L-216.91 664.27L-218.81 664.45L-220.67 664.96L-222.53 666.67L-224.51 665.16L-226.58 667.81L-228.5 666.28L-230.65 667.57L-232.35 665.06L-234.32 664.82L-236.38 665.13L-238.25 664.25L-240.06 663.04L-242.06 662.9L-243.87 661.68L-246.12 662.95L-248.15 663.01L-249.89 661.12L-251.75 660.59L-254.32 662.52L-256.03 660.75L-258.43 661.63L-259.92 658.98L-262.14 659.2L-263.77 657.08L-265.94 657.12L-268.55 656.42L-270.4 658.14L-270.99 660.02L-271.93 661.88L-272.76 664.54L-275.64 662.8L-276.87 665.34L-278.71 666.53L-280.95 663.45L-282.77 665.17L-284.61 664.37L-286.32 663.11L-288.68 665.4L-290.25 663.58L-291.97 662.57L-294.34 663.89L-295.49 660.95L-297.85 662.18L-299.95 662.59L-301.05 658.97L-303.43 660.34L-305.1 658.67L-307.16 658.84L-309.32 659.81L-311.22 659.22L-312.88 656.52L-315.11 658.79L-316.89 656.25L-319.04 659.01L-320.97 658.72L-322.91 656.81L-324.91 656.05L-326.88 657.11L-328.75 659.1L-330.93 656.19L-332.86 657.09L-334.62 659.15L-336.59 659.22L-338.52 659.56L-340.54 659.17L-340.75 661.67L-342.78 662.83L-345.33 661.02L-346.98 661.4L-348.94 664.48L-350.65 661.17L-352.56 663.58L-354.68 662.7L-356.75 663.54L-358.18 665.19L-358.57 667.85L-361.69 667.32L-361.91 670.67L-364.16 671.07L-366.45 671.06L-368.34 671.73L-370.24 672.32L-372.1 673.06L-374.05 673.43L-376.01 673.68L-377.98 676.18L-380.02 674.48L-381.92 673.38L-383.78 673.59L-385.79 674.66L-387.53 673.05L-389.37 674.09L-391.21 674.45L-394.05 674.72L-393.68 678.71L-395.42 680.61L-398.34 679.86L-400.44 679.37L-402.22 681.34L-404.45 682.58L-406.34 680.6L-408.23 679.54L-410.4 679.56L-412.81 680.16L-413.84 676.93L-415.73 676.32L-417.74 676.06L-419.75 675.81L-421.83 675.76L-423.09 673.24L-425.37 673.79L-427.84 674.94L-429.12 672.45L-431.06 672.01L-433.27 672.34L-435.28 672.09L-436.69 670.03L-438.21 667.91L-440.45 668L-442.72 668.12L-444.1 665.71L-446.2 665.35L-447.71 663.46L-450.15 663.92L-452.86 664.83L-454.17 663.17L-455.05 660.62L-457.75 662.03L-458.88 659.99L-460.94 660.2L-462.06 657.75L-464.72 659.08L-466.89 658.91L-469.04 658.58L-471.04 657.2L-473.1 657.37L-474.62 654.2L-476.73 654.73L-478.75 654.67L-481.07 656.47L-482.59 653.31L-484.91 655.07L-486.87 654.67L-488.69 653.37L-490.67 653.02L-492.41 651.26L-494.66 652.61L-496.56 651.81L-498.82 653.22L-500.58 651.55L-502.51 650.94L-504.59 651.26L-506.7 651.72L-508.53 650.51L-510 650.55V844H900V592.35H864.08Z" fill="#B9CED1"/>
</g>
<defs>
<clipPath id="clip0_1865_489808">
<rect width="390" height="844" fill="white"/>
</clipPath>
</defs>
</svg>
