<svg width="390" height="844" viewBox="0 0 390 844" fill="none" xmlns="http://www.w3.org/2000/svg">
<g clip-path="url(#clip0_1865_489820)">
<path d="M899.57 494.05L897.4 496.25L895.51 495.52L893.75 493.45L891.66 494.69L889.97 491.88L887.54 491.89L885.76 494.58L884.01 491.37L881.78 493.97L879.77 493.94L877.77 493.76L875.76 493.64L873.69 492.25L871.76 494.23L869.49 491.33L867.48 492.08L865.52 492.94L863.31 492.19L861.9 495.95L859.61 494.82L857.81 496.05L855.8 496.4L853.98 497.42L852.05 498.04L849.58 497.04L847.7 497.94L846.05 499.39L844.84 501.83L842.34 501.19L841.29 503.77L838.54 502.81L837.09 504.48L835.48 505.81L833.13 505.9L831.28 506.89L829.3 507.7L829.49 511.63L827.18 511.94L824.44 511.8L822.62 512.93L821.18 514.52L821.85 518.41L818.57 517.98L817.44 519.85L816 521.42L814.95 522.67L812.96 523.9L810.97 523.39L809.21 522.05L807.86 519.34L805.1 521.47L803.79 518.58L801.39 518.74L801.07 521.37L798.98 522.41L797.3 523.62L796.98 526.51L795.43 528.09L792.63 527.45L790.91 528.53L788.83 528.67L787.5 531.05L785.55 531.76L783.58 532.41L781.61 533.33L779.37 531.36L777.4 532.42L775.33 533.76L773.34 532.33L771.52 530.3L769.33 531.59H767.27L765.13 531.83L763.69 528.94L761.69 528.68L759.83 527.84L757.05 530.12L756.06 526.33L753.51 527.66L752.1 525.37L750.4 526.91L750.39 528.24L747.03 529.36L747.52 531.81L747.39 534.1L747.18 536.44L746.37 538.51L743.6 539.26L741.84 540.53L740.79 542.32L740.18 544.55L740.33 547.7L736.71 546.87L735.41 548.48L734.43 550.59L733.5 552.96L731.25 554.69L728.83 553.13L727.15 551.46L725.52 549.69L722.89 548.86L723.2 551.54L724.61 553.69L724.36 555.9L723.99 558.1L722.27 559.79L722.12 562.05L719.3 562.74L720.52 566.22L718.97 567.77L715.96 567.44L714.87 569.27L713.21 570.32L711.04 570.02L709.49 571.34L707.78 572.86L705.75 572.46L703.77 572.97L701.8 572.55L700.29 570.42L698.41 570.23L696.12 570.68L694.66 569.16L693.55 567.35L691.43 566.45L690.61 569.06L688.17 569.41L687.41 571.72L686.28 573.6L683.54 573.59L682.07 575.06L681.87 578.04L679.34 578.28L678.04 579.95L675.6 580.3L674.34 582.02L673.48 584.22L673.01 586.87L669.88 586.41L669.4 587.1L667.78 586.87L667.77 584.34L666.43 582.4L663.39 584.37L662.47 580.38L660.26 580.85L658.45 583.61L656.23 581.72L653.91 581.28L653.46 585.39L651.84 586.35L649.06 585.36L647.71 587.02L645.67 587.42L644.61 589.7L642.31 589.43L641.15 592.09L639.01 592.15L636.62 590.51L635 592.61L632.83 590.86L630.97 591.63L629.05 592.68L627.09 591.11L625.06 594.1L623.16 592.13L621.16 592.55L619.12 593.67L617.26 591.77L615.17 593.82L613.23 593.72L611.3 593.5L609.37 591.82L607.37 591.1L605.31 590.47L603.66 593.55L601.7 593.43L599.48 592.38L598.06 594.76L596.5 596.06L593.54 593.86L593.15 597.63L591.12 597.88L588.65 597.84L588.47 600.66L585.85 600.97L584.19 602.44L584.57 605.76L583.28 602.93L581.16 602.51L579.68 601.11L578.54 599.19L576.86 598.11L574.96 597.36L573.86 595.37L571.13 594.38L570.11 596.99L568.53 598.23L567.29 599.52L565.95 600.67L565.02 602.64L564 605.13L561.72 604.79H559.72L557.91 605.6L556.18 607.78L554.12 607.56L552.08 605.9L550.1 607.49L548.23 604.81L546.25 605.5L544.06 607.52L542.3 605.54L540.09 606.86L538.4 604.94L536.4 604.96L534.61 602.92L532.6 602.69L530.56 602.85L528.53 603.88L526.6 605.52L524.62 605.05L522.82 606.26L520.62 604.91L518.43 604.52L516.53 605.4L515.62 608.27L513.5 608.46L511.12 608.82L511.69 612.16L510.25 613.45L508.6 614.65L507.35 613.15L505.95 611.34L503.04 612.61L501.34 611.5L500.29 608.62L498.23 608.21L495.55 609.97L494.43 606.49L492.02 607.74L489.96 607.85L488.36 605.24L486.36 604.64H484.28L482.11 607.29L480.19 606.22L478.22 607.18L476.21 605.36L474.25 606.12L472.23 605.75L470.24 605.82L468.43 607.6L466.56 608.49L464.27 606.46L462.58 608.52L460.22 606.47L458.17 606.35L456.69 609.4L454.35 607.72L452.83 610.43L450.5 608.83L448.94 611.3L446.64 609.85L445.05 612.27L442.86 611.33L441 612.31L439.08 612.99L436.89 611.72L435.1 613.45L432.96 612.13L431.04 612.88L429.01 612.23L427.09 613.44L425.1 615.19L423.08 614.6L421.11 613.52L419.1 613.63L417.4 611.06L414.99 613.79L413.27 611.98L411.04 612.72L409.26 611.48L407.2 611.31L405.92 608.78L403.85 608.65L401.83 608.3L400.64 606.03L398.08 606.74L396.37 605.6L394.66 604.5L393.74 602.08L392.14 600.87L389.36 601.38L388.55 598.98L387.39 597.15L385.02 596.87L384.7 594.08L382.76 593.23L380.11 593.06L379.86 590.35L377.29 589.98L376.71 588.35L375.8 589.99L373.79 590.96L372.29 593.03L369.8 592.55L367.4 590.89L365.63 593.08L363.54 593.8L361.57 591.84L359.65 591.05L357.76 590.34L355.73 590.26L353.34 591.26L351.75 589.38L349.13 590.65L346.9 590.54L345.97 587.2L343.5 587.68L342.15 585.57L340.19 584.97L338.16 584.52L336.46 583.37L335.26 581.12L333.55 579.98L330.9 580.88L329.96 578.07L327.62 578.3L325.48 578.08L324.07 576.29L322.7 574.42L320.62 574.07L319.04 572.65L316 574.41L315.45 570.75L313.29 570.59L311.34 569.97L309.31 569.52L307.4 568.81L305.31 568.5L303.26 568.1L302.98 563.86L299.84 565.83L299.16 562.43L296.52 563.32L294.57 562.71L293.01 561.23L292.14 558.27L288.87 560.52L287.95 557.65L286.66 555.6L284.47 555.52L282.06 555.9L280.65 554.1L279.5 551.73L277.31 551.63L275.68 550.32L272.93 551.45L271.86 548.91L269.58 549.02L267.83 547.96L266.66 545.65L263.68 547.28L263.21 543.44L260.65 544.03L258.32 544.13L256.55 543.01L254.5 542.54L252.65 541.63L250.82 540.69L249.49 538.39L247.03 539.14L245.72 536.59L244.07 534.81L241.44 536.57L239.87 534.26L237.81 533.86L235.73 533.67L233.55 534.53L231.59 533.1L229.51 534.78L227.52 535.07L225.38 533.81L223.66 536.05L221.16 533.98L219.43 535.6L217.52 536.34L214.88 535.48L213.08 536.79L211.31 538.1L210.92 541.24L209.42 542.61L206.34 542.56L206.09 545.42L205.56 543.16L204.24 541.53L203.84 538.59L201.29 538.56L199.14 538.55L197.38 537.27L195.43 535.78L193.29 535.92L191.23 536.6L189.05 536.26L187.02 536.94L185.2 538.21L184.08 540.72L181.08 539.43L179.89 541.6L178.95 544.09L177.38 545.48L175.39 546.2L174.04 548.02L171.38 547.54L169.25 547.84L168.31 550.76L166.08 550.77L164.2 551.72L162.2 552.46L159.98 552.12L159.55 549.29L155.94 550.41L155.39 547.8L153.81 546.47L151.45 546.33L150.16 544.6L148.7 543.08L148.08 539.97L145.16 541.09L143.75 539.35H141.51L139.32 539.42L138.55 535.81L136.47 535.51L134.22 535.85L132.57 534.3L130.6 533.76L128.71 532.89L126.78 532.09L124.68 532.22L122.37 534.14L120.74 530.83L118.54 532.62L116.66 530.15L114.6 530.1L112.53 530.21L110.49 530.73L108.56 532.61L106.55 532.69L104.39 530.47L102.4 530.78L100.56 533.58L98.48 532.54L96.51 533.22L94.44 532.32L92.38 531.68L90.45 532.98L88.49 533.92L86.43 533.2L84.53 535.03L82.51 534.85L80.55 535.73L78.47 534.87L76.34 533.22L74.33 533.39L72.3 533.17L70.28 533.19L68.42 535.44L66.43 535.76L64.23 533.5L62.51 537.24L60.34 535.46L58.46 537.12L56.21 534.52L54.36 536.46L52.18 534.86L50.2 535.32L48.47 538.31L46.46 538.37L44.48 538.76L42.3 537.41L40.41 538.58L38.18 536.98L36.3 538.23L34.47 539.75L32.28 538.57L30.13 537.83L28.54 540.91H26.51L24.46 540.87L22.5 541.32L20.17 539.62L18.62 542.48L16.75 543.5L14.52 542.4L12.77 544.13L10.72 544.09L8.65002 543.95L6.34998 542.25L4.59003 544.06L2.64001 544.68L0.540009 544.06L-1.48001 543.97L-3.28 546.39L-5.41 544.97L-7.35001 546.46L-9.38 546.51L-11.4 544.3L-13.38 544.06L-15.47 546.19L-17.49 545.86L-19.56 545.88L-21.36 543.89L-23.72 546.04L-25.43 543.62L-27.26 541.98L-29.59 543.99L-31.6 543.66L-33.47 541.89L-35.54 541.92L-37.62 542.83L-39.63 543.14L-41.84 541.32L-43.64 543.45L-45.91 542.71L-47.77 543.85L-49.27 545.56L-51.86 544.69L-53.6 545.77L-54.7 548.21L-57.33 547.16L-58.67 549.12L-60.04 551.62L-62.51 549.31L-64.37 551.42L-66.09 549.7L-68.57 550.41L-70.57 549.46L-71.31 547.1L-73.02 546.13L-74.42 543.91L-76.4 545.59L-77.73 546.81L-80.74 545.01L-81.84 546.97L-82.47 549.55L-85.43 548.05L-85.96 551.84L-88.21 552.66L-90.48 552.03L-92.34 550.61L-94.02 549.3L-95.55 547.82L-97 546.2L-99.3 546.37L-101.83 547.26L-103.63 546.76L-104.96 543.91L-107.03 545.48L-109.28 543.77L-111.16 544.57L-113.03 545.3L-114.66 546.3L-115.59 548.28L-117.11 549.3L-119.1 549.53L-121.01 549.57L-123.04 552.07L-125.01 550.55L-127.05 550.27L-129.37 550.94L-130.7 548.18L-133.03 548.75L-135.06 548.39L-137.1 548.2L-138.87 547.18L-140.39 544.74L-142.61 545.78L-144.47 544.06L-146.5 543.09L-148.54 545.75L-150.59 544.67L-152.62 544.79L-154.58 545.37L-156.26 547.35L-158.17 547.83L-160.87 545.3L-162.47 547.21L-163.99 549.13L-165.82 549.97L-168.57 548.34L-169.44 551.73L-171.65 551.66L-174.35 550.54L-175.48 553.06L-177.15 554.29L-179.31 554.5L-180.31 557.14L-182.86 556.57L-183.69 559.46L-186.74 557.87L-187.66 560.53L-188.87 562.59L-191.96 560.96L-193.87 561.66L-195.47 562.99L-196.2 565.88L-198.72 565.49L-199.88 567.54L-201.58 568.63L-203.87 568.74L-205.31 570.29L-207.55 570.58L-207.54 574.23L-210.33 573.78L-210.57 576.88L-213.67 576.18L-213.98 579.04L-215.58 580.27L-217.74 581.12L-218.24 583.83L-221.69 583.1L-222.48 585.52L-224.89 585.54L-225.79 588.3L-227.74 589.08L-229.92 588.57L-231.79 590.26L-233.92 591.08L-236.02 590.44L-238.22 590.99L-239.73 587.43L-242.14 589.03L-243.92 587.54L-246.12 587.85L-248.19 587.66L-249.66 584.65L-252.33 587.61L-254.13 586.05L-255.98 583.75L-258.16 584.48L-260.35 583.72L-262.6 583.82L-264.22 586.28L-266.46 586.36L-267.85 588.76L-270.43 588.92L-272.2 590.5L-274.12 591.17L-276.14 591.37L-278.16 591.14L-280.37 591.6L-281.82 589.29L-283.38 587.78L-285.85 588.45L-288.18 588.62L-290.1 587.91L-291.29 585.53L-293.09 584.48L-294.68 582.86L-296.8 582.96L-299.13 584.99L-300.66 581.73L-302.69 581.87L-304.65 583.44L-306.59 583.08L-308.47 583.66L-310.66 582.5L-312.56 583.21L-314.52 583.69L-316.32 584.62L-318.59 584.58L-320.16 586.07L-320.86 587.31L-322 586.46L-324.39 586.08L-325.66 584.82L-326.41 582.12L-328.9 583.31L-330.17 580.36L-332.43 582.17L-334.31 582.18H-336.2L-338.24 579.76L-340.11 581.26L-342.27 579.97L-343.7 583.43L-345.64 583.46L-348.03 581.73L-350.06 581.87L-351.45 584.75L-353.75 583.75L-355.75 584.02L-357.39 585.87L-359.26 586.68L-361.31 586.75L-363.28 587.18L-365.29 587.4L-366.98 589L-368.83 589.89L-370.84 590.15L-373.28 588.54L-374.7 591.3L-377.2 589.44L-378.92 590.9L-380.79 591.77L-382.89 591.63L-384.59 593.17L-386.81 592.51L-388.66 593.44L-390.25 595.44L-392.53 594.55L-394.24 596.05L-396.12 596.83L-397.99 597.67L-400.5 595.77L-402.59 595.71L-404.31 597.17L-406.12 598.24L-407.8 599.88L-409.77 600.31L-412.02 599.51L-414.17 599.15L-415.92 600.5L-417.81 601.25L-419.5 603.15L-421.67 602.98L-423.72 603.31L-425.91 602.74L-428.05 602.1L-429.84 604.66L-431.96 604.44L-434.04 605.03L-436.03 602.81L-438.34 605.17L-439.89 601.91L-442.01 602.2L-443.8 601.22L-446.1 601.23L-448.41 600.74L-449.36 598.41L-450.96 596.95L-451.83 594.89L-454.02 593.83L-454.68 591.7L-454.17 588.54L-457.35 588.62L-457.66 585.7L-460.23 585.84L-461.28 582.69L-463.79 583.48L-466.07 584.31L-467.88 582.44L-470.11 583.38L-471.98 581.58L-473.79 580.63L-476.09 582.27L-478 581.68L-479.72 580.34L-481.26 578.5L-483.77 580.19L-485.77 579.93L-487.87 579.95L-488.73 576.16L-490.9 576.42L-492.71 575.6L-494.5 574.73L-496.48 574.4L-498.37 573.79L-499.66 571.54L-502.35 573.15L-503.57 570.68L-505.72 570.8L-507.66 570.36L-509.5 569.61L-510 569.12V844H900V494.52L899.57 494.05Z" fill="#B9CED1"/>
</g>
<defs>
<clipPath id="clip0_1865_489820">
<rect width="390" height="844" fill="white"/>
</clipPath>
</defs>
</svg>
