<svg width="390" height="844" viewBox="0 0 390 844" fill="none" xmlns="http://www.w3.org/2000/svg">
<g clip-path="url(#clip0_1865_489843)">
<path d="M199.07 458.81C198.98 458.81 198.84 458.93 198.71 459.04C198.54 459.18 198.37 459.33 198.12 459.33H197.14C197.08 459.31 197.02 459.3 196.96 459.28C196.84 459.24 196.73 459.21 196.58 459.19C196.29 459.32 195.46 459.41 194.99 459.41C194.83 459.41 194.7 459.4 194.61 459.38C194.54 459.36 194.47 459.34 194.39 459.32C194.22 459.27 194.02 459.21 193.82 459.21C193.75 459.21 193.68 459.21 193.61 459.23C193.53 459.25 193.4 459.26 193.26 459.28C193.07 459.3 192.83 459.32 192.71 459.37C192.66 459.39 192.6 459.45 192.53 459.5C192.44 459.58 192.33 459.67 192.2 459.71C192.16 459.72 192.11 459.73 192.07 459.73C191.82 459.73 191.68 459.52 191.56 459.33C191.46 459.17 191.38 459.06 191.25 459.06H191.16C191.01 459.07 190.84 458.95 190.59 458.74C190.47 458.65 190.28 458.49 190.25 458.47C190.15 458.51 189.95 458.53 189.56 458.53C189.4 458.53 188.8 458.52 188.68 458.52C188.59 458.52 188.52 458.52 188.46 458.52C188.46 458.6 188.49 458.73 188.51 458.83C188.57 459.17 188.65 459.59 188.51 459.93C188.3 460.46 188.72 461.96 188.91 462.61C188.95 462.75 188.98 462.87 189.01 463L188.99 463.8L188.96 464.56C189.01 464.79 189.21 465.15 189.37 465.45C189.45 465.6 189.53 465.74 189.57 465.83C189.62 465.94 189.64 466.04 189.66 466.13C189.68 466.23 189.7 466.31 189.75 466.39C189.84 466.53 190 466.59 190.18 466.67C190.29 466.72 190.41 466.76 190.52 466.83C190.73 466.96 190.9 466.97 191.12 466.99C191.27 467 191.44 467.02 191.61 467.07C191.63 467.05 191.66 466.95 191.68 466.89C191.73 466.73 191.8 466.48 192.09 466.48C192.35 466.54 192.61 466.58 192.88 466.62C193.17 466.67 193.45 466.71 193.67 466.77H194.39C194.64 466.84 194.94 466.95 195.26 467.07C195.64 467.21 196.03 467.35 196.34 467.41C196.5 467.44 196.64 467.48 196.77 467.52C196.95 467.57 197.1 467.62 197.23 467.62C197.28 467.62 197.32 467.62 197.4 467.6H197.96L198.83 467.46L199.1 467.2C199.13 467.14 199.14 467.08 199.15 467.01C199.17 466.91 199.18 466.8 199.25 466.7C199.38 466.51 199.59 466.36 199.77 466.23C199.82 466.19 199.87 466.16 199.92 466.12C200.32 465.82 200.73 465.13 200.88 464.64C200.97 464.37 200.92 464.15 200.86 463.9C200.8 463.64 200.73 463.34 200.83 462.95C200.89 462.69 200.99 462.45 201.09 462.22C201.3 461.73 201.49 461.26 201.38 460.55C201.36 460.54 201.34 460.52 201.32 460.51C201.22 460.44 201.14 460.37 201.03 460.37H200.95C200.83 460.37 200.76 460.27 200.57 460C200.49 459.88 200.34 459.65 200.3 459.62C200.08 459.55 199.88 459.37 199.66 459.19C199.47 459.03 199.27 458.86 199.05 458.78L199.07 458.81ZM197.88 463.01C197.79 463.33 197.62 463.64 197.47 463.91C197.42 464 197.37 464.08 197.33 464.16C197.29 464.23 197.26 464.32 197.23 464.4C197.14 464.64 197.04 464.91 196.8 464.99C196.67 465.1 196.52 465.15 196.34 465.15C196.15 465.15 195.95 465.09 195.76 465.03C195.57 464.97 195.38 464.91 195.21 464.91C195.16 464.91 195.12 464.91 195.07 464.92L194.68 465C194.49 465.04 194.3 465.08 194.1 465.12L193.37 465.07C193.21 465.11 193.08 465.12 192.94 465.12C192.76 465.12 192.61 465.09 192.43 465.06C192.3 465.04 192.15 465.01 191.97 464.99H191.89L191.85 464.91C191.76 464.76 191.66 464.62 191.58 464.55L191.53 464.5V464.43C191.53 464.31 191.5 464.29 191.44 464.25C191.36 464.2 191.22 464.09 191.28 463.85C191.35 463.56 191.34 463.24 191.34 462.93C191.33 462.38 191.32 461.82 191.79 461.51C192.03 461.36 192.32 461.34 192.58 461.34C192.67 461.34 192.76 461.34 192.86 461.34C192.95 461.34 193.04 461.34 193.14 461.34C193.35 461.34 193.51 461.32 193.65 461.29C193.89 461.23 194.08 461.2 194.27 461.18C194.44 461.16 194.62 461.14 194.84 461.08C194.96 461.05 195.07 461.05 195.16 461.05H195.38C195.5 461.05 195.57 461.05 195.62 461.01L195.66 460.98L196.69 461.03L196.74 461.01L196.79 461.07C196.79 461.07 196.85 461.07 196.89 461.05C196.94 461.04 197 461.02 197.06 461.02C197.18 461.02 197.27 461.08 197.32 461.18C197.37 461.29 197.38 461.4 197.4 461.5C197.41 461.6 197.42 461.68 197.46 461.74C197.5 461.8 197.55 461.86 197.6 461.93C197.79 462.16 198.06 462.47 197.91 462.99L197.88 463.01Z" fill="#B9CED1"/>
<path d="M187.65 448.75L187.58 448.83C187.64 448.83 187.69 448.83 187.74 448.83L187.65 448.75Z" fill="#B9CED1"/>
<path d="M207.61 449.21C207.8 449.24 207.97 449.25 208.14 449.25C208.51 449.25 208.85 449.19 209.28 449.12C209.32 449.12 209.37 449.11 209.41 449.1L207.68 448.29L206.62 449.09C206.93 449.11 207.17 449.14 207.44 449.18L207.62 449.21H207.61Z" fill="#B9CED1"/>
<path d="M179.05 449.19C179.38 449.14 179.91 449.1 180.46 449.07L179.67 448.75L177.89 449.1C178.21 449.16 178.52 449.21 178.8 449.21C178.89 449.21 178.98 449.21 179.06 449.19H179.05Z" fill="#B9CED1"/>
<path d="M388.49 468.58L386.68 469.69L384.14 467.17L382.3 468.33L380.51 469.47L378.87 470.94L376.64 470.7L374.87 471.75L373.04 472.63L371.02 473.12L369.6 474.84L367.9 475.97L367.08 478.6L365.25 479.43L363.72 480.76L361.9 481.65L358.7 480.6L357.62 482.64L357.18 485.48L355.04 486.03L353.04 486.8L351.08 487.57L349.55 488.82L349.34 492.12L346.96 492.07L345.59 494.12L343.09 492.2L341.34 494.41L339.74 491.97L337.78 492.12L336.09 491.18L334.88 489.42L331.6 490.61L330.76 488.26L330.22 485.36L326.91 486.87L325.91 484.41L323.45 485.81L321.9 484.37L320.02 483.88L317.91 482.63L316.02 483.57L313.95 483.43L312.38 485.36L310.81 487.41L308.28 484.7L306.4 484.52L304.54 484.8L302.64 484.97L300.81 484.29L298.92 484.03L296.83 484.27L294.96 483.57L292.93 483.19L291.01 482.47L288.52 482.75L287.07 481.05L285.68 479.33L284.39 477.52L282.59 476.51L280.76 475.53L279.85 473.22L277.01 473.7L277.03 470.11L275.35 468.94L272.88 468.89L271.97 466.62L270.07 465.77L268.34 464.67L267.21 462.71L265.46 461.64L262.8 461.86L261.57 460.05L260.89 457.46L258.55 457.23L255.86 457.49L254.28 456.17L254.09 452.88L251.4 453.14L249.49 452.17V448.33L247.52 447.33L244.74 447.94L242.9 447L241.67 443.95L239.5 443.86L237.49 443.01L235.34 444.36L233.38 445.55L231.37 444.73L229.48 445.61L227.26 444.07L225.41 445.16L225.24 445.12C225.2 445.4 225.16 445.69 225.08 445.97C224.89 446.61 224.55 447.5 224.22 448.05C223.9 448.57 223.58 449.22 223.22 449.74C223.02 450.03 222.68 450.22 222.48 450.51C222.28 450.9 222.08 451.28 221.88 451.67C221.65 451.99 221.28 452.22 221.04 452.53C220.67 453.01 220.37 453.48 220 453.97C219.62 454.3 219.24 454.64 218.86 454.97C218.64 455.26 218.48 455.55 218.26 455.84C217.96 456.23 217.47 456.49 217.17 456.89C217.11 456.98 216.86 457.29 216.53 457.72C216.39 457.72 216.7 457.11 216.72 456.86C216.73 456.68 216.74 456.47 216.81 456.16L216.84 456.04C216.89 455.83 216.96 455.55 216.91 455.32C216.44 453.26 216.96 451.21 217.31 450.17C217.39 449.94 217.5 449.72 217.62 449.48C217.83 449.07 218.04 448.64 218.08 448.16C217.95 448.02 217.84 447.84 217.73 447.67C217.55 447.39 217.37 447.11 217.15 446.99C217.08 446.95 217.01 446.92 216.94 446.89L215.87 448.81L213.91 446.78C213.67 446.81 213.44 446.85 213.21 446.89L212.27 448.93C212.27 448.93 212.3 448.93 212.32 448.93C212.85 448.93 213.51 449.05 213.72 449.32C213.96 449.63 214.01 450.44 214.07 451.64C214.1 452.34 214.14 453.06 214.24 453.32C214.38 453.66 214.63 455.09 214.44 455.49C214.41 455.68 214.35 455.76 214.26 455.85L214.19 455.94L214.16 455.96C214.1 455.99 214.03 456.01 213.92 456.01C213.74 456.01 213.48 455.97 213.14 455.91C212.6 455.82 211.87 455.7 211.1 455.7C211.02 455.7 210.94 455.7 210.87 455.7C210.75 455.7 210.59 455.72 210.42 455.74C210.17 455.77 209.9 455.8 209.63 455.8C209.42 455.8 209.25 455.78 209.1 455.73C208.98 455.69 208.87 455.6 208.79 455.52C208.75 455.48 208.71 455.45 208.68 455.43C208.51 455.32 208.25 455.23 208 455.15C207.85 455.1 207.71 455.06 207.59 455C207.31 454.89 207.1 454.83 206.92 454.77C206.49 454.65 206.21 454.57 205.82 453.97C205.76 453.89 205.71 453.82 205.66 453.76C205.49 453.57 205.35 453.4 205.36 452.88C205.35 452.78 205.32 452.61 205.28 452.43C205.23 452.16 205.1 452.11 205.09 451.93C205.08 451.61 204.97 451.48 204.81 451.17C204.72 450.99 204.66 451.01 204.59 450.82C204.54 450.68 204.46 450.56 204.37 450.43C204.23 450.22 204.07 449.98 204.04 449.62V449.37L203.74 449.32L201.63 448.27L200.82 449.07C200.89 449.08 200.97 449.09 201.03 449.1C201.06 449.1 201.09 449.1 201.12 449.1C201.22 449.1 201.31 449.07 201.4 449.04C201.45 449.02 201.5 449.01 201.55 449C201.61 448.99 201.67 448.98 201.73 448.98C201.88 448.98 202 449.02 202.1 449.06C202.14 449.07 202.18 449.09 202.21 449.1L202.27 449.12L202.31 449.18C202.35 449.24 202.4 449.3 202.45 449.36C202.54 449.47 202.65 449.58 202.71 449.73C202.91 450.21 202.96 450.24 203 450.84C203.03 451.28 203.07 451.7 203.15 452.06C203.21 452.31 203.15 452.7 203.1 452.91C203.04 453.18 203.21 453.57 203.35 453.88C203.43 454.05 203.49 454.2 203.52 454.36L203.55 454.77C203.6 454.98 203.68 455.21 203.9 455.3C204.09 455.38 204.31 455.49 204.44 455.73C204.51 455.86 204.56 455.99 204.61 456.12C204.68 456.31 204.76 456.48 204.86 456.63C204.93 456.73 204.98 456.82 205.01 456.89C205.08 457.04 205.1 457.07 205.44 457.07C205.56 457.07 205.7 457.14 205.85 457.21C205.94 457.25 206.08 457.32 206.18 457.33C206.43 457.41 206.67 457.54 206.91 457.65C207.03 457.71 207.14 457.77 207.25 457.82H208.22C208.4 457.67 208.59 457.6 208.79 457.6C208.96 457.6 209.12 457.65 209.28 457.7C209.44 457.75 209.61 457.81 209.8 457.81C209.87 457.81 209.95 457.81 210.02 457.78C210.15 457.75 210.29 457.74 210.44 457.74C210.66 457.74 210.87 457.77 211.08 457.8C211.28 457.83 211.5 457.86 211.71 457.86C211.85 457.86 211.97 457.85 212.1 457.82C212.22 457.79 212.31 457.77 212.39 457.75C212.52 457.71 212.61 457.69 212.73 457.69C212.8 457.69 212.88 457.69 212.98 457.72C213.16 457.76 213.38 457.76 213.55 457.76H214.04C214.12 457.76 214.2 457.76 214.27 457.76H214.35L214.4 457.83C214.54 458.04 214.51 458.17 214.47 458.3C214.45 458.38 214.42 458.49 214.41 458.66V458.71L214.38 458.75C214.38 458.75 214.36 459.47 214.37 459.55C214.38 459.67 214.39 459.82 214.33 459.95C214.27 460.09 214.32 460.27 214.37 460.48C213.84 461.16 213.42 461.71 213.33 461.85C212.88 462.56 212.19 463.15 211.69 463.82C211.53 464.04 211.49 464.3 211.34 464.54C211.05 465 210.68 465.45 210.35 465.89C210.16 466.07 209.96 466.25 209.77 466.42H209.89C209.68 466.71 209.46 467 209.24 467.28C208.93 467.56 208.63 467.85 208.32 468.13C208.14 468.36 207.99 468.57 207.81 468.8C207.63 468.96 207.44 469.13 207.26 469.29C207.09 469.51 206.97 469.8 206.75 469.96C206.58 470.09 206.37 470.19 206.24 470.36C206.07 470.58 205.95 470.87 205.73 471.03C205.53 471.17 205.3 471.2 205.09 471.34C204.8 471.61 204.51 471.88 204.21 472.14V472.16C204.14 472.26 204.08 472.35 204.02 472.45L203.79 472.67C203.63 472.91 203.49 473.15 203.33 473.41C203.13 473.6 202.93 473.8 202.73 473.99C202.52 474.27 202.41 474.61 202.22 474.89C202.05 475.14 201.48 476.07 201.54 476.52C201.6 477.01 203.01 478.56 203.88 479.46C203.92 479.5 204.19 479.64 204.12 479.71C204.05 479.78 203.93 479.74 203.83 479.76C203.7 479.79 203.56 479.82 203.39 479.82C203.38 479.82 203.37 479.82 203.35 479.82C203.27 479.8 203.19 479.8 203.1 479.8C202.88 479.8 202.64 479.86 202.36 479.92L202.18 479.96C202.02 480 201.87 480.05 201.72 480.1C201.48 480.18 201.26 480.26 201.01 480.27C200.93 480.27 200.85 480.27 200.82 480.25C200.65 480.27 200.38 480.31 200.11 480.36C199.84 480.4 199.56 480.45 199.33 480.46C199.27 480.45 199.21 480.44 199.14 480.44C198.95 480.44 198.77 480.51 198.59 480.59C198.38 480.67 198.17 480.76 197.91 480.76C197.82 480.76 197.73 480.76 197.68 480.74C197.51 480.74 197.27 480.76 197.02 480.77C196.8 480.78 196.58 480.8 196.39 480.8H196.31C196.16 480.77 195.93 480.75 195.65 480.76C195.16 480.76 194.55 480.82 193.97 480.87C193.46 480.92 192.98 480.96 192.64 480.96C192.58 480.96 192.4 480.96 192.4 480.96L192.35 480.9C192.18 480.68 192.61 479.77 192.62 479.76C192.66 479.69 192.72 479.62 192.77 479.56C192.86 479.45 192.94 479.36 192.97 479.21C193.02 479.01 193.1 478.73 193.17 478.45C193.22 478.26 193.27 478.08 193.31 477.95C193.35 477.81 193.31 477.71 193.26 477.57C193.21 477.43 193.16 477.28 193.2 477.08C193.22 476.98 193.25 476.85 193.29 476.69C193.41 476.21 193.58 475.48 193.52 475.15C193.47 474.91 193.31 474.72 193.13 474.53C192.97 474.35 192.8 474.16 192.71 473.87V473.27C192.71 473.27 192.58 473.22 192.52 473.2C192.34 473.13 192.18 473.08 192.11 472.98C191.83 472.85 191.07 472.77 190.07 472.75C189.77 473.28 189.94 473.5 190.23 473.9C190.44 474.18 190.71 474.53 190.83 475.08C190.93 475.51 190.83 475.94 190.75 476.29C190.73 476.39 190.71 476.48 190.69 476.56C190.67 476.67 190.7 476.78 190.74 476.9C190.79 477.08 190.85 477.28 190.79 477.54C190.77 477.63 190.75 478.14 190.74 478.54C190.72 479.13 190.71 479.5 190.68 479.62C190.61 479.96 190.68 480.24 190.73 480.45C190.77 480.62 190.81 480.76 190.73 480.88C190.7 480.92 190.65 480.97 190.56 480.99C190.52 481 190.46 481.01 190.38 481.01C190.2 481.01 189.91 480.99 189.56 480.97C189.08 480.94 188.49 480.9 187.99 480.9C187.66 480.9 187.41 480.93 187.24 480.97C187.14 480.99 187.05 481.01 186.95 481.01C186.7 481.01 186.48 480.94 186.27 480.86C186.06 480.78 185.85 480.71 185.61 480.71C185.58 480.71 185.54 480.71 185.5 480.71C185.41 480.71 185.34 480.72 185.27 480.72C184.98 480.72 184.8 480.67 184.63 480.61C184.45 480.55 184.26 480.49 183.87 480.49C183.74 480.49 183.66 480.49 183.59 480.48C183.55 480.48 183.52 480.48 183.49 480.48C183.43 480.48 183.35 480.49 183.15 480.54C183.12 480.54 183.08 480.55 182.95 480.55H182.53C182.53 480.55 182.44 480.55 182.39 480.55H181.44C181.44 480.55 181.38 480.57 181.34 480.57C181.25 480.57 181.16 480.55 181.08 480.53C181.02 480.51 180.96 480.5 180.9 480.5C180.9 480.5 180.8 480.52 180.75 480.52C180.59 480.52 180.46 480.48 180.34 480.43C180.28 480.41 180.18 480.46 180.15 480.37C180.12 480.28 180.89 479.22 181.32 478.67C181.44 478.52 181.65 478.45 181.78 478.31C181.95 478.13 182.04 477.88 182.2 477.68C182.31 477.59 182.41 477.5 182.52 477.41C182.75 477.1 183.02 476.96 183.26 476.65C183.47 476.37 183.93 475.94 184.27 475.8C184.57 475.68 184.76 475.33 184.89 475.02C185.04 474.87 184.58 474.23 184.44 474.02C183.86 473.14 183.12 472.46 182.52 471.63C182.17 471.14 181.57 470.74 181.27 470.29C181.19 470.18 181.05 469.93 180.88 469.65C180.7 469.47 180.53 469.3 180.41 469.12C180.33 469 180.18 468.75 180.01 468.47C179.75 468.28 179.42 468.05 179.26 467.81C179.01 467.44 178.79 467.11 178.55 466.77C178.43 466.67 178.33 466.56 178.26 466.45C177.93 465.96 177.65 465.54 177.31 465.07C177.07 464.82 176.83 464.58 176.59 464.33C176.28 463.85 175.7 462.91 175.37 462.43C175.22 462.21 174.75 461.48 174.17 460.58C174.17 460.5 174.17 460.41 174.17 460.32C174.08 459.96 174.21 459.33 174.32 458.83C174.34 458.72 174.32 458.05 174.32 458.05L174.41 457.52C174.47 457.48 174.66 457.7 174.73 457.7C174.92 457.7 175.32 457.9 175.57 457.84C176.04 457.84 176.16 457.73 176.87 457.84C177.57 457.95 178.29 458.07 178.7 458.08C178.82 458.05 178.94 458.01 179.06 457.96C179.19 457.91 179.31 457.87 179.46 457.83H180.3L180.59 457.77C180.87 457.71 181.17 457.64 181.45 457.55C181.57 457.51 181.68 457.44 181.8 457.36C181.91 457.29 182.01 457.22 182.12 457.17C182.29 457.1 182.46 457.06 182.62 457.03C182.82 456.99 183.01 456.95 183.16 456.85C183.27 456.78 183.35 456.65 183.45 456.52C183.5 456.44 183.56 456.37 183.62 456.3C183.76 456.13 183.95 456 184.12 455.86C184.32 455.71 184.51 455.57 184.63 455.39C184.7 455.3 184.73 455.17 184.76 455.03C184.79 454.89 184.83 454.73 184.92 454.58C185.03 454.4 185.18 454.24 185.33 454.09C185.47 453.95 185.6 453.81 185.7 453.66C185.96 453.24 186.15 453.11 186.28 453.02C186.43 452.92 186.52 452.85 186.67 452.24C186.77 451.84 186.87 451.46 186.8 451.13C186.7 450.68 186.82 450 186.93 449.48L185.63 451.07L183.6 449L183.3 449.07C183.41 449.09 183.52 449.11 183.62 449.16C183.81 449.25 183.87 449.4 183.92 449.53C183.94 449.58 183.96 449.63 183.99 449.67C184 449.69 184.03 449.7 184.07 449.72C184.14 449.75 184.23 449.8 184.3 449.91C184.37 450.04 184.43 450.18 184.49 450.3C184.52 450.36 184.54 450.42 184.58 450.51L184.66 450.88L184.73 451.21C184.9 451.57 184.9 451.64 184.83 452.17V452.63L184.81 452.66C184.68 452.92 184.37 453.04 184.06 453.16C183.87 453.23 183.68 453.31 183.57 453.4C183.45 453.51 183.37 453.63 183.27 453.76C183.12 453.98 182.96 454.21 182.64 454.37C182.38 454.5 182.1 454.59 181.83 454.68C181.63 454.75 181.43 454.81 181.23 454.9C181.12 454.95 181.01 455.01 180.91 455.08C180.79 455.16 180.68 455.23 180.55 455.28C180.39 455.35 180.22 455.39 180.05 455.43C179.9 455.47 179.75 455.5 179.6 455.56C179.13 455.75 178.56 455.98 178.1 456.18C177.7 456.35 176.93 456.48 176.27 456.48C175.72 456.48 174.94 456.26 174.8 456.06C174.78 456.02 174.85 455.41 174.98 455.05C175.01 454.95 174.98 454.87 174.92 454.74C174.85 454.59 174.84 454.5 174.98 454.29C175.03 454.21 175.05 454.04 175.14 453.98C175.19 453.95 175.25 453.91 175.28 453.88C175.39 453.76 175.44 453.62 175.5 453.46C175.56 453.3 175.62 453.14 175.74 452.98C175.79 452.92 175.75 452.82 175.69 452.66C175.63 452.49 175.55 452.29 175.63 452.08C175.71 451.88 175.79 451.71 175.86 451.55C176.04 451.16 176.12 450.98 175.98 450.74L175.88 450.31L175.84 450.22C175.69 449.87 175.63 449.7 175.68 449.32H175.59L173.52 451.2L173.22 450.92C173.2 451.02 173.19 451.12 173.15 451.21C172.97 451.65 172.93 451.73 173.1 452.51C173.19 452.95 173.1 453.14 172.99 453.33C172.9 453.5 172.82 453.65 172.85 454.05C172.86 454.15 172.8 454.28 172.68 454.5C172.63 454.59 172.56 454.73 172.55 454.81C172.5 455.05 172.41 455.26 172.32 455.47C172.24 455.67 172.34 455.88 172.29 456.09C172.26 456.23 172.11 456.34 172.14 456.47C172.19 456.67 172.24 456.9 172.1 457.09C172.08 457.16 172.05 457.22 172.02 457.27C171.38 456.32 170.88 455.62 170.79 455.63C170.54 455.34 170.2 455.04 170.03 454.69C169.87 454.37 169.88 454.01 169.7 453.71C169.45 453.28 169.13 452.85 168.89 452.38C168.75 452.11 168.72 451.82 168.56 451.55C168.41 451.28 168.15 451.03 167.99 450.76C167.86 450.54 167.76 450.32 167.67 450.09L167.5 450.05L165.39 451.28L163.52 449.37L161.66 447.7L159.48 449.41L157.6 448.08L155.49 448.85L153.33 449.87L151.59 447.67L149.63 447.2L147.91 449.09L145.41 447.8L143.91 449.22L143.18 451.42L141.04 452.19L141.24 455.03L140.32 456.83L138.04 457.68L136.95 459.41L136.28 461.4L134.91 462.97L133.72 464.65L134.11 467.21L133.15 469.01L130.76 469.4L129.74 470.78L127.85 471.87L125.76 471.82L123.6 472.61L121.7 470.82L119.37 472.32L117.61 470.08L115.53 469.82L113.52 468.57L111.3 471.29L109.19 469.81L107.02 470.04L106.19 472.96L103.4 472.65L103.42 475.28L101.57 476.51L100.58 478.34L99.3702 480.05L98.0002 482.14L95.6502 480.64L93.7302 480.9L92.4902 479.01L90.5302 478.49L87.7701 478.86L86.3102 477.45L85.6502 474.71L83.5402 474.26L81.6202 473.58L80.3602 470.8L78.2602 470.3L76.1301 470.08L73.9102 471.06L71.9002 470.47L69.8401 469.4L67.7302 469.25L65.8502 471.83L63.8402 471.95L61.8102 472.03L59.6202 471.41L58.1402 474.18L56.1802 474.58L53.9202 473.95L51.6902 473.63L49.4302 473.37L48.6502 477.44L46.5802 477.32L44.8402 478.29L43.0302 479.42L40.9302 479.59L38.9602 477.74L37.1202 477.59L35.9202 475.43L33.4502 476.79L32.4602 474.01L29.7302 476.24L28.0002 475.4L26.3702 473.43L24.3702 473.56L22.4302 473.16L20.4702 472.72L18.5202 473.7L16.6302 475.05L14.5202 471.97L12.6802 473.85L10.6402 474.6L8.47016 473.82L6.54016 475.75L4.19016 473.26L2.07016 473.3L0.100156 474.63L-0.0898438 474.79V843.89H390V467.86L388.49 468.57V468.58ZM194.12 496.46C194.62 496.38 195.1 496.5 195.48 496.33L196.91 496.52C197.78 496.65 198.7 496.53 199.48 496.65C200.54 496.81 201.26 496 202.01 496.84C202.01 497.71 202.09 498.33 202.2 499.02C202.19 499.39 202.18 499.76 202.17 500.12C202.25 500.54 202.62 501.22 202.4 501.81L202.14 502.13C201.63 502.18 201.27 502.03 200.81 501.97H199.32C198.93 501.87 198.54 501.78 198.15 501.68L196.49 501.87C194.41 501.45 191.98 501.55 189.86 501.16C188.92 500.98 187.53 501.58 186.45 501.39L186.16 501.1C186.15 500 186.47 499 186.65 498.11C186.79 497.43 186.53 496.9 187.1 496.68C187.74 496.44 188.36 496.95 189.08 496.81C189.83 496.66 190.73 496.91 191.39 496.81C192.33 496.67 193.28 496.58 194.12 496.45V496.46ZM171.87 510.23V511.46C171.71 512.23 171.08 512.64 170.8 513.31C170.71 513.6 170.63 513.89 170.54 514.19C170.37 514.43 168.54 515.62 168.2 515.75C167.76 515.86 167.31 515.97 166.87 516.07C165.54 516.63 164.4 517.58 163.01 518.15C162.56 518.33 162.03 518.08 161.52 518.21L160.45 518.6C159.94 518.71 159.52 518.69 159.09 518.83C158.47 519.03 157.71 519.63 156.95 519.51C156.86 519.42 156.78 519.34 156.69 519.25C156.67 518.22 157.88 517.05 158.35 516.36C159 515.39 159.35 514.33 159.94 513.27C160.53 512.21 161.43 511.23 162.05 510.18C162.22 509.78 162.4 509.38 162.57 508.98C163.05 508.17 163.76 507.36 164.1 506.41C164.67 504.78 165.3 503.4 165.92 501.93C166.05 501.51 166.18 501.09 166.31 500.66C167.32 499 168.86 497.88 169.95 496.34C170.14 495.92 170.34 495.5 170.53 495.07C170.74 494.81 170.94 494.55 171.15 494.29C171.55 493.62 171.81 492.96 172.25 492.34C172.43 492.15 172.62 491.95 172.8 491.76L173.42 490.72C173.72 490.4 174.03 490.07 174.33 489.75C174.51 489.36 174.7 488.97 174.88 488.58C175.1 488.21 175.43 487.92 175.63 487.51C175.75 487.22 175.87 486.93 175.99 486.63C176.34 486.05 176.88 485.66 177.22 485.01L177.51 485.04L177.54 485.14C177.65 485.41 177.49 485.88 177.44 486.15C177.29 487.02 177.35 487.68 177.12 488.42L176.7 489.36C176.54 489.92 176.92 490.39 176.76 490.95C176.64 491.39 176.38 491.75 176.27 492.25C176.05 493.27 176.04 494.36 175.88 495.27C175.87 495.51 175.86 495.75 175.85 495.98C175.67 496.6 175.29 497.3 175.07 497.99C174.94 498.47 174.81 498.94 174.68 499.42C174.69 499.89 174.7 500.35 174.71 500.82C173.91 503.53 172.98 506.31 172.18 508.97L171.89 510.2L171.87 510.23ZM232.54 519.39C232.4 519.51 232.26 519.63 232.12 519.75C231.75 519.88 231.43 519.62 231.02 519.69C230.57 519.76 229.99 519.9 229.49 519.79L227.67 519.04C227.27 518.94 226.87 518.85 226.47 518.75C225.87 518.46 225.28 518.17 224.68 517.87C223.91 517.54 223.17 517.44 222.28 517.19C221.6 516.8 220.92 516.41 220.23 516.02C219.83 515.9 219.43 515.78 219.03 515.66C218.56 515.47 218.13 515.17 217.6 515.01C217.07 514.88 216.54 514.75 216.01 514.62C215.66 514.44 215.32 514.25 214.97 514.07C214.57 513.96 214.17 513.85 213.77 513.75C213.38 513.53 212.99 513.32 212.6 513.1C212.19 512.98 211.78 512.86 211.37 512.74C210.68 512.39 210.06 511.88 209.16 511.7C208.77 511.72 208.38 511.74 207.99 511.76C207.27 511.65 205.64 511.11 204.94 511.24L204.32 511.43C203.49 511.6 202.91 511 202.11 511.11C201.56 511.23 201.01 511.35 200.45 511.47L199.54 511.4C199.32 511.44 199.11 511.49 198.89 511.53L198.08 511.17C197.61 511.11 197.15 511.04 196.68 510.98C195.42 510.96 194.17 510.94 192.91 510.92C192.04 510.78 190.95 510.63 190.18 510.5C189.16 510.53 188.14 510.56 187.13 510.6C186.78 510.52 186.44 510.45 186.09 510.37C185.46 510.31 184.56 510.62 184.01 510.76C183.5 510.89 182.99 510.78 182.39 510.89C182 511.02 181.61 511.15 181.22 511.28C180.05 511.56 179.14 511.54 177.97 511.83C177.23 512.07 176.5 512.31 175.76 512.54C175.26 512.77 174.76 512.99 174.27 513.22C174.07 513.25 173.98 513.13 173.88 513.06L173.82 512.96C173.83 512.02 174.32 511.65 174.5 510.98C174.53 510.64 174.57 510.31 174.6 509.97C174.86 509.27 175.12 508.56 175.38 507.86C175.64 507.04 175.87 506.16 176.03 505.39C176.07 504.81 176.12 504.22 176.16 503.64C176.3 502.92 176.61 502.09 176.78 501.27C176.88 500.61 176.97 499.95 177.07 499.29C177.43 498.56 177.78 497.84 178.14 497.11C178.19 496.74 178.25 496.37 178.3 496.01C178.42 495.63 178.54 495.25 178.66 494.87C178.67 494.5 178.68 494.13 178.69 493.77C178.91 492.96 179.12 492.15 179.34 491.33C179.54 490.53 179.61 489.55 179.76 488.83C179.78 488.2 179.8 487.57 179.82 486.95C180.06 486.27 180.3 485.59 180.53 484.9C180.68 484.13 180.45 483.36 180.6 482.66C180.71 482.56 180.82 482.47 180.92 482.37C181.29 482.42 182.19 482.43 182.58 482.56C182.81 482.7 183.03 482.84 183.26 482.98L184.49 483.21C185.1 483.33 185.54 483 186.21 483.11C187.14 483.25 188.07 483.39 189 483.53C189.89 483.67 190.2 483.01 190.98 483.17C191.1 483.33 191.22 483.49 191.34 483.66C191.52 484.25 191.33 484.96 191.47 485.64C191.58 486.17 192 487.58 191.86 488.24C191.74 488.54 191.62 488.85 191.5 489.15C191.59 489.59 191.67 490.04 191.76 490.48C191.87 491.02 191.76 491.66 191.66 492.1C191.49 492.96 192.23 494.58 191.33 494.86C190.89 495 187.92 494.95 187.5 494.83C186.93 494.66 186.6 494.33 185.88 494.18C185.13 494.03 183.98 493.44 183.67 494.28L183.57 496.91C183.63 497.26 183.94 497.53 183.83 498.01C183.68 498.33 183.53 498.66 183.38 498.98C183.19 499.61 183.4 500.24 183.25 500.96C183.04 501.52 182.84 502.09 182.63 502.65C182.38 503.94 182.65 505.26 183.64 505.48C183.95 505.55 184.26 505.42 184.45 505.35C185.97 504.83 185.03 504.03 185.98 503.37C187.15 503.54 188.94 503.71 190.2 503.5C190.64 503.52 191.09 503.54 191.53 503.56C192.08 503.45 192.35 502.97 193.15 503.11C193.8 503.22 193.96 503.67 194.48 503.79C194.97 503.9 195.14 503.43 195.65 503.56C195.92 503.71 196.19 503.86 196.46 504.01C197.32 504.24 198.53 504.18 199.38 504.04C200.17 503.91 201.99 504.27 202.76 504.43C203.1 504.5 203.65 504.82 204.06 504.59C205.44 503.81 204.85 501.26 204.61 499.75C204.52 499.21 204.75 498.58 204.64 497.93C204.5 497.04 205.09 495.99 204.64 495.23C203.82 493.85 201.76 493.75 199.77 494.06L199.02 493.99L197.85 494.15L196.97 494.12C196.26 494.26 194.77 494.77 194.05 494.25L194.02 494.19C194.07 493.91 194.13 493.63 194.18 493.35C194.12 492.34 194.05 491.34 193.99 490.33C193.92 489.84 194.02 489.36 194.35 489.26C195.05 489.05 195.77 489.5 196.43 489.42L197.76 489.32L198.57 489.42C198.89 489.31 199.22 489.2 199.54 489.1C199.82 489.14 200.1 489.19 200.38 489.23L201.35 489.1C202.27 488.92 203.22 489.38 203.56 488.61C203.14 487.39 202.51 487.32 201.25 486.95C200.93 486.86 200.55 486.61 200.11 486.66C199.67 486.79 199.22 486.92 198.78 487.05C198.46 487.06 198.13 487.07 197.81 487.08L196.77 487.34H195.54C195.16 487.44 194.91 487.68 194.47 487.73C194.18 487.56 194.06 487.25 194.15 486.72C194.26 486.05 194.3 485.34 194.15 484.64C194.06 484.2 193.83 483.72 193.92 483.21C194.63 482.48 196.43 483.06 197.59 482.89C198.19 482.8 198.63 482.35 199.21 482.44C199.68 482.55 200.14 482.66 200.61 482.76C201.7 482.94 202.77 482.63 203.57 482.5C204.3 482.38 204.92 482.54 205.45 482.27C206.44 482.27 206.93 483.32 207.46 483.83C209.13 485.44 210.59 487.27 211.94 489.19C212.34 489.75 212.9 490.15 213.3 490.68C214.36 492.08 215.16 493.63 216.19 495.03C217.03 496.05 217.88 497.07 218.72 498.08C219.15 498.68 219.66 499.31 220.02 499.93C220.14 500.21 220.26 500.49 220.38 500.77C220.72 501.13 221.05 501.48 221.39 501.84C221.63 502.31 221.87 502.77 222.1 503.24C222.46 503.63 222.81 504.02 223.17 504.41C223.51 504.89 223.93 505.39 224.21 505.87L224.57 506.65C224.84 506.94 225.11 507.23 225.38 507.53C225.46 507.89 225.53 508.24 225.61 508.6C225.77 508.86 225.93 509.12 226.1 509.38C226.36 509.96 226.45 510.52 226.72 511.04C227.52 512.58 228.63 513.89 229.64 515.23C230.14 515.89 230.64 516.55 231.13 517.21C231.45 517.54 232.97 518.58 232.49 519.35L232.54 519.39Z" fill="#B9CED1"/>
<path d="M189.09 496.81C188.37 496.95 187.74 496.44 187.11 496.68C186.53 496.9 186.79 497.43 186.66 498.11C186.48 498.99 186.16 500 186.17 501.1L186.46 501.39C187.54 501.59 188.93 500.99 189.87 501.16C191.98 501.56 194.42 501.45 196.5 501.87L198.16 501.68C198.55 501.78 198.94 501.87 199.33 501.97H200.82C201.28 502.03 201.64 502.18 202.15 502.13L202.41 501.81C202.64 501.22 202.26 500.54 202.18 500.12C202.19 499.75 202.2 499.38 202.21 499.02C202.09 498.33 202.01 497.72 202.02 496.84C201.27 496 200.55 496.81 199.49 496.65C198.72 496.53 197.79 496.65 196.92 496.52L195.49 496.33C195.11 496.5 194.62 496.38 194.13 496.46C193.3 496.59 192.34 496.68 191.4 496.82C190.74 496.92 189.85 496.67 189.09 496.82V496.81Z" fill="white"/>
<path d="M174.67 499.44C174.8 498.96 174.93 498.49 175.06 498.01C175.28 497.32 175.66 496.62 175.84 496C175.85 495.76 175.86 495.52 175.87 495.29C176.03 494.38 176.04 493.29 176.26 492.27C176.36 491.77 176.62 491.41 176.75 490.97C176.91 490.41 176.53 489.93 176.69 489.38L177.11 488.44C177.34 487.69 177.29 487.04 177.43 486.17C177.48 485.91 177.63 485.43 177.53 485.16L177.5 485.06L177.21 485.03C176.86 485.68 176.33 486.07 175.98 486.65C175.86 486.94 175.74 487.23 175.62 487.53C175.42 487.94 175.09 488.23 174.87 488.6C174.69 488.99 174.5 489.38 174.32 489.77C174.02 490.09 173.71 490.42 173.41 490.74L172.79 491.78C172.61 491.97 172.42 492.17 172.24 492.36C171.8 492.98 171.53 493.64 171.14 494.31C170.93 494.57 170.73 494.83 170.52 495.09C170.33 495.51 170.13 495.93 169.94 496.36C168.85 497.9 167.31 499.02 166.3 500.68C166.17 501.1 166.04 501.52 165.91 501.95C165.29 503.42 164.66 504.8 164.09 506.43C163.76 507.38 163.04 508.19 162.56 509C162.39 509.4 162.21 509.8 162.04 510.2C161.42 511.24 160.52 512.22 159.93 513.29C159.34 514.35 158.99 515.4 158.34 516.38C157.88 517.07 156.66 518.24 156.68 519.27C156.77 519.36 156.85 519.44 156.94 519.53C157.7 519.65 158.46 519.05 159.08 518.85C159.52 518.71 159.93 518.73 160.44 518.62L161.51 518.23C162.03 518.09 162.55 518.35 163 518.17C164.4 517.6 165.54 516.66 166.86 516.09C167.3 515.98 167.75 515.87 168.19 515.77C168.52 515.64 170.35 514.45 170.53 514.21C170.62 513.92 170.7 513.63 170.79 513.33C171.07 512.66 171.7 512.25 171.86 511.48V510.25L172.15 509.02C172.95 506.36 173.89 503.57 174.68 500.87C174.67 500.4 174.66 499.94 174.65 499.47L174.67 499.44Z" fill="white"/>
<path d="M231.17 517.24C230.67 516.58 230.17 515.92 229.68 515.26C228.67 513.92 227.56 512.61 226.76 511.07C226.49 510.55 226.4 509.99 226.14 509.41C225.98 509.15 225.82 508.89 225.65 508.63C225.57 508.27 225.5 507.92 225.42 507.56C225.15 507.27 224.88 506.98 224.61 506.68L224.25 505.9C223.97 505.41 223.55 504.92 223.21 504.44C222.85 504.05 222.5 503.66 222.14 503.27C221.9 502.8 221.66 502.34 221.43 501.87C221.09 501.51 220.76 501.16 220.42 500.8C220.3 500.52 220.18 500.24 220.06 499.96C219.7 499.34 219.19 498.71 218.76 498.11C217.92 497.09 217.07 496.07 216.23 495.06C215.2 493.65 214.4 492.11 213.34 490.71C212.94 490.17 212.37 489.78 211.98 489.22C210.63 487.3 209.17 485.47 207.5 483.86C206.97 483.35 206.48 482.3 205.49 482.3C204.96 482.57 204.34 482.41 203.61 482.53C202.82 482.66 201.75 482.97 200.65 482.79C200.18 482.68 199.72 482.57 199.25 482.47C198.66 482.39 198.23 482.83 197.63 482.92C196.47 483.1 194.67 482.52 193.96 483.24C193.87 483.75 194.09 484.23 194.19 484.67C194.34 485.37 194.3 486.08 194.19 486.75C194.1 487.28 194.23 487.59 194.51 487.76C194.95 487.71 195.21 487.47 195.58 487.37H196.81L197.85 487.11C198.17 487.1 198.5 487.09 198.82 487.08C199.26 486.95 199.71 486.82 200.15 486.69C200.58 486.64 200.97 486.89 201.29 486.98C202.55 487.34 203.18 487.42 203.6 488.64C203.26 489.41 202.31 488.95 201.39 489.13L200.42 489.26C200.14 489.22 199.86 489.17 199.58 489.13C199.26 489.24 198.93 489.35 198.61 489.45L197.8 489.35L196.47 489.45C195.81 489.53 195.09 489.07 194.39 489.29C194.07 489.39 193.96 489.88 194.03 490.36C194.09 491.37 194.16 492.37 194.22 493.38C194.17 493.66 194.11 493.94 194.06 494.22L194.09 494.28C194.81 494.8 196.3 494.28 197.01 494.15L197.89 494.18L199.06 494.02L199.81 494.09C201.81 493.78 203.86 493.88 204.68 495.26C205.13 496.01 204.54 497.06 204.68 497.96C204.78 498.61 204.56 499.24 204.65 499.78C204.89 501.29 205.47 503.84 204.1 504.62C203.69 504.85 203.14 504.53 202.8 504.46C202.04 504.3 200.21 503.94 199.42 504.07C198.57 504.21 197.36 504.27 196.5 504.04C196.23 503.89 195.96 503.74 195.69 503.59C195.18 503.46 195.01 503.93 194.52 503.82C194 503.7 193.84 503.25 193.19 503.14C192.39 503.01 192.11 503.48 191.57 503.59C191.13 503.57 190.68 503.55 190.24 503.53C188.98 503.74 187.19 503.57 186.02 503.4C185.08 504.06 186.02 504.87 184.49 505.38C184.29 505.45 183.98 505.58 183.68 505.51C182.7 505.3 182.42 503.98 182.67 502.68C182.88 502.12 183.08 501.55 183.29 500.99C183.44 500.27 183.23 499.63 183.42 499.01C183.57 498.69 183.72 498.36 183.87 498.04C183.98 497.55 183.67 497.29 183.61 496.94L183.71 494.31C184.02 493.47 185.17 494.06 185.92 494.21C186.64 494.36 186.98 494.69 187.54 494.86C187.96 494.99 190.93 495.03 191.37 494.89C192.27 494.61 191.52 492.99 191.7 492.13C191.79 491.69 191.91 491.04 191.8 490.51C191.71 490.07 191.63 489.62 191.54 489.18C191.66 488.88 191.78 488.57 191.9 488.27C192.04 487.61 191.62 486.2 191.51 485.67C191.37 484.99 191.56 484.28 191.38 483.69C191.26 483.53 191.14 483.37 191.02 483.2C190.24 483.04 189.92 483.7 189.04 483.56C188.11 483.42 187.18 483.28 186.25 483.14C185.58 483.03 185.14 483.36 184.53 483.24L183.3 483.01C183.07 482.87 182.85 482.73 182.62 482.59C182.24 482.45 181.33 482.45 180.96 482.4C180.85 482.5 180.74 482.59 180.64 482.69C180.5 483.39 180.73 484.16 180.57 484.93C180.33 485.61 180.09 486.29 179.86 486.98C179.84 487.61 179.82 488.24 179.8 488.86C179.64 489.58 179.58 490.56 179.38 491.36C179.16 492.17 178.95 492.98 178.73 493.8C178.72 494.17 178.71 494.54 178.7 494.9C178.58 495.28 178.46 495.66 178.34 496.04C178.29 496.41 178.23 496.78 178.18 497.14C177.82 497.87 177.47 498.59 177.11 499.32C177.01 499.98 176.92 500.64 176.82 501.3C176.65 502.12 176.34 502.95 176.2 503.67C176.16 504.25 176.11 504.84 176.07 505.42C175.91 506.18 175.68 507.07 175.42 507.89C175.16 508.59 174.9 509.3 174.64 510C174.61 510.34 174.58 510.67 174.54 511.01C174.36 511.69 173.87 512.05 173.86 512.99L173.92 513.09C174.02 513.16 174.11 513.29 174.31 513.25C174.81 513.02 175.31 512.8 175.8 512.57C176.54 512.33 177.27 512.09 178.01 511.86C179.17 511.57 180.09 511.59 181.26 511.31C181.65 511.18 182.04 511.05 182.43 510.92C183.03 510.81 183.54 510.92 184.05 510.79C184.59 510.66 185.5 510.34 186.13 510.4C186.48 510.48 186.82 510.55 187.17 510.63C188.19 510.6 189.21 510.57 190.22 510.53C190.99 510.67 192.08 510.81 192.95 510.95C194.21 510.97 195.46 510.99 196.72 511.01C197.19 511.07 197.65 511.14 198.12 511.2L198.93 511.56C199.15 511.52 199.36 511.47 199.58 511.43L200.49 511.5C201.04 511.38 201.59 511.26 202.15 511.14C202.95 511.04 203.53 511.64 204.36 511.46L204.98 511.27C205.68 511.14 207.31 511.68 208.03 511.79C208.42 511.77 208.81 511.75 209.2 511.73C210.1 511.91 210.72 512.42 211.41 512.77C211.82 512.89 212.23 513.01 212.64 513.13C213.03 513.35 213.42 513.56 213.81 513.78C214.21 513.89 214.61 514 215.01 514.1C215.36 514.28 215.7 514.47 216.05 514.65C216.58 514.78 217.11 514.91 217.64 515.04C218.17 515.2 218.6 515.5 219.07 515.69C219.47 515.81 219.87 515.93 220.27 516.05C220.95 516.44 221.63 516.83 222.32 517.22C223.22 517.48 223.96 517.58 224.72 517.9C225.32 518.19 225.91 518.48 226.51 518.78C226.91 518.88 227.31 518.97 227.71 519.07L229.53 519.82C230.03 519.94 230.61 519.79 231.06 519.72C231.47 519.66 231.79 519.92 232.16 519.78C232.3 519.66 232.44 519.54 232.58 519.42C233.06 518.64 231.53 517.61 231.22 517.28L231.17 517.24Z" fill="white"/>
<path d="M213.21 446.9C213.44 446.85 213.67 446.82 213.91 446.79L213.47 446.33L213.21 446.9Z" fill="white"/>
<path d="M221.35 444.98L219.56 446.39L217.46 445.95L216.94 446.89C217.01 446.92 217.08 446.95 217.15 446.99C217.37 447.11 217.56 447.39 217.73 447.67C217.84 447.84 217.95 448.02 218.08 448.16C218.04 448.64 217.83 449.07 217.62 449.48C217.5 449.72 217.39 449.94 217.31 450.17C216.96 451.21 216.44 453.26 216.91 455.32C216.96 455.55 216.89 455.84 216.84 456.04L216.81 456.16C216.74 456.47 216.73 456.68 216.72 456.86C216.71 457.11 216.39 457.72 216.53 457.72C216.87 457.29 217.11 456.98 217.17 456.89C217.47 456.49 217.96 456.22 218.26 455.84C218.48 455.56 218.64 455.26 218.86 454.97C219.24 454.64 219.62 454.3 220 453.97C220.37 453.48 220.67 453.01 221.04 452.53C221.28 452.22 221.65 451.99 221.88 451.67C222.08 451.28 222.28 450.9 222.48 450.51C222.68 450.22 223.02 450.03 223.22 449.74C223.58 449.22 223.9 448.57 224.22 448.05C224.55 447.5 224.89 446.61 225.08 445.97C225.16 445.69 225.2 445.4 225.24 445.12L223.28 444.61L221.34 444.97L221.35 444.98Z" fill="white"/>
<path d="M180.46 449.07C179.91 449.1 179.37 449.14 179.05 449.19C178.97 449.2 178.88 449.21 178.79 449.21C178.52 449.21 178.2 449.16 177.88 449.1L177.66 449.14L175.74 449.44C175.7 449.82 175.76 449.99 175.9 450.34L175.94 450.43L176.04 450.86C176.18 451.1 176.1 451.28 175.92 451.67C175.85 451.82 175.77 452 175.69 452.2C175.61 452.41 175.69 452.61 175.75 452.78C175.81 452.94 175.84 453.04 175.8 453.1C175.68 453.26 175.62 453.42 175.56 453.58C175.5 453.73 175.45 453.88 175.34 454C175.32 454.03 175.25 454.06 175.2 454.1C175.11 454.16 175.09 454.33 175.04 454.41C174.9 454.62 174.91 454.71 174.98 454.86C175.04 454.99 175.08 455.08 175.04 455.17C174.91 455.53 174.84 456.14 174.86 456.18C175 456.38 175.78 456.6 176.33 456.6C176.99 456.6 177.76 456.47 178.16 456.3C178.62 456.1 179.18 455.87 179.66 455.68C179.81 455.62 179.96 455.58 180.11 455.55C180.27 455.51 180.44 455.47 180.61 455.4C180.74 455.35 180.85 455.27 180.97 455.2C181.07 455.13 181.17 455.07 181.29 455.02C181.49 454.94 181.7 454.87 181.89 454.8C182.16 454.71 182.44 454.62 182.7 454.49C183.02 454.33 183.17 454.1 183.33 453.88C183.42 453.75 183.51 453.63 183.63 453.52C183.73 453.43 183.93 453.35 184.12 453.28C184.43 453.16 184.74 453.04 184.87 452.78L184.89 452.75V452.29C184.96 451.76 184.96 451.69 184.79 451.33L184.72 451L184.64 450.63C184.6 450.54 184.58 450.48 184.55 450.42C184.5 450.3 184.44 450.16 184.36 450.03C184.3 449.92 184.2 449.87 184.13 449.84C184.09 449.82 184.06 449.81 184.05 449.79C184.02 449.74 184 449.69 183.98 449.65C183.93 449.53 183.86 449.38 183.68 449.28C183.58 449.23 183.47 449.21 183.36 449.19L181.67 449.6L180.47 449.11L180.46 449.07Z" fill="white"/>
<path d="M169.57 450.63L167.75 450.22C167.84 450.44 167.93 450.66 168.07 450.89C168.23 451.16 168.49 451.4 168.64 451.68C168.8 451.95 168.83 452.24 168.97 452.51C169.2 452.97 169.52 453.4 169.78 453.84C169.95 454.14 169.94 454.5 170.11 454.82C170.29 455.17 170.63 455.47 170.87 455.76C170.96 455.76 171.46 456.45 172.1 457.4C172.13 457.35 172.16 457.29 172.18 457.22C172.32 457.04 172.26 456.81 172.22 456.6C172.19 456.46 172.34 456.35 172.37 456.22C172.42 456.01 172.32 455.8 172.4 455.6C172.49 455.39 172.58 455.18 172.63 454.94C172.64 454.86 172.72 454.72 172.76 454.63C172.88 454.4 172.94 454.28 172.93 454.18C172.9 453.78 172.98 453.63 173.07 453.46C173.17 453.27 173.27 453.08 173.18 452.64C173.01 451.86 173.05 451.78 173.23 451.34C173.27 451.25 173.29 451.15 173.3 451.05L171.66 449.49L169.59 450.66L169.57 450.63Z" fill="white"/>
<path d="M197.42 461.76C197.38 461.7 197.37 461.61 197.36 461.52C197.35 461.42 197.33 461.31 197.28 461.2C197.24 461.1 197.14 461.04 197.02 461.04C196.96 461.04 196.9 461.05 196.85 461.07C196.81 461.07 196.77 461.09 196.75 461.09L196.7 461.03L196.65 461.05L195.62 461L195.58 461.03C195.53 461.06 195.46 461.08 195.34 461.08H195.12C195.04 461.08 194.92 461.08 194.8 461.11C194.58 461.16 194.41 461.19 194.23 461.21C194.04 461.23 193.85 461.26 193.61 461.32C193.47 461.36 193.32 461.37 193.1 461.37C193.01 461.37 192.91 461.37 192.82 461.37C192.73 461.37 192.63 461.37 192.54 461.37C192.28 461.37 191.99 461.39 191.75 461.54C191.27 461.85 191.29 462.41 191.3 462.96C191.3 463.27 191.31 463.59 191.24 463.88C191.18 464.12 191.32 464.23 191.4 464.28C191.46 464.33 191.49 464.35 191.49 464.46V464.53L191.54 464.58C191.61 464.65 191.71 464.79 191.81 464.94L191.85 465.01H191.93C192.12 465.04 192.26 465.07 192.39 465.09C192.57 465.12 192.73 465.15 192.9 465.15C193.04 465.15 193.17 465.13 193.33 465.1L194.06 465.15C194.26 465.11 194.45 465.07 194.64 465.03L195.03 464.95C195.03 464.95 195.12 464.94 195.17 464.94C195.34 464.94 195.54 465 195.72 465.06C195.91 465.12 196.11 465.18 196.3 465.18C196.48 465.18 196.63 465.13 196.76 465.02C197 464.94 197.1 464.67 197.19 464.43C197.22 464.35 197.25 464.27 197.29 464.19C197.33 464.11 197.38 464.02 197.43 463.94C197.58 463.67 197.75 463.36 197.84 463.04C197.98 462.52 197.72 462.21 197.53 461.98C197.48 461.92 197.42 461.86 197.39 461.79L197.42 461.76Z" fill="white"/>
<path d="M197.77 450.52L195.8 451.28L193.75 450.87L191.75 451.24L189.71 450.59L187.74 448.84C187.74 448.84 187.64 448.84 187.58 448.84L186.99 449.56C186.89 450.08 186.77 450.76 186.86 451.21C186.93 451.54 186.83 451.92 186.73 452.32C186.58 452.93 186.49 453 186.34 453.1C186.2 453.19 186.02 453.32 185.76 453.74C185.67 453.89 185.53 454.03 185.39 454.17C185.24 454.32 185.09 454.47 184.98 454.66C184.89 454.81 184.86 454.97 184.82 455.11C184.79 455.25 184.76 455.38 184.69 455.47C184.56 455.65 184.38 455.79 184.18 455.94C184 456.07 183.82 456.21 183.68 456.38C183.62 456.45 183.57 456.52 183.51 456.6C183.42 456.73 183.33 456.86 183.22 456.93C183.07 457.03 182.88 457.07 182.68 457.11C182.51 457.14 182.34 457.18 182.18 457.25C182.07 457.3 181.96 457.37 181.86 457.44C181.74 457.52 181.63 457.59 181.51 457.63C181.22 457.72 180.93 457.79 180.65 457.85L180.36 457.92H179.52C179.37 457.95 179.24 457.99 179.12 458.04C179 458.09 178.87 458.13 178.76 458.16C178.35 458.15 177.63 458.03 176.93 457.92C176.22 457.81 176.1 457.92 175.63 457.92C175.39 457.98 174.98 457.78 174.79 457.78C174.72 457.78 174.53 457.56 174.47 457.6L174.38 458.13C174.38 458.13 174.41 458.8 174.38 458.91C174.28 459.41 174.15 460.04 174.23 460.4C174.23 460.49 174.23 460.58 174.23 460.66C174.81 461.56 175.28 462.29 175.43 462.51C175.76 462.98 176.34 463.92 176.65 464.41C176.89 464.66 177.13 464.9 177.37 465.15C177.71 465.61 177.99 466.04 178.32 466.53C178.39 466.64 178.5 466.74 178.61 466.85C178.85 467.19 179.07 467.52 179.32 467.89C179.48 468.13 179.81 468.36 180.07 468.55C180.24 468.83 180.39 469.09 180.47 469.2C180.59 469.38 180.76 469.56 180.94 469.73C181.11 470.01 181.25 470.26 181.33 470.37C181.63 470.82 182.23 471.22 182.58 471.71C183.18 472.54 183.92 473.23 184.5 474.1C184.64 474.31 185.1 474.95 184.95 475.1C184.82 475.4 184.64 475.75 184.33 475.88C183.99 476.01 183.53 476.45 183.32 476.73C183.09 477.04 182.81 477.18 182.58 477.49C182.47 477.58 182.36 477.67 182.26 477.76C182.11 477.96 182.02 478.21 181.84 478.39C181.71 478.53 181.5 478.6 181.38 478.75C180.96 479.3 180.19 480.36 180.21 480.45C180.24 480.54 180.33 480.48 180.4 480.51C180.53 480.55 180.66 480.6 180.81 480.6C180.86 480.6 180.91 480.6 180.96 480.58C181.02 480.58 181.08 480.6 181.14 480.61C181.22 480.63 181.31 480.65 181.4 480.65C181.44 480.65 181.47 480.65 181.5 480.64H182.45C182.45 480.64 182.54 480.63 182.59 480.63H183.01C183.14 480.63 183.18 480.63 183.21 480.62C183.41 480.57 183.49 480.56 183.55 480.56C183.58 480.56 183.62 480.56 183.65 480.56C183.72 480.56 183.8 480.57 183.93 480.57C184.31 480.57 184.5 480.63 184.69 480.69C184.86 480.75 185.03 480.8 185.33 480.8C185.4 480.8 185.48 480.8 185.56 480.79C185.6 480.79 185.63 480.79 185.67 480.79C185.92 480.79 186.12 480.86 186.33 480.94C186.54 481.01 186.76 481.09 187.01 481.09C187.11 481.09 187.2 481.08 187.3 481.05C187.47 481.01 187.72 480.98 188.05 480.98C188.55 480.98 189.14 481.02 189.62 481.05C189.97 481.07 190.26 481.09 190.44 481.09C190.52 481.09 190.58 481.09 190.62 481.07C190.71 481.05 190.76 481 190.79 480.96C190.86 480.85 190.83 480.71 190.79 480.53C190.74 480.32 190.67 480.04 190.74 479.7C190.77 479.58 190.78 479.21 190.8 478.62C190.81 478.21 190.83 477.71 190.85 477.62C190.91 477.37 190.85 477.16 190.8 476.98C190.76 476.85 190.73 476.74 190.75 476.64C190.76 476.56 190.78 476.47 190.81 476.37C190.89 476.02 190.99 475.59 190.89 475.16C190.76 474.62 190.5 474.27 190.29 473.98C189.99 473.58 189.82 473.36 190.13 472.83C191.12 472.85 191.89 472.94 192.17 473.06C192.25 473.16 192.4 473.21 192.58 473.28C192.64 473.3 192.72 473.33 192.77 473.35V473.95C192.86 474.25 193.03 474.43 193.19 474.61C193.36 474.8 193.53 474.99 193.58 475.23C193.64 475.56 193.46 476.29 193.35 476.77C193.31 476.93 193.28 477.07 193.26 477.16C193.22 477.35 193.28 477.51 193.32 477.65C193.37 477.78 193.4 477.89 193.37 478.03C193.34 478.16 193.28 478.35 193.23 478.53C193.15 478.8 193.07 479.09 193.03 479.29C192.99 479.44 192.92 479.54 192.83 479.64C192.78 479.7 192.72 479.77 192.68 479.84C192.68 479.84 192.24 480.76 192.41 480.98L192.46 481.04C192.46 481.04 192.64 481.04 192.7 481.04C193.05 481.04 193.52 480.99 194.03 480.95C194.61 480.9 195.21 480.84 195.71 480.84C196 480.84 196.22 480.85 196.37 480.88H196.45C196.64 480.88 196.86 480.86 197.08 480.85C197.32 480.83 197.57 480.82 197.74 480.82C197.79 480.84 197.88 480.84 197.97 480.84C198.23 480.84 198.44 480.75 198.65 480.67C198.84 480.6 199.01 480.53 199.2 480.52C199.26 480.52 199.33 480.52 199.39 480.54C199.62 480.52 199.89 480.48 200.17 480.44C200.44 480.4 200.71 480.35 200.88 480.33C200.91 480.34 200.99 480.35 201.07 480.35C201.32 480.35 201.54 480.27 201.78 480.18C201.92 480.13 202.07 480.07 202.24 480.04L202.42 480C202.7 479.94 202.94 479.88 203.16 479.88C203.25 479.88 203.33 479.88 203.41 479.9C203.42 479.9 203.43 479.9 203.45 479.9C203.62 479.9 203.76 479.87 203.89 479.84C203.99 479.82 204.11 479.87 204.18 479.79C204.25 479.71 203.98 479.58 203.94 479.54C203.07 478.64 201.66 477.09 201.6 476.6C201.54 476.15 202.11 475.22 202.28 474.97C202.47 474.69 202.59 474.35 202.79 474.07C202.99 473.88 203.19 473.68 203.39 473.49C203.55 473.24 203.7 472.99 203.85 472.75L204.08 472.53C204.14 472.43 204.2 472.34 204.26 472.24V472.22C204.57 471.95 204.86 471.68 205.15 471.42C205.36 471.29 205.6 471.25 205.79 471.11C206.01 470.95 206.13 470.66 206.3 470.44C206.43 470.27 206.63 470.17 206.81 470.04C207.03 469.88 207.15 469.59 207.32 469.37C207.5 469.21 207.69 469.04 207.87 468.88C208.05 468.65 208.2 468.44 208.38 468.21C208.69 467.93 208.99 467.64 209.3 467.36C209.51 467.08 209.74 466.79 209.95 466.5H209.83C210.02 466.32 210.22 466.14 210.41 465.97C210.75 465.53 211.12 465.08 211.4 464.62C211.55 464.38 211.59 464.12 211.75 463.9C212.24 463.23 212.93 462.64 213.39 461.93C213.48 461.79 213.9 461.24 214.43 460.56C214.37 460.35 214.32 460.17 214.39 460.03C214.45 459.9 214.44 459.76 214.43 459.63C214.43 459.55 214.42 458.87 214.44 458.83L214.47 458.79V458.74C214.47 458.57 214.5 458.46 214.53 458.38C214.57 458.24 214.6 458.11 214.46 457.91L214.41 457.84H214.33C214.26 457.83 214.18 457.83 214.1 457.83H213.61C213.44 457.83 213.22 457.83 213.04 457.79C212.94 457.77 212.86 457.76 212.79 457.76C212.67 457.76 212.58 457.79 212.45 457.82C212.38 457.84 212.28 457.87 212.16 457.89C212.04 457.92 211.91 457.93 211.77 457.93C211.56 457.93 211.35 457.9 211.14 457.87C210.93 457.84 210.72 457.81 210.5 457.81C210.35 457.81 210.21 457.82 210.08 457.85C210.01 457.87 209.93 457.88 209.86 457.88C209.67 457.88 209.51 457.83 209.34 457.77C209.18 457.72 209.02 457.67 208.85 457.67C208.65 457.67 208.46 457.74 208.28 457.89H207.31C207.2 457.84 207.09 457.78 206.97 457.72C206.74 457.6 206.49 457.48 206.24 457.4C206.14 457.4 206 457.32 205.91 457.28C205.76 457.21 205.61 457.14 205.5 457.14C205.16 457.14 205.14 457.11 205.07 456.96C205.03 456.89 204.99 456.8 204.92 456.7C204.81 456.55 204.74 456.38 204.67 456.19C204.62 456.06 204.56 455.93 204.5 455.8C204.37 455.56 204.15 455.45 203.96 455.37C203.74 455.27 203.66 455.05 203.61 454.84L203.58 454.43C203.55 454.27 203.48 454.12 203.41 453.95C203.27 453.64 203.1 453.26 203.16 452.98C203.2 452.77 203.27 452.39 203.21 452.13C203.12 451.77 203.09 451.35 203.06 450.91C203.01 450.31 202.97 450.28 202.77 449.8C202.71 449.65 202.6 449.53 202.51 449.43C202.46 449.37 202.41 449.31 202.37 449.25L202.33 449.19L202.27 449.17C202.27 449.17 202.2 449.15 202.16 449.13C202.06 449.09 201.94 449.05 201.79 449.05C201.73 449.05 201.67 449.05 201.61 449.07C201.57 449.07 201.52 449.1 201.46 449.11C201.37 449.14 201.28 449.17 201.18 449.17C201.15 449.17 201.12 449.17 201.09 449.17C201.03 449.16 200.95 449.15 200.88 449.14L199.82 450.19L197.83 450.57L197.77 450.52ZM200.6 460.02C200.78 460.3 200.85 460.4 200.98 460.4H201.06C201.18 460.4 201.26 460.46 201.35 460.53C201.37 460.55 201.39 460.56 201.41 460.57C201.52 461.27 201.33 461.74 201.12 462.24C201.02 462.47 200.93 462.71 200.86 462.97C200.76 463.36 200.83 463.66 200.89 463.92C200.95 464.17 201 464.39 200.91 464.66C200.75 465.15 200.35 465.83 199.95 466.14C199.9 466.18 199.85 466.21 199.8 466.25C199.62 466.38 199.41 466.53 199.28 466.72C199.21 466.83 199.19 466.94 199.18 467.03C199.17 467.1 199.16 467.16 199.13 467.22L198.86 467.48L197.99 467.62H197.43C197.35 467.63 197.3 467.64 197.26 467.64C197.12 467.64 196.97 467.59 196.8 467.54C196.67 467.5 196.52 467.46 196.37 467.43C196.06 467.37 195.67 467.23 195.29 467.09C194.97 466.97 194.68 466.86 194.42 466.8H193.7C193.49 466.74 193.21 466.7 192.91 466.65C192.65 466.61 192.38 466.56 192.12 466.51C191.83 466.51 191.76 466.76 191.71 466.92C191.69 466.98 191.66 467.08 191.64 467.1C191.47 467.05 191.3 467.04 191.15 467.02C190.92 467 190.76 466.99 190.55 466.86C190.44 466.79 190.32 466.75 190.21 466.7C190.03 466.63 189.87 466.56 189.78 466.42C189.73 466.35 189.71 466.26 189.69 466.16C189.67 466.07 189.65 465.97 189.6 465.86C189.56 465.76 189.48 465.63 189.4 465.48C189.24 465.19 189.04 464.83 188.99 464.59L189.02 463.83L189.04 463.03C189.02 462.9 188.98 462.79 188.94 462.64C188.76 462 188.33 460.49 188.54 459.96C188.68 459.63 188.6 459.2 188.54 458.86C188.52 458.76 188.5 458.62 188.49 458.55C188.55 458.55 188.62 458.55 188.71 458.55C188.83 458.55 189.43 458.56 189.59 458.56C189.97 458.56 190.17 458.54 190.28 458.5C190.31 458.52 190.5 458.67 190.62 458.77C190.88 458.97 191.04 459.1 191.19 459.1H191.28C191.42 459.09 191.49 459.19 191.59 459.35C191.71 459.54 191.85 459.75 192.1 459.75C192.14 459.75 192.19 459.75 192.23 459.73C192.36 459.69 192.46 459.6 192.56 459.52C192.62 459.47 192.69 459.41 192.74 459.39C192.86 459.34 193.1 459.32 193.29 459.3C193.43 459.29 193.56 459.27 193.64 459.25C193.71 459.23 193.78 459.23 193.85 459.23C194.05 459.23 194.25 459.29 194.42 459.34C194.5 459.36 194.57 459.38 194.64 459.4C194.73 459.42 194.86 459.43 195.02 459.43C195.49 459.43 196.32 459.34 196.61 459.21C196.76 459.22 196.87 459.26 196.99 459.3C197.05 459.32 197.11 459.34 197.17 459.35C197.17 459.35 198.14 459.35 198.15 459.35C198.4 459.35 198.57 459.2 198.74 459.06C198.86 458.95 199.01 458.83 199.1 458.83C199.32 458.91 199.52 459.08 199.71 459.24C199.93 459.42 200.14 459.59 200.35 459.67C200.39 459.7 200.54 459.93 200.62 460.05L200.6 460.02Z" fill="white"/>
<path d="M209.81 449.29L209.4 449.1C209.4 449.1 209.31 449.11 209.27 449.12C208.84 449.19 208.5 449.25 208.13 449.25C207.97 449.25 207.79 449.24 207.6 449.21L207.42 449.18C207.15 449.14 206.91 449.11 206.6 449.09L205.79 449.7L204.02 449.39V449.64C204.06 450 204.22 450.24 204.36 450.45C204.45 450.58 204.52 450.7 204.58 450.84C204.65 451.04 204.71 451.01 204.8 451.19C204.96 451.49 205.06 451.62 205.08 451.95C205.08 452.12 205.21 452.18 205.27 452.45C205.31 452.63 205.34 452.79 205.35 452.9C205.35 453.42 205.49 453.59 205.65 453.78C205.7 453.84 205.75 453.9 205.81 453.99C206.2 454.59 206.49 454.67 206.91 454.79C207.1 454.84 207.31 454.9 207.58 455.02C207.7 455.07 207.84 455.12 207.99 455.17C208.24 455.25 208.5 455.33 208.67 455.45C208.71 455.47 208.74 455.51 208.78 455.54C208.87 455.62 208.97 455.71 209.09 455.75C209.23 455.8 209.41 455.82 209.62 455.82C209.88 455.82 210.16 455.79 210.41 455.76C210.58 455.74 210.73 455.72 210.86 455.72C210.94 455.72 211.02 455.72 211.09 455.72C211.86 455.72 212.6 455.84 213.13 455.93C213.46 455.99 213.73 456.03 213.91 456.03C214.01 456.03 214.09 456.02 214.15 455.98L214.18 455.96L214.25 455.87C214.33 455.78 214.39 455.7 214.43 455.51C214.62 455.11 214.37 453.67 214.23 453.34C214.12 453.08 214.09 452.36 214.06 451.66C214 450.46 213.95 449.65 213.71 449.34C213.5 449.07 212.84 448.95 212.31 448.95C212.29 448.95 212.28 448.95 212.26 448.95L211.9 449.73L209.81 449.3V449.29Z" fill="white"/>
</g>
<defs>
<clipPath id="clip0_1865_489843">
<rect width="390" height="844" fill="white"/>
</clipPath>
</defs>
</svg>
