<svg width="114" height="235" viewBox="0 0 114 235" fill="none" xmlns="http://www.w3.org/2000/svg">
<path d="M47.0158 79.7419C47.1149 79.7419 47.214 79.8822 47.3296 79.9731C47.792 81.3767 46.091 81.6079 45.8433 82.6318C48.0149 83.2428 49.9388 82.0951 52.0278 81.963C52.3829 81.096 52.1434 80.0309 53.2581 79.6015C54.6618 79.0565 55.2811 77.917 55.3224 76.3977C55.3389 75.762 55.5784 75.1344 55.7105 74.4986C55.8756 73.6647 56.0325 72.8307 56.1894 71.9885C56.3215 71.2949 56.4536 70.593 56.5775 69.8995C56.6353 69.5774 56.8252 69.1398 56.6848 68.9499C55.8426 67.8104 56.6353 66.993 57.1224 66.0847C57.3371 65.6884 57.5435 65.2507 57.6013 64.8049C57.9729 61.9397 58.2949 59.0662 58.6417 56.201C58.6995 55.7551 58.8234 55.3175 58.8977 54.8716C59.0381 54.0459 59.162 53.2202 59.2858 52.3945C59.5996 50.2477 58.6583 47.8696 60.5078 46.0118C60.6565 45.8549 60.64 45.5081 60.6565 45.2439C60.7308 44.0631 60.8381 42.8824 60.8546 41.7016C60.8877 39.4227 60.8629 37.1437 60.8629 35.1125C61.6308 34.6006 62.4152 34.3611 62.6959 33.8492C63.8437 31.7354 65.8336 31.1574 67.8318 31.4711C69.4089 31.7189 70.7714 31.6198 72.2907 31.306C74.4953 30.8436 76.7825 30.7363 79.0367 30.5298C79.9202 30.4473 80.3412 30.0592 80.399 29.1757C80.4486 28.4078 80.5725 27.6564 80.6798 26.7316C80.3908 26.3766 79.9945 25.8894 79.6311 25.46C80.0605 24.9068 80.399 24.4609 80.8614 23.8581C79.7963 23.2389 79.6147 21.893 78.2605 21.7113C77.9302 21.67 77.6247 21.1003 77.41 20.7205C76.799 19.6471 76.3201 18.4911 75.643 17.4672C74.9164 16.3608 74.2311 15.0479 72.4806 15.4607C72.3154 15.502 72.1008 15.3782 71.9274 15.2873C70.6227 14.569 69.3429 13.8011 68.0135 13.1322C67.3942 12.8185 66.6841 12.5377 66.007 12.5212C64.9666 12.4882 64.1657 12.3643 63.5134 11.3652C62.9354 10.49 62.3161 10.6304 61.6886 11.5056C61.5069 11.7616 61.35 12.0258 61.1023 12.4056C59.8968 11.5056 59.4922 10.3083 59.1041 9.06978C58.65 7.63305 58.4601 5.90733 57.5188 4.89171C56.3215 3.5871 55.6197 2.13386 54.9673 0.498962C53.4728 0.498962 52.0361 0.50722 50.5994 0.498962C50.0875 0.498962 49.5259 0.523732 49.0718 0.342077C47.7672 -0.178118 47.7837 -0.219403 46.8837 1.03567C47.4782 1.82835 47.3379 2.62928 47.0901 3.60361C46.7929 4.77611 46.6112 6.19632 46.9993 7.28625C47.5856 8.93766 47.3956 10.5395 47.4287 12.1662C47.4534 13.479 46.7929 14.024 45.4635 14.0323C45.1415 14.0323 44.8194 13.9745 44.547 13.9414C42.9616 15.7828 43.0112 15.6176 40.6992 14.9405C39.1386 14.4864 37.5863 13.6772 35.844 13.9827C34.7624 14.1726 33.8954 13.8341 33.5651 12.6286C31.3605 13.8671 29.8411 12.5377 28.6934 11.2001C27.5622 9.87897 26.3319 9.58997 24.8622 9.87897C23.2273 10.201 21.452 9.57346 19.9162 10.6882C19.6107 10.9111 19.0162 10.7212 18.5538 10.7542C17.9841 10.8038 17.4143 10.8863 16.6299 10.9772C16.6794 11.8937 16.44 12.868 16.828 13.3717C18.0336 14.9571 17.7116 16.8314 18.0336 18.5489C18.3308 20.1425 18.8923 21.3397 20.2795 22.1737C21.419 22.8508 22.1869 23.8416 22.9217 24.9646C23.9621 26.5334 24.9447 28.2674 27.3145 28.2922C28.52 28.3004 29.7338 28.7381 30.9228 29.0518C31.3357 29.1592 31.7568 29.4151 32.0788 29.7124C33.2348 30.7941 34.1596 32.1978 36.1826 31.4711C36.678 31.2895 37.4542 32.0987 38.1065 32.1235C39.6836 32.173 40.7818 33.0152 41.8304 34.0226C42.202 34.3776 42.5322 34.9887 42.9451 35.0547C44.7286 35.3107 44.7782 37.0529 45.6617 38.0603C45.8846 38.3162 45.8846 39.0924 45.6617 39.3731C44.7617 40.5126 45.1662 41.7594 45.125 42.9897C45.0837 44.1705 44.9598 45.3595 44.7947 46.532C44.4396 49.1082 43.8203 51.6679 43.7295 54.2524C43.6387 56.8285 42.9038 59.2561 42.5405 61.758C42.3754 62.8975 41.9212 64.0122 41.4671 65.0856C41.2607 65.5728 40.757 65.9526 40.3524 66.3407C39.7496 66.9021 38.8414 67.3067 38.5359 67.9921C37.9909 69.1976 37.0826 69.8995 35.7284 70.816C37.3055 70.8738 37.8092 72.0133 37.7927 72.8059C37.7679 74.4491 39.0312 75.5886 38.9652 76.8189C40.2698 77.3143 41.7313 77.4216 42.3506 78.1978C43.68 79.8657 45.2736 79.8822 47.0489 79.7749L47.0158 79.7419Z" fill="black"/>
<path d="M77.3268 188.017C77.013 187.389 76.5754 186.638 75.9974 186.382C74.8745 185.878 74.4864 184.788 73.7019 184.037C73.3717 183.723 73.2313 183.211 72.9753 182.757C72.4221 183.277 72.001 183.674 71.5139 184.136C71.3322 183.822 71.1423 183.616 71.0927 183.385C70.7955 181.973 70.0358 181.172 68.5083 181.246C67.7817 181.279 67.278 180.965 66.9972 180.247C66.6917 179.463 66.0064 179.355 65.3623 179.686C64.322 180.222 63.4467 180.808 63.2237 182.237C62.9595 183.954 63.1164 185.598 63.199 187.29C63.2733 188.9 62.9017 190.544 62.6293 192.154C62.4476 193.244 61.8861 194.3 61.8696 195.382C61.8448 196.835 62.1586 198.297 62.3485 199.758C62.4724 200.708 62.4311 201.492 61.5063 202.161C60.4412 202.929 60.0035 204.093 60.1026 205.456C60.1522 206.1 59.9787 206.76 59.9127 207.413C59.7062 209.51 59.054 211.492 58.5007 213.506C57.7246 216.33 57.4603 219.286 56.9154 222.176C56.5273 224.224 56.0484 226.264 55.5942 228.303C55.264 229.764 54.8924 231.218 54.5786 232.687C54.4961 233.1 54.5621 233.538 54.5621 233.967L55.0162 234C55.074 232.795 55.6025 231.903 56.5686 231.267C56.9484 231.02 57.2787 230.689 57.6007 230.367C58.6081 229.36 59.7723 228.807 61.2421 228.708C63.3229 228.575 65.4779 228.567 66.989 226.668C67.1954 226.404 67.8477 226.445 68.2936 226.437C69.1523 226.429 69.8129 225.917 69.8872 225.215C70.0441 223.654 71.1753 223.093 72.2487 222.35C73.8423 221.243 75.246 220.005 75.3616 217.8C75.5763 213.894 76.6828 210.096 76.625 206.141C76.6002 204.366 77.2277 202.574 77.6323 200.799C78.0039 199.147 78.4745 197.521 78.9039 195.886C79.003 195.514 79.0113 195.044 79.2507 194.796C79.9443 194.061 79.6883 193.351 79.3663 192.608C78.6974 191.072 78.0699 189.52 77.3268 188.025V188.017Z" fill="black"/>
<path d="M96.2191 157.747C96.2191 156.45 96.2191 155.154 96.2191 154.394C95.0466 153.197 94.1878 152.313 93.0814 151.174C92.9575 151.166 92.3135 151.265 91.785 151.058C90.8602 150.687 89.7207 150.34 89.184 149.613C88.0363 148.053 86.6657 147.211 84.7665 147.227C83.1482 147.244 81.505 146.897 79.9527 147.797C79.193 148.234 78.2765 148.466 77.4095 148.639C75.5929 148.986 74.2884 149.811 73.9911 151.785C73.892 152.421 73.2727 152.891 72.9259 152.412C72.0754 151.232 71.0185 151.801 70.2589 152.082C67.0139 153.271 63.579 154.105 60.722 156.161C57.8155 158.267 54.5209 159.72 51.664 161.949C49.3273 163.774 48.0061 165.69 48.2456 168.695C48.3364 169.785 48.7163 170.396 49.6658 170.735C50.8135 171.139 52.0852 171.329 53.0925 171.949C53.9182 172.452 54.6448 172.593 55.5036 172.428C56.7091 172.188 57.9146 171.924 59.1201 171.66C60.6312 171.321 62.2165 171.139 63.645 170.578C66.2542 169.554 68.9295 168.877 71.6791 168.415C72.0672 168.349 72.4635 168.291 72.8186 168.142C76.0801 166.714 79.4242 165.558 82.9913 165.178C83.1812 165.161 83.3793 165.112 83.5527 165.021C86.9051 163.32 90.596 162.882 94.2043 162.073C95.1787 161.859 96.0622 160.942 96.8218 160.182C97.4659 159.53 96.5823 159.076 96.3016 158.539C96.1943 158.325 96.2191 158.019 96.2191 157.763V157.747Z" fill="black"/>
<path d="M101.182 64.0456C99.7864 61.0895 97.8873 58.5464 95.6909 56.1683C94.5019 54.8802 93.2551 53.6995 91.6862 52.8738C90.9349 52.4774 90.2412 51.9737 89.3495 51.4123C89.2834 51.4536 88.9366 51.693 88.5155 51.982C86.8228 50.0994 84.321 49.7278 82.3475 48.3076C81.8273 48.9104 82.0833 49.4801 82.298 50.1159C82.7273 51.4123 83.0576 52.7334 83.4044 54.0463C83.5365 54.5582 83.4952 55.1279 83.7016 55.5903C84.6182 57.6794 85.6999 59.7023 86.5173 61.8327C87.9706 65.5979 90.6128 68.5869 92.8175 71.8567C94.4606 74.2925 96.7726 75.9852 99.2084 77.5541C99.8029 77.9339 100.224 78.0165 100.794 77.6036C101.636 77.0009 102.561 77.0339 103.362 77.6201C104.22 78.2477 104.6 77.8431 105.079 77.1495C105.542 76.4807 106.161 75.9192 106.821 75.1843C106.326 73.3017 105.897 71.1549 104.476 69.4952C103.064 67.8438 102.074 65.9529 101.165 64.0373L101.182 64.0456Z" fill="black"/>
<path d="M36.8915 154.6C35.0172 153.345 34.9264 150.579 32.6144 149.786C31.9786 148.382 30.7731 148.548 29.774 148.614C29.1795 149.34 28.7006 149.918 28.2382 150.521C28.04 150.777 27.7428 151.066 27.7428 151.338C27.784 153.039 27.8666 154.74 28.007 156.441C28.0648 157.135 28.395 157.804 28.4281 158.489C28.4859 159.752 27.8418 161.007 28.4033 162.287C28.4859 162.477 28.3373 162.791 28.2547 163.039C27.6024 164.979 27.6271 166.581 28.2794 168.72C28.3868 169.075 28.4446 169.628 28.2464 169.843C27.7593 170.387 27.7593 170.8 28.0978 171.42C28.2877 171.766 28.2299 172.278 28.1886 172.708C28.0235 174.343 27.784 175.969 27.6354 177.604C27.5528 178.463 27.8914 179.132 28.4198 179.891C29.1547 180.973 30.1869 181.303 31.4667 181.931C32.7135 180.337 34.6704 179.346 34.7447 177.01C34.7447 176.811 35.0502 176.638 35.1906 176.432C35.6447 175.746 36.198 175.086 36.5117 174.343C36.8668 173.509 36.9328 172.551 37.2714 171.709C38.0888 169.661 38.6338 167.605 38.799 165.367C39.0136 162.452 38.2787 159.686 37.8824 156.879C37.7668 156.07 37.4696 154.996 36.8833 154.608L36.8915 154.6Z" fill="black"/>
<path d="M30.8231 54.2692C30.98 53.3857 30.8232 52.4939 31.4177 51.6435C31.8966 50.9581 31.4011 49.7361 30.691 49.2159C28.7176 47.7626 26.2239 48.1342 24.0441 47.3663C23.8542 47.3002 23.557 47.5067 23.3092 47.6058C22.7643 47.8204 22.2193 48.0434 21.4101 48.3654C21.4101 49.3315 21.4266 50.248 21.4101 51.1645C21.3936 51.9242 21.1872 52.4444 20.3532 52.8325C19.4036 53.2784 18.6357 54.005 17.9586 54.9793C16.7118 56.7876 16.0183 59.1243 13.7558 60.1317C13.6155 60.1978 13.4998 60.4455 13.4751 60.6271C13.3099 61.8327 12.3026 62.295 11.4851 62.9308C10.5604 63.6409 9.65208 64.3676 8.49609 65.2841C9.23923 65.3171 9.87503 65.3419 10.4117 65.3667C10.9484 65.3914 11.4026 65.408 11.7824 65.4327C14.0531 65.5979 13.7476 65.9942 15.2338 68.4631C15.3659 68.4878 15.4898 68.5374 15.6219 68.5291C17.2733 68.4053 19.2302 69.3135 20.2954 67.175C20.3202 67.1337 20.411 67.1254 20.4771 67.1089C23.1524 66.1593 24.6799 63.9052 26.257 61.7914C27.6359 59.95 28.6103 57.8197 30.1296 56.0445C30.5176 55.5903 30.7158 54.905 30.8231 54.294V54.2692ZM16.5797 66.1181C17.4302 65.474 17.9999 65.0446 18.7265 64.4997C19.1229 65.0034 19.4449 65.4162 19.9982 66.1181H16.5797Z" fill="black"/>
<path d="M70.6552 126.634C70.8286 126.477 71.1507 126.436 71.4067 126.428C72.8599 126.353 73.7351 125.478 74.5443 124.38C75.8159 122.662 77.2609 121.069 78.4664 119.31C79.771 117.419 81.2738 115.611 81.183 113.051C81.1004 110.78 80.4316 109.773 78.1774 109.088C77.7563 108.956 77.2774 108.782 76.9884 108.477C75.7746 107.18 74.3379 107.296 73.1324 107.535C72.414 108.782 71.836 109.781 71.2663 110.78C70.68 111.804 69.8461 112.779 69.5984 113.877C69.2681 115.314 68.3845 116.123 67.3442 116.94C67.0139 117.196 66.535 117.593 66.5432 117.906C66.6258 119.649 65.4203 120.813 64.735 122.2C64.5203 122.638 64.0827 123.174 63.6615 123.265C62.1588 123.587 62.2578 124.834 61.8037 125.808C62.5468 125.775 63.1331 125.742 63.8597 125.709C63.7028 126.609 63.6037 127.237 63.4799 127.93C64.6111 128.013 65.6845 128.096 66.7662 128.17C66.6671 128.996 66.5928 129.565 66.4772 130.482C68.0873 128.987 69.3506 127.798 70.647 126.634H70.6552Z" fill="black"/>
<path d="M50.9864 124.775C51.1433 124.354 51.0937 123.983 51.1515 123.628C51.3001 122.662 51.68 121.96 52.7699 121.646C54.4461 121.159 55.6847 118.517 55.1562 116.849C54.7764 115.643 54.4131 114.429 54.0498 113.216C52.4974 112.885 50.7882 113.092 49.4918 111.861C49.335 111.713 48.9469 111.647 48.757 111.729C47.5515 112.274 46.156 112.225 45.0909 113.356C44.4303 114.05 44.4633 114.884 43.9761 115.528C43.3816 116.312 43.3982 116.981 43.9349 117.856C44.7606 119.21 45.3716 120.688 46.1147 122.183L47.9395 121.151C48.5093 121.605 49.1698 122.117 49.7974 122.645C50.4497 123.19 50.846 123.9 50.9946 124.775H50.9864Z" fill="black"/>
<path d="M54.042 113.184V113.208H54.0833L54.042 113.184Z" fill="black"/>
<path d="M54.0342 113.175L54.0762 113.209L54.0594 113.158C54.0594 113.158 54.0426 113.167 54.0342 113.175Z" fill="black"/>
<path d="M55.2885 113.431C55.6765 113.844 56.1637 114.43 56.6426 114.463C57.9637 114.546 58.7729 115.173 59.4583 116.23C59.6729 116.552 60.4243 116.841 60.7629 116.709C61.3656 116.469 62.3482 116.114 62.0592 115.256C61.729 114.248 62.1831 113.489 62.3978 112.63C62.7115 111.367 62.662 110.987 61.3904 110.491C59.7142 109.839 57.9307 109.426 56.1802 108.997C55.7839 108.898 55.2719 109.112 54.8591 109.286C54.2398 109.55 53.6536 109.905 52.96 110.268C53.3398 111.259 53.7031 112.217 54.0664 113.167C54.5866 112.696 54.9086 113.026 55.2967 113.439L55.2885 113.431Z" fill="black"/>
<path d="M62.0018 232.307C63.9422 231.102 64.0331 230.961 63.5707 229.524C62.489 230.251 61.7624 230.969 62.0018 232.307Z" fill="black"/>
<path d="M13.665 70.9812C14.1329 70.6179 14.1329 70.2023 13.665 69.7344V70.9812Z" fill="black"/>
<path d="M60.1269 232.58C60.4627 231.969 60.4325 231.462 60.0361 231.061C60.0692 231.606 60.0939 231.969 60.1269 232.58Z" fill="black"/>
</svg>
