<svg width="144" height="284" viewBox="0 0 144 284" fill="none" xmlns="http://www.w3.org/2000/svg">
<path d="M5.01804 21.3925C5.32361 21.9714 5.91062 22.6549 6.48154 22.7836C7.67968 23.049 9.10297 22.671 9.60152 24.3355C9.62565 24.424 9.81059 24.4803 9.93121 24.5205C11.6601 25.1236 13.4613 25.59 15.1017 26.386C16.0104 26.8283 16.5089 26.3298 17.1522 26.0403C17.2889 26.563 17.2567 27.158 17.5301 27.3751C18.6479 28.2838 18.4147 29.2326 17.7553 30.1654C18.1332 30.7926 18.4549 31.3153 18.7765 31.838C17.6347 32.6582 17.6749 32.6582 17.7714 33.8483C17.884 35.2233 18.0046 36.6144 17.9402 37.9895C17.9 38.9142 17.5301 39.8148 17.3532 40.7396C16.7582 43.8998 18.0207 46.867 18.1734 50.0272C18.9454 49.2552 17.9644 47.9767 19.1947 47.3977C19.6209 47.9445 19.9907 48.4189 20.3204 48.8451C21.4944 48.6199 22.5398 48.427 23.553 48.234C24.6707 49.1024 24.4214 50.196 24.0676 51.2253C23.7621 52.134 23.5369 52.9702 24.2365 54.1201C24.7431 53.123 25.1291 52.3591 25.5794 51.4665C26.0297 51.2575 26.6569 50.9599 27.268 50.6785C26.8499 49.014 26.8579 49.03 28.1686 47.9123C29.021 47.1806 29.5517 46.296 29.6563 45.122C29.7447 44.1893 30.0503 43.2726 30.2031 42.3398C30.2593 41.9779 30.2031 41.5919 30.1468 41.222C30.0824 40.7235 29.9055 40.2249 29.9136 39.7264C29.9699 37.5392 30.1146 35.36 30.1387 33.1728C30.1629 31.5726 30.782 30.5192 32.3661 30.1815C33.2105 30.3102 33.4437 31.3314 34.5292 31.2671C36.234 31.1706 37.9548 31.2268 39.6675 31.9103C40.8094 32.3687 41.0748 32.8592 41.1632 33.9448C41.3482 36.0998 40.5842 38.094 40.2787 40.1606C40.0455 41.7126 39.5148 43.2163 39.2092 44.7521C38.9036 46.296 38.7991 47.8882 38.4372 49.416C38.0754 50.9439 37.81 52.6486 36.9255 53.8628C36.0329 55.0931 36.0008 56.2189 36.3144 57.417C36.4913 58.1086 36.3144 58.4785 35.9766 58.9609C35.0037 60.3199 34.0548 61.703 33.114 63.0861C32.9371 63.3434 32.7923 63.6329 32.72 63.9304C32.2857 65.6834 31.8676 67.4363 31.3771 69.4868C30.4845 68.6264 29.6884 68.8838 29.6161 69.519C29.4954 70.6126 27.8229 71.3042 28.7637 72.7033C30.2352 71.4489 30.9589 71.6097 32.0123 73.2582C32.8727 72.3576 33.7492 71.4409 34.69 70.4598C35.2047 71.3122 35.0358 71.859 34.5694 72.3897C34.3604 72.6229 34.0548 72.8641 34.0065 73.1375C33.6849 74.8182 33.4195 76.5148 33.1301 78.2035L33.3632 78.2839C34.3041 76.6033 35.2368 74.9307 36.1777 73.2421L37.6251 73.427C39.0966 72.3013 40.351 71.3444 41.8145 70.2266C42.0075 69.3502 42.3533 68.2003 42.482 67.0182C42.5704 66.2623 42.7956 65.8361 43.4228 65.3456C44.444 64.5415 45.3044 63.5364 45.5376 62.105C45.6582 61.3894 46.1809 60.7461 46.4302 60.0384C46.6795 59.3308 46.9529 58.583 46.9529 57.8512C46.9529 56.5566 47.3469 55.455 48.2073 54.5463C48.7782 53.9432 48.8184 53.4125 48.4887 52.6486C48.143 51.8364 48.0947 50.9358 48.8828 50.0272C49.1964 50.5016 49.4296 50.8474 49.6547 51.2012C49.6708 47.2529 51.6087 43.5701 50.8609 39.5495C51.8258 38.8177 52.0269 37.7322 51.9545 36.534C51.9304 36.1481 52.0269 35.754 51.9786 35.3761C51.7937 33.9287 52.437 33.0522 53.7959 32.6341C55.2353 32.1918 56.4415 31.3796 57.4627 30.278C58.0819 29.6106 58.7252 28.9592 59.5052 28.139C58.9423 27.8174 58.3231 27.4636 57.6074 27.0535C57.6477 26.3619 57.6879 25.6061 57.7281 24.9226C58.5402 24.6009 59.1996 24.3436 59.867 24.0782C58.2909 23.4188 56.0233 24.6652 55.3238 22.0921C54.5679 22.4137 53.9246 22.6871 53.2893 22.9605C52.2601 22.3333 51.866 21.4327 51.9786 20.2104C52.059 19.342 51.9464 18.4574 51.866 17.5809C51.7374 16.1174 51.7454 14.7263 52.2118 13.2709C52.6862 11.7913 52.7506 10.175 52.9998 8.61501C53.0561 8.23707 53.0883 7.8511 53.1928 7.48924C53.6029 6.13028 53.2491 4.67483 52.1153 3.43648C52.1153 4.46575 51.8097 5.53523 52.1796 6.27502C52.8792 7.67419 52.1073 8.61501 51.5685 9.75686C51.2549 9.37088 50.9333 8.89645 51.0298 8.54264C51.6248 6.46801 50.9654 4.2406 49.2446 3.16308C48.4485 2.66453 47.556 2.26247 46.6634 1.97298C45.4572 1.57897 44.1947 1.33773 42.8197 1C42.5704 1.31361 42.2649 1.69154 41.9352 2.0936C42.2729 2.4635 42.5061 2.7771 42.7875 3.01834C43.9696 4.00741 44.436 5.22163 44.2269 6.77358C44.0741 7.91543 44.2269 9.09748 44.0741 10.2393C43.8811 11.6063 43.8409 13.1744 43.1172 14.2197C42.3694 15.3053 42.3131 16.3104 42.2649 17.4362C42.2246 18.578 42.2568 19.7279 42.2568 21.0306C41.1954 21.2397 40.3189 21.6498 39.5308 21.5211C37.6492 21.2156 35.8078 20.6446 33.9422 20.2104C33.4035 20.0818 32.7602 19.8244 32.3179 20.0013C31.2243 20.4436 30.4845 19.8486 29.6723 19.3902C29.4954 17.6372 29.4794 17.6453 28.3938 15.8923C28.2169 15.6028 28.2812 15.1686 28.1365 14.8469C27.2278 12.8527 26.3272 10.8585 25.3462 8.89645C24.727 7.65811 23.4163 7.28821 22.2342 6.89419C21.0602 6.49214 20.1033 6.13832 20.5375 4.58637C20.5778 4.44163 20.0631 4.14411 19.7978 3.91895C19.5967 4.20844 19.2268 4.50596 19.2429 4.77936C19.267 5.18946 19.6208 5.57544 19.7254 6.00162C19.8701 6.58863 20.1033 7.24801 19.9666 7.79481C19.6771 9.00903 19.8299 10.2152 20.1677 11.3088C20.5617 12.5954 20.6662 13.7453 20.1355 14.9676C20.0149 15.249 19.9586 15.5626 19.8943 15.8601C19.7656 16.4793 19.6611 17.0985 19.5244 17.8222C18.5675 17.6453 17.884 17.5247 17.2004 17.396C16.5813 17.2754 15.9701 17.0341 15.359 17.0502C12.9065 17.1306 10.6549 16.415 8.84565 15.6269C8.04957 15.8842 7.58318 16.1576 7.11679 16.1496C6.64236 16.1496 6.16793 15.8682 5.70154 15.7073C5.62113 16.5034 5.54072 17.2593 5.47639 17.9026C4.69639 18.3207 4.0531 18.6665 3.35352 19.0364C4.14959 19.744 4.31846 20.1541 4.9698 21.4005L5.01804 21.3925ZM42.6267 61.9925C42.5382 63.3836 41.9271 64.4691 41.2597 65.6753C40.3591 65.2089 40.142 64.4933 40.0374 63.6168C40.9059 63.1343 41.2517 61.9362 42.6267 62.0005V61.9925Z" fill="black"/>
<path d="M87.8092 87.1034C89.8758 87.1757 91.8459 86.7495 93.7356 85.865C95.2473 85.1493 96.0675 85.672 96.5259 87.3124C96.8234 88.3899 97.2335 89.4594 97.724 90.4646C98.4075 91.8798 99.2116 93.2308 99.9836 94.6621C99.1312 95.5788 98.512 96.4874 99.4529 97.8464C99.8308 98.3932 99.3081 99.6396 99.7102 100.058C100.683 101.063 100.378 102.189 100.418 102.985C101.061 103.797 101.753 104.32 101.913 104.971C102.066 105.614 101.672 106.394 101.511 107.15C102.066 108.115 103.859 107.922 103.699 109.554H105.524C107.1 108.179 107.872 106.668 107.502 104.456C107.14 102.261 107.197 99.9773 107.245 97.7338C107.309 94.9355 107.301 92.2095 106.698 89.4031C106.216 87.1436 106.216 84.7392 105.717 82.4153C105.492 81.3861 105.476 80.389 104.414 80.1236C105.009 77.1403 107.373 76.111 109.617 74.8727C110.711 74.2696 111.756 73.4816 112.6 72.5649C113.919 71.1255 115.069 69.5253 116.227 67.9492C116.468 67.6195 116.428 67.0808 116.54 66.5259C115.825 66.5822 115.382 66.6868 114.948 66.6466C113.79 66.534 113.557 66.0354 113.911 64.8775C114.048 64.4352 113.991 63.9206 113.935 63.4462C113.855 62.835 113.654 62.248 113.557 61.6369C113.469 61.0821 113.461 60.5192 113.412 59.9563L113.099 60.1332C112.464 59.5623 111.836 58.9913 111.241 58.4526C111.241 58.4606 111.153 58.5812 111.153 58.7019C111.153 61.5967 109.834 63.6794 107.333 65.0946C106.859 65.36 106.489 65.8666 106.167 66.333C105.234 67.6839 104.382 67.716 103.433 66.3571C103.216 66.0435 103.063 65.6897 102.886 65.368C103.674 63.9769 103.586 62.4893 103.087 61.1223C102.782 60.2779 102.653 59.5783 102.894 58.7421C102.983 58.4285 102.862 58.0586 102.862 57.7208C102.862 56.6433 102.46 55.1959 102.999 54.5767C103.747 53.7163 104.615 52.679 106.047 52.4217C107.542 52.1483 109.255 51.8829 109.73 49.9289C109.778 49.744 110.099 49.6153 110.308 49.4706C111.474 48.6745 111.828 47.5166 111.868 46.1335C110.984 45.8038 109.995 45.6912 109.384 45.1444C108.724 44.5494 108.459 43.5281 107.944 42.7401C107.711 42.3782 107.349 41.9681 106.971 41.8636C105.693 41.4937 104.39 41.1881 103.071 40.9871C102.267 40.8585 101.423 40.963 100.458 40.963C100.136 39.8694 99.8389 38.9205 99.5815 37.9556C99.3242 36.9906 99.083 36.0177 98.8819 35.0366C98.3914 32.6323 96.7832 30.823 95.4966 28.869C95.1508 28.3464 94.3306 27.896 93.7115 27.8639C92.6902 27.8076 91.1061 27.3734 90.7684 28.5876C90.3342 30.1797 89.8195 31.7639 89.4898 33.3962C89.4577 33.5731 89.5381 33.7742 89.5783 33.9671C89.8517 35.3422 90.2216 36.7092 90.3824 38.1003C90.5271 39.3628 90.3985 40.6092 90.889 41.8716C91.4117 43.2065 90.889 43.8176 89.4416 44.091C88.0022 44.3644 86.5628 44.6298 85.1235 44.8951C83.1212 45.265 82.6387 45.852 82.5503 47.9588C82.4699 49.945 82.3171 51.9392 82.2849 53.9254C82.2367 56.6112 82.2769 59.2969 82.2769 62.0148C83.467 62.0148 84.6812 62.3365 85.5738 61.9425C86.9408 61.3394 88.541 61.0499 89.5622 59.7311C89.8597 59.3532 90.3663 59.0718 90.8327 58.9109C91.7816 58.5812 92.5777 59.0155 92.7144 59.9322C92.9878 61.7575 93.237 63.5909 93.3979 65.4243C93.5185 66.8154 93.3818 68.1905 93.9447 69.5736C94.4512 70.828 93.615 72.2754 92.6259 72.589C90.9372 73.1278 89.2888 73.7791 87.5921 74.2777C86.5065 74.5993 85.3647 74.7682 84.2389 74.9129C83.3705 75.0255 82.4779 75.0014 81.4004 75.0496V83.9271C83.0328 84.8518 84.6169 85.7846 86.2412 86.653C86.7156 86.9104 87.2865 87.1034 87.8173 87.1194L87.8092 87.1034Z" fill="black"/>
<path d="M64.1929 202.448C63.6219 202.488 63.0671 202.802 62.3997 203.027C62.3353 202.521 62.1906 202.127 62.2549 201.781C62.4962 200.558 63.646 199.505 62.9465 198.098C62.9304 198.058 62.9867 197.977 63.0188 197.929C63.5978 197.053 64.2089 196.2 64.7397 195.308C64.997 194.873 65.1256 194.359 65.4553 193.498C64.1285 194.005 63.0269 194.158 62.3193 194.769C61.6358 195.356 61.3624 196.409 60.8155 197.422C60.309 196.707 59.931 196.16 59.738 195.887C58.6525 196.136 57.7599 196.329 56.8754 196.546C56.3929 196.659 55.7898 196.659 55.4601 196.956C54.1735 198.138 52.702 198.146 51.134 197.889C50.7962 197.833 50.4505 197.873 50.1047 197.857C49.1156 197.792 48.2552 198.034 47.435 198.42C47.0249 198.613 46.6309 198.83 46.2449 199.063C45.8589 199.296 45.4649 199.537 45.0709 199.77C44.4035 199.449 43.921 199.183 43.5591 198.902C42.9561 198.436 42.6827 197.929 42.4736 197.077C42.1359 195.734 41.8062 194.383 41.5167 193.024C41.0503 190.861 40.6241 188.698 40.1658 186.535C39.8924 185.256 39.5868 183.978 39.3134 182.699C39.2732 182.522 39.2732 182.249 39.3697 182.136C40.1818 181.276 39.82 180.19 39.9808 179.209C40.0532 178.791 40.1256 178.196 40.407 178.019C41.5247 177.319 42.6746 176.419 43.913 176.234C45.095 176.065 46.0921 175.687 47.0732 175.14C48.1265 174.553 49.0915 173.789 50.1771 173.307C51.0535 172.921 52.0346 172.776 52.4045 171.972C52.9834 172.02 53.3774 172.052 53.6911 172.077C53.7554 171.449 53.6348 170.838 53.884 170.541C55.0179 169.174 56.2481 167.895 57.398 166.633C57.3337 165.571 57.2694 164.558 57.2051 163.432C56.5939 163.561 56.0632 163.665 55.5325 163.778C55.2912 163.497 55.0581 163.215 54.8409 162.966C54.1172 163.247 53.49 163.497 52.8789 163.738C52.1391 162.371 53.6991 161.985 53.9564 160.972C53.5624 160.972 53.1603 160.851 52.9513 160.996C51.922 161.695 50.9008 161.687 49.7428 161.326C49.2041 161.157 48.5045 161.326 47.9175 161.502C46.462 161.929 45.0548 162.508 43.5994 162.902C42.6344 163.159 41.7258 163.497 40.801 163.875C39.241 164.518 37.3916 165.193 35.9683 163.296C35.7511 163.006 35.1963 162.926 34.7701 162.837C34.151 162.709 33.5237 162.652 33.2905 162.62C32.4543 161.728 31.8753 161.116 31.0229 160.216C30.6128 162.62 30.2831 164.47 29.9937 166.327C29.7846 167.678 29.2297 167.992 27.9029 167.541C27.5491 167.421 27.0827 167.421 26.7289 167.541C24.9679 168.144 23.2712 169.053 21.3011 168.627C21.1805 168.603 21.0438 168.627 20.9232 168.667C18.5832 169.415 16.0985 169.326 13.7344 170.195C11.9573 170.854 9.93892 170.75 8.07336 171.586C6.50533 172.286 4.63173 172.302 2.87875 172.567C2.05855 172.696 1.63236 172.857 1.89772 173.902C2.10679 174.722 1.86556 175.663 1.82535 176.604H0C1.30267 177.754 2.2837 178.686 3.59441 179.281C5.29111 180.045 6.70636 181.541 8.81315 181.123C10.6063 182.289 12.6086 181.79 14.5304 181.782C15.423 181.782 16.4523 182.691 17.2484 181.517C17.3046 181.437 17.6424 181.469 17.7871 181.557C19.2185 182.401 20.6417 182.072 22.1535 181.734C23.6331 181.396 25.185 181.388 26.7128 181.284C27.6858 181.219 28.2648 181.654 28.3935 182.699C28.7714 185.771 29.1735 188.851 29.6318 191.914C29.873 193.53 30.1786 195.147 30.5726 196.731C31.1838 199.24 31.8994 201.716 32.607 204.378C33.5559 204.265 33.8534 205.094 34.2716 205.906C34.8184 206.967 35.333 208.182 36.2095 208.905C37.8901 210.296 39.4823 211.937 41.8544 212.283C42.5379 212.379 43.1571 212.894 43.8004 213.207C44.0416 212.242 44.6447 211.752 45.8348 211.832C48.9628 212.033 52.0185 211.631 55.0018 210.296C54.8811 209.782 54.7525 209.251 54.5997 208.6C55.0902 208.35 55.5244 208.109 55.9748 207.9C58.1378 206.887 60.3331 205.922 62.472 204.861C63.0912 204.555 63.5656 203.968 63.9034 203.687C64.6834 203.429 65.2945 203.228 66.3157 202.882C65.2784 202.641 64.7236 202.392 64.2009 202.432L64.1929 202.448Z" fill="black"/>
<path d="M64.2891 247.221C64.2006 248.21 64.3454 249.328 63.0588 249.706C61.7079 248.83 60.6786 247.905 61.5712 246.136C61.7239 245.83 61.6033 245.372 61.5792 244.994C61.5792 244.897 61.4505 244.817 61.3701 244.713C60.9922 244.897 60.6062 245.082 60.3811 245.195C60.0674 245.066 59.8825 244.914 59.778 244.761C59.7136 244.656 59.6815 244.552 59.6815 244.447C59.6654 243.957 60.18 243.426 60.0835 242.952C60.0594 242.847 60.0112 242.742 59.9147 242.646C59.6171 242.759 59.3196 242.879 58.9095 243.04C58.7728 243.096 58.6281 243.153 58.4592 243.217C58.1134 242.316 57.7998 241.52 57.446 240.612C57.1726 240.563 56.6821 240.483 56.3363 240.427C55.4438 239.108 57.0359 237.813 56.1433 236.519C54.7683 237.781 54.913 239.164 55.5644 240.644C54.704 241.408 53.8918 242.139 52.8143 243.104C52.5811 241.745 52.3881 240.628 52.1549 239.317C50.7638 239.799 50.603 238.44 49.7586 237.443C49.4048 238.28 48.7776 239.052 48.9626 239.446C49.5576 240.724 48.657 241.311 48.0941 242.115C47.0729 243.579 46.0758 245.058 45.1028 246.554C44.942 246.803 44.9902 247.173 44.8776 247.471C44.7248 247.873 44.5158 248.251 44.3469 248.653C44.1298 249.159 43.9207 249.666 43.7358 250.189C43.2453 251.58 43.1729 253.051 42.1677 254.346C41.0179 255.817 40.3102 257.627 39.4418 259.307C39.3131 259.557 39.2408 259.975 39.3614 260.192C40.061 261.446 39.1925 262.226 38.5492 263.071C37.9381 263.875 37.3672 264.743 36.6113 265.394C35.5579 266.295 34.9628 267.71 33.5637 268.209C32.5505 268.571 31.473 268.748 31.095 270.01C31.0307 270.227 30.5884 270.38 30.2989 270.476C29.0606 270.895 27.8062 271.289 26.3186 271.771C25.2732 271.369 25.1285 269.922 24.4771 269.198C22.5714 269.841 22.8367 271.144 23.4559 272.406C22.5392 273.146 21.719 273.814 20.9551 274.433C21.7833 277.175 24.4369 278.108 25.6913 280.239C26.6348 279.397 27.6266 279.335 28.6666 280.054C28.9963 281.107 29.2777 282 29.5672 282.908C30.3392 282.956 30.9905 282.932 31.6097 283.053C32.9686 283.318 34.207 282.643 35.5257 282.643C37.0053 282.643 38.5331 283.359 39.9403 282.321C40.061 282.233 40.3263 282.281 40.5113 282.321C41.9908 282.675 43.1166 281.991 44.1861 281.115C44.4756 280.882 44.7651 280.6 45.1108 280.48C47.298 279.724 49.1153 278.429 50.8924 276.958C52.163 275.904 52.8062 274.425 53.9803 273.299C55.4598 271.884 56.6419 270.066 57.631 268.249C59.0462 265.652 60.6142 263.135 61.7641 260.377C62.2466 259.219 62.8095 258.013 63.5573 256.895C64.5223 255.448 65.6802 253.678 64.2489 251.749C64.2247 251.708 64.2247 251.652 64.2328 251.588C64.2408 251.523 64.2569 251.451 64.2649 251.395C64.7555 251.121 64.9967 250.985 65.1093 250.824C65.1656 250.743 65.1977 250.655 65.2058 250.534C65.2138 250.414 65.2058 250.269 65.2058 250.076C65.1575 248.942 64.852 247.792 65.6882 246.755C65.8491 246.554 65.648 246.063 65.6159 245.669C64.7849 246.013 64.3373 246.535 64.273 247.237L64.2891 247.221Z" fill="black"/>
<path d="M143.594 119.338C143.521 118.317 143.192 118.172 142.211 118.542C142.01 118.622 141.817 118.727 141.35 118.952C141.181 117.971 140.699 117.022 140.988 116.459C141.543 115.357 141.31 114.36 141.238 113.218C140.385 113.411 139.203 113.717 139.259 112.599C139.332 111.305 138.496 110.887 137.828 109.897C137.651 110.661 137.402 111.16 137.45 111.634C137.627 113.564 137.104 115.189 136.139 116.917C134.982 118.984 134.427 121.388 133.566 123.624C132.891 125.393 132.465 127.266 131.331 128.843C130.881 129.462 130.269 130.089 130.125 130.797C129.739 132.614 128.428 133.522 127.077 134.52C125.807 135.46 124.407 136.417 123.571 137.704C122.88 138.765 122.244 139.505 120.789 139.642C121.046 141.901 119.534 142.609 118.047 143.148C116.945 143.55 116.117 144.225 115.57 145.118C115.047 145.986 114.356 146.324 113.52 146.228C111.751 146.018 110.544 147.136 109.571 148.165C108.655 149.13 107.682 149.742 106.548 150.312C105.752 150.715 104.98 151.076 104.401 152.017C103.597 153.328 102.19 154.301 100.573 154.639C99.2063 154.928 97.8152 155.105 96.215 155.362C95.041 154.799 93.7865 154.06 93.6337 152.21C93.5694 151.414 93.0065 150.666 92.6688 149.894C92.3632 150.505 92.1542 151.205 92.4034 151.583C93.1915 152.757 92.8698 154.036 93.0307 155.282C93.3603 157.839 93.6981 160.396 96.617 161.57C97.7991 162.045 97.7589 162.318 97.1477 163.564C98.0403 164.2 99.0133 164.73 99.7611 165.486C100.324 166.049 100.879 166.306 101.603 166.298C102.632 166.298 103.661 166.298 104.682 166.226C105.696 166.154 106.845 166.25 107.69 165.8C109.563 164.803 111.469 164.087 113.584 163.902C113.833 163.878 114.099 163.781 114.3 163.637C116.294 162.157 118.352 160.742 120.25 159.142C122.003 157.67 123.595 156.006 125.228 154.397C127.367 152.291 129.481 150.168 131.58 148.021C132.875 146.702 134.041 145.255 135.4 144.008C136.252 143.228 137.177 142.601 137.547 141.403C137.699 140.896 138.134 140.245 138.592 140.092C140.039 139.618 140.112 138.323 140.554 137.229C140.739 136.779 140.836 136.136 141.173 135.943C142.211 135.364 142.299 134.327 142.765 133.434C143.473 132.067 143.409 130.644 143.658 129.22C143.956 127.548 143.537 125.956 143.706 124.323C143.875 122.675 143.706 120.986 143.586 119.33L143.594 119.338ZM135.384 123.64C135.327 123.302 135.271 122.956 135.215 122.619L135.729 122.538C135.794 122.747 135.898 122.956 135.898 123.165C135.898 123.318 135.77 123.471 135.384 123.648V123.64Z" fill="black"/>
<path d="M109.939 200.042C108.805 198.177 107.414 196.472 106.111 194.711C105.886 194.405 105.661 193.979 105.347 193.891C103.434 193.344 102.002 192.13 100.627 190.771C100.233 190.385 99.6542 190.047 99.1235 189.967C96.872 189.613 96.4458 187.402 95.1029 186.139C94.9501 185.994 94.9501 185.456 95.1029 185.247C95.8105 184.233 95.1351 183.622 94.5159 182.81C93.6394 183.405 92.5136 183.783 92.0312 184.563C90.8973 186.38 89.4258 187.884 88.0668 189.492C87.7452 189.87 87.4396 190.361 87.3753 190.835C87.1904 192.146 86.3702 192.974 85.5017 193.859C84.6333 194.743 83.9256 195.781 83.1617 196.762C83.0572 196.898 83.0089 197.139 83.0411 197.316C83.226 198.426 83.0652 199.873 83.7166 200.557C84.8584 201.763 84.2473 202.744 83.9739 203.854C84.2714 203.918 84.5689 204.007 84.8665 204.031C87.6085 204.224 89.9244 203.54 91.4039 200.975C91.6693 200.517 92.2161 200.171 92.6986 199.882C94.0093 199.093 94.8134 197.847 95.5773 196.609C96.2528 195.507 96.9443 195.161 98.0781 195.869C99.5014 196.762 101.053 197.566 101.721 199.295C102.123 200.348 102.461 201.45 103.015 202.423C103.458 203.194 103.434 203.717 103.04 204.521C102.018 206.596 101.624 208.904 100.949 211.099C100.394 212.892 99.7427 214.742 98.7134 216.374C98.5124 216.688 98.3194 217.017 98.0781 217.307C97.3866 218.143 97.6117 219.365 97.1132 220.129C96.5342 221.006 96.3412 221.786 96.486 222.702C93.945 225.139 92.6745 228.154 91.999 231.58C92.6182 231.556 93.2132 231.459 93.5107 231.114C94.2666 230.253 95.1431 229.755 96.1885 229.682C97.7324 230.711 95.7864 232.199 96.8639 233.261C97.0167 233.277 97.2499 233.381 97.3785 233.309C97.6359 233.164 97.8289 232.915 98.054 232.714C98.8983 231.966 99.7507 231.234 100.579 230.478C101.037 230.06 101.56 229.674 101.866 229.159C102.581 227.977 103.015 226.594 103.86 225.533C105.613 223.338 106.819 220.853 107.993 218.352C108.684 216.865 108.982 215.184 109.722 213.736C110.55 212.12 110.413 210.407 110.574 208.751C110.759 206.845 110.63 204.907 110.526 202.993C110.47 201.996 110.437 200.854 109.947 200.05L109.939 200.042ZM99.9437 226.956C99.413 227.374 98.8983 227.801 98.054 228.5C98.054 227.35 97.9334 226.578 98.0942 225.863C98.2068 225.404 98.6732 224.922 99.1074 224.689C99.3084 224.584 99.9598 224.954 100.153 225.268C100.482 225.806 100.571 226.458 99.9437 226.956Z" fill="black"/>
<path d="M83.0586 258.006V257.981C83.0586 257.981 83.0337 257.981 83.0254 257.973L83.0586 258.006Z" fill="black"/>
<path d="M18.5518 148.411C19.4766 148.83 19.364 149.794 19.8063 150.406C20.2485 151.017 21.1813 151.266 21.8487 151.748C22.0498 151.893 22.0658 152.295 22.1784 152.585C22.2669 152.81 22.3071 153.164 22.4679 153.236C23.9234 153.928 25.2582 154.965 27.0916 154.145C28.5631 153.485 30.1472 153.003 31.7314 152.665C33.5165 152.279 35.374 152.207 36.9018 151.025C37.0466 150.912 37.2476 150.88 37.4245 150.816C38.4216 150.47 39.4107 150.1 40.4158 149.794C41.3808 149.505 42.4583 149.409 42.7156 148.146C42.7237 148.098 42.8282 148.025 42.8604 148.033C43.9379 148.379 44.0907 147.294 44.4606 146.819C45.329 145.71 45.9643 144.407 46.7925 143.032L45.0234 141.464C44.6375 141.625 44.2193 141.946 44.0505 141.842C43.7931 141.689 43.6886 141.247 43.5599 140.917C43.5278 140.837 43.6725 140.7 43.7127 140.587C44.0826 139.437 43.9781 139.365 42.7156 139.381C40.8661 139.397 39.0247 139.293 37.1752 139.317C36.0575 139.333 34.9639 139.188 33.806 139.598C32.7124 139.984 31.4258 139.799 30.0105 139.88C29.5441 140.153 28.8928 140.796 28.153 140.925C26.9549 141.134 25.7728 141.15 25.0089 142.316C24.9124 142.461 24.5345 142.437 24.2852 142.477C22.3714 142.775 20.4496 143.064 18.3991 143.378C18.198 144.897 19.0021 146.216 18.1819 147.463C18.0694 147.631 18.3347 148.299 18.576 148.411H18.5518Z" fill="black"/>
<path d="M30.669 115.024C30.2187 115.353 29.7925 116.021 29.7604 116.568C29.6478 118.481 29.7202 120.403 29.7202 122.43C30.9505 121.995 32.1647 121.561 33.4513 121.103C33.5397 122.116 33.9338 123.105 33.6041 123.523C32.6793 124.697 32.9929 125.839 33.2342 127.238C34.0865 125.558 34.8665 124.022 35.735 122.293C36.2014 122.502 36.716 122.727 37.0377 122.864C37.4558 122.044 37.8096 121.087 38.3725 120.275C39.4018 118.795 39.8923 117.251 39.5143 115.892C39.8682 115.016 40.2059 114.501 40.2863 113.938C40.5838 111.92 40.7929 109.885 41.0422 107.859C41.1145 107.256 40.9215 106.564 41.7417 106.219C41.9187 106.146 42.0232 105.471 41.8865 105.237C41.7659 105.036 41.2512 105.061 40.8331 104.964C40.7044 105.664 40.6079 106.21 40.5034 106.749C39.635 106.999 38.9032 107.787 38.1554 107.232C37.9302 105.503 37.7292 103.959 37.488 102.158C36.4587 102.648 35.7109 103.01 35.0836 103.308C33.6604 103.195 32.2933 103.082 30.9907 102.97C30.7012 103.895 30.4921 104.546 30.3474 105.02C30.7334 105.8 31.4329 106.556 31.2721 106.999C30.6047 108.816 32.2773 110.416 31.6018 112.161C32.2933 113.448 31.7144 114.252 30.661 115.024H30.669Z" fill="black"/>
<path d="M24.3084 245.645C24.4772 245.533 24.6542 245.436 24.8391 245.356C26.0935 244.769 27.4766 244.801 28.8195 244.608C28.8115 243.297 29.2296 242.517 30.1624 242.26C30.476 242.172 30.8378 242.139 31.264 242.172C31.9475 242.212 32.5345 242.324 32.6149 241.384C31.8028 241.512 31.0067 241.633 30.0578 241.778C30.0096 241.175 29.9694 240.7 29.9372 240.338C30.5403 240.001 30.9987 239.735 31.7143 239.325C30.8459 238.794 30.2347 238.432 29.4789 237.966V235.184C28.0154 234.637 26.6645 234.114 25.3055 233.64C24.8552 233.487 24.1154 233.238 23.9144 233.439C23.0861 234.259 22.1373 233.921 21.2125 234.018C20.2315 234.114 19.1942 234.219 18.3177 234.621C16.9668 235.248 15.7445 236.141 14.1363 235.441C13.9594 235.361 13.6779 235.522 13.3804 235.594C13.3804 236.503 13.1794 237.395 13.4287 238.127C13.8146 239.261 13.4608 239.904 12.6084 240.539C12.3511 240.732 12.2788 241.15 12.126 241.456C12.8416 241.255 13.3804 241.11 14.0559 240.917C14.1282 242.292 14.4579 243.088 15.849 242.968C16.3315 242.928 16.9185 243.305 17.3447 243.635C19.2505 245.099 21.6628 244.914 23.7857 245.67C23.9385 245.726 24.1717 245.734 24.3003 245.653L24.3084 245.645Z" fill="black"/>
<path d="M95.1138 137.254C95.2264 136.53 95.2907 136.169 95.339 135.807C95.5239 134.52 96.2557 133.764 97.4618 133.853C98.8932 133.949 100.316 134.206 102.037 134.432C103.002 134.022 104.281 133.459 105.567 132.928C106.412 132.582 106.564 131.995 106.187 131.247C105.986 130.861 105.728 130.475 105.407 130.186C104.86 129.687 104.554 129.165 104.506 128.385C104.409 126.833 103.469 126.013 101.893 126.101C100.405 126.189 98.8932 125.321 97.4216 126.23C97.301 126.31 97.0276 126.246 96.8748 126.157C95.3872 125.297 93.7549 125.618 92.1788 125.61C90.5705 125.61 88.898 126.889 88.5522 128.481C88.2064 130.081 88.0456 131.722 87.8205 133.346C87.8044 133.435 87.9652 133.547 88.0778 133.692C90.2248 134.56 92.2753 132.285 94.4303 133.274C94.8967 134.496 94.2212 135.815 95.1138 137.254Z" fill="black"/>
<path d="M141.999 183.904C141.122 182.891 140.238 181.894 139.321 180.913C139.064 180.639 138.718 180.31 138.388 180.277C137.44 180.189 136.475 180.245 135.494 180.245C135.477 180.293 135.405 180.406 135.413 180.519C135.485 181.958 134.746 183.413 135.494 184.845C134.802 186.228 135.494 187.418 135.944 188.68C136.185 189.38 136.169 190.176 136.233 190.932C136.274 191.342 136.233 191.752 136.233 192.162L136.676 192.275C137.431 191.632 136.772 189.967 138.268 189.822C138.938 191.506 139.999 192.307 141.452 192.227C142.256 191.069 143.084 189.879 143.816 188.841C143.567 187.9 143.261 187.169 143.213 186.429C143.149 185.384 142.626 184.628 141.999 183.896V183.904Z" fill="black"/>
<path d="M123.778 188.969C123.955 187.787 124.011 186.573 124.357 185.447C124.646 184.522 124.3 184.128 123.609 183.783C122.113 183.019 120.585 182.922 119.17 183.509C118.012 185.158 118.575 186.798 118.953 188.27C119.258 189.452 120.071 190.642 120.979 191.502C121.992 192.467 122.234 192.716 121.534 193.931C121.373 194.204 121.349 194.558 121.221 195.016C122.781 194.437 122.274 192.258 123.979 192.089C124.542 190.883 125.096 189.685 125.708 188.382C124.823 188.254 124.678 189.966 123.786 188.961L123.778 188.969Z" fill="black"/>
<path d="M20.5299 50.2046C20.2645 50.6388 20.0072 51.073 19.7499 51.4912C18.8573 51.0248 18.0371 50.9122 17.0078 51.9174C18.6723 52.44 20.7872 52.1827 20.6263 54.965C22.2828 53.2924 20.6183 51.8289 20.956 50.4458C20.956 50.4137 20.7631 50.3332 20.5299 50.2046Z" fill="black"/>
<path d="M63.8232 198.99C65.3672 200.132 66.1713 198.862 67.3131 198.106C67.0236 197.873 66.7904 197.559 66.6457 197.599C65.6566 197.857 64.6515 198.13 63.8232 198.99Z" fill="black"/>
<path d="M22.6519 54.9565C22.1453 56.0823 21.7915 56.8543 21.2607 58.0202C22.5152 57.5485 22.9789 56.5273 22.6519 54.9565Z" fill="black"/>
<path d="M59.0068 209.597C57.9132 209.774 57.1493 209.894 56.0557 210.063C57.1117 210.604 58.0954 210.449 59.0068 209.597Z" fill="black"/>
<path d="M20.8349 245.509C20.1836 246.297 19.7654 246.803 19.1543 247.543C19.7413 247.688 20.1594 247.784 20.5856 247.889C20.658 247.189 20.7304 246.498 20.8349 245.509Z" fill="black"/>
<path d="M62.2388 26.78C60.4778 26.7077 60.2366 26.9248 60.7512 28.1309C61.2337 27.6967 61.6759 27.2947 62.2388 26.78Z" fill="black"/>
<path d="M20.6566 272.744C20.8818 272.149 21.1069 271.562 21.3321 270.967C20.1259 271.2 20.4154 272.012 20.6566 272.744Z" fill="black"/>
<path d="M83.0418 258.061C82.7523 258.543 82.4548 259.026 82.0527 259.661C83.2187 259.291 83.2509 259.267 83.0418 258.061Z" fill="black"/>
<path d="M83.0656 258.013L83.0254 257.973C83.0254 258.005 83.0334 258.029 83.0415 258.061L83.0656 258.013Z" fill="black"/>
<path d="M109.859 110.891C110.221 110.408 110.542 109.974 110.864 109.548C110.703 109.452 110.551 109.347 110.39 109.25C110.165 109.733 108.942 109.701 109.859 110.891Z" fill="black"/>
<path d="M18.0117 6.87847C17.9153 6.32363 17.859 5.95374 17.7544 5.38281C16.9584 6.02611 17.0307 6.396 18.0117 6.87847Z" fill="black"/>
<path d="M35.9353 76.6436C35.7664 76.9652 35.5976 77.2868 35.4287 77.6165L35.7021 77.7693C35.9192 77.504 36.1444 77.2386 36.3615 76.9732C36.2167 76.8607 36.08 76.7561 35.9353 76.6436Z" fill="black"/>
<path d="M56.3362 161.904C56.4085 162.001 56.4889 162.089 56.5613 162.185C56.7945 162.057 57.0679 161.968 57.2529 161.783C57.4217 161.615 57.5021 161.357 57.6228 161.14L57.277 160.883L56.3281 161.904H56.3362Z" fill="black"/>
<path d="M26.0135 54.7068C25.9412 54.8596 25.8125 55.0204 25.8125 55.1732C25.8125 55.334 25.917 55.5029 26.0216 55.7763C26.3271 55.3501 26.5362 55.133 26.504 55.0928C26.3754 54.9319 26.1824 54.8274 26.0135 54.6987V54.7068Z" fill="black"/>
<path d="M16.3311 245.637C16.4597 245.902 16.5803 246.152 16.8216 246.634C17.0628 245.886 17.288 245.444 16.3311 245.637Z" fill="black"/>
<path d="M27.2835 73.1294C27.0744 73.435 26.8653 73.7325 26.6562 74.038L26.9136 74.2391L27.6453 73.4269C27.5247 73.3304 27.4041 73.2259 27.2835 73.1294Z" fill="black"/>
</svg>
