<svg width="144" height="201" viewBox="0 0 144 201" fill="none" xmlns="http://www.w3.org/2000/svg">
<path d="M111.758 14.3509C111.818 13.7154 112.233 12.8951 111.966 12.4961C111.179 11.2989 110.252 10.1462 109.168 9.20027C108.129 8.29872 106.852 7.66321 105.657 6.94641C104.907 6.49564 103.987 6.237 103.378 5.65321C102.205 4.50781 100.892 3.71711 99.3032 3.3624C98.7687 3.24416 98.3901 3.05203 97.9819 2.62343C97.4475 2.04703 96.7052 1.54453 95.77 1.98791C95.1984 2.25394 94.8867 1.75883 94.4413 1.57409C93.0607 0.997695 91.5316 1.01986 90.0693 1.37457C89.3196 1.55931 88.6293 1.98052 87.5827 2.43869C86.9221 2.08398 85.7716 1.69233 84.918 0.968137C83.9679 0.170048 82.7877 0.62082 81.8376 0.0665917C81.7411 0.00747409 81.2735 0.310452 81.2067 0.517364C80.9246 1.37457 80.3011 1.2785 79.6256 1.23416C78.4528 1.15288 77.332 1.08637 76.137 1.52236C75.2908 1.83273 74.2071 1.5002 73.2347 1.47064C72.923 1.46325 72.4776 1.38196 72.344 1.54453C72.1955 1.72928 72.3143 2.1431 72.344 2.45347C72.3885 2.86729 72.4701 3.28111 72.5518 3.791C72.0099 3.73928 71.7205 3.68016 71.431 3.68755C71.1638 3.69494 70.8891 3.76884 70.7778 3.791C70.4289 3.30328 70.184 2.67516 69.9093 2.66038C69.4491 2.63821 68.9592 2.99292 68.499 3.20722C68.41 3.25155 68.358 3.39935 68.3283 3.51019C67.9794 4.59648 67.111 4.81817 66.1089 4.95119C64.3868 5.17288 63.1695 6.34045 61.9522 7.41196C61.5366 7.77405 61.4475 8.48347 61.0615 8.91207C59.6586 10.4861 58.0701 11.9418 58.226 14.3139C57.3353 15.3781 57.8698 16.2574 58.5749 17.1368C58.7382 17.3363 58.7604 17.6467 58.9609 18.26C58.1815 18.031 57.6916 17.8832 57.1943 17.7354C57.1497 17.861 57.0533 18.0162 57.0384 18.1788C56.9122 19.3685 56.8974 20.5435 56.3258 21.6963C55.9324 22.4943 55.6503 23.6471 55.9398 24.4157C56.5336 26.034 55.9176 27.2755 55.3683 28.5539C54.5147 28.8938 53.7799 29.3742 52.993 29.4628C51.0112 29.6845 49.0219 29.8102 47.04 30.054C42.6532 30.6009 38.1996 30.6304 33.7757 30.8743C33.657 30.8743 33.5085 30.8373 33.4269 30.8964C32.0166 31.9014 30.3613 31.1403 28.8397 31.5098C27.7263 31.7832 26.4718 31.6428 25.3065 31.5024C24.2747 31.3768 23.3617 31.5763 22.4413 31.9606C22.0256 32.1305 21.5654 32.2931 21.1201 32.3079C19.2124 32.3744 17.2751 31.9014 15.4417 32.8917C15.0409 33.106 14.3431 33.0321 13.8829 32.8399C12.6582 32.3448 11.5745 32.8547 10.565 33.2907C9.19183 33.8893 8.5089 33.9114 7.2322 32.9434C6.25241 32.197 6.81653 31.3842 7.04664 30.5048C5.36169 30.3348 3.85489 30.4013 2.31839 31.4211C1.14561 32.197 0.670585 32.9434 0.863575 34.2735C0.974915 35.0864 1.15305 36.0027 0.900679 36.7269C0.529545 37.7836 0.885807 38.6261 1.19756 39.5276C1.28663 39.801 1.53162 40.0449 1.56131 40.3183C1.72461 41.7815 2.74893 42.4613 3.92172 43.0747C4.5378 43.3998 5.25779 43.7324 5.62892 44.2644C6.69037 45.8089 8.44955 46.3114 9.94893 46.9469C11.6116 47.6489 13.6231 47.5233 15.464 47.841C16.9411 48.0923 18.3736 47.0134 19.8508 47.7819C19.9695 47.841 20.1848 47.708 20.3555 47.6711C21.031 47.5381 21.699 47.3312 22.3819 47.2942C24.8462 47.1834 27.3774 47.4568 29.7452 46.9469C31.3337 46.607 32.885 46.5996 34.4438 46.4444C35.4607 46.3483 36.3514 46.2523 37.1753 45.5502C37.5613 45.2251 38.2368 45.1734 38.7935 45.129C40.1518 45.0256 41.6512 45.3359 42.8314 44.8482C43.9893 44.3679 45.0805 44.3753 46.2161 44.2644C46.565 44.2349 46.9807 44.2866 47.2553 44.1166C48.7102 43.2446 50.41 43.3185 51.9761 43.0599C53.5349 42.8086 55.0714 42.8308 56.4817 41.9071C57.4986 41.242 58.1221 41.5302 58.8198 42.6017C59.1687 43.1338 59.3988 43.858 59.8887 44.161C60.4157 44.4861 60.579 44.8925 60.8017 45.3655C61.403 46.6365 61.93 47.9593 62.6945 49.1269C63.5629 50.457 63.986 52.3118 66.0792 52.4522C66.2796 52.467 66.4726 52.7035 66.6582 52.8439C67.304 53.3316 67.9794 53.7824 68.5881 54.3144C69.5827 55.179 70.5328 56.0953 71.6462 57.1299C72.7522 56.8343 73.4945 57.5511 73.9844 58.6817C74.0512 58.8443 74.1031 59.0808 74.2219 59.1399C75.944 59.9158 77.6809 60.6622 79.4697 61.2903C79.544 61.3199 79.6404 61.2829 79.7369 61.2534C79.0392 60.5366 77.8961 60.1301 78.1188 58.896C77.2132 58.3788 76.085 58.1127 75.6619 57.4255C74.6079 55.7185 73.1234 54.4696 71.7947 53.0434C71.5275 52.7552 71.29 52.4374 71.0599 52.1197C70.5477 51.425 70.043 50.723 69.5234 50.0284C69.2116 49.6146 68.6771 49.2451 68.6029 48.7943C68.358 47.3164 67.4153 46.6217 65.9085 46.2892C66.146 45.6167 66.5172 45.0699 66.4949 44.5378C66.4652 43.7915 66.3093 42.9712 65.9308 42.3431C65.0772 40.9391 65.7601 39.8897 66.3613 38.7221C68.1873 39.7271 68.5807 39.5867 69.8722 37.9093C70.2805 37.3772 70.8966 36.8895 71.5201 36.6678C72.5667 36.2983 73.3534 35.7293 74.0363 34.8647C75.0087 33.6306 76.5897 33.4385 78.1262 34.1849C78.2747 34.2588 78.4677 34.2366 78.6755 34.2588C78.8685 33.8375 79.0615 33.4311 79.2248 33.0838C79.3881 33.0542 79.4698 33.0099 79.4995 33.0395C81.3774 34.2957 83.2108 32.7808 85.0813 32.9064C85.3633 32.9286 85.6899 32.3374 86.0685 31.9532C85.4821 31.7093 85.0516 31.532 84.5469 31.325C85.1629 30.3792 85.8162 29.921 86.8331 30.1575C87.1077 30.224 87.4566 30.2314 87.7015 30.1131C88.4438 29.7584 89.0524 29.8471 89.5794 30.49C90.1881 31.2364 91.0046 30.793 91.732 30.8373C91.8582 30.8373 91.9621 30.8373 92.0586 30.8078C92.3333 30.7265 92.4817 30.5048 92.5262 30.1649C91.8582 30.1353 91.1827 30.0984 90.5221 30.0688C90.5073 28.746 90.7671 28.3618 91.6578 28.081C92.4817 27.8223 93.3353 27.5932 94.0924 27.2016C95.2281 26.6104 96.3192 26.0266 97.6256 25.7754C98.6499 25.5832 99.793 25.0955 99.6891 23.3811C100.661 23.8688 101.419 23.8984 101.975 23.0338C102.109 22.8269 102.673 22.7087 102.94 22.8047C103.89 23.1446 104.291 22.0657 105.078 22.0657C105.546 20.9056 106.785 20.7725 107.646 20.137C109.621 18.6887 111.491 17.0999 111.744 14.3952L111.758 14.3509ZM97.3361 4.10876C97.3361 4.10876 97.3955 4.30089 97.4252 4.40435L96.579 4.55214L96.5196 4.24917C96.7869 4.19744 97.0541 4.13832 97.3287 4.10876H97.3361ZM71.0227 33.2759C72.1287 32.7882 73.2273 32.8178 74.6302 33.3646C72.819 34.1725 71.6165 34.143 71.0227 33.2759ZM103.178 14.277C100.743 14.5874 99.8821 16.3905 98.8058 18.0384C97.1728 17.7797 96.5048 18.8734 96.0001 20.0779C94.471 20.3957 92.9865 20.6174 91.5613 21.0312C90.8784 21.2307 90.2401 21.7036 89.6982 22.184C88.711 23.0486 87.7238 23.8393 86.3506 23.9206C86.2318 23.9206 86.0833 23.9206 86.0017 23.9871C84.8215 24.9034 83.3592 25.0364 82.0083 25.502C81.1102 25.8123 80.2862 26.0045 79.4623 25.6941C78.2673 25.2433 77.3914 25.5241 76.8718 26.3222C75.8178 26.1818 74.9419 25.8936 74.1031 25.9749C72.0693 26.167 70.0504 26.5291 67.7864 26.8617C67.0887 28.1475 65.9753 28.3322 64.424 27.5267C63.6966 27.1499 62.6425 27.3494 62.1229 26.4996C61.9002 26.1449 61.7667 25.6719 61.7592 25.2507C61.7518 23.9575 61.826 22.6643 61.8557 21.3711C61.8557 21.1346 61.878 20.876 61.7963 20.6691C60.5271 17.5876 61.1357 14.543 61.7889 11.4393C62.0635 10.1461 62.8503 9.23722 63.3699 8.13615C63.4442 7.98097 63.5481 7.79622 63.6891 7.72972C64.847 7.16071 65.9753 6.34045 67.2001 6.14093C68.2095 5.97836 68.9815 5.78622 69.4269 4.69994C69.5234 4.78861 69.6198 4.8699 69.7163 4.95858V6.29611C68.5287 7.11637 67.4895 7.82578 66.4578 8.54259L66.6136 8.88251C67.0442 8.78644 67.5712 8.80861 67.8904 8.57214C70.0504 6.94641 72.7003 6.42913 75.1275 5.43891C76.5972 4.84034 78.3563 4.86251 79.9893 4.76645C82.1196 4.64082 84.2574 4.72211 86.3877 4.61126C87.2042 4.56692 87.5901 4.86251 87.8202 5.77883C88.4289 5.01769 88.9263 4.71472 89.8021 5.25417C91.0195 6.00792 92.4223 6.1631 93.8623 5.69016C94.2483 5.56453 94.7382 5.60887 95.1464 5.71233C96.3266 6.02269 97.4623 6.54736 98.6574 6.71733C99.6594 6.85773 100.365 7.44891 101.114 7.92924C101.871 8.40957 102.614 9.00074 102.547 10.1683C102.517 10.7595 103.059 11.3581 103.163 11.9788C103.282 12.7104 103.193 13.4715 103.193 14.277H103.178Z" fill="black"/>
<path d="M79.767 61.245C79.767 61.245 79.7967 61.2523 79.819 61.2595V61.1943C79.819 61.1943 79.767 61.2088 79.7373 61.2161C79.7373 61.2161 79.7596 61.2305 79.767 61.245Z" fill="black"/>
<path d="M99.8972 180.19C101.931 179.932 102.384 179.474 102.592 177.648C98.6874 177.109 94.7459 176.562 91.7843 173.444C92.9422 171.071 92.6008 168.552 92.4449 166.113C92.3336 164.295 91.3686 162.529 91.2424 160.711C91.0939 158.568 90.4259 156.573 90.0473 154.504C89.9508 153.986 89.8395 153.462 89.6614 152.959C88.8969 150.824 88.444 148.614 88.1397 146.368C88.0581 145.754 87.776 145.171 87.6944 144.557C87.5459 143.478 87.1822 142.385 87.7092 141.151C88.2511 141.151 88.7707 141.151 89.2903 141.151C90.8193 141.136 92.3187 141.04 93.7439 140.33C94.4564 139.976 95.3174 139.939 96.0894 139.702C96.75 139.503 97.3809 139.237 98.0267 138.985C98.0861 138.963 98.0935 138.815 98.1158 138.756C97.6853 138.468 97.2696 138.187 96.7055 137.803C97.1286 137.426 97.4255 137.182 97.6927 136.916C97.8857 136.724 98.1455 136.517 98.19 136.273C98.383 135.298 96.8168 133.148 95.7925 132.904C94.835 132.675 93.8032 132.564 92.9422 132.135C91.1162 131.234 89.3496 131.241 87.5237 132.039C87.3232 132.128 87.0634 132.179 86.8482 132.143C85.475 131.928 84.4358 130.931 84.1166 129.571C83.8494 128.44 83.7677 128.337 82.5727 128.559C81.7562 128.714 81.4445 128.558 81.2589 127.687C81.0733 126.822 80.1306 126.467 79.1137 126.571C78.8614 127.287 78.4605 127.989 78.4086 128.714C78.3195 129.896 77.5995 131.093 78.4457 132.298C78.8094 132.822 78.609 133.362 77.9558 133.547C75.5286 134.234 73.428 135.712 70.9488 136.296C69.6424 136.606 68.3508 137.086 67.1335 137.67C65.8642 138.276 64.6618 139.059 63.489 139.843C61.3216 141.291 59.1244 142.739 58.9092 145.658C59.8593 146.493 60.7723 147.306 61.6036 148.045C62.769 147.52 63.8453 147.055 64.9067 146.552C65.3818 146.323 65.9014 146.102 66.2799 145.754C67.334 144.779 68.7071 144.454 69.9987 144.225C72.0919 143.863 74.1554 143.5 76.1447 142.717C77.1319 142.326 78.0968 142.769 78.2527 143.693C78.5644 145.54 78.7946 147.395 79.0543 149.257C79.1063 149.604 78.9876 150.063 79.1731 150.292C79.9154 151.223 79.6333 152.331 79.8337 153.351C79.9673 154.031 80.2345 154.703 80.2494 155.383C80.3013 157.253 80.3088 159.137 80.2123 161.007C80.1677 161.916 79.8412 162.817 79.6779 163.726C79.5888 164.243 79.6185 164.783 79.5145 165.293C79.3438 166.143 79.0172 166.97 78.9059 167.827C78.6164 170.126 78.1711 170.576 75.9294 170.562C75.2762 170.562 74.6305 170.443 73.9773 170.429C73.4502 170.414 72.8861 170.355 72.4037 170.517C70.741 171.086 69.0115 171.552 67.7348 172.889C67.6308 172.993 67.4156 172.993 67.3191 173.022L66.4284 171.663C65.6861 172.224 65.3075 172.49 64.9587 172.786C64.4168 173.237 64.3277 173.917 64.7583 174.345C65.3966 174.966 65.5303 175.439 64.9364 176.133C64.8399 176.252 65.0552 176.658 65.1591 176.917C65.5451 177.944 66.2503 178.971 66.2354 179.991C66.2206 181.151 66.1092 182.141 66.9925 183.065C67.3339 183.42 67.5121 184.026 67.5566 184.536C67.6531 185.703 68.2915 186.479 69.1673 187.129C70.1249 187.846 70.7855 188.718 70.8672 190.13C70.214 189.878 69.7241 189.686 69.0486 189.427C69.0931 189.945 68.9966 190.433 69.1748 190.573C69.9541 191.164 70.7484 191.933 71.6465 192.11C72.9232 192.369 73.4279 193.071 73.7545 194.268C73.1533 194.645 72.5373 195.029 71.7505 195.517C72.4111 195.738 72.7154 196.632 73.4948 195.849C73.5616 195.783 73.8585 195.849 73.9624 195.945C74.8828 196.81 75.9888 196.403 76.9834 196.293C78.0597 196.174 79.1063 195.768 80.2717 195.465C80.242 195.147 80.1975 194.696 80.1455 194.09C82.1348 193.13 83.508 191.467 84.7401 189.723C86.7072 186.93 87.4271 183.604 88.6148 180.279C90.3071 180.02 92.0663 179.784 93.7884 180.818C94.4639 181.225 95.3026 181.387 96.082 181.617C97.3735 181.993 98.6428 182.511 100.046 182.326C100.157 182.311 100.291 182.54 100.432 182.622C100.961 182.927 101.337 182.678 101.56 181.875C100.691 181.764 99.8304 181.654 99.0139 181.55C98.7245 180.582 99.0436 180.294 99.9047 180.183L99.8972 180.19ZM70.4812 179.326C70.1026 179.474 69.3529 179.481 69.2045 179.259C68.8408 178.727 68.5587 178.018 68.581 177.39C68.6032 176.872 69.108 176.377 69.5088 175.69C71.6317 176.052 73.8511 176.429 76.4416 176.865C74.1925 177.803 72.3517 178.609 70.4886 179.326H70.4812Z" fill="black"/>
<path d="M63.7406 101.01C64.713 101.202 65.7819 101.343 66.5984 101.845C68.1571 102.798 69.8049 102.961 71.527 102.857C72.6256 102.791 73.6722 102.126 74.8227 102.606C74.9563 102.658 75.2161 102.422 75.4091 102.311C75.758 102.119 76.0845 101.801 76.4557 101.742C77.9105 101.505 78.6379 100.404 79.6029 99.3917C79.1649 99.0296 78.8235 98.7488 78.534 98.5124C78.8755 97.7217 79.0684 96.9531 79.5064 96.3546C79.9517 95.7486 80.6347 95.32 81.2136 94.8101C81.2656 94.6623 81.3175 94.5145 81.3695 94.3667C79.9072 94.9136 79.5658 93.916 79.0239 93.2065C78.4301 92.4306 78.1852 91.5956 79.0314 90.4723H73.7316C73.1575 89.5659 72.4252 89.2752 71.5344 89.6004C71.3118 89.6817 71.0742 89.7186 70.8441 89.7629C68.7212 90.1324 66.7394 89.6078 64.7947 88.8171C64.4235 88.6619 64.0376 88.5289 63.6738 88.3589C62.2264 87.6864 60.8458 86.9549 60.4821 85.1887C60.111 83.4004 59.5023 81.6786 58.3963 80.2154C57.8173 79.4469 57.6615 78.6932 57.6466 77.7916C57.6392 76.9788 57.6466 76.0403 57.2458 75.39C56.1249 73.5278 55.8132 71.4808 55.4866 69.4117C55.4495 69.1826 55.3085 68.9683 55.1378 68.5767C54.4623 69.7147 54.5662 70.9192 53.0371 71.3995C51.8495 71.769 50.9736 72.375 49.786 71.0153C49.4445 71.7912 49.1106 72.3159 48.9769 72.8849C48.6875 74.1337 48.6875 75.4713 48.2347 76.6388C47.6854 78.0503 48.0194 79.2104 48.5984 80.4519C48.8582 81.0135 49.0883 81.649 49.1031 82.255C49.1402 84.1911 49.1625 86.0903 49.9048 87.9599C51.3077 91.4995 53.4825 94.3593 56.7559 96.3619C57.2013 96.6354 57.6837 96.9236 57.9806 97.33C59.428 99.3031 61.3209 100.53 63.7258 101.003L63.7406 101.01ZM76.4334 91.4773C76.8714 92.305 77.1683 92.8666 77.5988 93.6943C76.7971 93.6056 76.233 93.5391 75.2532 93.4282C75.6911 92.704 75.9658 92.2385 76.426 91.4773H76.4334Z" fill="black"/>
<path d="M49.386 175.89C47.6268 173.481 47.0627 170.931 46.6915 168.204C46.4466 166.453 46.5876 164.576 45.6895 162.899C45.2664 162.108 45.1476 161.14 44.9472 160.238C44.5167 158.31 44.1604 156.359 43.6854 154.445C43.5072 153.735 42.8243 153.092 42.8021 152.405C42.7278 150.484 41.7406 148.947 40.9909 147.299C40.6049 146.449 40.2412 145.584 39.9443 144.698C39.7068 143.988 39.3059 143.648 38.5414 143.589C37.8437 143.538 37.1608 143.249 36.4631 143.227C35.2903 143.19 33.9542 142.274 32.9893 143.678C33.2491 144.882 34.3179 145.969 33.1748 147.188C33.0709 147.299 33.1303 147.654 33.2268 147.838C33.8429 149.058 33.7093 150.366 33.7241 151.659C33.7389 152.945 33.6796 154.208 34.1324 155.487C34.407 156.263 34.2957 157.268 34.073 158.095C33.8948 158.768 33.9542 159.27 34.1175 159.928C34.5703 161.768 35.5056 163.608 34.5777 165.581C34.4738 165.795 34.5555 166.231 34.7188 166.416C35.9138 167.791 35.6614 169.594 36.1959 171.16C36.4853 172.01 36.515 173.015 37.0123 173.695C37.4874 174.338 37.9179 174.862 37.8956 175.69C37.8956 175.964 37.9699 176.333 38.1555 176.496C39.4247 177.611 39.5509 179.274 40.2709 180.649C40.5307 181.144 40.7979 181.72 41.2358 182.023C43.381 183.508 45.5484 184.957 47.7752 186.309C48.2651 186.605 49.0519 186.583 49.6532 186.457C49.9724 186.39 50.1431 185.755 50.4623 185.467C50.8037 185.164 51.2342 184.964 51.9097 184.543C52.1991 183.693 52.6148 182.496 53.0083 181.365C51.5905 179.621 50.7221 177.833 50.7814 175.757C50.3287 175.794 49.8685 175.831 49.3934 175.867L49.386 175.89Z" fill="black"/>
<path d="M140.536 121.14C141.152 120.135 140.833 119.218 140.61 118.258C140.462 117.592 140.246 116.942 140.009 116.1C138.947 115.863 138.057 114.917 136.795 115.073C136.617 115.095 136.32 114.873 136.231 114.696C135.592 113.454 134.739 113.698 133.744 114.215C133.351 114.415 132.831 114.393 132.364 114.43C130.953 114.541 130.56 115.102 130.233 116.462C129.773 118.368 129.142 120.245 128.444 122.085C128.006 123.238 127.309 124.288 126.678 125.47C128.014 125.603 129.098 125.706 130.055 125.802C130.604 127.325 129.127 128.441 129.758 129.734C131.05 130.221 132.03 129.992 133.024 129.039C133.603 128.485 134.583 128.308 135.407 128.078C135.622 128.019 135.964 128.396 136.357 128.633C136.914 127.96 137.418 127.229 138.049 126.637C138.71 126.009 139.43 125.219 140.246 125.027C141.449 124.746 142.058 123.97 142.703 123.009C141.931 123.238 141.152 123.467 140.395 123.689C139.823 122.647 140.128 121.805 140.536 121.147V121.14Z" fill="black"/>
<path d="M122.247 127.739C122.663 127.266 122.633 126.298 121.735 125.773C121.408 125.581 121.275 125.056 121.067 124.672C120.659 123.933 120.406 123.017 119.805 122.507C119.36 122.13 118.461 122.255 117.764 122.233C116.702 122.204 115.619 122.374 114.579 122.211C112.998 121.967 111.974 122.632 111.172 123.844C110.794 124.428 110.512 125.078 110.126 125.655C109.458 126.652 109.183 127.591 110.133 128.611C110.356 128.854 110.2 129.416 110.304 129.808C110.734 131.404 110.311 133.355 112.197 134.36C112.315 134.419 112.293 134.692 112.39 134.833C112.694 135.269 113.021 135.697 113.169 135.897C117.66 135.431 120.807 133.436 122.692 129.512C122.024 129.084 121.364 128.721 122.24 127.724L122.247 127.739Z" fill="black"/>
<path d="M95.4578 28.9456C93.4462 28.7609 93.1196 28.9086 92.6074 30.091C93.7654 30.4014 94.3815 29.4777 95.4578 28.9456Z" fill="black"/>
<path d="M92.6 30.0907C92.6 30.0907 92.5629 30.0907 92.5406 30.0762C92.5406 30.0762 92.5332 30.1051 92.5332 30.1196H92.5852C92.5852 30.1196 92.5926 30.0979 92.6 30.0834V30.0907Z" fill="black"/>
<path d="M100.454 26.0562C99.5038 26.4404 98.8432 26.7877 99.0584 28.044C100.157 27.7336 100.432 27.0981 100.454 26.0562Z" fill="black"/>
<path d="M86.6553 31.4507H89.0899C88.2215 30.6674 87.6054 30.7561 86.6553 31.4507Z" fill="black"/>
<path d="M69.3154 194.948H70.8445C70.3175 194.209 69.8573 194.239 69.3154 194.948Z" fill="black"/>
<path d="M81.4072 99.2731C81.8155 99.0366 82.2163 98.7927 82.9289 98.3715C81.6671 98.002 81.6448 98.7706 81.4072 99.2731Z" fill="black"/>
<path d="M79.8184 61.2607C79.8258 61.6081 79.8332 61.9702 79.8555 62.5687C80.6348 61.7263 80.3973 61.4307 79.8184 61.2607Z" fill="black"/>
<path d="M102.562 180.018H103.771L103.786 179.88H102.562V180.018Z" fill="black"/>
<path d="M87.5753 0.214302L87.1893 0L86.9072 0.790698L87.1744 0.916325C87.308 0.679854 87.4417 0.443381 87.5753 0.206911V0.214302Z" fill="black"/>
<path d="M71.5352 38.5005C71.8543 38.471 72.1735 38.4414 72.4927 38.4118L72.4482 38.0571C72.129 38.1015 71.8172 38.1458 71.498 38.1828L71.5352 38.4931V38.5005Z" fill="black"/>
</svg>
