<svg width="114" height="212" viewBox="0 0 114 212" fill="none" xmlns="http://www.w3.org/2000/svg">
<path d="M108.915 76.6617C108.071 76.0785 107.481 75.9962 106.871 76.6411C105.794 76.1129 104.792 75.5708 103.756 75.1249C102.624 74.6309 101.471 74.082 100.277 75.0631C100.113 75.2004 99.756 75.1318 99.4884 75.1112C98.8847 75.0769 98.2878 74.9945 97.684 74.9602C96.0374 74.8573 94.5075 74.5897 93.739 72.8197C93.5881 72.4766 93.1353 72.1747 92.7511 72.0306C91.6396 71.6121 90.4596 71.3651 89.3687 70.9123C87.777 70.2468 86.2059 69.5196 84.6827 68.7031C83.5095 68.072 82.2266 67.4133 82.3501 65.6912L83.7428 65.012C85.2042 66.0343 86.5763 65.6775 87.873 64.6209C88.4631 64.1407 89.0394 63.633 89.6363 63.1596C91.077 62.0138 91.7494 60.4015 92.4904 58.7892C92.9432 57.8081 92.559 56.8682 92.7374 55.942C92.9775 54.7207 93.2519 53.5681 92.9638 52.2783C92.8265 51.6471 92.7511 51.2011 92.1885 50.8169C91.7426 50.5082 91.5161 49.8839 91.077 49.5751C89.897 48.7381 88.4425 49.2732 87.1389 48.9233C86.8233 48.841 86.3019 49.3281 85.9451 49.6437C85.2522 50.2543 84.621 50.9336 83.9555 51.5716C83.7222 51.798 83.338 51.9215 83.2008 52.1822C82.4255 53.6779 81.0877 54.4051 79.6263 55.0295C79.2764 55.1804 79.0088 55.5921 78.7618 55.9214C78.1375 56.7378 77.5681 57.6023 76.9163 58.405C76.436 58.9951 75.8734 59.2901 75.0982 58.7138C74.4052 58.1923 73.527 57.9042 72.8752 57.3484C72.1548 56.731 71.1326 56.5938 70.6043 56.8407C69.1567 57.5062 67.8943 57.0809 66.7005 56.731C66.7005 57.6229 66.7348 58.5217 66.6936 59.4136C66.6456 60.3947 66.4398 61.3758 66.4466 62.3569C66.4466 63.0841 66.4672 63.9623 66.8514 64.5112C67.8119 65.8696 67.8737 67.4064 65.74 68.2366C64.5462 68.7031 63.4622 69.403 62.5291 70.1576C61.4862 71.0084 60.512 70.8575 59.3456 70.9329C59.3731 70.4732 59.3594 70.1439 59.4211 69.8283C59.723 68.2297 60.169 66.6449 60.3268 65.0326C60.6904 61.2797 60.9374 57.5131 61.1912 53.7534C61.2461 52.8958 61.4931 52.2028 62.0763 51.5442C62.5977 50.9541 63.222 50.2406 63.3044 49.5339C63.4141 48.5666 63.7846 47.9285 64.5805 47.414C64.2443 46.9337 63.963 46.5358 63.7092 46.1653C63.8738 45.589 64.6079 45.1567 63.8738 44.4569C62.6457 45.2391 61.3353 44.8549 59.9426 44.6902C59.6064 43.2083 59.2496 41.7949 58.9752 40.361C58.7556 39.1878 60.0043 37.7402 61.1844 37.699C62.2135 37.6647 63.2152 37.6853 64.2237 37.2393C65.3077 36.7591 66.1447 37.4246 66.131 38.6664C66.1173 39.9082 66.0007 41.1569 65.8703 42.3987C65.8017 43.0779 65.9664 43.517 66.5838 43.8875C67.0915 44.1894 67.4689 44.6902 67.908 45.1087V45.5204C68.6009 45.4312 69.5546 45.5958 69.9251 45.2116C71.407 43.6679 72.7037 41.9527 74.0622 40.2993C74.0965 40.2581 74.0896 40.1963 74.1102 40.1415C74.8169 37.898 75.4481 35.6476 75.5441 33.2738C75.5921 32.128 75.7225 30.9822 75.7842 29.8296C75.8323 28.8965 76.0655 27.8949 75.8048 27.051C75.4 25.7543 75.3863 24.4644 75.4137 23.1746C75.4275 22.2827 75.8254 21.3908 76.0518 20.5057C77.2524 20.2656 77.4926 18.9826 78.3982 18.372C79.3999 17.6996 79.6606 16.204 79.0843 15.1406C78.261 13.6243 76.9849 12.7393 75.2559 12.4442C74.3846 12.2933 73.5476 11.964 72.4636 11.6415C72.0794 11.6895 71.3178 12.0189 70.7415 11.8199C69.829 11.5043 68.992 11.5866 68.1481 11.7856C66.673 12.1286 65.2391 12.6432 63.7572 12.9245C60.6286 13.5077 57.7471 14.6672 55.0508 16.3206C54.1383 16.8832 53.562 17.6242 53.61 18.8385C53.658 19.998 54.3029 20.8831 54.6254 21.8985C54.9136 22.811 55.3801 23.305 56.2789 23.4628C56.7797 23.5519 57.1982 23.6892 57.356 24.2929C57.4246 24.5468 57.7677 24.7732 58.0284 24.9241C59.3662 25.6788 60.7247 26.4129 62.2203 27.2294C62.5565 26.5844 62.8721 26.1453 63.0231 25.6514C63.3455 24.5948 63.6405 24.1283 64.6354 24.2037C65.7743 24.2929 66.3163 23.6617 66.7897 22.8933C68.0521 23.449 68.3265 23.8538 68.2716 24.9927C68.2167 26.0836 68.2853 27.2019 68.0658 28.2653C67.8531 29.3013 67.3934 30.303 66.92 31.2567C66.7759 31.538 66.2339 31.7163 65.8497 31.7644C65.1088 31.8604 64.3403 31.9016 63.5994 31.8467C61.5686 31.7095 59.5309 31.5929 57.555 32.176C56.4367 32.5053 55.2566 32.7661 54.4607 33.8089C53.953 34.4744 53.7541 34.989 54.4401 35.6407C54.9204 36.0936 55.2154 36.6218 55.1331 37.3903C54.8998 39.5514 53.5963 41.4862 53.857 43.7434C53.8707 43.8875 53.7266 44.0384 53.6786 44.1962C53.5277 44.6971 53.3424 45.1979 53.2601 45.7125C53.0817 46.8994 53.1983 48.2029 52.7455 49.2664C52.1486 50.666 52.08 52.093 51.8811 53.5338C51.5243 56.1204 51.1469 58.7 50.7696 61.2866C50.7353 61.4993 50.6393 61.7051 50.5912 61.9178C50.2894 63.187 49.9737 64.4494 49.7062 65.7187C49.6033 66.1989 49.7062 66.7409 49.5347 67.18C48.78 69.0325 48.7457 70.9878 48.5604 72.9363C48.4163 74.4937 48.0939 75.9619 46.4747 76.9156C44.8899 77.8418 44.5743 79.5639 45.1917 81.3202C45.3427 81.7525 45.3358 82.2807 45.2603 82.7473C45.0888 83.9068 45.4868 84.7644 46.4473 85.4024C46.6668 85.5534 46.8932 85.718 47.0716 85.9101C48.2242 87.1862 49.2877 88.5241 50.0012 90.1158C50.1453 90.4383 50.3854 90.7608 50.6667 90.9666C51.1469 91.3165 51.7301 91.5223 52.1967 91.8859C52.6838 92.2701 53.1229 92.3525 53.7061 92.1123C55.3458 91.4263 56.9512 90.8019 58.4606 89.7248C60.4571 88.3046 61.7264 86.4178 62.8584 84.4282C63.421 83.4334 63.963 82.2396 63.3798 80.7714C62.8996 79.557 63.1809 78.0476 64.3815 77.0734C65.0196 76.5588 65.1636 75.9276 65.1568 75.1866C65.1431 74.2536 65.6782 73.5743 66.3025 72.9912C67.1602 72.1953 68.0727 71.4475 69.1155 70.5487C69.8084 71.276 70.618 72.0787 71.359 72.9363C71.6266 73.245 71.7363 73.6978 71.949 74.1369C72.3813 73.739 72.7106 72.9569 73.4927 73.5469C73.9593 75.3513 75.2902 76.5245 76.6556 77.5742C78.6178 79.0905 80.7035 80.4489 82.7343 81.876C85.1081 83.5431 87.7289 84.682 90.4596 85.5945C91.324 85.8827 92.1954 86.1846 93.0873 86.3561C94.4732 86.6237 95.9139 87.0353 97.0871 85.7386C97.2518 85.5602 97.5537 85.4505 97.8075 85.4299C99.0562 85.3064 100.312 85.2035 101.567 85.1211C102.439 85.0662 103.262 84.9496 104.099 84.586C104.84 84.2704 104.943 83.2275 105.869 83.2618C106.26 82.0063 107.262 81.924 108.387 82.1024C108.606 79.3649 110.596 80.6136 111.769 80.4146C112.401 79.8246 112.929 79.3306 113.635 78.6651C113.039 78.4044 112.531 78.1711 112.009 77.9584C110.967 77.533 109.807 77.2723 108.902 76.648L108.915 76.6617ZM79.9831 63.7771C80.3124 63.0041 80.8247 62.7365 81.5199 62.9743C81.0396 63.5735 80.5274 63.8411 79.9831 63.7771Z" fill="black"/>
<path d="M57.3775 176.446C55.8201 176.322 55.5731 175.046 55.1066 173.962C54.9625 173.626 54.9351 173.166 54.6881 172.968C53.5286 172.055 52.3074 171.218 51.0999 170.34C50.0502 170.841 49.1102 170.655 48.184 169.99C47.347 169.386 46.5168 168.666 45.5632 168.364C43.45 167.692 41.2957 167.108 39.1071 166.752C37.5085 166.491 36.9528 165.331 37.5291 164.055C38.0711 162.848 37.9545 161.585 38.2907 160.392C38.5994 159.308 38.3112 158.32 37.7144 157.441C37.2615 156.783 36.6509 156.241 36.1295 155.623C35.3062 154.642 34.5104 153.647 33.639 152.591C33.2137 153.531 32.5687 154.498 33.0627 155.719C33.1382 155.905 32.9735 156.22 32.8569 156.447C32.3423 157.421 31.4641 157.983 30.6065 158.649C28.4042 160.357 27.2996 162.964 25.8451 165.277C25.5707 165.709 25.406 166.203 25.1865 166.669C24.9669 167.143 24.7131 167.602 24.5347 168.089C23.8692 169.901 24.6925 171.486 25.3854 173.05C26.1744 174.82 26.984 176.604 28.0131 178.244C28.5483 179.101 29.4676 179.89 30.4007 180.295C32.1708 181.063 34.0713 181.036 35.9443 180.466C36.301 180.357 36.6921 180.274 37.0626 180.295C38.9699 180.391 40.8841 180.439 42.7777 180.679C43.8342 180.816 45.0761 181.317 45.275 182.429C45.5426 183.959 45.5083 185.598 44.5135 186.998C43.7245 188.109 43.0727 189.344 42.1396 190.319C41.1997 191.293 41.3369 192.946 39.9441 193.564C38.7298 195.519 37.1861 197.166 35.3748 198.572C35.1073 198.778 35.0318 199.238 34.8191 199.697H36.8225C36.6441 200.5 36.2599 200.891 35.5875 201.104C34.8946 201.323 34.2222 201.618 33.543 201.879C33.9409 202.931 33.4789 203.706 32.1571 204.205C31.2103 203.231 33.392 202.737 32.459 201.536C31.6357 202.613 30.9153 203.581 30.1674 204.541C29.9479 204.822 29.7215 205.165 29.4196 205.316C27.9034 206.092 27.135 207.663 25.8314 208.664C25.7422 208.733 25.9137 209.433 26.1264 209.55C26.4077 209.707 26.8605 209.646 27.2173 209.577C29.4127 209.179 31.6905 209.412 33.8449 208.678C33.8929 208.664 33.9546 208.644 34.0027 208.651C35.6561 208.946 37.1243 208.582 38.4485 207.532C38.8601 207.21 39.3953 206.997 39.903 206.86C40.2186 206.771 40.5959 206.915 40.939 206.949C40.8909 207.265 40.8429 207.58 40.7743 208.054C42.1122 207.306 43.896 208.212 45.1721 206.297C44.2733 206.476 43.7039 206.586 43.1413 206.702C42.9286 205.467 43.5667 204.678 44.8977 204.596C45.2201 205.207 44.8359 206.4 46.2424 206.27C45.9268 205.385 46.3179 204.761 46.901 204.15C47.8135 203.19 48.9799 202.558 49.7277 201.323C51.0724 199.08 53.0209 197.2 53.9334 194.662C54.05 194.332 54.3656 193.996 54.6744 193.831C56.0054 193.118 55.9573 191.643 56.5268 190.524C56.616 190.339 56.321 189.962 56.2729 189.845C56.9041 189.399 57.501 188.988 58.2763 188.439C57.5971 187.869 57.0894 187.444 56.5817 187.012C56.6503 186.861 56.6777 186.662 56.7944 186.573C57.7961 185.818 58.2557 184.919 57.8166 183.629C57.7 183.293 57.8509 182.573 58.0979 182.449C58.832 182.072 58.5919 181.496 58.4958 181.029C58.1803 179.513 57.7686 178.01 57.3913 176.46L57.3775 176.446Z" fill="black"/>
<path d="M10.2705 43.627C13.5157 43.9769 16.5482 42.9615 19.6425 42.3508C20.0541 42.2685 20.4795 42.3028 21.0558 42.2754C21.2479 43.1673 21.4674 43.9426 21.5704 44.7384C21.8379 46.7418 22.1055 48.7383 22.2633 50.7485C22.3525 51.8806 22.5515 53.2047 22.0781 54.1172C21.5018 55.2286 21.6458 55.8804 22.3113 56.7449C22.5309 57.033 22.6475 57.6299 22.4966 57.925C22.2702 58.364 21.8516 58.7208 22.277 59.2079C22.5858 59.5578 22.97 59.9352 23.3885 60.0655C23.9511 60.2439 24.2667 60.5458 24.6303 60.9986C25.0625 61.5269 25.7417 62.0483 26.3935 62.165C27.8 62.4119 28.0333 62.508 28.2597 63.9008C28.294 64.1203 28.3695 64.3398 28.4861 64.7995C29.0007 63.9762 29.4123 63.4068 29.7348 62.7962C30.3385 61.6573 30.3179 61.6435 31.402 62.707C32.0949 62.2541 32.9251 61.8905 33.4877 61.2799C34.0022 60.7242 34.4482 60.6418 35.0588 60.882C35.5733 61.0878 36.0742 61.2868 36.6162 60.9369C37.0416 60.6624 37.4464 60.4909 37.9403 60.9231C38.1324 61.0947 38.599 61.0809 38.8871 60.9849C41.014 60.2782 43.1203 59.4892 44.3141 57.3967C44.9315 56.3127 45.3843 55.1463 45.7548 54.3505C45.6039 53.2664 45.5147 52.5255 45.3912 51.7914C45.2128 50.776 45.3363 49.4587 44.7463 48.8206C43.5525 47.5376 42.0088 46.5634 40.52 45.5892C39.4634 44.8962 38.0021 45.3971 36.9249 44.56C36.7946 44.4571 36.4378 44.6561 36.0811 44.7384C36.6917 45.8636 36.6505 46.831 35.9987 47.8807C35.4773 48.7314 35.2577 49.7674 34.8667 50.8377C33.9062 50.5084 33.666 51.4483 33.1377 52.203C32.829 51.7776 32.4311 51.4826 32.4517 51.2013C32.4997 50.2477 32.0743 49.3901 31.992 48.5119C31.7793 46.2615 31.8548 43.9837 31.8342 41.7128C31.8342 41.3835 31.9371 41.0541 31.9165 40.7317C31.8342 38.9547 32.5751 37.7061 34.1394 36.8347C35.3607 36.1555 35.69 34.7902 36.184 34.0081C35.6831 33.0818 35.2715 32.4781 35.0176 31.8126C34.75 31.0922 34.4413 30.6051 33.5906 30.4541C32.6781 30.2963 32.4585 29.7543 32.7192 28.9036C32.9868 28.0254 33.2338 27.1404 33.4945 26.2622C33.7072 25.5281 33.4808 25.0135 32.8222 24.6018C32.3282 24.2931 31.841 23.9158 31.498 23.4561C30.8874 22.6396 30.1464 22.2349 29.131 22.2897C26.8395 22.4201 24.7263 21.8301 22.8808 20.6226C21.2753 21.782 20.2188 24.101 17.7351 22.3927C16.7129 23.5041 15.3339 23.3257 13.749 23.5384C14.5037 25.1301 15.1006 26.4406 15.7592 27.7167C15.8896 27.9705 16.2875 28.2861 16.5139 28.2518C17.9616 28.0254 18.9015 29.1506 20.1159 29.5279C21.0215 29.8092 21.7213 31.154 21.6321 32.0321C21.488 33.4318 20.7882 34.1316 19.4504 34.4334C17.6734 34.8314 15.8759 35.1881 14.1744 35.8125C13.0698 36.2173 12.123 37.0611 11.2585 37.61C8.11624 37.164 5.03574 36.725 1.96895 36.2859C1.72882 36.821 1.57787 37.2395 1.35832 37.61C0.86434 38.4607 0.898646 39.2566 1.48868 40.0525C1.81114 40.4847 2.04441 40.9924 2.36687 41.4178C3.6224 43.0712 5.26899 44.0112 7.37527 43.9494C8.34265 43.922 9.32377 43.5172 10.2637 43.6201L10.2705 43.627Z" fill="black"/>
<path d="M2.57282 26.5502C2.89528 26.5227 3.23833 26.5022 3.54706 26.5845C4.76143 26.9069 5.70138 26.5022 6.60015 25.6651C7.60869 24.7252 8.35651 23.5245 9.59146 22.8042C10.2364 22.4268 10.8539 21.9534 11.389 21.4251C14.0236 18.8112 17.008 16.7186 20.4042 15.2092C21.1245 14.8868 21.9959 14.5094 22.3663 13.8919C23.1005 12.6707 24.0267 11.4014 23.4161 9.61076C23.9718 9.52157 24.4589 9.30889 24.8774 9.4118C26.5583 9.82345 28.2324 10.2763 29.8721 10.8251C32.3969 11.6759 34.8942 12.6295 37.7346 12.2796C38.0365 11.4632 38.6266 10.928 39.443 11.0927C39.786 10.242 40.0742 9.5353 40.4241 8.67769C39.9644 8.06708 38.9078 7.58682 38.949 6.39303C38.949 6.24209 38.6951 6.01568 38.5099 5.94021C37.817 5.6452 37.1309 5.3296 36.4036 5.13749C33.6799 4.41025 30.9355 3.75161 28.2186 3.01063C27.7178 2.87342 27.3405 2.90772 26.8396 3.0175C25.392 3.33996 24.0335 3.27135 23.073 1.79627C22.7025 1.22682 22.0576 0.815166 21.4882 0.403516C20.8089 -0.0973258 20.0405 -0.145353 19.3476 0.334906C17.5363 1.5973 15.8211 2.99005 14.3254 4.62293C14.0785 4.89737 13.7217 5.24727 13.7286 5.54915C13.7697 7.02423 12.6651 7.72403 11.7595 8.49245C8.87794 10.9418 6.14047 14.2487 4.32921 17.5145C4.0685 17.981 3.51962 18.3858 3.01192 18.5916C2.00338 18.9964 1.30357 19.6001 0.740983 20.5469C-0.0205708 21.8162 0.198964 23.1746 0 24.3341C0.493981 24.9036 0.912511 25.3084 1.24183 25.7818C1.57801 26.2689 1.94849 26.5913 2.57968 26.5365L2.57282 26.5502ZM10.106 19.2297C9.88648 20.643 9.20726 21.3702 7.98603 21.5349C8.43885 20.5401 8.71328 19.5315 10.106 19.2297Z" fill="black"/>
<path d="M24.2121 86.3496C24.3562 86.329 24.4934 86.1986 24.6306 86.1095C26.8741 84.5177 29.1039 82.9192 31.3542 81.3343C32.8499 80.2846 34.3798 79.2692 35.8755 78.2195C36.3969 77.849 36.8841 77.4236 37.3643 77.0051C37.5084 76.8816 37.7005 76.5866 37.6593 76.5111C36.9184 75.3448 38.0572 75.1527 38.5924 74.645C39.2922 73.9863 39.9989 73.3346 40.6781 72.6553C40.7673 72.5662 40.733 72.3535 40.7673 72.1065C40.4723 72.0036 40.1841 71.9007 39.9028 71.7977C39.6078 72.2368 39.3677 72.5936 39.1276 72.9504C38.8325 72.3192 38.5993 71.5645 38.8737 71.2351C39.8273 70.0894 39.745 68.3467 41.2476 67.5783C40.7193 66.7756 40.287 66.0964 40.6918 65.2045C40.8359 64.8889 40.7879 64.4155 40.6644 64.0793C40.5752 63.8323 40.143 63.4618 39.992 63.5167C38.9835 63.8803 38.0092 64.34 37.0213 64.7722C36.9252 66.3639 35.4501 66.2199 34.6062 66.3091C32.3559 66.5355 30.2702 67.2559 27.9169 67.9694C28.0816 69.7258 26.7918 70.6108 25.7695 71.4684C24.4728 72.5524 23.1761 73.6296 21.9137 74.7548C21.2276 75.3654 20.2877 76.1063 19.4301 75.5506C18.449 74.9194 17.7492 75.3242 16.9122 75.5918C16.2398 75.8113 15.54 75.976 14.8402 76.0583C13.1181 76.2641 11.7253 77.554 11.4372 79.2417C11.3549 79.7494 11.1628 80.2366 10.9844 80.8884C11.7116 81.4852 11.6293 82.8437 12.7956 83.4543C13.8797 84.0238 14.9842 84.6344 15.6566 85.7664C15.7732 85.9585 16.1369 85.9997 16.3839 86.1095C18.9635 87.2964 21.5981 86.7201 24.2258 86.3496H24.2121Z" fill="black"/>
<path d="M26.8604 129.812C27.5053 128.982 27.9649 128.173 27.9718 127.054C27.9718 126.259 28.3217 125.463 28.507 124.667C28.946 122.814 29.5292 120.983 29.7899 119.103C30.0575 117.168 30.0438 115.199 30.0918 113.237C30.1124 112.564 30.3319 112.084 30.8945 111.734C32.2255 110.904 33.5497 110.067 35.2031 109.024C33.5154 109.079 32.6852 108.722 32.3216 107.192C32.0266 105.93 31.4297 104.427 29.5567 104.482V102.191C28.7814 101.841 28.0267 101.546 27.3063 101.175C26.5928 100.812 25.9204 100.373 25.2275 99.9678L24.9805 100.187C25.1177 100.592 25.2549 101.004 25.4402 101.559C24.6923 101.786 25.0285 102.602 24.953 103.261C24.7335 105.024 24.164 106.54 22.2224 107.048C21.502 107.233 20.7473 107.275 20.0269 107.446C19.5878 107.556 18.9772 107.693 18.8263 108.002C18.6685 108.324 18.84 108.969 19.0939 109.305C19.6084 109.991 20.2259 110.63 20.8914 111.172C21.4609 111.638 21.7147 112.153 21.653 112.873C21.5501 114.074 21.4815 115.281 21.3717 116.482C21.3305 116.907 21.3511 117.463 21.0972 117.724C20.4523 118.396 20.665 119.116 20.6924 119.878C20.7199 120.619 20.6307 121.374 20.5484 122.115C20.4317 123.151 19.8074 124.063 20.0818 125.223C20.2396 125.888 19.7662 126.677 19.6839 127.425C19.6016 128.159 19.5124 128.948 19.6839 129.655C20.075 131.281 20.1436 131.267 21.797 130.835C21.8862 130.814 22.0029 130.883 22.1881 130.931C22.291 131.294 22.4008 131.699 22.5586 132.282C23.032 131.857 23.3888 131.459 23.8279 131.171C24.164 130.944 24.6237 130.677 24.9599 130.746C25.893 130.938 26.3458 130.478 26.8535 129.819L26.8604 129.812ZM24.4385 129.017C24.5894 128.893 24.7198 128.742 24.8913 128.667C24.9325 128.646 25.0834 128.859 25.2892 129.071C25.0491 129.174 24.8913 129.284 24.7266 129.291C24.6306 129.291 24.5345 129.119 24.4385 129.023V129.017Z" fill="black"/>
<path d="M46.4893 149.901C47.674 150.052 48.4515 150.534 48.822 151.348C49.4669 151.431 50.2696 151.307 50.4961 151.609C51.0175 152.302 51.635 152.096 52.2524 152.165C52.9865 152.247 53.8236 152.185 54.4205 152.041C55.0791 151.884 55.5251 150.834 56.0053 150.244C55.7926 149.132 55.8132 148.151 55.4222 147.376C54.5165 145.578 53.1992 144.042 51.6075 142.8C50.894 142.244 49.9952 141.929 49.268 141.387C47.7998 140.296 47.0588 140.536 46.7089 142.313C46.6471 142.635 46.5168 142.978 46.5854 143.273C46.901 144.714 46.1051 145.654 45.2064 146.56C44.9113 146.855 44.6301 147.163 44.3145 147.506C45.2407 148.24 46.4893 148.556 46.4962 149.894L46.4893 149.901Z" fill="black"/>
<path d="M52.8077 107.687C52.4166 107.426 52.0942 107.021 51.7717 107.021C50.7769 107.021 49.7409 106.987 48.7873 107.09C47.47 107.227 46.2076 107.906 44.9315 108.38C44.7051 108.462 44.4924 108.661 44.3483 108.86C43.7651 109.649 43.0173 110.074 42.0362 110.122C41.7275 110.136 41.2335 110.198 41.1511 110.383C40.8287 111.11 40.1838 111.144 39.5732 111.385C38.6469 111.748 37.7825 112.263 36.6367 112.846C37.7413 113.237 38.5921 113.086 39.4154 112.921C40.0191 112.798 40.4033 112.846 40.7532 113.463C41.158 114.177 42.5576 114.884 43.0036 114.609C43.7926 114.129 44.5816 114.321 45.3843 114.376C46.2625 114.438 47.0926 114.41 47.8748 113.861C48.3002 113.566 48.849 113.415 49.3567 113.278C51.0719 112.832 52.8008 112.421 54.5023 112.002C53.7888 111.398 53.1851 110.891 52.5813 110.39C51.168 109.217 51.1748 108.812 52.8214 107.693L52.8077 107.687Z" fill="black"/>
<path d="M47.1339 130.383C47.4221 130.266 47.7926 130.252 48.1082 130.3C49.7685 130.568 50.777 129.497 51.9297 128.523C52.355 128.249 53.1097 129.052 53.6929 127.974C53.0343 127.974 52.458 128.146 52.2453 127.947C51.3945 127.144 50.3723 126.341 49.9675 125.312C49.5215 124.18 48.8835 123.872 47.8475 123.645C46.1185 123.268 44.3896 123.817 42.6744 123.487C42.0501 123.371 41.4051 123.391 40.6367 123.336C40.8357 124.914 40.8151 126.431 41.2473 127.803C41.8442 129.683 44.1906 131.59 47.1477 130.389L47.1339 130.383Z" fill="black"/>
<path d="M14.2222 60.9644C13.9684 59.8392 13.8037 59.112 13.5979 58.1857C14.1399 57.1772 14.133 57.1841 13.4744 55.7844C13.3097 55.4414 13.1382 55.0846 13.0971 54.7142C13.0353 54.179 12.8089 53.884 12.3492 53.5615C10.5722 52.3129 9.0766 50.7623 7.56035 48.9854C7.52605 49.4587 7.38197 49.9527 7.49174 50.3918C7.71129 51.2837 7.49175 52.0727 6.96346 52.7039C5.7834 54.1241 5.92061 55.709 6.10586 57.3624C6.20191 58.2475 6.54495 59.0296 7.27906 59.3864C8.36993 59.9215 8.91881 60.8958 9.62547 61.8151C10.9771 60.9644 12.164 59.6814 14.2291 60.9644H14.2222Z" fill="black"/>
<path d="M109.918 82.2944C110.933 82.3492 111.942 82.4041 112.957 82.459L112.978 82.0474C111.962 81.9993 110.954 81.9582 109.939 81.9102L109.918 82.2875V82.2944Z" fill="black"/>
<path d="M107.427 84.7574C107.797 84.2086 108.12 83.7214 108.531 83.104C107.132 82.8364 107.09 82.8913 107.427 84.7574Z" fill="black"/>
<path d="M38.599 211.889C38.8459 211.271 39.0929 210.647 39.3399 210.029C38.7842 210.475 37.8786 210.729 38.599 211.889Z" fill="black"/>
<path d="M20.8291 72.4013C20.8291 72.4013 20.9732 72.6414 21.0487 72.7649C21.2957 72.6071 21.5427 72.4561 21.7896 72.2983C21.7142 72.1611 21.6387 72.0308 21.5564 71.8936C21.3094 72.0582 21.0555 72.216 20.8223 72.4013H20.8291Z" fill="black"/>
<path d="M42.0844 62.6175C42.2353 62.6518 42.4206 62.494 42.7705 62.3499C42.4755 62.1166 42.3314 61.8971 42.1941 61.904C42.153 61.904 42.1118 61.9177 42.0707 61.9451C41.9472 62.0069 41.8305 62.1372 41.707 62.2264C41.7413 62.2607 41.7688 62.3019 41.7962 62.3431C41.8854 62.4666 41.9746 62.5969 42.0844 62.6244V62.6175Z" fill="black"/>
<path d="M24.4248 132.021V133.112C24.7175 132.673 24.7175 132.31 24.4248 132.021Z" fill="black"/>
<path d="M1.43418 27.3805L1.23521 27.3462C1.15974 27.6 1.08426 27.8539 1.00879 28.1077L1.38615 28.1695C1.40673 27.9019 1.42044 27.6412 1.44103 27.3736L1.43418 27.3805Z" fill="black"/>
<path d="M14.7503 73.7803C14.3249 73.9724 14.0437 74.1027 13.584 74.3086C14.1511 74.4138 14.5399 74.2377 14.7503 73.7803Z" fill="black"/>
<path d="M39.6207 122.924C39.7579 122.883 40.0186 122.821 40.0118 122.801C39.9706 122.574 39.8952 122.355 39.8334 122.128L39.4561 122.231L39.6276 122.917L39.6207 122.924Z" fill="black"/>
<path d="M42.5303 208.149C42.4343 208.424 42.3314 208.602 42.3382 208.774C42.3382 208.877 42.5166 208.973 42.6195 209.069C42.7293 208.911 42.8802 208.76 42.9214 208.582C42.942 208.499 42.7361 208.369 42.5372 208.149H42.5303Z" fill="black"/>
<path d="M43.7041 208.816H44.4519L44.4862 208.651C44.2393 208.589 43.9991 208.534 43.7521 208.473C43.7384 208.589 43.7247 208.706 43.711 208.823L43.7041 208.816Z" fill="black"/>
<path d="M39.4434 209.906C39.6629 209.886 39.8824 209.872 40.1843 209.844L40.5342 209.817C39.8893 209.357 39.5806 209.378 39.4434 209.913V209.906Z" fill="black"/>
<path d="M39.3879 209.913L39.3398 210.03C39.3398 210.03 39.3947 209.982 39.4222 209.954L39.3947 209.927L39.4222 209.954C39.4222 209.954 39.429 209.927 39.4359 209.906H39.381L39.3879 209.913Z" fill="black"/>
</svg>
