<svg width="126" height="190" viewBox="0 0 126 190" fill="none" xmlns="http://www.w3.org/2000/svg">
<path d="M124.436 175.763C123.203 174.977 121.787 174.264 120.372 174.036C117.782 173.624 115.141 173.58 112.514 173.411C112.118 173.389 111.619 173.426 111.333 173.646C110.284 174.455 109.11 174.256 107.943 174.19C106.99 174.131 106.051 174.139 105.368 174.94C104.334 176.153 102.984 176.52 101.465 176.528C101.003 176.528 100.541 176.66 100.086 176.748C97.342 177.3 94.9063 178.858 92.089 179.159C90.8418 180.188 89.4479 179.711 88.0759 179.645C88.2373 178.542 88.208 178.505 88.9857 177.836C89.4992 177.403 90.1595 176.748 90.6951 176.8C92.067 176.947 93.1675 176.256 94.4001 176.05C95.1337 173.889 95.882 171.809 96.5276 169.699C96.8798 168.552 97.1439 167.361 97.276 166.171C97.3567 165.458 97.6501 165.046 98.1197 164.561C99.3669 163.267 100.504 161.937 100.284 159.856C100.093 158.026 100.827 157.239 102.588 156.622C103.395 156.335 104.165 155.938 105.016 155.563V153.344C105.779 152.866 106.403 152.476 107.202 151.976C106.425 151.396 105.794 150.925 105.06 150.381C105.111 150.175 105.17 149.845 105.288 149.536C105.398 149.242 105.559 148.963 105.794 148.492C103.651 147.588 101.678 146.625 99.6164 145.905C97.9143 145.317 96.645 144.089 95.1264 143.236C94.7302 143.016 94.5174 142.457 94.1213 141.928C94.6715 141.524 95.053 141.171 95.4932 140.921C97.364 139.84 99.2495 138.789 100.79 137.223C101.098 136.907 101.583 136.753 101.979 136.525C102.485 136.238 102.947 135.996 103.065 135.275C103.153 134.761 103.644 134.32 103.945 133.842C104.136 133.533 104.297 133.21 104.517 132.813C103.204 132.688 102.081 132.585 100.871 132.467C100.974 131.725 101.047 131.174 101.12 130.608C99.7704 129.887 98.5305 129.711 97.2099 130.461C96.2415 131.012 95.1484 131.034 93.8351 130.975C93.9672 130.306 94.0626 129.755 94.1946 129.218C94.5394 127.866 94.9136 126.521 95.2511 125.161C95.4638 124.308 95.6326 123.448 95.8307 122.595C96.0654 121.596 96.7257 121.059 97.6355 120.611C99.4549 119.699 101.34 118.81 102.933 117.582C104.033 116.737 104.84 115.561 106.557 115.686C106.469 114.642 106.403 113.797 106.337 113.039C105.339 112.584 104.407 112.341 103.717 111.79C103.013 111.231 102.536 110.379 101.949 109.636C100.702 110.121 99.7264 109.893 98.89 108.916C98.2664 108.188 97.4961 107.828 96.4396 107.923C95.4125 108.012 94.356 107.791 93.1675 107.688C92.3971 106.122 91.8176 104.432 90.8051 103.057C90.1228 102.131 89.0663 101.315 87.8558 100.918C87.8118 100.903 87.7531 100.955 87.6724 100.992C87.4816 101.44 87.3349 101.94 87.0855 102.374C86.4252 103.52 86.051 104.711 86.0877 106.049C86.1171 107.276 85.9483 108.511 85.985 109.746C86.0143 110.768 85.5888 111.334 84.7231 111.827C83.4172 112.569 82.0746 112.981 80.5779 113.091C79.7856 113.15 79.0079 113.495 78.2523 113.767C77.5993 114.002 76.9904 114.473 76.3227 114.576C74.6353 114.84 73.997 115.936 73.7183 117.428C73.124 120.552 74.4739 122.529 76.5061 123.683C77.6727 124.345 79.0226 124.815 80.4752 124.889C81.6857 124.955 82.9036 125.278 84.0775 125.624C84.5104 125.749 84.9799 126.205 85.1633 126.631C85.6328 127.726 84.6644 130.894 83.7107 131.615C82.9697 132.173 82.2434 132.806 81.4143 133.173C80.1818 133.71 80.0057 134.687 79.7856 135.819C79.4334 137.598 80.4459 139.083 80.7394 140.708C80.9008 141.612 82.0306 142.7 82.955 143.016C84.5177 143.552 86.2565 143.574 87.9292 143.766C88.5601 143.839 89.2204 143.707 89.8514 143.766C90.431 143.824 90.8345 144.148 90.7391 144.912C90.1595 145.368 89.5653 145.816 89.5799 146.816C89.6093 148.713 88.164 149.852 86.2785 149.698C85.7429 149.653 85.1633 149.778 84.6571 149.962C82.8669 150.594 81.1208 151.697 79.3454 150.197C77.3425 151.175 77.0564 152.057 78.1202 153.821C78.4503 154.365 78.8832 154.85 79.3234 155.314C79.9323 155.946 80.5633 156.556 81.2382 157.107C81.7151 157.497 82.258 157.879 82.8376 158.055C84.2829 158.482 85.7576 158.798 87.2249 159.151C88.7289 159.503 88.7215 159.503 88.7802 161.113C88.8022 161.694 88.6995 162.414 88.9857 162.833C89.7413 163.921 89.4699 165.068 89.4919 166.215C89.5139 167.295 88.5675 168.324 89.3378 169.434C88.6702 171.853 88.5088 174.403 86.682 176.462C85.5301 177.763 84.4443 178.924 82.6835 179.137C82.28 180.35 82.28 180.343 80.71 181.225C80.5192 181.328 80.3872 181.548 80.2478 181.725C79.3087 182.864 79.6389 184.003 80.2258 185.158C80.5633 185.826 80.9814 186.481 81.1722 187.186C81.5097 188.414 81.8031 188.745 83.0063 188.796C84.3856 188.855 85.8309 188.554 87.0415 189.568C87.1882 189.693 87.4963 189.649 87.7238 189.656C88.8316 189.693 90.0861 189.406 91.0252 189.825C92.3091 190.399 93.1968 189.37 94.334 189.48C95.2071 189.561 96.1241 189.105 97.0339 188.98C99.2789 188.679 101.531 188.443 103.776 188.164C104.055 188.127 104.312 187.951 104.583 187.863C105.075 187.708 105.574 187.576 106.065 187.422C107.268 187.047 108.479 186.694 109.66 186.275C110.306 186.047 110.893 185.599 111.553 185.422C113.482 184.908 115.434 184.489 117.378 184.033C118.332 183.805 119.293 183.408 120.247 183.401C122.316 183.386 123.057 181.835 123.952 180.46C124.465 179.674 124.825 178.777 125.25 177.932L125.647 177.946C125.258 177.197 125.06 176.146 124.443 175.756L124.436 175.763Z" fill="black"/>
<path d="M67.2187 126.579C66.6391 124.8 66.2356 124.433 64.3868 124.293C63.0148 124.19 61.6062 124.411 60.3443 123.595C60.0949 123.433 59.6694 123.536 59.3246 123.529C57.0209 123.47 55.1574 124.962 52.9637 125.322C52.7656 125.359 52.5896 125.594 52.4135 125.741C51.225 126.734 50.5573 126.741 49.0387 125.785C49.1194 125.638 49.1634 125.433 49.2881 125.352C51.2836 124.102 51.357 121.89 51.7972 119.956C52.0393 118.898 52.032 117.913 53.1251 117.317C53.3966 117.17 53.5653 116.803 53.7341 116.509C54.5484 115.142 55.3481 113.76 56.2505 112.209C56.3019 111.856 56.3385 111.231 56.4853 110.636C56.9768 108.643 56.3752 107.658 54.4017 107.129C53.7341 106.953 53.1031 106.622 52.4648 106.343C51.8339 106.063 51.2396 105.63 50.5793 105.468C48.9433 105.071 47.2705 104.806 45.6271 104.454C45.0696 104.336 44.4973 104.174 43.9911 103.917C43.2501 103.542 42.5898 103.571 41.8268 103.895C40.9758 104.255 40.4035 105.461 39.193 104.828C39.1343 104.799 38.9876 104.917 38.8922 104.983C37.8137 105.784 36.5591 106.21 35.3559 106.776C32.6341 108.048 30.0883 109.695 27.4691 111.179C26.508 111.723 25.5763 112.356 24.5565 112.767C22.6343 113.532 20.6901 114.215 19.4869 116.082C20.5727 117.641 20.0812 118.986 18.181 119.589C17.3153 118.493 19.4576 117.604 18.5552 116.582C17.6455 116.942 16.8605 117.236 16.0901 117.567C15.2171 117.935 15.1584 118.266 15.7233 119.096C15.9507 119.434 16.2002 119.78 16.3175 120.155C16.3909 120.39 16.3396 120.802 16.1781 120.949C16.0167 121.096 15.6279 121.074 15.3711 121.007C15.1437 120.949 14.9603 120.721 14.4834 120.361C14.5494 121.713 14.5934 122.727 14.6448 123.793C15.4225 123.86 16.1928 124.146 16.7944 123.94C17.9096 123.551 18.9293 122.874 19.9932 122.316C19.6116 121.838 19.1421 121.39 19.7144 120.647C20.1252 121.088 20.5067 121.493 20.8662 121.867C22.737 121.096 24.8573 121.059 26.1119 119.273C26.1339 119.236 26.2219 119.243 26.2806 119.243C27.9313 119.177 29.1419 117.979 30.6385 117.545C32.4947 117.009 33.6979 115.208 35.7154 115.017C35.8622 115.002 36.0382 114.847 36.1263 114.708C36.6912 113.796 37.6523 113.723 38.5547 113.488C39.0463 113.355 39.7286 113.267 39.9633 112.922C40.9538 111.451 42.7366 111.01 43.8737 109.731C44.38 109.165 45.1209 108.533 46.0233 108.879C47.1092 109.298 46.7717 110.334 46.8304 111.179C46.9477 112.775 47.0651 114.362 47.2045 116.244C45.8253 117.339 45.8106 119.361 45.4584 121.213C45.319 121.97 45.2457 122.617 44.7248 123.271C43.8884 124.323 44.0204 125.241 44.8861 126.079C45.1062 126.293 45.3704 126.462 45.7665 126.77C44.5707 127.461 43.3895 127.858 42.6265 128.66C41.7241 129.6 40.763 129.762 39.6258 129.718C39.0976 129.703 38.5767 129.718 38.474 129.718C37.3735 130.541 36.6472 131.232 35.7962 131.666C34.9451 132.1 34.006 132.894 33.0743 131.842C31.9004 132.894 31.6583 134.128 32.502 135.26C33.177 136.165 34.1087 136.885 34.813 137.774C35.466 138.598 36.229 138.583 37.0874 138.355C37.645 138.208 38.1879 138.01 38.6574 137.863C39.1856 138.642 39.4938 139.245 39.9413 139.722C40.9758 140.847 40.7924 141.759 39.3691 142.42C38.3199 142.905 37.2708 143.412 36.251 143.956C34.7103 144.787 34.3729 144.684 33.7199 143.038C33.6172 142.773 33.6539 142.442 33.5291 142.185C32.4213 139.965 31.4602 137.605 29.5014 135.981C28.4669 135.121 27.1683 134.57 25.7084 134.614C24.4978 134.65 23.2799 134.547 22.0621 134.511C21.842 134.511 21.6219 134.525 21.4091 134.555C20.0592 134.702 19.6924 135.702 19.2888 136.804C19.0541 137.451 18.4305 137.995 18.8927 138.723C19.2448 139.274 19.7731 139.715 20.1766 140.244C20.4407 140.582 20.6315 140.979 20.8369 141.362C21.3651 142.325 21.7246 143.442 22.4509 144.206C22.9938 144.772 23.346 145.309 23.6908 146C24.1677 146.978 24.4318 147.874 24.263 148.97C24.1897 149.433 24.4905 149.977 24.6812 150.462C25.0114 151.315 25.5543 152.123 25.7157 153.005C26.0532 154.806 26.8455 156.342 27.7479 157.908C28.5623 159.312 30.257 159.783 30.844 161.414C31.8711 160.878 33.0156 160.973 33.265 161.958C33.5438 163.068 34.6223 162.238 34.8571 162.965C35.2312 164.127 36.1776 163.105 36.6839 163.59C37.9311 162.385 38.2686 160.65 39.6332 159.687C39.7799 159.584 39.7579 159.121 39.6845 158.856C39.303 157.357 38.8922 155.857 38.4666 154.365C38.2612 153.645 37.9751 152.954 37.7257 152.241C37.2195 150.771 36.7352 149.286 36.207 147.83C35.9209 147.051 35.5614 146.301 35.2239 145.515C35.8108 145.228 36.4198 144.743 36.6032 144.875C37.799 145.721 39.1196 145.221 40.3668 145.36C41.1518 145.449 41.6214 145.86 41.9222 146.559C42.2156 147.242 42.5091 147.941 42.8833 148.58C43.2281 149.175 43.4922 149.778 43.074 150.388C42.6412 151.02 41.9662 150.925 41.3132 150.756C41.1518 150.712 40.9904 150.646 40.8584 150.601C40.2494 151.322 39.6699 152.013 39.0536 152.733C39.4791 153.299 39.9853 153.762 40.2274 154.328C41.2472 156.732 43.4849 157.335 45.6271 157.695C47.4833 158.004 49.4715 158.026 51.3644 157.327C51.9953 157.092 52.7877 157.004 53.4333 157.173C54.5264 157.452 55.1573 157.055 55.5242 156.004C56.3703 157.264 56.3288 158.602 55.3995 160.018C57.0355 160.282 58.5395 160.547 59.7574 159.099C59.9188 158.908 60.3884 158.695 60.5057 158.783C61.3861 159.422 61.4888 158.393 61.9877 158.092L63.2349 158.93C63.5357 158.04 63.8145 157.232 64.0786 156.416C64.6216 154.762 65.2598 153.13 65.678 151.447C66.1329 149.653 66.2723 147.771 66.7492 145.985C67.6442 142.677 67.813 139.311 67.9891 135.922C68.0844 134.121 67.8423 132.291 68.5026 130.519C68.8914 129.468 68.664 128.446 67.7836 127.623C67.5048 127.358 67.3288 126.939 67.204 126.565L67.2187 126.579ZM40.0293 138.098C39.956 137.708 39.7873 137.378 39.8826 137.238C40.2935 136.679 40.8144 136.753 41.5334 137.157C40.9905 137.495 40.5943 137.745 40.0293 138.098ZM56.4559 148.308C54.3723 149.411 52.1787 150.153 49.6769 149.594C49.6036 148.161 49.6036 146.933 50.8728 145.934C52.3108 144.809 52.2741 144.015 50.8802 142.832C50.0365 142.111 49.6696 141.295 49.7576 140.215C49.7943 139.803 49.743 139.392 49.7576 138.98C49.8017 138.083 49.4715 137.407 48.7378 136.87C48.0482 136.363 47.4393 135.746 46.6469 135.055C48.4297 134.165 49.9558 133.188 51.6212 132.644C52.861 132.239 54.277 132.298 55.6123 132.32C56.4413 132.335 56.8741 133.151 56.7421 134.202C56.5587 135.709 56.2285 137.194 56.1184 138.701C56.0377 139.789 56.2285 140.899 56.2946 142.001C56.3312 142.641 56.3239 143.295 56.4266 143.927C56.5146 144.478 56.6394 145.059 56.8962 145.544C57.4244 146.514 57.3583 147.83 56.4412 148.315L56.4559 148.308Z" fill="black"/>
<path d="M58.701 40.0611C58.4882 39.8626 57.9967 39.6935 57.7839 39.8038C56.6321 40.3992 55.9131 39.5906 55.2161 38.9952C54.908 38.7379 54.6879 37.9882 54.8346 37.6353C55.8617 35.1361 56.324 32.4825 57.0723 29.9097C57.6299 28.0059 57.6225 26.374 56.3019 24.8451C54.974 23.3087 53.5067 22.0518 51.2984 22.1032C50.5501 22.1179 49.7944 21.9856 48.9727 21.9121C47.7255 22.6251 46.2288 23.2132 46.3095 25.1611C46.3168 25.389 45.972 25.6242 45.8106 25.8668C45.4511 26.4034 45.0843 26.9253 44.7615 27.484C43.8004 29.1526 42.8246 30.8139 41.9222 32.5119C40.9465 34.3422 39.8313 36.1137 39.6332 38.2601C39.4938 39.8185 39.0096 41.1416 37.4983 41.3548C36.9994 42.5677 36.5079 43.538 36.1997 44.5671C35.6568 46.4048 34.5636 47.4706 32.5974 47.5221C32.5094 47.5221 32.4287 47.6691 32.1279 47.9411C32.2453 48.7791 32.392 49.7935 32.5094 50.8005C32.5387 51.0651 32.4507 51.3518 32.4361 51.6238C32.3774 52.7117 31.9592 53.9687 32.37 54.8361C32.7662 55.674 32.5168 56.2033 32.392 56.5855C33.2724 58.0336 34.2849 59.1877 34.7104 60.5255C35.356 62.5396 37.2342 63.2821 38.408 64.7228C38.5915 64.9507 39.3471 64.9654 39.6699 64.789C42.2671 63.3703 44.8275 61.8781 47.4027 60.4079C48.063 60.033 48.8479 59.7611 49.3322 59.2245C51.3204 57.0339 53.2132 54.7626 55.2088 52.4471C54.908 52.2266 54.5998 51.9913 54.4237 51.859C54.3504 51.1239 54.2844 50.5065 54.2257 49.889C54.123 48.904 54.5925 48.1028 55.4362 47.8382C56.5734 47.478 57.153 47.7206 57.6885 48.8526C57.982 49.47 58.1654 50.1389 58.4295 50.874C59.2439 50.7491 59.9776 50.6388 60.9093 50.4991C61.2101 51.1901 61.5256 51.9178 61.9364 52.8661C62.3546 52.8661 62.8241 52.9102 63.2863 52.8514C63.9686 52.7632 64.6216 52.4544 64.6143 51.69C64.6069 50.8446 65.0691 50.5138 65.7221 50.3521C66.5585 50.1463 66.6905 49.5876 66.6025 48.8893C66.199 45.5153 64.1887 43.1631 61.6356 41.171C61.5109 41.0755 61.2835 40.9946 61.1441 41.0387C60.0583 41.3548 59.398 40.7079 58.701 40.0537V40.0611ZM53.0665 41.9576C52.9124 41.9208 52.8097 41.6709 52.6923 41.5092C52.8611 41.3916 53.0225 41.1857 53.1986 41.171C53.3379 41.1637 53.492 41.3916 53.7928 41.6341C53.4333 41.8032 53.2279 41.987 53.0738 41.9502L53.0665 41.9576Z" fill="black"/>
<path d="M22.8173 32.0856C23.1034 32.5854 23.7417 32.975 24.2993 33.2176C25.3117 33.6513 26.3902 33.9159 27.4394 34.2761C28.8186 34.7392 30.1759 35.2905 31.5772 35.6727C32.2888 35.8638 33.2059 36.2755 33.6314 35.07C33.7048 34.8641 34.211 34.7539 34.5265 34.7171C35.0327 34.6583 35.5463 34.7024 36.1992 34.7024C36.324 33.7321 36.4267 32.8794 36.5367 31.9827C37.3731 31.6666 38.2168 31.3505 39.2072 30.9756C38.1654 29.8215 37.2337 28.91 36.4413 27.8883C35.627 26.8445 34.8126 25.7492 34.9593 24.0365C36.5147 23.6616 37.916 22.8236 39.2952 21.9195C39.9042 21.5226 40.6965 21.4196 41.4082 21.1844C42.1272 20.9419 42.8902 20.7875 43.5505 20.442C44.739 19.8172 45.8468 19.0527 47.0133 18.3838C48.1725 17.7222 49.3317 17.0974 50.7623 17.1709C51.7968 17.2297 52.6478 16.7225 53.3008 15.8772C54.1812 14.7305 55.1349 13.6426 56.0153 12.4959C57.0718 11.1139 58.0842 9.68787 59.104 8.27653C59.2361 8.09276 59.3388 7.84284 59.3314 7.62231C59.3168 6.76963 59.8303 6.24038 60.3733 5.68172C61.2316 4.79228 61.0922 3.64556 60.1091 2.85168C59.5662 2.41064 59.0527 1.93284 58.5318 1.46975C57.446 0.499449 56.2648 -0.147418 54.7314 0.0289997C53.9758 0.117209 53.2054 0.0510519 52.4424 0.0289997C51.7895 0.00694746 51.2832 0.0804555 50.733 0.609709C50.2341 1.08751 49.3977 1.30068 48.6714 1.43299C47.4169 1.66086 46.3677 2.19747 45.414 3.0134C45.0765 3.30008 44.6436 3.49855 44.2328 3.67497C42.3253 4.49825 40.3297 5.15247 38.5102 6.13746C35.759 7.62966 33.1252 9.34239 30.4473 10.9669C29.8531 11.3271 29.1708 11.6138 28.6939 12.0989C26.9111 13.9072 25.6492 16.23 23.3015 17.4797C23.0741 17.6046 22.9347 17.928 22.7953 18.178C22.2964 19.0968 21.7755 20.0157 21.328 20.9639C20.7631 22.1547 20.0881 23.3235 20.521 24.7495C20.609 25.0436 20.3816 25.4258 20.3302 25.7713C20.2789 26.1682 20.1101 26.646 20.2569 26.9621C21.0492 28.7042 21.8709 30.439 22.81 32.1003L22.8173 32.0856Z" fill="black"/>
<path d="M79.4703 30.6599C79.7711 30.7922 79.9838 31.1304 80.2406 31.3656C81.994 32.9533 83.9456 33.659 86.3227 32.8798C87.768 32.402 87.9367 32.6593 88.0834 34.225C88.2962 36.4008 86.9536 38.0768 86.3227 39.9586C85.8018 41.517 85.0901 42.9356 85.3249 44.6778C85.4349 45.4937 85.3762 46.6331 84.892 47.1623C84.217 47.9047 84.0043 48.5957 83.9896 49.4999C83.9896 49.9629 83.9676 50.4996 83.7475 50.8744C82.7938 52.499 82.5296 54.4101 81.6859 56.0273C80.7395 57.8282 81.3924 59.5483 81.0623 61.533C82.1848 61.0773 83.0652 60.8273 83.4467 62.4077C84.3344 61.3492 85.024 61.511 85.8311 61.9741C87.6946 63.0473 89.6021 64.047 91.4949 65.0614C91.7444 65.1937 92.0452 65.2672 92.3313 65.3113C94.0481 65.5465 95.6181 64.2381 95.8675 62.1946C96.051 60.6362 96.0436 59.0485 96.0803 57.4754C96.095 56.6595 96.2344 55.7553 95.9409 55.0497C95.376 53.6824 95.4127 52.3005 95.4494 50.9038C95.5227 48.3017 94.6937 45.7069 95.3393 43.09C95.3906 42.8768 95.2953 42.6269 95.2733 42.3917C95.0972 40.7084 94.8918 39.0324 94.7597 37.3417C94.6497 36.0039 94.6937 34.6514 94.5616 33.3135C94.3342 31.1157 95.3393 29.7484 97.5183 29.4103C98.3253 29.2853 99.1323 29.153 99.9246 28.9472C101.619 28.5061 103.329 28.1019 104.98 27.5211C106.432 27.0139 107.019 25.1322 106.183 23.8825C104.745 21.7508 102.764 20.1557 100.409 19.281C97.9658 18.3768 95.6841 17.0169 93.0356 16.6421C92.3093 16.5391 91.7444 16.4509 91.0548 16.8405C90.2917 17.2669 89.47 17.8182 88.4649 17.2154C88.2375 17.0757 87.7093 17.333 87.3718 17.5021C84.8407 18.8032 82.3609 20.1925 79.7931 21.4127C78.201 22.1625 77.6802 23.4341 77.5114 24.9998C77.4601 25.5217 77.5481 26.0583 77.4967 26.5876C77.3133 28.3591 77.6435 29.8513 79.4776 30.6452L79.4703 30.6599Z" fill="black"/>
<path d="M76.1392 78.888C76.2712 79.1379 76.3592 79.454 76.572 79.6157C78.7803 81.3137 81.3848 82.1002 84.07 82.1517C86.2196 82.1958 88.4059 81.7841 90.4088 80.7844C90.7169 80.6301 91.0691 80.4978 91.4066 80.4757C92.9766 80.3508 94.5466 80.189 96.1166 80.1817C101.685 80.1449 107.261 80.2184 112.829 80.1449C114.561 80.1229 116.285 79.7774 117.892 79.5936C118.046 78.8953 118.163 78.3661 118.302 77.7706C118.046 77.3884 117.723 76.918 117.378 76.4108C117.811 75.9403 118.2 75.5213 118.552 75.1391C118.376 73.7571 117.473 73.1617 116.329 72.9045C115.434 72.6986 114.561 72.4414 114.223 71.5446C113.886 70.6331 113.248 70.4126 112.448 70.464C110.694 70.5743 108.948 70.7286 107.202 70.8904C103.945 71.1991 100.695 71.6107 97.4005 71.3829C95.4857 71.2505 93.5489 71.1182 91.6487 71.2946C88.1785 71.6181 84.7303 72.162 81.2748 72.6251C80.9299 72.6692 80.5631 72.7354 80.2623 72.9045C78.8463 73.6763 77.3717 73.7277 75.897 73.3234C75.5669 74.0218 75.2294 74.6245 74.9873 75.264C74.7305 75.933 74.6205 76.5578 75.2441 77.1973C75.6696 77.6383 75.853 78.3146 76.1465 78.888H76.1392Z" fill="black"/>
<path d="M29.2368 177.674C28.9581 176.505 28.9287 175.27 28.5912 174.116C28.4372 173.587 27.8722 173.102 27.3733 172.786C26.7791 172.411 26.4783 173.094 26.1115 173.41C25.2898 174.131 25.2677 175.307 24.7689 176.101C23.551 178.041 23.7417 179.901 24.2113 181.93C24.446 182.944 24.38 184.025 24.4534 185.186C24.8422 184.966 25.1503 184.789 25.6786 184.488C26.0601 185.414 26.3976 186.23 26.8011 187.2C27.1826 186.362 27.7475 185.892 28.6572 185.921C28.8553 185.921 29.1121 185.591 29.2588 185.363C29.5816 184.878 29.7724 184.297 30.1539 183.878C30.9096 183.033 30.7408 182.231 30.3667 181.29C29.8971 180.122 29.5377 178.901 29.2442 177.674H29.2368Z" fill="black"/>
<path d="M26.6097 74.0436C26.0081 73.5584 25.2965 73.2203 24.3721 72.6543C22.8607 75.1903 23.7338 77.9909 23.7191 80.6004C24.3647 81.0635 24.8783 81.4311 25.3551 81.7766C26.3382 81.1518 26.8518 81.3208 27.182 82.2691C27.4388 83.0041 27.7395 83.7172 28.0257 84.4375C28.4438 83.3864 28.8987 82.5043 30.0872 82.1882C30.0872 81.4531 30.0066 80.7989 30.1019 80.1741C30.5421 77.1971 28.5539 75.624 26.6097 74.0436V74.0436Z" fill="black"/>
<path d="M35.7589 171.985C35.5975 171.948 35.4654 171.801 35.3113 171.713C34.1595 171.081 34.0568 171.11 32.927 172.316C33.5799 172.948 33.5359 173.624 33.1104 174.455C32.8389 174.984 32.8022 175.741 32.9196 176.351C33.0737 177.175 33.4772 177.947 33.7707 178.74C35.1353 178.38 35.194 178.424 36.6026 181.115C37.6077 180.806 37.5343 179.762 37.9819 178.902C38.268 179.152 38.4661 179.321 38.8036 179.623C38.9136 179.284 39.0677 179.057 39.0383 178.865C38.8843 177.792 38.7742 176.697 38.4734 175.668C38.0259 174.139 37.7398 172.426 35.7662 171.985H35.7589Z" fill="black"/>
<path d="M44.0498 75.2786C44.3139 75.4183 44.688 75.433 44.9888 75.3741C45.1356 75.3447 45.297 75.036 45.3263 74.8375C45.385 74.448 44.3799 73.1248 43.9911 73.0072C43.4408 72.8381 42.8979 72.6691 42.3477 72.5C40.2201 71.8458 38.0704 71.3239 35.6787 71.4121C35.8181 71.7576 35.8548 71.9855 35.9795 72.1619C37.0653 73.6467 38.1218 75.1536 39.2956 76.565C39.6184 76.9546 40.4255 77.3589 40.807 77.2192C42.0689 76.7561 42.4357 77.6602 42.9786 78.4688C43.5655 78.2924 44.1011 78.138 44.6074 77.991C44.7101 76.9325 44.534 76.2783 43.4922 76.0137C43.0593 75.9034 42.5531 75.5138 42.7145 74.8449C43.3895 74.889 43.3748 74.9184 44.0424 75.2712L44.0498 75.2786Z" fill="black"/>
<path d="M58.7738 168.795C58.3557 167.972 57.754 167.81 56.9177 167.81C55.8759 167.81 54.8267 167.714 53.7923 167.582C52.7872 167.457 52.2442 167.685 51.8554 168.567C51.3712 169.662 52.2149 172.066 53.3374 172.492C54.2325 172.83 55.2376 172.867 56.14 173.198C57.3138 173.624 58.0622 172.514 59.0013 172.625C59.3241 171.779 59.6102 171.044 59.955 170.14C59.5955 169.743 59.0526 169.339 58.7738 168.802V168.795Z" fill="black"/>
<path d="M48.5246 171.786C48.4513 171.558 47.9891 171.396 47.6736 171.301C46.8446 171.044 45.9862 170.889 45.1718 170.603C43.2643 169.934 43.1249 169.963 41.709 171.764C41.9438 172.345 42.2152 172.874 42.3619 173.425C42.5086 173.977 42.494 174.579 42.6334 175.138C42.7875 175.763 43.1543 176.16 43.8879 176.101C44.761 176.027 45.6194 175.991 46.3237 176.726C46.4924 176.902 46.962 176.777 47.2114 176.792C47.5196 176.204 47.6956 175.381 48.0624 175.285C49.0089 175.02 48.8841 174.418 48.8328 173.785C48.7741 173.109 48.7301 172.426 48.532 171.786H48.5246Z" fill="black"/>
<path d="M53.8065 69.4343C52.5666 69.0961 51.4074 68.486 50.1675 68.1552C48.9203 67.8245 47.6144 67.6995 46.2939 67.4863C46.2718 67.7877 46.1838 68.0156 46.2572 68.1185C47.3797 69.6842 48.5242 71.2352 49.7127 72.8597C50.9892 72.5951 52.4126 73.2199 53.535 72.0805C53.7038 72.573 53.8505 72.992 54.0046 73.4404C54.5035 73.264 54.885 73.1317 55.3545 72.97C55.3545 72.4113 55.3398 72.007 55.3545 71.5954C55.3985 70.4634 54.973 69.7504 53.7918 69.4343H53.8065Z" fill="black"/>
<path d="M4.13736 122.647C3.16159 123.118 2.22251 123.669 1.15137 124.257C2.4426 126.264 2.60402 126.352 4.57756 126.095C4.6656 125.051 4.75363 123.992 4.84901 122.831C4.66559 122.779 4.32811 122.559 4.13736 122.647Z" fill="black"/>
<path d="M11.2988 124.572C10.7192 125.131 10.2423 125.851 9.26653 125.741C9.21517 125.741 9.11981 126.138 9.00977 126.439C10.8659 126.175 12.3699 125.572 13.9032 124.455C12.8077 123.911 11.9395 123.95 11.2988 124.572Z" fill="black"/>
<path d="M9.62556 121.794C10.1171 121.302 10.2785 120.787 10.0144 120.14C9.1927 121.132 8.371 122.117 7.55664 123.11L7.80608 123.374C8.19492 123.176 8.58376 122.978 8.97259 122.786C9.17802 122.448 9.34676 122.066 9.61822 121.794H9.62556Z" fill="black"/>
<path d="M8.99449 122.779H8.9799V122.793C8.9799 122.793 8.96531 122.815 8.95801 122.823L8.99449 122.779V122.779Z" fill="black"/>
<path d="M6.08203 126.954C6.69097 126.888 7.29992 126.829 7.90885 126.763L7.87216 126.418C7.24855 126.344 6.55157 125.638 6.08203 126.961V126.954Z" fill="black"/>
<path d="M34.9741 182.658H35.363V180.835H35.0768L34.9668 182.658H34.9741Z" fill="black"/>
<path d="M0.580078 129.57H2.59031C1.95937 129.137 1.37976 128.939 0.580078 129.57Z" fill="black"/>
<path d="M10.0303 120.147C10.4558 120.478 10.8887 120.809 11.3582 121.169C11.5856 119.839 10.4925 120.427 10.0303 120.147Z" fill="black"/>
<path d="M9.47911 123.852C9.56715 123.896 9.66987 123.933 9.78726 123.977C9.39108 123.426 9.18566 123.139 8.98758 122.867C8.96557 123.205 8.90686 123.58 9.47911 123.86V123.852Z" fill="black"/>
<path d="M8.9943 122.787L8.95801 122.83L8.98705 122.866C8.98705 122.866 8.98705 122.816 8.98705 122.787H8.9943Z" fill="black"/>
</svg>
