<svg width="1400" height="787" viewBox="0 0 1400 787" fill="none" xmlns="http://www.w3.org/2000/svg">
<g clip-path="url(#clip0_1857_486121)">
<path d="M3.34 325.721L5.03 328.341H7.46L9.23 325.831L10.98 328.821L13.21 326.401L15.22 326.431L17.22 326.601L19.23 326.711L21.3 328.011L23.22 326.161L25.49 328.871L27.5 328.171L29.47 327.371L31.67 328.071L33.08 324.571L35.37 325.621L37.18 324.481L39.18 324.161L41 323.201L42.93 322.631L45.4 323.551L47.28 322.711L48.94 321.361L50.15 319.091L52.65 319.691L53.7 317.281L56.45 318.181L57.9 316.621L59.51 315.381L61.86 315.301L63.71 314.381L65.69 313.621L65.51 309.951L67.82 309.661L70.56 309.791L72.38 308.741L73.83 307.261L73.16 303.631L76.43 304.031L77.57 302.291L79 300.831L80.05 299.661L82.04 298.511L84.03 298.991L85.78 300.241L87.14 302.771L89.89 300.781L91.2 303.471L93.6 303.321L93.93 300.871L96.01 299.901L97.69 298.771L98.02 296.071L99.57 294.601L102.37 295.201L104.08 294.201L106.17 294.071L107.49 291.851L109.44 291.191L111.42 290.581L113.39 289.721L115.63 291.561L117.59 290.581L119.67 289.331L121.66 290.661L123.48 292.551L125.67 291.351H127.73L129.87 291.121L131.3 293.811L133.31 294.051L135.17 294.841L137.95 292.711L138.94 296.241L141.49 295.011L142.9 297.151L144.61 295.711V294.471L147.98 293.421L147.49 291.141L147.62 289.001L147.84 286.821L148.65 284.891L151.41 284.191L153.18 283.011L154.22 281.341L154.83 279.261L154.69 276.321L158.3 277.091L159.6 275.591L160.58 273.621L161.51 271.401L163.76 269.791L166.18 271.241L167.86 272.801L169.49 274.451L172.11 275.221L171.81 272.721L170.4 270.721L170.65 268.651L171.02 266.601L172.74 265.031L172.9 262.921L175.72 262.281L174.5 259.041L176.06 257.601L179.07 257.901L180.16 256.201L181.82 255.211L183.99 255.491L185.54 254.261L187.25 252.841L189.27 253.211L191.25 252.741L193.21 253.121L194.73 255.111L196.61 255.291L198.9 254.871L200.35 256.291L201.46 257.981L203.59 258.821L204.41 256.381L206.84 256.061L207.61 253.911L208.74 252.161H211.48L212.96 250.791L213.15 248.011L215.68 247.791L216.98 246.231L219.42 245.911L220.69 244.311L221.55 242.261L222.02 239.791L225.14 240.221L225.62 239.581L227.24 239.791V242.151L228.59 243.951L231.63 242.111L232.55 245.831L234.75 245.391L236.56 242.821L238.78 244.581L241.1 244.991L241.55 241.171L243.18 240.271L245.95 241.191L247.3 239.651L249.34 239.271L250.4 237.151L252.7 237.401L253.86 234.921L255.99 234.871L258.38 236.401L260 234.441L262.17 236.071L264.04 235.351L265.96 234.371L267.92 235.841L269.95 233.051L271.86 234.881L273.85 234.491L275.89 233.451L277.75 235.231L279.84 233.321L281.79 233.411L283.72 233.621L285.64 235.181L287.64 235.851L289.7 236.441L291.35 233.571L293.31 233.681L295.53 234.651L296.95 232.431L298.52 231.221L301.47 233.261L301.87 229.751L303.89 229.521L306.36 229.561L306.55 226.931L309.16 226.641L310.82 225.271L310.45 222.181L311.73 224.821L313.85 225.211L315.33 226.521L316.47 228.311L318.15 229.321L320.05 230.021L321.15 231.871L323.88 232.801L324.9 230.361L326.47 229.201L327.71 228.001L329.05 226.931L329.98 225.091L331 222.761L333.27 223.081H335.28L337.09 222.321L338.81 220.301L340.87 220.501L342.92 222.051L344.9 220.571L346.77 223.061L348.75 222.421L350.94 220.541L352.69 222.381L354.91 221.151L356.6 222.941H358.6L360.39 224.821L362.41 225.041L364.45 224.891L366.48 223.931L368.41 222.401L370.38 222.841L372.18 221.711L374.38 222.971L376.57 223.331L378.47 222.501L379.38 219.831L381.5 219.651L383.88 219.321L383.31 216.201L384.75 215.001L386.4 213.891L387.65 215.291L389.05 216.981L391.96 215.801L393.66 216.831L394.7 219.521L396.76 219.901L399.44 218.261L400.56 221.511L402.97 220.341L405.03 220.241L406.63 222.681L408.63 223.241H410.71L412.88 220.771L414.8 221.761L416.77 220.871L418.78 222.571L420.74 221.861L422.76 222.211L424.76 222.141L426.56 220.481L428.43 219.651L430.72 221.551L432.41 219.631L434.77 221.541L436.83 221.661L438.31 218.811L440.65 220.381L442.17 217.851L444.5 219.341L446.06 217.041L448.36 218.401L449.95 216.141L452.14 217.011L454 216.101L455.92 215.471L458.11 216.651L459.9 215.041L462.04 216.271L463.96 215.571L465.98 216.171L467.91 215.051L469.9 213.421L471.92 213.971L473.89 214.971L475.9 214.871L477.6 217.271L480 214.721L481.73 216.411L483.96 215.721L485.74 216.881L487.8 217.041L489.08 219.401L491.15 219.521L493.18 219.841L494.37 221.951L496.93 221.291L498.63 222.351L500.35 223.381L501.26 225.641L502.86 226.771L505.64 226.291L506.45 228.531L507.61 230.231L509.98 230.491L510.3 233.091L512.25 233.881L514.9 234.041L515.14 236.571L517.72 236.921L518.29 238.441L519.2 236.911L521.21 236.001L522.71 234.071L525.2 234.521L527.6 236.071L529.37 234.031L531.46 233.351L533.43 235.181L535.35 235.921L537.24 236.591L539.27 236.661L541.66 235.721L543.25 237.471L545.87 236.291L548.1 236.391L549.03 239.511L551.5 239.071L552.85 241.041L554.81 241.601L556.84 242.021L558.54 243.091L559.74 245.191L561.45 246.251L564.1 245.411L565.04 248.031L567.38 247.821L569.51 248.031L570.92 249.701L572.29 251.441L574.36 251.771L575.94 253.091L578.98 251.451L579.53 254.861L581.69 255.011L583.64 255.591L585.67 256.011L587.58 256.671L589.67 256.951L591.72 257.331L592 261.291L595.14 259.451L595.81 262.621L598.45 261.791L600.4 262.361L601.95 263.741L602.82 266.501L606.09 264.401L607.01 267.071L608.3 268.981L610.49 269.061L612.9 268.711L614.31 270.381L615.45 272.591L617.64 272.681L619.27 273.901L622.02 272.851L623.09 275.221L625.37 275.121L627.12 276.111L628.29 278.271L631.27 276.751L631.74 280.331L634.3 279.781L636.63 279.691L638.4 280.731L640.45 281.171L642.3 282.021L644.13 282.901L645.45 285.051L647.91 284.341L649.23 286.721L650.88 288.381L653.51 286.741L655.08 288.891L655.65 289.001C655.65 289.001 655.69 288.921 655.71 288.881C655.79 288.551 655.87 288.211 655.96 287.881C656.1 287.551 656.38 287.141 656.52 286.811C656.88 285.961 656.78 285.051 657.1 284.121C657.25 283.681 657.57 283.321 657.81 282.971C657.83 282.971 658.09 282.571 658.45 282.011C658.51 282.051 658.56 282.081 658.56 282.081L658.71 282.221C658.71 282.221 658.76 282.301 658.79 282.331C658.85 282.401 658.91 282.491 658.94 282.601C659.27 283.071 659.23 283.581 659.2 284.061C659.18 284.371 659.15 284.691 659.22 285.011C659.35 285.651 659.41 287.171 659.22 287.981C659.2 288.081 659.17 288.181 659.14 288.291C659.04 288.631 658.94 289.031 658.97 289.441L659.24 289.461L661.42 288.651L662.96 289.701C662.92 289.431 662.88 289.161 662.83 288.881L662.77 287.321C662.72 287.081 662.72 286.761 662.72 286.421C662.72 286.021 662.72 285.611 662.64 285.291C662.61 285.181 662.52 285.011 662.42 284.831C662.12 284.291 661.66 283.461 662.08 282.681C662.16 282.391 662.26 282.311 662.42 282.191C662.56 282.071 662.74 282.041 662.89 282.021C662.97 282.011 663.09 281.991 663.12 281.961L663.2 281.911H663.29C664.01 281.911 664.17 281.961 664.47 282.081C664.58 282.121 664.72 282.181 664.94 282.241C665.16 282.301 665.4 282.311 665.63 282.321C665.85 282.321 666.06 282.341 666.25 282.381C666.28 282.381 666.38 282.411 666.64 282.411C667.28 282.411 668.32 282.301 668.64 282.231H671.42C671.5 282.221 671.59 282.211 671.69 282.211C671.81 282.211 671.95 282.231 672.09 282.241C672.22 282.261 672.36 282.271 672.5 282.271C672.61 282.271 672.71 282.261 672.8 282.241C673.33 282.101 674.06 282.091 674.64 282.091H674.89L675.36 282.751L675.21 283.181C674.89 284.121 674.57 284.981 674.22 285.261C673.99 285.441 673.77 285.451 673.58 285.461C673.45 285.461 673.34 285.471 673.2 285.521C673.08 285.561 672.96 285.681 672.83 285.801C672.68 285.941 672.53 286.081 672.3 286.181L671.81 286.291C671.57 286.451 671.4 286.751 671.23 287.071C671.05 287.391 670.86 287.731 670.57 287.961C670.4 288.091 670.23 288.201 670.05 288.311C669.73 288.511 669.43 288.691 669.26 288.951C669.23 289.011 669.19 289.061 669.14 289.101L669.58 289.341L671.3 287.251L673.79 289.181L675.52 287.671L677.44 286.981L680.08 287.781L681.19 287.031C681.99 286.301 683.05 285.271 683.17 285.001C683.24 284.851 683.25 284.681 683.27 284.501C683.29 284.311 683.31 284.091 683.39 283.861C683.43 283.741 683.51 283.601 683.59 283.431C683.86 282.881 684.23 282.141 683.85 281.571C683.6 280.901 682.5 280.791 681.44 280.701C680.81 280.641 680.22 280.591 679.76 280.421C678.98 280.141 677.31 279.651 675.96 279.651C675.64 279.651 675.36 279.681 675.12 279.731C674.99 279.761 674.85 279.801 674.7 279.851C674.31 279.971 673.87 280.101 673.38 280.101C673.19 280.101 673.01 280.081 672.84 280.041C672.14 279.881 671.41 279.651 670.71 279.441C670.24 279.291 669.78 279.151 669.42 279.051H667.88C667.73 279.001 667.55 278.921 667.37 278.841C667.2 278.771 667.03 278.691 666.88 278.651C666.46 278.541 665.99 278.511 665.53 278.481C665.11 278.451 664.7 278.421 664.4 278.351H662.8L662.63 278.301C662.25 278.211 661.9 278.121 661.39 278.121C661.39 278.121 660.82 278.121 660.78 277.991C660.74 277.871 661.23 277.371 661.43 277.061C661.94 276.261 662.37 275.441 662.86 274.691C663.68 273.441 664.17 272.081 665.01 270.861C665.25 270.501 665.69 270.221 665.95 269.871C666.29 269.401 666.48 268.871 666.82 268.421C667 268.271 667.19 268.121 667.37 267.971C668.49 266.511 669.34 264.921 670.45 263.461C671.41 262.211 672.77 261.361 674.05 260.431C674.62 260.021 675 259.441 675.33 258.821C675.59 258.331 676.18 257.961 676.65 257.611C677.17 257.081 677.7 256.541 678.22 256.011C678.58 255.811 678.95 255.611 679.31 255.411C679.84 255.031 680.11 254.281 680.65 253.891C681.64 253.171 682.41 252.331 683.39 251.621L684.72 250.251C685.78 249.481 686.75 248.781 687.84 248.061L688.86 246.991C689.73 246.241 690.5 245.551 691.21 244.631C691.89 243.971 692.57 243.311 693.25 242.651C693.85 241.881 694.7 241.351 695.29 240.601C695.96 239.751 696.62 239.121 697.45 238.491L698.64 238.371C699.49 238.781 699.96 239.711 700.7 240.221C701.24 240.591 701.91 240.641 702.54 240.941C703.13 241.221 703.78 241.731 704.3 242.131C705.67 243.181 706.5 245.181 707.87 246.201C708.41 246.601 709.02 247.111 709.63 247.391C710.26 247.681 710.92 247.761 711.47 248.111C711.68 248.251 711.88 248.521 712.08 248.661C712.58 249.021 713.12 249.241 713.61 249.611C714.84 250.551 715.51 252.181 716.72 253.131C718.02 254.161 718.99 255.401 719.99 256.731C720.17 256.861 720.35 256.991 720.52 257.121C720.98 257.581 721.34 258.071 721.73 258.611C722.03 258.901 722.34 259.191 722.64 259.471C722.91 259.841 723.05 260.271 723.32 260.641C723.65 260.981 723.98 261.321 724.31 261.661C724.76 262.331 725.06 263.041 725.51 263.691C726.02 264.401 726.73 264.931 727.26 265.651C728.02 266.691 728.46 266.961 729.58 267.641C730.24 268.041 730.74 268.731 731.38 269.161C732.15 269.681 732.99 269.991 733.72 270.511C734.31 270.931 734.4 271.621 734.75 272.261L734.96 272.291L735.02 272.681C735.45 273.301 735.95 273.891 736.41 274.481C736.45 274.531 736.48 274.561 736.51 274.601L739 273.881L739.55 276.311L741.12 277.551L743.49 277.681L744.78 279.291L746.24 280.711L746.86 283.611L749.78 282.571L751.19 284.201H753.42L755.62 284.141L756.39 287.501L758.47 287.771L760.72 287.461L762.38 288.901L764.35 289.401L766.24 290.221L768.17 290.961L770.27 290.841L772.58 289.051L774.21 292.131L776.41 290.461L778.29 292.761L780.35 292.811L782.41 292.711L784.45 292.221L786.38 290.471L788.39 290.391L790.55 292.461L792.54 292.171L794.37 289.561L796.45 290.531L798.42 289.901L800.49 290.741L802.55 291.341L804.48 290.121L806.44 289.241L808.5 289.911L810.4 288.211L812.43 288.371L814.39 287.551L816.46 288.351L818.59 289.891L820.6 289.731L822.64 289.941L824.66 289.921L826.51 287.821L828.51 287.521L830.71 289.631L832.43 286.141L834.6 287.801L836.48 286.251L838.73 288.671L840.58 286.871L842.76 288.351L844.75 287.921L846.48 285.141L848.5 285.091L850.48 284.721L852.66 285.981L854.55 284.891L856.78 286.391L858.66 285.221L860.5 283.811L862.69 284.911L864.83 285.601L866.42 282.731H868.45L870.49 282.771L872.46 282.351L874.79 283.931L876.34 281.271L878.2 280.321L880.43 281.351L882.18 279.731L884.23 279.771L886.3 279.901L888.6 281.491L890.36 279.801L892.31 279.221L894.41 279.801L896.43 279.881L898.23 277.621L900.36 278.941L902.3 277.551L904.33 277.501L906.36 279.561L908.33 279.791L910.43 277.801L912.44 278.111L914.51 278.091L916.32 279.951L918.68 277.941L920.39 280.191L922.22 281.721L924.56 279.851L926.56 280.151L928.44 281.801L930.51 281.771L932.58 280.921L934.59 280.631L936.8 282.321L938.6 280.341L940.88 281.031L942.73 279.971L944.23 278.371L946.83 279.181L948.57 278.181L949.66 275.911L952.29 276.881L953.63 275.061L955.01 272.731L957.48 274.891L959.34 272.921L961.06 274.531L963.54 273.871L965.54 274.751L966.27 276.951L967.99 277.861L969.39 279.931L971.37 278.371L972.7 277.231L975.71 278.921L976.81 277.091L977.44 274.681L980.4 276.081L980.93 272.551L983.18 271.781L985.45 272.371L987.31 273.701L988.99 274.921L990.52 276.301L991.97 277.811L994.28 277.651L996.8 276.831L998.6 277.291L999.93 279.951L1001.99 278.491L1004.24 280.081L1006.12 279.331L1007.99 278.661L1009.62 277.731L1010.55 275.881L1012.07 274.931L1014.06 274.721L1015.98 274.681L1018.01 272.351L1019.98 273.771L1022.02 274.031L1024.35 273.401L1025.68 275.971L1028.01 275.441L1030.04 275.781L1032.09 275.961L1033.86 276.911L1035.38 279.191L1037.6 278.221L1039.45 279.821L1041.48 280.721L1043.52 278.241L1045.57 279.251L1047.6 279.131L1049.57 278.601L1051.24 276.751L1053.15 276.301L1055.86 278.661L1057.46 276.881L1058.98 275.101L1060.81 274.311L1063.56 275.831L1064.43 272.671L1066.64 272.731L1069.34 273.771L1070.47 271.431L1072.15 270.281L1074.31 270.091L1075.31 267.631L1077.86 268.161L1078.7 265.461L1081.75 266.951L1082.67 264.471L1083.88 262.541L1086.97 264.061L1088.88 263.411L1090.47 262.181L1091.2 259.481L1093.72 259.841L1094.89 257.931L1096.59 256.911L1098.88 256.801L1100.31 255.361L1102.56 255.091V251.691L1105.34 252.111L1105.57 249.221L1108.68 249.871L1108.99 247.201L1110.59 246.051L1112.75 245.261L1113.25 242.731L1116.7 243.411L1117.48 241.151L1119.89 241.131L1120.8 238.561L1122.74 237.831L1124.92 238.301L1126.79 236.731L1128.92 235.961L1131.02 236.561L1133.23 236.051L1134.73 239.371L1137.14 237.871L1138.93 239.261L1141.12 238.971L1143.19 239.151L1144.66 241.961L1147.34 239.201L1149.14 240.661L1151 242.801L1153.18 242.121L1155.37 242.821L1157.62 242.731L1159.23 240.441L1161.47 240.361L1162.86 238.121L1165.45 237.971L1167.22 236.501L1169.14 235.881L1171.16 235.691L1173.18 235.911L1175.39 235.481L1176.84 237.631L1178.4 239.041L1180.87 238.421L1183.2 238.261L1185.12 238.931L1186.31 241.151L1188.11 242.131L1189.7 243.651L1191.81 243.551L1194.15 241.661L1195.68 244.701L1197.7 244.571L1199.66 243.101L1201.6 243.441L1203.47 242.901L1205.66 243.981L1207.56 243.311L1209.52 242.871L1211.33 241.991L1213.59 242.031L1215.16 240.651L1215.86 239.491L1216.99 240.271L1219.38 240.631L1220.65 241.811L1221.4 244.331L1223.89 243.221L1225.16 245.971L1227.42 244.291H1231.19L1233.24 246.531L1235.1 245.141L1237.26 246.341L1238.69 243.111L1240.63 243.081L1243.02 244.701L1245.05 244.571L1246.44 241.881L1248.74 242.811L1250.74 242.561L1252.37 240.841L1254.24 240.081L1256.29 240.011L1258.26 239.621L1260.27 239.411L1261.96 237.921L1263.82 237.091L1265.83 236.851L1268.27 238.351L1269.69 235.771L1272.2 237.511L1273.92 236.141L1275.78 235.331L1277.88 235.461L1279.58 234.031L1281.8 234.651L1283.65 233.781L1285.25 231.921L1287.52 232.751L1289.23 231.351L1291.11 230.631L1292.98 229.851L1295.49 231.621L1297.57 231.681L1299.29 230.321L1301.1 229.321L1302.78 227.801L1304.74 227.401L1306.99 228.151L1309.14 228.481L1310.89 227.221L1312.78 226.531L1314.47 224.761L1316.63 224.921L1318.68 224.611L1320.87 225.151L1323.01 225.741L1324.81 223.361L1326.92 223.561L1329.01 223.011L1331 225.081L1333.31 222.881L1334.85 225.921L1336.97 225.651L1338.76 226.561H1341.07L1343.38 227.001L1344.33 229.171L1345.93 230.531L1346.8 232.451L1348.99 233.431L1349.65 235.421L1349.14 238.371L1352.32 238.291L1352.63 241.011L1355.2 240.871L1356.25 243.811L1358.76 243.081L1361.04 242.301L1362.85 244.041L1365.08 243.161L1366.95 244.841L1368.77 245.721L1371.06 244.191L1372.97 244.741L1374.69 245.991L1376.24 247.711L1378.75 246.131L1380.75 246.381L1382.85 246.361L1383.71 249.891L1385.87 249.651L1387.68 250.411L1389.47 251.231L1391.46 251.541L1393.35 252.101L1394.65 254.201L1397.33 252.701L1398.56 255.011L1399.99 254.931V0.000976562H0V325.511L1.25 326.881L3.34 325.721V325.721Z" fill="#B9CED1"/>
<path d="M719.6 276.471C719.29 276.511 718.98 276.551 718.64 276.551C718.46 276.551 718.28 276.541 718.09 276.511C717.7 276.451 717.21 276.421 716.73 276.391C716.24 276.361 715.76 276.331 715.42 276.271L714.05 276.381C713.51 276.301 713.05 276.141 712.61 275.981C712.17 275.821 711.75 275.671 711.33 275.611L710.45 275.761L706.46 275.791C705.26 275.591 704.1 275.331 702.97 275.091C701.79 274.831 700.56 274.561 699.28 274.351C699.17 274.331 699.05 274.321 698.95 274.321C698.56 274.321 698.2 274.431 697.86 274.531C697.61 274.611 697.36 274.681 697.12 274.711C697.01 274.731 696.89 274.731 696.79 274.731C696.31 274.731 695.89 274.601 695.52 274.481C695.32 274.421 695.13 274.351 694.93 274.321C694.81 274.301 694.7 274.291 694.6 274.291C694.35 274.291 694.14 274.351 693.93 274.411C693.72 274.471 693.5 274.531 693.25 274.531C693.18 274.531 693.11 274.531 693.04 274.521C692.96 274.511 692.87 274.511 692.78 274.511H692.53C692.4 274.511 692.26 274.511 692.15 274.491C691.93 274.451 691.73 274.441 691.54 274.421C691.2 274.391 690.85 274.371 690.47 274.231C690.22 274.141 690.01 274.021 689.81 273.911C689.52 273.751 689.24 273.591 688.79 273.521C688.51 273.521 687.75 273.681 687.19 273.801C686.93 273.861 686.69 273.911 686.52 273.941C686.34 274.251 686.28 274.391 686.33 274.941C686.61 275.351 686.64 275.911 686.66 276.411C686.66 276.631 686.68 276.831 686.71 276.991C686.83 277.061 686.95 277.131 687.08 277.211C687.36 277.381 687.65 277.561 687.95 277.661C688.35 277.801 688.77 277.881 689.18 277.971C689.73 278.081 690.3 278.201 690.83 278.441C691.14 278.581 691.37 278.841 691.59 279.091C691.83 279.361 692.06 279.621 692.35 279.681C692.39 279.681 692.43 279.691 692.46 279.691C692.63 279.691 692.75 279.591 692.93 279.421C693.04 279.311 693.16 279.201 693.31 279.141L693.39 279.121H693.44C693.73 279.121 693.98 279.231 694.19 279.321C694.38 279.401 694.55 279.481 694.68 279.491C694.83 279.441 695.01 279.371 695.2 279.291C695.74 279.061 696.41 278.781 697.07 278.781C697.18 278.781 697.28 278.781 697.38 278.801C697.48 278.811 697.64 278.851 697.8 278.891C697.94 278.921 698.08 278.961 698.09 278.971L698.58 278.891L699.17 278.811C699.6 278.881 700.11 278.901 700.65 278.931C701.23 278.961 701.83 278.991 702.3 279.071L703.82 278.951C704.17 279.001 704.54 279.021 704.91 279.051C705.31 279.071 705.71 279.101 706.02 279.151L706.67 279.101L706.92 279.151C707.66 279.301 708.36 279.441 709.07 279.671C709.67 279.871 710.3 279.911 710.97 279.961C711.49 280.001 712.04 280.031 712.57 280.151C712.82 280.201 713.1 280.231 713.37 280.251C713.71 280.281 714.06 280.311 714.36 280.391C714.46 280.421 714.55 280.431 714.64 280.431C714.85 280.431 715.03 280.361 715.23 280.291C715.42 280.221 715.62 280.161 715.85 280.151L716.06 279.641L717.63 278.341L719.62 277.661L720.64 276.381C720.59 276.381 720.54 276.371 720.49 276.371C720.19 276.371 719.9 276.411 719.61 276.451L719.6 276.471Z" fill="#B9CED1"/>
<path d="M735.08 272.561L735.45 274.811L736.57 274.491C736.57 274.491 736.51 274.421 736.47 274.371C736.01 273.771 735.51 273.191 735.08 272.571V272.561Z" fill="white"/>
<path d="M659.25 287.891C659.44 287.081 659.38 285.551 659.25 284.921C659.18 284.591 659.21 284.281 659.23 283.971C659.27 283.481 659.31 282.981 658.97 282.511C658.94 282.401 658.88 282.321 658.82 282.241C658.8 282.211 658.77 282.181 658.74 282.131L658.59 281.991C658.59 281.991 658.55 281.961 658.48 281.921C658.12 282.491 657.86 282.881 657.84 282.881C657.6 283.231 657.28 283.591 657.13 284.031C656.8 284.961 656.91 285.871 656.55 286.721C656.41 287.051 656.14 287.461 655.99 287.791C655.91 288.121 655.83 288.461 655.74 288.791C655.72 288.831 655.7 288.871 655.68 288.911L657.16 289.181L658.98 289.331C658.94 288.931 659.05 288.521 659.15 288.181C659.18 288.071 659.21 287.961 659.23 287.871L659.25 287.891Z" fill="white"/>
<path d="M731.45 269.031C730.81 268.601 730.31 267.911 729.65 267.511C728.53 266.831 728.09 266.571 727.33 265.521C726.81 264.801 726.09 264.271 725.58 263.561C725.12 262.911 724.83 262.201 724.38 261.531C724.05 261.191 723.72 260.851 723.39 260.511C723.12 260.141 722.98 259.711 722.71 259.341C722.41 259.051 722.1 258.761 721.8 258.481C721.41 257.951 721.05 257.451 720.59 256.991C720.41 256.861 720.23 256.731 720.06 256.601C719.07 255.271 718.1 254.021 716.79 253.001C715.58 252.041 714.91 250.411 713.68 249.481C713.19 249.111 712.65 248.891 712.15 248.531C711.95 248.391 711.75 248.111 711.54 247.981C710.99 247.621 710.33 247.541 709.7 247.261C709.1 246.991 708.48 246.481 707.94 246.071C706.57 245.051 705.74 243.051 704.37 242.001C703.85 241.601 703.2 241.091 702.61 240.811C701.98 240.511 701.3 240.461 700.77 240.091C700.02 239.581 699.55 238.651 698.71 238.241L697.52 238.361C696.69 238.991 696.03 239.621 695.36 240.471C694.77 241.221 693.92 241.751 693.32 242.521C692.64 243.181 691.96 243.841 691.28 244.501C690.57 245.411 689.79 246.111 688.93 246.861L687.91 247.931C686.81 248.651 685.84 249.351 684.79 250.121L683.46 251.491C682.48 252.211 681.71 253.041 680.72 253.761C680.18 254.151 679.91 254.901 679.38 255.281C679.02 255.481 678.65 255.681 678.29 255.881C677.77 256.411 677.24 256.951 676.72 257.481C676.25 257.821 675.66 258.191 675.4 258.691C675.07 259.311 674.69 259.891 674.12 260.301C672.84 261.231 671.48 262.091 670.52 263.331C669.4 264.791 668.55 266.381 667.44 267.841C667.26 267.991 667.07 268.141 666.89 268.291C666.54 268.741 666.36 269.281 666.02 269.741C665.76 270.091 665.32 270.371 665.08 270.731C664.25 271.951 663.75 273.311 662.93 274.561C662.44 275.311 662.02 276.141 661.5 276.931C661.3 277.241 660.81 277.751 660.85 277.861C660.89 277.981 661.46 277.991 661.46 277.991C661.97 277.991 662.32 278.081 662.7 278.171L662.87 278.211H664.47C664.78 278.291 665.18 278.321 665.6 278.351C666.06 278.381 666.54 278.411 666.95 278.521C667.1 278.561 667.27 278.631 667.44 278.711C667.62 278.791 667.8 278.871 667.95 278.911H669.49C669.84 279.021 670.3 279.171 670.78 279.311C671.48 279.531 672.21 279.751 672.91 279.911C673.08 279.951 673.27 279.971 673.45 279.971C673.94 279.971 674.38 279.841 674.77 279.721C674.92 279.671 675.06 279.631 675.19 279.601C675.43 279.551 675.71 279.521 676.03 279.521C677.38 279.521 679.06 280.001 679.83 280.291C680.29 280.461 680.89 280.521 681.51 280.571C682.57 280.671 683.67 280.771 683.92 281.441C684.3 282.011 683.92 282.751 683.66 283.301C683.58 283.461 683.51 283.611 683.46 283.731C683.37 283.961 683.35 284.181 683.34 284.371C683.32 284.561 683.31 284.721 683.24 284.871C683.12 285.151 682.06 286.181 681.26 286.901L681.95 286.431L683.72 285.211L684.11 282.281L685.61 281.011L688.69 281.061L688.94 278.391L689.48 280.491L690.8 282.011L691.19 284.751L693.75 284.781H695.9L697.66 285.991L699.61 287.371L701.75 287.241L703.81 286.601L705.99 286.921L708.02 286.291L709.83 285.111L710.95 282.771L713.96 283.971L715.15 281.941L715.87 280.141C715.64 280.151 715.44 280.221 715.25 280.281C715.05 280.351 714.87 280.421 714.66 280.421C714.57 280.421 714.48 280.411 714.38 280.381C714.08 280.301 713.73 280.271 713.39 280.241C713.11 280.221 712.83 280.191 712.59 280.141C712.06 280.021 711.52 279.991 710.99 279.951C710.32 279.901 709.69 279.861 709.09 279.661C708.38 279.431 707.68 279.291 706.94 279.141L706.69 279.091L706.04 279.141C705.72 279.091 705.32 279.061 704.93 279.041C704.56 279.021 704.19 278.991 703.84 278.941L702.32 279.061C701.85 278.981 701.25 278.951 700.67 278.921C700.13 278.891 699.61 278.871 699.19 278.801L698.6 278.881L698.11 278.961C698.11 278.961 697.96 278.911 697.82 278.881C697.66 278.841 697.51 278.811 697.4 278.791C697.3 278.781 697.19 278.771 697.09 278.771C696.43 278.771 695.76 279.051 695.22 279.281C695.03 279.361 694.85 279.431 694.7 279.481C694.58 279.471 694.4 279.391 694.21 279.311C693.99 279.211 693.74 279.111 693.46 279.111H693.41L693.33 279.131C693.18 279.191 693.06 279.311 692.95 279.411C692.77 279.581 692.65 279.681 692.48 279.681C692.45 279.681 692.41 279.681 692.37 279.671C692.08 279.611 691.85 279.351 691.61 279.081C691.39 278.831 691.16 278.571 690.85 278.431C690.31 278.191 689.75 278.071 689.2 277.961C688.8 277.881 688.38 277.791 687.97 277.651C687.67 277.551 687.38 277.371 687.1 277.201C686.98 277.131 686.85 277.051 686.73 276.981C686.7 276.821 686.69 276.611 686.68 276.401C686.66 275.901 686.63 275.331 686.35 274.931C686.3 274.371 686.36 274.241 686.54 273.931C686.71 273.901 686.95 273.851 687.21 273.791C687.77 273.671 688.54 273.511 688.81 273.511C689.26 273.581 689.54 273.731 689.83 273.901C690.04 274.021 690.24 274.131 690.49 274.221C690.87 274.361 691.22 274.381 691.56 274.411C691.75 274.421 691.95 274.441 692.17 274.481C692.28 274.501 692.41 274.501 692.55 274.501H692.8C692.89 274.501 692.98 274.501 693.06 274.511C693.13 274.511 693.2 274.521 693.27 274.521C693.52 274.521 693.74 274.461 693.95 274.401C694.17 274.341 694.37 274.281 694.62 274.281C694.72 274.281 694.83 274.281 694.95 274.311C695.14 274.351 695.33 274.411 695.54 274.471C695.91 274.591 696.33 274.721 696.81 274.721C696.92 274.721 697.03 274.721 697.14 274.701C697.38 274.671 697.62 274.601 697.88 274.521C698.23 274.421 698.59 274.311 698.97 274.311C699.08 274.311 699.19 274.311 699.3 274.341C700.58 274.551 701.81 274.821 702.99 275.081C704.11 275.331 705.27 275.581 706.48 275.781L710.47 275.751L711.35 275.601C711.77 275.671 712.19 275.821 712.63 275.971C713.07 276.131 713.52 276.291 714.07 276.371L715.44 276.261C715.78 276.321 716.26 276.351 716.75 276.381C717.23 276.411 717.73 276.441 718.11 276.501C718.3 276.531 718.48 276.541 718.66 276.541C719 276.541 719.31 276.501 719.62 276.461C719.91 276.421 720.2 276.381 720.5 276.381C720.55 276.381 720.6 276.381 720.65 276.391L720.99 275.971L723.65 276.421L725.78 276.141L726.72 273.411H728.95L730.83 272.521L732.83 271.831L734.84 272.121C734.49 271.481 734.4 270.791 733.81 270.371C733.08 269.841 732.25 269.541 731.47 269.021L731.45 269.031Z" fill="white"/>
<path d="M670.1 288.211C670.28 288.101 670.46 287.991 670.62 287.861C670.91 287.631 671.1 287.301 671.28 286.971C671.46 286.651 671.63 286.361 671.86 286.191L672.35 286.081C672.58 285.981 672.73 285.841 672.88 285.701C673.01 285.581 673.13 285.461 673.25 285.421C673.39 285.371 673.51 285.371 673.63 285.361C673.82 285.351 674.04 285.341 674.27 285.161C674.62 284.891 674.94 284.021 675.26 283.081L675.41 282.651L674.94 281.991H674.69C674.11 281.991 673.38 282.011 672.85 282.141C672.76 282.161 672.66 282.171 672.55 282.171C672.41 282.171 672.27 282.151 672.14 282.141C672 282.121 671.86 282.111 671.74 282.111C671.64 282.111 671.55 282.111 671.47 282.141H668.69C668.37 282.211 667.33 282.311 666.69 282.311C666.43 282.311 666.33 282.291 666.3 282.281C666.11 282.231 665.9 282.221 665.68 282.221C665.45 282.221 665.2 282.201 664.99 282.141C664.76 282.081 664.63 282.021 664.52 281.981C664.22 281.861 664.06 281.811 663.34 281.811H663.25L663.17 281.861C663.17 281.861 663.02 281.911 662.94 281.921C662.78 281.951 662.6 281.971 662.47 282.091C662.31 282.211 662.21 282.301 662.13 282.581C661.71 283.361 662.17 284.191 662.47 284.731C662.57 284.911 662.67 285.081 662.69 285.191C662.77 285.511 662.77 285.921 662.77 286.321C662.77 286.661 662.77 286.971 662.82 287.221L662.88 288.781C662.93 289.061 662.97 289.331 663.01 289.601L663.43 289.891L665.51 288.321L667.5 288.061L669.21 288.991C669.21 288.991 669.31 288.901 669.33 288.841C669.5 288.581 669.8 288.401 670.12 288.201L670.1 288.211Z" fill="white"/>
</g>
<defs>
<clipPath id="clip0_1857_486121">
<rect width="1400" height="787" fill="white" transform="translate(0 0.000976562)"/>
</clipPath>
</defs>
</svg>
