<svg width="1400" height="787" viewBox="0 0 1400 787" fill="none" xmlns="http://www.w3.org/2000/svg">
<g clip-path="url(#clip0_1857_486129)">
<path d="M31.0399 233.911L33.16 233.591L35.51 233.751L36.0599 230.541L38.63 231.171L39.98 229.411L42.83 230.761L44.6 229.911L45.66 227.431L48.21 228.351L48.9199 224.881L51.38 225.651L53.08 224.521L55.26 224.681L57.27 224.441L58.7999 222.771L60.21 220.651L62.59 221.561L64.23 220.051L66.4 220.401L68.0499 218.811L70.46 220.241L72.4199 219.941L73.91 217.421L76.0399 217.851L78.3099 219.191L80.14 218.191L81.76 215.671L84.2 218.351L85.98 216.511L88.23 217.981L89.7999 214.661L92.09 216.351L94.15 216.401L95.7899 213.961L98.0399 215.081L100.15 215.231L102.04 214.341L104.29 214.871L105.69 212.391L108.28 213.721L109.28 210.641L111.69 211.161L113.89 210.931L114.25 207.551L117.28 208.511L119.08 207.421L120.21 205.571L120.47 203.091L123.9 203.221L122.16 199.721L124.66 199.051L125.34 197.251L126.83 195.891L127.18 193.901L127.71 191.961L128.1 189.801L131.06 189.691L131.57 187.421L133.66 186.851L135.91 186.821L136.49 183.881L138.37 183.141L140.92 184.371L142.16 181.891L144.42 182.761L146.31 182.401L147.82 179.931L149.92 180.521L152.1 181.921L153.66 179.061L155.96 181.111L157.86 180.301L159.75 179.401L161.83 179.901L163.89 180.191L165.91 180.201L167.87 179.871L169.45 176.781L171.82 179.281L173.4 176.181L175.79 178.871L177.73 178.371L179.58 177.161L181.69 177.851L183.57 176.871L185.65 177.351L187.5 176.191L189.2 173.981L191.36 174.981L193.47 175.671L195.25 174.021L197.4 175.001L199.52 175.751L201.25 173.681L203.18 173.111L205.42 174.711L207.07 172.051L209.11 172.241L211.18 173.201L213.15 174.311L215.11 173.091L217.28 171.731L219.11 173.111L221.03 173.721L222.28 175.621L223.95 176.411L225.91 176.771L226.32 174.491L229.59 175.211L229.97 172.321L231.68 171.121L234.02 170.971L235.67 169.731L237.68 169.141L238.97 167.081L241.7 168.171L242.99 165.941L244.98 165.381L247.25 165.671L248.54 163.031L250.53 162.451L253.29 164.611L254.71 162.081L257.04 162.891L259.06 162.571L260.69 160.631L262.78 160.551L264.8 160.241L266.82 160.351L268.88 160.641L270.28 158.111L272.58 159.431L274.12 157.491L275.83 156.291L277.77 156.101L280.01 157.141L282.07 157.441L283.52 155.141L285.66 155.731L287.3 154.161L289.77 156.151L291.04 152.951L292.93 152.381L295.17 153.441L297.38 154.391L299.22 153.671L301.13 153.261L302.59 150.531L304.99 152.711L306.73 151.371L308.54 150.301L310.65 150.981L312.6 150.591L314.55 150.231L316.42 149.131L318.6 150.891L320.38 148.711L322.54 150.681L324.32 147.941L326.48 150.651L328.33 148.341L330.39 149.821L332.36 149.781L334.29 148.211L336.33 150.241L338.25 147.191L340.27 150.311L342.23 147.031L344.22 150.221L346.21 147.961L348.17 150.291L350.16 149.081L352.16 148.211L354.17 147.191L356.12 148.511L358.14 147.441L360.04 150.191L362.11 147.701L364 150.381L366.03 148.961L368.06 148.001L370 148.961L372.03 147.861L374 149.231L376.05 148.541L378.04 149.131L380.09 148.551L382.02 150.801L384.13 148.681L386.07 150.601L388.15 149.281L390.13 150.261L392.23 148.751L394.15 150.961L396.23 149.811L398.26 149.701L400.25 150.391L402.17 152.341L404.24 151.511L406.35 150.131L408.36 150.291L410.43 149.731L412.33 151.661L414.44 150.461L416.5 150.101L418.34 152.611L420.36 152.621L422.42 152.241L424.54 151.191L426.62 150.681L428.34 154.101L430.67 150.961L432.68 151.271L434.58 152.611L436.4 154.621L438.57 153.341L440.53 154.001L442.41 155.341L444.44 155.351L446.48 155.331L448.51 155.381L450.57 155.241L452.85 153.611L454.61 155.571L456.4 157.151L458.36 157.651L460.4 157.661L462.62 156.701L464.68 156.671L466.44 158.301L468.6 157.771L470.48 158.661L472.26 160.011L474.53 159.051L476.7 158.621L478.46 160.021L480.31 161.011L482.71 159.681L484.09 162.511L486.67 160.601L487.86 164.001L490.08 163.511L492.32 163.021L494.15 163.971L495.74 165.701L498.51 163.611L499.36 167.581L501.87 166.391L504.05 166.261L505.86 167.231L507.08 169.791L509.61 168.781L511.13 170.461L513.16 170.811L514.63 172.551L517.64 170.571L518.61 173.451L520.69 173.741L523.22 173.061L524.64 174.841L525.74 177.221L527.9 177.381L529.46 178.771L531.84 178.551L532.76 181.201L535.97 179.581L537.08 181.851L539.04 182.561L541.04 183.191L542.61 184.611L543.48 187.311L546.89 185.341L548.36 186.931L550.52 187.221L551.73 189.351L554.04 189.301L555.27 191.481L557.4 191.751L559.32 192.301L560.91 193.661L563.21 193.181L564.22 196.261L566.93 194.491L568.88 194.851L570.01 197.951L572.56 196.311L573.78 199.341L576.04 198.651L577.68 200.291L579.96 199.401L581.58 201.191L584.16 198.891L585.51 201.941L587.85 200.571L589.54 202.221L591.81 201.071L593.94 200.741L595.49 203.141L597.74 202.231L599.37 204.261L601.76 202.621L603.54 203.981L605.7 203.401L607.16 206.431L609.31 205.911L611.59 204.701L613.31 206.431L615.01 208.291L617.55 205.651L619.07 208.501L621.52 206.301L623.15 208.611L625.26 208.221L627.21 208.781L629.31 208.431L630.99 210.501L633.15 209.861L635.29 209.251L637 211.221L639.06 211.121L641.33 209.721L642.97 212.181L645.27 210.541L647.1 211.841L649.25 211.071L650.8 214.301L652.87 214.041L654.88 214.261L656.81 214.961L659.07 213.411L661.24 212.471L662.98 214.541L664.86 215.651L666.78 216.451L669.03 214.901L671.18 213.971L672.9 216.351L674.88 216.721L677.2 214.421L678.98 216.391L681.17 215.081L683.15 215.401L685.12 215.861L687.13 216.021L688.98 217.531L691.14 216.361L693.16 216.371L695.12 216.791L696.82 219.791L698.78 220.261L701.01 218.191L702.85 219.911L705.07 217.861L706.79 220.751L708.85 220.311L710.83 220.651L713.03 218.641L714.76 221.661L717 219.161L718.79 221.661L720.86 220.981L722.8 221.821L724.83 221.601L726.76 222.541L728.76 222.601L730.87 221.501L732.79 222.511L734.89 221.471L736.87 221.751L738.88 221.821L740.96 220.941L742.74 223.701L744.79 223.191L746.92 221.741L748.77 223.691L750.91 222.081L752.72 224.581L754.87 222.821L756.68 225.311L758.92 222.321L760.78 224.691L762.78 225.141L764.98 223.041L766.87 224.971L768.83 225.911L770.97 224.551L773.07 223.841L774.91 226.281L776.93 226.501L778.96 226.601L781.18 224.291L783.22 224.231L785.23 224.611L787.08 227.001L789.14 226.651L791.34 224.681L793.26 226.101L795.22 227.131L797.38 225.591L799.33 226.681L801.24 228.351L803.35 227.411L805.52 225.731L807.36 228.131L809.34 228.901L811.45 227.981L813.5 227.801L815.58 227.231L817.58 227.711L819.51 229.201L821.76 229.471L823.43 227.771L825.31 226.991L827.26 226.391L828.54 224.231L830.33 223.191L832.91 224.211L835.04 224.161L836.49 222.181L838.29 221.101L840.2 220.351L842.73 221.891L844.6 221.051L846.4 219.921L847.99 217.771L850.26 218.581L852.38 218.861L854.05 216.711L856.23 217.301L858.3 217.351L860.3 217.001L862.13 215.341L864.28 216.091L866.36 216.381L868.19 214.471L870.32 215.231L872.36 215.181L874.55 216.781L876.48 215.581L878.54 215.931L880.62 216.491L882.56 215.311L884.65 216.131L886.63 215.311L888.64 214.961L890.66 214.771L892.75 215.481L894.56 212.261L896.8 215.131L898.67 212.801L900.65 212.111L902.7 212.321L904.91 214.411L906.79 212.531L908.83 212.511L910.8 211.851L913.09 214.111L914.93 212.271L916.8 210.841L919.07 212.521L920.93 211.151L922.92 210.731L925.17 211.871L927.05 209.611L929.39 210.201L931.61 209.871L934.07 209.631L936.35 211.171L938.48 210.981L940.41 209.531L942.73 210.841L944.29 208.551L946.96 210.171L948.25 207.631L949.71 205.881L952.41 206.911L953.36 204.141L955.82 204.481L957.15 202.531L959.27 202.351L960.89 201.151L963.5 202.121L965.45 201.701L966.46 198.971L969.15 200.491L970.05 197.131L972.86 199.421L974.11 196.701L976.34 197.461L978.25 197.041L980.25 197.281L981.9 194.451L984.07 196.971L986.01 194.121L987.89 196.781L989.68 197.691L992.21 194.781L994 196.101L996.27 195.831L997.81 197.511L998.65 200.051L1001.45 199.111L1003.32 199.831L1004.27 201.891L1005.41 203.661L1006.64 205.361L1008.76 205.641L1010.41 206.731L1012.71 206.191L1014.02 208.341L1016.31 206.481L1018.11 206.251L1019.82 208.001L1021.65 206.971L1023.5 207.301L1025.63 208.491L1027.53 207.361L1029.33 206.051L1031.74 207.641L1033.86 207.581L1035.12 204.771L1037.16 204.581L1038.62 202.871L1040.33 201.921L1043.2 203.231L1044.73 201.781L1046.35 200.561L1047.75 199.041L1050.72 199.721L1052.18 198.211L1052.27 195.161L1053.57 193.661L1056.43 193.721L1056.86 191.351L1057.53 189.321L1061.28 189.731L1062.18 187.831L1061.29 184.591L1062.74 183.121L1063.79 181.331L1067.49 181.761L1066.34 178.021L1070.04 178.761L1070.14 175.901L1072.87 176.121L1073.61 173.581L1075.14 171.761L1077.59 172.321L1079.57 171.041L1081.83 170.471L1083.56 172.871L1085.75 172.151L1087.18 174.791L1089.29 175.171L1091.34 173.141L1093.59 174.721L1095.48 173.731L1096.72 171.371L1098.8 171.301L1100.63 170.591L1102.32 169.571L1104.71 169.991L1105.3 166.571L1108.38 168.931L1110.12 168.251L1111.9 167.591L1113.8 167.421L1115.66 166.951L1117.53 165.361L1119.51 166.761L1121.58 164.291L1123.49 165.721L1125.64 164.521L1127.35 166.851L1129.32 167.081L1131.38 166.791L1133.25 167.611L1135.05 168.741L1137.05 168.871L1138.86 170.011L1141.12 168.821L1143.15 168.771L1144.89 170.531L1146.75 171.021L1149.32 169.231L1151.03 170.871L1153.42 170.051L1154.91 172.521L1157.14 172.321L1158.76 174.291L1160.94 174.261L1163.54 174.921L1165.39 173.311L1165.98 171.561L1166.93 169.821L1167.76 167.341L1170.63 168.961L1171.86 166.601L1173.7 165.481L1175.95 168.361L1177.76 166.751L1179.61 167.501L1181.32 168.681L1183.67 166.541L1185.25 168.231L1186.96 169.181L1189.33 167.951L1190.48 170.691L1192.85 169.541L1194.94 169.161L1196.05 172.541L1198.42 171.261L1200.1 172.811L1202.16 172.651L1204.32 171.751L1206.21 172.301L1207.88 174.811L1210.1 172.701L1211.89 175.071L1214.03 172.491L1215.97 172.761L1217.91 174.551L1219.91 175.261L1221.87 174.261L1223.75 172.411L1225.93 175.131L1227.86 174.291L1229.62 172.371L1231.58 172.301L1233.52 171.981L1235.54 172.351L1235.75 170.011L1237.78 168.931L1240.32 170.621L1241.97 170.271L1243.93 167.401L1245.64 170.481L1247.55 168.231L1249.67 169.051L1251.74 168.281L1253.18 166.741L1253.56 164.251L1256.69 164.751L1256.91 161.621L1259.15 161.251L1261.45 161.261L1263.33 160.631L1265.23 160.091L1267.09 159.391L1269.04 159.051L1271.01 158.821L1272.97 156.491L1275.01 158.071L1276.91 159.101L1278.78 158.901L1280.79 157.901L1282.53 159.411L1284.37 158.431L1286.21 158.101L1289.05 157.841L1288.68 154.131L1290.42 152.351L1293.34 153.061L1295.43 153.511L1297.22 151.681L1299.45 150.521L1301.34 152.361L1303.23 153.361L1305.39 153.341L1307.81 152.771L1308.84 155.791L1310.73 156.361L1312.74 156.601L1314.75 156.831L1316.83 156.881L1318.09 159.231L1320.37 158.711L1322.84 157.641L1324.11 159.961L1326.06 160.381L1328.26 160.071L1330.27 160.301L1331.69 162.221L1333.2 164.201L1335.45 164.111L1337.72 164.001L1339.1 166.251L1341.2 166.591L1342.71 168.351L1345.15 167.911L1347.85 167.071L1349.17 168.621L1350.05 171.001L1352.74 169.681L1353.87 171.581L1355.93 171.381L1357.05 173.671L1359.72 172.431L1361.89 172.591L1364.03 172.901L1366.04 174.191L1368.1 174.031L1369.61 176.981L1371.73 176.491L1373.75 176.541L1376.07 174.871L1377.59 177.811L1379.9 176.171L1381.87 176.541L1383.69 177.751L1385.66 178.081L1387.41 179.731L1389.66 178.471L1391.56 179.211L1393.81 177.901L1395.58 179.451L1397.51 180.021L1399.59 179.731L1400 179.641V0.000976562H0V234.661H30.9199L31.0399 233.911Z" fill="#B9CED1"/>
</g>
<defs>
<clipPath id="clip0_1857_486129">
<rect width="1400" height="787" fill="white" transform="translate(0 0.000976562)"/>
</clipPath>
</defs>
</svg>
