<svg width="1400" height="787" viewBox="0 0 1400 787" fill="none" xmlns="http://www.w3.org/2000/svg">
<g clip-path="url(#clip0_1857_486132)">
<path d="M2.12 128.741L4.21 128.391L6.43 126.921L8.39 127.571L10.24 129.361L12.51 127.071L14.35 129.011L16.57 127.111L18.47 128.491L20.59 127.471L22.39 130.271L24.54 128.841L26.52 129.501L28.56 129.361L30.57 129.561L32.55 130.571L34.56 130.951L36.7 128.461L38.63 130.861L40.73 128.731L42.74 129.121L44.74 130.351L46.76 130.241L48.78 130.891L50.82 129.311L52.84 130.311L54.87 131.881L56.9 131.031L58.93 130.981L60.96 131.501L63 131.791L65.03 131.431L67.02 130.031L69.04 129.791L71.09 130.421L73.09 129.751L75.18 131.191L77.19 130.581L79.18 129.971L81.27 130.751L83.28 130.431L85.24 129.451L87.27 129.341L89.29 129.191L91.39 129.911L93.34 128.931L95.25 127.671L97.52 129.951L99.34 127.861L101.25 126.751L103.53 128.821L105.49 128.081L107.62 128.621L109.44 126.881L111.46 126.621L113.26 124.821L115.47 125.861L117.59 126.271L119.5 125.291L121.77 126.681L123.49 124.491L125.63 124.991L127.41 123.241L129.66 124.371L131.6 123.601L133.57 123.031L135.33 121.311L137.58 122.361L139.65 122.351L141.39 120.501L143.71 121.951L145.41 119.861L147.39 119.381L149.37 118.871L151.93 121.641L153.83 120.701L155.67 119.431L157.74 119.451L159.54 117.921L161.56 117.631L163.67 117.901L165.52 116.721L167.51 116.401L169.83 118.091H171.86L173.7 116.821L175.37 114.531L177.63 115.901L179.39 114.091L181.39 113.871L183.73 115.821L185.45 113.741L187.65 114.871L189.39 112.851L191.58 113.861L193.68 114.381L195.78 114.861L197.72 114.191L199.66 113.501L201.71 113.671L203.33 110.611L205.45 111.271L207.47 111.141L209.69 112.601L211.41 110.171L213.68 112.111H215.71L217.42 109.521L219.62 110.971L221.46 109.331L223.59 110.281L225.63 110.351L227.58 109.721L229.57 109.371L231.45 108.081L233.42 107.501L235.7 109.921L237.43 107.071L239.63 108.811L241.45 106.741L243.57 107.741L245.48 106.501L247.62 107.791L249.65 107.891L251.69 108.091L253.44 104.981L255.66 107.321L257.48 104.861L259.65 106.751H261.67L263.64 106.161L265.75 107.341L267.53 104.101L269.54 103.871L271.68 105.611L273.65 104.861L275.6 103.881L277.68 104.861L279.63 103.731L281.62 103.281L283.66 103.471L285.67 103.361L287.65 102.611L289.66 102.521L291.82 105.251L293.86 105.711L295.76 103.391L297.81 104.101L299.81 103.801L301.78 102.561L303.84 103.801L305.86 103.921L307.83 102.621L309.88 103.591L311.91 104.071L313.9 103.281L315.95 104.631L317.92 102.981L319.98 104.671L321.98 104.161L323.96 102.581L325.96 101.741L327.98 101.831L330.03 104.241L332.03 103.791L334.04 103.091L336.05 102.441L338.07 102.871L340.08 104.091L342.09 102.841L344.11 101.781L346.12 102.271L348.14 101.231L350.15 102.081L352.18 101.261L354.2 101.141L356.18 104.151L358.22 101.671L360.22 102.651L362.23 103.361L364.24 103.251L366.28 102.281L368.25 103.931L370.26 104.031L372.28 104.081L374.28 104.261L376.35 102.631L378.34 103.481L380.38 102.791L382.37 103.341L384.36 104.081L386.36 104.441L388.48 102.131L390.41 104.081L392.51 102.201L394.4 104.841L396.38 105.411L398.39 105.551L400.54 103.121L402.52 103.931L404.53 104.051L406.46 105.461L408.58 103.861L410.43 106.441L412.66 103.531L414.61 104.861L416.52 106.671L418.73 104.311L420.62 106.261L422.83 104.171L424.77 105.451L426.65 107.291L428.75 106.691L430.72 107.441L432.73 107.721L434.7 108.531L436.86 107.211L438.81 108.201L440.9 107.671L442.88 108.291L445.14 106.271L446.97 108.321L449.02 108.261L450.9 109.721L453.06 108.751L455.09 108.841L457.21 108.231L459.13 109.311L461.09 110.081L463.12 110.191L465.18 110.121L467.22 110.211L469.16 111.081L471.44 109.261L473.36 110.311L475.19 111.961L477.3 111.491L479.1 113.341L481.13 113.301L483.41 111.511H485.43L487.14 113.701L489.12 114.041L491.13 114.131L493.13 114.321L495.12 114.571L497.14 114.581L499.37 113.271L501.29 114.001L503.09 115.471L505.12 115.451L506.91 116.971L508.96 116.821L511.25 115.231L512.99 117.041L514.85 118.081L516.81 118.551L518.91 118.081L520.7 119.591L523.16 116.951L524.68 120.101L527.13 117.551L528.88 119.251L530.62 121.031L532.61 121.271L534.74 120.661L536.94 119.661L538.83 120.531L540.95 119.921L542.45 123.231L544.65 122.191L546.69 122.131L548.77 121.791L550.65 122.741L552.37 124.701L554.61 123.371L556.72 122.821L558.59 123.881L560.26 126.191L562.68 123.621L564.61 124.221L566.63 124.281L568.41 125.931L570.45 125.881L572.59 125.031L574.23 127.751L576.17 128.391L578.5 126.151L580.24 128.251L582.31 127.921L584.24 128.641L586.48 126.921L588.18 129.491L590.49 127.071L592.47 127.381L594.14 130.311L596.1 130.921L598.28 129.461L600.27 129.701L602.25 130.011L604.37 128.971L606.36 129.131L608.12 131.891L610.29 130.171L612.12 132.331L614.21 131.341L616.35 129.731L618.26 130.961L620.27 130.921L622.26 131.261L624.23 131.841L626.17 133.041L628.27 131.391L630.32 130.521L632.25 132.121L634.27 131.821L636.3 131.061L638.27 132.201L640.28 131.991L642.26 133.041L644.27 132.461L646.27 132.891L648.29 131.901L650.29 132.861L652.3 132.291L654.3 132.001L656.31 134.331L658.31 131.911L660.31 131.701L662.31 131.721L664.33 133.041L666.35 133.691L668.35 133.001L670.38 134.141L672.32 131.121L674.31 130.721L676.33 131.401L678.39 133.201L680.33 131.141L682.4 132.891L684.41 132.871L686.39 132.151L688.43 132.991L690.34 130.551L692.34 130.441L694.42 132.181L696.39 131.441L698.33 129.821L700.45 132.321L702.35 129.891L704.43 131.571L706.46 132.011L708.5 132.681L710.48 131.681L712.54 132.481L714.55 132.161L716.59 132.341L718.47 129.121L720.63 132.051L722.56 129.941L724.65 131.361L726.61 129.921L728.69 131.091L730.71 130.861L732.76 131.361L734.72 129.801L736.77 130.511L738.83 131.041L740.75 128.701L742.84 130.261L744.76 127.711L746.86 129.321L748.88 129.351L750.89 128.991L752.97 130.011L754.94 128.751L756.94 128.221L759.01 129.181L761.02 128.881L763.09 129.731L765.09 129.171L767.11 129.001L769.15 129.311L771.15 128.751L773.12 127.501L775.14 127.191L777.25 129.191L779.25 128.461L781.24 127.691L783.23 126.801L785.21 125.941L787.34 128.081L789.39 128.641L791.39 127.961L793.43 128.421L795.42 127.461L797.48 128.281L799.42 126.391L801.46 126.541L803.54 127.691L805.44 124.991L807.51 125.841L809.49 124.821L811.61 127.051L813.59 125.971L815.61 125.681L817.67 126.521L819.69 126.241L821.72 126.311L823.76 126.651L825.76 126.101L827.71 124.351L829.73 124.181L831.85 126.211L833.81 124.741L835.92 126.591L837.9 125.561L839.93 125.691L841.99 126.291L843.92 124.261L845.98 124.251L848.05 124.361L850.14 124.831L852.14 123.571L854.27 124.921L856.38 125.891L858.38 124.531L860.46 124.831L862.56 125.681L864.61 125.441L866.57 123.031L868.73 125.131L870.75 124.261L872.79 123.651L874.85 123.561L876.85 122.261L878.92 123.511L880.87 121.901L882.99 124.221L884.98 123.751L887 123.821L889.04 124.411L890.94 121.741L892.94 121.391L895.04 123.301L897 122.141L899.09 123.671L901.02 121.831L903.13 123.811L905.08 122.351L907.11 122.661L909.03 120.681L911.11 121.921L913.15 122.571L915.07 120.511L917.12 121.281L919.13 121.101L921.11 120.341L923.17 121.161L925.14 120.171L927.15 120.041L929.17 120.091L931.18 121.161L933.16 122.221L935.09 120.251L937.07 121.111L939.03 121.081L941 121.581L942.96 121.611L944.96 120.241L946.94 119.631L948.89 120.891L950.85 121.041L952.84 120.561L954.76 122.001L956.7 122.841L958.69 122.081L960.67 121.471L962.64 120.951L964.6 121.151L966.56 121.481L968.52 122.081L970.91 122.141L970.92 119.471L972.28 117.911L973.91 116.151L976.32 117.781L977.73 115.051L979.93 115.731L982.03 116.031L984.09 116.111L985.58 113.731L987.4 112.751L990.01 115.301L991.95 114.871L993.79 113.981L995.24 111.411L997.68 113.201L999.78 113.471L1001.7 112.951L1002.98 109.621L1004.9 109.101L1007.19 110.231L1009.36 110.801L1011.13 109.621L1012.7 107.571L1014.8 107.881L1016.96 108.401L1019.12 108.951L1020.82 107.471L1022.33 105.171L1024.84 107.201L1026.5 105.561L1028.81 106.761L1030.19 104.081L1032 103.211L1034.07 103.571L1035.85 102.341L1037.98 103.241L1039.88 102.721L1041.95 104.581L1043.8 102.991L1045.74 103.151L1047.62 103.681L1049.7 103.571L1051.92 103.201L1054.04 103.401L1056.21 103.491L1057.84 105.171L1059.41 106.991L1061.6 106.941L1063.46 107.941L1065.45 108.561L1067.57 108.241L1069.45 108.981L1071.49 108.711L1073.55 107.951L1075.3 110.911L1077.41 108.411L1079.36 108.771L1081.37 110.531L1083.4 111.051L1085.34 109.811L1087.39 110.241L1089.12 107.711L1091.26 108.911L1093.18 108.321L1095.24 108.651L1097.28 108.711L1099.39 109.191L1101.31 108.581L1102.76 105.501L1105 106.661L1106.94 106.151L1109.06 106.661L1110.91 105.701L1112.72 104.581L1114.74 104.511L1116.82 104.871L1118.75 104.351L1120.54 102.861L1122.88 105.211L1124.62 103.231L1126.48 101.791L1128.62 103.211L1130.64 103.611L1132.59 102.951L1134.58 103.561L1136.56 103.061L1138.47 104.511L1140.49 103.481L1142.55 102.881L1144.36 104.571L1146.82 102.231L1148.5 104.371L1150.38 105.241L1152.5 105.121L1154.52 105.441L1156.17 107.121L1158.39 106.751L1160.38 107.201L1162.49 107.241L1164.21 108.591L1166.69 107.351L1168.38 108.811L1170.6 108.311L1171.91 111.511L1174.09 111.181L1176.21 111.011L1178.01 112.651L1180.18 112.001L1182.23 112.131L1184.21 113.621L1186.31 111.701L1188.2 110.661L1190.33 113.211L1192.28 112.761L1194.01 110.651L1196.12 111.651L1197.92 110.371L1199.81 109.641L1201.82 109.831L1203.87 110.481L1205.7 108.771L1207.8 110.771L1209.73 110.481L1211.7 109.061L1213.55 110.851L1215.63 109.131L1217.51 109.921L1219.49 109.581L1221.14 112.451L1223.23 111.081L1225.07 112.741L1227.07 112.181L1229.06 112.571L1231.07 112.661L1232.76 109.561L1234.81 110.281L1236.91 110.741L1238.82 110.211L1241.04 110.721L1242.86 109.821L1244.64 108.881L1246.7 108.751L1248.62 108.191L1249.79 105.711L1251.42 104.491L1253.87 105.361L1255.82 104.971L1257.7 104.401L1259.4 103.321L1261.3 102.841L1263.12 102.111L1264.55 99.701L1267.09 102.071L1268.63 99.481L1270.81 101.041L1272.75 101.341L1274.72 98.711L1276.75 99.371L1278.65 100.741L1280.52 101.761L1282.62 101.081L1284.44 102.311L1286.39 102.711L1288.48 102.401L1290.65 101.651L1292.44 103.151L1294.51 102.901L1296.53 102.861L1298.58 101.851L1300.52 104.531L1302.53 103.241L1304.44 102.321L1306.32 101.261L1308.47 101.531L1310.8 102.301L1312.32 99.621L1314.61 100.201L1316.65 99.381L1318.79 101.421L1320.69 100.671L1322.56 101.671L1324.75 99.331L1326.78 99.341L1328.6 100.511L1330.5 101.091L1332.03 103.091L1334.51 101.331L1336.4 101.891L1337.79 104.221L1340.12 103.111L1342.17 103.001L1343.34 106.681L1346.05 104.061L1347.93 104.911L1349.43 107.701L1351.46 108.061L1353.57 107.881L1355.92 106.151L1357.71 107.881L1359.93 106.701L1361.67 109.041L1363.96 107.011L1365.87 108.261L1367.87 108.651L1369.95 108.181L1371.87 109.721L1374.05 107.601L1375.95 110.001L1378.03 109.181L1380.01 110.521L1382.08 109.801L1384.09 110.721L1386.16 109.501L1388.19 109.881L1390.22 110.821L1392.26 108.571L1394.31 111.551L1396.33 109.671L1398.36 109.061L1400 108.311V0.000976562H0V127.761L0.16 128.051L2.12 128.741Z" fill="#B9CED1"/>
</g>
<defs>
<clipPath id="clip0_1857_486132">
<rect width="1400" height="787" fill="white" transform="translate(0 0.000976562)"/>
</clipPath>
</defs>
</svg>
