<svg width="1400" height="787" viewBox="0 0 1400 787" fill="none" xmlns="http://www.w3.org/2000/svg">
<g clip-path="url(#clip0_1857_486135)">
<path d="M1.97 70.261L3.19 70.821L4.37 71.881L5.69 70.591L6.95 70.221L8.21 69.981L9.45 69.991L10.57 72.071L11.82 71.871L12.98 73.221L14.21 73.491L15.57 71.521L16.87 70.471L18.11 70.621L19.29 71.551L20.54 71.451L21.75 71.931L22.96 72.531L24.19 72.731L25.35 74.341L26.76 70.931L27.91 72.771L29.1 73.911L30.38 73.241L31.61 73.571L32.82 74.261L34.06 74.371L35.37 72.451L36.55 74.411L37.87 71.411L39.09 71.881L40.3 73.621L41.54 74.301L42.78 74.761L44.03 74.101L45.27 73.421L46.51 73.351L47.73 71.961L48.96 72.411L50.25 74.531L51.44 73.011L52.7 73.681L53.97 74.621L55.09 72.031L56.43 74.091L57.55 72.021L58.88 73.711L60.09 73.151L61.32 73.111L62.61 73.911L63.81 73.351L65.08 73.671L66.17 71.851L67.45 72.381L68.66 72.051L69.72 70.201L71.04 71.131L72.39 72.211L73.46 70.621L74.63 69.971L75.92 70.481L77.3 71.801L78.49 71.301L79.85 72.381L80.74 69.341L82.3 72.041L83.33 70.271L84.74 71.641L85.83 70.401L87.02 70.011L88.42 71.241L89.28 68.311L90.8 70.401L91.97 69.851L93.17 69.571L94.39 69.381L95.74 70.151L96.78 68.641L98.13 69.411L99.25 68.531L100.46 68.321L101.54 67.131L103.12 69.501L104.33 69.311L105.31 67.421L106.43 66.501L107.6 66.001L108.95 66.701L110.19 66.621L111.39 66.291L112.77 67.261L113.98 66.971L115.18 66.671L116.4 66.491L117.4 64.731L118.65 64.761L119.91 64.871L121.09 64.381L122.52 65.681L123.59 64.451L124.97 65.381L125.9 63.121L127.13 63.021L128.59 64.531L129.99 65.571L131.22 65.481L132.37 64.831L133.56 64.411L134.79 64.281L135.78 62.461L137.03 62.501L138.53 64.271L139.65 63.381L140.88 63.251L142.19 63.671L143.21 62.071L144.62 63.221L145.67 61.841L146.9 61.721L147.88 59.871L149.37 61.551L150.8 62.841L151.82 61.241L152.77 59.201L154.14 60.061L155.65 62.041L156.44 58.881L158.01 61.291L159.09 60.221L160.15 59.051L161.64 60.891L162.56 58.651L163.92 59.591L165.2 59.961L166.09 57.551L167.42 58.241L168.63 58.121L169.76 57.371L170.89 56.661L172.13 56.691L173.49 57.651L174.55 56.441L176.01 58.061L177.02 56.501L178.37 57.351L179.72 58.221L180.85 57.511L182.07 57.451L183.11 56.071L184.2 55.011L185.49 55.511L186.88 56.661L188.19 57.271L189.3 56.361L190.41 55.481L191.45 54.021L192.99 56.411L194.04 55.021L195.2 54.491L196.47 54.851L197.71 54.951L199 55.401L200.3 55.991L201.52 55.911L202.4 53.191L203.6 52.951L204.76 52.391L206.35 55.331L207.18 52.081L208.46 52.501L209.63 52.051L210.84 51.871L212.38 54.501L213.31 52.001L214.68 53.261L215.9 52.991L216.93 51.031L218.29 52.041L219.69 53.751L220.67 50.471L222.13 53.661L223.28 52.341L224.48 50.461L225.75 52.411L227.02 51.091L228.12 53.611L229.48 51.991L230.53 53.461L231.75 53.411L232.9 53.871L233.98 54.601L235.48 53.691L236.56 54.471L237.9 54.291L239.37 53.461L240.18 55.831L241.55 55.471L242.77 56.491L244.14 53.811L245.35 55.341L246.66 56.001L247.68 54.091L248.98 54.571L250.15 54.181L251.47 54.471L252.85 54.791L253.64 53.151L255.17 53.911L255.71 51.751L257.42 52.901L258.72 52.911L258.82 49.701L259.97 49.311L261.79 50.701L262.98 50.441L263.44 48.031L265.01 48.861L266.64 50.051L267.25 47.771L268.67 48.401L269.63 47.051L271.13 48.541L272.04 46.021L273.38 46.731L274.64 47.101L275.88 47.011L276.94 48.611L278.21 48.441L279.53 48.281L280.76 48.621L281.87 49.301L283.58 48.211L284.75 48.781L286.05 48.891L287.31 49.091L287.7 52.191L289.61 50.091L290.22 52.881L291.97 50.231L293.1 50.561L294.11 52.441L295.39 51.631L296.62 50.571L297.8 51.371L298.96 50.451L300.21 51.461L301.48 52.051L302.63 51.391L303.96 52.061L305.16 51.771L306.6 52.721L307.42 50.651L308.52 50.041L309.84 50.321L311.04 50.091L311.77 48.191L313.23 48.891L314.7 49.561L315.95 49.451L317.31 49.681L317.72 47.031L318.74 46.261L320.32 47.131L320.92 45.121L322.57 46.191L323.89 46.301L324.52 44.351L325.73 44.111L327.02 44.121L328.19 43.771L329.57 44.071L330.74 43.741L331.87 43.261L332.82 42.131L334.32 43.001L335.46 42.561L336.77 42.831L337.5 40.431L338.96 41.421L340.46 43.031L341.21 39.891L342.77 42.441L343.7 39.591L345.12 42.151L346.25 40.801L347.49 40.611L348.74 40.451L350.02 39.781L351.25 40.371L352.38 41.601L353.44 42.891L354.94 41.061L356.02 42.061L357.13 42.811L358.28 43.231L360.11 40.781L361.02 42.301L361.72 44.501L363.41 42.981L364.85 42.501L365.24 45.471L366.75 44.761L367.94 45.071L369.36 44.741L370.15 46.211L371.56 45.931L372.24 47.691L373.88 46.801L374.58 48.461L375.95 48.321L377.03 48.971L378.64 48.181L379.68 48.951L380.81 49.471L381.85 50.231L383.53 49.221L384.65 49.741L385.44 51.251L386.69 51.411H388L388.98 52.411L390.09 53.041L391.26 53.531L392.29 54.501L393.67 54.201L395.11 53.501L396.16 54.521L397.28 55.361L398.59 55.211L399.78 55.761L401.3 53.651L402.3 56.121L403.68 54.461L404.9 54.721L406.14 54.401L407.37 56.371L408.5 53.591L409.84 56.001L410.86 53.361L412.07 53.441L413.51 55.631L414.47 53.321L415.67 53.211L416.87 53.081L418.19 53.841L419.62 55.501L420.47 52.551L421.66 52.201L423.02 53.461L424.36 54.881L425.53 54.511L426.57 52.011L427.82 52.371L429.06 53.321L430.26 53.951L431.49 52.921L432.64 54.371L433.8 54.741L435.24 51.781L436.28 53.881L437.38 54.871L438.83 52.891L440.07 52.911L441.19 53.631L442.61 52.491L443.78 52.911L444.7 54.761L445.8 55.501L447.38 53.571L448.57 53.841L449.48 55.641L450.79 55.221L451.73 56.841L453.36 54.831L454.58 54.961L455.72 55.581L456.99 55.451L457.77 57.951L459.1 57.471L460.61 56.101L461.72 56.831L462.93 57.031L464.14 57.251L465.23 58.081L466.61 57.401L467.67 58.421L468.98 58.081L470.34 57.471L471.28 59.151L472.22 60.791L473.34 61.451L475.09 58.821L475.8 61.681L477.24 60.651L478.34 61.451L479.42 62.341L480.87 61.271L481.91 62.371L483.53 60.371L484.75 60.561L485.51 63.141L486.82 62.841L488.26 61.801L489.44 62.141L490.59 62.721L491.98 61.971L493.26 61.781L494.43 62.191L495.37 63.831L496.27 65.701L497.85 63.701L498.95 66.051L500.22 65.441L501.55 63.271L502.74 64.601L503.95 65.511L505.2 65.471L506.46 65.101L507.67 65.961L508.93 65.401L510.25 63.551L511.43 65.211L512.72 64.241L513.9 65.601L515.16 65.311L516.45 64.301L517.69 64.241L518.88 65.621L520.11 66.071L521.38 65.451L522.58 66.531L523.8 67.051L525.17 64.011L526.42 63.911L527.58 66.001L528.9 64.191L530.08 65.611L531.32 65.851L532.59 65.141L533.76 67.071L535.1 64.741L536.22 67.061L537.54 65.131L538.72 65.971L539.93 66.261L541.27 64.761L542.4 66.081L543.65 65.771L544.91 65.481L546.2 64.871L547.18 67.471L548.41 67.491L549.56 68.291L550.9 67.141L552.32 65.451L553.46 66.341L554.58 67.351L555.78 67.631L557.2 65.991L558.03 69.461L559.32 68.971L560.73 67.431L561.87 68.241L562.98 69.311L564.27 68.771L565.6 67.941L566.73 68.801L568.14 67.221L569.34 67.471L570.34 69.581L571.61 69.191L572.86 68.961L573.99 70.071L575.38 68.241L576.38 70.821L577.67 70.121L578.97 69.111L580.15 69.701L581.29 71.221L582.5 71.601L583.78 70.461L584.99 71.081L586.24 70.221L587.47 69.921L588.67 71.561L589.9 71.391L591.14 71.991L592.33 69.691L593.6 71.481L594.8 70.631L596.03 70.521L597.2 69.651L598.57 71.621L599.75 70.891L601 70.991L602.11 69.811L603.32 69.611L604.6 69.961L605.57 68.211L606.85 68.581L607.99 68.071L609.25 68.161L610.74 69.241L612.04 69.361L613.3 69.301L614.31 68.251L615.51 67.961L616.15 65.851L617.95 67.481L618.45 65.131H620.01L619.91 67.331L621.81 67.121L623.16 67.381L624.26 67.891L625.33 68.401L625.93 69.651L626.88 70.401L628.5 69.901L629.48 70.541L629.8 72.781L631.45 71.951L632.78 71.771L633.57 73.181L634.35 74.881L635.77 74.381L636.92 74.831L637.88 76.331L639.1 76.661L640.42 76.411L641.77 75.731L642.96 76.141L644.18 76.411L645.38 76.831L646.67 76.291L647.94 75.561L649.06 77.651L650.4 74.911L651.59 75.891L652.81 76.371L654.04 75.811L655.26 76.501L656.5 77.191L657.7 74.771L658.92 75.151L660.16 75.711L661.39 75.591L662.62 75.691L663.91 77.391L665.03 74.581L666.25 74.221L667.5 74.921L668.77 75.911L669.98 75.501L671.28 77.261L672.47 76.111L673.74 77.341L674.87 73.871L676.14 75.291L677.36 74.661L678.6 76.141L679.82 76.611L681.03 77.001L682.28 75.261L683.44 77.201L684.69 75.961L685.98 74.891L687.2 75.241L688.46 74.721L689.71 74.281L690.86 76.251L692.08 76.831L693.37 75.381L694.6 75.421L695.78 77.071L697.07 75.181L698.32 74.471L699.53 75.591L700.77 74.691L701.98 77.391L703.22 75.751L704.46 76.881L705.7 77.041L706.9 74.851L708.19 77.801L709.4 76.431L710.59 75.271L711.91 77.381L713.09 76.251L714.3 75.811L715.41 74.151L716.69 74.981L717.84 74.151L719.36 76.931L720.61 76.851L721.54 74.371L723.09 76.581L724.02 74.471L725.03 73.061L726.78 75.931L727.99 75.671L728.89 73.861L730.12 73.741L730.99 72.061L732.25 72.091L733.36 71.561L735.33 74.151L735.95 71.771L737.41 72.411L738.52 71.831L739.9 72.071L740.33 69.461L742.2 71.141L743.26 70.421L744.8 70.991L745.58 69.591L746.11 67.291L747.69 68.141L748.94 68.051L750.54 69.331L751.51 68.221L752.2 65.611L754.08 68.741L754.95 66.771L756.11 66.171L757.54 67.581L758.75 67.501L759.98 67.641L761.14 67.001L762.31 66.351L763.43 64.611L764.78 66.871L765.91 64.431L767.21 66.721L768.43 66.871L769.64 67.221L770.86 66.561L772.1 65.631L773.28 67.321L774.59 64.781L775.76 66.331L776.92 67.591L778.26 65.571L779.36 67.571L780.76 64.961L781.96 65.431L783.18 65.631L784.43 65.541L785.55 66.871L786.67 68.241L788.02 66.821L789.18 67.701L790.39 67.861L791.67 67.391L792.79 68.681L794.03 68.581L795.39 67.121L796.58 67.731L797.87 67.021L799.13 66.711L800.21 68.681L801.49 68.051L802.67 68.941L804.01 67.241L805.19 68.061L806.37 69.011L807.6 69.151L808.84 69.161L810.15 66.631L811.32 69.331L812.57 67.651L813.79 66.971L815.01 67.431L816.27 69.131L817.47 67.781L818.67 67.311L819.87 66.961L821.26 69.341L822.42 68.281L823.48 66.531L824.72 66.741L826.14 68.201L827.46 68.581L828.38 66.581L829.64 66.661L830.57 65.151L832.06 66.251L833.03 64.871L834.84 67.361L835.79 65.891L837.03 65.791L837.88 63.841L839.38 64.931L840.5 64.271L841.59 63.391L842.87 63.441L844.23 63.911L845.43 63.611L846.35 61.751L847.69 62.131L848.99 62.371L850.23 62.231L851.62 63.131L852.57 60.871L854 62.311L855.22 61.991L856.51 62.521L857.59 60.301L858.92 61.561L860.18 61.801L861.42 61.751L862.65 63.401L863.9 60.791L865.12 61.311L866.35 61.321L867.46 63.051L868.75 62.061L869.79 63.901L871.38 60.701L872.44 62.141L873.78 61.431L874.81 62.801L876.16 62.161L877.17 63.511L878.26 64.321L879.9 62.161L880.81 63.941L882.15 63.461L883.38 63.521L884.49 64.201L885.52 65.251L886.57 66.171L887.62 67.061L889.47 64.241L890.44 65.561L891.61 65.911L893.1 64.731L893.67 68.041L895.18 66.751L896.51 66.251L897.43 68.011L898.47 69.161L899.93 67.881L900.9 69.571L902.37 68.091L903.35 69.951L904.89 67.631L906.07 67.981L907.38 66.981L908.33 70.101L909.73 67.711L910.89 68.991L912.18 67.751L913.39 68.641L914.62 68.431L915.88 69.751L917.11 68.871L918.34 68.531L919.66 69.971L920.81 68.411L922.1 69.021L923.21 67.541L924.43 67.321L925.74 67.951L927.14 69.021L928.01 66.311L929.28 66.481L930.68 67.431L931.79 66.591L933.11 66.911L934.55 67.841L935.36 65.521L936.61 65.471L937.75 64.901L939.2 65.721L940.16 64.381L941.96 66.631L942.55 63.721L944.12 64.951L945.1 63.731L946.33 63.541L947.35 62.511L948.8 63.191L950.48 64.681L951.53 63.771L952.71 63.381L953.68 62.191L955.14 62.821L956.49 63.041L957.23 59.791L958.66 60.621L959.85 60.841L961.08 60.541L962.29 60.471L963.35 62.921L964.57 63.151L965.84 62.031L967.04 63.341L968.26 61.151L969.51 63.031L970.69 61.561L971.93 62.111L973.21 62.871L974.48 63.341L975.48 60.721L976.78 61.541L978.07 62.151L979.35 62.481L980.51 61.911L981.59 60.761L982.77 60.451L984.29 62.251L985.42 61.531L986.59 61.131L987.35 58.511L988.86 59.971L989.93 59.101L990.98 58.161L992.5 59.491L993.91 60.281L994.74 58.341L996.01 58.441L997.4 59.071L998.09 56.611L999.28 56.341L1000.72 57.181L1002.24 58.321L1003.5 58.371L1004.13 55.711L1005.24 55.101L1006.41 54.731L1008.03 56.301L1008.79 54.171L1009.99 53.941L1011.27 54.061L1012.96 56.051L1013.64 53.461L1015.01 54.041L1016.48 55.091L1017.19 52.491L1018.4 52.311L1019.56 51.821L1021.06 53.191L1022.46 54.121L1023.28 51.721L1024.83 53.701L1025.88 52.561L1026.8 50.301L1028.13 50.921L1029.61 52.771L1030.61 50.851L1031.96 51.861L1033.2 51.961L1034.26 50.051L1035.58 51.071L1036.92 52.421L1038.06 51.331L1039.18 49.551L1040.48 50.751L1041.78 52.111L1042.93 50.421L1044.15 50.301L1045.36 49.701L1046.58 49.031L1047.82 49.341L1049.07 50.601L1050.3 50.341L1051.53 50.651L1052.76 48.861L1053.98 50.121L1055.21 50.281L1056.42 51.581L1057.69 49.401L1058.88 51.001L1060.14 49.961L1061.33 51.261L1062.56 51.031L1063.82 50.301L1065.04 50.561L1066.25 50.881L1067.51 50.231L1068.77 49.701L1069.93 51.031L1071.18 50.661L1072.37 51.471L1073.67 50.211L1074.86 50.901L1076.16 49.791L1077.32 50.881L1078.57 50.701L1079.83 50.251L1080.91 52.601L1082.18 51.931L1083.33 53.171L1084.54 53.471L1085.89 51.801L1087.04 52.991L1088.37 51.491L1089.64 50.801L1090.81 51.871L1091.98 52.791L1093.26 52.011L1094.37 54.061L1095.78 50.901L1096.95 51.941L1098.08 53.791L1099.4 52.241L1100.68 51.051L1101.91 51.131L1102.99 54.451L1104.22 54.391L1105.46 54.261L1106.77 52.201L1107.92 54.651L1109.18 53.781L1110.4 54.091L1111.67 52.231L1112.87 53.901L1114.11 53.021L1115.33 53.691L1116.57 54.171L1117.79 52.791L1119.03 53.821L1120.27 54.231L1121.47 52.811L1122.73 53.961L1123.95 53.371L1125.22 54.491L1126.46 54.611L1127.61 52.851L1128.82 52.381L1129.97 51.211L1131.22 51.641L1132.49 52.271L1133.85 53.691L1135.03 53.051L1136.33 53.601L1137.55 53.351L1138.77 53.171L1139.9 52.261L1141.23 52.851L1142.09 50.181L1143.4 50.701L1144.65 50.791L1145.87 50.671L1147.01 50.111L1148.49 51.291L1149.49 50.021L1151.02 51.291L1151.94 49.731L1153.19 49.701L1154.14 48.421L1155.12 47.351L1156.51 47.731L1157.98 48.361L1158.95 47.141L1160.72 48.991L1161.9 48.621L1162.73 46.661L1163.77 45.341L1165.24 46.331L1166.43 45.541L1167.83 47.501L1169.02 45.291L1170.36 44.981L1171.65 45.481L1172.76 46.611L1174.24 45.911L1174.7 48.651L1176.71 46.691L1177.66 47.731L1178.8 48.261L1179.51 49.671L1181.22 49.001L1181.3 51.621L1183.74 49.541L1183.62 52.571L1184.99 52.611L1185.76 54.001L1188.1 51.681L1189.32 51.851L1190.14 53.171L1190.95 54.661L1192.58 53.571L1193.89 53.391L1195.05 53.731L1195.87 55.671L1197.07 56.061L1198.49 55.211L1199.77 54.941L1200.74 56.881L1202.17 55.511L1203.25 57.021L1204.6 55.931L1205.74 57.301L1206.98 57.561L1208.34 55.241L1209.51 56.961L1210.77 56.241L1211.99 57.351L1213.25 55.761L1214.48 57.731L1215.72 55.471L1216.96 56.101L1218.21 56.251L1219.47 57.511L1220.75 58.721L1221.95 56.901L1223.19 56.671L1224.49 58.481L1225.66 56.201L1226.94 57.491L1228.15 56.671L1229.42 57.581L1230.64 56.921L1231.85 55.951L1233.11 56.411L1234.34 56.171L1235.55 55.191L1236.82 55.871L1238.12 58.181L1239.29 55.491L1240.57 56.971L1241.77 55.461L1243.06 57.141L1244.28 56.561L1245.5 55.841L1246.74 55.921L1248.02 57.131L1249.26 56.961L1250.48 56.401L1251.71 56.121L1252.9 54.411L1254.2 56.211L1255.43 55.801L1256.64 55.011L1257.93 56.731L1259.13 55.251L1260.42 56.721L1261.66 56.701L1262.88 56.131L1264.08 54.631L1265.3 53.991L1266.55 54.261L1267.79 54.271L1269.03 54.461L1270.27 54.311L1271.59 57.031L1272.79 55.421L1273.98 53.731L1275.31 57.001L1276.54 57.021L1277.73 55.671L1278.95 55.531L1280.18 55.391L1281.4 55.281L1282.65 55.461L1283.83 54.771L1284.92 53.351L1286.22 54.201L1287.47 54.311L1288.58 53.561L1290.07 54.931L1290.9 52.891L1292.58 54.701L1293.35 52.771L1294.82 53.421L1295.9 52.761L1296.72 51.491L1297.75 50.871L1299.1 50.821L1300.67 51.091L1301.79 50.471L1303.36 50.681L1304.4 49.961L1304.72 47.871L1305.52 46.581L1307.75 48.411L1308.03 45.711L1309.25 45.141L1310.64 45.131L1311.87 44.671L1313.19 45.251L1314.44 44.911L1315.81 44.001L1316.77 46.081L1317.95 46.271L1319.5 45.481L1319.72 48.171L1321.25 47.641L1322.89 47.261L1323.21 48.991L1324.85 48.861L1325.83 49.671L1324.82 52.231L1326.98 51.951L1327.99 52.761L1326.96 54.691L1329.12 53.721L1329.5 54.231L1330.64 53.741L1331.53 52.531L1332.66 51.861L1334.28 53.111L1335.47 52.851L1336.99 54.131L1337.57 51.041L1339.15 52.691L1340.57 53.491L1341.77 53.241L1342.6 51.371L1343.85 51.311L1344.94 50.721L1345.99 50.171L1346.85 48.751L1348.02 48.181L1349.38 48.811L1350.62 49.091L1351.72 50.571L1352.81 51.151L1353.91 51.681L1354.95 52.421L1356.23 52.711L1358.18 51.591L1358.64 53.661L1359.9 53.921L1361.26 53.831L1362.37 54.461L1363.94 53.421L1365 54.191L1365.96 55.581L1367.61 53.531L1368.45 55.881L1369.71 55.871L1370.85 56.821L1372.3 54.861L1373.35 57.161L1374.67 56.001L1375.91 56.011L1377.17 55.021L1378.39 55.061L1379.61 55.721L1380.84 57.221L1382.07 55.821L1383.32 56.931L1384.55 56.751L1385.76 55.621L1386.95 54.491L1388.25 56.461L1389.52 57.481L1390.66 54.861L1391.94 56.171L1393.16 55.781L1394.43 56.961L1395.61 55.061L1396.88 56.631L1398.1 56.461L1399.32 55.901L1400 56.341V0.000976562H0V72.041L0.64 72.051L1.97 70.261Z" fill="#B9CED1"/>
</g>
<defs>
<clipPath id="clip0_1857_486135">
<rect width="1400" height="787" fill="white" transform="translate(0 0.000976562)"/>
</clipPath>
</defs>
</svg>
