<svg width="1400" height="787" viewBox="0 0 1400 787" fill="none" xmlns="http://www.w3.org/2000/svg">
<g clip-path="url(#clip0_1857_486138)">
<path d="M3.09 21.951C3.59 21.941 3.97 20.431 4.47 20.421C6.33 22.271 5.72 22.831 7.5 20.601C11.41 22.811 10.82 20.831 15 20.101C19.65 18.501 17.63 20.941 19.68 21.961C21.01 20.191 23.66 19.831 25.67 21.481C28.08 16.791 31.39 24.431 33.06 19.561C35.31 19.761 36.45 19.631 37.68 20.671C38.68 20.311 39.4 19.721 40.6 19.511C44.59 19.241 48.91 20.631 52.77 20.771C53.84 20.381 54.49 19.691 55.68 19.381C56.62 19.761 57.31 20.401 58.76 20.111C60.83 20.951 62.22 21.401 63.27 19.951C64.63 20.771 65.26 20.461 66.27 19.691C67.23 19.981 68.11 20.301 69.32 20.121C71.75 19.711 73.89 17.651 76.75 18.671C79.15 21.051 78.82 17.561 82.89 20.071C84.67 20.831 86.11 19.911 87.36 19.291C88.35 19.721 88.85 20.601 90.46 20.461C93.45 19.741 93.71 16.551 96.41 19.351C98.54 19.821 98.29 18.721 99.35 18.241C100.4 18.681 100.52 19.971 102.45 19.401C106.83 17.441 104.99 19.461 108.53 20.131C109.64 19.701 108.84 17.341 111.41 18.121C111.91 18.121 112.49 19.171 112.99 19.161C113.49 19.161 113.93 18.171 114.43 18.161C116.8 19.941 116.7 19.271 118.95 17.971C119.45 17.971 120.05 19.401 120.55 19.401C121.05 19.401 121.47 18.081 121.97 18.071C123.32 19.301 125.04 18.581 126.48 17.761C127.69 18.481 128.39 18.501 129.5 17.731C132.55 18.831 134.14 20.731 138.63 19.121C139.76 18.421 139.55 16.711 141.59 18.071C143.82 17.201 143.47 18.611 144.67 19.111C145.95 18.011 148.14 18.201 149.2 19.271C151.84 17.351 153.83 15.931 155.21 18.911C155.71 18.911 156.13 17.261 156.63 17.251C157.68 17.831 158.52 18.031 159.65 17.381C164.21 20.591 162.26 15.631 165.69 17.611C168.71 16.651 167.77 21.831 173.21 17.161C176.3 18.441 176.39 18.931 177.72 16.791C179.06 18.101 178.79 20.471 180.76 17.391C184.99 16.561 184.04 17.571 185.34 18.961C185.84 18.961 186.29 17.541 186.8 17.531C187.3 17.531 187.83 18.291 188.34 18.291C188.84 18.291 189.29 16.701 189.79 16.701C192.8 16.021 191.43 18.071 192.87 18.551C193.28 16.731 194.81 15.761 197.36 17.821C197.86 17.821 198.34 17.071 198.85 17.071C199.35 17.071 199.9 18.541 200.4 18.531C200.9 18.531 201.35 16.561 201.85 16.561C203.18 17.461 205.39 16.751 206.41 17.961C208.6 15.351 208.02 17.631 209.45 18.811C209.95 18.811 210.4 16.511 210.9 16.501C211.4 16.501 211.93 17.531 212.43 17.521C212.93 17.521 213.41 16.511 213.91 16.511C216.95 21.721 216.53 16.741 221.48 17.781C224.02 18.541 223.16 17.171 224.48 16.661C224.98 16.661 225.52 18.651 226.02 18.651C226.86 17.031 227.54 16.481 229.03 18.421C229.53 18.421 230.02 17.371 230.53 17.371C231.03 17.371 231.55 18.241 232.05 18.241C234.86 18.621 235.85 18.201 238.07 17.431C238.57 17.431 239.07 16.351 239.57 16.351C240.07 16.351 240.59 18.601 241.09 18.591C243.01 16.571 244.07 15.691 245.61 18.281C250.53 15.111 247.8 18.601 253.14 18.531C253.64 18.531 254.15 16.251 254.65 16.251C255.15 16.251 255.65 18.201 256.15 18.201C257.67 15.041 259.78 17.151 262.17 18.681C263.23 17.511 264.59 16.901 266.72 16.311C267.92 17.261 268.38 19.281 271.22 17.961C273.9 18.201 276.28 17.681 277.28 16.311C278.53 17.041 279.12 16.981 280.3 16.281C281.45 16.701 282.07 17.501 283.28 17.841C285.09 15.811 284.78 16.541 286.29 18.031C291.63 15.931 288.53 18.051 293.8 18.851C295.5 13.831 298.25 19.171 302.91 16.891C304.46 18.051 303.65 19.091 305.91 17.361C309.62 15.531 307.17 20.721 310.47 16.671C312.53 20.381 310.77 18.251 314.96 17.451C316.37 18.381 316.64 18.281 317.98 17.421C320.59 16.461 321.51 18.181 323.97 18.191C327.01 14.161 328.49 20.761 331.6 16.811C334.04 21.301 335.78 15.651 339.01 18.831C339.51 18.831 340.11 17.461 340.61 17.471C341.64 17.731 342.57 18.281 343.55 18.571C345.09 19.071 346.91 19.111 348.09 18.381C349.95 20.481 352.81 19.851 354.16 18.021C356.29 19.711 354.78 19.391 357.17 18.141C361.27 19.451 358.35 19.691 363.15 18.731C365.96 20.991 364.35 18.281 367.73 18.181C369.82 18.701 371.15 19.541 373.61 19.761C374.86 19.151 374.99 18.021 376.7 19.101C380.34 18.611 378.42 21.391 381.27 18.701C382.22 19.171 382.21 20.331 384.14 20.041C385.6 20.671 386.14 20.131 387.2 19.641C389.73 19.871 392.01 19.681 393.37 18.581C394.36 19.611 396.11 19.661 397.85 18.981C398.54 21.111 404.66 20.381 406.89 19.151C407.39 19.171 407.69 20.681 408.19 20.701C408.69 20.721 409.3 19.921 409.8 19.941C411.34 21.151 411.95 20.281 414.26 20.471C417.75 17.501 419.39 24.871 426.38 20.191C426.88 20.211 427.09 22.171 427.59 22.191C428.09 22.211 428.79 20.941 429.29 20.961C436.27 24.341 431.4 20.581 438.12 22.461C438.62 22.481 439.47 20.261 439.97 20.281C441.6 21.051 439.68 23.511 442.82 21.391C444.16 23.211 445.54 21.371 447.11 22.921C452.25 22.671 449.89 20.231 454.95 21.141C455.98 24.211 456.63 22.811 460.94 21.501C467.61 22.921 461.82 23.721 468.21 23.271C470.67 24.021 469.92 22.801 471.39 22.321C473.99 24.061 472.22 22.751 474.46 22.061C475.81 24.661 478.42 22.611 481.78 23.511C485.62 23.491 486.56 22.251 487.66 24.531C489.58 21.911 489.45 22.311 490.67 24.601C491.17 24.621 491.94 22.991 492.44 23.011C493.93 24.501 497.33 24.141 499.66 25.141C501.52 24.571 500.39 22.361 502.87 23.991C506.3 23.501 505.97 24.041 507.19 25.341C511.79 25.261 510.44 24.181 514.67 25.831C517.02 24.231 517.35 24.581 519.17 26.081C520.52 24.851 521.83 25.221 523.91 24.641C526.18 23.381 526.22 24.741 528.35 25.281C529.48 24.851 530.19 24.631 531.39 25.161C534.03 23.421 534.36 25.191 535.77 26.291C537.71 23.861 537.41 24.141 538.78 26.351C540.61 25.631 540.42 25.881 541.77 26.621C543.82 25.221 543.82 23.481 546.4 25.811C549.78 24.531 549.57 26.001 550.76 27.161C552.95 25.711 553.52 26.211 555.26 27.471C556.51 25.681 557.96 24.181 559.85 26.901C561.89 25.011 563.72 28.011 567.33 27.551C569.2 25.011 568.88 25.031 570.35 27.571C572.57 26.071 572.22 27.391 574.87 27.731C576.94 28.121 576.82 27.191 577.97 26.721C580.49 28.511 584.76 28.071 587.04 26.321C590.7 26.801 590 25.801 591.44 28.051C593.23 26.011 592.81 25.931 594.46 28.021C597.11 26.161 595.43 26.661 597.47 28.231C599.26 27.561 601.98 25.911 603.55 27.231C606.33 25.531 604.86 27.161 606.53 28.001C609.35 29.551 608.11 27.191 609.59 26.631C611.72 27.361 615.76 26.071 617.08 28.211C620.62 27.371 619.26 24.721 621.61 28.011C624.38 25.361 622.71 27.301 624.63 28.641C628.06 22.601 627.91 31.451 632.15 26.731C634.11 27.551 633.43 27.511 635.16 26.671C636.49 29.091 643 29.301 644.19 26.961C645.63 27.321 646.14 26.991 647.18 26.571C649.39 27.561 647.59 29.681 650.23 27.291C652.77 25.711 654 26.531 656.28 27.691C658.34 26.151 657.11 26.061 659.29 27.581C662.61 26.471 663.47 24.901 665.32 27.541C667.73 25.671 667.28 28.901 669.84 27.411C672.46 28.701 673.12 26.811 674.19 25.881C676.38 28.381 677.47 28.101 678.67 25.621C687.99 29.341 684.14 23.071 687.92 26.961C690 24.391 689 25.971 690.99 27.351C692.22 25.511 692.97 23.821 695.4 26.471C697.46 23.671 698.44 28.441 701.25 24.661C703.75 24.911 705.43 26.131 707.48 26.791C708.69 26.261 707.88 24.641 710.38 25.181C713.76 29.551 711.86 21.741 716.44 25.371C720.13 24.481 719.29 24.281 721 26.161C722.66 25.461 721.18 23.111 723.98 24.971C724.48 24.971 725.02 26.511 725.53 26.511C726.87 26.011 725.75 23.651 728.51 24.731C729.96 26.301 731.15 26.311 733.05 24.861C735.19 26.771 737.91 26.871 739.09 24.651C741.33 26.621 743.75 27.111 745.14 24.601C746.96 25.871 746.55 25.551 748.17 24.471C749.74 25.791 750.77 24.931 752.71 24.311C759.76 28.031 755.41 24.991 764.79 24.731C767.31 24.371 767.08 26.491 769.3 25.131C771.03 27.001 770.43 27.021 772.32 25.181C773.39 26.851 774.7 27.781 776.82 25.761C779.26 28.151 778.42 25.421 779.91 24.671C780.41 24.671 780.82 26.251 781.32 26.261C782.58 25.641 782.39 24.501 784.39 25.521C788.67 22.941 786.96 27.171 790.35 26.831C794.95 23.361 794.67 29.941 798.01 25.191C799.56 28.361 799.85 26.861 802.55 25.011C804.06 25.201 804.68 26.271 805.46 26.811C807.8 24.091 807.02 26.121 808.44 27.511C809.53 25.521 811.14 24.071 813.01 26.901C814.93 25.631 814.78 26.561 816.01 27.411C819.11 22.221 816.64 29.541 822.08 26.941C824.17 28.111 823.99 26.641 825.14 26.021C825.64 26.021 826.09 27.611 826.59 27.621C829.12 27.031 829.26 24.931 831.14 27.101C833.31 26.071 834.55 26.051 835.67 27.491C837.01 26.471 836.49 24.121 838.71 26.621C839.92 26.111 840.59 26.201 841.73 26.701C845.03 28.141 843.29 23.661 846.26 26.411C850.15 26.931 849.8 23.321 852.33 27.801C853.64 25.951 855.44 24.951 856.86 27.391C860.88 25.851 862.18 24.131 864.44 27.591C865.37 25.981 866.13 25.771 868.93 26.771C869.85 26.061 869.81 24.641 871.88 25.841C874.14 24.021 873.8 26.581 875.02 27.141C876.81 25.101 879.81 25.111 881.09 27.291C887.48 22.631 882.62 29.681 888.32 24.781C891.14 27.631 889.57 24.051 892.9 25.291C894.23 24.391 894.84 24.961 895.95 25.591C897.2 24.201 898.58 25.631 900.36 24.771C902.28 26.681 904.06 24.821 906.3 24.171C907.3 24.661 908.2 24.861 909.32 24.251C913.71 27.641 909.34 21.531 920.01 25.331C920.71 24.591 921.12 23.551 922.92 24.571C924.71 22.401 926.6 24.941 929.04 25.281C933.16 25.901 935.33 22.471 938.02 24.941C938.88 22.931 939.3 22.381 940.99 24.671C942.78 23.571 944.54 23.541 946.95 24.181C949.09 22.661 950.3 22.591 951.48 24.471C952.13 23.711 952.16 21.181 954.38 23.261C955.83 21.901 956.39 23.001 957.43 23.781C961.2 24.021 963.71 25.961 964.86 22.471C966.07 24.721 969.41 23.801 972.43 23.461C974.26 24.641 974.53 23.161 975.41 22.521C977.52 24.301 979.45 23.301 981.43 22.101C982.26 22.781 983.41 22.871 984.45 22.171C986.07 27.221 988.8 21.421 991.94 24.071C992.58 23.081 993.4 20.881 994.99 23.281C997.93 24.261 998.14 24.811 999.56 22.661C1003.5 21.901 1001.98 26.331 1007.02 23.821C1010.31 20.451 1010.04 24.661 1013.04 24.001C1014.99 23.291 1016.51 22.181 1017.57 24.001C1020.44 24.121 1022.66 24.561 1023.77 22.911C1024.05 24.821 1029.06 25.571 1031.16 24.171C1032.86 25.171 1035.1 24.121 1037.05 25.181C1037.55 25.201 1038.35 23.411 1038.85 23.431C1040.39 25.901 1041.36 25.141 1044.77 24.281C1045.58 25.491 1048.74 26.971 1050.6 25.611C1051.74 24.371 1052.91 24.841 1053.56 25.971C1054.36 24.961 1055.84 24.821 1056.58 26.031C1058.61 23.281 1058.74 25.661 1059.44 26.971C1061.43 25.061 1061.92 27.331 1064.19 25.871C1065.34 27.781 1068.66 26.941 1070.28 25.691C1071.27 27.021 1070.84 28.491 1073.2 26.321C1074.03 27.541 1076.51 27.071 1077.76 26.241C1079.08 27.771 1081.84 26.861 1083.82 26.241C1086.23 31.441 1087.77 24.061 1089.49 28.481C1090.19 27.161 1093.35 26.471 1094.07 28.281C1097.25 24.201 1096.97 29.571 1103.41 26.581C1105.38 26.921 1106.3 28.081 1107.91 26.771C1109.77 27.221 1111.41 27.781 1112.18 28.781C1113.72 26.971 1113.91 26.651 1115.2 28.831C1117.22 28.711 1118.12 29.711 1119.75 28.771C1120.2 28.191 1121.61 27.191 1122.84 28.111C1125.65 27.701 1126.47 29.321 1128.78 29.221C1129.5 28.001 1132 28.321 1133.32 29.161C1134.36 28.431 1136.48 27.231 1137.88 28.481C1138.49 27.741 1140.06 27.591 1140.89 28.391C1142.28 27.421 1143.28 28.691 1143.87 29.281C1144.91 27.131 1146.23 28.631 1146.87 29.831C1147.14 29.141 1148.53 27.571 1149.9 28.911C1154.5 24.101 1153.2 34.141 1157.41 27.721C1157.53 30.311 1162.94 30.731 1163.42 27.891C1164.27 28.531 1165.6 28.461 1166.42 27.811C1167.76 27.931 1168.67 28.741 1169.49 29.191C1170.49 27.761 1171.93 29.061 1172.54 29.811C1175.59 27.461 1180.6 28.951 1184.62 29.731C1186.4 28.101 1189.21 26.021 1192.07 28.661C1193.91 25.791 1193.58 28.031 1195.16 29.251C1196.78 25.041 1199.35 28.611 1202.71 29.211C1201.96 27.021 1206 25.441 1207.14 28.421C1207.64 28.401 1207.89 26.541 1208.39 26.521C1210.32 27.091 1211.27 25.971 1212.96 26.861C1215.63 26.491 1215.11 28.741 1217.75 28.561C1217.62 27.741 1218.86 25.251 1220.56 27.231C1222.61 26.111 1225.78 25.741 1226.68 27.661C1228.24 27.421 1228.68 26.191 1229.34 25.601C1229.84 25.581 1230.63 27.211 1231.13 27.191C1236.88 29.761 1234.98 21.101 1240.22 27.221C1242.4 26.881 1241.96 25.131 1244.32 24.941C1244.84 25.441 1246.09 27.021 1247.73 26.891C1249.01 24.661 1248.83 25.231 1250.77 26.911C1251.42 24.541 1252.44 24.431 1255.21 26.371C1256 23.651 1259.75 23.461 1261.24 26.201C1261.96 22.691 1264.11 25.171 1266.98 24.691C1268.05 24.291 1269.21 24.661 1270.08 25.001C1270.54 24.321 1271.67 23.651 1272.97 24.381C1275.52 24.531 1276.51 22.551 1278.81 23.381C1281.25 23.381 1281.74 22.181 1283.43 23.711C1283.92 21.261 1287.18 23.411 1288.16 24.521C1289.65 21.221 1289.26 24.231 1292.53 23.711C1293.22 21.271 1297.4 24.011 1299.72 22.011C1300.22 21.981 1300.98 23.091 1301.48 23.061C1302.16 22.231 1303.72 22.591 1304.54 23.171C1306.7 23.611 1306.51 21.531 1307.07 20.991C1309.43 20.501 1309.61 22.301 1311.9 22.231C1312.4 22.201 1312.66 21.141 1313.16 21.111C1313.66 21.081 1314.43 22.251 1314.93 22.221C1315.53 21.721 1315.55 20.041 1317.6 20.601C1318.58 23.091 1321.62 22.761 1323.67 20.631C1324.62 21.851 1327.83 21.541 1328.12 20.201C1329.84 22.191 1330.26 21.311 1331.03 19.621C1335.36 20.831 1339.17 17.441 1341.83 20.491C1343.23 20.471 1344.04 19.401 1344.52 18.861C1345.02 18.831 1345.89 20.571 1346.39 20.541C1347.95 18.091 1347.3 18.981 1349.41 20.491C1350.47 18.071 1356.11 17.561 1359.65 18.701C1361.19 16.941 1362.92 19.411 1364.44 20.031C1365.21 17.711 1367.82 17.971 1370.39 19.541C1371.14 19.061 1372.09 18.671 1373.33 19.061C1373.71 18.561 1375.07 17.691 1376.08 17.441C1376.58 17.421 1377.32 18.821 1377.82 18.791C1378.54 17.271 1381.67 18.241 1382.42 19.251C1382.78 16.711 1388.68 16.141 1391.3 18.161C1391.79 17.151 1393.59 17.391 1394.32 18.211C1395.6 17.821 1396.19 16.821 1397.09 16.281C1398.16 17.891 1398.96 17.591 1399.92 17.291V0.000976562H0V21.881C0.62 21.761 1.17 21.571 1.52 21.211C2.02 21.201 2.59 21.971 3.09 21.961V21.951Z" fill="#B9CED1"/>
</g>
<defs>
<clipPath id="clip0_1857_486138">
<rect width="1400" height="787" fill="white" transform="translate(0 0.000976562)"/>
</clipPath>
</defs>
</svg>
