<svg width="1400" height="787" viewBox="0 0 1400 787" fill="none" xmlns="http://www.w3.org/2000/svg">
<g clip-path="url(#clip0_1857_485689)">
<path d="M1396.91 765.05C1396.41 765.06 1396.03 766.57 1395.53 766.58C1393.67 764.73 1394.28 764.17 1392.5 766.4C1388.59 764.19 1389.18 766.17 1385 766.9C1380.35 768.5 1382.37 766.06 1380.32 765.04C1378.99 766.81 1376.34 767.17 1374.33 765.52C1371.92 770.21 1368.61 762.57 1366.94 767.44C1364.69 767.24 1363.55 767.37 1362.32 766.33C1361.32 766.69 1360.6 767.28 1359.4 767.49C1355.41 767.76 1351.09 766.37 1347.23 766.23C1346.16 766.62 1345.51 767.31 1344.32 767.62C1343.38 767.24 1342.69 766.6 1341.24 766.89C1339.17 766.05 1337.78 765.6 1336.73 767.05C1335.37 766.23 1334.74 766.54 1333.73 767.31C1332.77 767.02 1331.89 766.7 1330.68 766.88C1328.25 767.29 1326.11 769.35 1323.25 768.33C1320.85 765.95 1321.18 769.44 1317.11 766.93C1315.33 766.17 1313.89 767.09 1312.64 767.71C1311.65 767.28 1311.15 766.4 1309.54 766.54C1306.55 767.26 1306.29 770.45 1303.59 767.65C1301.46 767.18 1301.71 768.28 1300.65 768.76C1299.6 768.32 1299.48 767.03 1297.55 767.6C1293.17 769.56 1295.01 767.54 1291.47 766.87C1290.36 767.3 1291.16 769.66 1288.59 768.88C1288.09 768.88 1287.51 767.83 1287.01 767.84C1286.51 767.84 1286.07 768.83 1285.57 768.84C1283.2 767.06 1283.3 767.73 1281.05 769.03C1280.55 769.03 1279.95 767.6 1279.45 767.6C1278.95 767.6 1278.53 768.92 1278.03 768.93C1276.68 767.7 1274.96 768.42 1273.52 769.24C1272.31 768.52 1271.61 768.5 1270.5 769.27C1267.45 768.17 1265.86 766.27 1261.37 767.88C1260.24 768.58 1260.45 770.29 1258.41 768.93C1256.18 769.8 1256.53 768.39 1255.33 767.89C1254.05 768.99 1251.86 768.8 1250.8 767.73C1248.16 769.65 1246.17 771.07 1244.79 768.09C1244.29 768.09 1243.87 769.74 1243.37 769.75C1242.32 769.17 1241.48 768.97 1240.35 769.62C1235.79 766.41 1237.74 771.37 1234.31 769.39C1231.29 770.35 1232.23 765.17 1226.79 769.84C1223.7 768.56 1223.61 768.07 1222.28 770.21C1220.94 768.9 1221.21 766.53 1219.24 769.61C1215.01 770.44 1215.96 769.43 1214.66 768.04C1214.16 768.04 1213.71 769.46 1213.2 769.47C1212.7 769.47 1212.17 768.71 1211.66 768.71C1211.16 768.71 1210.71 770.3 1210.21 770.3C1207.2 770.98 1208.57 768.93 1207.13 768.45C1206.72 770.27 1205.19 771.24 1202.64 769.18C1202.14 769.18 1201.66 769.93 1201.15 769.93C1200.65 769.93 1200.1 768.46 1199.6 768.47C1199.1 768.47 1198.65 770.44 1198.15 770.44C1196.82 769.54 1194.61 770.25 1193.59 769.04C1191.4 771.65 1191.98 769.37 1190.55 768.19C1190.05 768.19 1189.6 770.49 1189.1 770.5C1188.6 770.5 1188.07 769.47 1187.57 769.48C1187.07 769.48 1186.59 770.49 1186.09 770.49C1183.05 765.28 1183.47 770.26 1178.52 769.22C1175.98 768.46 1176.84 769.83 1175.52 770.34C1175.02 770.34 1174.48 768.35 1173.98 768.35C1173.14 769.97 1172.46 770.52 1170.97 768.58C1170.47 768.58 1169.98 769.63 1169.47 769.63C1168.97 769.63 1168.45 768.76 1167.95 768.76C1165.14 768.38 1164.15 768.8 1161.93 769.57C1161.43 769.57 1160.93 770.65 1160.43 770.65C1159.93 770.65 1159.41 768.4 1158.91 768.41C1156.99 770.43 1155.93 771.31 1154.39 768.72C1149.47 771.89 1152.2 768.4 1146.86 768.47C1146.36 768.47 1145.85 770.75 1145.35 770.75C1144.85 770.75 1144.35 768.8 1143.85 768.8C1142.33 771.96 1140.22 769.85 1137.83 768.32C1136.77 769.49 1135.41 770.1 1133.28 770.69C1132.08 769.74 1131.62 767.72 1128.78 769.04C1126.1 768.8 1123.72 769.32 1122.72 770.69C1121.47 769.96 1120.88 770.02 1119.7 770.72C1118.55 770.3 1117.93 769.5 1116.72 769.16C1114.91 771.19 1115.22 770.46 1113.71 768.97C1108.37 771.07 1111.47 768.95 1106.2 768.15C1104.5 773.17 1101.75 767.83 1097.09 770.11C1095.54 768.95 1096.35 767.91 1094.09 769.64C1090.38 771.47 1092.83 766.28 1089.53 770.33C1087.47 766.62 1089.23 768.75 1085.04 769.55C1083.63 768.62 1083.36 768.72 1082.02 769.58C1079.41 770.54 1078.49 768.82 1076.03 768.81C1072.99 772.84 1071.51 766.24 1068.4 770.19C1065.96 765.7 1064.22 771.35 1060.99 768.17C1060.49 768.17 1059.89 769.54 1059.39 769.53C1058.36 769.27 1057.43 768.72 1056.45 768.43C1054.91 767.93 1053.09 767.89 1051.91 768.62C1050.05 766.52 1047.19 767.15 1045.84 768.98C1043.71 767.29 1045.22 767.61 1042.83 768.86C1038.73 767.55 1041.65 767.31 1036.85 768.27C1034.04 766.01 1035.65 768.72 1032.27 768.82C1030.18 768.3 1028.85 767.46 1026.39 767.24C1025.14 767.85 1025.01 768.98 1023.3 767.9C1019.66 768.39 1021.58 765.61 1018.73 768.3C1017.78 767.83 1017.79 766.67 1015.86 766.96C1014.4 766.33 1013.86 766.87 1012.8 767.36C1010.27 767.13 1007.99 767.32 1006.63 768.42C1005.64 767.39 1003.89 767.34 1002.15 768.02C1001.46 765.89 995.34 766.62 993.11 767.85C992.61 767.83 992.31 766.32 991.81 766.3C991.31 766.28 990.7 767.08 990.2 767.06C988.66 765.85 988.05 766.72 985.74 766.53C982.25 769.5 980.61 762.13 973.62 766.81C973.12 766.79 972.91 764.83 972.41 764.81C971.91 764.79 971.21 766.06 970.71 766.04C963.73 762.66 968.6 766.42 961.88 764.54C961.38 764.52 960.53 766.74 960.03 766.72C958.4 765.95 960.32 763.49 957.18 765.61C955.84 763.79 954.46 765.63 952.89 764.08C947.75 764.33 950.11 766.77 945.05 765.86C944.02 762.79 943.37 764.19 939.06 765.5C932.39 764.08 938.18 763.28 931.79 763.73C929.33 762.98 930.08 764.2 928.61 764.68C926.01 762.94 927.78 764.25 925.54 764.94C924.19 762.34 921.58 764.39 918.22 763.49C914.38 763.51 913.44 764.75 912.34 762.47C910.42 765.09 910.55 764.69 909.33 762.4C908.83 762.38 908.06 764.01 907.56 763.99C906.07 762.5 902.67 762.86 900.34 761.86C898.48 762.43 899.61 764.64 897.13 763.01C893.7 763.5 894.03 762.96 892.81 761.66C888.21 761.74 889.56 762.82 885.33 761.17C882.98 762.77 882.65 762.42 880.83 760.92C879.48 762.15 878.17 761.78 876.09 762.36C873.82 763.62 873.78 762.26 871.65 761.72C870.52 762.15 869.81 762.37 868.61 761.84C865.97 763.58 865.64 761.81 864.23 760.71C862.29 763.14 862.59 762.86 861.22 760.65C859.39 761.37 859.58 761.12 858.23 760.38C856.18 761.78 856.18 763.52 853.6 761.19C850.22 762.47 850.43 761 849.24 759.84C847.05 761.29 846.48 760.79 844.74 759.53C843.49 761.32 842.04 762.82 840.15 760.1C838.11 761.99 836.28 758.99 832.67 759.45C830.8 761.99 831.12 761.97 829.65 759.43C827.43 760.93 827.78 759.61 825.13 759.27C823.06 758.88 823.18 759.81 822.03 760.28C819.51 758.49 815.24 758.93 812.96 760.68C809.3 760.2 810 761.2 808.56 758.95C806.77 760.99 807.19 761.07 805.54 758.98C802.89 760.84 804.57 760.34 802.53 758.77C800.74 759.44 798.02 761.09 796.45 759.77C793.67 761.47 795.14 759.84 793.47 759C790.65 757.45 791.89 759.81 790.41 760.37C788.28 759.64 784.24 760.93 782.92 758.79C779.38 759.63 780.74 762.28 778.39 758.99C775.62 761.64 777.29 759.7 775.37 758.36C771.94 764.4 772.09 755.55 767.85 760.27C765.89 759.45 766.57 759.49 764.84 760.33C763.51 757.91 757 757.7 755.81 760.04C754.37 759.68 753.86 760.01 752.82 760.43C750.61 759.44 752.41 757.32 749.77 759.71C747.23 761.29 746 760.47 743.72 759.31C741.66 760.85 742.89 760.94 740.71 759.42C737.39 760.53 736.53 762.1 734.68 759.46C732.27 761.33 732.72 758.1 730.16 759.59C727.54 758.3 726.88 760.19 725.81 761.12C723.62 758.62 722.53 758.9 721.33 761.38C712.01 757.66 715.86 763.93 712.08 760.04C710 762.61 711 761.03 709.01 759.65C707.78 761.49 707.03 763.18 704.6 760.53C702.54 763.33 701.56 758.56 698.75 762.34C696.25 762.09 694.57 760.87 692.52 760.21C691.31 760.74 692.12 762.36 689.62 761.82C686.24 757.45 688.14 765.26 683.56 761.63C679.87 762.52 680.71 762.72 679 760.84C677.34 761.54 678.82 763.89 676.02 762.03C675.52 762.03 674.98 760.49 674.47 760.49C673.13 760.99 674.25 763.35 671.49 762.27C670.04 760.7 668.85 760.69 666.95 762.14C664.81 760.23 662.09 760.13 660.91 762.35C658.67 760.38 656.25 759.89 654.86 762.4C653.04 761.13 653.45 761.45 651.83 762.53C650.26 761.21 649.23 762.07 647.29 762.69C640.24 758.97 644.59 762.01 635.21 762.27C632.69 762.63 632.92 760.51 630.7 761.87C628.97 760 629.57 759.98 627.68 761.82C626.61 760.15 625.3 759.22 623.18 761.24C620.74 758.85 621.58 761.58 620.09 762.33C619.59 762.33 619.18 760.75 618.68 760.74C617.42 761.36 617.61 762.5 615.61 761.48C611.33 764.06 613.04 759.83 609.65 760.17C605.05 763.64 605.33 757.06 601.99 761.81C600.44 758.64 600.15 760.14 597.45 761.99C595.94 761.8 595.32 760.73 594.54 760.19C592.2 762.91 592.98 760.88 591.56 759.49C590.47 761.48 588.86 762.93 586.99 760.1C585.07 761.37 585.22 760.44 583.99 759.59C580.89 764.78 583.36 757.46 577.92 760.06C575.83 758.89 576.01 760.36 574.86 760.98C574.36 760.98 573.91 759.39 573.41 759.38C570.88 759.97 570.74 762.07 568.86 759.9C566.69 760.93 565.45 760.95 564.33 759.51C562.99 760.53 563.51 762.88 561.29 760.38C560.08 760.89 559.41 760.8 558.27 760.3C554.97 758.86 556.71 763.34 553.74 760.59C549.85 760.07 550.2 763.68 547.67 759.2C546.36 761.05 544.56 762.05 543.14 759.61C539.12 761.15 537.82 762.87 535.56 759.41C534.63 761.02 533.87 761.23 531.07 760.23C530.15 760.94 530.19 762.36 528.12 761.16C525.86 762.98 526.2 760.42 524.98 759.86C523.19 761.9 520.19 761.89 518.91 759.71C512.52 764.37 517.38 757.32 511.68 762.22C508.86 759.37 510.43 762.95 507.1 761.71C505.77 762.61 505.16 762.04 504.05 761.41C502.8 762.8 501.42 761.37 499.64 762.23C497.72 760.32 495.94 762.18 493.7 762.83C492.7 762.34 491.8 762.14 490.68 762.75C486.29 759.36 490.66 765.47 479.99 761.67C479.29 762.41 478.88 763.45 477.08 762.43C475.29 764.6 473.4 762.06 470.96 761.72C466.84 761.1 464.67 764.53 461.98 762.06C461.12 764.07 460.7 764.62 459.01 762.33C457.22 763.43 455.46 763.46 453.05 762.82C450.91 764.34 449.7 764.41 448.52 762.53C447.87 763.29 447.84 765.82 445.62 763.74C444.17 765.1 443.61 764 442.57 763.22C438.8 762.98 436.29 761.04 435.14 764.53C433.93 762.28 430.59 763.2 427.57 763.54C425.74 762.36 425.47 763.84 424.59 764.48C422.48 762.7 420.55 763.7 418.57 764.9C417.74 764.22 416.59 764.13 415.55 764.83C413.93 759.78 411.2 765.58 408.06 762.93C407.42 763.92 406.6 766.12 405.01 763.72C402.07 762.74 401.86 762.19 400.44 764.34C396.5 765.1 398.02 760.67 392.98 763.18C389.69 766.55 389.96 762.34 386.96 763C385.01 763.71 383.49 764.82 382.43 763C379.56 762.88 377.34 762.44 376.23 764.09C375.95 762.18 370.94 761.43 368.84 762.83C367.14 761.83 364.9 762.88 362.95 761.82C362.45 761.8 361.65 763.59 361.15 763.57C359.61 761.1 358.64 761.86 355.23 762.72C354.42 761.51 351.26 760.03 349.4 761.39C348.26 762.63 347.09 762.16 346.44 761.03C345.64 762.04 344.16 762.18 343.42 760.97C341.39 763.72 341.26 761.34 340.56 760.03C338.57 761.94 338.08 759.67 335.81 761.13C334.66 759.22 331.34 760.06 329.72 761.31C328.73 759.98 329.16 758.51 326.8 760.68C325.97 759.46 323.49 759.93 322.24 760.76C320.92 759.23 318.16 760.14 316.18 760.76C313.77 755.56 312.23 762.94 310.51 758.52C309.81 759.84 306.65 760.53 305.93 758.72C302.75 762.8 303.03 757.43 296.59 760.42C294.62 760.08 293.7 758.92 292.09 760.23C290.23 759.78 288.59 759.22 287.82 758.22C286.28 760.03 286.09 760.35 284.8 758.17C282.78 758.29 281.88 757.29 280.25 758.23C279.8 758.81 278.39 759.81 277.16 758.89C274.35 759.3 273.53 757.68 271.22 757.78C270.5 759 268 758.68 266.68 757.84C265.64 758.57 263.52 759.77 262.12 758.52C261.51 759.26 259.94 759.41 259.11 758.61C257.72 759.58 256.72 758.31 256.13 757.72C255.09 759.87 253.77 758.37 253.13 757.17C252.86 757.86 251.47 759.43 250.1 758.09C245.5 762.9 246.8 752.86 242.59 759.28C242.47 756.69 237.06 756.27 236.58 759.11C235.73 758.47 234.4 758.54 233.58 759.19C232.24 759.07 231.33 758.26 230.51 757.81C229.51 759.24 228.07 757.94 227.46 757.19C224.41 759.54 219.4 758.05 215.38 757.27C213.6 758.9 210.79 760.98 207.93 758.34C206.09 761.21 206.42 758.97 204.84 757.75C203.22 761.96 200.65 758.39 197.29 757.79C198.04 759.98 194 761.56 192.86 758.58C192.36 758.6 192.11 760.46 191.61 760.48C189.68 759.91 188.73 761.03 187.04 760.14C184.37 760.51 184.89 758.26 182.25 758.44C182.38 759.26 181.14 761.75 179.44 759.77C177.39 760.89 174.22 761.26 173.32 759.34C171.76 759.58 171.32 760.81 170.66 761.4C170.16 761.42 169.37 759.79 168.87 759.81C163.12 757.24 165.02 765.9 159.78 759.78C157.6 760.12 158.04 761.87 155.68 762.06C155.16 761.56 153.91 759.98 152.27 760.11C150.99 762.34 151.17 761.77 149.23 760.09C148.58 762.46 147.56 762.57 144.79 760.63C144 763.35 140.25 763.54 138.76 760.8C138.04 764.31 135.89 761.83 133.02 762.31C131.95 762.71 130.79 762.34 129.92 762C129.46 762.68 128.33 763.35 127.03 762.62C124.48 762.47 123.49 764.45 121.19 763.62C118.75 763.62 118.26 764.82 116.57 763.29C116.08 765.74 112.82 763.59 111.84 762.48C110.35 765.78 110.74 762.77 107.47 763.29C106.78 765.73 102.6 762.99 100.28 764.99C99.78 765.02 99.02 763.91 98.52 763.94C97.84 764.77 96.28 764.41 95.46 763.83C93.3 763.39 93.4901 765.47 92.9301 766.01C90.5701 766.5 90.39 764.7 88.1 764.77C87.6 764.8 87.34 765.86 86.84 765.89C86.34 765.92 85.5699 764.75 85.0699 764.78C84.4699 765.28 84.45 766.96 82.4 766.4C81.42 763.91 78.38 764.24 76.33 766.37C75.38 765.15 72.17 765.46 71.88 766.8C70.16 764.81 69.74 765.69 68.97 767.38C64.64 766.17 60.83 769.56 58.17 766.51C56.77 766.53 55.96 767.6 55.48 768.14C54.98 768.17 54.11 766.43 53.61 766.46C52.05 768.91 52.7 768.02 50.59 766.51C49.53 768.93 43.89 769.44 40.35 768.3C38.81 770.06 37.0801 767.59 35.5601 766.97C34.7901 769.29 32.18 769.03 29.61 767.46C28.86 767.94 27.91 768.33 26.67 767.94C26.29 768.44 24.93 769.31 23.92 769.56C23.42 769.58 22.6801 768.18 22.1801 768.21C21.4601 769.73 18.33 768.76 17.58 767.75C17.22 770.29 11.32 770.86 8.69995 768.84C8.20995 769.85 6.41005 769.61 5.68005 768.79C4.40005 769.18 3.81003 770.18 2.91003 770.72C1.84003 769.11 1.03996 769.41 0.0799561 769.71V787H1400V765.12C1399.38 765.24 1398.83 765.43 1398.48 765.79C1397.98 765.8 1397.41 765.03 1396.91 765.04V765.05Z" fill="#B9CED1"/>
</g>
<defs>
<clipPath id="clip0_1857_485689">
<rect width="1400" height="787" fill="white" transform="translate(1400 787) rotate(-180)"/>
</clipPath>
</defs>
</svg>
