<svg width="1400" height="787" viewBox="0 0 1400 787" fill="none" xmlns="http://www.w3.org/2000/svg">
<path d="M1398.03 716.74L1396.81 716.18L1395.63 715.12L1394.31 716.41L1393.05 716.78L1391.79 717.02L1390.55 717.01L1389.43 714.93L1388.18 715.13L1387.02 713.78L1385.79 713.51L1384.43 715.48L1383.13 716.53L1381.89 716.38L1380.71 715.45L1379.46 715.55L1378.25 715.07L1377.04 714.47L1375.81 714.27L1374.65 712.66L1373.24 716.07L1372.09 714.23L1370.9 713.09L1369.62 713.76L1368.39 713.43L1367.18 712.74L1365.94 712.63L1364.63 714.55L1363.45 712.59L1362.13 715.59L1360.91 715.12L1359.7 713.38L1358.46 712.7L1357.22 712.24L1355.97 712.9L1354.73 713.58L1353.49 713.65L1352.27 715.04L1351.04 714.59L1349.75 712.47L1348.56 713.99L1347.3 713.32L1346.03 712.38L1344.91 714.97L1343.57 712.91L1342.45 714.98L1341.12 713.29L1339.91 713.85L1338.68 713.89L1337.39 713.09L1336.19 713.65L1334.92 713.33L1333.83 715.15L1332.55 714.62L1331.34 714.95L1330.28 716.8L1328.96 715.87L1327.61 714.79L1326.54 716.38L1325.37 717.03L1324.08 716.52L1322.7 715.2L1321.51 715.7L1320.15 714.62L1319.26 717.66L1317.7 714.96L1316.67 716.73L1315.26 715.36L1314.17 716.6L1312.98 716.99L1311.58 715.76L1310.72 718.69L1309.2 716.6L1308.03 717.15L1306.83 717.43L1305.61 717.62L1304.26 716.85L1303.22 718.36L1301.87 717.59L1300.75 718.47L1299.54 718.68L1298.46 719.87L1296.88 717.5L1295.67 717.69L1294.69 719.58L1293.57 720.5L1292.4 721L1291.05 720.3L1289.81 720.38L1288.61 720.71L1287.23 719.74L1286.02 720.03L1284.82 720.33L1283.6 720.51L1282.6 722.27L1281.35 722.24L1280.09 722.13L1278.91 722.62L1277.48 721.32L1276.41 722.55L1275.03 721.62L1274.1 723.88L1272.87 723.98L1271.41 722.47L1270.01 721.43L1268.78 721.52L1267.63 722.17L1266.44 722.59L1265.21 722.72L1264.22 724.54L1262.97 724.5L1261.47 722.73L1260.35 723.62L1259.12 723.75L1257.81 723.33L1256.79 724.93L1255.38 723.78L1254.33 725.16L1253.1 725.28L1252.12 727.13L1250.63 725.45L1249.2 724.16L1248.18 725.76L1247.23 727.8L1245.86 726.94L1244.35 724.96L1243.56 728.12L1241.99 725.71L1240.91 726.78L1239.85 727.95L1238.36 726.11L1237.44 728.35L1236.08 727.41L1234.8 727.04L1233.91 729.45L1232.58 728.76L1231.37 728.88L1230.24 729.63L1229.11 730.34L1227.87 730.31L1226.51 729.35L1225.45 730.56L1223.99 728.94L1222.98 730.5L1221.63 729.65L1220.28 728.78L1219.15 729.49L1217.93 729.55L1216.89 730.93L1215.8 731.99L1214.51 731.49L1213.12 730.34L1211.81 729.73L1210.7 730.64L1209.59 731.52L1208.55 732.98L1207.01 730.59L1205.96 731.98L1204.8 732.51L1203.53 732.15L1202.29 732.05L1201 731.6L1199.7 731.01L1198.48 731.09L1197.6 733.81L1196.4 734.05L1195.24 734.61L1193.65 731.67L1192.82 734.92L1191.54 734.5L1190.37 734.95L1189.16 735.13L1187.62 732.5L1186.69 735L1185.32 733.74L1184.1 734.01L1183.07 735.97L1181.71 734.96L1180.31 733.25L1179.33 736.53L1177.87 733.34L1176.72 734.66L1175.52 736.54L1174.25 734.59L1172.98 735.91L1171.88 733.39L1170.52 735.01L1169.47 733.54L1168.25 733.59L1167.1 733.13L1166.02 732.4L1164.52 733.31L1163.44 732.53L1162.1 732.71L1160.63 733.54L1159.82 731.17L1158.45 731.53L1157.23 730.51L1155.86 733.19L1154.65 731.66L1153.34 731L1152.32 732.91L1151.02 732.43L1149.85 732.82L1148.53 732.53L1147.15 732.21L1146.36 733.85L1144.83 733.09L1144.29 735.25L1142.58 734.1L1141.28 734.09L1141.18 737.3L1140.03 737.69L1138.21 736.3L1137.02 736.56L1136.56 738.97L1134.99 738.14L1133.36 736.95L1132.75 739.23L1131.33 738.6L1130.37 739.95L1128.87 738.46L1127.96 740.98L1126.62 740.27L1125.36 739.9L1124.12 739.99L1123.06 738.39L1121.79 738.56L1120.47 738.72L1119.24 738.38L1118.13 737.7L1116.42 738.79L1115.25 738.22L1113.95 738.11L1112.69 737.91L1112.3 734.81L1110.39 736.91L1109.78 734.12L1108.03 736.77L1106.9 736.44L1105.89 734.56L1104.61 735.37L1103.38 736.43L1102.2 735.63L1101.04 736.55L1099.79 735.54L1098.52 734.95L1097.37 735.61L1096.04 734.94L1094.84 735.23L1093.4 734.28L1092.58 736.35L1091.48 736.96L1090.16 736.68L1088.96 736.91L1088.23 738.81L1086.77 738.11L1085.3 737.44L1084.05 737.55L1082.69 737.32L1082.28 739.97L1081.26 740.74L1079.68 739.87L1079.08 741.88L1077.43 740.81L1076.11 740.7L1075.48 742.65L1074.27 742.89L1072.98 742.88L1071.81 743.23L1070.43 742.93L1069.26 743.26L1068.13 743.74L1067.18 744.87L1065.68 744L1064.54 744.44L1063.23 744.17L1062.5 746.57L1061.04 745.58L1059.54 743.97L1058.79 747.11L1057.23 744.56L1056.3 747.41L1054.88 744.85L1053.75 746.2L1052.51 746.39L1051.26 746.55L1049.98 747.22L1048.75 746.63L1047.62 745.4L1046.56 744.11L1045.06 745.94L1043.98 744.94L1042.87 744.19L1041.72 743.77L1039.89 746.22L1038.98 744.7L1038.28 742.5L1036.59 744.02L1035.15 744.5L1034.76 741.53L1033.25 742.24L1032.06 741.93L1030.64 742.26L1029.85 740.79L1028.44 741.07L1027.76 739.31L1026.12 740.2L1025.42 738.54L1024.05 738.68L1022.97 738.03L1021.36 738.82L1020.32 738.05L1019.19 737.53L1018.15 736.77L1016.47 737.78L1015.35 737.26L1014.56 735.75L1013.31 735.59H1012L1011.02 734.59L1009.91 733.96L1008.74 733.47L1007.71 732.5L1006.33 732.8L1004.89 733.5L1003.84 732.48L1002.72 731.64L1001.41 731.79L1000.22 731.24L998.7 733.35L997.7 730.88L996.32 732.54L995.1 732.28L993.86 732.6L992.63 730.63L991.5 733.41L990.16 731L989.14 733.64L987.93 733.56L986.49 731.37L985.53 733.68L984.33 733.79L983.13 733.92L981.81 733.16L980.38 731.5L979.53 734.45L978.34 734.8L976.98 733.54L975.64 732.12L974.47 732.49L973.43 734.99L972.18 734.63L970.94 733.68L969.74 733.05L968.51 734.08L967.36 732.63L966.2 732.26L964.76 735.22L963.72 733.12L962.62 732.13L961.17 734.11L959.93 734.09L958.81 733.37L957.39 734.51L956.22 734.09L955.3 732.24L954.2 731.5L952.62 733.43L951.43 733.16L950.52 731.36L949.21 731.78L948.27 730.16L946.64 732.17L945.42 732.04L944.28 731.42L943.01 731.55L942.23 729.05L940.9 729.53L939.39 730.9L938.28 730.17L937.07 729.97L935.86 729.75L934.77 728.92L933.39 729.6L932.33 728.58L931.02 728.92L929.66 729.53L928.72 727.85L927.78 726.21L926.66 725.55L924.91 728.18L924.2 725.32L922.76 726.35L921.66 725.55L920.58 724.66L919.13 725.73L918.09 724.63L916.47 726.63L915.25 726.44L914.49 723.86L913.18 724.16L911.74 725.2L910.56 724.86L909.41 724.28L908.02 725.03L906.74 725.22L905.57 724.81L904.63 723.17L903.73 721.3L902.15 723.3L901.05 720.95L899.78 721.56L898.45 723.73L897.26 722.4L896.05 721.49L894.8 721.53L893.54 721.9L892.33 721.04L891.07 721.6L889.75 723.45L888.57 721.79L887.28 722.76L886.1 721.4L884.84 721.69L883.55 722.7L882.31 722.76L881.12 721.38L879.89 720.93L878.62 721.55L877.42 720.47L876.2 719.95L874.83 722.99L873.58 723.09L872.42 721L871.1 722.81L869.92 721.39L868.68 721.15L867.41 721.86L866.24 719.93L864.9 722.26L863.78 719.94L862.46 721.87L861.28 721.03L860.07 720.74L858.73 722.24L857.6 720.92L856.35 721.23L855.09 721.52L853.8 722.13L852.82 719.53L851.59 719.51L850.44 718.71L849.1 719.86L847.68 721.55L846.54 720.66L845.42 719.65L844.22 719.37L842.8 721.01L841.97 717.54L840.68 718.03L839.27 719.57L838.13 718.76L837.02 717.69L835.73 718.23L834.4 719.06L833.27 718.2L831.86 719.78L830.66 719.53L829.66 717.42L828.39 717.81L827.14 718.04L826.01 716.93L824.62 718.76L823.62 716.18L822.33 716.88L821.03 717.89L819.85 717.3L818.71 715.78L817.5 715.4L816.22 716.54L815.01 715.92L813.76 716.78L812.53 717.08L811.33 715.44L810.1 715.61L808.86 715.01L807.67 717.31L806.4 715.52L805.2 716.37L803.97 716.48L802.8 717.35L801.43 715.38L800.25 716.11L799 716.01L797.89 717.19L796.68 717.39L795.4 717.04L794.43 718.79L793.15 718.42L792.01 718.93L790.75 718.84L789.26 717.76L787.96 717.64L786.7 717.7L785.69 718.75L784.49 719.04L783.85 721.15L782.05 719.52L781.55 721.87H779.99L780.09 719.67L778.19 719.88L776.84 719.62L775.74 719.11L774.67 718.6L774.07 717.35L773.12 716.6L771.5 717.1L770.52 716.46L770.2 714.22L768.55 715.05L767.22 715.23L766.43 713.82L765.65 712.12L764.23 712.62L763.08 712.17L762.12 710.67L760.9 710.34L759.58 710.59L758.23 711.27L757.04 710.86L755.82 710.59L754.62 710.17L753.33 710.71L752.06 711.44L750.94 709.35L749.6 712.09L748.41 711.11L747.19 710.63L745.96 711.19L744.74 710.5L743.5 709.81L742.3 712.23L741.08 711.85L739.84 711.29L738.61 711.41L737.38 711.31L736.09 709.61L734.97 712.42L733.75 712.78L732.5 712.08L731.23 711.09L730.02 711.5L728.72 709.74L727.53 710.89L726.26 709.66L725.13 713.13L723.86 711.71L722.64 712.34L721.4 710.86L720.18 710.39L718.97 710L717.72 711.74L716.56 709.8L715.31 711.04L714.02 712.11L712.8 711.76L711.54 712.28L710.29 712.72L709.14 710.75L707.92 710.17L706.63 711.62L705.4 711.58L704.22 709.93L702.93 711.82L701.68 712.53L700.47 711.41L699.23 712.31L698.02 709.61L696.78 711.25L695.54 710.12L694.3 709.96L693.1 712.15L691.81 709.2L690.6 710.57L689.41 711.73L688.09 709.62L686.91 710.75L685.7 711.19L684.59 712.85L683.31 712.02L682.16 712.85L680.64 710.07L679.39 710.15L678.46 712.63L676.91 710.42L675.98 712.53L674.97 713.94L673.22 711.07L672.01 711.33L671.11 713.14L669.88 713.26L669.01 714.94L667.75 714.91L666.64 715.44L664.67 712.85L664.05 715.23L662.59 714.59L661.48 715.17L660.1 714.93L659.67 717.54L657.8 715.86L656.74 716.58L655.2 716.01L654.42 717.41L653.89 719.71L652.31 718.86L651.06 718.95L649.46 717.67L648.49 718.78L647.8 721.39L645.92 718.26L645.05 720.23L643.89 720.83L642.46 719.42L641.25 719.5L640.02 719.36L638.86 720L637.69 720.65L636.57 722.39L635.22 720.13L634.09 722.57L632.79 720.28L631.57 720.13L630.36 719.78L629.14 720.44L627.9 721.37L626.72 719.68L625.41 722.22L624.24 720.67L623.08 719.41L621.74 721.43L620.64 719.43L619.24 722.04L618.04 721.57L616.82 721.37L615.57 721.46L614.45 720.13L613.33 718.76L611.98 720.18L610.82 719.3L609.61 719.14L608.33 719.61L607.21 718.32L605.97 718.42L604.61 719.88L603.42 719.27L602.13 719.98L600.87 720.29L599.79 718.32L598.51 718.95L597.33 718.06L595.99 719.76L594.81 718.94L593.63 717.99L592.4 717.85L591.16 717.84L589.85 720.37L588.68 717.67L587.43 719.35L586.21 720.03L584.99 719.57L583.73 717.87L582.53 719.22L581.33 719.69L580.13 720.04L578.74 717.66L577.58 718.72L576.52 720.47L575.28 720.26L573.86 718.8L572.54 718.42L571.62 720.42L570.36 720.34L569.43 721.85L567.94 720.75L566.97 722.13L565.16 719.64L564.21 721.11L562.97 721.21L562.12 723.16L560.62 722.07L559.5 722.73L558.41 723.61L557.13 723.56L555.77 723.09L554.57 723.39L553.65 725.25L552.31 724.87L551.01 724.63L549.77 724.77L548.38 723.87L547.43 726.13L546 724.69L544.78 725.01L543.49 724.48L542.41 726.7L541.08 725.44L539.82 725.2L538.58 725.25L537.35 723.6L536.1 726.21L534.88 725.69L533.65 725.68L532.54 723.95L531.25 724.94L530.21 723.1L528.62 726.3L527.56 724.86L526.22 725.57L525.19 724.2L523.84 724.84L522.83 723.49L521.74 722.68L520.1 724.84L519.19 723.06L517.85 723.54L516.62 723.48L515.51 722.8L514.48 721.75L513.43 720.83L512.38 719.94L510.53 722.76L509.56 721.44L508.39 721.09L506.9 722.27L506.33 718.96L504.82 720.25L503.49 720.75L502.57 718.99L501.53 717.84L500.07 719.12L499.1 717.43L497.63 718.91L496.65 717.05L495.11 719.37L493.93 719.02L492.62 720.02L491.67 716.9L490.27 719.29L489.11 718.01L487.82 719.25L486.61 718.36L485.38 718.57L484.12 717.25L482.89 718.13L481.66 718.47L480.34 717.03L479.19 718.59L477.9 717.98L476.79 719.46L475.57 719.68L474.26 719.05L472.86 717.98L471.99 720.69L470.72 720.52L469.32 719.57L468.21 720.41L466.89 720.09L465.45 719.16L464.64 721.48L463.39 721.53L462.25 722.1L460.8 721.28L459.84 722.62L458.04 720.37L457.45 723.28L455.88 722.05L454.9 723.27L453.67 723.46L452.65 724.49L451.2 723.81L449.52 722.32L448.47 723.23L447.29 723.62L446.32 724.81L444.86 724.18L443.51 723.96L442.77 727.21L441.34 726.38L440.15 726.16L438.92 726.46L437.71 726.53L436.65 724.08L435.43 723.85L434.16 724.97L432.96 723.66L431.74 725.85L430.49 723.97L429.31 725.44L428.07 724.89L426.79 724.13L425.52 723.66L424.52 726.28L423.22 725.46L421.93 724.85L420.65 724.52L419.49 725.09L418.41 726.24L417.23 726.55L415.71 724.75L414.58 725.47L413.41 725.87L412.65 728.49L411.14 727.03L410.07 727.9L409.02 728.84L407.5 727.51L406.09 726.72L405.26 728.66L403.99 728.56L402.6 727.93L401.91 730.39L400.72 730.66L399.28 729.82L397.76 728.68L396.5 728.63L395.87 731.29L394.76 731.9L393.59 732.27L391.97 730.7L391.21 732.83L390.01 733.06L388.73 732.94L387.04 730.95L386.36 733.54L384.99 732.96L383.52 731.91L382.81 734.51L381.6 734.69L380.44 735.18L378.94 733.81L377.54 732.88L376.72 735.28L375.17 733.3L374.12 734.44L373.2 736.7L371.87 736.08L370.39 734.23L369.39 736.15L368.04 735.14L366.8 735.04L365.74 736.95L364.42 735.93L363.08 734.58L361.94 735.67L360.82 737.45L359.52 736.25L358.22 734.89L357.07 736.58L355.85 736.7L354.64 737.3L353.42 737.97L352.18 737.66L350.93 736.4L349.7 736.66L348.47 736.35L347.24 738.14L346.02 736.88L344.79 736.72L343.58 735.42L342.31 737.6L341.12 736L339.86 737.04L338.67 735.74L337.44 735.97L336.18 736.7L334.96 736.44L333.75 736.12L332.49 736.77L331.23 737.3L330.07 735.97L328.82 736.34L327.63 735.53L326.33 736.79L325.14 736.1L323.84 737.21L322.68 736.12L321.43 736.3L320.17 736.75L319.09 734.4L317.82 735.07L316.67 733.83L315.46 733.53L314.11 735.2L312.96 734.01L311.63 735.51L310.36 736.2L309.19 735.13L308.02 734.21L306.74 734.99L305.63 732.94L304.22 736.1L303.05 735.06L301.92 733.21L300.6 734.76L299.32 735.95L298.09 735.87L297.01 732.55L295.78 732.61L294.54 732.74L293.23 734.8L292.08 732.35L290.82 733.22L289.6 732.91L288.33 734.77L287.13 733.1L285.89 733.98L284.67 733.31L283.43 732.83L282.21 734.21L280.97 733.18L279.73 732.77L278.53 734.19L277.27 733.04L276.05 733.63L274.78 732.51L273.54 732.39L272.39 734.15L271.18 734.62L270.03 735.79L268.78 735.36L267.51 734.73L266.15 733.31L264.97 733.95L263.67 733.4L262.45 733.65L261.23 733.83L260.1 734.74L258.77 734.15L257.91 736.82L256.6 736.3L255.35 736.21L254.13 736.33L252.99 736.89L251.51 735.71L250.51 736.98L248.98 735.71L248.06 737.27L246.81 737.3L245.86 738.58L244.88 739.65L243.49 739.27L242.02 738.64L241.05 739.86L239.28 738.01L238.1 738.38L237.27 740.34L236.23 741.66L234.76 740.67L233.57 741.46L232.17 739.5L230.98 741.71L229.64 742.02L228.35 741.52L227.24 740.39L225.76 741.09L225.3 738.35L223.29 740.31L222.34 739.27L221.2 738.74L220.49 737.33L218.78 738L218.7 735.38L216.26 737.46L216.38 734.43L215.01 734.39L214.24 733L211.9 735.32L210.68 735.15L209.86 733.83L209.05 732.34L207.42 733.43L206.11 733.61L204.95 733.27L204.13 731.33L202.93 730.94L201.51 731.79L200.23 732.06L199.26 730.12L197.83 731.49L196.75 729.98L195.4 731.07L194.26 729.7L193.02 729.44L191.66 731.76L190.49 730.04L189.23 730.76L188.01 729.65L186.75 731.24L185.52 729.27L184.28 731.53L183.04 730.9L181.79 730.75L180.53 729.49L179.25 728.28L178.05 730.1L176.81 730.33L175.51 728.52L174.34 730.8L173.06 729.51L171.85 730.33L170.58 729.42L169.36 730.08L168.15 731.05L166.89 730.59L165.66 730.83L164.45 731.81L163.18 731.13L161.88 728.82L160.71 731.51L159.43 730.03L158.23 731.54L156.94 729.86L155.72 730.44L154.5 731.16L153.26 731.08L151.98 729.87L150.74 730.04L149.52 730.6L148.29 730.88L147.1 732.59L145.8 730.79L144.57 731.2L143.36 731.99L142.07 730.27L140.87 731.75L139.58 730.28L138.34 730.3L137.12 730.87L135.92 732.37L134.7 733.01L133.45 732.74L132.21 732.73L130.97 732.54L129.73 732.69L128.41 729.97L127.21 731.58L126.02 733.27L124.69 730L123.46 729.98L122.27 731.33L121.05 731.47L119.82 731.61L118.6 731.72L117.35 731.54L116.17 732.23L115.08 733.65L113.78 732.8L112.53 732.69L111.42 733.44L109.93 732.07L109.1 734.11L107.42 732.3L106.65 734.23L105.18 733.58L104.1 734.24L103.28 735.51L102.25 736.13L100.9 736.18L99.33 735.91L98.21 736.53L96.64 736.32L95.6 737.04L95.28 739.13L94.48 740.42L92.25 738.59L91.97 741.29L90.75 741.86L89.36 741.87L88.13 742.33L86.8101 741.75L85.5601 742.09L84.1899 743L83.23 740.92L82.05 740.73L80.5 741.52L80.28 738.83L78.75 739.36L77.11 739.74L76.79 738.01L75.15 738.14L74.17 737.33L75.1801 734.77L73.02 735.05L72.01 734.24L73.04 732.31L70.88 733.28L70.5 732.77L69.36 733.26L68.47 734.47L67.34 735.14L65.72 733.89L64.53 734.15L63.01 732.87L62.4301 735.96L60.85 734.31L59.4301 733.51L58.23 733.76L57.4 735.63L56.15 735.69L55.0601 736.28L54.01 736.83L53.15 738.25L51.98 738.82L50.62 738.19L49.38 737.91L48.28 736.43L47.1899 735.85L46.09 735.32L45.05 734.58L43.77 734.29L41.8199 735.41L41.36 733.34L40.1 733.08L38.74 733.17L37.63 732.54L36.0601 733.58L35 732.81L34.04 731.42L32.39 733.47L31.55 731.12L30.29 731.13L29.15 730.18L27.7 732.14L26.65 729.84L25.33 731L24.09 730.99L22.83 731.98L21.61 731.94L20.39 731.28L19.16 729.78L17.9301 731.18L16.6801 730.07L15.45 730.25L14.24 731.38L13.05 732.51L11.75 730.54L10.48 729.52L9.33997 732.14L8.06006 730.83L6.83997 731.22L5.56995 730.04L4.39001 731.94L3.12 730.37L1.90002 730.54L0.680054 731.1L0 730.66V787H1400V714.96L1399.36 714.95L1398.03 716.74Z" fill="#B9CED1"/>
</svg>
