<svg width="1400" height="787" viewBox="0 0 1400 787" fill="none" xmlns="http://www.w3.org/2000/svg">
<g clip-path="url(#clip0_1857_485695)">
<path d="M1397.88 658.259L1395.79 658.609L1393.57 660.079L1391.61 659.429L1389.76 657.639L1387.49 659.929L1385.65 657.989L1383.43 659.889L1381.53 658.509L1379.41 659.529L1377.61 656.729L1375.46 658.159L1373.48 657.499L1371.44 657.639L1369.43 657.439L1367.45 656.429L1365.44 656.049L1363.3 658.539L1361.37 656.139L1359.27 658.269L1357.26 657.879L1355.26 656.649L1353.24 656.759L1351.22 656.109L1349.18 657.689L1347.16 656.689L1345.13 655.119L1343.1 655.969L1341.07 656.019L1339.04 655.499L1337 655.209L1334.97 655.569L1332.98 656.969L1330.96 657.209L1328.91 656.579L1326.91 657.249L1324.82 655.809L1322.81 656.419L1320.82 657.029L1318.73 656.249L1316.72 656.569L1314.76 657.549L1312.73 657.659L1310.71 657.809L1308.61 657.089L1306.66 658.069L1304.75 659.329L1302.48 657.049L1300.66 659.139L1298.75 660.249L1296.47 658.179L1294.51 658.919L1292.38 658.379L1290.56 660.119L1288.54 660.379L1286.74 662.179L1284.53 661.139L1282.41 660.729L1280.5 661.709L1278.23 660.319L1276.51 662.509L1274.37 662.009L1272.59 663.759L1270.34 662.629L1268.4 663.399L1266.43 663.969L1264.67 665.689L1262.42 664.639L1260.35 664.649L1258.61 666.499L1256.29 665.049L1254.59 667.139L1252.61 667.619L1250.63 668.129L1248.07 665.359L1246.17 666.299L1244.33 667.569L1242.26 667.549L1240.46 669.079L1238.44 669.369L1236.33 669.099L1234.48 670.279L1232.49 670.599L1230.17 668.909H1228.14L1226.3 670.179L1224.63 672.469L1222.37 671.099L1220.61 672.909L1218.61 673.129L1216.27 671.179L1214.55 673.259L1212.35 672.129L1210.61 674.149L1208.42 673.139L1206.32 672.619L1204.22 672.139L1202.28 672.809L1200.34 673.499L1198.29 673.329L1196.67 676.389L1194.55 675.729L1192.53 675.859L1190.31 674.399L1188.59 676.829L1186.32 674.889H1184.29L1182.58 677.479L1180.38 676.029L1178.54 677.669L1176.41 676.719L1174.37 676.649L1172.42 677.279L1170.43 677.629L1168.55 678.919L1166.58 679.499L1164.3 677.079L1162.57 679.929L1160.37 678.189L1158.55 680.259L1156.43 679.259L1154.52 680.499L1152.38 679.209L1150.35 679.109L1148.31 678.909L1146.56 682.019L1144.34 679.679L1142.52 682.139L1140.35 680.249H1138.33L1136.36 680.839L1134.25 679.659L1132.47 682.899L1130.46 683.129L1128.32 681.389L1126.35 682.139L1124.4 683.119L1122.32 682.139L1120.37 683.269L1118.38 683.719L1116.34 683.529L1114.33 683.639L1112.35 684.389L1110.34 684.479L1108.18 681.749L1106.14 681.289L1104.24 683.609L1102.19 682.899L1100.19 683.199L1098.22 684.439L1096.16 683.199L1094.14 683.079L1092.17 684.379L1090.12 683.409L1088.09 682.929L1086.1 683.719L1084.05 682.369L1082.08 684.019L1080.02 682.329L1078.02 682.839L1076.04 684.419L1074.04 685.259L1072.02 685.169L1069.97 682.759L1067.97 683.209L1065.96 683.909L1063.95 684.559L1061.93 684.129L1059.92 682.909L1057.91 684.159L1055.89 685.219L1053.88 684.729L1051.86 685.769L1049.85 684.919L1047.82 685.739L1045.8 685.859L1043.82 682.849L1041.78 685.329L1039.78 684.349L1037.77 683.639L1035.76 683.749L1033.72 684.719L1031.75 683.069L1029.74 682.969L1027.72 682.919L1025.72 682.739L1023.65 684.369L1021.66 683.519L1019.62 684.209L1017.63 683.659L1015.64 682.919L1013.64 682.559L1011.52 684.869L1009.59 682.919L1007.49 684.799L1005.6 682.159L1003.62 681.589L1001.61 681.449L999.46 683.879L997.48 683.069L995.47 682.949L993.54 681.539L991.42 683.139L989.57 680.559L987.34 683.469L985.39 682.139L983.48 680.329L981.27 682.689L979.38 680.739L977.17 682.829L975.23 681.549L973.35 679.709L971.25 680.309L969.28 679.559L967.27 679.279L965.3 678.469L963.14 679.789L961.19 678.799L959.1 679.329L957.12 678.709L954.86 680.729L953.03 678.679L950.98 678.739L949.1 677.279L946.94 678.249L944.91 678.159L942.79 678.769L940.87 677.689L938.91 676.919L936.88 676.809L934.82 676.879L932.78 676.789L930.84 675.919L928.56 677.739L926.64 676.689L924.81 675.039L922.7 675.509L920.9 673.659L918.87 673.699L916.59 675.489H914.57L912.86 673.299L910.88 672.959L908.87 672.869L906.87 672.679L904.88 672.429L902.86 672.419L900.63 673.729L898.71 672.999L896.91 671.529L894.88 671.549L893.09 670.029L891.04 670.179L888.75 671.769L887.01 669.959L885.15 668.919L883.19 668.449L881.09 668.919L879.3 667.409L876.84 670.049L875.32 666.899L872.87 669.449L871.12 667.749L869.38 665.969L867.39 665.729L865.26 666.339L863.06 667.339L861.17 666.469L859.05 667.079L857.55 663.769L855.35 664.809L853.31 664.869L851.23 665.209L849.35 664.259L847.63 662.299L845.39 663.629L843.28 664.179L841.41 663.119L839.74 660.809L837.32 663.379L835.39 662.779L833.37 662.719L831.59 661.069L829.55 661.119L827.41 661.969L825.77 659.249L823.83 658.609L821.5 660.849L819.76 658.749L817.69 659.079L815.76 658.359L813.52 660.079L811.82 657.509L809.51 659.929L807.53 659.619L805.86 656.689L803.9 656.079L801.72 657.539L799.73 657.299L797.75 656.989L795.63 658.029L793.64 657.869L791.88 655.109L789.71 656.829L787.88 654.669L785.79 655.659L783.65 657.269L781.74 656.039L779.73 656.079L777.74 655.739L775.77 655.159L773.83 653.959L771.73 655.609L769.68 656.479L767.75 654.879L765.73 655.179L763.7 655.939L761.73 654.799L759.72 655.009L757.74 653.959L755.73 654.539L753.73 654.109L751.71 655.099L749.71 654.139L747.7 654.709L745.7 654.999L743.69 652.669L741.69 655.089L739.69 655.299L737.69 655.279L735.67 653.959L733.65 653.309L731.65 653.999L729.62 652.859L727.68 655.879L725.69 656.279L723.67 655.599L721.61 653.799L719.67 655.859L717.6 654.109L715.59 654.129L713.61 654.849L711.57 654.009L709.66 656.449L707.66 656.559L705.58 654.819L703.61 655.559L701.67 657.179L699.55 654.679L697.65 657.109L695.57 655.429L693.54 654.989L691.5 654.319L689.52 655.319L687.46 654.519L685.45 654.839L683.41 654.659L681.53 657.879L679.37 654.949L677.44 657.059L675.35 655.639L673.39 657.079L671.31 655.909L669.29 656.139L667.24 655.639L665.28 657.199L663.23 656.489L661.17 655.959L659.25 658.299L657.16 656.739L655.24 659.289L653.14 657.679L651.12 657.649L649.11 658.009L647.03 656.989L645.06 658.249L643.06 658.779L640.99 657.819L638.98 658.119L636.91 657.269L634.91 657.829L632.89 657.999L630.85 657.689L628.85 658.249L626.88 659.499L624.86 659.809L622.75 657.809L620.75 658.539L618.76 659.309L616.77 660.199L614.79 661.059L612.66 658.919L610.61 658.359L608.61 659.039L606.57 658.579L604.58 659.539L602.52 658.719L600.58 660.609L598.54 660.459L596.46 659.309L594.56 662.009L592.49 661.159L590.51 662.179L588.39 659.949L586.41 661.029L584.39 661.319L582.33 660.479L580.31 660.759L578.28 660.689L576.24 660.349L574.24 660.899L572.29 662.649L570.27 662.819L568.15 660.789L566.19 662.259L564.08 660.409L562.1 661.439L560.07 661.309L558.01 660.709L556.08 662.739L554.02 662.749L551.95 662.639L549.86 662.169L547.86 663.429L545.73 662.079L543.62 661.109L541.62 662.469L539.54 662.169L537.44 661.319L535.39 661.559L533.43 663.969L531.27 661.869L529.25 662.739L527.21 663.349L525.15 663.439L523.15 664.739L521.08 663.489L519.13 665.099L517.01 662.779L515.02 663.249L513 663.179L510.96 662.589L509.06 665.259L507.06 665.609L504.96 663.699L503 664.859L500.91 663.329L498.98 665.169L496.87 663.189L494.92 664.649L492.89 664.339L490.97 666.319L488.89 665.079L486.85 664.429L484.93 666.489L482.88 665.719L480.87 665.899L478.89 666.659L476.83 665.839L474.86 666.829L472.85 666.959L470.83 666.909L468.82 665.839L466.84 664.779L464.91 666.749L462.93 665.889L460.97 665.919L459 665.419L457.04 665.389L455.04 666.759L453.06 667.369L451.11 666.109L449.15 665.959L447.16 666.439L445.24 664.999L443.3 664.159L441.31 664.919L439.33 665.529L437.36 666.049L435.4 665.849L433.44 665.519L431.48 664.919L429.09 664.859L429.08 667.529L427.72 669.089L426.09 670.849L423.68 669.219L422.27 671.949L420.07 671.269L417.97 670.969L415.91 670.889L414.42 673.269L412.6 674.249L409.99 671.699L408.05 672.129L406.21 673.019L404.76 675.589L402.32 673.799L400.22 673.529L398.3 674.049L397.02 677.379L395.1 677.899L392.81 676.769L390.64 676.199L388.87 677.379L387.3 679.429L385.2 679.119L383.04 678.599L380.88 678.049L379.18 679.529L377.67 681.829L375.16 679.799L373.5 681.439L371.19 680.239L369.81 682.919L368 683.789L365.93 683.429L364.15 684.659L362.02 683.759L360.12 684.279L358.05 682.419L356.2 684.009L354.26 683.849L352.38 683.319L350.3 683.429L348.08 683.799L345.96 683.599L343.79 683.509L342.16 681.829L340.59 680.009L338.4 680.059L336.54 679.059L334.55 678.439L332.43 678.759L330.55 678.019L328.51 678.289L326.45 679.049L324.7 676.089L322.59 678.589L320.64 678.229L318.63 676.469L316.6 675.949L314.66 677.189L312.61 676.759L310.88 679.289L308.74 678.089L306.82 678.679L304.76 678.349L302.72 678.289L300.61 677.809L298.69 678.419L297.24 681.499L295 680.339L293.06 680.849L290.94 680.339L289.09 681.299L287.28 682.419L285.26 682.489L283.18 682.129L281.25 682.649L279.46 684.139L277.12 681.789L275.38 683.769L273.52 685.209L271.38 683.789L269.36 683.389L267.41 684.049L265.42 683.439L263.44 683.939L261.53 682.489L259.51 683.519L257.45 684.119L255.64 682.429L253.18 684.769L251.5 682.629L249.62 681.759L247.5 681.879L245.48 681.559L243.83 679.879L241.61 680.249L239.62 679.799L237.51 679.759L235.79 678.409L233.31 679.649L231.62 678.189L229.4 678.689L228.09 675.489L225.91 675.819L223.79 675.989L221.99 674.349L219.82 674.999L217.77 674.869L215.79 673.379L213.69 675.299L211.8 676.339L209.67 673.789L207.72 674.239L205.99 676.349L203.88 675.349L202.08 676.629L200.19 677.359L198.18 677.169L196.13 676.519L194.3 678.229L192.2 676.229L190.27 676.519L188.3 677.939L186.45 676.149L184.37 677.869L182.49 677.079L180.51 677.419L178.86 674.549L176.77 675.919L174.93 674.259L172.93 674.819L170.94 674.429L168.93 674.339L167.24 677.439L165.19 676.719L163.09 676.259L161.18 676.789L158.96 676.279L157.14 677.179L155.36 678.119L153.3 678.249L151.38 678.809L150.21 681.289L148.58 682.509L146.13 681.639L144.18 682.029L142.3 682.599L140.6 683.679L138.7 684.159L136.88 684.889L135.45 687.299L132.91 684.929L131.37 687.519L129.19 685.959L127.25 685.659L125.28 688.289L123.25 687.629L121.35 686.259L119.48 685.239L117.38 685.919L115.56 684.689L113.61 684.289L111.52 684.599L109.35 685.349L107.56 683.849L105.49 684.099L103.47 684.139L101.42 685.149L99.48 682.469L97.47 683.759L95.5601 684.679L93.6801 685.739L91.53 685.469L89.2 684.699L87.6801 687.379L85.39 686.799L83.35 687.619L81.21 685.579L79.3101 686.329L77.4399 685.329L75.25 687.669L73.22 687.659L71.4 686.489L69.5 685.909L67.97 683.909L65.49 685.669L63.6 685.109L62.21 682.779L59.88 683.889L57.83 683.999L56.66 680.319L53.95 682.939L52.0699 682.089L50.5699 679.299L48.54 678.939L46.4301 679.119L44.08 680.849L42.29 679.119L40.0699 680.299L38.33 677.959L36.04 679.989L34.13 678.739L32.13 678.349L30.05 678.819L28.13 677.279L25.95 679.399L24.05 676.999L21.97 677.819L19.99 676.479L17.92 677.199L15.91 676.279L13.84 677.499L11.8101 677.119L9.78003 676.179L7.73999 678.429L5.68994 675.449L3.67004 677.329L1.64001 677.939L0 678.689V786.999H1400V659.239L1399.84 658.949L1397.88 658.259Z" fill="#B9CED1"/>
</g>
<defs>
<clipPath id="clip0_1857_485695">
<rect width="1400" height="787" fill="white" transform="translate(1400 786.999) rotate(-180)"/>
</clipPath>
</defs>
</svg>
