<svg width="1400" height="787" viewBox="0 0 1400 787" fill="none" xmlns="http://www.w3.org/2000/svg">
<path d="M1368.95 553.09L1366.84 553.41L1364.48 553.25L1363.94 556.46L1361.37 555.83L1360.02 557.59L1357.17 556.24L1355.39 557.09L1354.33 559.57L1351.78 558.65L1351.07 562.12L1348.61 561.35L1346.92 562.48L1344.74 562.32L1342.73 562.56L1341.2 564.23L1339.78 566.35L1337.41 565.44L1335.77 566.95L1333.6 566.6L1331.95 568.19L1329.54 566.76L1327.58 567.06L1326.09 569.58L1323.96 569.15L1321.69 567.81L1319.85 568.81L1318.23 571.33L1315.79 568.65L1314.02 570.49L1311.77 569.02L1310.2 572.34L1307.91 570.65L1305.85 570.6L1304.21 573.04L1301.95 571.92L1299.85 571.77L1297.96 572.66L1295.71 572.13L1294.31 574.61L1291.72 573.28L1290.71 576.36L1288.3 575.84L1286.11 576.07L1285.75 579.45L1282.71 578.49L1280.91 579.58L1279.79 581.43L1279.52 583.91L1276.1 583.78L1277.84 587.28L1275.34 587.95L1274.65 589.75L1273.17 591.11L1272.82 593.1L1272.28 595.04L1271.9 597.2L1268.93 597.31L1268.42 599.58L1266.33 600.15L1264.08 600.18L1263.5 603.12L1261.63 603.86L1259.07 602.63L1257.84 605.11L1255.58 604.24L1253.69 604.6L1252.18 607.07L1250.08 606.48L1247.89 605.08L1246.34 607.94L1244.03 605.89L1242.13 606.7L1240.25 607.6L1238.16 607.1L1236.11 606.81L1234.09 606.8L1232.12 607.13L1230.54 610.22L1228.18 607.72L1226.6 610.82L1224.21 608.13L1222.26 608.63L1220.42 609.84L1218.31 609.15L1216.43 610.13L1214.35 609.65L1212.5 610.81L1210.79 613.02L1208.64 612.02L1206.53 611.33L1204.74 612.98L1202.59 612L1200.47 611.25L1198.75 613.32L1196.81 613.89L1194.58 612.29L1192.93 614.95L1190.88 614.76L1188.82 613.8L1186.85 612.69L1184.88 613.91L1182.72 615.27L1180.88 613.89L1178.97 613.28L1177.72 611.38L1176.04 610.59L1174.09 610.23L1173.68 612.51L1170.41 611.79L1170.03 614.68L1168.31 615.88L1165.97 616.03L1164.32 617.27L1162.32 617.86L1161.02 619.92L1158.3 618.83L1157.01 621.06L1155.02 621.62L1152.75 621.33L1151.46 623.97L1149.47 624.55L1146.7 622.39L1145.29 624.92L1142.96 624.11L1140.93 624.43L1139.31 626.37L1137.22 626.45L1135.19 626.76L1133.17 626.65L1131.12 626.36L1129.72 628.89L1127.42 627.57L1125.88 629.51L1124.17 630.71L1122.22 630.9L1119.99 629.86L1117.92 629.56L1116.47 631.86L1114.34 631.27L1112.7 632.84L1110.22 630.85L1108.95 634.05L1107.07 634.62L1104.82 633.56L1102.62 632.61L1100.78 633.33L1098.87 633.74L1097.41 636.47L1095.01 634.29L1093.26 635.63L1091.45 636.7L1089.34 636.02L1087.4 636.41L1085.45 636.77L1083.58 637.87L1081.4 636.11L1079.62 638.29L1077.46 636.32L1075.68 639.06L1073.51 636.35L1071.67 638.66L1069.61 637.18L1067.63 637.22L1065.7 638.79L1063.67 636.76L1061.75 639.81L1059.72 636.69L1057.76 639.97L1055.78 636.78L1053.79 639.04L1051.83 636.71L1049.83 637.92L1047.83 638.79L1045.83 639.81L1043.87 638.49L1041.86 639.56L1039.96 636.81L1037.89 639.3L1036 636.62L1033.96 638.04L1031.94 639L1029.99 638.04L1027.97 639.14L1026 637.77L1023.95 638.46L1021.95 637.87L1019.91 638.45L1017.98 636.2L1015.87 638.32L1013.93 636.4L1011.84 637.72L1009.86 636.74L1007.77 638.25L1005.85 636.04L1003.77 637.19L1001.73 637.3L999.75 636.61L997.83 634.66L995.76 635.49L993.65 636.87L991.63 636.71L989.57 637.27L987.67 635.34L985.56 636.54L983.5 636.9L981.66 634.39L979.63 634.38L977.57 634.76L975.45 635.81L973.37 636.32L971.65 632.9L969.32 636.04L967.31 635.73L965.41 634.39L963.6 632.38L961.42 633.66L959.46 633L957.59 631.66L955.56 631.65L953.52 631.67L951.49 631.62L949.43 631.76L947.15 633.39L945.39 631.43L943.59 629.85L941.63 629.35L939.59 629.34L937.38 630.3L935.31 630.33L933.56 628.7L931.4 629.23L929.51 628.34L927.73 626.99L925.46 627.95L923.29 628.38L921.53 626.98L919.69 625.99L917.28 627.32L915.91 624.49L913.32 626.4L912.14 623L909.92 623.49L907.67 623.98L905.84 623.03L904.26 621.3L901.49 623.39L900.64 619.42L898.12 620.61L895.94 620.74L894.13 619.77L892.91 617.21L890.39 618.22L888.86 616.54L886.84 616.19L885.37 614.45L882.35 616.43L881.38 613.55L879.31 613.26L876.77 613.94L875.36 612.16L874.26 609.78L872.1 609.62L870.54 608.23L868.16 608.45L867.23 605.8L864.02 607.42L862.91 605.15L860.95 604.44L858.95 603.81L857.39 602.39L856.52 599.69L853.1 601.66L851.63 600.07L849.48 599.78L848.26 597.65L845.96 597.7L844.72 595.52L842.59 595.25L840.67 594.7L839.09 593.34L836.79 593.82L835.78 590.74L833.07 592.51L831.12 592.15L829.99 589.05L827.43 590.69L826.21 587.66L823.96 588.35L822.32 586.71L820.04 587.6L818.41 585.81L815.84 588.11L814.48 585.06L812.14 586.43L810.46 584.78L808.18 585.93L806.06 586.26L804.5 583.86L802.26 584.77L800.62 582.74L798.24 584.38L796.46 583.02L794.29 583.6L792.84 580.57L790.68 581.09L788.4 582.3L786.69 580.57L784.98 578.71L782.45 581.35L780.92 578.5L778.48 580.7L776.85 578.39L774.74 578.78L772.79 578.22L770.69 578.57L769 576.5L766.85 577.14L764.71 577.75L762.99 575.78L760.94 575.88L758.67 577.28L757.03 574.82L754.73 576.46L752.9 575.16L750.74 575.93L749.2 572.7L747.12 572.96L745.12 572.74L743.18 572.04L740.92 573.59L738.76 574.53L737.02 572.46L735.14 571.35L733.21 570.55L730.97 572.1L728.82 573.03L727.1 570.65L725.12 570.28L722.8 572.58L721.02 570.61L718.83 571.92L716.84 571.6L714.87 571.14L712.87 570.98L711.02 569.47L708.86 570.64L706.84 570.63L704.87 570.21L703.18 567.21L701.21 566.74L698.98 568.81L697.15 567.09L694.93 569.14L693.2 566.25L691.15 566.69L689.17 566.35L686.96 568.36L685.23 565.34L682.99 567.84L681.21 565.34L679.14 566.02L677.2 565.18L675.17 565.4L673.24 564.46L671.23 564.4L669.13 565.5L667.2 564.49L665.11 565.53L663.12 565.25L661.12 565.18L659.04 566.06L657.25 563.3L655.2 563.81L653.08 565.26L651.22 563.31L649.09 564.92L647.27 562.42L645.13 564.18L643.31 561.69L641.07 564.68L639.22 562.31L637.22 561.86L635.02 563.96L633.13 562.03L631.17 561.09L629.02 562.45L626.93 563.16L625.08 560.72L623.06 560.5L621.03 560.4L618.82 562.71L616.77 562.77L614.77 562.39L612.92 560L610.85 560.35L608.66 562.32L606.73 560.9L604.78 559.87L602.62 561.41L600.67 560.32L598.76 558.65L596.65 559.59L594.48 561.27L592.63 558.87L590.65 558.1L588.54 559.02L586.49 559.2L584.41 559.77L582.41 559.29L580.49 557.8L578.23 557.53L576.56 559.23L574.69 560.01L572.74 560.61L571.46 562.77L569.66 563.81L567.08 562.79L564.96 562.84L563.5 564.82L561.71 565.9L559.8 566.65L557.26 565.11L555.4 565.95L553.6 567.08L552 569.23L549.74 568.42L547.61 568.14L545.94 570.29L543.77 569.7L541.7 569.65L539.7 570L537.87 571.66L535.72 570.91L533.64 570.62L531.8 572.53L529.67 571.77L527.63 571.82L525.45 570.22L523.52 571.42L521.45 571.07L519.38 570.51L517.43 571.69L515.34 570.87L513.37 571.69L511.36 572.04L509.34 572.23L507.25 571.52L505.44 574.74L503.2 571.87L501.33 574.2L499.35 574.89L497.3 574.68L495.08 572.59L493.21 574.47L491.17 574.49L489.2 575.15L486.91 572.89L485.07 574.73L483.2 576.16L480.93 574.48L479.07 575.85L477.08 576.27L474.83 575.13L472.94 577.39L470.61 576.8L468.39 577.13L465.93 577.37L463.64 575.83L461.52 576.02L459.58 577.47L457.27 576.16L455.7 578.45L453.03 576.83L451.75 579.37L450.29 581.12L447.58 580.09L446.63 582.86L444.18 582.52L442.85 584.47L440.73 584.65L439.1 585.85L436.49 584.88L434.54 585.3L433.54 588.03L430.84 586.51L429.95 589.87L427.13 587.58L425.88 590.3L423.65 589.54L421.75 589.96L419.74 589.72L418.09 592.55L415.93 590.03L413.99 592.88L412.11 590.22L410.31 589.31L407.79 592.22L406 590.9L403.72 591.17L402.19 589.49L401.34 586.95L398.54 587.89L396.67 587.17L395.72 585.11L394.59 583.34L393.36 581.64L391.24 581.36L389.59 580.27L387.29 580.81L385.97 578.66L383.69 580.52L381.89 580.75L380.18 579L378.34 580.03L376.5 579.7L374.36 578.51L372.46 579.64L370.67 580.95L368.26 579.36L366.14 579.42L364.88 582.23L362.83 582.42L361.38 584.13L359.67 585.08L356.8 583.77L355.27 585.22L353.64 586.44L352.25 587.96L349.27 587.28L347.82 588.79L347.72 591.84L346.43 593.34L343.56 593.28L343.14 595.65L342.47 597.68L338.72 597.27L337.82 599.17L338.7 602.41L337.26 603.88L336.21 605.67L332.51 605.24L333.65 608.98L329.95 608.24L329.85 611.1L327.12 610.88L326.38 613.42L324.85 615.24L322.4 614.68L320.43 615.96L318.16 616.53L316.44 614.13L314.25 614.85L312.82 612.21L310.71 611.83L308.66 613.86L306.41 612.28L304.51 613.27L303.28 615.63L301.2 615.7L299.36 616.41L297.68 617.43L295.29 617.01L294.7 620.43L291.62 618.07L289.87 618.75L288.09 619.41L286.19 619.58L284.33 620.05L282.47 621.64L280.49 620.24L278.42 622.71L276.5 621.28L274.35 622.48L272.65 620.15L270.68 619.92L268.62 620.21L266.75 619.39L264.94 618.26L262.94 618.13L261.13 616.99L258.88 618.18L256.85 618.23L255.11 616.47L253.25 615.98L250.68 617.77L248.97 616.13L246.57 616.95L245.08 614.48L242.86 614.68L241.23 612.71L239.06 612.74L236.45 612.08L234.6 613.69L234.01 615.44L233.07 617.18L232.24 619.66L229.36 618.04L228.13 620.4L226.29 621.52L224.05 618.64L222.23 620.25L220.39 619.5L218.68 618.32L216.32 620.46L214.75 618.77L213.03 617.82L210.66 619.05L209.51 616.31L207.15 617.46L205.05 617.84L203.95 614.46L201.57 615.74L199.9 614.19L197.84 614.35L195.68 615.25L193.78 614.7L192.12 612.19L189.89 614.3L188.11 611.93L185.96 614.51L184.03 614.24L182.09 612.45L180.09 611.74L178.12 612.74L176.25 614.59L174.07 611.87L172.14 612.71L170.38 614.63L168.41 614.7L166.48 615.02L164.46 614.65L164.25 616.99L162.22 618.07L159.67 616.38L158.02 616.73L156.06 619.6L154.35 616.52L152.44 618.77L150.32 617.95L148.25 618.72L146.82 620.26L146.43 622.75L143.31 622.25L143.09 625.38L140.84 625.75L138.55 625.74L136.66 626.37L134.76 626.91L132.9 627.61L130.95 627.95L128.99 628.18L127.02 630.51L124.98 628.93L123.08 627.9L121.22 628.1L119.21 629.1L117.47 627.59L115.63 628.57L113.79 628.9L110.95 629.16L111.32 632.87L109.58 634.65L106.66 633.94L104.56 633.49L102.78 635.32L100.55 636.48L98.66 634.64L96.77 633.64L94.6 633.66L92.1899 634.23L91.16 631.21L89.27 630.64L87.26 630.4L85.25 630.17L83.17 630.12L81.91 627.77L79.63 628.29L77.16 629.36L75.88 627.04L73.9399 626.62L71.73 626.93L69.72 626.7L68.3101 624.78L66.79 622.8L64.55 622.89L62.28 623L60.9 620.75L58.8 620.41L57.29 618.65L54.85 619.09L52.14 619.93L50.83 618.38L49.95 616L47.25 617.32L46.12 615.42L44.0601 615.62L42.9399 613.33L40.28 614.57L38.11 614.41L35.96 614.1L33.96 612.81L31.9 612.97L30.38 610.02L28.27 610.51L26.25 610.46L23.9301 612.13L22.41 609.19L20.09 610.83L18.13 610.46L16.3101 609.25L14.33 608.92L12.59 607.27L10.34 608.53L8.43994 607.79L6.18005 609.1L4.42004 607.55L2.48999 606.98L0.410034 607.27L0 607.36V787H1400V552.34H1369.08L1368.95 553.09Z" fill="#B9CED1"/>
</svg>
