<svg width="1400" height="787" viewBox="0 0 1400 787" fill="none" xmlns="http://www.w3.org/2000/svg">
<g clip-path="url(#clip0_1857_485701)">
<path d="M682.31 514.16C682.07 514.68 681.83 515.19 681.59 515.71C681.29 516.7 681.62 517.71 681.38 518.85C681.05 519.74 680.73 520.64 680.4 521.53C680 523.58 680.43 525.68 682 526.01C682.48 526.11 682.98 525.91 683.29 525.8C685.71 524.98 684.21 523.71 685.71 522.66C687.57 522.94 690.42 523.19 692.41 522.87L694.52 522.97C695.39 522.79 695.82 522.04 697.1 522.25C698.14 522.42 698.39 523.14 699.21 523.33C699.98 523.51 700.25 522.76 701.07 522.97C701.5 523.21 701.93 523.45 702.36 523.69C703.73 524.06 705.64 523.96 707 523.74C708.26 523.54 711.15 524.1 712.36 524.36C712.9 524.48 713.77 524.98 714.42 524.62C716.6 523.39 715.68 519.34 715.3 516.94C715.16 516.08 715.52 515.08 715.35 514.05C715.12 512.63 716.07 510.97 715.35 509.77C714.54 508.42 712.98 507.84 711.17 507.71L711.09 508.58L710.87 507.7C709.83 507.66 708.73 507.74 707.62 507.91L706.43 507.81C705.81 507.9 705.19 507.98 704.57 508.07C704.11 508.05 703.64 508.04 703.18 508.02C702.05 508.24 699.69 509.06 698.54 508.23L698.49 508.13C698.58 507.68 698.66 507.24 698.75 506.79C698.65 505.19 698.54 503.59 698.44 502C698.32 501.23 698.49 500.45 699.01 500.3C699.93 500.02 700.86 500.45 701.75 500.55L700.43 499.61L698.29 499.74L696.23 500.38L694.48 500.13C694.62 500.83 694.75 501.52 694.89 502.22C695.07 503.07 694.87 504.1 694.74 504.8C694.47 506.16 695.65 508.74 694.22 509.18C693.52 509.4 688.81 509.33 688.14 509.13C687.24 508.86 686.71 508.33 685.56 508.1C685 507.99 684.3 507.72 683.66 507.61L682.38 508.66L682.03 508.78L681.89 512.43C681.99 512.99 682.47 513.41 682.3 514.18L682.31 514.16ZM686.74 514.31C686.96 513.23 686.54 512.39 687.46 512.04C688.47 511.66 689.46 512.47 690.6 512.25C691.79 512.02 693.22 512.4 694.26 512.25C695.74 512.03 697.27 511.89 698.59 511.68C699.38 511.56 700.15 511.74 700.76 511.47C701.52 511.57 702.27 511.68 703.03 511.78C704.41 511.99 705.88 511.8 707.1 511.99C708.79 512.25 709.92 510.96 711.12 512.3C711.12 513.69 711.24 514.66 711.43 515.75C711.41 516.33 711.4 516.92 711.38 517.5C711.51 518.17 712.1 519.25 711.74 520.18C711.6 520.35 711.47 520.52 711.33 520.7C710.52 520.78 709.94 520.54 709.22 520.44H706.85C706.23 520.29 705.61 520.13 704.99 519.98C704.11 520.08 703.24 520.19 702.36 520.29C699.06 519.62 695.2 519.79 691.84 519.16C690.35 518.88 688.14 519.83 686.43 519.52L685.97 519.06C685.95 517.32 686.46 515.72 686.74 514.32V514.31Z" fill="#B9CED1"/>
<path d="M1396.66 461.28L1394.97 458.66H1392.54L1390.77 461.17L1389.02 458.18L1386.79 460.6L1384.78 460.57L1382.78 460.4L1380.77 460.29L1378.7 458.99L1376.78 460.84L1374.51 458.13L1372.5 458.83L1370.53 459.63L1368.33 458.93L1366.92 462.43L1364.63 461.38L1362.82 462.52L1360.82 462.84L1359 463.8L1357.07 464.37L1354.6 463.45L1352.72 464.29L1351.06 465.64L1349.85 467.91L1347.35 467.31L1346.3 469.72L1343.55 468.82L1342.1 470.38L1340.49 471.62L1338.14 471.7L1336.29 472.62L1334.31 473.38L1334.49 477.05L1332.18 477.34L1329.44 477.21L1327.62 478.26L1326.17 479.74L1326.84 483.37L1323.57 482.97L1322.43 484.71L1321 486.17L1319.95 487.34L1317.96 488.49L1315.97 488.01L1314.22 486.76L1312.86 484.23L1310.11 486.22L1308.8 483.53L1306.4 483.68L1306.07 486.13L1303.99 487.1L1302.31 488.23L1301.98 490.93L1300.43 492.4L1297.63 491.8L1295.92 492.8L1293.83 492.93L1292.51 495.15L1290.56 495.81L1288.58 496.42L1286.61 497.28L1284.37 495.44L1282.41 496.42L1280.33 497.67L1278.34 496.34L1276.52 494.45L1274.33 495.65H1272.27L1270.13 495.88L1268.7 493.19L1266.69 492.95L1264.83 492.16L1262.05 494.29L1261.06 490.76L1258.51 491.99L1257.1 489.85L1255.39 491.29V492.53L1252.02 493.58L1252.51 495.86L1252.38 498L1252.16 500.18L1251.35 502.11L1248.59 502.81L1246.82 503.99L1245.78 505.66L1245.17 507.74L1245.31 510.68L1241.7 509.91L1240.4 511.41L1239.42 513.38L1238.49 515.6L1236.24 517.21L1233.82 515.76L1232.14 514.2L1230.51 512.55L1227.89 511.78L1228.19 514.28L1229.6 516.28L1229.35 518.35L1228.98 520.4L1227.26 521.97L1227.1 524.08L1224.28 524.72L1225.5 527.96L1223.94 529.4L1220.93 529.1L1219.84 530.8L1218.18 531.79L1216.01 531.51L1214.46 532.74L1212.75 534.16L1210.73 533.79L1208.75 534.26L1206.79 533.88L1205.27 531.89L1203.39 531.71L1201.1 532.13L1199.65 530.71L1198.54 529.02L1196.41 528.18L1195.59 530.62L1193.16 530.94L1192.39 533.09L1191.26 534.84H1188.52L1187.04 536.21L1186.85 538.99L1184.32 539.21L1183.02 540.77L1180.58 541.09L1179.31 542.69L1178.45 544.74L1177.98 547.21L1174.86 546.78L1174.38 547.42L1172.76 547.21V544.85L1171.41 543.05L1168.37 544.89L1167.45 541.17L1165.25 541.61L1163.44 544.18L1161.22 542.42L1158.9 542.01L1158.45 545.83L1156.82 546.73L1154.05 545.81L1152.7 547.35L1150.66 547.73L1149.6 549.85L1147.3 549.6L1146.14 552.08L1144.01 552.13L1141.62 550.6L1140 552.56L1137.83 550.93L1135.96 551.65L1134.04 552.63L1132.08 551.16L1130.05 553.95L1128.14 552.12L1126.15 552.51L1124.11 553.55L1122.25 551.77L1120.16 553.68L1118.21 553.59L1116.28 553.38L1114.36 551.82L1112.36 551.15L1110.3 550.56L1108.65 553.43L1106.69 553.32L1104.47 552.35L1103.05 554.57L1101.48 555.78L1098.53 553.74L1098.13 557.25L1096.11 557.48L1093.64 557.44L1093.45 560.07L1090.84 560.36L1089.18 561.73L1089.55 564.82L1088.27 562.18L1086.15 561.79L1084.67 560.48L1083.53 558.69L1081.85 557.68L1079.95 556.98L1078.85 555.13L1076.12 554.2L1075.1 556.64L1073.53 557.8L1072.29 559L1070.95 560.07L1070.02 561.91L1069 564.24L1066.73 563.92H1064.72L1062.91 564.68L1061.19 566.7L1059.13 566.5L1057.08 564.95L1055.1 566.43L1053.23 563.94L1051.25 564.58L1049.06 566.46L1047.31 564.62L1045.09 565.85L1043.4 564.06H1041.4L1039.61 562.18L1037.59 561.96L1035.55 562.11L1033.52 563.07L1031.59 564.6L1029.62 564.16L1027.82 565.29L1025.62 564.03L1023.43 563.67L1021.53 564.5L1020.62 567.17L1018.5 567.35L1016.12 567.68L1016.69 570.8L1015.25 572L1013.6 573.11L1012.35 571.71L1010.95 570.02L1008.04 571.2L1006.34 570.17L1005.3 567.48L1003.24 567.1L1000.56 568.74L999.44 565.49L997.03 566.66L994.97 566.76L993.37 564.32L991.37 563.76H989.29L987.12 566.23L985.2 565.24L983.23 566.13L981.22 564.43L979.26 565.14L977.24 564.79L975.24 564.86L973.44 566.52L971.57 567.35L969.28 565.45L967.59 567.37L965.23 565.46L963.17 565.34L961.69 568.19L959.35 566.62L957.83 569.15L955.5 567.66L953.94 569.96L951.64 568.6L950.05 570.86L947.86 569.99L946 570.9L944.08 571.53L941.89 570.35L940.1 571.96L937.96 570.73L936.04 571.43L934.02 570.83L932.09 571.95L930.1 573.58L928.08 573.03L926.11 572.03L924.1 572.13L922.4 569.73L920 572.28L918.27 570.59L916.04 571.28L914.26 570.12L912.2 569.96L910.92 567.6L908.85 567.48L906.82 567.16L905.63 565.05L903.07 565.71L901.37 564.65L899.65 563.62L898.74 561.36L897.14 560.23L894.36 560.71L893.55 558.47L892.39 556.77L890.02 556.51L889.7 553.91L887.75 553.12L885.1 552.96L884.86 550.43L882.28 550.08L881.71 548.56L880.8 550.09L878.79 551L877.29 552.93L874.8 552.48L872.4 550.93L870.63 552.97L868.54 553.65L866.57 551.82L864.65 551.08L862.76 550.41L860.73 550.34L858.34 551.28L856.75 549.53L854.13 550.71L851.9 550.61L850.97 547.49L848.5 547.93L847.15 545.96L845.19 545.4L843.16 544.98L841.46 543.91L840.26 541.81L838.55 540.75L835.9 541.59L834.96 538.97L832.62 539.18L830.49 538.97L829.08 537.3L827.71 535.56L825.64 535.23L824.06 533.91L821.02 535.55L820.47 532.14L818.31 531.99L816.36 531.41L814.33 530.99L812.42 530.33L810.33 530.05L808.28 529.67L808 525.71L804.86 527.55L804.19 524.38L801.55 525.21L799.6 524.64L798.05 523.26L797.18 520.5L793.91 522.6L792.99 519.93L791.7 518.02L789.51 517.94L787.1 518.29L785.69 516.62L784.55 514.41L782.36 514.32L780.73 513.1L777.98 514.15L776.91 511.78L774.63 511.88L772.88 510.89L771.71 508.73L768.73 510.25L768.26 506.67L765.7 507.22L763.37 507.31L761.6 506.27L759.55 505.83L757.7 504.98L755.87 504.1L754.55 501.95L752.09 502.66L750.77 500.28L749.12 498.62L746.49 500.26L744.92 498.11L742.87 497.73L740.78 497.55L738.6 498.36L736.64 497.02L734.56 498.59L732.57 498.85L730.42 497.68L728.7 499.77L726.21 497.84L725.68 498.3C726.12 498.9 726.57 499.5 727 500.11C727.63 501.01 728.52 501.63 729.17 502.48C730.85 504.7 732.13 507.16 733.76 509.39C735.1 511.01 736.44 512.62 737.78 514.24C738.46 515.2 739.27 516.19 739.84 517.18C740.03 517.63 740.22 518.07 740.41 518.52C740.94 519.09 741.48 519.65 742.01 520.22C742.39 520.96 742.77 521.7 743.14 522.44C743.71 523.06 744.27 523.68 744.84 524.3C745.38 525.06 746.04 525.85 746.49 526.62C746.68 527.03 746.87 527.44 747.06 527.86C747.49 528.32 747.92 528.79 748.35 529.25C748.47 529.82 748.59 530.38 748.71 530.95C748.97 531.36 749.23 531.77 749.48 532.19C749.89 533.11 750.03 534 750.46 534.82C751.74 537.27 753.5 539.34 755.1 541.47C755.89 542.52 756.68 543.57 757.47 544.61C757.98 545.14 760.39 546.78 759.64 548.01L758.97 548.58C758.38 548.79 757.87 548.38 757.22 548.48C756.51 548.59 755.59 548.82 754.8 548.63C753.84 548.23 752.88 547.84 751.91 547.44C751.27 547.29 750.64 547.13 750 546.98C749.06 546.52 748.11 546.05 747.17 545.59C745.95 545.07 744.78 544.91 743.35 544.51C742.27 543.89 741.18 543.27 740.1 542.65C739.46 542.46 738.83 542.27 738.19 542.08C737.44 541.78 736.76 541.31 735.92 541.05C735.08 540.84 734.24 540.64 733.39 540.43C732.84 540.14 732.29 539.85 731.74 539.55C731.1 539.38 730.47 539.21 729.83 539.03C729.21 538.69 728.59 538.34 727.97 538C727.32 537.81 726.66 537.62 726.01 537.43C724.92 536.87 723.93 536.07 722.5 535.78C721.88 535.81 721.26 535.85 720.64 535.88C719.49 535.71 716.9 534.84 715.79 535.06C715.46 535.16 715.14 535.27 714.81 535.37C713.49 535.64 712.57 534.69 711.3 534.85C710.42 535.04 709.55 535.23 708.67 535.42C708.19 535.39 707.71 535.35 707.23 535.32C706.89 535.39 706.54 535.46 706.2 535.53C705.77 535.34 705.34 535.15 704.91 534.96L702.69 534.65C700.7 534.62 698.7 534.58 696.71 534.55C695.33 534.32 693.61 534.1 692.38 533.88C690.77 533.93 689.15 533.98 687.53 534.03C686.98 533.91 686.43 533.79 685.88 533.67C684.88 533.58 683.45 534.07 682.58 534.29C681.77 534.49 680.95 534.32 680 534.5C679.38 534.71 678.76 534.91 678.14 535.12C676.29 535.56 674.83 535.53 672.99 536C671.82 536.38 670.65 536.76 669.48 537.13C668.69 537.49 667.9 537.85 667.11 538.21C666.8 538.26 666.66 538.06 666.49 537.95L666.39 537.8C666.41 536.31 667.19 535.73 667.47 534.66C667.52 534.13 667.57 533.59 667.62 533.06C668.03 531.94 668.44 530.83 668.86 529.71C669.27 528.41 669.63 527.01 669.89 525.79C669.96 524.86 670.03 523.93 670.1 523.01C670.32 521.87 670.81 520.55 671.08 519.25C671.23 518.2 671.39 517.15 671.54 516.11C671.97 515.24 672.39 514.38 672.82 513.51H671.09L669.21 514.4L668.17 514.76C668.02 515.3 667.88 515.83 667.73 516.37C667.75 517.11 667.76 517.85 667.78 518.59C666.51 522.89 665.03 527.3 663.76 531.53C663.61 532.18 663.45 532.84 663.3 533.49V535.45C663.04 536.68 662.04 537.32 661.6 538.39C661.46 538.85 661.33 539.32 661.19 539.78C660.91 540.16 658.01 542.04 657.48 542.25C656.78 542.42 656.07 542.59 655.37 542.77C653.26 543.67 651.45 545.17 649.24 546.07C648.52 546.36 647.69 545.96 646.87 546.17C646.3 546.38 645.74 546.58 645.17 546.79C644.36 546.97 643.7 546.93 643 547.15C642.01 547.47 640.8 548.42 639.6 548.23C639.46 548.09 639.32 547.96 639.19 547.82C639.15 546.18 641.09 544.32 641.82 543.23C642.86 541.68 643.4 540.01 644.35 538.33C645.29 536.65 646.72 535.09 647.7 533.43C647.97 532.79 648.25 532.16 648.52 531.52C649.28 530.24 650.42 528.96 650.94 527.45C651.84 524.86 652.85 522.67 653.83 520.34C654.04 519.67 654.24 519 654.45 518.33C656.05 515.69 658.49 513.91 660.22 511.47C660.3 511.3 660.38 511.13 660.46 510.96L660.41 510.75L658.84 509.51L656.47 509.38L655.18 507.77L653.72 506.35L653.1 503.45L650.18 504.49L648.77 502.86H646.54L644.34 502.92L643.57 499.56L641.49 499.29L639.24 499.6L637.58 498.16L635.61 497.66L633.72 496.84L631.79 496.1L629.69 496.22L627.38 498.01L625.75 494.93L623.55 496.6L621.67 494.3L619.61 494.25L617.55 494.35L615.51 494.84L613.58 496.59L611.57 496.67L609.41 494.6L607.42 494.89L605.59 497.5L603.51 496.53L601.54 497.16L599.47 496.32L597.41 495.72L595.48 496.94L593.52 497.82L591.46 497.15L589.56 498.85L587.53 498.69L585.57 499.51L583.5 498.71L581.37 497.17L579.36 497.33L577.32 497.12L575.3 497.14L573.45 499.24L571.45 499.54L569.25 497.43L567.53 500.92L565.36 499.26L563.48 500.81L561.23 498.39L559.38 500.19L557.2 498.71L555.21 499.14L553.48 501.92L551.46 501.97L549.48 502.34L547.3 501.08L545.41 502.17L543.18 500.67L541.3 501.84L539.46 503.25L537.27 502.15L535.13 501.46L533.54 504.33H531.51L529.47 504.29L527.5 504.71L525.17 503.13L523.62 505.79L521.76 506.74L519.53 505.71L517.78 507.33L515.73 507.29L513.66 507.16L511.36 505.57L509.6 507.26L507.65 507.84L505.55 507.26L503.53 507.18L501.73 509.44L499.6 508.12L497.66 509.51L495.63 509.56L493.6 507.5L491.63 507.27L489.53 509.26L487.52 508.95L485.45 508.97L483.64 507.11L481.28 509.12L479.57 506.87L477.74 505.34L475.4 507.21L473.4 506.91L471.52 505.26L469.45 505.29L467.38 506.14L465.37 506.43L463.16 504.74L461.36 506.72L459.08 506.03L457.23 507.09L455.73 508.69L453.13 507.88L451.39 508.88L450.3 511.15L447.67 510.18L446.33 512L444.95 514.33L442.48 512.17L440.62 514.14L438.9 512.53L436.42 513.19L434.42 512.31L433.69 510.11L431.97 509.2L430.57 507.13L428.59 508.69L427.26 509.83L424.25 508.14L423.15 509.97L422.52 512.38L419.56 510.98L419.03 514.51L416.78 515.28L414.51 514.69L412.65 513.36L410.97 512.14L409.44 510.76L407.99 509.25L405.68 509.41L403.16 510.23L401.36 509.77L400.03 507.11L397.97 508.57L395.72 506.98L393.84 507.73L391.97 508.4L390.34 509.33L389.41 511.18L387.89 512.13L385.9 512.34L383.98 512.38L381.95 514.71L379.98 513.29L377.94 513.03L375.61 513.66L374.28 511.09L371.95 511.62L369.92 511.28L367.87 511.1L366.1 510.15L364.58 507.87L362.36 508.84L360.51 507.24L358.48 506.34L356.44 508.82L354.39 507.81L352.36 507.93L350.39 508.46L348.72 510.31L346.81 510.76L344.1 508.4L342.5 510.18L340.98 511.96L339.15 512.75L336.4 511.23L335.53 514.39L333.32 514.33L330.62 513.29L329.49 515.63L327.81 516.78L325.65 516.97L324.65 519.43L322.1 518.9L321.26 521.6L318.21 520.11L317.29 522.59L316.08 524.52L312.99 523L311.08 523.65L309.49 524.88L308.76 527.58L306.24 527.22L305.07 529.13L303.37 530.15L301.08 530.26L299.65 531.7L297.4 531.97V535.37L294.62 534.95L294.39 537.84L291.28 537.19L290.97 539.86L289.37 541.01L287.21 541.8L286.71 544.33L283.26 543.65L282.48 545.91L280.07 545.93L279.16 548.5L277.22 549.23L275.04 548.76L273.17 550.33L271.04 551.1L268.94 550.5L266.73 551.01L265.23 547.69L262.82 549.19L261.03 547.8L258.84 548.09L256.77 547.91L255.3 545.1L252.62 547.86L250.82 546.4L248.96 544.26L246.78 544.94L244.59 544.24L242.34 544.33L240.73 546.62L238.49 546.7L237.1 548.94L234.51 549.09L232.74 550.56L230.82 551.18L228.8 551.37L226.78 551.15L224.57 551.58L223.12 549.43L221.56 548.02L219.09 548.64L216.76 548.8L214.84 548.13L213.65 545.91L211.85 544.93L210.26 543.41L208.15 543.51L205.81 545.4L204.28 542.36L202.26 542.49L200.3 543.96L198.36 543.62L196.49 544.16L194.3 543.08L192.4 543.75L190.44 544.19L188.63 545.07L186.37 545.03L184.8 546.41L184.1 547.57L182.97 546.79L180.58 546.43L179.31 545.25L178.56 542.73L176.07 543.84L174.8 541.09L172.54 542.77H168.77L166.72 540.53L164.86 541.92L162.7 540.72L161.27 543.95L159.33 543.98L156.94 542.36L154.91 542.49L153.52 545.18L151.22 544.25L149.22 544.5L147.59 546.22L145.72 546.98L143.67 547.05L141.7 547.44L139.69 547.65L138 549.14L136.14 549.97L134.13 550.21L131.69 548.71L130.27 551.29L127.76 549.55L126.04 550.92L124.18 551.73L122.08 551.6L120.38 553.03L118.16 552.41L116.31 553.28L114.71 555.14L112.44 554.31L110.73 555.71L108.85 556.43L106.98 557.21L104.47 555.44L102.39 555.38L100.67 556.74L98.86 557.74L97.1801 559.26L95.22 559.66L92.97 558.91L90.8199 558.58L89.0699 559.84L87.1801 560.53L85.49 562.3L83.33 562.14L81.28 562.45L79.09 561.91L76.95 561.32L75.15 563.7L73.04 563.5L70.95 564.05L68.96 561.98L66.65 564.18L65.11 561.14L62.99 561.41L61.2 560.5H58.89L56.58 560.06L55.63 557.89L54.03 556.53L53.16 554.61L50.97 553.63L50.3101 551.64L50.8199 548.69L47.64 548.77L47.33 546.05L44.76 546.19L43.71 543.25L41.2 543.98L38.92 544.76L37.11 543.02L34.88 543.9L33.01 542.22L31.1899 541.34L28.9 542.87L26.99 542.32L25.27 541.07L23.72 539.35L21.21 540.93L19.21 540.68L17.11 540.7L16.25 537.17L14.09 537.41L12.28 536.65L10.49 535.83L8.5 535.52L6.60999 534.96L5.31006 532.86L2.63 534.36L1.40002 532.05L-0.0300293 532.13V787H1400V461.49L1398.75 460.12L1396.66 461.28V461.28Z" fill="#B9CED1"/>
<path d="M654.42 518.38C654.21 519.05 654.01 519.72 653.8 520.39C652.82 522.72 651.82 524.92 650.91 527.5C650.38 529.01 649.25 530.29 648.49 531.57C648.22 532.21 647.94 532.84 647.67 533.48C646.69 535.14 645.26 536.69 644.32 538.38C643.38 540.06 642.83 541.73 641.79 543.28C641.06 544.37 639.12 546.23 639.16 547.87C639.3 548.01 639.43 548.14 639.57 548.28C640.77 548.47 641.98 547.52 642.97 547.2C643.67 546.98 644.33 547.02 645.14 546.84C645.71 546.63 646.27 546.43 646.84 546.22C647.66 546 648.49 546.41 649.21 546.12C651.42 545.22 653.23 543.72 655.34 542.82C656.04 542.65 656.75 542.48 657.45 542.3C657.98 542.09 660.89 540.2 661.16 539.83C661.3 539.37 661.44 538.9 661.57 538.44C662.01 537.37 663.01 536.73 663.27 535.5V533.54C663.42 532.89 663.58 532.23 663.73 531.58C665 527.35 666.48 522.94 667.75 518.64C667.73 517.9 667.72 517.16 667.7 516.42C667.85 515.88 667.99 515.35 668.14 514.81L667.18 515.14L664.96 514.82L664.53 512.18L660.92 513.22L660.41 511C660.33 511.17 660.25 511.34 660.17 511.51C658.44 513.95 655.99 515.73 654.4 518.37L654.42 518.38Z" fill="white"/>
<path d="M671.07 519.31C670.8 520.61 670.31 521.93 670.09 523.07C670.02 524 669.95 524.93 669.88 525.85C669.62 527.06 669.26 528.47 668.85 529.77C668.44 530.89 668.03 532 667.61 533.12C667.56 533.65 667.51 534.19 667.46 534.72C667.18 535.79 666.4 536.38 666.38 537.86L666.48 538.01C666.64 538.12 666.78 538.32 667.1 538.27C667.89 537.91 668.68 537.55 669.47 537.19C670.64 536.81 671.81 536.43 672.98 536.06C674.83 535.6 676.28 535.63 678.13 535.18C678.75 534.97 679.37 534.77 679.99 534.56C680.94 534.39 681.76 534.56 682.57 534.35C683.44 534.14 684.87 533.64 685.87 533.73C686.42 533.85 686.97 533.97 687.52 534.09C689.13 534.04 690.75 533.99 692.37 533.94C693.6 534.16 695.32 534.38 696.7 534.61C698.69 534.64 700.69 534.68 702.68 534.71L704.9 535.02C705.33 535.21 705.76 535.4 706.19 535.59C706.53 535.52 706.88 535.45 707.22 535.38C707.7 535.41 708.18 535.45 708.66 535.48C709.54 535.29 710.41 535.1 711.29 534.91C712.56 534.75 713.48 535.7 714.8 535.43C715.13 535.33 715.45 535.22 715.78 535.12C716.89 534.91 719.48 535.77 720.63 535.94C721.25 535.91 721.87 535.87 722.49 535.84C723.91 536.13 724.9 536.93 726 537.49C726.65 537.68 727.31 537.87 727.96 538.06C728.58 538.4 729.2 538.75 729.82 539.09C730.46 539.26 731.09 539.43 731.73 539.61C732.28 539.9 732.83 540.19 733.38 540.49C734.22 540.7 735.06 540.9 735.91 541.11C736.75 541.37 737.43 541.84 738.18 542.14C738.82 542.33 739.45 542.52 740.09 542.71C741.17 543.33 742.26 543.95 743.34 544.57C744.76 544.98 745.94 545.13 747.16 545.65C748.1 546.11 749.05 546.58 749.99 547.04C750.63 547.19 751.26 547.35 751.9 547.5C752.86 547.9 753.82 548.29 754.79 548.69C755.58 548.87 756.51 548.64 757.21 548.54C757.87 548.44 758.37 548.86 758.96 548.64L759.63 548.07C760.39 546.84 757.97 545.2 757.46 544.67C756.67 543.62 755.88 542.57 755.09 541.53C753.49 539.4 751.73 537.33 750.45 534.88C750.02 534.06 749.88 533.17 749.47 532.25C749.21 531.84 748.95 531.43 748.7 531.01C748.58 530.44 748.46 529.88 748.34 529.31C747.91 528.85 747.48 528.38 747.05 527.92C746.86 527.51 746.67 527.1 746.48 526.68C746.04 525.91 745.37 525.12 744.83 524.36C744.26 523.74 743.7 523.12 743.13 522.5C742.75 521.76 742.37 521.02 742 520.28C741.47 519.71 740.93 519.15 740.4 518.58C740.21 518.13 740.02 517.69 739.83 517.24C739.26 516.26 738.45 515.26 737.77 514.3C736.43 512.68 735.09 511.07 733.75 509.45C732.12 507.22 730.84 504.77 729.16 502.54C728.52 501.69 727.63 501.06 726.99 500.17C726.56 499.56 726.12 498.96 725.67 498.36L724.47 499.41L722.55 500.1L719.91 499.3L718.11 500.52L716.34 501.74L715.95 504.67L714.45 505.94L711.37 505.89L711.2 507.69C713.02 507.82 714.57 508.39 715.38 509.75C716.1 510.95 715.15 512.61 715.38 514.03C715.54 515.06 715.19 516.06 715.33 516.92C715.71 519.32 716.64 523.37 714.45 524.6C713.8 524.97 712.93 524.46 712.39 524.34C711.18 524.08 708.29 523.52 707.03 523.72C705.67 523.93 703.76 524.03 702.39 523.67C701.96 523.43 701.53 523.19 701.1 522.95C700.28 522.74 700.02 523.49 699.24 523.31C698.42 523.12 698.16 522.4 697.13 522.23C695.85 522.02 695.42 522.77 694.55 522.95L692.44 522.85C690.44 523.18 687.6 522.92 685.74 522.64C684.24 523.69 685.74 524.97 683.32 525.78C683.01 525.89 682.52 526.09 682.03 525.99C680.47 525.65 680.03 523.56 680.43 521.51C680.76 520.62 681.08 519.72 681.41 518.83C681.65 517.69 681.31 516.68 681.62 515.69C681.86 515.17 682.1 514.66 682.34 514.14C682.51 513.37 682.03 512.95 681.93 512.39L682.07 508.74L680.43 509.3L679.08 511L676.42 510.55L674.29 510.83L673.35 513.56H672.85C672.42 514.43 672 515.29 671.57 516.16C671.42 517.21 671.26 518.26 671.11 519.3L671.07 519.31Z" fill="white"/>
<path d="M699.01 500.29C698.5 500.45 698.33 501.22 698.44 501.99C698.54 503.59 698.65 505.19 698.75 506.78C698.66 507.23 698.58 507.67 698.49 508.12L698.54 508.22C699.69 509.05 702.05 508.23 703.18 508.01C703.64 508.03 704.11 508.04 704.57 508.06C705.19 507.97 705.81 507.89 706.43 507.8L707.62 507.9C708.72 507.73 709.83 507.64 710.87 507.69L710.56 506.46L709.24 504.94L708.85 502.2L706.29 502.17H704.14L702.38 500.96L701.76 500.52C700.87 500.43 699.94 499.99 699.02 500.27L699.01 500.29Z" fill="white"/>
<path d="M691.85 519.16C695.21 519.79 699.07 519.62 702.37 520.29C703.25 520.19 704.12 520.08 705 519.98C705.62 520.13 706.24 520.29 706.86 520.44H709.23C709.96 520.54 710.54 520.77 711.34 520.7C711.48 520.53 711.61 520.36 711.75 520.18C712.11 519.25 711.52 518.17 711.39 517.5C711.41 516.92 711.42 516.33 711.44 515.75C711.26 514.66 711.13 513.68 711.13 512.3C709.93 510.96 708.8 512.25 707.11 511.99C705.88 511.8 704.41 511.99 703.04 511.78C702.28 511.68 701.53 511.57 700.77 511.47C700.16 511.74 699.39 511.55 698.6 511.68C697.28 511.89 695.75 512.03 694.27 512.25C693.23 512.4 691.8 512.02 690.61 512.25C689.47 512.47 688.47 511.66 687.47 512.04C686.55 512.38 686.97 513.23 686.75 514.31C686.47 515.71 685.96 517.31 685.98 519.05L686.44 519.51C688.15 519.82 690.36 518.87 691.85 519.15V519.16Z" fill="white"/>
<path d="M688.14 509.11C688.81 509.31 693.52 509.38 694.22 509.16C695.64 508.72 694.46 506.14 694.74 504.78C694.88 504.08 695.07 503.06 694.89 502.2C694.75 501.5 694.62 500.81 694.48 500.11L694.05 500.05L692.02 500.68L690.21 501.86L689.09 504.2L686.08 503L684.89 505.03L683.96 507.35L683.67 507.59C684.31 507.7 685.01 507.97 685.57 508.08C686.72 508.31 687.25 508.84 688.15 509.11H688.14Z" fill="white"/>
</g>
<defs>
<clipPath id="clip0_1857_485701">
<rect width="1400" height="787" fill="white" transform="translate(1400 787) rotate(-180)"/>
</clipPath>
</defs>
</svg>
