<svg width="1400" height="787" viewBox="0 0 1400 787" fill="none" xmlns="http://www.w3.org/2000/svg">
<g clip-path="url(#clip0_1857_485710)">
<path d="M689.73 453.74C689.39 454.57 690.07 456.97 690.36 457.99C690.43 458.22 690.48 458.41 690.52 458.61L690.48 459.88L690.43 461.09C690.52 461.46 690.83 462.03 691.08 462.5C691.21 462.74 691.33 462.96 691.4 463.11C691.48 463.28 691.51 463.44 691.54 463.59C691.58 463.75 691.6 463.88 691.68 464C691.83 464.22 692.08 464.32 692.37 464.44C692.55 464.51 692.74 464.59 692.91 464.7C693.25 464.9 693.51 464.92 693.87 464.95C694.11 464.97 694.38 464.99 694.64 465.07C694.68 465.04 694.73 464.88 694.76 464.79C694.84 464.53 694.96 464.14 695.42 464.14H695.43C695.84 464.23 696.26 464.3 696.68 464.36C697.14 464.44 697.59 464.51 697.93 464.59H699.07C699.47 464.7 699.95 464.87 700.45 465.06C701.05 465.28 701.67 465.51 702.16 465.61C702.41 465.66 702.63 465.73 702.85 465.79C703.13 465.88 703.37 465.95 703.59 465.95C703.66 465.95 703.73 465.95 703.86 465.91H704.75L706.14 465.69L706.57 465.27C706.62 465.18 706.63 465.08 706.65 464.97C706.67 464.82 706.7 464.64 706.82 464.47C707.02 464.17 707.35 463.93 707.65 463.73C707.73 463.67 707.81 463.62 707.89 463.56C708.53 463.08 709.17 461.99 709.42 461.22C709.56 460.79 709.48 460.44 709.39 460.04C709.29 459.62 709.19 459.15 709.34 458.53C709.44 458.12 709.6 457.74 709.75 457.38C710.08 456.6 710.38 455.85 710.2 454.74C710.17 454.72 710.14 454.69 710.11 454.67C709.96 454.55 709.82 454.45 709.64 454.45H709.51C709.31 454.46 709.2 454.3 708.91 453.86C708.78 453.67 708.54 453.31 708.48 453.26C708.14 453.14 707.81 452.87 707.46 452.58C707.15 452.33 706.83 452.06 706.48 451.93C706.33 451.93 706.11 452.12 705.91 452.3C705.65 452.53 705.37 452.77 704.98 452.77H703.42C703.32 452.75 703.23 452.72 703.13 452.69C702.94 452.63 702.77 452.58 702.53 452.56C702.07 452.76 700.75 452.91 700.01 452.91C699.75 452.91 699.55 452.89 699.41 452.86C699.3 452.84 699.19 452.8 699.07 452.77C698.8 452.69 698.49 452.6 698.17 452.6C698.05 452.6 697.94 452.61 697.84 452.64C697.71 452.67 697.5 452.69 697.28 452.71C696.98 452.74 696.6 452.77 696.41 452.85C696.33 452.88 696.23 452.97 696.13 453.06C695.98 453.19 695.81 453.34 695.61 453.4C695.54 453.42 695.47 453.43 695.4 453.43C695 453.43 694.78 453.09 694.59 452.8C694.43 452.55 694.31 452.38 694.09 452.38H694.06L693.98 452.4H693.94C693.7 452.4 693.44 452.2 693.03 451.88C692.84 451.73 692.53 451.49 692.49 451.46C692.32 451.53 692.01 451.56 691.4 451.56C691.15 451.56 690.19 451.54 690 451.54C689.86 451.54 689.74 451.54 689.66 451.54C689.66 451.66 689.71 451.87 689.74 452.04C689.84 452.58 689.97 453.25 689.75 453.78L689.73 453.74ZM694.09 459.93C694.2 459.47 694.19 458.96 694.18 458.47C694.16 457.6 694.14 456.7 694.9 456.21C695.28 455.97 695.74 455.93 696.15 455.93C696.29 455.93 696.44 455.93 696.59 455.93C696.74 455.93 696.88 455.93 697.03 455.93C697.37 455.93 697.62 455.9 697.83 455.85C698.21 455.75 698.51 455.71 698.81 455.67C699.08 455.64 699.36 455.6 699.71 455.52C699.9 455.47 700.08 455.47 700.21 455.47H700.56C700.75 455.47 700.86 455.45 700.94 455.4L701.01 455.36L702.64 455.44L702.71 455.41L702.78 455.5C702.78 455.5 702.88 455.48 702.94 455.47C703.02 455.45 703.12 455.43 703.21 455.43C703.4 455.43 703.55 455.53 703.62 455.69C703.7 455.87 703.72 456.04 703.74 456.2C703.76 456.35 703.78 456.49 703.84 456.59C703.9 456.69 703.98 456.78 704.07 456.89C704.38 457.25 704.79 457.74 704.57 458.57C704.43 459.07 704.16 459.56 703.92 460C703.84 460.14 703.77 460.27 703.7 460.4C703.64 460.52 703.59 460.65 703.55 460.78C703.41 461.16 703.26 461.59 702.87 461.72C702.67 461.89 702.43 461.97 702.15 461.97C701.85 461.97 701.53 461.87 701.23 461.78C700.93 461.69 700.63 461.6 700.35 461.6C700.27 461.6 700.2 461.6 700.13 461.62L699.52 461.75C699.22 461.81 698.91 461.88 698.59 461.94L697.43 461.86C697.18 461.92 696.97 461.94 696.75 461.94C696.47 461.94 696.22 461.89 695.93 461.84C695.72 461.8 695.49 461.76 695.19 461.72H695.06L694.99 461.6C694.84 461.36 694.68 461.15 694.56 461.03L694.48 460.95V460.84C694.48 460.65 694.44 460.62 694.34 460.55C694.22 460.46 693.99 460.3 694.09 459.91V459.93Z" fill="#B9CED1"/>
<path d="M1397.06 366.66L1395.41 367.81L1393.53 368.97L1391.49 367.41L1389.44 368.08L1387.45 367.65L1385.15 367.51L1384.45 366.78L1383.97 367.61L1383.45 369.68L1380.81 370.72V373.04L1378.71 373.26L1377.57 373.73L1375.53 373.25L1373.43 372.74L1371.47 374.6L1369.36 374L1367.31 374.21L1365.62 375.84L1363.83 376.76L1361.36 375.88L1359.13 375.97L1357.87 378.08L1356.31 379.42L1355.05 381.13L1353.06 381.76L1352.03 383.63L1349.53 383.83L1349.71 386.79L1346.09 386.25L1344.98 388.02L1344.44 390.14L1342.43 391.32L1342.29 393.58L1342.48 395.86L1340.57 397.28L1341.54 399.65L1340.72 401.61L1338.64 403.2L1338.91 405.55L1336.91 406.67L1336.84 409.88L1333.51 407.93L1331.95 409.22L1330 409.53L1328.18 411.64L1326.06 411.1L1324.01 411.2L1322.07 411.88L1320.24 412.6L1318.18 412.67L1317.04 414.27L1315.11 416.24L1313.26 414.26L1312.82 412.09L1310.61 412.59L1308.84 410.72L1306.73 410.95L1304.71 411.53L1302.31 410.63L1300.68 412.53L1298.81 413.47L1296.53 413.31L1295.21 415.58L1293.37 416.69L1290.64 414.71L1289.03 416.61L1286.84 415.92L1285.11 418.24L1282.92 417.1L1280.95 418.31L1278.85 417.12L1276.83 417.99L1274.78 416.04L1272.72 418.36L1270.66 419.06L1268.62 418.89L1266.61 416.05L1264.55 416.12L1262.52 418.45L1260.51 419.07H1258.5L1256.41 418.24L1254.49 419.25L1252.13 417.35L1250.03 417.58L1248.53 420.04L1246.06 419.04L1244.93 421.74L1242.67 421.63L1240.56 422.18L1239.79 424.85L1236.74 424.09L1235.76 426.33L1233.63 426.96L1232.44 428.93L1229.96 428.96L1229 431.52L1226.36 430.92L1224.94 433.21L1222.65 432.91L1220.47 431.34L1218.55 431.63L1216.75 430.96L1215.02 430.43L1212.89 430.4L1212.34 428.32L1210.02 427.31L1208.26 428.85L1205.98 429.01L1205.48 431.88L1202.32 430.71L1201.15 432.56L1200.35 434.98L1197.69 434.57L1196.51 436.41L1194.96 437.69L1193.04 438.4L1190.81 438.64L1190.38 441.61L1188.65 442.61L1186.65 443.52L1184.49 444.48L1184.57 446.9L1183.07 448.89L1184.69 450.22L1185.81 451.73L1187.28 453.49L1186.06 455.95L1185.65 458.74L1183 459.33L1181.23 460.35L1179.04 460.61L1178.17 463.28L1176.29 464.18L1173.3 462.23L1172.2 465.08L1170.02 464.92L1167.99 465.1L1166.4 467.55L1164.25 467.33L1162.12 466.73L1160.09 466.87L1158.05 467.38L1155.96 467.86L1154.13 465.17L1151.77 467.77L1150.28 464.45L1148.31 464.26L1146.09 464.83L1144.43 463.47L1142.89 462L1140.47 462.6L1137.85 463.24L1137.07 460.46L1135.57 459.31L1132.74 460.23L1131.29 459.07L1130.42 456.75L1128.99 455.02L1126.67 455.96L1124.83 455.85L1123.17 456.81L1121.45 457.02L1119.11 456.79L1116.88 457.8L1117.55 460.53L1115.67 459.11L1116.76 455.96L1114.64 454.89L1113.61 452.66L1110.56 453.55L1109.04 452L1107.03 451.5L1105.01 451.12L1103 450.22L1100.86 450.12L1098.72 450.31H1096.48L1095.14 452.88L1092.75 452.61L1092.02 455.51L1090.23 456.36L1087.96 456.69L1086.88 458.57L1083.9 458.41L1084.29 461.67L1082.78 463.03L1079.99 463.38L1079.87 465.92L1078.14 467.19L1077.18 469.01L1076 470.67L1073.22 471.28L1072.29 473.15L1071.21 474.91L1069.6 476.36L1070.78 479.42L1068.11 480.27L1067.72 482.4L1067.18 484.43L1066.14 486.2L1064.12 487.52L1064.03 489.75L1063.19 491.63L1062.37 493.51L1061.58 494.48L1060.38 492.99L1057.87 492.06L1056.61 490.58L1055.82 488.49L1053.83 487.74L1052.25 486.43L1050.11 486.24L1048.17 485.82L1046.3 485.2L1044.64 482.23L1042.36 484.44L1040.3 483.68L1038.14 482.21L1036.05 482.7L1034.13 484.77L1031.84 482.74L1030.04 485.78L1027.76 483.45L1025.76 484.41L1023.7 484.69L1021.56 486.14L1019.36 486.37L1017.83 482.84L1015.52 485.3L1013.68 484.54L1011.79 484.46L1009.94 484.73L1008.08 485.45L1006.94 487.23L1004.77 487.76L1003.15 489.09L1002.78 491.37L1000.33 492.22L1000.99 495.11L998.45 495.95L997.33 497.69L995.41 498.69L994.9 501.28L992.28 501.15L990.65 502.42L988.83 504.48L986.57 503.05L985.47 500.74L982.45 501.35L980.48 499.96L979.76 497.77L978.18 496.3L977.93 493.98L976.98 492L974.96 491.25L973.67 489.43L971.91 488.27L969.27 489.28L967.05 489.74L965.67 487.51L964.1 485.44L961.53 487.83L959.88 485.83L957.76 486.38L956.04 484.35L953.96 484.74L952.12 483.53L949.8 485.49L947.94 484.53L946.04 483.9L943.68 484.87L942.7 481.4L940.64 481.38L938.79 480.74L936.65 480.58L935.26 479.05L933.7 477.89L932.81 476.05L929.9 476L930.23 473.37L929.04 471.86L928.74 469.97L926.48 468.45L927.19 466.46L928.56 464.98L929.44 463.92L927.71 464.45L926.25 462.62L924.58 461.67L923.16 460.36L921.03 459.4L922.67 456.42L920.01 455.38L921.33 453.22L918.37 451.36L919 449.23L920.92 447.69L921.47 445.71L923.02 444.59L922.78 441.97L920.62 441.38L917.76 442.13L916.45 440.54L915.19 438.59L913.52 437.29L911.29 437.49L909.42 436.72L907.2 437.52L905.22 437.56L903.26 437.72L901.41 436.3L899.43 437.17L897.5 437.52L895.43 436.07L893.53 436.91L891.72 437.94L889.18 435.59L887.34 436.67L885.55 437.73L883.91 439.1L881.68 438.88L879.91 439.86L878.08 440.68L876.06 441.14L874.64 442.74L872.94 443.8L872.12 446.25L870.29 447.03L868.76 448.27L866.94 449.1L863.74 448.12L862.66 450.02L862.22 452.67L860.08 453.18L858.08 453.9L856.12 454.61L854.59 455.78L854.38 458.86L852 458.82L850.63 460.73L848.13 458.94L846.38 461L844.78 458.72L842.82 458.86L841.13 457.98L839.92 456.34L836.64 457.45L835.8 455.26L835.26 452.56L831.95 453.97L830.95 451.68L828.49 452.98L826.94 451.63L825.06 451.18L822.95 450.02L821.06 450.89L818.99 450.76L817.42 452.56L815.85 454.47L813.32 451.94L811.44 451.77L809.58 452.04L807.68 452.2L805.85 451.57L803.96 451.33L801.87 451.56L800 450.91L797.97 450.56L796.05 449.89L793.56 450.15L792.11 448.57L790.72 446.96L789.43 445.28L787.63 444.34L785.8 443.43L784.89 441.28L782.05 441.72L782.07 438.37L780.39 437.28L777.92 437.24L777.01 435.12L775.11 434.33L773.38 433.31L772.25 431.48L770.5 430.48L767.84 430.68L766.61 429L765.93 426.58L763.59 426.37L760.9 426.61L759.32 425.38L759.13 422.31L756.44 422.55L754.53 421.65V418.07L752.98 417.33C752.91 418.1 753.03 418.98 752.76 419.68C752.36 420.73 751.67 421.73 751.24 422.75C750.82 423.75 750.87 424.84 750.42 425.83C749.95 426.85 748.97 427.75 748.44 428.73C748 429.55 748.07 430.6 747.78 431.58C747.47 432.59 746.95 434.01 746.42 434.88C745.92 435.71 745.4 436.74 744.83 437.56C744.52 438.01 743.97 438.32 743.65 438.78C743.33 439.39 743.01 440.01 742.69 440.62C742.32 441.13 741.73 441.5 741.36 441.99C740.77 442.76 740.29 443.5 739.7 444.28C739.1 444.81 738.5 445.34 737.9 445.87C737.55 446.32 737.3 446.8 736.95 447.25C736.47 447.86 735.7 448.28 735.22 448.92C735.12 449.06 734.73 449.55 734.2 450.23C733.98 450.23 734.48 449.26 734.5 448.86C734.52 448.57 734.54 448.24 734.65 447.75L734.7 447.56C734.78 447.23 734.89 446.79 734.81 446.42C734.06 443.15 734.88 439.9 735.44 438.25C735.56 437.89 735.74 437.54 735.93 437.16C736.26 436.51 736.6 435.83 736.66 435.07C736.46 434.85 736.28 434.57 736.11 434.29C735.83 433.85 735.54 433.4 735.19 433.21C734.41 432.8 733.75 432.58 733.34 432.58C733.26 432.58 733.2 432.58 733.07 432.61H731.82C731.34 432.72 730.82 432.78 730.28 432.84C729.68 432.91 729.07 432.98 728.51 433.13C728.39 433.16 728.24 433.22 728.1 433.29C727.87 433.39 727.62 433.49 727.4 433.52H727.3C727.05 433.52 726.81 433.41 726.61 433.31C726.52 433.27 726.43 433.22 726.37 433.21C726.3 433.19 726.24 433.19 726.17 433.19C725.98 433.19 725.78 433.25 725.56 433.32C725.31 433.4 725.03 433.49 724.7 433.49C724.56 433.49 724.42 433.47 724.29 433.44C723.67 433.29 722.62 433.11 721.67 433.11C721.26 433.11 720.91 433.14 720.62 433.21C720.12 433.32 719.52 433.38 718.94 433.44C718.37 433.5 717.78 433.56 717.22 433.67L715.05 433.51L714.94 433.53C714.61 433.6 714.17 433.7 713.74 433.7C713.58 433.7 713.44 433.69 713.23 433.64C713.12 433.61 712.96 433.57 712.83 433.57C712.79 433.57 712.76 433.57 712.74 433.57C712.3 433.68 711.93 433.73 711.58 433.73C711.11 433.73 710.67 433.64 710.07 433.5L709.95 433.47L709.83 433.23C709.75 433.08 709.68 432.94 709.64 432.67L709.62 432.55L709.7 432.46C709.94 432.17 710.26 431.57 710.34 431.2C710.4 430.93 710.27 430.08 710.18 429.65V429.57C710.05 428.97 710 428.37 709.94 427.8C709.86 426.98 709.79 426.21 709.51 425.57C709.41 425.34 709.27 425.14 709.12 424.93C708.85 424.55 708.54 424.12 708.49 423.44V423.32L709.18 422.6H710.01C710.34 422.53 710.99 422.45 711.62 422.45C711.97 422.45 712.25 422.48 712.47 422.53C712.6 422.56 712.74 422.63 712.89 422.71C712.99 422.76 713.11 422.82 713.24 422.85C713.35 422.85 713.48 422.81 713.57 422.79L713.67 422.76C713.67 422.76 713.78 422.76 713.92 422.76C713.93 422.76 715.24 422.76 715.46 422.82C715.56 422.85 715.74 422.86 715.91 422.87C716.11 422.88 716.31 422.89 716.39 422.93L717.93 422.86C718.16 422.91 718.47 422.96 718.78 423.01C719.09 423.06 719.4 423.11 719.63 423.16C719.74 423.19 719.88 423.2 720.03 423.2C720.46 423.2 720.94 423.1 721.37 423.01C721.49 422.99 721.62 422.97 721.76 422.97C722.17 422.97 722.6 423.08 722.94 423.16C723.05 423.19 723.16 423.21 723.17 423.23L725.16 422.99L726.74 423.46C726.8 423.47 726.87 423.48 726.96 423.48C727.15 423.48 727.4 423.45 727.77 423.38H727.9C728.28 423.38 728.73 423.34 729.18 423.3C729.64 423.26 730.11 423.21 730.51 423.21H730.62L731.47 423.14C732.03 423.25 732.39 423.29 732.73 423.32C733.13 423.36 733.55 423.4 734.2 423.56H735.49L735.78 423.64C736.16 423.74 736.64 423.86 737.11 423.86C737.29 423.86 737.46 423.84 737.61 423.8C737.84 423.74 738.1 423.73 738.34 423.73C738.55 423.73 738.77 423.73 738.95 423.68H739.05C739.32 423.68 740.02 423.57 740.7 423.47C741.32 423.38 741.91 423.29 742.28 423.26C742.25 423.23 742.22 423.2 742.2 423.18C741.93 422.92 741.53 422.54 741.51 422.01C741.39 421.84 741.27 421.61 741.14 421.36C740.93 420.95 740.61 420.34 740.31 420.23C740.19 420.15 740.01 420.14 739.8 420.12C739.62 420.11 739.42 420.09 739.22 420.03C739.01 419.97 738.68 419.81 738.27 419.62C737.44 419.23 736.31 418.69 735.64 418.69C735.57 418.69 735.51 418.69 735.46 418.71C735.22 418.76 734.74 418.96 734.24 419.17C733.44 419.5 732.52 419.88 731.98 419.91C730.85 419.98 730.22 420.08 729.71 420.16C729.26 420.23 728.9 420.29 728.41 420.29C727.82 420.29 727.06 420.21 725.78 420.02C725.62 420 725.39 419.99 725.1 419.99C724.26 419.99 723.03 420.07 722.13 420.13C721.7 420.16 721.35 420.18 721.16 420.19H721.08L720.02 419.58L719.98 419.5C719.81 419.12 719.85 418.77 719.9 418.42C719.93 418.16 719.97 417.92 719.9 417.64V417.59L718.49 416.24L716.92 419.4L716.54 419.33C716.43 419.4 716.32 419.49 716.24 419.56L716.16 419.64H715.72C714.81 419.64 713.44 419.64 712.55 419.82C712.28 419.81 711.73 419.79 711.17 419.77C710.61 419.75 710.06 419.73 709.87 419.71C709.7 419.75 709.42 419.79 709.13 419.83C708.86 419.87 708.58 419.9 708.43 419.94C708.1 420.03 707.65 420.08 707.09 420.08C706.24 420.08 705.3 419.97 704.81 419.86C704.73 419.84 704.62 419.85 704.54 419.83L702.79 420.14L700.82 420.84L698.77 420.46L696.77 420.8L695.7 420.48C694.74 420.87 692.84 420.81 691.89 420.81C691.76 420.81 691.65 420.81 691.62 420.79L690.97 420.91L690.25 421.03C689.94 420.99 689.6 420.96 689.25 420.94C688.86 420.91 688.45 420.89 688.05 420.83C687.96 420.82 687.87 420.8 687.77 420.78C687.56 420.74 687.33 420.7 687.09 420.7C686.91 420.7 686.75 420.72 686.61 420.77C686.26 420.89 685.89 420.91 685.53 420.93C685.36 420.93 685.2 420.95 685.02 420.97L680.42 421.06C679.68 421.1 678.97 421.26 678.28 421.42C677.41 421.62 676.5 421.84 675.56 421.77C675.42 421.77 675.28 421.74 675.22 421.72L674.44 421.83C674.12 421.86 673.81 421.87 673.47 421.84C673.21 421.82 672.96 421.79 672.76 421.75L671.34 421.81C671.15 421.77 670.94 421.7 670.74 421.63C670.56 421.57 670.39 421.51 670.31 421.48L669.24 421.52C669.09 421.49 668.91 421.42 668.72 421.35C668.55 421.28 668.37 421.22 668.29 421.19L667.13 421.24H667C666.85 421.22 666.68 421.26 666.49 421.31C666.27 421.37 666.02 421.43 665.76 421.41C665.72 421.41 665.68 421.41 665.69 421.4L664.47 421.45C664.47 421.45 664.41 421.45 664.37 421.44C663.98 421.41 663.23 421.53 662.73 421.66C662.37 421.75 661.89 421.78 661.36 421.74C661.07 421.72 660.76 421.68 660.44 421.62C660.39 421.62 660.35 421.61 660.3 421.6C659.99 421.58 659.73 421.69 659.35 421.85C659.12 421.95 658.89 421.98 658.62 421.96C658.49 421.96 658.36 421.93 658.24 421.91C658.14 421.89 658.05 421.88 657.96 421.87C657.83 421.87 657.71 421.87 657.6 421.96C657.65 422.65 658.25 423.83 658.65 423.94C658.7 423.97 658.77 423.98 658.85 423.99C659 424 659.15 423.98 659.31 423.96C659.49 423.94 659.67 423.92 659.91 423.93H659.94C660.29 423.98 660.42 424.09 660.55 424.22C660.62 424.29 660.67 424.34 660.87 424.37C661.01 424.4 661.26 424.52 661.64 424.72C661.84 424.82 662.14 424.97 662.14 424.99C662.4 424.94 662.69 424.93 663.01 424.95C663.29 424.97 663.56 425.01 663.86 425.07C663.91 425.07 663.96 425.08 664.01 425.09C664.34 425.11 664.64 425.03 664.95 424.94C665.26 424.85 665.58 424.77 665.92 424.79C665.98 424.79 666.03 424.8 666.1 424.81C666.17 424.81 666.29 424.76 666.4 424.71C666.55 424.64 666.72 424.56 666.99 424.58H667.02C667.19 424.62 667.37 424.64 667.55 424.65C667.68 424.65 668.18 424.68 668.29 424.69C668.42 424.69 668.53 424.71 668.57 424.73L672.74 424.38C672.9 424.38 673.06 424.38 673.22 424.38C673.44 424.4 673.67 424.42 673.89 424.45C674.09 424.48 674.29 424.5 674.49 424.52C674.75 424.54 674.94 424.52 675.1 424.49C675.53 424.39 677.04 424.09 678.3 424.18C678.49 424.19 678.66 424.21 678.75 424.24L680.22 424.1C680.4 424.14 680.59 424.22 680.78 424.3C680.98 424.38 681.19 424.47 681.39 424.51C681.42 424.51 681.46 424.52 681.49 424.52C681.78 424.54 682.03 424.44 682.27 424.33C682.37 424.29 682.47 424.25 682.56 424.22C683.38 423.97 684.69 423.83 685.54 423.83C685.66 423.83 685.77 423.83 685.87 423.85H685.95L686.6 424.46L686.62 424.54C686.73 425.1 686.77 425.55 686.67 426.21C686.64 426.44 686.6 426.53 686.57 426.53C686.57 426.58 686.6 426.66 686.66 426.93C686.99 428.35 686.98 429.85 686.97 431.3C686.97 431.68 686.97 432.05 686.97 432.42V432.57L686.84 432.65C686.71 432.73 686.59 432.82 686.51 432.91L686.43 432.99H686.32C685.96 432.99 685.7 433.07 685.42 433.16C685.16 433.24 684.9 433.33 684.56 433.33C684.51 433.33 684.47 433.33 684.46 433.33C684.35 433.33 684.02 433.48 683.78 433.58C683.38 433.75 683.12 433.85 682.85 433.86C682.67 433.82 682.49 433.73 682.33 433.65C682.18 433.58 682.05 433.51 681.92 433.48C681.8 433.45 681.69 433.44 681.56 433.44C681.26 433.44 680.97 433.52 680.69 433.59C680.41 433.67 680.15 433.74 679.88 433.74C679.78 433.74 679.69 433.74 679.61 433.71C679.39 433.66 679.19 433.53 679.02 433.41C678.91 433.34 678.81 433.27 678.73 433.24C678.6 433.19 678.36 433.17 678.16 433.15C678.01 433.14 677.87 433.12 677.77 433.1C677.66 433.08 677.55 433.07 677.43 433.07C677.08 433.07 676.73 433.17 676.42 433.25C676.31 433.28 676.2 433.31 676.05 433.34H675.26C675.19 433.34 675.11 433.38 675.03 433.41C674.82 433.49 674.56 433.59 674.29 433.59C674.21 433.59 674.14 433.59 674.06 433.57C674.02 433.57 673.98 433.56 673.94 433.56C673.84 433.56 673.76 433.59 673.66 433.63C673.54 433.68 673.4 433.74 673.23 433.74C673.14 433.74 673.05 433.73 673.01 433.71L672.24 433.63L671.4 433.54C670.97 433.38 670.73 433.1 670.52 432.85C670.26 432.54 670.08 432.32 669.6 432.32C669.43 432.32 669.24 432.35 669.02 432.4C668.63 432.5 668.26 432.64 667.86 432.79C667.56 432.9 667.27 433.02 666.95 433.11C666.7 433.19 666.52 433.34 666.42 433.55C666.09 434.32 665.71 435.45 665.71 435.63C665.74 435.84 665.77 436.01 665.79 436.16C665.88 436.66 665.94 436.98 665.7 438C665.65 438.22 665.64 438.49 665.62 438.78C665.6 439.23 665.58 439.69 665.41 440.1C665.12 440.81 665.06 440.93 665.33 442.16C665.48 442.85 665.32 443.16 665.16 443.46C665.02 443.72 664.89 443.97 664.94 444.6C664.96 444.77 664.87 444.96 664.68 445.32C664.61 445.46 664.49 445.69 664.47 445.81C664.39 446.19 664.25 446.53 664.11 446.86C663.98 447.18 664.13 447.51 664.06 447.84C664.01 448.06 663.78 448.23 663.83 448.45C663.91 448.77 663.99 449.14 663.77 449.43C663.74 449.54 663.7 449.64 663.65 449.72C662.64 448.21 661.84 447.11 661.7 447.12C661.31 446.67 660.77 446.18 660.49 445.63C660.23 445.13 660.25 444.55 659.97 444.08C659.57 443.39 659.06 442.71 658.69 441.97C658.47 441.54 658.42 441.08 658.17 440.65C657.92 440.22 657.52 439.83 657.26 439.4C656.81 438.64 656.63 437.89 656.21 437.07C656.05 436.75 655.69 436.45 655.53 436.13C655.35 435.77 655.39 435.43 655.24 435.04C655.03 434.5 654.68 433.87 654.49 433.33C654.26 432.68 654.29 432.18 654.05 431.55C653.93 431.22 653.63 430.84 653.53 430.46C653.51 430.12 653.49 429.79 653.47 429.45C653.18 428.62 652.62 427.72 652.35 426.88C652.3 426.52 652.26 426.16 652.21 425.8C651.91 424.95 651.45 423.96 651.17 423.16C650.94 422.51 651.05 421.84 650.81 421.22C650.51 420.46 649.82 419.9 649.61 419.12V418.48L648.98 419.05L648.25 421.11L646.11 421.83L646.31 424.48L645.39 426.15L643.11 426.94L642.02 428.56L641.35 430.42L639.98 431.88L638.79 433.45L639.18 435.83L638.22 437.51L635.83 437.87L634.81 439.16L632.92 440.18L630.83 440.14L628.67 440.87L626.77 439.2L624.44 440.6L622.68 438.51L620.6 438.26L618.59 437.09L616.37 439.63L614.26 438.25L612.09 438.46L611.26 441.18L608.47 440.89L608.49 443.34L606.64 444.49L605.65 446.2L604.44 447.79L603.07 449.74L600.72 448.34L598.8 448.58L597.56 446.82L595.6 446.34L592.84 446.69L591.38 445.37L590.72 442.81L588.61 442.39L586.69 441.75L585.43 439.16L583.33 438.69L581.2 438.48L578.98 439.39L576.97 438.84L574.91 437.84L572.8 437.7L570.92 440.1L568.91 440.22L566.88 440.3L564.69 439.72L563.21 442.3L561.25 442.67L558.99 442.09L556.76 441.79L554.5 441.55L553.72 445.34L551.65 445.23L549.91 446.13L548.1 447.19L546 447.35L544.03 445.63L542.19 445.49L540.99 443.47L538.52 444.74L537.53 442.14L534.8 444.22L533.07 443.44L531.44 441.61L529.44 441.73L527.5 441.36L525.54 440.95L523.59 441.87L521.7 443.13L519.59 440.26L517.75 442.01L515.71 442.71L513.54 441.98L511.61 443.78L509.26 441.46L507.14 441.49L505.17 442.73L503.26 444.25L501.28 445.14L498.77 442.5L496.99 444.7L494.98 445.37L492.89 444.39L491.25 445.97L489.54 447.18L487.52 446.6L485.4 445.1L483.84 447.79L481.74 445.79L479.85 446.82L477.85 445.7L475.91 447.59L473.9 448.39L471.91 448.02L469.93 447.81L467.89 448.25L466.25 444.87L464.09 446.47L462.37 444.45L460.05 446.77L458.5 443.86L456.1 446.37L454.23 445.58L452.45 444.27L450.23 445.56L448.69 442.92L446.8 442.29L444.71 442.56L442.76 441.97L440.69 442.18L438.7 441.8L436.81 440.59L434.56 442.57L432.55 442.59L430.53 442.93L428.57 442.33L426.6 441.32L424.59 442.01L422.61 442.72L420.56 441.32L418.48 440.65L416.38 440.25L414.35 440.62L412.53 442.08L410.93 444.11L408.48 442.58L407.09 444.9L405.16 445.32L402.72 444.63L401.67 447.18L399.58 447.42L397.12 447.09L396.14 449.46L394.61 450.8L391.98 450.37L391.28 453.03L389.68 454.26L387.39 454.43L386.23 456.37L383.95 456.54L382.31 457.75L380.81 459.21L377.7 457.71L376.76 460.26L374.94 461.15L373.53 463.14L371.25 462.89L369.11 462.83L367.06 462.87L364.91 462.09L363.27 464.82L361.23 465.71L359.13 464.93L357.01 465.19L355.05 464.23L353.37 462.69L351.13 462.94L350.04 460.65L348.01 460.2L345.62 460.05L344.89 457.65L343.39 456.27L340.3 456.99L339.03 455.39L337.93 453.33L335.6 453.7L334.32 450.56L331.99 450.39L330.08 452.2L328.32 453.01L326.54 453.68L324.67 454.23L322.62 454.46L320.66 454.79L318.84 455.22L317.78 458.42L315.47 457.58L313.38 458.29L311.47 456.8L309.59 456.18L307.41 456.28L306.1 454.38L303.8 454.35L302.72 452.35L300.45 452.01L299.15 450.39L297.53 449.16L296.71 447.08L293.52 447.42L292.08 445.96L292 443.18L289.72 442.57L288.23 441.2L286.69 439.93L285.4 438.39L284.09 436.85L281.86 436.4L281.69 433.4L280.58 431.48L277.2 432.71L276.36 430.4L273.78 430.7L273.04 428.08L271.91 425.95L269.9 425.34L267.98 424.61L266.04 423.94L264.07 423.35L261.72 423.72L259.86 422.98L257.9 422.5L256.63 419.98L254.39 420.33L252.31 420.28L250.22 420.34L248.72 417.94L246.59 418.15L244.48 418.44L242.7 416.71L240.71 416.08L238.45 418.09L236.51 417.17L234.54 416.01L232.48 416.49L230.44 415.37L228.45 417.26L226.42 417.51L224.53 416.18L222.82 415.23H221.05L220 413.49L218.17 413.23L216.36 412.82L214.28 412.27L212.28 411.62L210.29 410.95L208.33 410.05L206.22 409.78L203.99 411.18L201.98 408.81L199.78 408.42L197.89 411.01L195.91 411.54L193.7 411.13L192.08 412.84L189.48 411.73L188.09 413.53L186.79 415.2L185.34 416.53H182.8L181.75 418.41L180.39 419.9L178.66 421.01L177.92 423.17L174.47 422.43L174.01 424.91L172.87 426.71L170.22 426.58L169.98 429.59L166.77 428.92L166.3 431.47L165.67 433.67L162.92 433.87V436.47L161.04 437.56L158.93 438.66L157.59 440.35L158.42 442.93L157.1 444.64L157.76 446.81L156.85 448.72L156.52 450.71L155.71 452.69L157.5 454.74L155.55 456.34L154.14 457.35L154.28 460L152.44 461.43L150.54 459.8L148.8 459.61V457.33L145.49 458.2L144.66 455.96L142.33 456.58L141.25 453.1L138.98 453.96L136.95 453.83L134.99 454.7L133.09 455.21L130.61 453.62L128.58 454.26L127.06 455.99L125.85 457.95L123.57 458.08L122.88 460.51L120.49 460.71L118.76 461.81L117.72 463.63L116.62 465.34L115.59 467.08L112.83 467.31L111.22 468.58L110.89 471.71L110.57 468.66L107.94 468.95L106.1 469.05L104.25 466.55L102.59 469.41L100.93 470.13L98.48 469.05L96.41 469.38L94.7 470.41L92.89 471.18L91.29 472.49L89.46 473.55L87.39 472.36L85.75 471.59L84.0601 471.1L82.15 470.55L80.85 469.01L77.67 469.58L76.14 468.39L75.78 465.39L73.15 466.76L71.53 464.72L69.95 466.8L68.01 467.3L65.9 467.99L64.05 469.17L62.1801 470.42L59.95 469.9L58.0699 470.44L55.92 471.48L53.76 471.37L52.52 468.63L50.46 468.46L48.0699 468.83L46.89 466.67L45.0601 465.82L42.71 466.07L41.1899 464.58L39.8101 462.77L36.99 464.11L35.77 461.91L34.28 460.28L32.02 460.45L29.64 460.94L28.34 458.8L25.83 459.69L24.02 458.82L22.6801 456.7L20.55 456.67L19.33 454.1L16.76 455.34L15.08 454.03L13.48 452.46L10.8101 454.2L9.55005 451.51L7.81006 450.28L5.17004 452.1L3.97998 448.92L1.90002 448.85L-0.0200195 449.49V787H1400V367.08L1399.01 366.13L1397.06 366.66V366.66ZM714.52 436.6C714.97 436.33 715.62 436.7 716.17 436.57C716.28 436.54 716.39 436.54 716.47 436.54H716.66C716.75 436.54 716.78 436.54 716.79 436.53L716.85 436.49C716.85 436.49 717.29 436.49 717.45 436.49C718.54 436.49 719.06 436.57 719.72 436.66L720.01 436.7C720.31 436.74 720.59 436.76 720.85 436.76C721.43 436.76 721.97 436.67 722.66 436.55C723 436.49 723.39 436.43 723.83 436.37C724.01 436.34 724.43 436.34 724.97 436.34C725.62 436.34 726.44 436.34 727 436.29C727.17 436.28 727.34 436.27 727.5 436.27C728.34 436.27 729.39 436.46 729.72 436.89C730.1 437.38 730.19 438.67 730.27 440.58C730.32 441.69 730.37 442.83 730.54 443.25C730.76 443.79 731.15 446.07 730.85 446.7C730.8 447 730.7 447.12 730.57 447.27L730.45 447.4L730.41 447.42C730.32 447.47 730.2 447.49 730.04 447.49C729.76 447.49 729.34 447.42 728.81 447.33C727.96 447.19 726.8 446.99 725.57 446.99C725.45 446.99 725.32 446.99 725.2 446.99C725 446.99 724.76 447.03 724.49 447.06C724.1 447.11 723.66 447.16 723.24 447.16C722.9 447.16 722.63 447.12 722.4 447.05C722.2 446.99 722.04 446.84 721.9 446.71C721.84 446.65 721.78 446.6 721.72 446.56C721.44 446.38 721.04 446.25 720.64 446.12C720.4 446.04 720.18 445.97 719.99 445.89C719.55 445.71 719.22 445.61 718.92 445.53C718.24 445.34 717.79 445.21 717.17 444.26C717.08 444.13 716.99 444.03 716.91 443.93C716.65 443.63 716.42 443.36 716.43 442.53C716.41 442.37 716.36 442.1 716.3 441.82C716.21 441.39 716.01 441.31 716 441.03C715.98 440.52 715.81 440.31 715.56 439.83C715.42 439.55 715.33 439.58 715.21 439.27C715.13 439.04 715 438.85 714.86 438.65C714.64 438.31 714.39 437.93 714.34 437.37L714.31 436.8L714.51 436.58L714.52 436.6ZM689.82 423.71C690.12 423.18 690.99 423.13 691.36 423.13C691.65 423.13 691.94 423.16 692.2 423.22C692.71 423.34 693.21 423.4 693.74 423.4C694.74 423.4 695.65 423.19 696.6 422.97L697.1 422.86C697.4 422.79 697.67 422.79 697.91 422.78C698.24 422.78 698.5 422.76 698.7 422.61L698.79 422.56H698.88C699.62 422.56 700.34 422.63 701.08 422.79C701.22 422.82 701.4 422.83 701.65 422.83H702.26C702.49 422.83 702.65 422.83 702.79 422.86C703.04 422.91 703.32 422.93 703.68 422.93C703.83 422.93 704.4 422.92 704.53 422.92C705.03 422.92 705.55 422.96 705.98 423.27C706.65 423.76 706.63 424.67 706.61 425.55C706.61 426.05 706.59 426.56 706.7 427C706.81 427.47 707.1 429.29 706.97 429.87C706.95 429.97 706.92 430.07 706.89 430.16C706.81 430.45 706.74 430.72 706.74 431.11L706.9 433.66L706.33 434.11L706.18 434.17H706.09C705.19 434.17 704.7 433.98 704.18 433.78C704 433.71 703.82 433.64 703.65 433.58L701.83 433.28C701.72 433.24 701.59 433.22 701.43 433.22C701.27 433.22 701.12 433.24 700.95 433.25C700.76 433.27 700.57 433.29 700.38 433.29C700.16 433.29 699.97 433.27 699.79 433.22C699.4 433.12 699.13 433.07 698.89 433.07C698.63 433.07 698.4 433.12 698.04 433.2L697.78 433.25H695.98C695.76 433.29 695.42 433.35 695.09 433.4C694.79 433.45 694.49 433.49 694.27 433.54C693.91 433.62 692.36 433.69 691.4 433.69C690.44 433.69 690.3 433.63 690.23 433.59C690 433.47 689.86 433.18 689.82 433.05C689.62 432.71 689.77 432.4 689.88 432.2C689.91 432.14 689.94 432.09 689.95 432.04C690.09 431.59 690.13 431.13 690.17 430.64C690.2 430.24 690.24 429.84 690.33 429.43C690.55 428.48 690.35 427.37 690.17 426.56V425.75C690.15 425.64 690.09 425.5 690.02 425.34C689.81 424.84 689.54 424.21 689.82 423.72V423.71ZM668.23 445.63C668.12 445.39 668.11 445.25 668.33 444.91C668.42 444.78 668.43 444.51 668.58 444.41C668.66 444.36 668.76 444.3 668.79 444.26C668.96 444.07 669.05 443.84 669.14 443.59C669.23 443.34 669.33 443.08 669.52 442.83C669.59 442.74 669.54 442.58 669.44 442.33C669.34 442.07 669.22 441.74 669.34 441.41C669.46 441.09 669.59 440.82 669.71 440.58C670 439.96 670.12 439.68 669.91 439.3L669.76 438.62L669.7 438.47C669.42 437.8 669.32 437.57 669.5 436.64L669.53 436.5L669.66 436.44C669.9 436.34 670.23 436.2 670.46 436.06L670.54 436.02H670.63C670.93 436.07 671.32 436.16 671.75 436.26C672.54 436.44 673.52 436.67 674.28 436.67C674.42 436.67 674.56 436.67 674.69 436.64C675.5 436.53 677.09 436.41 678.36 436.41C678.93 436.41 679.39 436.43 679.72 436.48C680.02 436.52 680.3 436.53 680.56 436.53H680.8C681.25 436.53 681.66 436.54 682.03 436.73C682.32 436.88 682.43 437.12 682.51 437.31C682.54 437.39 682.57 437.46 682.62 437.54C682.64 437.57 682.68 437.59 682.75 437.62C682.86 437.67 683.01 437.74 683.11 437.92C683.23 438.13 683.32 438.34 683.41 438.54C683.45 438.64 683.49 438.73 683.55 438.88L683.68 439.46L683.78 439.98C684.05 440.55 684.05 440.67 683.93 441.5V442.23L683.9 442.28C683.7 442.69 683.2 442.89 682.71 443.08C682.41 443.2 682.1 443.32 681.94 443.47C681.75 443.64 681.61 443.84 681.47 444.05C681.23 444.4 680.98 444.76 680.48 445.01C680.07 445.22 679.62 445.36 679.19 445.51C678.87 445.61 678.55 445.72 678.23 445.85C678.05 445.93 677.89 446.03 677.73 446.14C677.55 446.26 677.36 446.38 677.16 446.46C676.9 446.57 676.63 446.63 676.37 446.7C676.13 446.76 675.9 446.81 675.65 446.91C674.9 447.22 674.01 447.58 673.28 447.9C672.65 448.18 671.43 448.38 670.38 448.38C669.5 448.38 668.27 448.03 668.05 447.71C668.02 447.65 668.13 446.68 668.34 446.11C668.39 445.96 668.34 445.82 668.24 445.61L668.23 445.63ZM667.26 450.81L667.41 449.98C667.5 449.92 667.8 450.26 667.92 450.27C668.22 450.28 668.86 450.59 669.25 450.49C670 450.5 670.19 450.32 671.32 450.5C672.43 450.68 673.58 450.86 674.23 450.88C674.41 450.84 674.61 450.76 674.81 450.69C675.01 450.62 675.21 450.54 675.45 450.49H676.78L677.24 450.39C677.69 450.29 678.16 450.19 678.61 450.04C678.8 449.98 678.97 449.86 679.16 449.74C679.33 449.62 679.5 449.51 679.67 449.44C679.94 449.33 680.21 449.27 680.47 449.22C680.79 449.15 681.09 449.09 681.32 448.93C681.49 448.82 681.63 448.62 681.78 448.41C681.87 448.29 681.95 448.17 682.04 448.06C682.27 447.8 682.56 447.58 682.83 447.37C683.15 447.13 683.44 446.91 683.65 446.63C683.76 446.49 683.8 446.28 683.85 446.06C683.9 445.83 683.96 445.58 684.1 445.35C684.27 445.06 684.52 444.81 684.75 444.58C684.97 444.35 685.18 444.14 685.34 443.9C685.75 443.23 686.05 443.03 686.27 442.88C686.51 442.71 686.66 442.61 686.9 441.64C687.06 441 687.22 440.4 687.11 439.88C686.94 439.09 687.2 437.81 687.37 436.96L687.44 436.62L688.04 436.12C688.04 436.12 688.42 436.11 688.56 436.11C689.34 436.11 690.06 436.19 690.83 436.35C690.93 436.37 691.03 436.38 691.15 436.38C691.57 436.38 692.02 436.24 692.43 436.12C692.62 436.06 692.8 436.01 692.96 435.97C693.18 435.92 693.44 435.92 693.67 435.92H693.87C694.03 435.92 694.18 435.92 694.28 435.9C694.42 435.87 694.57 435.85 694.71 435.85C695.15 435.85 695.49 436 695.78 436.13C695.92 436.19 696.04 436.25 696.18 436.28C696.26 436.3 696.34 436.31 696.43 436.31C696.69 436.31 696.96 436.22 697.2 436.15C697.32 436.11 697.43 436.08 697.59 436.05H699.3C699.3 436.05 699.42 436.01 699.5 435.97C699.63 435.91 699.75 435.85 699.84 435.83C699.93 435.81 700.04 435.8 700.16 435.8C700.24 435.8 700.32 435.8 700.4 435.8C700.47 435.8 700.53 435.8 700.59 435.8C700.7 435.8 700.75 435.79 700.77 435.77L700.84 435.73H700.91C701.62 435.73 702.22 435.88 702.75 436.01L702.83 436.04H704.97C705.14 436.08 705.36 436.12 705.58 436.16C705.81 436.2 706.04 436.24 706.15 436.27H707.44C707.78 436.35 708.18 436.39 708.58 436.44C708.96 436.48 709.33 436.53 709.61 436.59C709.66 436.59 709.7 436.6 709.75 436.6C709.9 436.6 710.05 436.55 710.19 436.5C710.27 436.47 710.35 436.45 710.43 436.43C710.52 436.41 710.62 436.4 710.71 436.4C710.95 436.4 711.14 436.47 711.3 436.53C711.36 436.55 711.42 436.57 711.48 436.59L711.58 436.62L711.64 436.71C711.71 436.81 711.79 436.9 711.87 437C712.02 437.17 712.18 437.36 712.28 437.59C712.6 438.35 712.67 438.4 712.74 439.35C712.79 440.05 712.84 440.72 712.98 441.29C713.08 441.69 712.98 442.3 712.9 442.63C712.81 443.07 713.08 443.68 713.29 444.17C713.41 444.44 713.51 444.67 713.57 444.93L713.62 445.58C713.7 445.92 713.83 446.27 714.18 446.43C714.48 446.56 714.83 446.73 715.04 447.12C715.14 447.32 715.23 447.53 715.31 447.73C715.43 448.03 715.54 448.3 715.71 448.54C715.83 448.7 715.9 448.84 715.95 448.96C716.06 449.19 716.09 449.24 716.63 449.24C716.82 449.24 717.04 449.35 717.29 449.46C717.43 449.52 717.65 449.63 717.81 449.65C718.2 449.78 718.59 449.98 718.96 450.17C719.14 450.26 719.33 450.36 719.5 450.43H721.05C721.34 450.2 721.63 450.08 721.95 450.08C722.22 450.08 722.48 450.16 722.73 450.24C722.99 450.32 723.25 450.41 723.55 450.41C723.67 450.41 723.78 450.4 723.9 450.37C724.11 450.32 724.33 450.3 724.56 450.3C724.91 450.3 725.25 450.35 725.58 450.4C725.9 450.45 726.24 450.5 726.57 450.5C726.79 450.5 726.99 450.48 727.18 450.44C727.38 450.4 727.52 450.36 727.64 450.32C727.84 450.26 727.98 450.22 728.17 450.22C728.29 450.22 728.41 450.24 728.57 450.27C728.86 450.33 729.21 450.34 729.48 450.34H730.25C730.38 450.34 730.5 450.34 730.61 450.34H730.74L730.81 450.45C731.03 450.78 730.98 450.98 730.92 451.2C730.88 451.33 730.84 451.5 730.83 451.77V451.85L730.78 451.92C730.74 451.98 730.75 453.06 730.76 453.19C730.78 453.39 730.79 453.61 730.7 453.82C730.6 454.04 730.68 454.33 730.77 454.66C729.93 455.75 729.26 456.62 729.12 456.84C728.4 457.97 727.31 458.91 726.52 459.97C726.26 460.32 726.2 460.73 725.96 461.12C725.51 461.84 724.91 462.57 724.38 463.26C724.07 463.54 723.77 463.82 723.46 464.11H723.65C723.32 464.57 722.97 465.03 722.63 465.47C722.14 465.92 721.65 466.37 721.17 466.82C720.88 467.19 720.65 467.52 720.36 467.89C720.07 468.15 719.77 468.41 719.48 468.67C719.21 469.02 719.02 469.48 718.67 469.74C718.4 469.94 718.07 470.11 717.87 470.38C717.6 470.73 717.41 471.19 717.06 471.45C716.75 471.67 716.38 471.73 716.04 471.94C715.58 472.37 715.11 472.79 714.65 473.22C714.65 473.22 714.64 473.24 714.63 473.24C714.54 473.39 714.44 473.54 714.34 473.7C714.22 473.82 714.1 473.93 713.98 474.05C713.73 474.42 713.5 474.82 713.24 475.22C712.92 475.53 712.6 475.84 712.29 476.14C711.96 476.58 711.78 477.13 711.47 477.57C711.19 477.97 710.29 479.44 710.39 480.16C710.49 480.94 712.72 483.4 714.1 484.83C714.17 484.9 714.59 485.11 714.48 485.23C714.38 485.35 714.19 485.27 714.03 485.31C713.82 485.35 713.6 485.4 713.34 485.4C713.32 485.4 713.3 485.4 713.28 485.4C713.16 485.37 713.03 485.36 712.89 485.36C712.54 485.36 712.16 485.45 711.72 485.55L711.43 485.61C711.17 485.67 710.93 485.75 710.7 485.83C710.33 485.96 709.97 486.09 709.58 486.09C709.45 486.09 709.32 486.08 709.28 486.06C709.01 486.09 708.58 486.16 708.16 486.23C707.73 486.3 707.29 486.37 706.93 486.39C706.83 486.37 706.73 486.36 706.63 486.36C706.33 486.36 706.05 486.47 705.75 486.59C705.42 486.72 705.08 486.86 704.67 486.86C704.53 486.86 704.39 486.85 704.31 486.82C704.04 486.82 703.65 486.85 703.27 486.87C702.92 486.89 702.57 486.91 702.26 486.92C702.22 486.92 702.18 486.92 702.14 486.92C701.9 486.87 701.54 486.85 701.08 486.85C700.3 486.85 699.34 486.95 698.42 487.03C697.62 487.1 696.86 487.17 696.31 487.18C696.22 487.18 695.92 487.18 695.92 487.18L695.84 487.08C695.57 486.74 696.25 485.29 696.26 485.27C696.33 485.15 696.41 485.05 696.5 484.95C696.64 484.78 696.76 484.64 696.82 484.39C696.89 484.08 697.02 483.62 697.14 483.19C697.22 482.89 697.31 482.6 697.36 482.39C697.42 482.17 697.36 482 697.29 481.79C697.21 481.57 697.13 481.32 697.19 481.02C697.22 480.87 697.27 480.65 697.33 480.4C697.52 479.63 697.8 478.48 697.7 477.95C697.63 477.56 697.37 477.27 697.09 476.96C696.83 476.67 696.57 476.38 696.42 475.91V474.95C696.34 474.92 696.21 474.87 696.12 474.84C695.83 474.74 695.59 474.65 695.47 474.5C695.03 474.3 693.81 474.16 692.24 474.13C691.76 474.96 692.03 475.32 692.5 475.95C692.84 476.4 693.25 476.95 693.46 477.82C693.62 478.5 693.46 479.19 693.34 479.74C693.31 479.89 693.27 480.04 693.25 480.17C693.22 480.34 693.27 480.51 693.33 480.72C693.41 481.01 693.51 481.33 693.42 481.73C693.39 481.87 693.36 482.68 693.34 483.32C693.31 484.26 693.29 484.85 693.25 485.04C693.14 485.58 693.25 486.03 693.32 486.36C693.39 486.64 693.44 486.86 693.32 487.04C693.28 487.1 693.2 487.19 693.06 487.22C692.99 487.24 692.9 487.25 692.77 487.25C692.49 487.25 692.02 487.22 691.47 487.18C690.71 487.13 689.77 487.06 688.98 487.07C688.46 487.07 688.06 487.11 687.79 487.18C687.64 487.22 687.49 487.24 687.34 487.24C686.94 487.24 686.6 487.12 686.26 487C685.92 486.88 685.6 486.77 685.21 486.77C685.15 486.77 685.1 486.77 685.04 486.77C684.9 486.78 684.78 486.79 684.67 486.79C684.21 486.79 683.93 486.7 683.66 486.61C683.37 486.51 683.07 486.42 682.46 486.41C682.25 486.41 682.12 486.4 682.02 486.39C681.96 486.39 681.91 486.39 681.86 486.39C681.77 486.39 681.64 486.41 681.33 486.49C681.28 486.5 681.22 486.51 681.01 486.51H680.34C680.26 486.51 680.2 486.51 680.12 486.52H678.62C678.62 486.52 678.52 486.55 678.46 486.55C678.32 486.55 678.18 486.52 678.05 486.48C677.95 486.46 677.85 486.43 677.76 486.43H677.75C677.67 486.45 677.6 486.45 677.52 486.46C677.27 486.46 677.07 486.39 676.87 486.32C676.77 486.28 676.61 486.37 676.57 486.23C676.53 486.09 677.75 484.41 678.42 483.54C678.6 483.3 678.94 483.19 679.15 482.97C679.43 482.68 679.57 482.29 679.82 481.97C679.99 481.83 680.16 481.69 680.33 481.55C680.7 481.06 681.13 480.83 681.5 480.35C681.84 479.91 682.57 479.22 683.11 479C683.59 478.81 683.89 478.25 684.09 477.77C684.33 477.53 683.6 476.52 683.37 476.18C682.45 474.79 681.28 473.7 680.33 472.38C679.77 471.6 678.82 470.97 678.34 470.26C678.22 470.08 677.99 469.68 677.72 469.24C677.43 468.96 677.16 468.68 676.97 468.39C676.85 468.2 676.61 467.8 676.34 467.35C675.93 467.05 675.41 466.68 675.15 466.3C674.76 465.72 674.41 465.2 674.02 464.66C673.83 464.5 673.67 464.33 673.55 464.16C673.03 463.39 672.58 462.71 672.04 461.97C671.66 461.58 671.28 461.19 670.9 460.79C670.4 460.02 669.49 458.53 668.97 457.78C668.73 457.44 667.99 456.28 667.06 454.84C667.06 454.71 667.07 454.57 667.06 454.43C666.92 453.86 667.13 452.86 667.29 452.06C667.33 451.89 667.29 450.83 667.29 450.83L667.26 450.81ZM711.75 520.2C711.61 520.37 711.48 520.54 711.34 520.72C710.53 520.8 709.95 520.56 709.23 520.46H706.86C706.24 520.31 705.62 520.15 705 520C704.12 520.1 703.25 520.21 702.37 520.31C699.07 519.64 695.21 519.81 691.85 519.18C690.36 518.9 688.15 519.85 686.44 519.54C686.29 519.39 686.13 519.23 685.98 519.08C685.96 517.34 686.47 515.74 686.75 514.34C686.97 513.26 686.55 512.42 687.47 512.07C688.48 511.69 689.47 512.5 690.61 512.28C691.8 512.05 693.23 512.43 694.27 512.28C695.75 512.06 697.28 511.92 698.6 511.71C699.39 511.59 700.16 511.77 700.77 511.5C701.53 511.6 702.28 511.71 703.04 511.81C704.42 512.02 705.89 511.83 707.11 512.02C708.8 512.28 709.93 510.99 711.13 512.33C711.13 513.72 711.25 514.69 711.44 515.78C711.42 516.36 711.41 516.95 711.39 517.53C711.52 518.2 712.11 519.28 711.75 520.21V520.2ZM663.29 533.55V535.51C663.03 536.74 662.03 537.38 661.59 538.45C661.45 538.91 661.32 539.38 661.18 539.84C660.9 540.22 658 542.1 657.47 542.31C656.77 542.48 656.06 542.65 655.36 542.83C653.25 543.73 651.44 545.23 649.23 546.13C648.51 546.42 647.68 546.02 646.86 546.23C646.29 546.44 645.73 546.64 645.16 546.85C644.35 547.03 643.69 546.99 642.99 547.21C642 547.53 640.79 548.48 639.59 548.29C639.45 548.15 639.31 548.02 639.18 547.88C639.14 546.24 641.08 544.38 641.81 543.29C642.85 541.74 643.39 540.07 644.34 538.39C645.28 536.71 646.71 535.15 647.69 533.49C647.96 532.85 648.24 532.22 648.51 531.58C649.27 530.3 650.41 529.02 650.93 527.51C651.83 524.92 652.84 522.73 653.82 520.4C654.03 519.73 654.23 519.06 654.44 518.39C656.04 515.75 658.48 513.97 660.21 511.53C660.52 510.86 660.83 510.19 661.14 509.52C661.47 509.11 661.79 508.7 662.12 508.28C662.75 507.22 663.17 506.18 663.87 505.19C664.16 504.88 664.45 504.57 664.75 504.26C665.08 503.71 665.4 503.16 665.73 502.61C666.21 502.09 666.69 501.58 667.17 501.06C667.46 500.44 667.75 499.82 668.05 499.2C668.4 498.61 668.92 498.15 669.24 497.5C669.43 497.04 669.62 496.57 669.81 496.11C670.37 495.19 671.22 494.57 671.77 493.53C671.92 493.55 672.08 493.56 672.23 493.58C672.25 493.63 672.26 493.68 672.28 493.73C672.45 494.15 672.2 494.91 672.13 495.33C671.89 496.71 671.98 497.75 671.61 498.94C671.39 499.44 671.16 499.94 670.94 500.43C670.69 501.31 671.29 502.07 671.04 502.96C670.85 503.66 670.43 504.23 670.27 505.02C669.93 506.64 669.9 508.37 669.65 509.81C669.63 510.19 669.62 510.57 669.6 510.94C669.31 511.92 668.71 513.04 668.36 514.14C668.15 514.9 667.95 515.65 667.74 516.41C667.76 517.15 667.77 517.89 667.79 518.63C666.52 522.93 665.04 527.34 663.77 531.57C663.62 532.22 663.46 532.88 663.31 533.53L663.29 533.55ZM759.59 548.09C759.37 548.28 759.14 548.47 758.92 548.66C758.33 548.87 757.82 548.46 757.17 548.56C756.46 548.67 755.54 548.9 754.75 548.71C753.79 548.31 752.83 547.92 751.86 547.52C751.22 547.37 750.59 547.21 749.95 547.06C749.01 546.6 748.06 546.13 747.12 545.67C745.9 545.15 744.73 544.99 743.3 544.59C742.22 543.97 741.13 543.35 740.05 542.73C739.41 542.54 738.78 542.35 738.14 542.16C737.39 541.86 736.71 541.39 735.87 541.13C735.03 540.92 734.19 540.72 733.34 540.51C732.79 540.22 732.24 539.93 731.69 539.63C731.05 539.46 730.42 539.29 729.78 539.11C729.16 538.77 728.54 538.42 727.92 538.08L725.96 537.51C724.87 536.95 723.88 536.15 722.45 535.86C721.83 535.89 721.21 535.93 720.59 535.96C719.44 535.79 716.85 534.92 715.74 535.14C715.41 535.24 715.09 535.35 714.76 535.45C713.44 535.72 712.52 534.77 711.25 534.93C710.37 535.12 709.5 535.31 708.62 535.5C708.14 535.47 707.66 535.43 707.18 535.4C706.84 535.47 706.49 535.54 706.15 535.61C705.72 535.42 705.29 535.23 704.86 535.04C704.12 534.94 703.38 534.83 702.64 534.73C700.65 534.7 698.65 534.66 696.66 534.63C695.28 534.4 693.56 534.18 692.33 533.96C690.72 534.01 689.1 534.06 687.48 534.11C686.93 533.99 686.38 533.87 685.83 533.75C684.83 533.66 683.4 534.15 682.53 534.37C681.72 534.57 680.9 534.4 679.95 534.58C679.33 534.79 678.71 534.99 678.09 535.2C676.24 535.64 674.78 535.61 672.94 536.08C671.77 536.46 670.6 536.84 669.43 537.21C668.64 537.57 667.85 537.93 667.06 538.29C666.75 538.34 666.61 538.14 666.44 538.03L666.34 537.88C666.36 536.39 667.14 535.81 667.42 534.74C667.47 534.21 667.52 533.67 667.57 533.14C667.98 532.02 668.39 530.91 668.81 529.79C669.22 528.49 669.58 527.09 669.84 525.87C669.91 524.94 669.98 524.01 670.05 523.09C670.27 521.95 670.76 520.63 671.03 519.33C671.19 518.28 671.34 517.23 671.49 516.19C672.06 515.04 672.62 513.89 673.19 512.74C673.28 512.16 673.36 511.57 673.45 510.99C673.64 510.39 673.83 509.79 674.02 509.19C674.04 508.61 674.05 508.02 674.07 507.44C674.41 506.15 674.76 504.86 675.1 503.57C675.41 502.29 675.52 500.74 675.77 499.6C675.8 498.6 675.84 497.61 675.87 496.61C676.25 495.53 676.63 494.44 677 493.36C677.24 492.14 676.88 490.91 677.1 489.8C677.27 489.65 677.44 489.49 677.62 489.34C678.2 489.42 679.64 489.43 680.25 489.65C680.61 489.87 680.97 490.1 681.33 490.32C681.98 490.44 682.64 490.56 683.29 490.68C684.26 490.87 684.96 490.35 686.02 490.53C687.5 490.75 688.98 490.98 690.45 491.2C691.86 491.43 692.35 490.38 693.59 490.63C693.78 490.89 693.97 491.15 694.16 491.4C694.44 492.34 694.14 493.46 694.37 494.54C694.54 495.38 695.21 497.62 694.99 498.66C694.8 499.14 694.61 499.62 694.42 500.1C694.56 500.8 694.69 501.51 694.83 502.21C695.01 503.06 694.81 504.09 694.68 504.79C694.41 506.15 695.59 508.73 694.16 509.17C693.46 509.39 688.75 509.32 688.08 509.12C687.18 508.85 686.65 508.32 685.5 508.09C684.32 507.85 682.49 506.91 681.99 508.24L681.84 512.42C681.94 512.98 682.42 513.4 682.25 514.17C682.01 514.69 681.77 515.2 681.53 515.72C681.23 516.71 681.56 517.72 681.32 518.86C680.99 519.75 680.67 520.65 680.34 521.54C679.94 523.59 680.37 525.69 681.94 526.02C682.42 526.12 682.92 525.92 683.23 525.81C685.65 524.99 684.15 523.72 685.65 522.67C687.51 522.95 690.36 523.2 692.35 522.88L694.46 522.98C695.33 522.8 695.76 522.05 697.04 522.26C698.08 522.43 698.33 523.15 699.15 523.34C699.92 523.52 700.19 522.77 701.01 522.98C701.44 523.22 701.87 523.46 702.3 523.7C703.67 524.07 705.58 523.97 706.94 523.75C708.2 523.55 711.09 524.11 712.3 524.37C712.84 524.49 713.71 524.99 714.36 524.63C716.54 523.4 715.62 519.35 715.24 516.95C715.1 516.09 715.46 515.09 715.29 514.06C715.06 512.64 716.01 510.98 715.29 509.78C713.98 507.59 710.72 507.43 707.56 507.92L706.37 507.82C705.75 507.91 705.13 507.99 704.51 508.08C704.05 508.06 703.58 508.05 703.12 508.03C701.99 508.25 699.63 509.07 698.48 508.24L698.43 508.14C698.52 507.69 698.6 507.25 698.69 506.8C698.59 505.2 698.48 503.6 698.38 502.01C698.26 501.24 698.43 500.46 698.95 500.31C700.06 499.97 701.2 500.69 702.25 500.57L704.36 500.42C704.79 500.47 705.22 500.52 705.65 500.57C706.17 500.4 706.68 500.23 707.2 500.05C707.65 500.12 708.09 500.19 708.54 500.26C709.06 500.19 709.57 500.12 710.09 500.05C711.54 499.77 713.05 500.5 713.6 499.28C712.94 497.35 711.93 497.23 709.94 496.65C709.43 496.5 708.82 496.11 708.14 496.19C707.44 496.4 706.73 496.6 706.03 496.81C705.51 496.83 705 496.84 704.48 496.86C703.93 497 703.38 497.13 702.83 497.27H700.87C700.27 497.42 699.86 497.81 699.17 497.89C698.71 497.62 698.52 497.13 698.65 496.29C698.82 495.23 698.88 494.11 698.65 492.99C698.5 492.29 698.14 491.53 698.29 490.72C699.42 489.57 702.28 490.49 704.12 490.2C705.08 490.05 705.76 489.35 706.7 489.48C707.44 489.65 708.18 489.82 708.92 490C710.66 490.29 712.35 489.79 713.61 489.59C714.78 489.4 715.76 489.66 716.6 489.23C718.17 489.23 718.95 490.89 719.8 491.7C722.45 494.25 724.77 497.15 726.91 500.21C727.54 501.11 728.43 501.73 729.08 502.58C730.76 504.8 732.04 507.26 733.67 509.49C735.01 511.11 736.35 512.72 737.69 514.34C738.37 515.3 739.18 516.29 739.75 517.28C739.94 517.73 740.13 518.17 740.32 518.62C740.85 519.19 741.39 519.75 741.92 520.32C742.3 521.06 742.68 521.8 743.05 522.54C743.62 523.16 744.18 523.78 744.75 524.4C745.29 525.16 745.96 525.95 746.4 526.72C746.59 527.13 746.78 527.54 746.97 527.96C747.4 528.42 747.83 528.89 748.26 529.35C748.38 529.92 748.5 530.48 748.62 531.05C748.88 531.46 749.14 531.87 749.39 532.29C749.8 533.21 749.94 534.1 750.37 534.92C751.65 537.37 753.41 539.44 755.01 541.57C755.8 542.62 756.59 543.67 757.38 544.71C757.89 545.24 760.3 546.88 759.55 548.11L759.59 548.09Z" fill="#B9CED1"/>
<path d="M668.04 447.73C668.26 448.05 669.5 448.4 670.37 448.4C671.41 448.4 672.63 448.2 673.27 447.92C674 447.6 674.89 447.24 675.64 446.93C675.88 446.83 676.12 446.77 676.36 446.72C676.62 446.66 676.89 446.59 677.15 446.48C677.35 446.39 677.54 446.28 677.72 446.16C677.88 446.05 678.04 445.95 678.22 445.87C678.54 445.74 678.86 445.63 679.18 445.53C679.61 445.39 680.05 445.24 680.47 445.03C680.97 444.78 681.22 444.42 681.46 444.07C681.6 443.86 681.74 443.67 681.93 443.49C682.1 443.34 682.4 443.22 682.7 443.1C683.18 442.91 683.69 442.71 683.89 442.3L683.92 442.25V441.52C684.04 440.68 684.03 440.56 683.77 440L683.67 439.48L683.54 438.9C683.48 438.75 683.44 438.66 683.4 438.56C683.32 438.36 683.22 438.15 683.1 437.94C683 437.76 682.85 437.69 682.74 437.64C682.67 437.61 682.63 437.59 682.61 437.56C682.56 437.49 682.53 437.41 682.5 437.33C682.42 437.14 682.31 436.9 682.02 436.75C681.65 436.56 681.24 436.55 680.79 436.55H680.55C680.29 436.55 680 436.55 679.71 436.5C679.38 436.45 678.92 436.43 678.35 436.43C677.08 436.43 675.48 436.55 674.68 436.66C674.55 436.68 674.42 436.69 674.27 436.69C673.51 436.69 672.53 436.46 671.74 436.28C671.31 436.18 670.91 436.09 670.62 436.05H670.53L670.45 436.08C670.21 436.21 669.89 436.35 669.65 436.46L669.52 436.52L669.49 436.66C669.31 437.6 669.41 437.82 669.69 438.49L669.75 438.64L669.9 439.32C670.12 439.7 669.99 439.98 669.7 440.6C669.58 440.84 669.45 441.12 669.33 441.43C669.21 441.76 669.33 442.08 669.43 442.35C669.52 442.6 669.58 442.76 669.51 442.85C669.32 443.1 669.22 443.36 669.13 443.61C669.04 443.86 668.95 444.09 668.78 444.28C668.74 444.32 668.65 444.38 668.57 444.43C668.42 444.53 668.4 444.8 668.32 444.93C668.1 445.26 668.11 445.41 668.22 445.65C668.32 445.86 668.37 446 668.32 446.15C668.11 446.73 668 447.69 668.03 447.75L668.04 447.73Z" fill="white"/>
<path d="M690.18 425.73V426.54C690.35 427.35 690.55 428.46 690.33 429.41C690.24 429.82 690.2 430.23 690.17 430.62C690.13 431.11 690.09 431.57 689.95 432.02C689.93 432.07 689.9 432.13 689.88 432.18C689.78 432.39 689.62 432.69 689.82 433.03C689.86 433.15 690 433.44 690.23 433.57C690.3 433.61 690.42 433.67 691.4 433.67C692.38 433.67 693.91 433.6 694.27 433.52C694.48 433.47 694.78 433.43 695.09 433.38C695.42 433.33 695.75 433.28 695.98 433.23H697.78L698.04 433.19C698.39 433.11 698.62 433.06 698.89 433.06C699.13 433.06 699.4 433.1 699.79 433.21C699.97 433.26 700.16 433.28 700.38 433.28C700.57 433.28 700.77 433.26 700.95 433.24C701.11 433.22 701.27 433.21 701.43 433.21C701.59 433.21 701.72 433.23 701.83 433.27L703.65 433.57C703.82 433.63 704 433.7 704.18 433.77C704.7 433.97 705.19 434.16 706.09 434.16H706.18L706.33 434.1L706.9 433.65L706.74 431.1C706.74 430.71 706.81 430.44 706.89 430.15C706.92 430.05 706.94 429.96 706.97 429.86C707.1 429.29 706.82 427.47 706.7 426.99C706.59 426.55 706.6 426.03 706.61 425.54C706.63 424.66 706.65 423.75 705.98 423.26C705.56 422.95 705.03 422.91 704.53 422.91C704.39 422.91 703.82 422.92 703.68 422.92C703.32 422.92 703.04 422.9 702.79 422.85C702.66 422.82 702.49 422.81 702.26 422.81H701.65C701.4 422.81 701.23 422.81 701.08 422.78C700.34 422.63 699.62 422.55 698.88 422.55H698.79L698.7 422.6C698.49 422.75 698.23 422.76 697.91 422.77C697.67 422.77 697.4 422.78 697.1 422.85L696.6 422.96C695.64 423.18 694.74 423.39 693.74 423.39C693.21 423.39 692.71 423.33 692.2 423.21C691.94 423.15 691.65 423.12 691.36 423.12C691 423.12 690.12 423.18 689.82 423.7C689.54 424.19 689.81 424.81 690.02 425.32C690.09 425.48 690.15 425.62 690.18 425.73V425.73Z" fill="white"/>
<path d="M714.87 438.66C715.01 438.86 715.13 439.06 715.22 439.28C715.33 439.59 715.42 439.56 715.57 439.84C715.82 440.32 715.99 440.53 716.01 441.04C716.01 441.32 716.22 441.4 716.31 441.83C716.37 442.11 716.42 442.38 716.44 442.54C716.44 443.37 716.66 443.63 716.92 443.94C717 444.03 717.09 444.13 717.18 444.27C717.81 445.22 718.25 445.35 718.93 445.54C719.23 445.62 719.56 445.72 720 445.9C720.19 445.98 720.42 446.05 720.65 446.13C721.04 446.26 721.45 446.39 721.73 446.57C721.79 446.61 721.85 446.66 721.91 446.72C722.05 446.85 722.21 446.99 722.41 447.06C722.64 447.13 722.91 447.17 723.25 447.17C723.66 447.17 724.11 447.12 724.5 447.07C724.77 447.04 725.01 447.01 725.21 447C725.33 447 725.46 447 725.58 447C726.81 447 727.97 447.2 728.82 447.34C729.35 447.43 729.77 447.5 730.05 447.5C730.21 447.5 730.33 447.48 730.42 447.43L730.46 447.41L730.58 447.28C730.71 447.14 730.81 447.02 730.86 446.71C731.16 446.08 730.76 443.79 730.55 443.26C730.38 442.84 730.33 441.7 730.28 440.59C730.19 438.68 730.1 437.39 729.73 436.9C729.4 436.47 728.35 436.28 727.51 436.28C727.35 436.28 727.18 436.28 727.01 436.3C726.45 436.35 725.64 436.35 724.98 436.35C724.44 436.35 724.01 436.35 723.84 436.38C723.4 436.44 723.02 436.51 722.67 436.56C721.99 436.68 721.45 436.77 720.86 436.77C720.6 436.77 720.33 436.75 720.02 436.71L719.73 436.67C719.07 436.57 718.55 436.5 717.46 436.5C717.3 436.5 716.86 436.5 716.86 436.5L716.8 436.54C716.8 436.54 716.77 436.55 716.67 436.55H716.48C716.4 436.55 716.29 436.55 716.18 436.58C715.63 436.71 714.98 436.34 714.53 436.61L714.33 436.83L714.36 437.4C714.41 437.97 714.66 438.35 714.88 438.68L714.87 438.66Z" fill="white"/>
<path d="M719.88 418.38C719.83 418.72 719.79 419.08 719.96 419.46L720 419.54L721.06 420.15H721.14C721.33 420.15 721.69 420.12 722.11 420.09C723.01 420.03 724.25 419.95 725.08 419.95C725.36 419.95 725.6 419.95 725.76 419.98C727.04 420.17 727.8 420.25 728.39 420.25C728.88 420.25 729.24 420.19 729.69 420.12C730.2 420.04 730.83 419.94 731.96 419.87C732.5 419.83 733.41 419.46 734.22 419.13C734.72 418.92 735.2 418.73 735.44 418.67C735.49 418.66 735.55 418.65 735.62 418.65C736.29 418.65 737.42 419.19 738.25 419.58C738.66 419.77 738.98 419.93 739.2 419.99C739.4 420.05 739.6 420.06 739.78 420.08C739.99 420.09 740.17 420.11 740.29 420.19C740.59 420.3 740.91 420.92 741.12 421.32C741.25 421.56 741.37 421.8 741.49 421.97C741.51 422.5 741.91 422.88 742.18 423.14C742.21 423.17 742.23 423.19 742.26 423.22C741.89 423.25 741.3 423.34 740.68 423.43C740 423.53 739.31 423.64 739.03 423.64H738.93C738.75 423.69 738.53 423.69 738.32 423.7C738.07 423.7 737.81 423.71 737.59 423.77C737.44 423.81 737.27 423.83 737.09 423.83C736.63 423.83 736.15 423.71 735.76 423.61L735.47 423.54H734.18C733.53 423.38 733.11 423.34 732.71 423.3C732.36 423.27 732.01 423.23 731.45 423.12L730.6 423.19H730.49C730.09 423.19 729.62 423.23 729.16 423.27C728.71 423.31 728.26 423.36 727.88 423.36H727.75C727.39 423.43 727.14 423.46 726.94 423.46C726.85 423.46 726.78 423.46 726.72 423.44L725.14 422.97L723.15 423.21C723.15 423.21 723.03 423.17 722.92 423.14C722.57 423.05 722.14 422.95 721.74 422.95C721.6 422.95 721.47 422.96 721.35 422.99C720.92 423.08 720.44 423.18 720.01 423.18C719.86 423.18 719.72 423.17 719.61 423.14C719.37 423.09 719.07 423.04 718.76 422.99C718.45 422.94 718.14 422.89 717.91 422.84L716.37 422.91C716.29 422.88 716.09 422.87 715.89 422.85C715.72 422.85 715.54 422.83 715.44 422.8C715.22 422.74 713.91 422.74 713.9 422.74C713.76 422.74 713.66 422.74 713.65 422.74L713.55 422.77C713.46 422.79 713.33 422.83 713.22 422.83C713.09 422.81 712.97 422.75 712.87 422.69C712.72 422.61 712.58 422.54 712.45 422.51C712.23 422.46 711.95 422.43 711.6 422.43C710.97 422.43 710.33 422.51 709.99 422.59H709.16L708.46 423.3V423.42C708.52 424.1 708.83 424.53 709.1 424.91C709.25 425.12 709.39 425.32 709.49 425.55C709.77 426.2 709.84 426.97 709.92 427.78C709.98 428.36 710.03 428.95 710.17 429.55V429.63C710.25 430.07 710.38 430.91 710.32 431.18C710.24 431.56 709.92 432.16 709.68 432.44L709.6 432.53L709.62 432.65C709.66 432.92 709.73 433.06 709.81 433.21L709.93 433.45L710.05 433.48C710.65 433.63 711.09 433.71 711.56 433.71C711.91 433.71 712.28 433.66 712.72 433.55C712.75 433.55 712.78 433.55 712.81 433.55C712.95 433.55 713.1 433.59 713.21 433.62C713.42 433.67 713.56 433.68 713.72 433.68C714.14 433.68 714.59 433.58 714.92 433.51L715.03 433.49L717.2 433.65C717.76 433.53 718.35 433.47 718.92 433.42C719.5 433.36 720.1 433.3 720.6 433.19C720.89 433.13 721.24 433.09 721.65 433.09C722.6 433.09 723.65 433.27 724.27 433.42C724.41 433.45 724.54 433.47 724.68 433.47C725 433.47 725.29 433.38 725.54 433.3C725.75 433.23 725.95 433.17 726.15 433.17C726.22 433.17 726.29 433.17 726.35 433.19C726.41 433.2 726.5 433.25 726.59 433.29C726.79 433.39 727.03 433.51 727.28 433.51H727.38C727.6 433.47 727.85 433.37 728.08 433.27C728.23 433.21 728.37 433.15 728.49 433.11C729.05 432.96 729.67 432.89 730.26 432.82C730.81 432.76 731.32 432.69 731.8 432.58H733.05C733.17 432.56 733.24 432.55 733.32 432.55C733.73 432.55 734.39 432.78 735.17 433.18C735.52 433.36 735.81 433.82 736.09 434.26C736.26 434.53 736.44 434.81 736.64 435.04C736.58 435.8 736.24 436.48 735.91 437.13C735.72 437.51 735.54 437.86 735.42 438.22C734.87 439.87 734.05 443.13 734.79 446.39C734.87 446.76 734.76 447.21 734.68 447.53L734.63 447.72C734.52 448.21 734.5 448.54 734.48 448.83C734.46 449.23 733.96 450.19 734.18 450.2C734.71 449.52 735.1 449.02 735.2 448.89C735.68 448.25 736.45 447.83 736.93 447.22C737.28 446.77 737.53 446.3 737.88 445.84C738.48 445.31 739.08 444.78 739.68 444.25C740.27 443.47 740.75 442.73 741.34 441.96C741.72 441.47 742.31 441.1 742.67 440.59C742.99 439.98 743.31 439.36 743.63 438.75C743.94 438.3 744.49 437.99 744.81 437.53C745.38 436.71 745.89 435.68 746.4 434.85C746.93 433.98 747.46 432.56 747.76 431.55C748.05 430.57 747.98 429.52 748.42 428.7C748.95 427.72 749.93 426.81 750.4 425.8C750.85 424.81 750.8 423.73 751.22 422.72C751.65 421.7 752.33 420.71 752.74 419.65C753.01 418.95 752.88 418.07 752.96 417.3L752.54 417.1L749.76 417.67L747.92 416.8L746.69 413.95L744.52 413.86L742.51 413.06L740.36 414.32L738.4 415.43L736.39 414.67L734.5 415.49L732.28 414.06L730.43 415.08L728.31 414.57L726.37 414.91L724.58 416.22L722.48 415.81L720.89 418.48L719.89 417.52V417.57C719.96 417.85 719.93 418.09 719.89 418.35L719.88 418.38Z" fill="white"/>
<path d="M650.82 421.17C651.06 421.78 650.95 422.46 651.18 423.11C651.46 423.91 651.92 424.9 652.22 425.75C652.27 426.11 652.31 426.47 652.36 426.83C652.63 427.66 653.19 428.57 653.48 429.4C653.5 429.74 653.52 430.07 653.54 430.41C653.64 430.79 653.94 431.17 654.06 431.5C654.29 432.14 654.27 432.63 654.5 433.28C654.69 433.82 655.03 434.45 655.25 434.99C655.4 435.37 655.36 435.72 655.54 436.08C655.7 436.4 656.06 436.7 656.22 437.02C656.63 437.84 656.81 438.59 657.27 439.35C657.52 439.78 657.93 440.17 658.18 440.6C658.43 441.03 658.48 441.49 658.7 441.92C659.07 442.66 659.58 443.34 659.98 444.03C660.26 444.5 660.24 445.08 660.5 445.58C660.78 446.13 661.32 446.61 661.71 447.07C661.85 447.07 662.65 448.17 663.66 449.67C663.71 449.59 663.75 449.49 663.78 449.38C664 449.09 663.91 448.73 663.84 448.4C663.79 448.18 664.02 448.01 664.07 447.79C664.14 447.46 663.98 447.13 664.12 446.81C664.26 446.48 664.4 446.14 664.48 445.76C664.5 445.64 664.62 445.41 664.69 445.27C664.88 444.91 664.98 444.71 664.95 444.55C664.9 443.92 665.03 443.67 665.17 443.41C665.33 443.11 665.49 442.8 665.34 442.11C665.08 440.88 665.13 440.75 665.42 440.05C665.59 439.64 665.61 439.18 665.63 438.73C665.64 438.44 665.65 438.17 665.71 437.95C665.94 436.94 665.88 436.61 665.8 436.11C665.77 435.96 665.74 435.8 665.72 435.58C665.72 435.4 666.1 434.27 666.43 433.5C666.52 433.29 666.71 433.13 666.96 433.06C667.27 432.96 667.57 432.85 667.87 432.74C668.26 432.59 668.64 432.45 669.03 432.35C669.25 432.3 669.44 432.27 669.61 432.27C670.09 432.27 670.28 432.49 670.53 432.8C670.74 433.05 670.98 433.34 671.41 433.49L672.25 433.58L673.02 433.66C673.02 433.66 673.15 433.69 673.24 433.69C673.42 433.69 673.55 433.63 673.67 433.58C673.77 433.54 673.85 433.51 673.95 433.51C673.99 433.51 674.03 433.51 674.07 433.52C674.14 433.54 674.22 433.54 674.3 433.54C674.57 433.54 674.83 433.44 675.04 433.36C675.13 433.33 675.2 433.3 675.27 433.28H676.06C676.21 433.26 676.32 433.23 676.43 433.2C676.74 433.12 677.09 433.02 677.44 433.02C677.56 433.02 677.68 433.03 677.78 433.05C677.88 433.07 678.02 433.09 678.17 433.1C678.38 433.12 678.61 433.14 678.74 433.19C678.82 433.22 678.92 433.29 679.03 433.36C679.2 433.48 679.4 433.61 679.62 433.66C679.71 433.68 679.8 433.69 679.89 433.69C680.16 433.69 680.42 433.62 680.7 433.54C680.98 433.46 681.27 433.39 681.57 433.39C681.7 433.39 681.81 433.4 681.93 433.43C682.06 433.46 682.19 433.53 682.34 433.6C682.51 433.68 682.68 433.77 682.86 433.81C683.13 433.81 683.38 433.7 683.79 433.53C684.03 433.43 684.36 433.29 684.47 433.28C684.47 433.28 684.53 433.28 684.57 433.28C684.9 433.28 685.17 433.2 685.43 433.11C685.7 433.02 685.96 432.94 686.33 432.94H686.44L686.52 432.86C686.6 432.77 686.73 432.68 686.85 432.6L686.98 432.52V432.37C686.98 432 686.98 431.63 686.98 431.25C686.98 429.8 687 428.3 686.67 426.88C686.61 426.62 686.59 426.53 686.58 426.48C686.6 426.48 686.64 426.39 686.68 426.16C686.78 425.5 686.73 425.05 686.63 424.49L686.61 424.41L685.96 423.81H685.88C685.78 423.79 685.67 423.78 685.55 423.78C684.7 423.78 683.39 423.92 682.57 424.17C682.48 424.2 682.38 424.24 682.28 424.28C682.04 424.38 681.78 424.49 681.5 424.47C681.47 424.47 681.43 424.47 681.4 424.46C681.2 424.42 680.99 424.34 680.79 424.25C680.6 424.17 680.41 424.09 680.23 424.05L678.76 424.19C678.67 424.16 678.49 424.14 678.31 424.13C677.05 424.04 675.54 424.35 675.11 424.44C674.95 424.48 674.75 424.48 674.5 424.47C674.31 424.46 674.11 424.43 673.9 424.4C673.68 424.37 673.46 424.34 673.23 424.33C673.07 424.32 672.91 424.31 672.75 424.33L668.58 424.68C668.58 424.68 668.42 424.65 668.3 424.64C668.19 424.64 667.69 424.61 667.56 424.6C667.38 424.59 667.2 424.57 667.03 424.53H667C666.74 424.51 666.56 424.59 666.41 424.66C666.3 424.71 666.18 424.77 666.11 424.76C666.04 424.75 665.98 424.74 665.93 424.74C665.59 424.72 665.27 424.8 664.96 424.89C664.64 424.98 664.35 425.06 664.02 425.04C663.97 425.04 663.92 425.04 663.87 425.02C663.57 424.97 663.3 424.92 663.02 424.9C662.7 424.88 662.41 424.9 662.15 424.94C662.15 424.92 661.85 424.77 661.65 424.67C661.26 424.47 661.02 424.35 660.88 424.32C660.68 424.28 660.63 424.24 660.56 424.17C660.43 424.04 660.29 423.93 659.95 423.88H659.92C659.68 423.86 659.5 423.88 659.32 423.9C659.16 423.92 659.01 423.94 658.86 423.93C658.78 423.93 658.71 423.91 658.66 423.88C658.26 423.76 657.66 422.59 657.61 421.9C657.72 421.81 657.83 421.8 657.97 421.81C658.06 421.81 658.16 421.83 658.25 421.85C658.37 421.87 658.5 421.89 658.63 421.9C658.9 421.92 659.13 421.88 659.36 421.79C659.74 421.63 660 421.51 660.31 421.54C660.35 421.54 660.4 421.54 660.45 421.56C660.77 421.62 661.08 421.66 661.37 421.68C661.9 421.72 662.38 421.68 662.74 421.6C663.24 421.47 663.98 421.36 664.38 421.38C664.42 421.38 664.45 421.38 664.48 421.39L665.7 421.34C665.7 421.34 665.73 421.34 665.77 421.35C666.03 421.37 666.28 421.31 666.5 421.25C666.68 421.2 666.86 421.16 667.01 421.17H667.14L668.3 421.13C668.39 421.16 668.56 421.22 668.73 421.29C668.91 421.36 669.1 421.43 669.25 421.46L670.32 421.42C670.41 421.45 670.58 421.51 670.75 421.57C670.96 421.64 671.17 421.71 671.35 421.75L672.77 421.69C672.97 421.72 673.21 421.76 673.48 421.78C673.82 421.8 674.13 421.8 674.45 421.77L675.23 421.66C675.29 421.68 675.43 421.7 675.57 421.71C676.51 421.78 677.42 421.57 678.29 421.36C678.98 421.2 679.69 421.03 680.43 421L685.03 420.91C685.2 420.89 685.37 420.88 685.54 420.87C685.9 420.85 686.27 420.83 686.62 420.71C686.77 420.66 686.93 420.64 687.1 420.64C687.34 420.64 687.57 420.68 687.78 420.72C687.88 420.74 687.97 420.76 688.06 420.77C688.47 420.83 688.87 420.85 689.26 420.88C689.61 420.9 689.95 420.93 690.26 420.97L690.98 420.85L691.63 420.73C691.63 420.73 691.77 420.75 691.9 420.75C692.85 420.75 694.75 420.82 695.71 420.42L694.74 420.13L692.68 418.42L690.72 420.65L688.69 418.72L686.69 419.17L684.7 418.41L682.7 418.77L680.69 419.06L678.62 420.8L676.68 419.08L674.61 420.17L672.62 419.75L670.51 420.89L668.64 419.11L666.78 417.55L664.6 419.14L662.72 417.9L660.61 418.62L658.45 419.57L656.71 417.52L654.75 417.08L653.03 418.85L650.53 417.65L649.67 418.41V419.05C649.87 419.84 650.57 420.39 650.86 421.15L650.82 421.17Z" fill="white"/>
<path d="M667.72 516.43C667.93 515.67 668.13 514.92 668.34 514.16C668.69 513.06 669.29 511.95 669.58 510.96C669.6 510.58 669.61 510.2 669.63 509.83C669.88 508.38 669.91 506.65 670.25 505.04C670.42 504.25 670.83 503.67 671.02 502.98C671.27 502.09 670.66 501.34 670.92 500.45C671.14 499.95 671.37 499.45 671.59 498.96C671.96 497.77 671.87 496.74 672.11 495.35C672.18 494.93 672.43 494.17 672.26 493.75C672.24 493.7 672.23 493.65 672.21 493.6C672.06 493.58 671.9 493.57 671.75 493.55C671.2 494.59 670.35 495.2 669.79 496.13C669.6 496.59 669.41 497.06 669.22 497.52C668.91 498.17 668.38 498.63 668.03 499.22C667.74 499.84 667.45 500.46 667.15 501.08C666.67 501.6 666.19 502.11 665.71 502.63C665.38 503.18 665.06 503.73 664.73 504.28C664.44 504.59 664.15 504.9 663.85 505.21C663.15 506.2 662.73 507.24 662.1 508.3C661.77 508.71 661.45 509.12 661.12 509.54C660.81 510.21 660.5 510.88 660.19 511.55C658.46 513.99 656.01 515.77 654.42 518.41C654.21 519.08 654.01 519.75 653.8 520.42C652.82 522.75 651.82 524.95 650.91 527.53C650.38 529.04 649.25 530.32 648.49 531.6C648.21 532.24 647.94 532.87 647.67 533.51C646.69 535.17 645.26 536.72 644.32 538.41C643.38 540.09 642.83 541.76 641.79 543.31C641.06 544.4 639.12 546.26 639.16 547.9C639.3 548.04 639.43 548.17 639.57 548.31C640.77 548.5 641.98 547.55 642.97 547.23C643.67 547.01 644.33 547.05 645.14 546.87C645.71 546.66 646.27 546.46 646.84 546.25C647.66 546.03 648.49 546.44 649.21 546.15C651.42 545.25 653.23 543.75 655.34 542.85C656.04 542.68 656.75 542.51 657.45 542.33C657.98 542.12 660.89 540.23 661.16 539.86C661.3 539.4 661.44 538.93 661.57 538.47C662.01 537.4 663.01 536.76 663.27 535.53V533.57C663.42 532.92 663.58 532.26 663.73 531.61C665 527.38 666.48 522.97 667.75 518.67C667.73 517.93 667.72 517.19 667.7 516.45L667.72 516.43Z" fill="white"/>
<path d="M694.34 460.56C694.44 460.63 694.49 460.67 694.49 460.85V460.96L694.57 461.04C694.69 461.16 694.85 461.37 695 461.61L695.07 461.72H695.2C695.5 461.77 695.73 461.81 695.94 461.85C696.23 461.9 696.47 461.95 696.76 461.95C696.98 461.95 697.19 461.92 697.44 461.87L698.6 461.95C698.92 461.89 699.23 461.83 699.53 461.76L700.14 461.63C700.21 461.62 700.28 461.61 700.36 461.61C700.64 461.61 700.94 461.7 701.24 461.79C701.55 461.88 701.86 461.98 702.16 461.98C702.44 461.98 702.68 461.89 702.88 461.73C703.27 461.6 703.42 461.17 703.56 460.79C703.61 460.66 703.65 460.53 703.71 460.41C703.78 460.28 703.85 460.15 703.93 460.01C704.17 459.58 704.44 459.09 704.58 458.58C704.81 457.75 704.39 457.26 704.08 456.9C703.99 456.8 703.91 456.7 703.85 456.6C703.79 456.5 703.77 456.37 703.75 456.21C703.73 456.05 703.71 455.88 703.63 455.7C703.56 455.53 703.41 455.44 703.22 455.44C703.13 455.44 703.03 455.46 702.95 455.48C702.89 455.49 702.83 455.51 702.79 455.51L702.72 455.42L702.65 455.45L701.02 455.37L700.95 455.41C700.87 455.46 700.76 455.48 700.57 455.48H700.22C700.09 455.48 699.91 455.48 699.72 455.53C699.38 455.62 699.1 455.65 698.82 455.68C698.52 455.72 698.21 455.76 697.84 455.86C697.62 455.92 697.38 455.94 697.04 455.94C696.89 455.94 696.74 455.94 696.6 455.94C696.45 455.94 696.3 455.94 696.16 455.94C695.75 455.94 695.29 455.97 694.91 456.22C694.16 456.71 694.18 457.61 694.19 458.48C694.2 458.97 694.21 459.47 694.1 459.94C694.01 460.33 694.23 460.49 694.35 460.58L694.34 460.56Z" fill="white"/>
<path d="M757.42 544.68C756.63 543.63 755.84 542.58 755.05 541.54C753.45 539.41 751.69 537.34 750.41 534.89C749.98 534.07 749.84 533.18 749.43 532.26C749.17 531.85 748.91 531.44 748.66 531.02C748.54 530.45 748.42 529.89 748.3 529.32C747.87 528.86 747.44 528.39 747.01 527.93C746.82 527.52 746.63 527.11 746.44 526.69C746 525.92 745.33 525.13 744.79 524.37C744.22 523.75 743.66 523.13 743.09 522.51C742.71 521.77 742.33 521.03 741.96 520.29C741.43 519.72 740.89 519.16 740.36 518.59C740.17 518.14 739.98 517.7 739.79 517.25C739.22 516.27 738.41 515.27 737.73 514.31C736.39 512.69 735.05 511.08 733.71 509.46C732.08 507.23 730.8 504.78 729.12 502.55C728.48 501.7 727.59 501.07 726.95 500.18C724.8 497.13 722.49 494.22 719.84 491.67C718.99 490.86 718.22 489.2 716.64 489.2C715.8 489.63 714.82 489.37 713.65 489.56C712.39 489.77 710.7 490.26 708.96 489.97C708.22 489.8 707.48 489.63 706.74 489.45C705.81 489.32 705.12 490.02 704.16 490.17C702.33 490.45 699.47 489.53 698.33 490.69C698.18 491.5 698.54 492.26 698.69 492.96C698.92 494.07 698.86 495.2 698.69 496.26C698.55 497.09 698.75 497.59 699.21 497.86C699.9 497.79 700.31 497.4 700.91 497.24H702.87C703.42 497.1 703.97 496.97 704.52 496.83C705.04 496.81 705.55 496.8 706.07 496.78C706.77 496.57 707.48 496.37 708.18 496.16C708.87 496.09 709.48 496.48 709.98 496.62C711.97 497.2 712.98 497.32 713.64 499.25C713.1 500.47 711.59 499.74 710.13 500.02C709.61 500.09 709.1 500.16 708.58 500.23C708.13 500.16 707.69 500.09 707.24 500.02C706.72 500.19 706.21 500.36 705.69 500.54C705.26 500.49 704.83 500.44 704.4 500.39L702.29 500.54C701.24 500.66 700.1 499.94 698.99 500.28C698.48 500.44 698.31 501.21 698.42 501.98C698.52 503.58 698.63 505.18 698.73 506.77C698.64 507.22 698.56 507.66 698.47 508.11L698.52 508.21C699.67 509.04 702.03 508.22 703.16 508C703.62 508.02 704.09 508.03 704.55 508.05C705.17 507.96 705.79 507.88 706.41 507.79L707.6 507.89C710.77 507.39 714.02 507.55 715.33 509.75C716.05 510.95 715.1 512.61 715.33 514.03C715.49 515.06 715.14 516.06 715.28 516.92C715.66 519.32 716.59 523.37 714.4 524.6C713.75 524.97 712.88 524.46 712.34 524.34C711.13 524.08 708.24 523.52 706.98 523.72C705.62 523.93 703.71 524.03 702.34 523.67C701.91 523.43 701.48 523.19 701.05 522.95C700.23 522.74 699.97 523.49 699.19 523.31C698.37 523.12 698.11 522.4 697.08 522.23C695.8 522.02 695.37 522.77 694.5 522.95L692.39 522.85C690.39 523.18 687.55 522.92 685.69 522.64C684.19 523.69 685.69 524.97 683.27 525.78C682.96 525.89 682.47 526.09 681.98 525.99C680.42 525.65 679.98 523.56 680.38 521.51C680.71 520.62 681.03 519.72 681.36 518.83C681.6 517.69 681.26 516.68 681.57 515.69C681.81 515.17 682.05 514.66 682.29 514.14C682.46 513.37 681.98 512.95 681.88 512.39L682.03 508.21C682.52 506.88 684.35 507.82 685.54 508.06C686.69 508.29 687.22 508.82 688.12 509.09C688.79 509.29 693.5 509.36 694.2 509.14C695.62 508.7 694.44 506.12 694.72 504.76C694.86 504.06 695.05 503.04 694.87 502.18C694.73 501.48 694.59 500.77 694.46 500.07C694.65 499.59 694.84 499.11 695.03 498.63C695.26 497.59 694.59 495.34 694.41 494.51C694.18 493.43 694.49 492.3 694.2 491.37C694.01 491.11 693.82 490.85 693.63 490.6C692.38 490.35 691.89 491.4 690.49 491.17C689.01 490.95 687.53 490.72 686.06 490.5C685 490.33 684.29 490.85 683.33 490.65C682.68 490.53 682.02 490.41 681.37 490.29C681.01 490.07 680.65 489.84 680.29 489.62C679.68 489.4 678.24 489.39 677.66 489.31C677.49 489.46 677.32 489.62 677.14 489.77C676.91 490.88 677.28 492.1 677.04 493.33C676.66 494.41 676.28 495.5 675.91 496.58C675.88 497.58 675.84 498.57 675.81 499.57C675.56 500.71 675.45 502.26 675.14 503.54C674.8 504.83 674.45 506.12 674.11 507.41C674.09 507.99 674.08 508.58 674.06 509.16C673.87 509.76 673.68 510.36 673.49 510.96C673.4 511.54 673.32 512.13 673.23 512.71C672.66 513.86 672.1 515.01 671.53 516.16C671.38 517.21 671.22 518.26 671.07 519.3C670.8 520.6 670.31 521.92 670.09 523.06C670.02 523.99 669.95 524.92 669.88 525.84C669.62 527.05 669.26 528.46 668.85 529.76C668.44 530.88 668.03 531.99 667.61 533.11C667.56 533.64 667.51 534.18 667.46 534.71C667.18 535.78 666.4 536.37 666.38 537.85L666.48 538C666.64 538.11 666.78 538.31 667.1 538.26C667.89 537.9 668.68 537.54 669.47 537.18C670.64 536.8 671.81 536.42 672.98 536.05C674.83 535.59 676.28 535.62 678.13 535.17C678.75 534.96 679.37 534.76 679.99 534.55C680.94 534.38 681.76 534.55 682.57 534.34C683.43 534.13 684.87 533.63 685.87 533.72C686.42 533.84 686.97 533.96 687.52 534.08C689.13 534.03 690.75 533.98 692.37 533.93C693.6 534.15 695.32 534.37 696.7 534.6C698.69 534.63 700.69 534.67 702.68 534.7C703.42 534.8 704.16 534.91 704.9 535.01C705.33 535.2 705.76 535.39 706.19 535.58C706.53 535.51 706.88 535.44 707.22 535.37C707.7 535.4 708.18 535.44 708.66 535.47C709.54 535.28 710.41 535.09 711.29 534.9C712.56 534.74 713.48 535.69 714.8 535.42C715.13 535.32 715.45 535.21 715.78 535.11C716.89 534.9 719.48 535.76 720.63 535.93C721.25 535.9 721.87 535.86 722.49 535.83C723.91 536.12 724.9 536.92 726 537.48L727.96 538.05C728.58 538.39 729.2 538.74 729.82 539.08C730.46 539.25 731.09 539.42 731.73 539.6C732.28 539.89 732.83 540.18 733.38 540.48C734.22 540.69 735.06 540.89 735.91 541.1C736.75 541.36 737.43 541.83 738.18 542.13C738.82 542.32 739.45 542.51 740.09 542.7C741.17 543.32 742.26 543.94 743.34 544.56C744.76 544.97 745.94 545.12 747.16 545.64C748.1 546.1 749.05 546.57 749.99 547.03C750.63 547.18 751.26 547.34 751.9 547.49C752.86 547.89 753.82 548.28 754.79 548.68C755.58 548.86 756.51 548.63 757.21 548.53C757.87 548.43 758.37 548.85 758.96 548.63C759.18 548.44 759.41 548.25 759.63 548.06C760.39 546.83 757.97 545.19 757.46 544.66L757.42 544.68Z" fill="white"/>
<path d="M707.07 420.03C707.63 420.03 708.079 419.98 708.409 419.89C708.559 419.85 708.839 419.81 709.109 419.78C709.399 419.74 709.679 419.7 709.849 419.66C710.039 419.68 710.6 419.7 711.15 419.72C711.7 419.74 712.26 419.76 712.53 419.77C713.42 419.59 714.79 419.59 715.7 419.59H716.14L716.219 419.51C716.299 419.43 716.4 419.35 716.52 419.28L714.81 418.95L712.659 418.02L710.789 419.34L708.729 419L706.62 418.02L704.76 419.74L704.52 419.78C704.61 419.79 704.709 419.78 704.789 419.81C705.279 419.92 706.22 420.03 707.07 420.03V420.03Z" fill="white"/>
<path d="M667.03 454.41C667.03 454.56 667.03 454.69 667.03 454.82C667.95 456.25 668.7 457.41 668.94 457.76C669.46 458.51 670.38 460 670.87 460.77C671.25 461.16 671.63 461.55 672.01 461.95C672.55 462.69 673 463.36 673.52 464.14C673.64 464.31 673.8 464.48 673.99 464.64C674.37 465.18 674.72 465.7 675.12 466.28C675.38 466.66 675.9 467.03 676.31 467.33C676.58 467.78 676.81 468.18 676.94 468.37C677.14 468.66 677.4 468.94 677.69 469.22C677.95 469.66 678.19 470.06 678.31 470.24C678.79 470.96 679.73 471.59 680.3 472.36C681.26 473.68 682.42 474.77 683.34 476.16C683.56 476.49 684.3 477.51 684.06 477.75C683.86 478.23 683.56 478.79 683.08 478.98C682.54 479.19 681.81 479.88 681.47 480.33C681.1 480.81 680.67 481.04 680.3 481.53C680.13 481.67 679.96 481.81 679.79 481.95C679.54 482.27 679.4 482.66 679.12 482.95C678.91 483.17 678.57 483.28 678.39 483.52C677.72 484.39 676.5 486.07 676.54 486.21C676.58 486.35 676.74 486.26 676.84 486.3C677.04 486.37 677.25 486.44 677.49 486.44C677.57 486.44 677.65 486.44 677.72 486.41H677.73C677.82 486.41 677.92 486.43 678.02 486.46C678.15 486.49 678.29 486.53 678.43 486.53C678.49 486.53 678.54 486.53 678.59 486.51H680.09C680.17 486.49 680.23 486.49 680.31 486.49H680.98C681.19 486.49 681.25 486.48 681.3 486.47C681.62 486.39 681.74 486.37 681.83 486.37C681.89 486.37 681.93 486.37 681.99 486.37C682.09 486.37 682.22 486.39 682.43 486.39C683.04 486.39 683.34 486.49 683.63 486.59C683.9 486.68 684.18 486.77 684.64 486.77C684.75 486.77 684.87 486.77 685.01 486.75C685.07 486.75 685.12 486.75 685.18 486.75C685.57 486.75 685.89 486.86 686.23 486.98C686.56 487.1 686.91 487.22 687.31 487.22C687.46 487.22 687.61 487.2 687.76 487.16C688.03 487.09 688.43 487.05 688.95 487.05C689.74 487.05 690.68 487.11 691.44 487.16C691.99 487.2 692.46 487.23 692.74 487.23C692.87 487.23 692.96 487.23 693.03 487.2C693.17 487.17 693.25 487.09 693.29 487.02C693.4 486.84 693.35 486.62 693.29 486.34C693.21 486.01 693.1 485.56 693.22 485.02C693.26 484.83 693.28 484.24 693.31 483.3C693.33 482.65 693.36 481.85 693.39 481.71C693.49 481.31 693.39 480.98 693.3 480.7C693.24 480.5 693.19 480.32 693.22 480.15C693.24 480.02 693.27 479.88 693.31 479.72C693.43 479.17 693.59 478.48 693.43 477.8C693.23 476.94 692.81 476.38 692.47 475.93C692 475.3 691.73 474.94 692.21 474.11C693.79 474.14 695 474.28 695.44 474.48C695.56 474.63 695.8 474.72 696.09 474.82C696.18 474.85 696.31 474.9 696.39 474.93V475.89C696.54 476.36 696.8 476.66 697.06 476.94C697.34 477.25 697.6 477.54 697.67 477.93C697.77 478.46 697.49 479.62 697.3 480.38C697.24 480.63 697.19 480.85 697.16 481C697.1 481.31 697.19 481.56 697.26 481.77C697.33 481.98 697.39 482.15 697.33 482.37C697.27 482.58 697.19 482.87 697.11 483.17C696.99 483.6 696.86 484.06 696.79 484.37C696.73 484.62 696.61 484.76 696.47 484.93C696.38 485.03 696.3 485.13 696.23 485.25C696.23 485.26 695.54 486.71 695.81 487.06L695.89 487.16C695.89 487.16 696.18 487.16 696.28 487.16C696.83 487.16 697.59 487.08 698.39 487.01C699.31 486.93 700.27 486.84 701.05 486.83C701.51 486.83 701.86 486.85 702.11 486.9C702.15 486.9 702.19 486.9 702.23 486.9C702.54 486.9 702.89 486.87 703.24 486.85C703.63 486.83 704.01 486.8 704.28 486.8C704.36 486.82 704.5 486.84 704.64 486.84C705.05 486.84 705.39 486.7 705.72 486.57C706.02 486.45 706.3 486.34 706.6 486.34C706.7 486.34 706.8 486.34 706.9 486.37C707.27 486.35 707.7 486.28 708.13 486.21C708.56 486.14 708.98 486.07 709.25 486.04C709.29 486.06 709.42 486.07 709.55 486.07C709.95 486.07 710.3 485.94 710.67 485.81C710.9 485.73 711.14 485.64 711.4 485.59L711.69 485.53C712.13 485.43 712.51 485.34 712.86 485.34C713 485.34 713.13 485.35 713.25 485.38C713.27 485.38 713.29 485.38 713.31 485.38C713.58 485.38 713.8 485.33 714 485.29C714.16 485.26 714.35 485.33 714.45 485.21C714.55 485.09 714.14 484.88 714.07 484.81C712.69 483.38 710.46 480.92 710.36 480.14C710.27 479.42 711.17 477.95 711.44 477.55C711.74 477.11 711.93 476.56 712.26 476.12C712.58 475.81 712.89 475.5 713.21 475.2C713.47 474.8 713.7 474.4 713.95 474.03C714.07 473.91 714.19 473.8 714.31 473.68C714.41 473.53 714.5 473.37 714.6 473.22C714.6 473.22 714.61 473.2 714.62 473.2C715.08 472.77 715.55 472.35 716.01 471.92C716.35 471.71 716.72 471.65 717.03 471.43C717.38 471.17 717.57 470.71 717.84 470.36C718.04 470.09 718.37 469.92 718.64 469.72C718.99 469.46 719.18 469 719.45 468.65C719.74 468.39 720.04 468.13 720.33 467.87C720.62 467.5 720.85 467.17 721.14 466.8C721.63 466.35 722.12 465.9 722.6 465.45C722.94 465.01 723.29 464.55 723.62 464.09H723.43C723.74 463.81 724.04 463.53 724.35 463.24C724.88 462.55 725.47 461.83 725.93 461.1C726.17 460.71 726.23 460.3 726.49 459.95C727.27 458.89 728.37 457.96 729.09 456.82C729.23 456.6 729.89 455.73 730.74 454.64C730.65 454.31 730.57 454.02 730.67 453.8C730.77 453.59 730.75 453.37 730.73 453.17C730.72 453.04 730.71 451.96 730.75 451.9L730.8 451.83V451.75C730.8 451.48 730.85 451.31 730.89 451.18C730.95 450.96 731.01 450.75 730.78 450.43L730.71 450.33H730.58C730.47 450.31 730.35 450.31 730.22 450.31H729.45C729.18 450.31 728.83 450.31 728.54 450.25C728.38 450.22 728.26 450.2 728.14 450.2C727.95 450.2 727.81 450.24 727.61 450.3C727.49 450.33 727.35 450.37 727.15 450.42C726.96 450.46 726.76 450.48 726.54 450.48C726.21 450.48 725.87 450.43 725.55 450.38C725.22 450.33 724.88 450.28 724.53 450.28C724.29 450.28 724.08 450.3 723.87 450.35C723.75 450.38 723.64 450.39 723.52 450.39C723.22 450.39 722.96 450.3 722.7 450.22C722.45 450.14 722.19 450.06 721.92 450.06C721.6 450.06 721.31 450.17 721.02 450.41H719.47C719.3 450.33 719.12 450.24 718.93 450.15C718.56 449.96 718.17 449.77 717.78 449.63C717.62 449.62 717.4 449.51 717.26 449.44C717.02 449.33 716.79 449.22 716.6 449.22C716.06 449.22 716.03 449.17 715.92 448.94C715.86 448.82 715.79 448.69 715.68 448.52C715.51 448.28 715.4 448.01 715.28 447.71C715.2 447.5 715.11 447.3 715.01 447.1C714.81 446.71 714.45 446.54 714.15 446.41C713.8 446.26 713.67 445.9 713.59 445.56L713.54 444.91C713.49 444.65 713.38 444.42 713.26 444.15C713.04 443.66 712.77 443.05 712.87 442.61C712.94 442.28 713.05 441.67 712.95 441.27C712.81 440.7 712.76 440.04 712.71 439.33C712.64 438.38 712.56 438.33 712.25 437.57C712.15 437.33 711.99 437.14 711.84 436.98C711.76 436.88 711.68 436.79 711.61 436.69L711.55 436.6L711.45 436.57C711.39 436.56 711.33 436.53 711.27 436.51C711.11 436.45 710.92 436.38 710.68 436.38C710.59 436.38 710.5 436.39 710.4 436.41C710.33 436.43 710.25 436.45 710.16 436.48C710.02 436.53 709.87 436.58 709.72 436.58C709.67 436.58 709.63 436.58 709.58 436.57C709.3 436.51 708.94 436.47 708.55 436.42C708.16 436.38 707.75 436.33 707.41 436.26H706.12C706.01 436.22 705.78 436.18 705.55 436.14C705.33 436.1 705.1 436.06 704.94 436.03H702.8L702.72 435.99C702.19 435.86 701.59 435.71 700.88 435.71H700.81L700.74 435.75C700.74 435.75 700.67 435.78 700.56 435.78C700.5 435.78 700.44 435.78 700.37 435.78C700.29 435.78 700.21 435.78 700.13 435.78C700.01 435.78 699.9 435.79 699.81 435.81C699.72 435.83 699.6 435.89 699.47 435.95C699.39 435.99 699.31 436.03 699.27 436.04H697.56C697.4 436.06 697.29 436.1 697.17 436.13C696.93 436.21 696.66 436.29 696.4 436.29C696.31 436.29 696.23 436.29 696.15 436.26C696.02 436.23 695.89 436.17 695.75 436.11C695.45 435.98 695.12 435.83 694.68 435.83C694.54 435.83 694.4 435.85 694.25 435.88C694.16 435.9 694 435.9 693.84 435.9H693.64C693.41 435.9 693.15 435.9 692.93 435.95C692.77 435.99 692.59 436.04 692.4 436.1C692 436.22 691.54 436.36 691.12 436.36C691.01 436.36 690.9 436.35 690.8 436.33C690.03 436.16 689.31 436.09 688.53 436.09C688.39 436.09 688.01 436.1 688.01 436.1L687.41 436.6L687.34 436.94C687.17 437.78 686.91 439.06 687.08 439.86C687.19 440.38 687.03 440.99 686.87 441.62C686.63 442.59 686.48 442.69 686.24 442.86C686.02 443.01 685.73 443.21 685.31 443.88C685.16 444.12 684.95 444.34 684.72 444.56C684.48 444.8 684.24 445.04 684.07 445.33C683.93 445.56 683.87 445.82 683.82 446.04C683.77 446.26 683.72 446.46 683.62 446.61C683.42 446.89 683.12 447.11 682.8 447.35C682.52 447.56 682.23 447.78 682.01 448.04C681.92 448.15 681.83 448.27 681.75 448.39C681.6 448.6 681.46 448.8 681.29 448.91C681.06 449.07 680.75 449.13 680.44 449.2C680.18 449.26 679.91 449.31 679.64 449.42C679.47 449.49 679.3 449.6 679.13 449.72C678.94 449.84 678.77 449.96 678.58 450.02C678.13 450.17 677.66 450.27 677.21 450.37L676.75 450.47H675.42C675.18 450.51 674.98 450.59 674.78 450.66C674.59 450.73 674.39 450.81 674.2 450.85C673.55 450.83 672.4 450.65 671.29 450.47C670.16 450.29 669.97 450.47 669.22 450.46C668.83 450.56 668.19 450.25 667.89 450.24C667.78 450.24 667.48 449.89 667.38 449.95L667.23 450.78C667.23 450.78 667.27 451.84 667.23 452.01C667.07 452.81 666.86 453.81 667 454.38L667.03 454.41ZM689.99 451.49C690.18 451.49 691.14 451.51 691.39 451.51C692 451.51 692.32 451.48 692.48 451.41C692.52 451.44 692.83 451.69 693.02 451.83C693.43 452.15 693.69 452.35 693.93 452.35H693.97L694.05 452.33H694.08C694.3 452.33 694.42 452.5 694.58 452.75C694.77 453.05 694.99 453.38 695.39 453.38C695.46 453.38 695.53 453.37 695.6 453.35C695.8 453.29 695.97 453.14 696.12 453.01C696.22 452.92 696.32 452.83 696.4 452.8C696.59 452.72 696.96 452.68 697.27 452.66C697.49 452.64 697.69 452.62 697.83 452.59C697.94 452.57 698.05 452.55 698.16 452.55C698.48 452.55 698.79 452.64 699.06 452.72C699.18 452.76 699.3 452.79 699.4 452.81C699.54 452.84 699.74 452.86 700 452.86C700.74 452.86 702.07 452.71 702.52 452.51C702.75 452.53 702.93 452.59 703.12 452.64C703.22 452.67 703.31 452.7 703.41 452.72C703.41 452.72 704.96 452.72 704.97 452.72C705.36 452.72 705.64 452.48 705.9 452.25C706.1 452.08 706.32 451.88 706.47 451.88C706.82 452.01 707.14 452.28 707.45 452.53C707.8 452.82 708.13 453.09 708.47 453.21C708.54 453.26 708.78 453.62 708.9 453.81C709.19 454.25 709.3 454.41 709.5 454.41H709.63C709.81 454.4 709.94 454.5 710.1 454.62C710.13 454.64 710.16 454.67 710.19 454.69C710.37 455.81 710.06 456.55 709.74 457.33C709.59 457.69 709.43 458.07 709.33 458.48C709.18 459.09 709.29 459.57 709.38 459.99C709.47 460.39 709.55 460.74 709.41 461.17C709.16 461.94 708.52 463.03 707.88 463.51C707.81 463.57 707.73 463.62 707.64 463.68C707.35 463.89 707.01 464.12 706.81 464.42C706.7 464.59 706.67 464.77 706.64 464.92C706.62 465.03 706.61 465.13 706.56 465.22L706.13 465.64L704.74 465.86H703.85C703.72 465.88 703.65 465.89 703.58 465.89C703.36 465.89 703.12 465.82 702.84 465.73C702.63 465.66 702.4 465.6 702.15 465.55C701.66 465.45 701.04 465.23 700.44 465C699.94 464.81 699.46 464.64 699.06 464.54H697.92C697.58 464.45 697.13 464.37 696.67 464.3C696.26 464.23 695.83 464.16 695.42 464.08H695.41C694.95 464.08 694.83 464.47 694.75 464.73C694.72 464.83 694.67 464.98 694.63 465.01C694.37 464.93 694.1 464.91 693.86 464.89C693.5 464.86 693.24 464.84 692.9 464.64C692.72 464.53 692.54 464.46 692.36 464.38C692.07 464.26 691.82 464.16 691.67 463.94C691.59 463.82 691.56 463.69 691.53 463.53C691.5 463.39 691.46 463.23 691.39 463.05C691.32 462.9 691.21 462.68 691.07 462.44C690.82 461.98 690.51 461.4 690.42 461.03L690.47 459.82L690.51 458.55C690.47 458.35 690.42 458.16 690.35 457.93C690.06 456.91 689.38 454.51 689.72 453.68C689.94 453.15 689.81 452.48 689.71 451.94C689.68 451.78 689.64 451.57 689.63 451.44C689.72 451.44 689.84 451.44 689.97 451.44L689.99 451.49Z" fill="white"/>
<path d="M711.13 512.3C709.93 510.96 708.8 512.25 707.11 511.99C705.88 511.8 704.41 511.99 703.04 511.78C702.28 511.68 701.53 511.57 700.77 511.47C700.16 511.74 699.39 511.55 698.6 511.68C697.28 511.89 695.75 512.03 694.27 512.25C693.23 512.4 691.8 512.02 690.61 512.25C689.47 512.47 688.47 511.66 687.47 512.04C686.55 512.38 686.97 513.23 686.75 514.31C686.47 515.71 685.96 517.31 685.98 519.05C686.13 519.2 686.29 519.36 686.44 519.51C688.15 519.82 690.36 518.87 691.85 519.15C695.21 519.78 699.07 519.61 702.37 520.28C703.25 520.18 704.12 520.07 705 519.97C705.62 520.12 706.24 520.28 706.86 520.43H709.23C709.96 520.53 710.54 520.76 711.34 520.69C711.48 520.52 711.62 520.35 711.75 520.17C712.11 519.24 711.52 518.16 711.39 517.49C711.41 516.91 711.42 516.32 711.44 515.74C711.26 514.65 711.13 513.67 711.13 512.29V512.3Z" fill="white"/>
</g>
<defs>
<clipPath id="clip0_1857_485710">
<rect width="1400" height="787" fill="white" transform="translate(1400 787) rotate(-180)"/>
</clipPath>
</defs>
</svg>
